<?xml version="1.0" encoding="utf-8" standalone="no"?>
<!DOCTYPE svg PUBLIC "-//W3C//DTD SVG 1.1//EN"
  "http://www.w3.org/Graphics/SVG/1.1/DTD/svg11.dtd">
<!-- Created with matplotlib (https://matplotlib.org/) -->
<svg height="420.168281pt" version="1.1" viewBox="0 0 938.770219 420.168281" width="938.770219pt" xmlns="http://www.w3.org/2000/svg" xmlns:xlink="http://www.w3.org/1999/xlink">
 <defs>
  <style type="text/css">
*{stroke-linecap:butt;stroke-linejoin:round;}
  </style>
 </defs>
 <g id="figure_1">
  <g id="patch_1">
   <path d="M 0 420.168281 
L 938.770219 420.168281 
L 938.770219 0 
L 0 0 
z
" style="fill:none;"/>
  </g>
  <g id="axes_1">
   <g id="patch_2">
    <path d="M 86.570219 358.256625 
L 467.024764 358.256625 
L 467.024764 32.096625 
L 86.570219 32.096625 
z
" style="fill:#ffffff;"/>
   </g>
   <g id="matplotlib.axis_1">
    <g id="xtick_1">
     <g id="line2d_1">
      <defs>
       <path d="M 0 0 
L 0 -12 
" id="m7abc42c2fa" style="stroke:#262626;stroke-width:2.5;"/>
      </defs>
      <g>
       <use style="fill:#262626;stroke:#262626;stroke-width:2.5;" x="124.615673" xlink:href="#m7abc42c2fa" y="358.256625"/>
      </g>
     </g>
     <g id="text_1">
      <!-- −20 -->
      <defs>
       <path d="M 52.828125 31.203125 
L 5.5625 31.203125 
L 5.5625 39.40625 
L 52.828125 39.40625 
z
" id="ArialMT-8722"/>
       <path d="M 50.34375 8.453125 
L 50.34375 0 
L 3.03125 0 
Q 2.9375 3.171875 4.046875 6.109375 
Q 5.859375 10.9375 9.828125 15.625 
Q 13.8125 20.3125 21.34375 26.46875 
Q 33.015625 36.03125 37.109375 41.625 
Q 41.21875 47.21875 41.21875 52.203125 
Q 41.21875 57.421875 37.46875 61 
Q 33.734375 64.59375 27.734375 64.59375 
Q 21.390625 64.59375 17.578125 60.78125 
Q 13.765625 56.984375 13.71875 50.25 
L 4.6875 51.171875 
Q 5.609375 61.28125 11.65625 66.578125 
Q 17.71875 71.875 27.9375 71.875 
Q 38.234375 71.875 44.234375 66.15625 
Q 50.25 60.453125 50.25 52 
Q 50.25 47.703125 48.484375 43.546875 
Q 46.734375 39.40625 42.65625 34.8125 
Q 38.578125 30.21875 29.109375 22.21875 
Q 21.1875 15.578125 18.9375 13.203125 
Q 16.703125 10.84375 15.234375 8.453125 
z
" id="ArialMT-50"/>
       <path d="M 4.15625 35.296875 
Q 4.15625 48 6.765625 55.734375 
Q 9.375 63.484375 14.515625 67.671875 
Q 19.671875 71.875 27.484375 71.875 
Q 33.25 71.875 37.59375 69.546875 
Q 41.9375 67.234375 44.765625 62.859375 
Q 47.609375 58.5 49.21875 52.21875 
Q 50.828125 45.953125 50.828125 35.296875 
Q 50.828125 22.703125 48.234375 14.96875 
Q 45.65625 7.234375 40.5 3 
Q 35.359375 -1.21875 27.484375 -1.21875 
Q 17.140625 -1.21875 11.234375 6.203125 
Q 4.15625 15.140625 4.15625 35.296875 
z
M 13.1875 35.296875 
Q 13.1875 17.671875 17.3125 11.828125 
Q 21.4375 6 27.484375 6 
Q 33.546875 6 37.671875 11.859375 
Q 41.796875 17.71875 41.796875 35.296875 
Q 41.796875 52.984375 37.671875 58.78125 
Q 33.546875 64.59375 27.390625 64.59375 
Q 21.34375 64.59375 17.71875 59.46875 
Q 13.1875 52.9375 13.1875 35.296875 
z
" id="ArialMT-48"/>
      </defs>
      <g style="fill:#262626;" transform="translate(104.091048 379.078531)scale(0.242 -0.242)">
       <use xlink:href="#ArialMT-8722"/>
       <use x="58.398438" xlink:href="#ArialMT-50"/>
       <use x="114.013672" xlink:href="#ArialMT-48"/>
      </g>
     </g>
    </g>
    <g id="xtick_2">
     <g id="line2d_2">
      <g>
       <use style="fill:#262626;stroke:#262626;stroke-width:2.5;" x="200.706582" xlink:href="#m7abc42c2fa" y="358.256625"/>
      </g>
     </g>
     <g id="text_2">
      <!-- −10 -->
      <defs>
       <path d="M 37.25 0 
L 28.46875 0 
L 28.46875 56 
Q 25.296875 52.984375 20.140625 49.953125 
Q 14.984375 46.921875 10.890625 45.40625 
L 10.890625 53.90625 
Q 18.265625 57.375 23.78125 62.296875 
Q 29.296875 67.234375 31.59375 71.875 
L 37.25 71.875 
z
" id="ArialMT-49"/>
      </defs>
      <g style="fill:#262626;" transform="translate(180.181957 379.078531)scale(0.242 -0.242)">
       <use xlink:href="#ArialMT-8722"/>
       <use x="58.398438" xlink:href="#ArialMT-49"/>
       <use x="114.013672" xlink:href="#ArialMT-48"/>
      </g>
     </g>
    </g>
    <g id="xtick_3">
     <g id="line2d_3">
      <g>
       <use style="fill:#262626;stroke:#262626;stroke-width:2.5;" x="276.797491" xlink:href="#m7abc42c2fa" y="358.256625"/>
      </g>
     </g>
     <g id="text_3">
      <!-- 0 -->
      <g style="fill:#262626;" transform="translate(270.068757 379.078531)scale(0.242 -0.242)">
       <use xlink:href="#ArialMT-48"/>
      </g>
     </g>
    </g>
    <g id="xtick_4">
     <g id="line2d_4">
      <g>
       <use style="fill:#262626;stroke:#262626;stroke-width:2.5;" x="352.888401" xlink:href="#m7abc42c2fa" y="358.256625"/>
      </g>
     </g>
     <g id="text_4">
      <!-- 10 -->
      <g style="fill:#262626;" transform="translate(339.430932 379.078531)scale(0.242 -0.242)">
       <use xlink:href="#ArialMT-49"/>
       <use x="55.615234" xlink:href="#ArialMT-48"/>
      </g>
     </g>
    </g>
    <g id="xtick_5">
     <g id="line2d_5">
      <g>
       <use style="fill:#262626;stroke:#262626;stroke-width:2.5;" x="428.97931" xlink:href="#m7abc42c2fa" y="358.256625"/>
      </g>
     </g>
     <g id="text_5">
      <!-- 20 -->
      <g style="fill:#262626;" transform="translate(415.521841 379.078531)scale(0.242 -0.242)">
       <use xlink:href="#ArialMT-50"/>
       <use x="55.615234" xlink:href="#ArialMT-48"/>
      </g>
     </g>
    </g>
    <g id="text_6">
     <!-- angle error ($\circ$) -->
     <defs>
      <path d="M 40.4375 6.390625 
Q 35.546875 2.25 31.03125 0.53125 
Q 26.515625 -1.171875 21.34375 -1.171875 
Q 12.796875 -1.171875 8.203125 3 
Q 3.609375 7.171875 3.609375 13.671875 
Q 3.609375 17.484375 5.34375 20.625 
Q 7.078125 23.78125 9.890625 25.6875 
Q 12.703125 27.59375 16.21875 28.5625 
Q 18.796875 29.25 24.03125 29.890625 
Q 34.671875 31.15625 39.703125 32.90625 
Q 39.75 34.71875 39.75 35.203125 
Q 39.75 40.578125 37.25 42.78125 
Q 33.890625 45.75 27.25 45.75 
Q 21.046875 45.75 18.09375 43.578125 
Q 15.140625 41.40625 13.71875 35.890625 
L 5.125 37.0625 
Q 6.296875 42.578125 8.984375 45.96875 
Q 11.671875 49.359375 16.75 51.1875 
Q 21.828125 53.03125 28.515625 53.03125 
Q 35.15625 53.03125 39.296875 51.46875 
Q 43.453125 49.90625 45.40625 47.53125 
Q 47.359375 45.171875 48.140625 41.546875 
Q 48.578125 39.3125 48.578125 33.453125 
L 48.578125 21.734375 
Q 48.578125 9.46875 49.140625 6.21875 
Q 49.703125 2.984375 51.375 0 
L 42.1875 0 
Q 40.828125 2.734375 40.4375 6.390625 
z
M 39.703125 26.03125 
Q 34.90625 24.078125 25.34375 22.703125 
Q 19.921875 21.921875 17.671875 20.9375 
Q 15.4375 19.96875 14.203125 18.09375 
Q 12.984375 16.21875 12.984375 13.921875 
Q 12.984375 10.40625 15.640625 8.0625 
Q 18.3125 5.71875 23.4375 5.71875 
Q 28.515625 5.71875 32.46875 7.9375 
Q 36.421875 10.15625 38.28125 14.015625 
Q 39.703125 17 39.703125 22.796875 
z
" id="ArialMT-97"/>
      <path d="M 6.59375 0 
L 6.59375 51.859375 
L 14.5 51.859375 
L 14.5 44.484375 
Q 20.21875 53.03125 31 53.03125 
Q 35.6875 53.03125 39.625 51.34375 
Q 43.5625 49.65625 45.515625 46.921875 
Q 47.46875 44.1875 48.25 40.4375 
Q 48.734375 37.984375 48.734375 31.890625 
L 48.734375 0 
L 39.9375 0 
L 39.9375 31.546875 
Q 39.9375 36.921875 38.90625 39.578125 
Q 37.890625 42.234375 35.28125 43.8125 
Q 32.671875 45.40625 29.15625 45.40625 
Q 23.53125 45.40625 19.453125 41.84375 
Q 15.375 38.28125 15.375 28.328125 
L 15.375 0 
z
" id="ArialMT-110"/>
      <path d="M 4.984375 -4.296875 
L 13.53125 -5.5625 
Q 14.0625 -9.515625 16.5 -11.328125 
Q 19.78125 -13.765625 25.4375 -13.765625 
Q 31.546875 -13.765625 34.859375 -11.328125 
Q 38.1875 -8.890625 39.359375 -4.5 
Q 40.046875 -1.8125 39.984375 6.78125 
Q 34.234375 0 25.640625 0 
Q 14.9375 0 9.078125 7.71875 
Q 3.21875 15.4375 3.21875 26.21875 
Q 3.21875 33.640625 5.90625 39.90625 
Q 8.59375 46.1875 13.6875 49.609375 
Q 18.796875 53.03125 25.6875 53.03125 
Q 34.859375 53.03125 40.828125 45.609375 
L 40.828125 51.859375 
L 48.921875 51.859375 
L 48.921875 7.03125 
Q 48.921875 -5.078125 46.453125 -10.125 
Q 44 -15.1875 38.640625 -18.109375 
Q 33.296875 -21.046875 25.484375 -21.046875 
Q 16.21875 -21.046875 10.5 -16.875 
Q 4.78125 -12.703125 4.984375 -4.296875 
z
M 12.25 26.859375 
Q 12.25 16.65625 16.296875 11.96875 
Q 20.359375 7.28125 26.46875 7.28125 
Q 32.515625 7.28125 36.609375 11.9375 
Q 40.71875 16.609375 40.71875 26.5625 
Q 40.71875 36.078125 36.5 40.90625 
Q 32.28125 45.75 26.3125 45.75 
Q 20.453125 45.75 16.34375 40.984375 
Q 12.25 36.234375 12.25 26.859375 
z
" id="ArialMT-103"/>
      <path d="M 6.390625 0 
L 6.390625 71.578125 
L 15.1875 71.578125 
L 15.1875 0 
z
" id="ArialMT-108"/>
      <path d="M 42.09375 16.703125 
L 51.171875 15.578125 
Q 49.03125 7.625 43.21875 3.21875 
Q 37.40625 -1.171875 28.375 -1.171875 
Q 17 -1.171875 10.328125 5.828125 
Q 3.65625 12.84375 3.65625 25.484375 
Q 3.65625 38.578125 10.390625 45.796875 
Q 17.140625 53.03125 27.875 53.03125 
Q 38.28125 53.03125 44.875 45.953125 
Q 51.46875 38.875 51.46875 26.03125 
Q 51.46875 25.25 51.421875 23.6875 
L 12.75 23.6875 
Q 13.234375 15.140625 17.578125 10.59375 
Q 21.921875 6.0625 28.421875 6.0625 
Q 33.25 6.0625 36.671875 8.59375 
Q 40.09375 11.140625 42.09375 16.703125 
z
M 13.234375 30.90625 
L 42.1875 30.90625 
Q 41.609375 37.453125 38.875 40.71875 
Q 34.671875 45.796875 27.984375 45.796875 
Q 21.921875 45.796875 17.796875 41.75 
Q 13.671875 37.703125 13.234375 30.90625 
z
" id="ArialMT-101"/>
      <path id="ArialMT-32"/>
      <path d="M 6.5 0 
L 6.5 51.859375 
L 14.40625 51.859375 
L 14.40625 44 
Q 17.4375 49.515625 20 51.265625 
Q 22.5625 53.03125 25.640625 53.03125 
Q 30.078125 53.03125 34.671875 50.203125 
L 31.640625 42.046875 
Q 28.421875 43.953125 25.203125 43.953125 
Q 22.3125 43.953125 20.015625 42.21875 
Q 17.71875 40.484375 16.75 37.40625 
Q 15.28125 32.71875 15.28125 27.15625 
L 15.28125 0 
z
" id="ArialMT-114"/>
      <path d="M 3.328125 25.921875 
Q 3.328125 40.328125 11.328125 47.265625 
Q 18.015625 53.03125 27.640625 53.03125 
Q 38.328125 53.03125 45.109375 46.015625 
Q 51.90625 39.015625 51.90625 26.65625 
Q 51.90625 16.65625 48.90625 10.90625 
Q 45.90625 5.171875 40.15625 2 
Q 34.421875 -1.171875 27.640625 -1.171875 
Q 16.75 -1.171875 10.03125 5.8125 
Q 3.328125 12.796875 3.328125 25.921875 
z
M 12.359375 25.921875 
Q 12.359375 15.96875 16.703125 11.015625 
Q 21.046875 6.0625 27.640625 6.0625 
Q 34.1875 6.0625 38.53125 11.03125 
Q 42.875 16.015625 42.875 26.21875 
Q 42.875 35.84375 38.5 40.796875 
Q 34.125 45.75 27.640625 45.75 
Q 21.046875 45.75 16.703125 40.8125 
Q 12.359375 35.890625 12.359375 25.921875 
z
" id="ArialMT-111"/>
      <path d="M 23.390625 -21.046875 
Q 16.109375 -11.859375 11.078125 0.4375 
Q 6.0625 12.75 6.0625 25.921875 
Q 6.0625 37.546875 9.8125 48.1875 
Q 14.203125 60.546875 23.390625 72.796875 
L 29.6875 72.796875 
Q 23.78125 62.640625 21.875 58.296875 
Q 18.890625 51.5625 17.1875 44.234375 
Q 15.09375 35.109375 15.09375 25.875 
Q 15.09375 2.390625 29.6875 -21.046875 
z
" id="ArialMT-40"/>
      <path d="M 31.296875 40.671875 
Q 27.390625 40.671875 24.703125 37.953125 
Q 22.015625 35.25 22.015625 31.34375 
Q 22.015625 27.484375 24.703125 24.828125 
Q 27.390625 22.171875 31.296875 22.171875 
Q 35.203125 22.171875 37.890625 24.828125 
Q 40.578125 27.484375 40.578125 31.34375 
Q 40.578125 35.203125 37.859375 37.9375 
Q 35.15625 40.671875 31.296875 40.671875 
z
M 31.296875 46.96875 
Q 34.421875 46.96875 37.296875 45.765625 
Q 40.1875 44.578125 42.28125 42.328125 
Q 44.53125 40.140625 45.65625 37.34375 
Q 46.78125 34.5625 46.78125 31.34375 
Q 46.78125 24.90625 42.265625 20.4375 
Q 37.75 15.96875 31.203125 15.96875 
Q 24.609375 15.96875 20.21875 20.359375 
Q 15.828125 24.75 15.828125 31.34375 
Q 15.828125 37.890625 20.3125 42.421875 
Q 24.8125 46.96875 31.296875 46.96875 
z
" id="DejaVuSans-8728"/>
      <path d="M 12.359375 -21.046875 
L 6.0625 -21.046875 
Q 20.65625 2.390625 20.65625 25.875 
Q 20.65625 35.0625 18.5625 44.09375 
Q 16.890625 51.421875 13.921875 58.15625 
Q 12.015625 62.546875 6.0625 72.796875 
L 12.359375 72.796875 
Q 21.53125 60.546875 25.921875 48.1875 
Q 29.6875 37.546875 29.6875 25.921875 
Q 29.6875 12.75 24.625 0.4375 
Q 19.578125 -11.859375 12.359375 -21.046875 
z
" id="ArialMT-41"/>
     </defs>
     <g style="fill:#262626;" transform="translate(192.185491 407.160281)scale(0.264 -0.264)">
      <use transform="translate(0 0.203125)" xlink:href="#ArialMT-97"/>
      <use transform="translate(55.615234 0.203125)" xlink:href="#ArialMT-110"/>
      <use transform="translate(111.230469 0.203125)" xlink:href="#ArialMT-103"/>
      <use transform="translate(166.845703 0.203125)" xlink:href="#ArialMT-108"/>
      <use transform="translate(189.0625 0.203125)" xlink:href="#ArialMT-101"/>
      <use transform="translate(244.677734 0.203125)" xlink:href="#ArialMT-32"/>
      <use transform="translate(272.460938 0.203125)" xlink:href="#ArialMT-101"/>
      <use transform="translate(328.076172 0.203125)" xlink:href="#ArialMT-114"/>
      <use transform="translate(361.376953 0.203125)" xlink:href="#ArialMT-114"/>
      <use transform="translate(394.677734 0.203125)" xlink:href="#ArialMT-111"/>
      <use transform="translate(450.292969 0.203125)" xlink:href="#ArialMT-114"/>
      <use transform="translate(483.59375 0.203125)" xlink:href="#ArialMT-32"/>
      <use transform="translate(511.376953 0.203125)" xlink:href="#ArialMT-40"/>
      <use transform="translate(544.677734 0.203125)" xlink:href="#DejaVuSans-8728"/>
      <use transform="translate(607.275391 0.203125)" xlink:href="#ArialMT-41"/>
     </g>
    </g>
   </g>
   <g id="matplotlib.axis_2">
    <g id="ytick_1">
     <g id="line2d_6">
      <defs>
       <path d="M 0 0 
L 12 0 
" id="m75044eae4d" style="stroke:#262626;stroke-width:2.5;"/>
      </defs>
      <g>
       <use style="fill:#262626;stroke:#262626;stroke-width:2.5;" x="86.570219" xlink:href="#m75044eae4d" y="276.716625"/>
      </g>
     </g>
     <g id="text_7">
      <!-- 0.03 -->
      <defs>
       <path d="M 9.078125 0 
L 9.078125 10.015625 
L 19.09375 10.015625 
L 19.09375 0 
z
" id="ArialMT-46"/>
       <path d="M 4.203125 18.890625 
L 12.984375 20.0625 
Q 14.5 12.59375 18.140625 9.296875 
Q 21.78125 6 27 6 
Q 33.203125 6 37.46875 10.296875 
Q 41.75 14.59375 41.75 20.953125 
Q 41.75 27 37.796875 30.921875 
Q 33.84375 34.859375 27.734375 34.859375 
Q 25.25 34.859375 21.53125 33.890625 
L 22.515625 41.609375 
Q 23.390625 41.5 23.921875 41.5 
Q 29.546875 41.5 34.03125 44.421875 
Q 38.53125 47.359375 38.53125 53.46875 
Q 38.53125 58.296875 35.25 61.46875 
Q 31.984375 64.65625 26.8125 64.65625 
Q 21.6875 64.65625 18.265625 61.421875 
Q 14.84375 58.203125 13.875 51.765625 
L 5.078125 53.328125 
Q 6.6875 62.15625 12.390625 67.015625 
Q 18.109375 71.875 26.609375 71.875 
Q 32.46875 71.875 37.390625 69.359375 
Q 42.328125 66.84375 44.9375 62.5 
Q 47.5625 58.15625 47.5625 53.265625 
Q 47.5625 48.640625 45.0625 44.828125 
Q 42.578125 41.015625 37.703125 38.765625 
Q 44.046875 37.3125 47.5625 32.6875 
Q 51.078125 28.078125 51.078125 21.140625 
Q 51.078125 11.765625 44.234375 5.25 
Q 37.40625 -1.265625 26.953125 -1.265625 
Q 17.53125 -1.265625 11.296875 4.34375 
Q 5.078125 9.96875 4.203125 18.890625 
z
" id="ArialMT-51"/>
      </defs>
      <g style="fill:#262626;" transform="translate(35.97475 285.377578)scale(0.242 -0.242)">
       <use xlink:href="#ArialMT-48"/>
       <use x="55.615234" xlink:href="#ArialMT-46"/>
       <use x="83.398438" xlink:href="#ArialMT-48"/>
       <use x="139.013672" xlink:href="#ArialMT-51"/>
      </g>
     </g>
    </g>
    <g id="ytick_2">
     <g id="line2d_7">
      <g>
       <use style="fill:#262626;stroke:#262626;stroke-width:2.5;" x="86.570219" xlink:href="#m75044eae4d" y="195.176625"/>
      </g>
     </g>
     <g id="text_8">
      <!-- 0.06 -->
      <defs>
       <path d="M 49.75 54.046875 
L 41.015625 53.375 
Q 39.84375 58.546875 37.703125 60.890625 
Q 34.125 64.65625 28.90625 64.65625 
Q 24.703125 64.65625 21.53125 62.3125 
Q 17.390625 59.28125 14.984375 53.46875 
Q 12.59375 47.65625 12.5 36.921875 
Q 15.671875 41.75 20.265625 44.09375 
Q 24.859375 46.4375 29.890625 46.4375 
Q 38.671875 46.4375 44.84375 39.96875 
Q 51.03125 33.5 51.03125 23.25 
Q 51.03125 16.5 48.125 10.71875 
Q 45.21875 4.9375 40.140625 1.859375 
Q 35.0625 -1.21875 28.609375 -1.21875 
Q 17.625 -1.21875 10.6875 6.859375 
Q 3.765625 14.9375 3.765625 33.5 
Q 3.765625 54.25 11.421875 63.671875 
Q 18.109375 71.875 29.4375 71.875 
Q 37.890625 71.875 43.28125 67.140625 
Q 48.6875 62.40625 49.75 54.046875 
z
M 13.875 23.1875 
Q 13.875 18.65625 15.796875 14.5 
Q 17.71875 10.359375 21.1875 8.171875 
Q 24.65625 6 28.46875 6 
Q 34.03125 6 38.03125 10.484375 
Q 42.046875 14.984375 42.046875 22.703125 
Q 42.046875 30.125 38.078125 34.390625 
Q 34.125 38.671875 28.125 38.671875 
Q 22.171875 38.671875 18.015625 34.390625 
Q 13.875 30.125 13.875 23.1875 
z
" id="ArialMT-54"/>
      </defs>
      <g style="fill:#262626;" transform="translate(35.97475 203.837578)scale(0.242 -0.242)">
       <use xlink:href="#ArialMT-48"/>
       <use x="55.615234" xlink:href="#ArialMT-46"/>
       <use x="83.398438" xlink:href="#ArialMT-48"/>
       <use x="139.013672" xlink:href="#ArialMT-54"/>
      </g>
     </g>
    </g>
    <g id="ytick_3">
     <g id="line2d_8">
      <g>
       <use style="fill:#262626;stroke:#262626;stroke-width:2.5;" x="86.570219" xlink:href="#m75044eae4d" y="113.636625"/>
      </g>
     </g>
     <g id="text_9">
      <!-- 0.09 -->
      <defs>
       <path d="M 5.46875 16.546875 
L 13.921875 17.328125 
Q 14.984375 11.375 18.015625 8.6875 
Q 21.046875 6 25.78125 6 
Q 29.828125 6 32.875 7.859375 
Q 35.9375 9.71875 37.890625 12.8125 
Q 39.84375 15.921875 41.15625 21.1875 
Q 42.484375 26.46875 42.484375 31.9375 
Q 42.484375 32.515625 42.4375 33.6875 
Q 39.796875 29.5 35.234375 26.875 
Q 30.671875 24.265625 25.34375 24.265625 
Q 16.453125 24.265625 10.296875 30.703125 
Q 4.15625 37.15625 4.15625 47.703125 
Q 4.15625 58.59375 10.578125 65.234375 
Q 17 71.875 26.65625 71.875 
Q 33.640625 71.875 39.421875 68.109375 
Q 45.21875 64.359375 48.21875 57.390625 
Q 51.21875 50.4375 51.21875 37.25 
Q 51.21875 23.53125 48.234375 15.40625 
Q 45.265625 7.28125 39.375 3.03125 
Q 33.5 -1.21875 25.59375 -1.21875 
Q 17.1875 -1.21875 11.859375 3.4375 
Q 6.546875 8.109375 5.46875 16.546875 
z
M 41.453125 48.140625 
Q 41.453125 55.71875 37.421875 60.15625 
Q 33.40625 64.59375 27.734375 64.59375 
Q 21.875 64.59375 17.53125 59.8125 
Q 13.1875 55.03125 13.1875 47.40625 
Q 13.1875 40.578125 17.3125 36.296875 
Q 21.4375 32.03125 27.484375 32.03125 
Q 33.59375 32.03125 37.515625 36.296875 
Q 41.453125 40.578125 41.453125 48.140625 
z
" id="ArialMT-57"/>
      </defs>
      <g style="fill:#262626;" transform="translate(35.97475 122.297578)scale(0.242 -0.242)">
       <use xlink:href="#ArialMT-48"/>
       <use x="55.615234" xlink:href="#ArialMT-46"/>
       <use x="83.398438" xlink:href="#ArialMT-48"/>
       <use x="139.013672" xlink:href="#ArialMT-57"/>
      </g>
     </g>
    </g>
    <g id="ytick_4">
     <g id="line2d_9">
      <g>
       <use style="fill:#262626;stroke:#262626;stroke-width:2.5;" x="86.570219" xlink:href="#m75044eae4d" y="32.096625"/>
      </g>
     </g>
     <g id="text_10">
      <!-- 0.12 -->
      <g style="fill:#262626;" transform="translate(35.97475 40.757578)scale(0.242 -0.242)">
       <use xlink:href="#ArialMT-48"/>
       <use x="55.615234" xlink:href="#ArialMT-46"/>
       <use x="83.398438" xlink:href="#ArialMT-49"/>
       <use x="139.013672" xlink:href="#ArialMT-50"/>
      </g>
     </g>
    </g>
    <g id="text_11">
     <!-- frequency -->
     <defs>
      <path d="M 8.6875 0 
L 8.6875 45.015625 
L 0.921875 45.015625 
L 0.921875 51.859375 
L 8.6875 51.859375 
L 8.6875 57.375 
Q 8.6875 62.59375 9.625 65.140625 
Q 10.890625 68.5625 14.078125 70.671875 
Q 17.28125 72.796875 23.046875 72.796875 
Q 26.765625 72.796875 31.25 71.921875 
L 29.9375 64.265625 
Q 27.203125 64.75 24.75 64.75 
Q 20.75 64.75 19.09375 63.03125 
Q 17.4375 61.328125 17.4375 56.640625 
L 17.4375 51.859375 
L 27.546875 51.859375 
L 27.546875 45.015625 
L 17.4375 45.015625 
L 17.4375 0 
z
" id="ArialMT-102"/>
      <path d="M 39.65625 -19.875 
L 39.65625 5.515625 
Q 37.59375 2.640625 33.90625 0.734375 
Q 30.21875 -1.171875 26.078125 -1.171875 
Q 16.84375 -1.171875 10.171875 6.203125 
Q 3.515625 13.578125 3.515625 26.421875 
Q 3.515625 34.234375 6.21875 40.421875 
Q 8.9375 46.625 14.078125 49.828125 
Q 19.234375 53.03125 25.390625 53.03125 
Q 35.015625 53.03125 40.53125 44.921875 
L 40.53125 51.859375 
L 48.4375 51.859375 
L 48.4375 -19.875 
z
M 12.546875 26.078125 
Q 12.546875 16.0625 16.75 11.0625 
Q 20.953125 6.0625 26.8125 6.0625 
Q 32.421875 6.0625 36.46875 10.8125 
Q 40.53125 15.578125 40.53125 25.296875 
Q 40.53125 35.640625 36.25 40.859375 
Q 31.984375 46.09375 26.21875 46.09375 
Q 20.515625 46.09375 16.53125 41.234375 
Q 12.546875 36.375 12.546875 26.078125 
z
" id="ArialMT-113"/>
      <path d="M 40.578125 0 
L 40.578125 7.625 
Q 34.515625 -1.171875 24.125 -1.171875 
Q 19.53125 -1.171875 15.546875 0.578125 
Q 11.578125 2.34375 9.640625 5 
Q 7.71875 7.671875 6.9375 11.53125 
Q 6.390625 14.109375 6.390625 19.734375 
L 6.390625 51.859375 
L 15.1875 51.859375 
L 15.1875 23.09375 
Q 15.1875 16.21875 15.71875 13.8125 
Q 16.546875 10.359375 19.234375 8.375 
Q 21.921875 6.390625 25.875 6.390625 
Q 29.828125 6.390625 33.296875 8.421875 
Q 36.765625 10.453125 38.203125 13.9375 
Q 39.65625 17.4375 39.65625 24.078125 
L 39.65625 51.859375 
L 48.4375 51.859375 
L 48.4375 0 
z
" id="ArialMT-117"/>
      <path d="M 40.4375 19 
L 49.078125 17.875 
Q 47.65625 8.9375 41.8125 3.875 
Q 35.984375 -1.171875 27.484375 -1.171875 
Q 16.84375 -1.171875 10.375 5.78125 
Q 3.90625 12.75 3.90625 25.734375 
Q 3.90625 34.125 6.6875 40.421875 
Q 9.46875 46.734375 15.15625 49.875 
Q 20.84375 53.03125 27.546875 53.03125 
Q 35.984375 53.03125 41.359375 48.75 
Q 46.734375 44.484375 48.25 36.625 
L 39.703125 35.296875 
Q 38.484375 40.53125 35.375 43.15625 
Q 32.28125 45.796875 27.875 45.796875 
Q 21.234375 45.796875 17.078125 41.03125 
Q 12.9375 36.28125 12.9375 25.984375 
Q 12.9375 15.53125 16.9375 10.796875 
Q 20.953125 6.0625 27.390625 6.0625 
Q 32.5625 6.0625 36.03125 9.234375 
Q 39.5 12.40625 40.4375 19 
z
" id="ArialMT-99"/>
      <path d="M 6.203125 -19.96875 
L 5.21875 -11.71875 
Q 8.109375 -12.5 10.25 -12.5 
Q 13.1875 -12.5 14.9375 -11.515625 
Q 16.703125 -10.546875 17.828125 -8.796875 
Q 18.65625 -7.46875 20.515625 -2.25 
Q 20.75 -1.515625 21.296875 -0.09375 
L 1.609375 51.859375 
L 11.078125 51.859375 
L 21.875 21.828125 
Q 23.96875 16.109375 25.640625 9.8125 
Q 27.15625 15.875 29.25 21.625 
L 40.328125 51.859375 
L 49.125 51.859375 
L 29.390625 -0.875 
Q 26.21875 -9.421875 24.46875 -12.640625 
Q 22.125 -17 19.09375 -19.015625 
Q 16.0625 -21.046875 11.859375 -21.046875 
Q 9.328125 -21.046875 6.203125 -19.96875 
z
" id="ArialMT-121"/>
     </defs>
     <g style="fill:#262626;" transform="translate(26.418375 253.141125)rotate(-90)scale(0.264 -0.264)">
      <use xlink:href="#ArialMT-102"/>
      <use x="27.783203" xlink:href="#ArialMT-114"/>
      <use x="61.083984" xlink:href="#ArialMT-101"/>
      <use x="116.699219" xlink:href="#ArialMT-113"/>
      <use x="172.314453" xlink:href="#ArialMT-117"/>
      <use x="227.929688" xlink:href="#ArialMT-101"/>
      <use x="283.544922" xlink:href="#ArialMT-110"/>
      <use x="339.160156" xlink:href="#ArialMT-99"/>
      <use x="389.160156" xlink:href="#ArialMT-121"/>
     </g>
    </g>
   </g>
   <g id="patch_3">
    <path clip-path="url(#p1a2f4f5cda)" d="M 146.07331 358.256625 
L 156.32483 358.256625 
L 156.32483 351.102693 
L 146.07331 351.102693 
z
" style="fill:#e66101;opacity:0.3;stroke:#ffffff;stroke-linejoin:miter;stroke-width:2;"/>
   </g>
   <g id="patch_4">
    <path clip-path="url(#p1a2f4f5cda)" d="M 156.32483 358.256625 
L 166.576351 358.256625 
L 166.576351 354.679659 
L 156.32483 354.679659 
z
" style="fill:#e66101;opacity:0.3;stroke:#ffffff;stroke-linejoin:miter;stroke-width:2;"/>
   </g>
   <g id="patch_5">
    <path clip-path="url(#p1a2f4f5cda)" d="M 166.576351 358.256625 
L 176.827872 358.256625 
L 176.827872 358.256625 
L 166.576351 358.256625 
z
" style="fill:#e66101;opacity:0.3;stroke:#ffffff;stroke-linejoin:miter;stroke-width:2;"/>
   </g>
   <g id="patch_6">
    <path clip-path="url(#p1a2f4f5cda)" d="M 176.827872 358.256625 
L 187.079392 358.256625 
L 187.079392 354.679659 
L 176.827872 354.679659 
z
" style="fill:#e66101;opacity:0.3;stroke:#ffffff;stroke-linejoin:miter;stroke-width:2;"/>
   </g>
   <g id="patch_7">
    <path clip-path="url(#p1a2f4f5cda)" d="M 187.079392 358.256625 
L 197.330913 358.256625 
L 197.330913 340.371794 
L 187.079392 340.371794 
z
" style="fill:#e66101;opacity:0.3;stroke:#ffffff;stroke-linejoin:miter;stroke-width:2;"/>
   </g>
   <g id="patch_8">
    <path clip-path="url(#p1a2f4f5cda)" d="M 197.330913 358.256625 
L 207.582434 358.256625 
L 207.582434 326.06393 
L 197.330913 326.06393 
z
" style="fill:#e66101;opacity:0.3;stroke:#ffffff;stroke-linejoin:miter;stroke-width:2;"/>
   </g>
   <g id="patch_9">
    <path clip-path="url(#p1a2f4f5cda)" d="M 207.582434 358.256625 
L 217.833954 358.256625 
L 217.833954 311.756065 
L 207.582434 311.756065 
z
" style="fill:#e66101;opacity:0.3;stroke:#ffffff;stroke-linejoin:miter;stroke-width:2;"/>
   </g>
   <g id="patch_10">
    <path clip-path="url(#p1a2f4f5cda)" d="M 217.833954 358.256625 
L 228.085475 358.256625 
L 228.085475 308.179099 
L 217.833954 308.179099 
z
" style="fill:#e66101;opacity:0.3;stroke:#ffffff;stroke-linejoin:miter;stroke-width:2;"/>
   </g>
   <g id="patch_11">
    <path clip-path="url(#p1a2f4f5cda)" d="M 228.085475 358.256625 
L 238.336996 358.256625 
L 238.336996 211.601013 
L 228.085475 211.601013 
z
" style="fill:#e66101;opacity:0.3;stroke:#ffffff;stroke-linejoin:miter;stroke-width:2;"/>
   </g>
   <g id="patch_12">
    <path clip-path="url(#p1a2f4f5cda)" d="M 238.336996 358.256625 
L 248.588516 358.256625 
L 248.588516 175.831352 
L 238.336996 175.831352 
z
" style="fill:#e66101;opacity:0.3;stroke:#ffffff;stroke-linejoin:miter;stroke-width:2;"/>
   </g>
   <g id="patch_13">
    <path clip-path="url(#p1a2f4f5cda)" d="M 248.588516 358.256625 
L 258.840037 358.256625 
L 258.840037 147.215622 
L 248.588516 147.215622 
z
" style="fill:#e66101;opacity:0.3;stroke:#ffffff;stroke-linejoin:miter;stroke-width:2;"/>
   </g>
   <g id="patch_14">
    <path clip-path="url(#p1a2f4f5cda)" d="M 258.840037 358.256625 
L 269.091558 358.256625 
L 269.091558 107.868995 
L 258.840037 107.868995 
z
" style="fill:#e66101;opacity:0.3;stroke:#ffffff;stroke-linejoin:miter;stroke-width:2;"/>
   </g>
   <g id="patch_15">
    <path clip-path="url(#p1a2f4f5cda)" d="M 269.091558 358.256625 
L 279.343078 358.256625 
L 279.343078 93.56113 
L 269.091558 93.56113 
z
" style="fill:#e66101;opacity:0.3;stroke:#ffffff;stroke-linejoin:miter;stroke-width:2;"/>
   </g>
   <g id="patch_16">
    <path clip-path="url(#p1a2f4f5cda)" d="M 279.343078 358.256625 
L 289.594599 358.256625 
L 289.594599 136.484724 
L 279.343078 136.484724 
z
" style="fill:#e66101;opacity:0.3;stroke:#ffffff;stroke-linejoin:miter;stroke-width:2;"/>
   </g>
   <g id="patch_17">
    <path clip-path="url(#p1a2f4f5cda)" d="M 289.594599 358.256625 
L 299.84612 358.256625 
L 299.84612 150.792588 
L 289.594599 150.792588 
z
" style="fill:#e66101;opacity:0.3;stroke:#ffffff;stroke-linejoin:miter;stroke-width:2;"/>
   </g>
   <g id="patch_18">
    <path clip-path="url(#p1a2f4f5cda)" d="M 299.84612 358.256625 
L 310.09764 358.256625 
L 310.09764 204.447081 
L 299.84612 204.447081 
z
" style="fill:#e66101;opacity:0.3;stroke:#ffffff;stroke-linejoin:miter;stroke-width:2;"/>
   </g>
   <g id="patch_19">
    <path clip-path="url(#p1a2f4f5cda)" d="M 310.09764 358.256625 
L 320.349161 358.256625 
L 320.349161 265.255505 
L 310.09764 265.255505 
z
" style="fill:#e66101;opacity:0.3;stroke:#ffffff;stroke-linejoin:miter;stroke-width:2;"/>
   </g>
   <g id="patch_20">
    <path clip-path="url(#p1a2f4f5cda)" d="M 320.349161 358.256625 
L 330.600682 358.256625 
L 330.600682 297.448201 
L 320.349161 297.448201 
z
" style="fill:#e66101;opacity:0.3;stroke:#ffffff;stroke-linejoin:miter;stroke-width:2;"/>
   </g>
   <g id="patch_21">
    <path clip-path="url(#p1a2f4f5cda)" d="M 330.600682 358.256625 
L 340.852202 358.256625 
L 340.852202 311.756065 
L 330.600682 311.756065 
z
" style="fill:#e66101;opacity:0.3;stroke:#ffffff;stroke-linejoin:miter;stroke-width:2;"/>
   </g>
   <g id="patch_22">
    <path clip-path="url(#p1a2f4f5cda)" d="M 340.852202 358.256625 
L 351.103723 358.256625 
L 351.103723 351.102693 
L 340.852202 351.102693 
z
" style="fill:#e66101;opacity:0.3;stroke:#ffffff;stroke-linejoin:miter;stroke-width:2;"/>
   </g>
   <g id="patch_23">
    <path clip-path="url(#p1a2f4f5cda)" d="M 351.103723 358.256625 
L 361.355244 358.256625 
L 361.355244 354.679659 
L 351.103723 354.679659 
z
" style="fill:#e66101;opacity:0.3;stroke:#ffffff;stroke-linejoin:miter;stroke-width:2;"/>
   </g>
   <g id="patch_24">
    <path clip-path="url(#p1a2f4f5cda)" d="M 361.355244 358.256625 
L 371.606764 358.256625 
L 371.606764 351.102693 
L 361.355244 351.102693 
z
" style="fill:#e66101;opacity:0.3;stroke:#ffffff;stroke-linejoin:miter;stroke-width:2;"/>
   </g>
   <g id="patch_25">
    <path clip-path="url(#p1a2f4f5cda)" d="M 170.955037 358.256625 
L 180.618582 358.256625 
L 180.618582 350.502431 
L 170.955037 350.502431 
z
" style="fill:#5e3c99;opacity:0.3;stroke:#ffffff;stroke-linejoin:miter;stroke-width:2;"/>
   </g>
   <g id="patch_26">
    <path clip-path="url(#p1a2f4f5cda)" d="M 180.618582 358.256625 
L 190.282128 358.256625 
L 190.282128 350.502431 
L 180.618582 350.502431 
z
" style="fill:#5e3c99;opacity:0.3;stroke:#ffffff;stroke-linejoin:miter;stroke-width:2;"/>
   </g>
   <g id="patch_27">
    <path clip-path="url(#p1a2f4f5cda)" d="M 190.282128 358.256625 
L 199.945673 358.256625 
L 199.945673 334.994044 
L 190.282128 334.994044 
z
" style="fill:#5e3c99;opacity:0.3;stroke:#ffffff;stroke-linejoin:miter;stroke-width:2;"/>
   </g>
   <g id="patch_28">
    <path clip-path="url(#p1a2f4f5cda)" d="M 199.945673 358.256625 
L 209.609219 358.256625 
L 209.609219 350.502431 
L 199.945673 350.502431 
z
" style="fill:#5e3c99;opacity:0.3;stroke:#ffffff;stroke-linejoin:miter;stroke-width:2;"/>
   </g>
   <g id="patch_29">
    <path clip-path="url(#p1a2f4f5cda)" d="M 209.609219 358.256625 
L 219.272764 358.256625 
L 219.272764 303.977269 
L 209.609219 303.977269 
z
" style="fill:#5e3c99;opacity:0.3;stroke:#ffffff;stroke-linejoin:miter;stroke-width:2;"/>
   </g>
   <g id="patch_30">
    <path clip-path="url(#p1a2f4f5cda)" d="M 219.272764 358.256625 
L 228.93631 358.256625 
L 228.93631 284.591784 
L 219.272764 284.591784 
z
" style="fill:#5e3c99;opacity:0.3;stroke:#ffffff;stroke-linejoin:miter;stroke-width:2;"/>
   </g>
   <g id="patch_31">
    <path clip-path="url(#p1a2f4f5cda)" d="M 228.93631 358.256625 
L 238.599855 358.256625 
L 238.599855 230.312428 
L 228.93631 230.312428 
z
" style="fill:#5e3c99;opacity:0.3;stroke:#ffffff;stroke-linejoin:miter;stroke-width:2;"/>
   </g>
   <g id="patch_32">
    <path clip-path="url(#p1a2f4f5cda)" d="M 238.599855 358.256625 
L 248.263401 358.256625 
L 248.263401 179.910168 
L 238.599855 179.910168 
z
" style="fill:#5e3c99;opacity:0.3;stroke:#ffffff;stroke-linejoin:miter;stroke-width:2;"/>
   </g>
   <g id="patch_33">
    <path clip-path="url(#p1a2f4f5cda)" d="M 248.263401 358.256625 
L 257.926946 358.256625 
L 257.926946 148.893393 
L 248.263401 148.893393 
z
" style="fill:#5e3c99;opacity:0.3;stroke:#ffffff;stroke-linejoin:miter;stroke-width:2;"/>
   </g>
   <g id="patch_34">
    <path clip-path="url(#p1a2f4f5cda)" d="M 257.926946 358.256625 
L 267.590491 358.256625 
L 267.590491 90.73694 
L 257.926946 90.73694 
z
" style="fill:#5e3c99;opacity:0.3;stroke:#ffffff;stroke-linejoin:miter;stroke-width:2;"/>
   </g>
   <g id="patch_35">
    <path clip-path="url(#p1a2f4f5cda)" d="M 267.590491 358.256625 
L 277.254037 358.256625 
L 277.254037 102.368231 
L 267.590491 102.368231 
z
" style="fill:#5e3c99;opacity:0.3;stroke:#ffffff;stroke-linejoin:miter;stroke-width:2;"/>
   </g>
   <g id="patch_36">
    <path clip-path="url(#p1a2f4f5cda)" d="M 277.254037 358.256625 
L 286.917582 358.256625 
L 286.917582 125.630812 
L 277.254037 125.630812 
z
" style="fill:#5e3c99;opacity:0.3;stroke:#ffffff;stroke-linejoin:miter;stroke-width:2;"/>
   </g>
   <g id="patch_37">
    <path clip-path="url(#p1a2f4f5cda)" d="M 286.917582 358.256625 
L 296.581128 358.256625 
L 296.581128 133.385006 
L 286.917582 133.385006 
z
" style="fill:#5e3c99;opacity:0.3;stroke:#ffffff;stroke-linejoin:miter;stroke-width:2;"/>
   </g>
   <g id="patch_38">
    <path clip-path="url(#p1a2f4f5cda)" d="M 296.581128 358.256625 
L 306.244673 358.256625 
L 306.244673 176.033071 
L 296.581128 176.033071 
z
" style="fill:#5e3c99;opacity:0.3;stroke:#ffffff;stroke-linejoin:miter;stroke-width:2;"/>
   </g>
   <g id="patch_39">
    <path clip-path="url(#p1a2f4f5cda)" d="M 306.244673 358.256625 
L 315.908219 358.256625 
L 315.908219 207.049846 
L 306.244673 207.049846 
z
" style="fill:#5e3c99;opacity:0.3;stroke:#ffffff;stroke-linejoin:miter;stroke-width:2;"/>
   </g>
   <g id="patch_40">
    <path clip-path="url(#p1a2f4f5cda)" d="M 315.908219 358.256625 
L 325.571764 358.256625 
L 325.571764 307.854365 
L 315.908219 307.854365 
z
" style="fill:#5e3c99;opacity:0.3;stroke:#ffffff;stroke-linejoin:miter;stroke-width:2;"/>
   </g>
   <g id="patch_41">
    <path clip-path="url(#p1a2f4f5cda)" d="M 325.571764 358.256625 
L 335.23531 358.256625 
L 335.23531 300.100172 
L 325.571764 300.100172 
z
" style="fill:#5e3c99;opacity:0.3;stroke:#ffffff;stroke-linejoin:miter;stroke-width:2;"/>
   </g>
   <g id="patch_42">
    <path clip-path="url(#p1a2f4f5cda)" d="M 335.23531 358.256625 
L 344.898855 358.256625 
L 344.898855 342.748237 
L 335.23531 342.748237 
z
" style="fill:#5e3c99;opacity:0.3;stroke:#ffffff;stroke-linejoin:miter;stroke-width:2;"/>
   </g>
   <g id="patch_43">
    <path clip-path="url(#p1a2f4f5cda)" d="M 344.898855 358.256625 
L 354.562401 358.256625 
L 354.562401 346.625334 
L 344.898855 346.625334 
z
" style="fill:#5e3c99;opacity:0.3;stroke:#ffffff;stroke-linejoin:miter;stroke-width:2;"/>
   </g>
   <g id="line2d_10">
    <path clip-path="url(#p1a2f4f5cda)" d="M 118.599843 358.252153 
L 143.969928 358.129231 
L 153.836073 357.859149 
L 159.473869 357.525988 
L 165.111666 356.953426 
L 169.340014 356.284623 
L 173.568361 355.322726 
L 176.38726 354.468866 
L 179.206158 353.403194 
L 182.025056 352.084355 
L 184.843955 350.466033 
L 187.662853 348.497173 
L 190.481751 346.122459 
L 193.30065 343.283107 
L 196.119548 339.917979 
L 198.938447 335.965081 
L 201.757345 331.363423 
L 204.576243 326.055256 
L 207.395142 319.988636 
L 210.21404 313.120278 
L 213.032938 305.41859 
L 215.851837 296.866803 
L 218.670735 287.466029 
L 221.489634 277.238119 
L 224.308532 266.22812 
L 227.12743 254.506178 
L 231.355778 235.806523 
L 236.993575 209.501751 
L 244.04082 176.406102 
L 248.269168 157.694473 
L 251.088066 146.168131 
L 253.906965 135.661983 
L 256.725863 126.388112 
L 258.135312 122.274633 
L 259.544762 118.539909 
L 260.954211 115.204097 
L 262.36366 112.285382 
L 263.773109 109.799821 
L 265.182558 107.761186 
L 266.592007 106.180845 
L 268.001457 105.067654 
L 269.410906 104.427872 
L 270.820355 104.265105 
L 272.229804 104.580272 
L 273.639253 105.371594 
L 275.048703 106.634615 
L 276.458152 108.362238 
L 277.867601 110.544798 
L 279.27705 113.170146 
L 280.686499 116.223767 
L 282.095948 119.688908 
L 283.505398 123.546735 
L 286.324296 132.355746 
L 289.143194 142.465328 
L 291.962093 153.66898 
L 294.780991 165.746156 
L 299.009339 185.002119 
L 311.694381 244.173089 
L 315.922729 262.312494 
L 318.741627 273.574084 
L 321.560526 284.074577 
L 324.379424 293.760558 
L 327.198322 302.602532 
L 330.017221 310.592627 
L 332.836119 317.741862 
L 335.655017 324.077133 
L 338.473916 329.638092 
L 341.292814 334.474064 
L 344.111713 338.641127 
L 346.930611 342.199436 
L 349.749509 345.210871 
L 352.568408 347.737047 
L 355.387306 349.837694 
L 358.206204 351.569414 
L 361.025103 352.984781 
L 363.844001 354.131761 
L 366.6629 355.05341 
L 369.481798 355.78779 
L 373.710145 356.609529 
L 377.938493 357.176219 
L 383.57629 357.656884 
L 390.623536 357.981178 
L 399.080231 358.154872 
L 399.080231 358.154872 
" style="fill:none;stroke:#e66101;stroke-linecap:round;stroke-width:5;"/>
   </g>
   <g id="line2d_11">
    <path clip-path="url(#p1a2f4f5cda)" d="M 144.85359 358.203997 
L 156.703352 358.016207 
L 163.813209 357.699672 
L 168.553114 357.310093 
L 173.293018 356.685833 
L 176.847947 355.995498 
L 180.402875 355.045048 
L 182.772828 354.228668 
L 185.14278 353.234727 
L 187.512732 352.032653 
L 189.882685 350.588593 
L 192.252637 348.865517 
L 194.622589 346.823463 
L 196.992542 344.419926 
L 199.362494 341.610419 
L 201.732446 338.34922 
L 204.102399 334.590309 
L 206.472351 330.288504 
L 208.842303 325.400789 
L 211.212256 319.88781 
L 213.582208 313.715533 
L 215.95216 306.857 
L 218.322113 299.294156 
L 220.692065 291.019678 
L 223.062017 282.038734 
L 225.43197 272.370603 
L 228.986898 256.660537 
L 232.541827 239.674597 
L 237.281731 215.531789 
L 249.131493 153.851374 
L 252.686421 137.102111 
L 255.056374 126.906848 
L 257.426326 117.676924 
L 259.796278 109.562519 
L 262.166231 102.69913 
L 263.351207 99.773963 
L 264.536183 97.203817 
L 265.721159 94.9999 
L 266.906135 93.171882 
L 268.091111 91.727823 
L 269.276088 90.67412 
L 270.461064 90.015453 
L 271.64604 89.754756 
L 272.831016 89.893188 
L 274.015992 90.430135 
L 275.200968 91.363203 
L 276.385945 92.688245 
L 277.570921 94.399387 
L 278.755897 96.489071 
L 279.940873 98.948114 
L 281.125849 101.765771 
L 282.310825 104.929818 
L 284.680778 112.24131 
L 287.05073 120.758735 
L 289.420682 130.34106 
L 291.790635 140.833952 
L 295.345563 157.921428 
L 300.085468 182.335232 
L 309.565277 231.945717 
L 313.120206 249.406175 
L 316.675134 265.70011 
L 320.230063 280.601318 
L 322.600015 289.689172 
L 324.969967 298.072562 
L 327.33992 305.744256 
L 329.709872 312.709776 
L 332.079824 318.985651 
L 334.449777 324.597592 
L 336.819729 329.578668 
L 339.189681 333.967526 
L 341.559634 337.806724 
L 343.929586 341.141202 
L 346.299538 344.01693 
L 348.669491 346.479742 
L 351.039443 348.574367 
L 353.409395 350.343655 
L 355.779348 351.827986 
L 358.1493 353.064858 
L 360.519252 354.088623 
L 362.889205 354.930357 
L 366.444133 355.911546 
L 369.999062 356.625283 
L 373.55399 357.136878 
L 378.293895 357.592609 
L 380.663847 357.74983 
L 380.663847 357.74983 
" style="fill:none;stroke:#5e3c99;stroke-linecap:round;stroke-width:5;"/>
   </g>
   <g id="patch_44">
    <path d="M 86.570219 358.256625 
L 86.570219 32.096625 
" style="fill:none;stroke:#262626;stroke-linecap:square;stroke-linejoin:miter;stroke-width:2.5;"/>
   </g>
   <g id="patch_45">
    <path d="M 86.570219 358.256625 
L 467.024764 358.256625 
" style="fill:none;stroke:#262626;stroke-linecap:square;stroke-linejoin:miter;stroke-width:2.5;"/>
   </g>
   <g id="text_12">
    <!-- perceptual angle error -->
    <defs>
     <path d="M 6.59375 -19.875 
L 6.59375 51.859375 
L 14.59375 51.859375 
L 14.59375 45.125 
Q 17.4375 49.078125 21 51.046875 
Q 24.5625 53.03125 29.640625 53.03125 
Q 36.28125 53.03125 41.359375 49.609375 
Q 46.4375 46.1875 49.015625 39.953125 
Q 51.609375 33.734375 51.609375 26.3125 
Q 51.609375 18.359375 48.75 11.984375 
Q 45.90625 5.609375 40.453125 2.21875 
Q 35.015625 -1.171875 29 -1.171875 
Q 24.609375 -1.171875 21.109375 0.6875 
Q 17.625 2.546875 15.375 5.375 
L 15.375 -19.875 
z
M 14.546875 25.640625 
Q 14.546875 15.625 18.59375 10.84375 
Q 22.65625 6.0625 28.421875 6.0625 
Q 34.28125 6.0625 38.453125 11.015625 
Q 42.625 15.96875 42.625 26.375 
Q 42.625 36.28125 38.546875 41.203125 
Q 34.46875 46.140625 28.8125 46.140625 
Q 23.1875 46.140625 18.859375 40.890625 
Q 14.546875 35.640625 14.546875 25.640625 
z
" id="ArialMT-112"/>
     <path d="M 25.78125 7.859375 
L 27.046875 0.09375 
Q 23.34375 -0.6875 20.40625 -0.6875 
Q 15.625 -0.6875 12.984375 0.828125 
Q 10.359375 2.34375 9.28125 4.8125 
Q 8.203125 7.28125 8.203125 15.1875 
L 8.203125 45.015625 
L 1.765625 45.015625 
L 1.765625 51.859375 
L 8.203125 51.859375 
L 8.203125 64.703125 
L 16.9375 69.96875 
L 16.9375 51.859375 
L 25.78125 51.859375 
L 25.78125 45.015625 
L 16.9375 45.015625 
L 16.9375 14.703125 
Q 16.9375 10.9375 17.40625 9.859375 
Q 17.875 8.796875 18.921875 8.15625 
Q 19.96875 7.515625 21.921875 7.515625 
Q 23.390625 7.515625 25.78125 7.859375 
z
" id="ArialMT-116"/>
    </defs>
    <g style="fill:#262626;" transform="translate(147.664366 26.096625)scale(0.264 -0.264)">
     <use xlink:href="#ArialMT-112"/>
     <use x="55.615234" xlink:href="#ArialMT-101"/>
     <use x="111.230469" xlink:href="#ArialMT-114"/>
     <use x="144.53125" xlink:href="#ArialMT-99"/>
     <use x="194.53125" xlink:href="#ArialMT-101"/>
     <use x="250.146484" xlink:href="#ArialMT-112"/>
     <use x="305.761719" xlink:href="#ArialMT-116"/>
     <use x="333.544922" xlink:href="#ArialMT-117"/>
     <use x="389.160156" xlink:href="#ArialMT-97"/>
     <use x="444.775391" xlink:href="#ArialMT-108"/>
     <use x="466.992188" xlink:href="#ArialMT-32"/>
     <use x="494.775391" xlink:href="#ArialMT-97"/>
     <use x="550.390625" xlink:href="#ArialMT-110"/>
     <use x="606.005859" xlink:href="#ArialMT-103"/>
     <use x="661.621094" xlink:href="#ArialMT-108"/>
     <use x="683.837891" xlink:href="#ArialMT-101"/>
     <use x="739.453125" xlink:href="#ArialMT-32"/>
     <use x="767.236328" xlink:href="#ArialMT-101"/>
     <use x="822.851562" xlink:href="#ArialMT-114"/>
     <use x="856.152344" xlink:href="#ArialMT-114"/>
     <use x="889.453125" xlink:href="#ArialMT-111"/>
     <use x="945.068359" xlink:href="#ArialMT-114"/>
    </g>
   </g>
   <g id="legend_1"/>
  </g>
  <g id="axes_2">
   <g id="patch_46">
    <path d="M 543.115673 358.256625 
L 923.570219 358.256625 
L 923.570219 32.096625 
L 543.115673 32.096625 
z
" style="fill:#ffffff;"/>
   </g>
   <g id="matplotlib.axis_3">
    <g id="xtick_6">
     <g id="line2d_12">
      <g>
       <use style="fill:#262626;stroke:#262626;stroke-width:2.5;" x="581.161128" xlink:href="#m7abc42c2fa" y="358.256625"/>
      </g>
     </g>
     <g id="text_13">
      <!-- −20 -->
      <g style="fill:#262626;" transform="translate(560.636503 379.078531)scale(0.242 -0.242)">
       <use xlink:href="#ArialMT-8722"/>
       <use x="58.398438" xlink:href="#ArialMT-50"/>
       <use x="114.013672" xlink:href="#ArialMT-48"/>
      </g>
     </g>
    </g>
    <g id="xtick_7">
     <g id="line2d_13">
      <g>
       <use style="fill:#262626;stroke:#262626;stroke-width:2.5;" x="657.252037" xlink:href="#m7abc42c2fa" y="358.256625"/>
      </g>
     </g>
     <g id="text_14">
      <!-- −10 -->
      <g style="fill:#262626;" transform="translate(636.727412 379.078531)scale(0.242 -0.242)">
       <use xlink:href="#ArialMT-8722"/>
       <use x="58.398438" xlink:href="#ArialMT-49"/>
       <use x="114.013672" xlink:href="#ArialMT-48"/>
      </g>
     </g>
    </g>
    <g id="xtick_8">
     <g id="line2d_14">
      <g>
       <use style="fill:#262626;stroke:#262626;stroke-width:2.5;" x="733.342946" xlink:href="#m7abc42c2fa" y="358.256625"/>
      </g>
     </g>
     <g id="text_15">
      <!-- 0 -->
      <g style="fill:#262626;" transform="translate(726.614212 379.078531)scale(0.242 -0.242)">
       <use xlink:href="#ArialMT-48"/>
      </g>
     </g>
    </g>
    <g id="xtick_9">
     <g id="line2d_15">
      <g>
       <use style="fill:#262626;stroke:#262626;stroke-width:2.5;" x="809.433855" xlink:href="#m7abc42c2fa" y="358.256625"/>
      </g>
     </g>
     <g id="text_16">
      <!-- 10 -->
      <g style="fill:#262626;" transform="translate(795.976386 379.078531)scale(0.242 -0.242)">
       <use xlink:href="#ArialMT-49"/>
       <use x="55.615234" xlink:href="#ArialMT-48"/>
      </g>
     </g>
    </g>
    <g id="xtick_10">
     <g id="line2d_16">
      <g>
       <use style="fill:#262626;stroke:#262626;stroke-width:2.5;" x="885.524764" xlink:href="#m7abc42c2fa" y="358.256625"/>
      </g>
     </g>
     <g id="text_17">
      <!-- 20 -->
      <g style="fill:#262626;" transform="translate(872.067295 379.078531)scale(0.242 -0.242)">
       <use xlink:href="#ArialMT-50"/>
       <use x="55.615234" xlink:href="#ArialMT-48"/>
      </g>
     </g>
    </g>
    <g id="text_18">
     <!-- angle error ($\circ$) -->
     <g style="fill:#262626;" transform="translate(648.730946 407.160281)scale(0.264 -0.264)">
      <use transform="translate(0 0.203125)" xlink:href="#ArialMT-97"/>
      <use transform="translate(55.615234 0.203125)" xlink:href="#ArialMT-110"/>
      <use transform="translate(111.230469 0.203125)" xlink:href="#ArialMT-103"/>
      <use transform="translate(166.845703 0.203125)" xlink:href="#ArialMT-108"/>
      <use transform="translate(189.0625 0.203125)" xlink:href="#ArialMT-101"/>
      <use transform="translate(244.677734 0.203125)" xlink:href="#ArialMT-32"/>
      <use transform="translate(272.460938 0.203125)" xlink:href="#ArialMT-101"/>
      <use transform="translate(328.076172 0.203125)" xlink:href="#ArialMT-114"/>
      <use transform="translate(361.376953 0.203125)" xlink:href="#ArialMT-114"/>
      <use transform="translate(394.677734 0.203125)" xlink:href="#ArialMT-111"/>
      <use transform="translate(450.292969 0.203125)" xlink:href="#ArialMT-114"/>
      <use transform="translate(483.59375 0.203125)" xlink:href="#ArialMT-32"/>
      <use transform="translate(511.376953 0.203125)" xlink:href="#ArialMT-40"/>
      <use transform="translate(544.677734 0.203125)" xlink:href="#DejaVuSans-8728"/>
      <use transform="translate(607.275391 0.203125)" xlink:href="#ArialMT-41"/>
     </g>
    </g>
   </g>
   <g id="matplotlib.axis_4">
    <g id="ytick_5">
     <g id="line2d_17">
      <g>
       <use style="fill:#262626;stroke:#262626;stroke-width:2.5;" x="543.115673" xlink:href="#m75044eae4d" y="276.716625"/>
      </g>
     </g>
    </g>
    <g id="ytick_6">
     <g id="line2d_18">
      <g>
       <use style="fill:#262626;stroke:#262626;stroke-width:2.5;" x="543.115673" xlink:href="#m75044eae4d" y="195.176625"/>
      </g>
     </g>
    </g>
    <g id="ytick_7">
     <g id="line2d_19">
      <g>
       <use style="fill:#262626;stroke:#262626;stroke-width:2.5;" x="543.115673" xlink:href="#m75044eae4d" y="113.636625"/>
      </g>
     </g>
    </g>
    <g id="ytick_8">
     <g id="line2d_20">
      <g>
       <use style="fill:#262626;stroke:#262626;stroke-width:2.5;" x="543.115673" xlink:href="#m75044eae4d" y="32.096625"/>
      </g>
     </g>
    </g>
   </g>
   <g id="patch_47">
    <path clip-path="url(#p9189f9694f)" d="M 578.193582 358.256625 
L 592.398554 358.256625 
L 592.398554 355.647423 
L 578.193582 355.647423 
z
" style="fill:#e66101;opacity:0.3;stroke:#ffffff;stroke-linejoin:miter;stroke-width:2;"/>
   </g>
   <g id="patch_48">
    <path clip-path="url(#p9189f9694f)" d="M 592.398554 358.256625 
L 606.603525 358.256625 
L 606.603525 358.256625 
L 592.398554 358.256625 
z
" style="fill:#e66101;opacity:0.3;stroke:#ffffff;stroke-linejoin:miter;stroke-width:2;"/>
   </g>
   <g id="patch_49">
    <path clip-path="url(#p9189f9694f)" d="M 606.603525 358.256625 
L 620.808496 358.256625 
L 620.808496 345.210616 
L 606.603525 345.210616 
z
" style="fill:#e66101;opacity:0.3;stroke:#ffffff;stroke-linejoin:miter;stroke-width:2;"/>
   </g>
   <g id="patch_50">
    <path clip-path="url(#p9189f9694f)" d="M 620.808496 358.256625 
L 635.013468 358.256625 
L 635.013468 339.992213 
L 620.808496 339.992213 
z
" style="fill:#e66101;opacity:0.3;stroke:#ffffff;stroke-linejoin:miter;stroke-width:2;"/>
   </g>
   <g id="patch_51">
    <path clip-path="url(#p9189f9694f)" d="M 635.013468 358.256625 
L 649.218439 358.256625 
L 649.218439 321.7278 
L 635.013468 321.7278 
z
" style="fill:#e66101;opacity:0.3;stroke:#ffffff;stroke-linejoin:miter;stroke-width:2;"/>
   </g>
   <g id="patch_52">
    <path clip-path="url(#p9189f9694f)" d="M 649.218439 358.256625 
L 663.42341 358.256625 
L 663.42341 316.509397 
L 649.218439 316.509397 
z
" style="fill:#e66101;opacity:0.3;stroke:#ffffff;stroke-linejoin:miter;stroke-width:2;"/>
   </g>
   <g id="patch_53">
    <path clip-path="url(#p9189f9694f)" d="M 663.42341 358.256625 
L 677.628381 358.256625 
L 677.628381 295.635782 
L 663.42341 295.635782 
z
" style="fill:#e66101;opacity:0.3;stroke:#ffffff;stroke-linejoin:miter;stroke-width:2;"/>
   </g>
   <g id="patch_54">
    <path clip-path="url(#p9189f9694f)" d="M 677.628381 358.256625 
L 691.833353 358.256625 
L 691.833353 225.187334 
L 677.628381 225.187334 
z
" style="fill:#e66101;opacity:0.3;stroke:#ffffff;stroke-linejoin:miter;stroke-width:2;"/>
   </g>
   <g id="patch_55">
    <path clip-path="url(#p9189f9694f)" d="M 691.833353 358.256625 
L 706.038324 358.256625 
L 706.038324 178.221702 
L 691.833353 178.221702 
z
" style="fill:#e66101;opacity:0.3;stroke:#ffffff;stroke-linejoin:miter;stroke-width:2;"/>
   </g>
   <g id="patch_56">
    <path clip-path="url(#p9189f9694f)" d="M 706.038324 358.256625 
L 720.243295 358.256625 
L 720.243295 209.532124 
L 706.038324 209.532124 
z
" style="fill:#e66101;opacity:0.3;stroke:#ffffff;stroke-linejoin:miter;stroke-width:2;"/>
   </g>
   <g id="patch_57">
    <path clip-path="url(#p9189f9694f)" d="M 720.243295 358.256625 
L 734.448267 358.256625 
L 734.448267 152.129684 
L 720.243295 152.129684 
z
" style="fill:#e66101;opacity:0.3;stroke:#ffffff;stroke-linejoin:miter;stroke-width:2;"/>
   </g>
   <g id="patch_58">
    <path clip-path="url(#p9189f9694f)" d="M 734.448267 358.256625 
L 748.653238 358.256625 
L 748.653238 199.095316 
L 734.448267 199.095316 
z
" style="fill:#e66101;opacity:0.3;stroke:#ffffff;stroke-linejoin:miter;stroke-width:2;"/>
   </g>
   <g id="patch_59">
    <path clip-path="url(#p9189f9694f)" d="M 748.653238 358.256625 
L 762.858209 358.256625 
L 762.858209 225.187334 
L 748.653238 225.187334 
z
" style="fill:#e66101;opacity:0.3;stroke:#ffffff;stroke-linejoin:miter;stroke-width:2;"/>
   </g>
   <g id="patch_60">
    <path clip-path="url(#p9189f9694f)" d="M 762.858209 358.256625 
L 777.06318 358.256625 
L 777.06318 217.359729 
L 762.858209 217.359729 
z
" style="fill:#e66101;opacity:0.3;stroke:#ffffff;stroke-linejoin:miter;stroke-width:2;"/>
   </g>
   <g id="patch_61">
    <path clip-path="url(#p9189f9694f)" d="M 777.06318 358.256625 
L 791.268152 358.256625 
L 791.268152 277.37137 
L 777.06318 277.37137 
z
" style="fill:#e66101;opacity:0.3;stroke:#ffffff;stroke-linejoin:miter;stroke-width:2;"/>
   </g>
   <g id="patch_62">
    <path clip-path="url(#p9189f9694f)" d="M 791.268152 358.256625 
L 805.473123 358.256625 
L 805.473123 293.026581 
L 791.268152 293.026581 
z
" style="fill:#e66101;opacity:0.3;stroke:#ffffff;stroke-linejoin:miter;stroke-width:2;"/>
   </g>
   <g id="patch_63">
    <path clip-path="url(#p9189f9694f)" d="M 805.473123 358.256625 
L 819.678094 358.256625 
L 819.678094 342.601414 
L 805.473123 342.601414 
z
" style="fill:#e66101;opacity:0.3;stroke:#ffffff;stroke-linejoin:miter;stroke-width:2;"/>
   </g>
   <g id="patch_64">
    <path clip-path="url(#p9189f9694f)" d="M 819.678094 358.256625 
L 833.883066 358.256625 
L 833.883066 347.819818 
L 819.678094 347.819818 
z
" style="fill:#e66101;opacity:0.3;stroke:#ffffff;stroke-linejoin:miter;stroke-width:2;"/>
   </g>
   <g id="patch_65">
    <path clip-path="url(#p9189f9694f)" d="M 833.883066 358.256625 
L 848.088037 358.256625 
L 848.088037 350.42902 
L 833.883066 350.42902 
z
" style="fill:#e66101;opacity:0.3;stroke:#ffffff;stroke-linejoin:miter;stroke-width:2;"/>
   </g>
   <g id="patch_66">
    <path clip-path="url(#p9189f9694f)" d="M 621.184946 358.256625 
L 633.296082 358.256625 
L 633.296082 347.801662 
L 621.184946 347.801662 
z
" style="fill:#5e3c99;opacity:0.3;stroke:#ffffff;stroke-linejoin:miter;stroke-width:2;"/>
   </g>
   <g id="patch_67">
    <path clip-path="url(#p9189f9694f)" d="M 633.296082 358.256625 
L 645.407219 358.256625 
L 645.407219 347.801662 
L 633.296082 347.801662 
z
" style="fill:#5e3c99;opacity:0.3;stroke:#ffffff;stroke-linejoin:miter;stroke-width:2;"/>
   </g>
   <g id="patch_68">
    <path clip-path="url(#p9189f9694f)" d="M 645.407219 358.256625 
L 657.518355 358.256625 
L 657.518355 330.376723 
L 645.407219 330.376723 
z
" style="fill:#5e3c99;opacity:0.3;stroke:#ffffff;stroke-linejoin:miter;stroke-width:2;"/>
   </g>
   <g id="patch_69">
    <path clip-path="url(#p9189f9694f)" d="M 657.518355 358.256625 
L 669.629491 358.256625 
L 669.629491 326.891736 
L 657.518355 326.891736 
z
" style="fill:#5e3c99;opacity:0.3;stroke:#ffffff;stroke-linejoin:miter;stroke-width:2;"/>
   </g>
   <g id="patch_70">
    <path clip-path="url(#p9189f9694f)" d="M 669.629491 358.256625 
L 681.740628 358.256625 
L 681.740628 271.131932 
L 669.629491 271.131932 
z
" style="fill:#5e3c99;opacity:0.3;stroke:#ffffff;stroke-linejoin:miter;stroke-width:2;"/>
   </g>
   <g id="patch_71">
    <path clip-path="url(#p9189f9694f)" d="M 681.740628 358.256625 
L 693.851764 358.256625 
L 693.851764 253.706994 
L 681.740628 253.706994 
z
" style="fill:#5e3c99;opacity:0.3;stroke:#ffffff;stroke-linejoin:miter;stroke-width:2;"/>
   </g>
   <g id="patch_72">
    <path clip-path="url(#p9189f9694f)" d="M 693.851764 358.256625 
L 705.962901 358.256625 
L 705.962901 204.917166 
L 693.851764 204.917166 
z
" style="fill:#5e3c99;opacity:0.3;stroke:#ffffff;stroke-linejoin:miter;stroke-width:2;"/>
   </g>
   <g id="patch_73">
    <path clip-path="url(#p9189f9694f)" d="M 705.962901 358.256625 
L 718.074037 358.256625 
L 718.074037 138.702399 
L 705.962901 138.702399 
z
" style="fill:#5e3c99;opacity:0.3;stroke:#ffffff;stroke-linejoin:miter;stroke-width:2;"/>
   </g>
   <g id="patch_74">
    <path clip-path="url(#p9189f9694f)" d="M 718.074037 358.256625 
L 730.185173 358.256625 
L 730.185173 110.822497 
L 718.074037 110.822497 
z
" style="fill:#5e3c99;opacity:0.3;stroke:#ffffff;stroke-linejoin:miter;stroke-width:2;"/>
   </g>
   <g id="patch_75">
    <path clip-path="url(#p9189f9694f)" d="M 730.185173 358.256625 
L 742.29631 358.256625 
L 742.29631 163.097313 
L 730.185173 163.097313 
z
" style="fill:#5e3c99;opacity:0.3;stroke:#ffffff;stroke-linejoin:miter;stroke-width:2;"/>
   </g>
   <g id="patch_76">
    <path clip-path="url(#p9189f9694f)" d="M 742.29631 358.256625 
L 754.407446 358.256625 
L 754.407446 204.917166 
L 742.29631 204.917166 
z
" style="fill:#5e3c99;opacity:0.3;stroke:#ffffff;stroke-linejoin:miter;stroke-width:2;"/>
   </g>
   <g id="patch_77">
    <path clip-path="url(#p9189f9694f)" d="M 754.407446 358.256625 
L 766.518582 358.256625 
L 766.518582 152.64235 
L 754.407446 152.64235 
z
" style="fill:#5e3c99;opacity:0.3;stroke:#ffffff;stroke-linejoin:miter;stroke-width:2;"/>
   </g>
   <g id="patch_78">
    <path clip-path="url(#p9189f9694f)" d="M 766.518582 358.256625 
L 778.629719 358.256625 
L 778.629719 236.282055 
L 766.518582 236.282055 
z
" style="fill:#5e3c99;opacity:0.3;stroke:#ffffff;stroke-linejoin:miter;stroke-width:2;"/>
   </g>
   <g id="patch_79">
    <path clip-path="url(#p9189f9694f)" d="M 778.629719 358.256625 
L 790.740855 358.256625 
L 790.740855 274.61692 
L 778.629719 274.61692 
z
" style="fill:#5e3c99;opacity:0.3;stroke:#ffffff;stroke-linejoin:miter;stroke-width:2;"/>
   </g>
   <g id="patch_80">
    <path clip-path="url(#p9189f9694f)" d="M 790.740855 358.256625 
L 802.851991 358.256625 
L 802.851991 330.376723 
L 790.740855 330.376723 
z
" style="fill:#5e3c99;opacity:0.3;stroke:#ffffff;stroke-linejoin:miter;stroke-width:2;"/>
   </g>
   <g id="patch_81">
    <path clip-path="url(#p9189f9694f)" d="M 802.851991 358.256625 
L 814.963128 358.256625 
L 814.963128 337.346699 
L 802.851991 337.346699 
z
" style="fill:#5e3c99;opacity:0.3;stroke:#ffffff;stroke-linejoin:miter;stroke-width:2;"/>
   </g>
   <g id="patch_82">
    <path clip-path="url(#p9189f9694f)" d="M 814.963128 358.256625 
L 827.074264 358.256625 
L 827.074264 354.771637 
L 814.963128 354.771637 
z
" style="fill:#5e3c99;opacity:0.3;stroke:#ffffff;stroke-linejoin:miter;stroke-width:2;"/>
   </g>
   <g id="patch_83">
    <path clip-path="url(#p9189f9694f)" d="M 827.074264 358.256625 
L 839.185401 358.256625 
L 839.185401 354.771637 
L 827.074264 354.771637 
z
" style="fill:#5e3c99;opacity:0.3;stroke:#ffffff;stroke-linejoin:miter;stroke-width:2;"/>
   </g>
   <g id="line2d_21">
    <path clip-path="url(#p9189f9694f)" d="M 541.17627 358.232493 
L 563.643998 358.0699 
L 575.742006 357.753038 
L 584.38344 357.280652 
L 591.296588 356.645659 
L 596.481448 355.948912 
L 601.666309 354.997084 
L 605.122882 354.18527 
L 608.579456 353.203022 
L 612.03603 352.022968 
L 615.492603 350.615379 
L 618.949177 348.948438 
L 622.405751 346.988656 
L 625.862324 344.701431 
L 629.318898 342.05176 
L 632.775472 339.005119 
L 636.232045 335.528501 
L 639.688619 331.591596 
L 643.145193 327.1681 
L 646.601766 322.237117 
L 650.05834 316.784621 
L 653.514914 310.804915 
L 656.971488 304.302047 
L 660.428061 297.2911 
L 663.884635 289.799298 
L 667.341209 281.866865 
L 672.526069 269.263349 
L 677.71093 256.031341 
L 691.537224 220.164094 
L 694.993798 211.694371 
L 698.450372 203.676493 
L 701.906945 196.238051 
L 705.363519 189.502061 
L 708.820093 183.583599 
L 710.548379 180.963927 
L 712.276666 178.586549 
L 714.004953 176.462203 
L 715.73324 174.60057 
L 717.461527 173.010194 
L 719.189814 171.698424 
L 720.9181 170.671353 
L 722.646387 169.93377 
L 724.374674 169.489127 
L 726.102961 169.339509 
L 727.831248 169.485618 
L 729.559535 169.926768 
L 731.287821 170.660891 
L 733.016108 171.684552 
L 734.744395 172.992975 
L 736.472682 174.580085 
L 738.200969 176.438546 
L 739.929256 178.559828 
L 741.657542 180.934263 
L 743.385829 183.551126 
L 745.114116 186.398709 
L 748.57069 192.734837 
L 752.027263 199.832839 
L 755.483837 207.573299 
L 758.940411 215.830518 
L 764.125271 228.903941 
L 781.40814 273.497144 
L 786.593 285.83802 
L 790.049574 293.55862 
L 793.506148 300.817051 
L 796.962721 307.579598 
L 800.419295 313.825159 
L 803.875869 319.544256 
L 807.332442 324.737827 
L 810.789016 329.415863 
L 814.24559 333.59597 
L 817.702163 337.301895 
L 821.158737 340.56209 
L 824.615311 343.408357 
L 828.071884 345.874589 
L 831.528458 347.995667 
L 834.985032 349.806496 
L 838.441605 351.341208 
L 841.898179 352.632526 
L 845.354753 353.711277 
L 848.811326 354.606052 
L 853.996187 355.659751 
L 859.181047 356.435164 
L 864.365908 356.996922 
L 871.279055 357.502904 
L 879.920489 357.873724 
L 885.10535 358.006331 
L 885.10535 358.006331 
" style="fill:none;stroke:#e66101;stroke-linecap:round;stroke-width:5;"/>
   </g>
   <g id="line2d_22">
    <path clip-path="url(#p9189f9694f)" d="M 590.098787 358.136937 
L 601.362014 357.868496 
L 608.401531 357.486803 
L 614.033144 356.961878 
L 618.256854 356.375356 
L 622.480564 355.561071 
L 626.704275 354.447926 
L 629.520081 353.497896 
L 632.335888 352.347705 
L 635.151695 350.964938 
L 637.967502 349.314292 
L 640.783308 347.357881 
L 643.599115 345.055683 
L 646.414922 342.366173 
L 649.230729 339.247139 
L 652.046535 335.656681 
L 654.862342 331.554417 
L 657.678149 326.902851 
L 660.493956 321.668907 
L 663.309763 315.825588 
L 666.125569 309.353703 
L 668.941376 302.243628 
L 671.757183 294.497015 
L 674.57299 286.128386 
L 677.388796 277.166524 
L 681.612507 262.712402 
L 685.836217 247.243991 
L 691.46783 225.571277 
L 699.915251 192.767261 
L 704.138961 177.2724 
L 706.954767 167.630233 
L 709.770574 158.717452 
L 712.586381 150.681099 
L 715.402188 143.657987 
L 716.810091 140.565395 
L 718.217995 137.770831 
L 719.625898 135.286846 
L 721.033801 133.12469 
L 722.441705 131.294227 
L 723.849608 129.803854 
L 725.257511 128.660445 
L 726.665415 127.869294 
L 728.073318 127.434072 
L 729.481222 127.356805 
L 730.889125 127.637851 
L 732.297028 128.275903 
L 733.704932 129.267997 
L 735.112835 130.609532 
L 736.520739 132.294313 
L 737.928642 134.31459 
L 739.336545 136.661123 
L 740.744449 139.323251 
L 742.152352 142.288972 
L 744.968159 149.077032 
L 747.783966 156.906104 
L 750.599772 165.642099 
L 753.415579 175.13984 
L 757.639289 190.480697 
L 763.270903 212.165139 
L 771.718323 244.954235 
L 775.942033 260.545677 
L 780.165743 275.160883 
L 782.98155 284.245386 
L 785.797357 292.744842 
L 788.613164 300.627238 
L 791.42897 307.875087 
L 794.244777 314.484092 
L 797.060584 320.461589 
L 799.876391 325.824851 
L 802.692198 330.599345 
L 805.508004 334.816978 
L 808.323811 338.514427 
L 811.139618 341.731575 
L 813.955425 344.510101 
L 816.771231 346.892242 
L 819.587038 348.919748 
L 822.402845 350.633022 
L 825.218652 352.070457 
L 828.034458 353.26794 
L 830.850265 354.258529 
L 833.666072 355.072258 
L 837.889782 356.019342 
L 842.113492 356.706559 
L 847.745106 357.326769 
L 853.376719 357.712508 
L 861.82414 358.024149 
L 870.27156 358.162698 
L 870.27156 358.162698 
" style="fill:none;stroke:#5e3c99;stroke-linecap:round;stroke-width:5;"/>
   </g>
   <g id="patch_84">
    <path d="M 543.115673 358.256625 
L 543.115673 32.096625 
" style="fill:none;stroke:#262626;stroke-linecap:square;stroke-linejoin:miter;stroke-width:2.5;"/>
   </g>
   <g id="patch_85">
    <path d="M 543.115673 358.256625 
L 923.570219 358.256625 
" style="fill:none;stroke:#262626;stroke-linecap:square;stroke-linejoin:miter;stroke-width:2.5;"/>
   </g>
   <g id="text_19">
    <!-- memory angle error -->
    <defs>
     <path d="M 6.59375 0 
L 6.59375 51.859375 
L 14.453125 51.859375 
L 14.453125 44.578125 
Q 16.890625 48.390625 20.9375 50.703125 
Q 25 53.03125 30.171875 53.03125 
Q 35.9375 53.03125 39.625 50.640625 
Q 43.3125 48.25 44.828125 43.953125 
Q 50.984375 53.03125 60.84375 53.03125 
Q 68.5625 53.03125 72.703125 48.75 
Q 76.859375 44.484375 76.859375 35.59375 
L 76.859375 0 
L 68.109375 0 
L 68.109375 32.671875 
Q 68.109375 37.9375 67.25 40.25 
Q 66.40625 42.578125 64.15625 43.984375 
Q 61.921875 45.40625 58.890625 45.40625 
Q 53.421875 45.40625 49.796875 41.765625 
Q 46.1875 38.140625 46.1875 30.125 
L 46.1875 0 
L 37.40625 0 
L 37.40625 33.6875 
Q 37.40625 39.546875 35.25 42.46875 
Q 33.109375 45.40625 28.21875 45.40625 
Q 24.515625 45.40625 21.359375 43.453125 
Q 18.21875 41.5 16.796875 37.734375 
Q 15.375 33.984375 15.375 26.90625 
L 15.375 0 
z
" id="ArialMT-109"/>
    </defs>
    <g style="fill:#262626;" transform="translate(618.181196 26.096625)scale(0.264 -0.264)">
     <use xlink:href="#ArialMT-109"/>
     <use x="83.300781" xlink:href="#ArialMT-101"/>
     <use x="138.916016" xlink:href="#ArialMT-109"/>
     <use x="222.216797" xlink:href="#ArialMT-111"/>
     <use x="277.832031" xlink:href="#ArialMT-114"/>
     <use x="311.132812" xlink:href="#ArialMT-121"/>
     <use x="361.132812" xlink:href="#ArialMT-32"/>
     <use x="388.916016" xlink:href="#ArialMT-97"/>
     <use x="444.53125" xlink:href="#ArialMT-110"/>
     <use x="500.146484" xlink:href="#ArialMT-103"/>
     <use x="555.761719" xlink:href="#ArialMT-108"/>
     <use x="577.978516" xlink:href="#ArialMT-101"/>
     <use x="633.59375" xlink:href="#ArialMT-32"/>
     <use x="661.376953" xlink:href="#ArialMT-101"/>
     <use x="716.992188" xlink:href="#ArialMT-114"/>
     <use x="750.292969" xlink:href="#ArialMT-114"/>
     <use x="783.59375" xlink:href="#ArialMT-111"/>
     <use x="839.208984" xlink:href="#ArialMT-114"/>
    </g>
   </g>
   <g id="legend_2">
    <g id="text_20">
     <!-- radius 1 -->
     <defs>
      <path d="M 40.234375 0 
L 40.234375 6.546875 
Q 35.296875 -1.171875 25.734375 -1.171875 
Q 19.53125 -1.171875 14.328125 2.25 
Q 9.125 5.671875 6.265625 11.796875 
Q 3.421875 17.921875 3.421875 25.875 
Q 3.421875 33.640625 6 39.96875 
Q 8.59375 46.296875 13.765625 49.65625 
Q 18.953125 53.03125 25.34375 53.03125 
Q 30.03125 53.03125 33.6875 51.046875 
Q 37.359375 49.078125 39.65625 45.90625 
L 39.65625 71.578125 
L 48.390625 71.578125 
L 48.390625 0 
z
M 12.453125 25.875 
Q 12.453125 15.921875 16.640625 10.984375 
Q 20.84375 6.0625 26.5625 6.0625 
Q 32.328125 6.0625 36.34375 10.765625 
Q 40.375 15.484375 40.375 25.140625 
Q 40.375 35.796875 36.265625 40.765625 
Q 32.171875 45.75 26.171875 45.75 
Q 20.3125 45.75 16.375 40.96875 
Q 12.453125 36.1875 12.453125 25.875 
z
" id="ArialMT-100"/>
      <path d="M 6.640625 61.46875 
L 6.640625 71.578125 
L 15.4375 71.578125 
L 15.4375 61.46875 
z
M 6.640625 0 
L 6.640625 51.859375 
L 15.4375 51.859375 
L 15.4375 0 
z
" id="ArialMT-105"/>
      <path d="M 3.078125 15.484375 
L 11.765625 16.84375 
Q 12.5 11.625 15.84375 8.84375 
Q 19.1875 6.0625 25.203125 6.0625 
Q 31.25 6.0625 34.171875 8.515625 
Q 37.109375 10.984375 37.109375 14.3125 
Q 37.109375 17.28125 34.515625 19 
Q 32.71875 20.171875 25.53125 21.96875 
Q 15.875 24.421875 12.140625 26.203125 
Q 8.40625 27.984375 6.46875 31.125 
Q 4.546875 34.28125 4.546875 38.09375 
Q 4.546875 41.546875 6.125 44.5 
Q 7.71875 47.46875 10.453125 49.421875 
Q 12.5 50.921875 16.03125 51.96875 
Q 19.578125 53.03125 23.640625 53.03125 
Q 29.734375 53.03125 34.34375 51.265625 
Q 38.96875 49.515625 41.15625 46.5 
Q 43.359375 43.5 44.1875 38.484375 
L 35.59375 37.3125 
Q 35.015625 41.3125 32.203125 43.546875 
Q 29.390625 45.796875 24.265625 45.796875 
Q 18.21875 45.796875 15.625 43.796875 
Q 13.03125 41.796875 13.03125 39.109375 
Q 13.03125 37.40625 14.109375 36.03125 
Q 15.1875 34.625 17.484375 33.6875 
Q 18.796875 33.203125 25.25 31.453125 
Q 34.578125 28.953125 38.25 27.359375 
Q 41.9375 25.78125 44.03125 22.75 
Q 46.140625 19.734375 46.140625 15.234375 
Q 46.140625 10.84375 43.578125 6.953125 
Q 41.015625 3.078125 36.171875 0.953125 
Q 31.34375 -1.171875 25.25 -1.171875 
Q 15.140625 -1.171875 9.84375 3.03125 
Q 4.546875 7.234375 3.078125 15.484375 
z
" id="ArialMT-115"/>
     </defs>
     <g style="fill:#e66101;" transform="translate(821.051312 69.259594)scale(0.23 -0.23)">
      <use xlink:href="#ArialMT-114"/>
      <use x="33.300781" xlink:href="#ArialMT-97"/>
      <use x="88.916016" xlink:href="#ArialMT-100"/>
      <use x="144.53125" xlink:href="#ArialMT-105"/>
      <use x="166.748047" xlink:href="#ArialMT-117"/>
      <use x="222.363281" xlink:href="#ArialMT-115"/>
      <use x="272.363281" xlink:href="#ArialMT-32"/>
      <use x="300.146484" xlink:href="#ArialMT-49"/>
     </g>
    </g>
    <g id="text_21">
     <!-- radius 3 -->
     <g style="fill:#5e3c99;" transform="translate(821.051312 101.793812)scale(0.23 -0.23)">
      <use xlink:href="#ArialMT-114"/>
      <use x="33.300781" xlink:href="#ArialMT-97"/>
      <use x="88.916016" xlink:href="#ArialMT-100"/>
      <use x="144.53125" xlink:href="#ArialMT-105"/>
      <use x="166.748047" xlink:href="#ArialMT-117"/>
      <use x="222.363281" xlink:href="#ArialMT-115"/>
      <use x="272.363281" xlink:href="#ArialMT-32"/>
      <use x="300.146484" xlink:href="#ArialMT-51"/>
     </g>
    </g>
   </g>
  </g>
 </g>
 <defs>
  <clipPath id="p1a2f4f5cda">
   <rect height="326.16" width="380.454545" x="86.570219" y="32.096625"/>
  </clipPath>
  <clipPath id="p9189f9694f">
   <rect height="326.16" width="380.454545" x="543.115673" y="32.096625"/>
  </clipPath>
 </defs>
</svg>
