<?xml version="1.0" encoding="utf-8" standalone="no"?>
<!DOCTYPE svg PUBLIC "-//W3C//DTD SVG 1.1//EN"
  "http://www.w3.org/Graphics/SVG/1.1/DTD/svg11.dtd">
<!-- Created with matplotlib (https://matplotlib.org/) -->
<svg height="311.448281pt" version="1.1" viewBox="0 0 417.371781 311.448281" width="417.371781pt" xmlns="http://www.w3.org/2000/svg" xmlns:xlink="http://www.w3.org/1999/xlink">
 <defs>
  <style type="text/css">
*{stroke-linecap:butt;stroke-linejoin:round;}
  </style>
 </defs>
 <g id="figure_1">
  <g id="patch_1">
   <path d="M 0 311.448281 
L 417.371781 311.448281 
L 417.371781 0 
L 0 0 
z
" style="fill:none;"/>
  </g>
  <g id="axes_1">
   <g id="patch_2">
    <path d="M 67.371781 249.536625 
L 402.171781 249.536625 
L 402.171781 32.096625 
L 67.371781 32.096625 
z
" style="fill:#ffffff;"/>
   </g>
   <g id="matplotlib.axis_1">
    <g id="xtick_1">
     <g id="line2d_1">
      <defs>
       <path d="M 0 0 
L 0 -12 
" id="m18e570b2fe" style="stroke:#262626;stroke-width:2.5;"/>
      </defs>
      <g>
       <use style="fill:#262626;stroke:#262626;stroke-width:2.5;" x="123.171781" xlink:href="#m18e570b2fe" y="249.536625"/>
      </g>
     </g>
     <g id="text_1">
      <!-- 12 -->
      <defs>
       <path d="M 37.25 0 
L 28.46875 0 
L 28.46875 56 
Q 25.296875 52.984375 20.140625 49.953125 
Q 14.984375 46.921875 10.890625 45.40625 
L 10.890625 53.90625 
Q 18.265625 57.375 23.78125 62.296875 
Q 29.296875 67.234375 31.59375 71.875 
L 37.25 71.875 
z
" id="ArialMT-49"/>
       <path d="M 50.34375 8.453125 
L 50.34375 0 
L 3.03125 0 
Q 2.9375 3.171875 4.046875 6.109375 
Q 5.859375 10.9375 9.828125 15.625 
Q 13.8125 20.3125 21.34375 26.46875 
Q 33.015625 36.03125 37.109375 41.625 
Q 41.21875 47.21875 41.21875 52.203125 
Q 41.21875 57.421875 37.46875 61 
Q 33.734375 64.59375 27.734375 64.59375 
Q 21.390625 64.59375 17.578125 60.78125 
Q 13.765625 56.984375 13.71875 50.25 
L 4.6875 51.171875 
Q 5.609375 61.28125 11.65625 66.578125 
Q 17.71875 71.875 27.9375 71.875 
Q 38.234375 71.875 44.234375 66.15625 
Q 50.25 60.453125 50.25 52 
Q 50.25 47.703125 48.484375 43.546875 
Q 46.734375 39.40625 42.65625 34.8125 
Q 38.578125 30.21875 29.109375 22.21875 
Q 21.1875 15.578125 18.9375 13.203125 
Q 16.703125 10.84375 15.234375 8.453125 
z
" id="ArialMT-50"/>
      </defs>
      <g style="fill:#262626;" transform="translate(109.714313 270.358531)scale(0.242 -0.242)">
       <use xlink:href="#ArialMT-49"/>
       <use x="55.615234" xlink:href="#ArialMT-50"/>
      </g>
     </g>
    </g>
    <g id="xtick_2">
     <g id="line2d_2">
      <g>
       <use style="fill:#262626;stroke:#262626;stroke-width:2.5;" x="234.771781" xlink:href="#m18e570b2fe" y="249.536625"/>
      </g>
     </g>
     <g id="text_2">
      <!-- 16 -->
      <defs>
       <path d="M 49.75 54.046875 
L 41.015625 53.375 
Q 39.84375 58.546875 37.703125 60.890625 
Q 34.125 64.65625 28.90625 64.65625 
Q 24.703125 64.65625 21.53125 62.3125 
Q 17.390625 59.28125 14.984375 53.46875 
Q 12.59375 47.65625 12.5 36.921875 
Q 15.671875 41.75 20.265625 44.09375 
Q 24.859375 46.4375 29.890625 46.4375 
Q 38.671875 46.4375 44.84375 39.96875 
Q 51.03125 33.5 51.03125 23.25 
Q 51.03125 16.5 48.125 10.71875 
Q 45.21875 4.9375 40.140625 1.859375 
Q 35.0625 -1.21875 28.609375 -1.21875 
Q 17.625 -1.21875 10.6875 6.859375 
Q 3.765625 14.9375 3.765625 33.5 
Q 3.765625 54.25 11.421875 63.671875 
Q 18.109375 71.875 29.4375 71.875 
Q 37.890625 71.875 43.28125 67.140625 
Q 48.6875 62.40625 49.75 54.046875 
z
M 13.875 23.1875 
Q 13.875 18.65625 15.796875 14.5 
Q 17.71875 10.359375 21.1875 8.171875 
Q 24.65625 6 28.46875 6 
Q 34.03125 6 38.03125 10.484375 
Q 42.046875 14.984375 42.046875 22.703125 
Q 42.046875 30.125 38.078125 34.390625 
Q 34.125 38.671875 28.125 38.671875 
Q 22.171875 38.671875 18.015625 34.390625 
Q 13.875 30.125 13.875 23.1875 
z
" id="ArialMT-54"/>
      </defs>
      <g style="fill:#262626;" transform="translate(221.314312 270.358531)scale(0.242 -0.242)">
       <use xlink:href="#ArialMT-49"/>
       <use x="55.615234" xlink:href="#ArialMT-54"/>
      </g>
     </g>
    </g>
    <g id="xtick_3">
     <g id="line2d_3">
      <g>
       <use style="fill:#262626;stroke:#262626;stroke-width:2.5;" x="346.371781" xlink:href="#m18e570b2fe" y="249.536625"/>
      </g>
     </g>
     <g id="text_3">
      <!-- 20 -->
      <defs>
       <path d="M 4.15625 35.296875 
Q 4.15625 48 6.765625 55.734375 
Q 9.375 63.484375 14.515625 67.671875 
Q 19.671875 71.875 27.484375 71.875 
Q 33.25 71.875 37.59375 69.546875 
Q 41.9375 67.234375 44.765625 62.859375 
Q 47.609375 58.5 49.21875 52.21875 
Q 50.828125 45.953125 50.828125 35.296875 
Q 50.828125 22.703125 48.234375 14.96875 
Q 45.65625 7.234375 40.5 3 
Q 35.359375 -1.21875 27.484375 -1.21875 
Q 17.140625 -1.21875 11.234375 6.203125 
Q 4.15625 15.140625 4.15625 35.296875 
z
M 13.1875 35.296875 
Q 13.1875 17.671875 17.3125 11.828125 
Q 21.4375 6 27.484375 6 
Q 33.546875 6 37.671875 11.859375 
Q 41.796875 17.71875 41.796875 35.296875 
Q 41.796875 52.984375 37.671875 58.78125 
Q 33.546875 64.59375 27.390625 64.59375 
Q 21.34375 64.59375 17.71875 59.46875 
Q 13.1875 52.9375 13.1875 35.296875 
z
" id="ArialMT-48"/>
      </defs>
      <g style="fill:#262626;" transform="translate(332.914313 270.358531)scale(0.242 -0.242)">
       <use xlink:href="#ArialMT-50"/>
       <use x="55.615234" xlink:href="#ArialMT-48"/>
      </g>
     </g>
    </g>
    <g id="text_4">
     <!-- distance T - NT ($^\circ$) -->
     <defs>
      <path d="M 40.234375 0 
L 40.234375 6.546875 
Q 35.296875 -1.171875 25.734375 -1.171875 
Q 19.53125 -1.171875 14.328125 2.25 
Q 9.125 5.671875 6.265625 11.796875 
Q 3.421875 17.921875 3.421875 25.875 
Q 3.421875 33.640625 6 39.96875 
Q 8.59375 46.296875 13.765625 49.65625 
Q 18.953125 53.03125 25.34375 53.03125 
Q 30.03125 53.03125 33.6875 51.046875 
Q 37.359375 49.078125 39.65625 45.90625 
L 39.65625 71.578125 
L 48.390625 71.578125 
L 48.390625 0 
z
M 12.453125 25.875 
Q 12.453125 15.921875 16.640625 10.984375 
Q 20.84375 6.0625 26.5625 6.0625 
Q 32.328125 6.0625 36.34375 10.765625 
Q 40.375 15.484375 40.375 25.140625 
Q 40.375 35.796875 36.265625 40.765625 
Q 32.171875 45.75 26.171875 45.75 
Q 20.3125 45.75 16.375 40.96875 
Q 12.453125 36.1875 12.453125 25.875 
z
" id="ArialMT-100"/>
      <path d="M 6.640625 61.46875 
L 6.640625 71.578125 
L 15.4375 71.578125 
L 15.4375 61.46875 
z
M 6.640625 0 
L 6.640625 51.859375 
L 15.4375 51.859375 
L 15.4375 0 
z
" id="ArialMT-105"/>
      <path d="M 3.078125 15.484375 
L 11.765625 16.84375 
Q 12.5 11.625 15.84375 8.84375 
Q 19.1875 6.0625 25.203125 6.0625 
Q 31.25 6.0625 34.171875 8.515625 
Q 37.109375 10.984375 37.109375 14.3125 
Q 37.109375 17.28125 34.515625 19 
Q 32.71875 20.171875 25.53125 21.96875 
Q 15.875 24.421875 12.140625 26.203125 
Q 8.40625 27.984375 6.46875 31.125 
Q 4.546875 34.28125 4.546875 38.09375 
Q 4.546875 41.546875 6.125 44.5 
Q 7.71875 47.46875 10.453125 49.421875 
Q 12.5 50.921875 16.03125 51.96875 
Q 19.578125 53.03125 23.640625 53.03125 
Q 29.734375 53.03125 34.34375 51.265625 
Q 38.96875 49.515625 41.15625 46.5 
Q 43.359375 43.5 44.1875 38.484375 
L 35.59375 37.3125 
Q 35.015625 41.3125 32.203125 43.546875 
Q 29.390625 45.796875 24.265625 45.796875 
Q 18.21875 45.796875 15.625 43.796875 
Q 13.03125 41.796875 13.03125 39.109375 
Q 13.03125 37.40625 14.109375 36.03125 
Q 15.1875 34.625 17.484375 33.6875 
Q 18.796875 33.203125 25.25 31.453125 
Q 34.578125 28.953125 38.25 27.359375 
Q 41.9375 25.78125 44.03125 22.75 
Q 46.140625 19.734375 46.140625 15.234375 
Q 46.140625 10.84375 43.578125 6.953125 
Q 41.015625 3.078125 36.171875 0.953125 
Q 31.34375 -1.171875 25.25 -1.171875 
Q 15.140625 -1.171875 9.84375 3.03125 
Q 4.546875 7.234375 3.078125 15.484375 
z
" id="ArialMT-115"/>
      <path d="M 25.78125 7.859375 
L 27.046875 0.09375 
Q 23.34375 -0.6875 20.40625 -0.6875 
Q 15.625 -0.6875 12.984375 0.828125 
Q 10.359375 2.34375 9.28125 4.8125 
Q 8.203125 7.28125 8.203125 15.1875 
L 8.203125 45.015625 
L 1.765625 45.015625 
L 1.765625 51.859375 
L 8.203125 51.859375 
L 8.203125 64.703125 
L 16.9375 69.96875 
L 16.9375 51.859375 
L 25.78125 51.859375 
L 25.78125 45.015625 
L 16.9375 45.015625 
L 16.9375 14.703125 
Q 16.9375 10.9375 17.40625 9.859375 
Q 17.875 8.796875 18.921875 8.15625 
Q 19.96875 7.515625 21.921875 7.515625 
Q 23.390625 7.515625 25.78125 7.859375 
z
" id="ArialMT-116"/>
      <path d="M 40.4375 6.390625 
Q 35.546875 2.25 31.03125 0.53125 
Q 26.515625 -1.171875 21.34375 -1.171875 
Q 12.796875 -1.171875 8.203125 3 
Q 3.609375 7.171875 3.609375 13.671875 
Q 3.609375 17.484375 5.34375 20.625 
Q 7.078125 23.78125 9.890625 25.6875 
Q 12.703125 27.59375 16.21875 28.5625 
Q 18.796875 29.25 24.03125 29.890625 
Q 34.671875 31.15625 39.703125 32.90625 
Q 39.75 34.71875 39.75 35.203125 
Q 39.75 40.578125 37.25 42.78125 
Q 33.890625 45.75 27.25 45.75 
Q 21.046875 45.75 18.09375 43.578125 
Q 15.140625 41.40625 13.71875 35.890625 
L 5.125 37.0625 
Q 6.296875 42.578125 8.984375 45.96875 
Q 11.671875 49.359375 16.75 51.1875 
Q 21.828125 53.03125 28.515625 53.03125 
Q 35.15625 53.03125 39.296875 51.46875 
Q 43.453125 49.90625 45.40625 47.53125 
Q 47.359375 45.171875 48.140625 41.546875 
Q 48.578125 39.3125 48.578125 33.453125 
L 48.578125 21.734375 
Q 48.578125 9.46875 49.140625 6.21875 
Q 49.703125 2.984375 51.375 0 
L 42.1875 0 
Q 40.828125 2.734375 40.4375 6.390625 
z
M 39.703125 26.03125 
Q 34.90625 24.078125 25.34375 22.703125 
Q 19.921875 21.921875 17.671875 20.9375 
Q 15.4375 19.96875 14.203125 18.09375 
Q 12.984375 16.21875 12.984375 13.921875 
Q 12.984375 10.40625 15.640625 8.0625 
Q 18.3125 5.71875 23.4375 5.71875 
Q 28.515625 5.71875 32.46875 7.9375 
Q 36.421875 10.15625 38.28125 14.015625 
Q 39.703125 17 39.703125 22.796875 
z
" id="ArialMT-97"/>
      <path d="M 6.59375 0 
L 6.59375 51.859375 
L 14.5 51.859375 
L 14.5 44.484375 
Q 20.21875 53.03125 31 53.03125 
Q 35.6875 53.03125 39.625 51.34375 
Q 43.5625 49.65625 45.515625 46.921875 
Q 47.46875 44.1875 48.25 40.4375 
Q 48.734375 37.984375 48.734375 31.890625 
L 48.734375 0 
L 39.9375 0 
L 39.9375 31.546875 
Q 39.9375 36.921875 38.90625 39.578125 
Q 37.890625 42.234375 35.28125 43.8125 
Q 32.671875 45.40625 29.15625 45.40625 
Q 23.53125 45.40625 19.453125 41.84375 
Q 15.375 38.28125 15.375 28.328125 
L 15.375 0 
z
" id="ArialMT-110"/>
      <path d="M 40.4375 19 
L 49.078125 17.875 
Q 47.65625 8.9375 41.8125 3.875 
Q 35.984375 -1.171875 27.484375 -1.171875 
Q 16.84375 -1.171875 10.375 5.78125 
Q 3.90625 12.75 3.90625 25.734375 
Q 3.90625 34.125 6.6875 40.421875 
Q 9.46875 46.734375 15.15625 49.875 
Q 20.84375 53.03125 27.546875 53.03125 
Q 35.984375 53.03125 41.359375 48.75 
Q 46.734375 44.484375 48.25 36.625 
L 39.703125 35.296875 
Q 38.484375 40.53125 35.375 43.15625 
Q 32.28125 45.796875 27.875 45.796875 
Q 21.234375 45.796875 17.078125 41.03125 
Q 12.9375 36.28125 12.9375 25.984375 
Q 12.9375 15.53125 16.9375 10.796875 
Q 20.953125 6.0625 27.390625 6.0625 
Q 32.5625 6.0625 36.03125 9.234375 
Q 39.5 12.40625 40.4375 19 
z
" id="ArialMT-99"/>
      <path d="M 42.09375 16.703125 
L 51.171875 15.578125 
Q 49.03125 7.625 43.21875 3.21875 
Q 37.40625 -1.171875 28.375 -1.171875 
Q 17 -1.171875 10.328125 5.828125 
Q 3.65625 12.84375 3.65625 25.484375 
Q 3.65625 38.578125 10.390625 45.796875 
Q 17.140625 53.03125 27.875 53.03125 
Q 38.28125 53.03125 44.875 45.953125 
Q 51.46875 38.875 51.46875 26.03125 
Q 51.46875 25.25 51.421875 23.6875 
L 12.75 23.6875 
Q 13.234375 15.140625 17.578125 10.59375 
Q 21.921875 6.0625 28.421875 6.0625 
Q 33.25 6.0625 36.671875 8.59375 
Q 40.09375 11.140625 42.09375 16.703125 
z
M 13.234375 30.90625 
L 42.1875 30.90625 
Q 41.609375 37.453125 38.875 40.71875 
Q 34.671875 45.796875 27.984375 45.796875 
Q 21.921875 45.796875 17.796875 41.75 
Q 13.671875 37.703125 13.234375 30.90625 
z
" id="ArialMT-101"/>
      <path id="ArialMT-32"/>
      <path d="M 25.921875 0 
L 25.921875 63.140625 
L 2.34375 63.140625 
L 2.34375 71.578125 
L 59.078125 71.578125 
L 59.078125 63.140625 
L 35.40625 63.140625 
L 35.40625 0 
z
" id="ArialMT-84"/>
      <path d="M 3.171875 21.484375 
L 3.171875 30.328125 
L 30.171875 30.328125 
L 30.171875 21.484375 
z
" id="ArialMT-45"/>
      <path d="M 7.625 0 
L 7.625 71.578125 
L 17.328125 71.578125 
L 54.9375 15.375 
L 54.9375 71.578125 
L 64.015625 71.578125 
L 64.015625 0 
L 54.296875 0 
L 16.703125 56.25 
L 16.703125 0 
z
" id="ArialMT-78"/>
      <path d="M 23.390625 -21.046875 
Q 16.109375 -11.859375 11.078125 0.4375 
Q 6.0625 12.75 6.0625 25.921875 
Q 6.0625 37.546875 9.8125 48.1875 
Q 14.203125 60.546875 23.390625 72.796875 
L 29.6875 72.796875 
Q 23.78125 62.640625 21.875 58.296875 
Q 18.890625 51.5625 17.1875 44.234375 
Q 15.09375 35.109375 15.09375 25.875 
Q 15.09375 2.390625 29.6875 -21.046875 
z
" id="ArialMT-40"/>
      <path d="M 31.296875 40.671875 
Q 27.390625 40.671875 24.703125 37.953125 
Q 22.015625 35.25 22.015625 31.34375 
Q 22.015625 27.484375 24.703125 24.828125 
Q 27.390625 22.171875 31.296875 22.171875 
Q 35.203125 22.171875 37.890625 24.828125 
Q 40.578125 27.484375 40.578125 31.34375 
Q 40.578125 35.203125 37.859375 37.9375 
Q 35.15625 40.671875 31.296875 40.671875 
z
M 31.296875 46.96875 
Q 34.421875 46.96875 37.296875 45.765625 
Q 40.1875 44.578125 42.28125 42.328125 
Q 44.53125 40.140625 45.65625 37.34375 
Q 46.78125 34.5625 46.78125 31.34375 
Q 46.78125 24.90625 42.265625 20.4375 
Q 37.75 15.96875 31.203125 15.96875 
Q 24.609375 15.96875 20.21875 20.359375 
Q 15.828125 24.75 15.828125 31.34375 
Q 15.828125 37.890625 20.3125 42.421875 
Q 24.8125 46.96875 31.296875 46.96875 
z
" id="DejaVuSans-8728"/>
      <path d="M 12.359375 -21.046875 
L 6.0625 -21.046875 
Q 20.65625 2.390625 20.65625 25.875 
Q 20.65625 35.0625 18.5625 44.09375 
Q 16.890625 51.421875 13.921875 58.15625 
Q 12.015625 62.546875 6.0625 72.796875 
L 12.359375 72.796875 
Q 21.53125 60.546875 25.921875 48.1875 
Q 29.6875 37.546875 29.6875 25.921875 
Q 29.6875 12.75 24.625 0.4375 
Q 19.578125 -11.859375 12.359375 -21.046875 
z
" id="ArialMT-41"/>
     </defs>
     <g style="fill:#262626;" transform="translate(122.175781 298.440281)scale(0.264 -0.264)">
      <use transform="translate(0 0.203125)" xlink:href="#ArialMT-100"/>
      <use transform="translate(55.615234 0.203125)" xlink:href="#ArialMT-105"/>
      <use transform="translate(77.832031 0.203125)" xlink:href="#ArialMT-115"/>
      <use transform="translate(127.832031 0.203125)" xlink:href="#ArialMT-116"/>
      <use transform="translate(155.615234 0.203125)" xlink:href="#ArialMT-97"/>
      <use transform="translate(211.230469 0.203125)" xlink:href="#ArialMT-110"/>
      <use transform="translate(266.845703 0.203125)" xlink:href="#ArialMT-99"/>
      <use transform="translate(316.845703 0.203125)" xlink:href="#ArialMT-101"/>
      <use transform="translate(372.460938 0.203125)" xlink:href="#ArialMT-32"/>
      <use transform="translate(400.244141 0.203125)" xlink:href="#ArialMT-84"/>
      <use transform="translate(461.328125 0.203125)" xlink:href="#ArialMT-32"/>
      <use transform="translate(489.111328 0.203125)" xlink:href="#ArialMT-45"/>
      <use transform="translate(522.412109 0.203125)" xlink:href="#ArialMT-32"/>
      <use transform="translate(550.195312 0.203125)" xlink:href="#ArialMT-78"/>
      <use transform="translate(622.412109 0.203125)" xlink:href="#ArialMT-84"/>
      <use transform="translate(683.496094 0.203125)" xlink:href="#ArialMT-32"/>
      <use transform="translate(711.279297 0.203125)" xlink:href="#ArialMT-40"/>
      <use transform="translate(759.174805 38.484375)scale(0.7)" xlink:href="#DejaVuSans-8728"/>
      <use transform="translate(819.365234 0.203125)" xlink:href="#ArialMT-41"/>
     </g>
    </g>
   </g>
   <g id="matplotlib.axis_2">
    <g id="ytick_1">
     <g id="line2d_4">
      <defs>
       <path d="M 0 0 
L 12 0 
" id="m44a40ffc96" style="stroke:#262626;stroke-width:2.5;"/>
      </defs>
      <g>
       <use style="fill:#262626;stroke:#262626;stroke-width:2.5;" x="67.371781" xlink:href="#m44a40ffc96" y="249.536625"/>
      </g>
     </g>
     <g id="text_5">
      <!-- −4 -->
      <defs>
       <path d="M 52.828125 31.203125 
L 5.5625 31.203125 
L 5.5625 39.40625 
L 52.828125 39.40625 
z
" id="ArialMT-8722"/>
       <path d="M 32.328125 0 
L 32.328125 17.140625 
L 1.265625 17.140625 
L 1.265625 25.203125 
L 33.9375 71.578125 
L 41.109375 71.578125 
L 41.109375 25.203125 
L 50.78125 25.203125 
L 50.78125 17.140625 
L 41.109375 17.140625 
L 41.109375 0 
z
M 32.328125 25.203125 
L 32.328125 57.46875 
L 9.90625 25.203125 
z
" id="ArialMT-52"/>
      </defs>
      <g style="fill:#262626;" transform="translate(36.28 258.197578)scale(0.242 -0.242)">
       <use xlink:href="#ArialMT-8722"/>
       <use x="58.398438" xlink:href="#ArialMT-52"/>
      </g>
     </g>
    </g>
    <g id="ytick_2">
     <g id="line2d_5">
      <g>
       <use style="fill:#262626;stroke:#262626;stroke-width:2.5;" x="67.371781" xlink:href="#m44a40ffc96" y="195.176625"/>
      </g>
     </g>
     <g id="text_6">
      <!-- −2 -->
      <g style="fill:#262626;" transform="translate(36.28 203.837578)scale(0.242 -0.242)">
       <use xlink:href="#ArialMT-8722"/>
       <use x="58.398438" xlink:href="#ArialMT-50"/>
      </g>
     </g>
    </g>
    <g id="ytick_3">
     <g id="line2d_6">
      <g>
       <use style="fill:#262626;stroke:#262626;stroke-width:2.5;" x="67.371781" xlink:href="#m44a40ffc96" y="140.816625"/>
      </g>
     </g>
     <g id="text_7">
      <!-- 0 -->
      <g style="fill:#262626;" transform="translate(50.414313 149.477578)scale(0.242 -0.242)">
       <use xlink:href="#ArialMT-48"/>
      </g>
     </g>
    </g>
    <g id="ytick_4">
     <g id="line2d_7">
      <g>
       <use style="fill:#262626;stroke:#262626;stroke-width:2.5;" x="67.371781" xlink:href="#m44a40ffc96" y="86.456625"/>
      </g>
     </g>
     <g id="text_8">
      <!-- 2 -->
      <g style="fill:#262626;" transform="translate(50.414313 95.117578)scale(0.242 -0.242)">
       <use xlink:href="#ArialMT-50"/>
      </g>
     </g>
    </g>
    <g id="ytick_5">
     <g id="line2d_8">
      <g>
       <use style="fill:#262626;stroke:#262626;stroke-width:2.5;" x="67.371781" xlink:href="#m44a40ffc96" y="32.096625"/>
      </g>
     </g>
     <g id="text_9">
      <!-- 4 -->
      <g style="fill:#262626;" transform="translate(50.414313 40.757578)scale(0.242 -0.242)">
       <use xlink:href="#ArialMT-52"/>
      </g>
     </g>
    </g>
    <g id="text_10">
     <!-- distance to target ($^\circ$) -->
     <defs>
      <path d="M 3.328125 25.921875 
Q 3.328125 40.328125 11.328125 47.265625 
Q 18.015625 53.03125 27.640625 53.03125 
Q 38.328125 53.03125 45.109375 46.015625 
Q 51.90625 39.015625 51.90625 26.65625 
Q 51.90625 16.65625 48.90625 10.90625 
Q 45.90625 5.171875 40.15625 2 
Q 34.421875 -1.171875 27.640625 -1.171875 
Q 16.75 -1.171875 10.03125 5.8125 
Q 3.328125 12.796875 3.328125 25.921875 
z
M 12.359375 25.921875 
Q 12.359375 15.96875 16.703125 11.015625 
Q 21.046875 6.0625 27.640625 6.0625 
Q 34.1875 6.0625 38.53125 11.03125 
Q 42.875 16.015625 42.875 26.21875 
Q 42.875 35.84375 38.5 40.796875 
Q 34.125 45.75 27.640625 45.75 
Q 21.046875 45.75 16.703125 40.8125 
Q 12.359375 35.890625 12.359375 25.921875 
z
" id="ArialMT-111"/>
      <path d="M 6.5 0 
L 6.5 51.859375 
L 14.40625 51.859375 
L 14.40625 44 
Q 17.4375 49.515625 20 51.265625 
Q 22.5625 53.03125 25.640625 53.03125 
Q 30.078125 53.03125 34.671875 50.203125 
L 31.640625 42.046875 
Q 28.421875 43.953125 25.203125 43.953125 
Q 22.3125 43.953125 20.015625 42.21875 
Q 17.71875 40.484375 16.75 37.40625 
Q 15.28125 32.71875 15.28125 27.15625 
L 15.28125 0 
z
" id="ArialMT-114"/>
      <path d="M 4.984375 -4.296875 
L 13.53125 -5.5625 
Q 14.0625 -9.515625 16.5 -11.328125 
Q 19.78125 -13.765625 25.4375 -13.765625 
Q 31.546875 -13.765625 34.859375 -11.328125 
Q 38.1875 -8.890625 39.359375 -4.5 
Q 40.046875 -1.8125 39.984375 6.78125 
Q 34.234375 0 25.640625 0 
Q 14.9375 0 9.078125 7.71875 
Q 3.21875 15.4375 3.21875 26.21875 
Q 3.21875 33.640625 5.90625 39.90625 
Q 8.59375 46.1875 13.6875 49.609375 
Q 18.796875 53.03125 25.6875 53.03125 
Q 34.859375 53.03125 40.828125 45.609375 
L 40.828125 51.859375 
L 48.921875 51.859375 
L 48.921875 7.03125 
Q 48.921875 -5.078125 46.453125 -10.125 
Q 44 -15.1875 38.640625 -18.109375 
Q 33.296875 -21.046875 25.484375 -21.046875 
Q 16.21875 -21.046875 10.5 -16.875 
Q 4.78125 -12.703125 4.984375 -4.296875 
z
M 12.25 26.859375 
Q 12.25 16.65625 16.296875 11.96875 
Q 20.359375 7.28125 26.46875 7.28125 
Q 32.515625 7.28125 36.609375 11.9375 
Q 40.71875 16.609375 40.71875 26.5625 
Q 40.71875 36.078125 36.5 40.90625 
Q 32.28125 45.75 26.3125 45.75 
Q 20.453125 45.75 16.34375 40.984375 
Q 12.25 36.234375 12.25 26.859375 
z
" id="ArialMT-103"/>
     </defs>
     <g style="fill:#262626;" transform="translate(26.472 264.500625)rotate(-90)scale(0.264 -0.264)">
      <use transform="translate(0 0.203125)" xlink:href="#ArialMT-100"/>
      <use transform="translate(55.615234 0.203125)" xlink:href="#ArialMT-105"/>
      <use transform="translate(77.832031 0.203125)" xlink:href="#ArialMT-115"/>
      <use transform="translate(127.832031 0.203125)" xlink:href="#ArialMT-116"/>
      <use transform="translate(155.615234 0.203125)" xlink:href="#ArialMT-97"/>
      <use transform="translate(211.230469 0.203125)" xlink:href="#ArialMT-110"/>
      <use transform="translate(266.845703 0.203125)" xlink:href="#ArialMT-99"/>
      <use transform="translate(316.845703 0.203125)" xlink:href="#ArialMT-101"/>
      <use transform="translate(372.460938 0.203125)" xlink:href="#ArialMT-32"/>
      <use transform="translate(400.244141 0.203125)" xlink:href="#ArialMT-116"/>
      <use transform="translate(428.027344 0.203125)" xlink:href="#ArialMT-111"/>
      <use transform="translate(483.642578 0.203125)" xlink:href="#ArialMT-32"/>
      <use transform="translate(511.425781 0.203125)" xlink:href="#ArialMT-116"/>
      <use transform="translate(539.208984 0.203125)" xlink:href="#ArialMT-97"/>
      <use transform="translate(594.824219 0.203125)" xlink:href="#ArialMT-114"/>
      <use transform="translate(628.125 0.203125)" xlink:href="#ArialMT-103"/>
      <use transform="translate(683.740234 0.203125)" xlink:href="#ArialMT-101"/>
      <use transform="translate(739.355469 0.203125)" xlink:href="#ArialMT-116"/>
      <use transform="translate(767.138672 0.203125)" xlink:href="#ArialMT-32"/>
      <use transform="translate(794.921875 0.203125)" xlink:href="#ArialMT-40"/>
      <use transform="translate(842.817383 38.484375)scale(0.7)" xlink:href="#DejaVuSans-8728"/>
      <use transform="translate(903.007812 0.203125)" xlink:href="#ArialMT-41"/>
     </g>
    </g>
   </g>
   <g id="patch_3">
    <path clip-path="url(#p4f688df016)" d="M 123.171781 140.816625 
L 123.171781 140.816625 
L 123.171781 140.816625 
L 123.171781 140.816625 
z
" style="fill:#c9661e;stroke:#404040;stroke-linejoin:miter;stroke-width:0.5;"/>
   </g>
   <g id="patch_4">
    <path clip-path="url(#p4f688df016)" d="M 123.171781 140.816625 
L 123.171781 140.816625 
L 123.171781 140.816625 
L 123.171781 140.816625 
z
" style="fill:#61488d;stroke:#404040;stroke-linejoin:miter;stroke-width:0.5;"/>
   </g>
   <g id="PathCollection_1">
    <defs>
     <path d="M 0 2.5 
C 0.663008 2.5 1.29895 2.236584 1.767767 1.767767 
C 2.236584 1.29895 2.5 0.663008 2.5 0 
C 2.5 -0.663008 2.236584 -1.29895 1.767767 -1.767767 
C 1.29895 -2.236584 0.663008 -2.5 0 -2.5 
C -0.663008 -2.5 -1.29895 -2.236584 -1.767767 -1.767767 
C -2.236584 -1.29895 -2.5 -0.663008 -2.5 0 
C -2.5 0.663008 -2.236584 1.29895 -1.767767 1.767767 
C -1.29895 2.236584 -0.663008 2.5 0 2.5 
z
" id="C0_0_91b3f71db2"/>
    </defs>
    <g clip-path="url(#p4f688df016)">
     <use style="fill:#c9661e;fill-opacity:0.4;" x="105.483505" xlink:href="#C0_0_91b3f71db2" y="-12.614475"/>
    </g>
    <g clip-path="url(#p4f688df016)">
     <use style="fill:#c9661e;fill-opacity:0.4;" x="112.604194" xlink:href="#C0_0_91b3f71db2" y="250.149874"/>
    </g>
    <g clip-path="url(#p4f688df016)">
     <use style="fill:#c9661e;fill-opacity:0.4;" x="93.794991" xlink:href="#C0_0_91b3f71db2" y="127.60838"/>
    </g>
    <g clip-path="url(#p4f688df016)">
     <use style="fill:#c9661e;fill-opacity:0.4;" x="110.702738" xlink:href="#C0_0_91b3f71db2" y="312.947565"/>
    </g>
    <g clip-path="url(#p4f688df016)">
     <use style="fill:#c9661e;fill-opacity:0.4;" x="90.702137" xlink:href="#C0_0_91b3f71db2" y="165.600255"/>
    </g>
    <g clip-path="url(#p4f688df016)">
     <use style="fill:#c9661e;fill-opacity:0.4;" x="119.943373" xlink:href="#C0_0_91b3f71db2" y="206.673765"/>
    </g>
    <g clip-path="url(#p4f688df016)">
     <use style="fill:#c9661e;fill-opacity:0.4;" x="103.423147" xlink:href="#C0_0_91b3f71db2" y="159.270712"/>
    </g>
    <g clip-path="url(#p4f688df016)">
     <use style="fill:#c9661e;fill-opacity:0.4;" x="102.11756" xlink:href="#C0_0_91b3f71db2" y="210.72132"/>
    </g>
    <g clip-path="url(#p4f688df016)">
     <use style="fill:#c9661e;fill-opacity:0.4;" x="101.474156" xlink:href="#C0_0_91b3f71db2" y="53.66169"/>
    </g>
    <g clip-path="url(#p4f688df016)">
     <use style="fill:#c9661e;fill-opacity:0.4;" x="108.349333" xlink:href="#C0_0_91b3f71db2" y="288.784545"/>
    </g>
    <g clip-path="url(#p4f688df016)">
     <use style="fill:#c9661e;fill-opacity:0.4;" x="106.762865" xlink:href="#C0_0_91b3f71db2" y="209.542954"/>
    </g>
    <g clip-path="url(#p4f688df016)">
     <use style="fill:#c9661e;fill-opacity:0.4;" x="115.403782" xlink:href="#C0_0_91b3f71db2" y="119.752125"/>
    </g>
    <g clip-path="url(#p4f688df016)">
     <use style="fill:#c9661e;fill-opacity:0.4;" x="100.576261" xlink:href="#C0_0_91b3f71db2" y="159.541097"/>
    </g>
    <g clip-path="url(#p4f688df016)">
     <use style="fill:#c9661e;fill-opacity:0.4;" x="121.925507" xlink:href="#C0_0_91b3f71db2" y="166.457557"/>
    </g>
    <g clip-path="url(#p4f688df016)">
     <use style="fill:#c9661e;fill-opacity:0.4;" x="113.379971" xlink:href="#C0_0_91b3f71db2" y="143.981962"/>
    </g>
    <g clip-path="url(#p4f688df016)">
     <use style="fill:#c9661e;fill-opacity:0.4;" x="107.834768" xlink:href="#C0_0_91b3f71db2" y="100.070099"/>
    </g>
    <g clip-path="url(#p4f688df016)">
     <use style="fill:#c9661e;fill-opacity:0.4;" x="96.726837" xlink:href="#C0_0_91b3f71db2" y="242.714445"/>
    </g>
    <g clip-path="url(#p4f688df016)">
     <use style="fill:#c9661e;fill-opacity:0.4;" x="118.067887" xlink:href="#C0_0_91b3f71db2" y="106.356915"/>
    </g>
   </g>
   <g id="PathCollection_2">
    <defs>
     <path d="M 0 2.5 
C 0.663008 2.5 1.29895 2.236584 1.767767 1.767767 
C 2.236584 1.29895 2.5 0.663008 2.5 0 
C 2.5 -0.663008 2.236584 -1.29895 1.767767 -1.767767 
C 1.29895 -2.236584 0.663008 -2.5 0 -2.5 
C -0.663008 -2.5 -1.29895 -2.236584 -1.767767 -1.767767 
C -2.236584 -1.29895 -2.5 -0.663008 -2.5 0 
C -2.5 0.663008 -2.236584 1.29895 -1.767767 1.767767 
C -1.29895 2.236584 -0.663008 2.5 0 2.5 
z
" id="C1_0_3a82d17bb8"/>
    </defs>
    <g clip-path="url(#p4f688df016)">
     <use style="fill:#61488d;fill-opacity:0.4;" x="147.536615" xlink:href="#C1_0_3a82d17bb8" y="62.606175"/>
    </g>
    <g clip-path="url(#p4f688df016)">
     <use style="fill:#61488d;fill-opacity:0.4;" x="138.929799" xlink:href="#C1_0_3a82d17bb8" y="173.904392"/>
    </g>
    <g clip-path="url(#p4f688df016)">
     <use style="fill:#61488d;fill-opacity:0.4;" x="151.107577" xlink:href="#C1_0_3a82d17bb8" y="109.146489"/>
    </g>
    <g clip-path="url(#p4f688df016)">
     <use style="fill:#61488d;fill-opacity:0.4;" x="138.603608" xlink:href="#C1_0_3a82d17bb8" y="60.418185"/>
    </g>
    <g clip-path="url(#p4f688df016)">
     <use style="fill:#61488d;fill-opacity:0.4;" x="134.566539" xlink:href="#C1_0_3a82d17bb8" y="178.402682"/>
    </g>
    <g clip-path="url(#p4f688df016)">
     <use style="fill:#61488d;fill-opacity:0.4;" x="146.715475" xlink:href="#C1_0_3a82d17bb8" y="130.868745"/>
    </g>
    <g clip-path="url(#p4f688df016)">
     <use style="fill:#61488d;fill-opacity:0.4;" x="150.351728" xlink:href="#C1_0_3a82d17bb8" y="153.28092"/>
    </g>
    <g clip-path="url(#p4f688df016)">
     <use style="fill:#61488d;fill-opacity:0.4;" x="152.362999" xlink:href="#C1_0_3a82d17bb8" y="72.227895"/>
    </g>
    <g clip-path="url(#p4f688df016)">
     <use style="fill:#61488d;fill-opacity:0.4;" x="141.473389" xlink:href="#C1_0_3a82d17bb8" y="76.619936"/>
    </g>
    <g clip-path="url(#p4f688df016)">
     <use style="fill:#61488d;fill-opacity:0.4;" x="136.652114" xlink:href="#C1_0_3a82d17bb8" y="123.312705"/>
    </g>
    <g clip-path="url(#p4f688df016)">
     <use style="fill:#61488d;fill-opacity:0.4;" x="153.430922" xlink:href="#C1_0_3a82d17bb8" y="147.487374"/>
    </g>
    <g clip-path="url(#p4f688df016)">
     <use style="fill:#61488d;fill-opacity:0.4;" x="135.85531" xlink:href="#C1_0_3a82d17bb8" y="33.900389"/>
    </g>
    <g clip-path="url(#p4f688df016)">
     <use style="fill:#61488d;fill-opacity:0.4;" x="149.925838" xlink:href="#C1_0_3a82d17bb8" y="168.200475"/>
    </g>
    <g clip-path="url(#p4f688df016)">
     <use style="fill:#61488d;fill-opacity:0.4;" x="142.561278" xlink:href="#C1_0_3a82d17bb8" y="-3.668549"/>
    </g>
    <g clip-path="url(#p4f688df016)">
     <use style="fill:#61488d;fill-opacity:0.4;" x="129.223379" xlink:href="#C1_0_3a82d17bb8" y="137.260575"/>
    </g>
    <g clip-path="url(#p4f688df016)">
     <use style="fill:#61488d;fill-opacity:0.4;" x="151.80673" xlink:href="#C1_0_3a82d17bb8" y="70.55509"/>
    </g>
    <g clip-path="url(#p4f688df016)">
     <use style="fill:#61488d;fill-opacity:0.4;" x="148.614494" xlink:href="#C1_0_3a82d17bb8" y="95.521155"/>
    </g>
    <g clip-path="url(#p4f688df016)">
     <use style="fill:#61488d;fill-opacity:0.4;" x="137.53886" xlink:href="#C1_0_3a82d17bb8" y="175.56502"/>
    </g>
   </g>
   <g id="PathCollection_3">
    <defs>
     <path d="M 0 2.5 
C 0.663008 2.5 1.29895 2.236584 1.767767 1.767767 
C 2.236584 1.29895 2.5 0.663008 2.5 0 
C 2.5 -0.663008 2.236584 -1.29895 1.767767 -1.767767 
C 1.29895 -2.236584 0.663008 -2.5 0 -2.5 
C -0.663008 -2.5 -1.29895 -2.236584 -1.767767 -1.767767 
C -2.236584 -1.29895 -2.5 -0.663008 -2.5 0 
C -2.5 0.663008 -2.236584 1.29895 -1.767767 1.767767 
C -1.29895 2.236584 -0.663008 2.5 0 2.5 
z
" id="C2_0_47fdbec8e8"/>
    </defs>
    <g clip-path="url(#p4f688df016)">
     <use style="fill:#c9661e;fill-opacity:0.4;" x="216.534259" xlink:href="#C2_0_47fdbec8e8" y="71.793015"/>
    </g>
    <g clip-path="url(#p4f688df016)">
     <use style="fill:#c9661e;fill-opacity:0.4;" x="226.861294" xlink:href="#C2_0_47fdbec8e8" y="188.570186"/>
    </g>
    <g clip-path="url(#p4f688df016)">
     <use style="fill:#c9661e;fill-opacity:0.4;" x="209.084882" xlink:href="#C2_0_47fdbec8e8" y="143.115806"/>
    </g>
    <g clip-path="url(#p4f688df016)">
     <use style="fill:#c9661e;fill-opacity:0.4;" x="228.147712" xlink:href="#C2_0_47fdbec8e8" y="160.304685"/>
    </g>
    <g clip-path="url(#p4f688df016)">
     <use style="fill:#c9661e;fill-opacity:0.4;" x="217.616801" xlink:href="#C2_0_47fdbec8e8" y="233.514015"/>
    </g>
    <g clip-path="url(#p4f688df016)">
     <use style="fill:#c9661e;fill-opacity:0.4;" x="222.563228" xlink:href="#C2_0_47fdbec8e8" y="129.77022"/>
    </g>
    <g clip-path="url(#p4f688df016)">
     <use style="fill:#c9661e;fill-opacity:0.4;" x="205.667204" xlink:href="#C2_0_47fdbec8e8" y="123.84498"/>
    </g>
    <g clip-path="url(#p4f688df016)">
     <use style="fill:#c9661e;fill-opacity:0.4;" x="225.127446" xlink:href="#C2_0_47fdbec8e8" y="151.678432"/>
    </g>
    <g clip-path="url(#p4f688df016)">
     <use style="fill:#c9661e;fill-opacity:0.4;" x="227.069031" xlink:href="#C2_0_47fdbec8e8" y="165.251445"/>
    </g>
    <g clip-path="url(#p4f688df016)">
     <use style="fill:#c9661e;fill-opacity:0.4;" x="220.030868" xlink:href="#C2_0_47fdbec8e8" y="235.457385"/>
    </g>
    <g clip-path="url(#p4f688df016)">
     <use style="fill:#c9661e;fill-opacity:0.4;" x="215.52083" xlink:href="#C2_0_47fdbec8e8" y="151.676734"/>
    </g>
    <g clip-path="url(#p4f688df016)">
     <use style="fill:#c9661e;fill-opacity:0.4;" x="211.646006" xlink:href="#C2_0_47fdbec8e8" y="168.22992"/>
    </g>
    <g clip-path="url(#p4f688df016)">
     <use style="fill:#c9661e;fill-opacity:0.4;" x="223.80871" xlink:href="#C2_0_47fdbec8e8" y="120.228624"/>
    </g>
    <g clip-path="url(#p4f688df016)">
     <use style="fill:#c9661e;fill-opacity:0.4;" x="212.254679" xlink:href="#C2_0_47fdbec8e8" y="91.46001"/>
    </g>
    <g clip-path="url(#p4f688df016)">
     <use style="fill:#c9661e;fill-opacity:0.4;" x="213.841247" xlink:href="#C2_0_47fdbec8e8" y="259.584165"/>
    </g>
    <g clip-path="url(#p4f688df016)">
     <use style="fill:#c9661e;fill-opacity:0.4;" x="206.62207" xlink:href="#C2_0_47fdbec8e8" y="158.565165"/>
    </g>
    <g clip-path="url(#p4f688df016)">
     <use style="fill:#c9661e;fill-opacity:0.4;" x="204.321252" xlink:href="#C2_0_47fdbec8e8" y="137.381752"/>
    </g>
    <g clip-path="url(#p4f688df016)">
     <use style="fill:#c9661e;fill-opacity:0.4;" x="224.115854" xlink:href="#C2_0_47fdbec8e8" y="213.54804"/>
    </g>
   </g>
   <g id="PathCollection_4">
    <defs>
     <path d="M 0 2.5 
C 0.663008 2.5 1.29895 2.236584 1.767767 1.767767 
C 2.236584 1.29895 2.5 0.663008 2.5 0 
C 2.5 -0.663008 2.236584 -1.29895 1.767767 -1.767767 
C 1.29895 -2.236584 0.663008 -2.5 0 -2.5 
C -0.663008 -2.5 -1.29895 -2.236584 -1.767767 -1.767767 
C -2.236584 -1.29895 -2.5 -0.663008 -2.5 0 
C -2.5 0.663008 -2.236584 1.29895 -1.767767 1.767767 
C -1.29895 2.236584 -0.663008 2.5 0 2.5 
z
" id="C3_0_f0ba327f83"/>
    </defs>
    <g clip-path="url(#p4f688df016)">
     <use style="fill:#61488d;fill-opacity:0.4;" x="254.703525" xlink:href="#C3_0_f0ba327f83" y="89.650275"/>
    </g>
    <g clip-path="url(#p4f688df016)">
     <use style="fill:#61488d;fill-opacity:0.4;" x="245.715853" xlink:href="#C3_0_f0ba327f83" y="65.197982"/>
    </g>
    <g clip-path="url(#p4f688df016)">
     <use style="fill:#61488d;fill-opacity:0.4;" x="262.960394" xlink:href="#C3_0_f0ba327f83" y="185.652753"/>
    </g>
    <g clip-path="url(#p4f688df016)">
     <use style="fill:#61488d;fill-opacity:0.4;" x="242.494588" xlink:href="#C3_0_f0ba327f83" y="192.458625"/>
    </g>
    <g clip-path="url(#p4f688df016)">
     <use style="fill:#61488d;fill-opacity:0.4;" x="247.702144" xlink:href="#C3_0_f0ba327f83" y="39.801249"/>
    </g>
    <g clip-path="url(#p4f688df016)">
     <use style="fill:#61488d;fill-opacity:0.4;" x="240.376933" xlink:href="#C3_0_f0ba327f83" y="122.644077"/>
    </g>
    <g clip-path="url(#p4f688df016)">
     <use style="fill:#61488d;fill-opacity:0.4;" x="254.536449" xlink:href="#C3_0_f0ba327f83" y="89.802785"/>
    </g>
    <g clip-path="url(#p4f688df016)">
     <use style="fill:#61488d;fill-opacity:0.4;" x="256.999463" xlink:href="#C3_0_f0ba327f83" y="138.748227"/>
    </g>
    <g clip-path="url(#p4f688df016)">
     <use style="fill:#61488d;fill-opacity:0.4;" x="240.383721" xlink:href="#C3_0_f0ba327f83" y="150.018187"/>
    </g>
    <g clip-path="url(#p4f688df016)">
     <use style="fill:#61488d;fill-opacity:0.4;" x="265.794139" xlink:href="#C3_0_f0ba327f83" y="154.648774"/>
    </g>
    <g clip-path="url(#p4f688df016)">
     <use style="fill:#61488d;fill-opacity:0.4;" x="260.070782" xlink:href="#C3_0_f0ba327f83" y="201.987156"/>
    </g>
    <g clip-path="url(#p4f688df016)">
     <use style="fill:#61488d;fill-opacity:0.4;" x="250.703784" xlink:href="#C3_0_f0ba327f83" y="193.640955"/>
    </g>
    <g clip-path="url(#p4f688df016)">
     <use style="fill:#61488d;fill-opacity:0.4;" x="241.070201" xlink:href="#C3_0_f0ba327f83" y="122.780754"/>
    </g>
    <g clip-path="url(#p4f688df016)">
     <use style="fill:#61488d;fill-opacity:0.4;" x="237.540706" xlink:href="#C3_0_f0ba327f83" y="176.543376"/>
    </g>
    <g clip-path="url(#p4f688df016)">
     <use style="fill:#61488d;fill-opacity:0.4;" x="243.765118" xlink:href="#C3_0_f0ba327f83" y="150.448537"/>
    </g>
    <g clip-path="url(#p4f688df016)">
     <use style="fill:#61488d;fill-opacity:0.4;" x="252.954729" xlink:href="#C3_0_f0ba327f83" y="87.462285"/>
    </g>
    <g clip-path="url(#p4f688df016)">
     <use style="fill:#61488d;fill-opacity:0.4;" x="263.757869" xlink:href="#C3_0_f0ba327f83" y="163.36367"/>
    </g>
    <g clip-path="url(#p4f688df016)">
     <use style="fill:#61488d;fill-opacity:0.4;" x="243.167979" xlink:href="#C3_0_f0ba327f83" y="162.655755"/>
    </g>
   </g>
   <g id="PathCollection_5">
    <defs>
     <path d="M 0 2.5 
C 0.663008 2.5 1.29895 2.236584 1.767767 1.767767 
C 2.236584 1.29895 2.5 0.663008 2.5 0 
C 2.5 -0.663008 2.236584 -1.29895 1.767767 -1.767767 
C 1.29895 -2.236584 0.663008 -2.5 0 -2.5 
C -0.663008 -2.5 -1.29895 -2.236584 -1.767767 -1.767767 
C -2.236584 -1.29895 -2.5 -0.663008 -2.5 0 
C -2.5 0.663008 -2.236584 1.29895 -1.767767 1.767767 
C -1.29895 2.236584 -0.663008 2.5 0 2.5 
z
" id="C4_0_607a7f6deb"/>
    </defs>
    <g clip-path="url(#p4f688df016)">
     <use style="fill:#c9661e;fill-opacity:0.4;" x="334.105465" xlink:href="#C4_0_607a7f6deb" y="260.204775"/>
    </g>
    <g clip-path="url(#p4f688df016)">
     <use style="fill:#c9661e;fill-opacity:0.4;" x="345.076539" xlink:href="#C4_0_607a7f6deb" y="152.259405"/>
    </g>
    <g clip-path="url(#p4f688df016)">
     <use style="fill:#c9661e;fill-opacity:0.4;" x="337.091046" xlink:href="#C4_0_607a7f6deb" y="80.803185"/>
    </g>
    <g clip-path="url(#p4f688df016)">
     <use style="fill:#c9661e;fill-opacity:0.4;" x="329.003479" xlink:href="#C4_0_607a7f6deb" y="117.501281"/>
    </g>
    <g clip-path="url(#p4f688df016)">
     <use style="fill:#c9661e;fill-opacity:0.4;" x="336.552611" xlink:href="#C4_0_607a7f6deb" y="151.960425"/>
    </g>
    <g clip-path="url(#p4f688df016)">
     <use style="fill:#c9661e;fill-opacity:0.4;" x="336.940113" xlink:href="#C4_0_607a7f6deb" y="117.33084"/>
    </g>
    <g clip-path="url(#p4f688df016)">
     <use style="fill:#c9661e;fill-opacity:0.4;" x="337.373157" xlink:href="#C4_0_607a7f6deb" y="109.438447"/>
    </g>
    <g clip-path="url(#p4f688df016)">
     <use style="fill:#c9661e;fill-opacity:0.4;" x="321.684245" xlink:href="#C4_0_607a7f6deb" y="109.21761"/>
    </g>
    <g clip-path="url(#p4f688df016)">
     <use style="fill:#c9661e;fill-opacity:0.4;" x="329.763923" xlink:href="#C4_0_607a7f6deb" y="163.067985"/>
    </g>
    <g clip-path="url(#p4f688df016)">
     <use style="fill:#c9661e;fill-opacity:0.4;" x="337.049348" xlink:href="#C4_0_607a7f6deb" y="169.491525"/>
    </g>
    <g clip-path="url(#p4f688df016)">
     <use style="fill:#c9661e;fill-opacity:0.4;" x="329.129475" xlink:href="#C4_0_607a7f6deb" y="29.197425"/>
    </g>
    <g clip-path="url(#p4f688df016)">
     <use style="fill:#c9661e;fill-opacity:0.4;" x="330.19225" xlink:href="#C4_0_607a7f6deb" y="275.150377"/>
    </g>
    <g clip-path="url(#p4f688df016)">
     <use style="fill:#c9661e;fill-opacity:0.4;" x="333.977311" xlink:href="#C4_0_607a7f6deb" y="156.830175"/>
    </g>
    <g clip-path="url(#p4f688df016)">
     <use style="fill:#c9661e;fill-opacity:0.4;" x="325.685069" xlink:href="#C4_0_607a7f6deb" y="78.927765"/>
    </g>
    <g clip-path="url(#p4f688df016)">
     <use style="fill:#c9661e;fill-opacity:0.4;" x="332.201142" xlink:href="#C4_0_607a7f6deb" y="210.25926"/>
    </g>
    <g clip-path="url(#p4f688df016)">
     <use style="fill:#c9661e;fill-opacity:0.4;" x="318.620451" xlink:href="#C4_0_607a7f6deb" y="160.756552"/>
    </g>
    <g clip-path="url(#p4f688df016)">
     <use style="fill:#c9661e;fill-opacity:0.4;" x="323.422893" xlink:href="#C4_0_607a7f6deb" y="190.379355"/>
    </g>
   </g>
   <g id="PathCollection_6">
    <defs>
     <path d="M 0 2.5 
C 0.663008 2.5 1.29895 2.236584 1.767767 1.767767 
C 2.236584 1.29895 2.5 0.663008 2.5 0 
C 2.5 -0.663008 2.236584 -1.29895 1.767767 -1.767767 
C 1.29895 -2.236584 0.663008 -2.5 0 -2.5 
C -0.663008 -2.5 -1.29895 -2.236584 -1.767767 -1.767767 
C -2.236584 -1.29895 -2.5 -0.663008 -2.5 0 
C -2.5 0.663008 -2.236584 1.29895 -1.767767 1.767767 
C -1.29895 2.236584 -0.663008 2.5 0 2.5 
z
" id="C5_0_927ffc07bc"/>
    </defs>
    <g clip-path="url(#p4f688df016)">
     <use style="fill:#61488d;fill-opacity:0.4;" x="370.120791" xlink:href="#C5_0_927ffc07bc" y="137.147325"/>
    </g>
    <g clip-path="url(#p4f688df016)">
     <use style="fill:#61488d;fill-opacity:0.4;" x="365.5683" xlink:href="#C5_0_927ffc07bc" y="183.964875"/>
    </g>
    <g clip-path="url(#p4f688df016)">
     <use style="fill:#61488d;fill-opacity:0.4;" x="372.71667" xlink:href="#C5_0_927ffc07bc" y="103.5652"/>
    </g>
    <g clip-path="url(#p4f688df016)">
     <use style="fill:#61488d;fill-opacity:0.4;" x="365.664314" xlink:href="#C5_0_927ffc07bc" y="232.367925"/>
    </g>
    <g clip-path="url(#p4f688df016)">
     <use style="fill:#61488d;fill-opacity:0.4;" x="365.107827" xlink:href="#C5_0_927ffc07bc" y="188.996881"/>
    </g>
    <g clip-path="url(#p4f688df016)">
     <use style="fill:#61488d;fill-opacity:0.4;" x="362.007243" xlink:href="#C5_0_927ffc07bc" y="114.245704"/>
    </g>
    <g clip-path="url(#p4f688df016)">
     <use style="fill:#61488d;fill-opacity:0.4;" x="360.156606" xlink:href="#C5_0_927ffc07bc" y="109.978197"/>
    </g>
    <g clip-path="url(#p4f688df016)">
     <use style="fill:#61488d;fill-opacity:0.4;" x="348.470255" xlink:href="#C5_0_927ffc07bc" y="97.400281"/>
    </g>
    <g clip-path="url(#p4f688df016)">
     <use style="fill:#61488d;fill-opacity:0.4;" x="354.476145" xlink:href="#C5_0_927ffc07bc" y="100.24924"/>
    </g>
    <g clip-path="url(#p4f688df016)">
     <use style="fill:#61488d;fill-opacity:0.4;" x="364.373618" xlink:href="#C5_0_927ffc07bc" y="156.417945"/>
    </g>
    <g clip-path="url(#p4f688df016)">
     <use style="fill:#61488d;fill-opacity:0.4;" x="349.264994" xlink:href="#C5_0_927ffc07bc" y="132.966135"/>
    </g>
    <g clip-path="url(#p4f688df016)">
     <use style="fill:#61488d;fill-opacity:0.4;" x="364.935151" xlink:href="#C5_0_927ffc07bc" y="100.630995"/>
    </g>
    <g clip-path="url(#p4f688df016)">
     <use style="fill:#61488d;fill-opacity:0.4;" x="358.718481" xlink:href="#C5_0_927ffc07bc" y="63.742072"/>
    </g>
    <g clip-path="url(#p4f688df016)">
     <use style="fill:#61488d;fill-opacity:0.4;" x="367.39817" xlink:href="#C5_0_927ffc07bc" y="103.74434"/>
    </g>
    <g clip-path="url(#p4f688df016)">
     <use style="fill:#61488d;fill-opacity:0.4;" x="373.39225" xlink:href="#C5_0_927ffc07bc" y="179.397502"/>
    </g>
    <g clip-path="url(#p4f688df016)">
     <use style="fill:#61488d;fill-opacity:0.4;" x="366.027748" xlink:href="#C5_0_927ffc07bc" y="154.335957"/>
    </g>
    <g clip-path="url(#p4f688df016)">
     <use style="fill:#61488d;fill-opacity:0.4;" x="368.389084" xlink:href="#C5_0_927ffc07bc" y="211.984057"/>
    </g>
   </g>
   <g id="LineCollection_1">
    <path clip-path="url(#p4f688df016)" d="M 112.011781 194.747948 
L 112.011781 137.590431 
" style="fill:none;stroke:#e66101;stroke-width:3;"/>
    <path clip-path="url(#p4f688df016)" d="M 223.611781 188.748411 
L 223.611781 139.71353 
" style="fill:none;stroke:#e66101;stroke-width:3;"/>
    <path clip-path="url(#p4f688df016)" d="M 335.211781 179.050255 
L 335.211781 117.151069 
" style="fill:none;stroke:#e66101;stroke-width:3;"/>
   </g>
   <g id="LineCollection_2">
    <path clip-path="url(#p4f688df016)" d="M 134.331781 137.475801 
L 134.331781 87.900865 
" style="fill:none;stroke:#5e3c99;stroke-width:3;"/>
    <path clip-path="url(#p4f688df016)" d="M 245.931781 157.278906 
L 245.931781 112.606571 
" style="fill:none;stroke:#5e3c99;stroke-width:3;"/>
    <path clip-path="url(#p4f688df016)" d="M 357.531781 164.516599 
L 357.531781 116.244641 
" style="fill:none;stroke:#5e3c99;stroke-width:3;"/>
   </g>
   <g id="line2d_9">
    <path clip-path="url(#p4f688df016)" d="M 112.011781 166.486504 
L 223.611781 165.02153 
L 335.211781 145.861651 
" style="fill:none;stroke:#e66101;stroke-linecap:round;stroke-width:3;"/>
    <defs>
     <path d="M 0 5 
C 1.326016 5 2.597899 4.473168 3.535534 3.535534 
C 4.473168 2.597899 5 1.326016 5 0 
C 5 -1.326016 4.473168 -2.597899 3.535534 -3.535534 
C 2.597899 -4.473168 1.326016 -5 0 -5 
C -1.326016 -5 -2.597899 -4.473168 -3.535534 -3.535534 
C -4.473168 -2.597899 -5 -1.326016 -5 0 
C -5 1.326016 -4.473168 2.597899 -3.535534 3.535534 
C -2.597899 4.473168 -1.326016 5 0 5 
z
" id="m632ed9cecc" style="stroke:#e66101;"/>
    </defs>
    <g clip-path="url(#p4f688df016)">
     <use style="fill:#e66101;stroke:#e66101;" x="112.011781" xlink:href="#m632ed9cecc" y="166.486504"/>
     <use style="fill:#e66101;stroke:#e66101;" x="223.611781" xlink:href="#m632ed9cecc" y="165.02153"/>
     <use style="fill:#e66101;stroke:#e66101;" x="335.211781" xlink:href="#m632ed9cecc" y="145.861651"/>
    </g>
   </g>
   <g id="line2d_10">
    <path clip-path="url(#p4f688df016)" d="M 134.331781 113.852932 
L 245.931781 136.066571 
L 357.531781 137.9228 
" style="fill:none;stroke:#5e3c99;stroke-linecap:round;stroke-width:3;"/>
    <defs>
     <path d="M 0 5 
C 1.326016 5 2.597899 4.473168 3.535534 3.535534 
C 4.473168 2.597899 5 1.326016 5 0 
C 5 -1.326016 4.473168 -2.597899 3.535534 -3.535534 
C 2.597899 -4.473168 1.326016 -5 0 -5 
C -1.326016 -5 -2.597899 -4.473168 -3.535534 -3.535534 
C -4.473168 -2.597899 -5 -1.326016 -5 0 
C -5 1.326016 -4.473168 2.597899 -3.535534 3.535534 
C -2.597899 4.473168 -1.326016 5 0 5 
z
" id="m62f0508b7d" style="stroke:#5e3c99;"/>
    </defs>
    <g clip-path="url(#p4f688df016)">
     <use style="fill:#5e3c99;stroke:#5e3c99;" x="134.331781" xlink:href="#m62f0508b7d" y="113.852932"/>
     <use style="fill:#5e3c99;stroke:#5e3c99;" x="245.931781" xlink:href="#m62f0508b7d" y="136.066571"/>
     <use style="fill:#5e3c99;stroke:#5e3c99;" x="357.531781" xlink:href="#m62f0508b7d" y="137.9228"/>
    </g>
   </g>
   <g id="line2d_11">
    <path clip-path="url(#p4f688df016)" d="M 89.691781 140.816625 
L 379.851781 140.816625 
" style="fill:none;stroke:#000000;stroke-dasharray:9.25,4;stroke-dashoffset:0;stroke-width:2.5;"/>
   </g>
   <g id="line2d_12">
    <path clip-path="url(#p4f688df016)" d="M 112.011781 166.486504 
L 223.611781 165.02153 
L 335.211781 145.861651 
" style="fill:none;stroke:#e66101;stroke-linecap:round;stroke-width:3;"/>
   </g>
   <g id="line2d_13">
    <path clip-path="url(#p4f688df016)" d="M 134.331781 113.852932 
L 245.931781 136.066571 
L 357.531781 137.9228 
" style="fill:none;stroke:#5e3c99;stroke-linecap:round;stroke-width:3;"/>
   </g>
   <g id="patch_5">
    <path d="M 67.371781 249.536625 
L 67.371781 32.096625 
" style="fill:none;stroke:#262626;stroke-linecap:square;stroke-linejoin:miter;stroke-width:2.5;"/>
   </g>
   <g id="patch_6">
    <path d="M 67.371781 249.536625 
L 402.171781 249.536625 
" style="fill:none;stroke:#262626;stroke-linecap:square;stroke-linejoin:miter;stroke-width:2.5;"/>
   </g>
   <g id="text_11">
    <!-- Attraction -->
    <defs>
     <path d="M -0.140625 0 
L 27.34375 71.578125 
L 37.546875 71.578125 
L 66.84375 0 
L 56.0625 0 
L 47.703125 21.6875 
L 17.78125 21.6875 
L 9.90625 0 
z
M 20.515625 29.390625 
L 44.78125 29.390625 
L 37.3125 49.21875 
Q 33.890625 58.25 32.234375 64.0625 
Q 30.859375 57.171875 28.375 50.390625 
z
" id="ArialMT-65"/>
    </defs>
    <g style="fill:#262626;" transform="translate(403.180063 127.06875)rotate(-90)scale(0.17 -0.17)">
     <use xlink:href="#ArialMT-65"/>
     <use x="66.699219" xlink:href="#ArialMT-116"/>
     <use x="94.482422" xlink:href="#ArialMT-116"/>
     <use x="122.265625" xlink:href="#ArialMT-114"/>
     <use x="155.566406" xlink:href="#ArialMT-97"/>
     <use x="211.181641" xlink:href="#ArialMT-99"/>
     <use x="261.181641" xlink:href="#ArialMT-116"/>
     <use x="288.964844" xlink:href="#ArialMT-105"/>
     <use x="311.181641" xlink:href="#ArialMT-111"/>
     <use x="366.796875" xlink:href="#ArialMT-110"/>
    </g>
   </g>
   <g id="text_12">
    <!-- Repulsion -->
    <defs>
     <path d="M 7.859375 0 
L 7.859375 71.578125 
L 39.59375 71.578125 
Q 49.171875 71.578125 54.140625 69.640625 
Q 59.125 67.71875 62.109375 62.828125 
Q 65.09375 57.953125 65.09375 52.046875 
Q 65.09375 44.4375 60.15625 39.203125 
Q 55.21875 33.984375 44.921875 32.5625 
Q 48.6875 30.765625 50.640625 29 
Q 54.78125 25.203125 58.5 19.484375 
L 70.953125 0 
L 59.03125 0 
L 49.5625 14.890625 
Q 45.40625 21.34375 42.71875 24.75 
Q 40.046875 28.171875 37.921875 29.53125 
Q 35.796875 30.90625 33.59375 31.453125 
Q 31.984375 31.78125 28.328125 31.78125 
L 17.328125 31.78125 
L 17.328125 0 
z
M 17.328125 39.984375 
L 37.703125 39.984375 
Q 44.1875 39.984375 47.84375 41.328125 
Q 51.515625 42.671875 53.421875 45.625 
Q 55.328125 48.578125 55.328125 52.046875 
Q 55.328125 57.125 51.640625 60.390625 
Q 47.953125 63.671875 39.984375 63.671875 
L 17.328125 63.671875 
z
" id="ArialMT-82"/>
     <path d="M 6.59375 -19.875 
L 6.59375 51.859375 
L 14.59375 51.859375 
L 14.59375 45.125 
Q 17.4375 49.078125 21 51.046875 
Q 24.5625 53.03125 29.640625 53.03125 
Q 36.28125 53.03125 41.359375 49.609375 
Q 46.4375 46.1875 49.015625 39.953125 
Q 51.609375 33.734375 51.609375 26.3125 
Q 51.609375 18.359375 48.75 11.984375 
Q 45.90625 5.609375 40.453125 2.21875 
Q 35.015625 -1.171875 29 -1.171875 
Q 24.609375 -1.171875 21.109375 0.6875 
Q 17.625 2.546875 15.375 5.375 
L 15.375 -19.875 
z
M 14.546875 25.640625 
Q 14.546875 15.625 18.59375 10.84375 
Q 22.65625 6.0625 28.421875 6.0625 
Q 34.28125 6.0625 38.453125 11.015625 
Q 42.625 15.96875 42.625 26.375 
Q 42.625 36.28125 38.546875 41.203125 
Q 34.46875 46.140625 28.8125 46.140625 
Q 23.1875 46.140625 18.859375 40.890625 
Q 14.546875 35.640625 14.546875 25.640625 
z
" id="ArialMT-112"/>
     <path d="M 40.578125 0 
L 40.578125 7.625 
Q 34.515625 -1.171875 24.125 -1.171875 
Q 19.53125 -1.171875 15.546875 0.578125 
Q 11.578125 2.34375 9.640625 5 
Q 7.71875 7.671875 6.9375 11.53125 
Q 6.390625 14.109375 6.390625 19.734375 
L 6.390625 51.859375 
L 15.1875 51.859375 
L 15.1875 23.09375 
Q 15.1875 16.21875 15.71875 13.8125 
Q 16.546875 10.359375 19.234375 8.375 
Q 21.921875 6.390625 25.875 6.390625 
Q 29.828125 6.390625 33.296875 8.421875 
Q 36.765625 10.453125 38.203125 13.9375 
Q 39.65625 17.4375 39.65625 24.078125 
L 39.65625 51.859375 
L 48.4375 51.859375 
L 48.4375 0 
z
" id="ArialMT-117"/>
     <path d="M 6.390625 0 
L 6.390625 71.578125 
L 15.1875 71.578125 
L 15.1875 0 
z
" id="ArialMT-108"/>
    </defs>
    <g style="fill:#262626;" transform="translate(403.180063 223.273875)rotate(-90)scale(0.17 -0.17)">
     <use xlink:href="#ArialMT-82"/>
     <use x="72.216797" xlink:href="#ArialMT-101"/>
     <use x="127.832031" xlink:href="#ArialMT-112"/>
     <use x="183.447266" xlink:href="#ArialMT-117"/>
     <use x="239.0625" xlink:href="#ArialMT-108"/>
     <use x="261.279297" xlink:href="#ArialMT-115"/>
     <use x="311.279297" xlink:href="#ArialMT-105"/>
     <use x="333.496094" xlink:href="#ArialMT-111"/>
     <use x="389.111328" xlink:href="#ArialMT-110"/>
    </g>
   </g>
   <g id="text_13">
    <!-- memory bias -->
    <defs>
     <path d="M 6.59375 0 
L 6.59375 51.859375 
L 14.453125 51.859375 
L 14.453125 44.578125 
Q 16.890625 48.390625 20.9375 50.703125 
Q 25 53.03125 30.171875 53.03125 
Q 35.9375 53.03125 39.625 50.640625 
Q 43.3125 48.25 44.828125 43.953125 
Q 50.984375 53.03125 60.84375 53.03125 
Q 68.5625 53.03125 72.703125 48.75 
Q 76.859375 44.484375 76.859375 35.59375 
L 76.859375 0 
L 68.109375 0 
L 68.109375 32.671875 
Q 68.109375 37.9375 67.25 40.25 
Q 66.40625 42.578125 64.15625 43.984375 
Q 61.921875 45.40625 58.890625 45.40625 
Q 53.421875 45.40625 49.796875 41.765625 
Q 46.1875 38.140625 46.1875 30.125 
L 46.1875 0 
L 37.40625 0 
L 37.40625 33.6875 
Q 37.40625 39.546875 35.25 42.46875 
Q 33.109375 45.40625 28.21875 45.40625 
Q 24.515625 45.40625 21.359375 43.453125 
Q 18.21875 41.5 16.796875 37.734375 
Q 15.375 33.984375 15.375 26.90625 
L 15.375 0 
z
" id="ArialMT-109"/>
     <path d="M 6.203125 -19.96875 
L 5.21875 -11.71875 
Q 8.109375 -12.5 10.25 -12.5 
Q 13.1875 -12.5 14.9375 -11.515625 
Q 16.703125 -10.546875 17.828125 -8.796875 
Q 18.65625 -7.46875 20.515625 -2.25 
Q 20.75 -1.515625 21.296875 -0.09375 
L 1.609375 51.859375 
L 11.078125 51.859375 
L 21.875 21.828125 
Q 23.96875 16.109375 25.640625 9.8125 
Q 27.15625 15.875 29.25 21.625 
L 40.328125 51.859375 
L 49.125 51.859375 
L 29.390625 -0.875 
Q 26.21875 -9.421875 24.46875 -12.640625 
Q 22.125 -17 19.09375 -19.015625 
Q 16.0625 -21.046875 11.859375 -21.046875 
Q 9.328125 -21.046875 6.203125 -19.96875 
z
" id="ArialMT-121"/>
     <path d="M 14.703125 0 
L 6.546875 0 
L 6.546875 71.578125 
L 15.328125 71.578125 
L 15.328125 46.046875 
Q 20.90625 53.03125 29.546875 53.03125 
Q 34.328125 53.03125 38.59375 51.09375 
Q 42.875 49.171875 45.625 45.671875 
Q 48.390625 42.1875 49.953125 37.25 
Q 51.515625 32.328125 51.515625 26.703125 
Q 51.515625 13.375 44.921875 6.09375 
Q 38.328125 -1.171875 29.109375 -1.171875 
Q 19.921875 -1.171875 14.703125 6.5 
z
M 14.59375 26.3125 
Q 14.59375 17 17.140625 12.84375 
Q 21.296875 6.0625 28.375 6.0625 
Q 34.125 6.0625 38.328125 11.0625 
Q 42.53125 16.0625 42.53125 25.984375 
Q 42.53125 36.140625 38.5 40.96875 
Q 34.46875 45.796875 28.765625 45.796875 
Q 23 45.796875 18.796875 40.796875 
Q 14.59375 35.796875 14.59375 26.3125 
z
" id="ArialMT-98"/>
    </defs>
    <g style="fill:#262626;" transform="translate(159.224469 26.096625)scale(0.264 -0.264)">
     <use xlink:href="#ArialMT-109"/>
     <use x="83.300781" xlink:href="#ArialMT-101"/>
     <use x="138.916016" xlink:href="#ArialMT-109"/>
     <use x="222.216797" xlink:href="#ArialMT-111"/>
     <use x="277.832031" xlink:href="#ArialMT-114"/>
     <use x="311.132812" xlink:href="#ArialMT-121"/>
     <use x="361.132812" xlink:href="#ArialMT-32"/>
     <use x="388.916016" xlink:href="#ArialMT-98"/>
     <use x="444.53125" xlink:href="#ArialMT-105"/>
     <use x="466.748047" xlink:href="#ArialMT-97"/>
     <use x="522.363281" xlink:href="#ArialMT-115"/>
    </g>
   </g>
   <g id="legend_1">
    <g id="text_14">
     <!-- radius 1 -->
     <g style="fill:#e66101;" transform="translate(126.571781 209.324125)scale(0.16 -0.16)">
      <use xlink:href="#ArialMT-114"/>
      <use x="33.300781" xlink:href="#ArialMT-97"/>
      <use x="88.916016" xlink:href="#ArialMT-100"/>
      <use x="144.53125" xlink:href="#ArialMT-105"/>
      <use x="166.748047" xlink:href="#ArialMT-117"/>
      <use x="222.363281" xlink:href="#ArialMT-115"/>
      <use x="272.363281" xlink:href="#ArialMT-32"/>
      <use x="300.146484" xlink:href="#ArialMT-49"/>
     </g>
    </g>
    <g id="text_15">
     <!-- radius 3 -->
     <defs>
      <path d="M 4.203125 18.890625 
L 12.984375 20.0625 
Q 14.5 12.59375 18.140625 9.296875 
Q 21.78125 6 27 6 
Q 33.203125 6 37.46875 10.296875 
Q 41.75 14.59375 41.75 20.953125 
Q 41.75 27 37.796875 30.921875 
Q 33.84375 34.859375 27.734375 34.859375 
Q 25.25 34.859375 21.53125 33.890625 
L 22.515625 41.609375 
Q 23.390625 41.5 23.921875 41.5 
Q 29.546875 41.5 34.03125 44.421875 
Q 38.53125 47.359375 38.53125 53.46875 
Q 38.53125 58.296875 35.25 61.46875 
Q 31.984375 64.65625 26.8125 64.65625 
Q 21.6875 64.65625 18.265625 61.421875 
Q 14.84375 58.203125 13.875 51.765625 
L 5.078125 53.328125 
Q 6.6875 62.15625 12.390625 67.015625 
Q 18.109375 71.875 26.609375 71.875 
Q 32.46875 71.875 37.390625 69.359375 
Q 42.328125 66.84375 44.9375 62.5 
Q 47.5625 58.15625 47.5625 53.265625 
Q 47.5625 48.640625 45.0625 44.828125 
Q 42.578125 41.015625 37.703125 38.765625 
Q 44.046875 37.3125 47.5625 32.6875 
Q 51.078125 28.078125 51.078125 21.140625 
Q 51.078125 11.765625 44.234375 5.25 
Q 37.40625 -1.265625 26.953125 -1.265625 
Q 17.53125 -1.265625 11.296875 4.34375 
Q 5.078125 9.96875 4.203125 18.890625 
z
" id="ArialMT-51"/>
     </defs>
     <g style="fill:#5e3c99;" transform="translate(126.571781 231.956625)scale(0.16 -0.16)">
      <use xlink:href="#ArialMT-114"/>
      <use x="33.300781" xlink:href="#ArialMT-97"/>
      <use x="88.916016" xlink:href="#ArialMT-100"/>
      <use x="144.53125" xlink:href="#ArialMT-105"/>
      <use x="166.748047" xlink:href="#ArialMT-117"/>
      <use x="222.363281" xlink:href="#ArialMT-115"/>
      <use x="272.363281" xlink:href="#ArialMT-32"/>
      <use x="300.146484" xlink:href="#ArialMT-51"/>
     </g>
    </g>
   </g>
  </g>
 </g>
 <defs>
  <clipPath id="p4f688df016">
   <rect height="217.44" width="334.8" x="67.371781" y="32.096625"/>
  </clipPath>
 </defs>
</svg>
