<?xml version="1.0" encoding="utf-8" standalone="no"?>
<!DOCTYPE svg PUBLIC "-//W3C//DTD SVG 1.1//EN"
  "http://www.w3.org/Graphics/SVG/1.1/DTD/svg11.dtd">
<!-- Created with matplotlib (https://matplotlib.org/) -->
<svg height="365.808281pt" version="1.1" viewBox="0 0 468.767295 365.808281" width="468.767295pt" xmlns="http://www.w3.org/2000/svg" xmlns:xlink="http://www.w3.org/1999/xlink">
 <defs>
  <style type="text/css">
*{stroke-linecap:butt;stroke-linejoin:round;}
  </style>
 </defs>
 <g id="figure_1">
  <g id="patch_1">
   <path d="M 0 365.808281 
L 468.767295 365.808281 
L 468.767295 0 
L 0 0 
z
" style="fill:none;"/>
  </g>
  <g id="axes_1">
   <g id="patch_2">
    <path d="M 73.11275 303.896625 
L 453.567295 303.896625 
L 453.567295 32.096625 
L 73.11275 32.096625 
z
" style="fill:#ffffff;"/>
   </g>
   <g id="matplotlib.axis_1">
    <g id="xtick_1">
     <g id="line2d_1">
      <defs>
       <path d="M 0 0 
L 0 -12 
" id="mbc2a578f20" style="stroke:#262626;stroke-width:2.5;"/>
      </defs>
      <g>
       <use style="fill:#262626;stroke:#262626;stroke-width:2.5;" x="90.406138" xlink:href="#mbc2a578f20" y="303.896625"/>
      </g>
     </g>
     <g id="text_1">
      <!-- −30 -->
      <defs>
       <path d="M 52.828125 31.203125 
L 5.5625 31.203125 
L 5.5625 39.40625 
L 52.828125 39.40625 
z
" id="ArialMT-8722"/>
       <path d="M 4.203125 18.890625 
L 12.984375 20.0625 
Q 14.5 12.59375 18.140625 9.296875 
Q 21.78125 6 27 6 
Q 33.203125 6 37.46875 10.296875 
Q 41.75 14.59375 41.75 20.953125 
Q 41.75 27 37.796875 30.921875 
Q 33.84375 34.859375 27.734375 34.859375 
Q 25.25 34.859375 21.53125 33.890625 
L 22.515625 41.609375 
Q 23.390625 41.5 23.921875 41.5 
Q 29.546875 41.5 34.03125 44.421875 
Q 38.53125 47.359375 38.53125 53.46875 
Q 38.53125 58.296875 35.25 61.46875 
Q 31.984375 64.65625 26.8125 64.65625 
Q 21.6875 64.65625 18.265625 61.421875 
Q 14.84375 58.203125 13.875 51.765625 
L 5.078125 53.328125 
Q 6.6875 62.15625 12.390625 67.015625 
Q 18.109375 71.875 26.609375 71.875 
Q 32.46875 71.875 37.390625 69.359375 
Q 42.328125 66.84375 44.9375 62.5 
Q 47.5625 58.15625 47.5625 53.265625 
Q 47.5625 48.640625 45.0625 44.828125 
Q 42.578125 41.015625 37.703125 38.765625 
Q 44.046875 37.3125 47.5625 32.6875 
Q 51.078125 28.078125 51.078125 21.140625 
Q 51.078125 11.765625 44.234375 5.25 
Q 37.40625 -1.265625 26.953125 -1.265625 
Q 17.53125 -1.265625 11.296875 4.34375 
Q 5.078125 9.96875 4.203125 18.890625 
z
" id="ArialMT-51"/>
       <path d="M 4.15625 35.296875 
Q 4.15625 48 6.765625 55.734375 
Q 9.375 63.484375 14.515625 67.671875 
Q 19.671875 71.875 27.484375 71.875 
Q 33.25 71.875 37.59375 69.546875 
Q 41.9375 67.234375 44.765625 62.859375 
Q 47.609375 58.5 49.21875 52.21875 
Q 50.828125 45.953125 50.828125 35.296875 
Q 50.828125 22.703125 48.234375 14.96875 
Q 45.65625 7.234375 40.5 3 
Q 35.359375 -1.21875 27.484375 -1.21875 
Q 17.140625 -1.21875 11.234375 6.203125 
Q 4.15625 15.140625 4.15625 35.296875 
z
M 13.1875 35.296875 
Q 13.1875 17.671875 17.3125 11.828125 
Q 21.4375 6 27.484375 6 
Q 33.546875 6 37.671875 11.859375 
Q 41.796875 17.71875 41.796875 35.296875 
Q 41.796875 52.984375 37.671875 58.78125 
Q 33.546875 64.59375 27.390625 64.59375 
Q 21.34375 64.59375 17.71875 59.46875 
Q 13.1875 52.9375 13.1875 35.296875 
z
" id="ArialMT-48"/>
      </defs>
      <g style="fill:#262626;" transform="translate(69.881513 324.718531)scale(0.242 -0.242)">
       <use xlink:href="#ArialMT-8722"/>
       <use x="58.398438" xlink:href="#ArialMT-51"/>
       <use x="114.013672" xlink:href="#ArialMT-48"/>
      </g>
     </g>
    </g>
    <g id="xtick_2">
     <g id="line2d_2">
      <g>
       <use style="fill:#262626;stroke:#262626;stroke-width:2.5;" x="176.873081" xlink:href="#mbc2a578f20" y="303.896625"/>
      </g>
     </g>
     <g id="text_2">
      <!-- −15 -->
      <defs>
       <path d="M 37.25 0 
L 28.46875 0 
L 28.46875 56 
Q 25.296875 52.984375 20.140625 49.953125 
Q 14.984375 46.921875 10.890625 45.40625 
L 10.890625 53.90625 
Q 18.265625 57.375 23.78125 62.296875 
Q 29.296875 67.234375 31.59375 71.875 
L 37.25 71.875 
z
" id="ArialMT-49"/>
       <path d="M 4.15625 18.75 
L 13.375 19.53125 
Q 14.40625 12.796875 18.140625 9.390625 
Q 21.875 6 27.15625 6 
Q 33.5 6 37.890625 10.78125 
Q 42.28125 15.578125 42.28125 23.484375 
Q 42.28125 31 38.0625 35.34375 
Q 33.84375 39.703125 27 39.703125 
Q 22.75 39.703125 19.328125 37.765625 
Q 15.921875 35.84375 13.96875 32.765625 
L 5.71875 33.84375 
L 12.640625 70.609375 
L 48.25 70.609375 
L 48.25 62.203125 
L 19.671875 62.203125 
L 15.828125 42.96875 
Q 22.265625 47.46875 29.34375 47.46875 
Q 38.71875 47.46875 45.15625 40.96875 
Q 51.609375 34.46875 51.609375 24.265625 
Q 51.609375 14.546875 45.953125 7.46875 
Q 39.0625 -1.21875 27.15625 -1.21875 
Q 17.390625 -1.21875 11.203125 4.25 
Q 5.03125 9.71875 4.15625 18.75 
z
" id="ArialMT-53"/>
      </defs>
      <g style="fill:#262626;" transform="translate(156.348456 324.718531)scale(0.242 -0.242)">
       <use xlink:href="#ArialMT-8722"/>
       <use x="58.398438" xlink:href="#ArialMT-49"/>
       <use x="114.013672" xlink:href="#ArialMT-53"/>
      </g>
     </g>
    </g>
    <g id="xtick_3">
     <g id="line2d_3">
      <g>
       <use style="fill:#262626;stroke:#262626;stroke-width:2.5;" x="263.340023" xlink:href="#mbc2a578f20" y="303.896625"/>
      </g>
     </g>
     <g id="text_3">
      <!-- 0 -->
      <g style="fill:#262626;" transform="translate(256.611288 324.718531)scale(0.242 -0.242)">
       <use xlink:href="#ArialMT-48"/>
      </g>
     </g>
    </g>
    <g id="xtick_4">
     <g id="line2d_4">
      <g>
       <use style="fill:#262626;stroke:#262626;stroke-width:2.5;" x="349.806965" xlink:href="#mbc2a578f20" y="303.896625"/>
      </g>
     </g>
     <g id="text_4">
      <!-- 15 -->
      <g style="fill:#262626;" transform="translate(336.349496 324.718531)scale(0.242 -0.242)">
       <use xlink:href="#ArialMT-49"/>
       <use x="55.615234" xlink:href="#ArialMT-53"/>
      </g>
     </g>
    </g>
    <g id="xtick_5">
     <g id="line2d_5">
      <g>
       <use style="fill:#262626;stroke:#262626;stroke-width:2.5;" x="436.273907" xlink:href="#mbc2a578f20" y="303.896625"/>
      </g>
     </g>
     <g id="text_5">
      <!-- 30 -->
      <g style="fill:#262626;" transform="translate(422.816438 324.718531)scale(0.242 -0.242)">
       <use xlink:href="#ArialMT-51"/>
       <use x="55.615234" xlink:href="#ArialMT-48"/>
      </g>
     </g>
    </g>
    <g id="text_6">
     <!-- distance to target ($^\circ$) -->
     <defs>
      <path d="M 40.234375 0 
L 40.234375 6.546875 
Q 35.296875 -1.171875 25.734375 -1.171875 
Q 19.53125 -1.171875 14.328125 2.25 
Q 9.125 5.671875 6.265625 11.796875 
Q 3.421875 17.921875 3.421875 25.875 
Q 3.421875 33.640625 6 39.96875 
Q 8.59375 46.296875 13.765625 49.65625 
Q 18.953125 53.03125 25.34375 53.03125 
Q 30.03125 53.03125 33.6875 51.046875 
Q 37.359375 49.078125 39.65625 45.90625 
L 39.65625 71.578125 
L 48.390625 71.578125 
L 48.390625 0 
z
M 12.453125 25.875 
Q 12.453125 15.921875 16.640625 10.984375 
Q 20.84375 6.0625 26.5625 6.0625 
Q 32.328125 6.0625 36.34375 10.765625 
Q 40.375 15.484375 40.375 25.140625 
Q 40.375 35.796875 36.265625 40.765625 
Q 32.171875 45.75 26.171875 45.75 
Q 20.3125 45.75 16.375 40.96875 
Q 12.453125 36.1875 12.453125 25.875 
z
" id="ArialMT-100"/>
      <path d="M 6.640625 61.46875 
L 6.640625 71.578125 
L 15.4375 71.578125 
L 15.4375 61.46875 
z
M 6.640625 0 
L 6.640625 51.859375 
L 15.4375 51.859375 
L 15.4375 0 
z
" id="ArialMT-105"/>
      <path d="M 3.078125 15.484375 
L 11.765625 16.84375 
Q 12.5 11.625 15.84375 8.84375 
Q 19.1875 6.0625 25.203125 6.0625 
Q 31.25 6.0625 34.171875 8.515625 
Q 37.109375 10.984375 37.109375 14.3125 
Q 37.109375 17.28125 34.515625 19 
Q 32.71875 20.171875 25.53125 21.96875 
Q 15.875 24.421875 12.140625 26.203125 
Q 8.40625 27.984375 6.46875 31.125 
Q 4.546875 34.28125 4.546875 38.09375 
Q 4.546875 41.546875 6.125 44.5 
Q 7.71875 47.46875 10.453125 49.421875 
Q 12.5 50.921875 16.03125 51.96875 
Q 19.578125 53.03125 23.640625 53.03125 
Q 29.734375 53.03125 34.34375 51.265625 
Q 38.96875 49.515625 41.15625 46.5 
Q 43.359375 43.5 44.1875 38.484375 
L 35.59375 37.3125 
Q 35.015625 41.3125 32.203125 43.546875 
Q 29.390625 45.796875 24.265625 45.796875 
Q 18.21875 45.796875 15.625 43.796875 
Q 13.03125 41.796875 13.03125 39.109375 
Q 13.03125 37.40625 14.109375 36.03125 
Q 15.1875 34.625 17.484375 33.6875 
Q 18.796875 33.203125 25.25 31.453125 
Q 34.578125 28.953125 38.25 27.359375 
Q 41.9375 25.78125 44.03125 22.75 
Q 46.140625 19.734375 46.140625 15.234375 
Q 46.140625 10.84375 43.578125 6.953125 
Q 41.015625 3.078125 36.171875 0.953125 
Q 31.34375 -1.171875 25.25 -1.171875 
Q 15.140625 -1.171875 9.84375 3.03125 
Q 4.546875 7.234375 3.078125 15.484375 
z
" id="ArialMT-115"/>
      <path d="M 25.78125 7.859375 
L 27.046875 0.09375 
Q 23.34375 -0.6875 20.40625 -0.6875 
Q 15.625 -0.6875 12.984375 0.828125 
Q 10.359375 2.34375 9.28125 4.8125 
Q 8.203125 7.28125 8.203125 15.1875 
L 8.203125 45.015625 
L 1.765625 45.015625 
L 1.765625 51.859375 
L 8.203125 51.859375 
L 8.203125 64.703125 
L 16.9375 69.96875 
L 16.9375 51.859375 
L 25.78125 51.859375 
L 25.78125 45.015625 
L 16.9375 45.015625 
L 16.9375 14.703125 
Q 16.9375 10.9375 17.40625 9.859375 
Q 17.875 8.796875 18.921875 8.15625 
Q 19.96875 7.515625 21.921875 7.515625 
Q 23.390625 7.515625 25.78125 7.859375 
z
" id="ArialMT-116"/>
      <path d="M 40.4375 6.390625 
Q 35.546875 2.25 31.03125 0.53125 
Q 26.515625 -1.171875 21.34375 -1.171875 
Q 12.796875 -1.171875 8.203125 3 
Q 3.609375 7.171875 3.609375 13.671875 
Q 3.609375 17.484375 5.34375 20.625 
Q 7.078125 23.78125 9.890625 25.6875 
Q 12.703125 27.59375 16.21875 28.5625 
Q 18.796875 29.25 24.03125 29.890625 
Q 34.671875 31.15625 39.703125 32.90625 
Q 39.75 34.71875 39.75 35.203125 
Q 39.75 40.578125 37.25 42.78125 
Q 33.890625 45.75 27.25 45.75 
Q 21.046875 45.75 18.09375 43.578125 
Q 15.140625 41.40625 13.71875 35.890625 
L 5.125 37.0625 
Q 6.296875 42.578125 8.984375 45.96875 
Q 11.671875 49.359375 16.75 51.1875 
Q 21.828125 53.03125 28.515625 53.03125 
Q 35.15625 53.03125 39.296875 51.46875 
Q 43.453125 49.90625 45.40625 47.53125 
Q 47.359375 45.171875 48.140625 41.546875 
Q 48.578125 39.3125 48.578125 33.453125 
L 48.578125 21.734375 
Q 48.578125 9.46875 49.140625 6.21875 
Q 49.703125 2.984375 51.375 0 
L 42.1875 0 
Q 40.828125 2.734375 40.4375 6.390625 
z
M 39.703125 26.03125 
Q 34.90625 24.078125 25.34375 22.703125 
Q 19.921875 21.921875 17.671875 20.9375 
Q 15.4375 19.96875 14.203125 18.09375 
Q 12.984375 16.21875 12.984375 13.921875 
Q 12.984375 10.40625 15.640625 8.0625 
Q 18.3125 5.71875 23.4375 5.71875 
Q 28.515625 5.71875 32.46875 7.9375 
Q 36.421875 10.15625 38.28125 14.015625 
Q 39.703125 17 39.703125 22.796875 
z
" id="ArialMT-97"/>
      <path d="M 6.59375 0 
L 6.59375 51.859375 
L 14.5 51.859375 
L 14.5 44.484375 
Q 20.21875 53.03125 31 53.03125 
Q 35.6875 53.03125 39.625 51.34375 
Q 43.5625 49.65625 45.515625 46.921875 
Q 47.46875 44.1875 48.25 40.4375 
Q 48.734375 37.984375 48.734375 31.890625 
L 48.734375 0 
L 39.9375 0 
L 39.9375 31.546875 
Q 39.9375 36.921875 38.90625 39.578125 
Q 37.890625 42.234375 35.28125 43.8125 
Q 32.671875 45.40625 29.15625 45.40625 
Q 23.53125 45.40625 19.453125 41.84375 
Q 15.375 38.28125 15.375 28.328125 
L 15.375 0 
z
" id="ArialMT-110"/>
      <path d="M 40.4375 19 
L 49.078125 17.875 
Q 47.65625 8.9375 41.8125 3.875 
Q 35.984375 -1.171875 27.484375 -1.171875 
Q 16.84375 -1.171875 10.375 5.78125 
Q 3.90625 12.75 3.90625 25.734375 
Q 3.90625 34.125 6.6875 40.421875 
Q 9.46875 46.734375 15.15625 49.875 
Q 20.84375 53.03125 27.546875 53.03125 
Q 35.984375 53.03125 41.359375 48.75 
Q 46.734375 44.484375 48.25 36.625 
L 39.703125 35.296875 
Q 38.484375 40.53125 35.375 43.15625 
Q 32.28125 45.796875 27.875 45.796875 
Q 21.234375 45.796875 17.078125 41.03125 
Q 12.9375 36.28125 12.9375 25.984375 
Q 12.9375 15.53125 16.9375 10.796875 
Q 20.953125 6.0625 27.390625 6.0625 
Q 32.5625 6.0625 36.03125 9.234375 
Q 39.5 12.40625 40.4375 19 
z
" id="ArialMT-99"/>
      <path d="M 42.09375 16.703125 
L 51.171875 15.578125 
Q 49.03125 7.625 43.21875 3.21875 
Q 37.40625 -1.171875 28.375 -1.171875 
Q 17 -1.171875 10.328125 5.828125 
Q 3.65625 12.84375 3.65625 25.484375 
Q 3.65625 38.578125 10.390625 45.796875 
Q 17.140625 53.03125 27.875 53.03125 
Q 38.28125 53.03125 44.875 45.953125 
Q 51.46875 38.875 51.46875 26.03125 
Q 51.46875 25.25 51.421875 23.6875 
L 12.75 23.6875 
Q 13.234375 15.140625 17.578125 10.59375 
Q 21.921875 6.0625 28.421875 6.0625 
Q 33.25 6.0625 36.671875 8.59375 
Q 40.09375 11.140625 42.09375 16.703125 
z
M 13.234375 30.90625 
L 42.1875 30.90625 
Q 41.609375 37.453125 38.875 40.71875 
Q 34.671875 45.796875 27.984375 45.796875 
Q 21.921875 45.796875 17.796875 41.75 
Q 13.671875 37.703125 13.234375 30.90625 
z
" id="ArialMT-101"/>
      <path id="ArialMT-32"/>
      <path d="M 3.328125 25.921875 
Q 3.328125 40.328125 11.328125 47.265625 
Q 18.015625 53.03125 27.640625 53.03125 
Q 38.328125 53.03125 45.109375 46.015625 
Q 51.90625 39.015625 51.90625 26.65625 
Q 51.90625 16.65625 48.90625 10.90625 
Q 45.90625 5.171875 40.15625 2 
Q 34.421875 -1.171875 27.640625 -1.171875 
Q 16.75 -1.171875 10.03125 5.8125 
Q 3.328125 12.796875 3.328125 25.921875 
z
M 12.359375 25.921875 
Q 12.359375 15.96875 16.703125 11.015625 
Q 21.046875 6.0625 27.640625 6.0625 
Q 34.1875 6.0625 38.53125 11.03125 
Q 42.875 16.015625 42.875 26.21875 
Q 42.875 35.84375 38.5 40.796875 
Q 34.125 45.75 27.640625 45.75 
Q 21.046875 45.75 16.703125 40.8125 
Q 12.359375 35.890625 12.359375 25.921875 
z
" id="ArialMT-111"/>
      <path d="M 6.5 0 
L 6.5 51.859375 
L 14.40625 51.859375 
L 14.40625 44 
Q 17.4375 49.515625 20 51.265625 
Q 22.5625 53.03125 25.640625 53.03125 
Q 30.078125 53.03125 34.671875 50.203125 
L 31.640625 42.046875 
Q 28.421875 43.953125 25.203125 43.953125 
Q 22.3125 43.953125 20.015625 42.21875 
Q 17.71875 40.484375 16.75 37.40625 
Q 15.28125 32.71875 15.28125 27.15625 
L 15.28125 0 
z
" id="ArialMT-114"/>
      <path d="M 4.984375 -4.296875 
L 13.53125 -5.5625 
Q 14.0625 -9.515625 16.5 -11.328125 
Q 19.78125 -13.765625 25.4375 -13.765625 
Q 31.546875 -13.765625 34.859375 -11.328125 
Q 38.1875 -8.890625 39.359375 -4.5 
Q 40.046875 -1.8125 39.984375 6.78125 
Q 34.234375 0 25.640625 0 
Q 14.9375 0 9.078125 7.71875 
Q 3.21875 15.4375 3.21875 26.21875 
Q 3.21875 33.640625 5.90625 39.90625 
Q 8.59375 46.1875 13.6875 49.609375 
Q 18.796875 53.03125 25.6875 53.03125 
Q 34.859375 53.03125 40.828125 45.609375 
L 40.828125 51.859375 
L 48.921875 51.859375 
L 48.921875 7.03125 
Q 48.921875 -5.078125 46.453125 -10.125 
Q 44 -15.1875 38.640625 -18.109375 
Q 33.296875 -21.046875 25.484375 -21.046875 
Q 16.21875 -21.046875 10.5 -16.875 
Q 4.78125 -12.703125 4.984375 -4.296875 
z
M 12.25 26.859375 
Q 12.25 16.65625 16.296875 11.96875 
Q 20.359375 7.28125 26.46875 7.28125 
Q 32.515625 7.28125 36.609375 11.9375 
Q 40.71875 16.609375 40.71875 26.5625 
Q 40.71875 36.078125 36.5 40.90625 
Q 32.28125 45.75 26.3125 45.75 
Q 20.453125 45.75 16.34375 40.984375 
Q 12.25 36.234375 12.25 26.859375 
z
" id="ArialMT-103"/>
      <path d="M 23.390625 -21.046875 
Q 16.109375 -11.859375 11.078125 0.4375 
Q 6.0625 12.75 6.0625 25.921875 
Q 6.0625 37.546875 9.8125 48.1875 
Q 14.203125 60.546875 23.390625 72.796875 
L 29.6875 72.796875 
Q 23.78125 62.640625 21.875 58.296875 
Q 18.890625 51.5625 17.1875 44.234375 
Q 15.09375 35.109375 15.09375 25.875 
Q 15.09375 2.390625 29.6875 -21.046875 
z
" id="ArialMT-40"/>
      <path d="M 31.296875 40.671875 
Q 27.390625 40.671875 24.703125 37.953125 
Q 22.015625 35.25 22.015625 31.34375 
Q 22.015625 27.484375 24.703125 24.828125 
Q 27.390625 22.171875 31.296875 22.171875 
Q 35.203125 22.171875 37.890625 24.828125 
Q 40.578125 27.484375 40.578125 31.34375 
Q 40.578125 35.203125 37.859375 37.9375 
Q 35.15625 40.671875 31.296875 40.671875 
z
M 31.296875 46.96875 
Q 34.421875 46.96875 37.296875 45.765625 
Q 40.1875 44.578125 42.28125 42.328125 
Q 44.53125 40.140625 45.65625 37.34375 
Q 46.78125 34.5625 46.78125 31.34375 
Q 46.78125 24.90625 42.265625 20.4375 
Q 37.75 15.96875 31.203125 15.96875 
Q 24.609375 15.96875 20.21875 20.359375 
Q 15.828125 24.75 15.828125 31.34375 
Q 15.828125 37.890625 20.3125 42.421875 
Q 24.8125 46.96875 31.296875 46.96875 
z
" id="DejaVuSans-8728"/>
      <path d="M 12.359375 -21.046875 
L 6.0625 -21.046875 
Q 20.65625 2.390625 20.65625 25.875 
Q 20.65625 35.0625 18.5625 44.09375 
Q 16.890625 51.421875 13.921875 58.15625 
Q 12.015625 62.546875 6.0625 72.796875 
L 12.359375 72.796875 
Q 21.53125 60.546875 25.921875 48.1875 
Q 29.6875 37.546875 29.6875 25.921875 
Q 29.6875 12.75 24.625 0.4375 
Q 19.578125 -11.859375 12.359375 -21.046875 
z
" id="ArialMT-41"/>
     </defs>
     <g style="fill:#262626;" transform="translate(139.656023 352.800281)scale(0.264 -0.264)">
      <use transform="translate(0 0.203125)" xlink:href="#ArialMT-100"/>
      <use transform="translate(55.615234 0.203125)" xlink:href="#ArialMT-105"/>
      <use transform="translate(77.832031 0.203125)" xlink:href="#ArialMT-115"/>
      <use transform="translate(127.832031 0.203125)" xlink:href="#ArialMT-116"/>
      <use transform="translate(155.615234 0.203125)" xlink:href="#ArialMT-97"/>
      <use transform="translate(211.230469 0.203125)" xlink:href="#ArialMT-110"/>
      <use transform="translate(266.845703 0.203125)" xlink:href="#ArialMT-99"/>
      <use transform="translate(316.845703 0.203125)" xlink:href="#ArialMT-101"/>
      <use transform="translate(372.460938 0.203125)" xlink:href="#ArialMT-32"/>
      <use transform="translate(400.244141 0.203125)" xlink:href="#ArialMT-116"/>
      <use transform="translate(428.027344 0.203125)" xlink:href="#ArialMT-111"/>
      <use transform="translate(483.642578 0.203125)" xlink:href="#ArialMT-32"/>
      <use transform="translate(511.425781 0.203125)" xlink:href="#ArialMT-116"/>
      <use transform="translate(539.208984 0.203125)" xlink:href="#ArialMT-97"/>
      <use transform="translate(594.824219 0.203125)" xlink:href="#ArialMT-114"/>
      <use transform="translate(628.125 0.203125)" xlink:href="#ArialMT-103"/>
      <use transform="translate(683.740234 0.203125)" xlink:href="#ArialMT-101"/>
      <use transform="translate(739.355469 0.203125)" xlink:href="#ArialMT-116"/>
      <use transform="translate(767.138672 0.203125)" xlink:href="#ArialMT-32"/>
      <use transform="translate(794.921875 0.203125)" xlink:href="#ArialMT-40"/>
      <use transform="translate(842.817383 38.484375)scale(0.7)" xlink:href="#DejaVuSans-8728"/>
      <use transform="translate(903.007812 0.203125)" xlink:href="#ArialMT-41"/>
     </g>
    </g>
   </g>
   <g id="matplotlib.axis_2">
    <g id="ytick_1">
     <g id="line2d_6">
      <defs>
       <path d="M 0 0 
L 12 0 
" id="m98d590ec9c" style="stroke:#262626;stroke-width:2.5;"/>
      </defs>
      <g>
       <use style="fill:#262626;stroke:#262626;stroke-width:2.5;" x="73.11275" xlink:href="#m98d590ec9c" y="167.996625"/>
      </g>
     </g>
     <g id="text_7">
      <!-- 0.1 -->
      <defs>
       <path d="M 9.078125 0 
L 9.078125 10.015625 
L 19.09375 10.015625 
L 19.09375 0 
z
" id="ArialMT-46"/>
      </defs>
      <g style="fill:#262626;" transform="translate(35.97475 176.657578)scale(0.242 -0.242)">
       <use xlink:href="#ArialMT-48"/>
       <use x="55.615234" xlink:href="#ArialMT-46"/>
       <use x="83.398438" xlink:href="#ArialMT-49"/>
      </g>
     </g>
    </g>
    <g id="ytick_2">
     <g id="line2d_7">
      <g>
       <use style="fill:#262626;stroke:#262626;stroke-width:2.5;" x="73.11275" xlink:href="#m98d590ec9c" y="32.096625"/>
      </g>
     </g>
     <g id="text_8">
      <!-- 0.2 -->
      <defs>
       <path d="M 50.34375 8.453125 
L 50.34375 0 
L 3.03125 0 
Q 2.9375 3.171875 4.046875 6.109375 
Q 5.859375 10.9375 9.828125 15.625 
Q 13.8125 20.3125 21.34375 26.46875 
Q 33.015625 36.03125 37.109375 41.625 
Q 41.21875 47.21875 41.21875 52.203125 
Q 41.21875 57.421875 37.46875 61 
Q 33.734375 64.59375 27.734375 64.59375 
Q 21.390625 64.59375 17.578125 60.78125 
Q 13.765625 56.984375 13.71875 50.25 
L 4.6875 51.171875 
Q 5.609375 61.28125 11.65625 66.578125 
Q 17.71875 71.875 27.9375 71.875 
Q 38.234375 71.875 44.234375 66.15625 
Q 50.25 60.453125 50.25 52 
Q 50.25 47.703125 48.484375 43.546875 
Q 46.734375 39.40625 42.65625 34.8125 
Q 38.578125 30.21875 29.109375 22.21875 
Q 21.1875 15.578125 18.9375 13.203125 
Q 16.703125 10.84375 15.234375 8.453125 
z
" id="ArialMT-50"/>
      </defs>
      <g style="fill:#262626;" transform="translate(35.97475 40.757578)scale(0.242 -0.242)">
       <use xlink:href="#ArialMT-48"/>
       <use x="55.615234" xlink:href="#ArialMT-46"/>
       <use x="83.398438" xlink:href="#ArialMT-50"/>
      </g>
     </g>
    </g>
    <g id="text_9">
     <!-- frequency -->
     <defs>
      <path d="M 8.6875 0 
L 8.6875 45.015625 
L 0.921875 45.015625 
L 0.921875 51.859375 
L 8.6875 51.859375 
L 8.6875 57.375 
Q 8.6875 62.59375 9.625 65.140625 
Q 10.890625 68.5625 14.078125 70.671875 
Q 17.28125 72.796875 23.046875 72.796875 
Q 26.765625 72.796875 31.25 71.921875 
L 29.9375 64.265625 
Q 27.203125 64.75 24.75 64.75 
Q 20.75 64.75 19.09375 63.03125 
Q 17.4375 61.328125 17.4375 56.640625 
L 17.4375 51.859375 
L 27.546875 51.859375 
L 27.546875 45.015625 
L 17.4375 45.015625 
L 17.4375 0 
z
" id="ArialMT-102"/>
      <path d="M 39.65625 -19.875 
L 39.65625 5.515625 
Q 37.59375 2.640625 33.90625 0.734375 
Q 30.21875 -1.171875 26.078125 -1.171875 
Q 16.84375 -1.171875 10.171875 6.203125 
Q 3.515625 13.578125 3.515625 26.421875 
Q 3.515625 34.234375 6.21875 40.421875 
Q 8.9375 46.625 14.078125 49.828125 
Q 19.234375 53.03125 25.390625 53.03125 
Q 35.015625 53.03125 40.53125 44.921875 
L 40.53125 51.859375 
L 48.4375 51.859375 
L 48.4375 -19.875 
z
M 12.546875 26.078125 
Q 12.546875 16.0625 16.75 11.0625 
Q 20.953125 6.0625 26.8125 6.0625 
Q 32.421875 6.0625 36.46875 10.8125 
Q 40.53125 15.578125 40.53125 25.296875 
Q 40.53125 35.640625 36.25 40.859375 
Q 31.984375 46.09375 26.21875 46.09375 
Q 20.515625 46.09375 16.53125 41.234375 
Q 12.546875 36.375 12.546875 26.078125 
z
" id="ArialMT-113"/>
      <path d="M 40.578125 0 
L 40.578125 7.625 
Q 34.515625 -1.171875 24.125 -1.171875 
Q 19.53125 -1.171875 15.546875 0.578125 
Q 11.578125 2.34375 9.640625 5 
Q 7.71875 7.671875 6.9375 11.53125 
Q 6.390625 14.109375 6.390625 19.734375 
L 6.390625 51.859375 
L 15.1875 51.859375 
L 15.1875 23.09375 
Q 15.1875 16.21875 15.71875 13.8125 
Q 16.546875 10.359375 19.234375 8.375 
Q 21.921875 6.390625 25.875 6.390625 
Q 29.828125 6.390625 33.296875 8.421875 
Q 36.765625 10.453125 38.203125 13.9375 
Q 39.65625 17.4375 39.65625 24.078125 
L 39.65625 51.859375 
L 48.4375 51.859375 
L 48.4375 0 
z
" id="ArialMT-117"/>
      <path d="M 6.203125 -19.96875 
L 5.21875 -11.71875 
Q 8.109375 -12.5 10.25 -12.5 
Q 13.1875 -12.5 14.9375 -11.515625 
Q 16.703125 -10.546875 17.828125 -8.796875 
Q 18.65625 -7.46875 20.515625 -2.25 
Q 20.75 -1.515625 21.296875 -0.09375 
L 1.609375 51.859375 
L 11.078125 51.859375 
L 21.875 21.828125 
Q 23.96875 16.109375 25.640625 9.8125 
Q 27.15625 15.875 29.25 21.625 
L 40.328125 51.859375 
L 49.125 51.859375 
L 29.390625 -0.875 
Q 26.21875 -9.421875 24.46875 -12.640625 
Q 22.125 -17 19.09375 -19.015625 
Q 16.0625 -21.046875 11.859375 -21.046875 
Q 9.328125 -21.046875 6.203125 -19.96875 
z
" id="ArialMT-121"/>
     </defs>
     <g style="fill:#262626;" transform="translate(26.418375 225.961125)rotate(-90)scale(0.264 -0.264)">
      <use xlink:href="#ArialMT-102"/>
      <use x="27.783203" xlink:href="#ArialMT-114"/>
      <use x="61.083984" xlink:href="#ArialMT-101"/>
      <use x="116.699219" xlink:href="#ArialMT-113"/>
      <use x="172.314453" xlink:href="#ArialMT-117"/>
      <use x="227.929688" xlink:href="#ArialMT-101"/>
      <use x="283.544922" xlink:href="#ArialMT-110"/>
      <use x="339.160156" xlink:href="#ArialMT-99"/>
      <use x="389.160156" xlink:href="#ArialMT-121"/>
     </g>
    </g>
   </g>
   <g id="patch_3">
    <path clip-path="url(#pbd296486f0)" d="M -24.883118 303.896625 
L -19.060428 303.896625 
L -19.060428 303.896625 
L -24.883118 303.896625 
z
" style="fill:#5e3c99;opacity:0.4;stroke:#ffffff;stroke-linejoin:miter;stroke-width:2;"/>
   </g>
   <g id="patch_4">
    <path clip-path="url(#pbd296486f0)" d="M -19.060428 303.896625 
L -13.237738 303.896625 
L -13.237738 303.896625 
L -19.060428 303.896625 
z
" style="fill:#5e3c99;opacity:0.4;stroke:#ffffff;stroke-linejoin:miter;stroke-width:2;"/>
   </g>
   <g id="patch_5">
    <path clip-path="url(#pbd296486f0)" d="M -13.237738 303.896625 
L -7.415049 303.896625 
L -7.415049 303.896625 
L -13.237738 303.896625 
z
" style="fill:#5e3c99;opacity:0.4;stroke:#ffffff;stroke-linejoin:miter;stroke-width:2;"/>
   </g>
   <g id="patch_6">
    <path clip-path="url(#pbd296486f0)" d="M -7.415049 303.896625 
L -1.592359 303.896625 
L -1.592359 303.896625 
L -7.415049 303.896625 
z
" style="fill:#5e3c99;opacity:0.4;stroke:#ffffff;stroke-linejoin:miter;stroke-width:2;"/>
   </g>
   <g id="patch_7">
    <path clip-path="url(#pbd296486f0)" d="M -1.592359 303.896625 
L 4.230331 303.896625 
L 4.230331 303.896625 
L -1.592359 303.896625 
z
" style="fill:#5e3c99;opacity:0.4;stroke:#ffffff;stroke-linejoin:miter;stroke-width:2;"/>
   </g>
   <g id="patch_8">
    <path clip-path="url(#pbd296486f0)" d="M 4.230331 303.896625 
L 10.05302 303.896625 
L 10.05302 303.896625 
L 4.230331 303.896625 
z
" style="fill:#5e3c99;opacity:0.4;stroke:#ffffff;stroke-linejoin:miter;stroke-width:2;"/>
   </g>
   <g id="patch_9">
    <path clip-path="url(#pbd296486f0)" d="M 10.05302 303.896625 
L 15.87571 303.896625 
L 15.87571 303.896625 
L 10.05302 303.896625 
z
" style="fill:#5e3c99;opacity:0.4;stroke:#ffffff;stroke-linejoin:miter;stroke-width:2;"/>
   </g>
   <g id="patch_10">
    <path clip-path="url(#pbd296486f0)" d="M 15.87571 303.896625 
L 21.6984 303.896625 
L 21.6984 303.896625 
L 15.87571 303.896625 
z
" style="fill:#5e3c99;opacity:0.4;stroke:#ffffff;stroke-linejoin:miter;stroke-width:2;"/>
   </g>
   <g id="patch_11">
    <path clip-path="url(#pbd296486f0)" d="M 21.6984 303.896625 
L 27.52109 303.896625 
L 27.52109 303.896625 
L 21.6984 303.896625 
z
" style="fill:#5e3c99;opacity:0.4;stroke:#ffffff;stroke-linejoin:miter;stroke-width:2;"/>
   </g>
   <g id="patch_12">
    <path clip-path="url(#pbd296486f0)" d="M 27.52109 303.896625 
L 33.343779 303.896625 
L 33.343779 303.896625 
L 27.52109 303.896625 
z
" style="fill:#5e3c99;opacity:0.4;stroke:#ffffff;stroke-linejoin:miter;stroke-width:2;"/>
   </g>
   <g id="patch_13">
    <path clip-path="url(#pbd296486f0)" d="M 33.343779 303.896625 
L 39.166469 303.896625 
L 39.166469 303.896625 
L 33.343779 303.896625 
z
" style="fill:#5e3c99;opacity:0.4;stroke:#ffffff;stroke-linejoin:miter;stroke-width:2;"/>
   </g>
   <g id="patch_14">
    <path clip-path="url(#pbd296486f0)" d="M 39.166469 303.896625 
L 44.989159 303.896625 
L 44.989159 303.896625 
L 39.166469 303.896625 
z
" style="fill:#5e3c99;opacity:0.4;stroke:#ffffff;stroke-linejoin:miter;stroke-width:2;"/>
   </g>
   <g id="patch_15">
    <path clip-path="url(#pbd296486f0)" d="M 44.989159 303.896625 
L 50.811848 303.896625 
L 50.811848 303.896625 
L 44.989159 303.896625 
z
" style="fill:#5e3c99;opacity:0.4;stroke:#ffffff;stroke-linejoin:miter;stroke-width:2;"/>
   </g>
   <g id="patch_16">
    <path clip-path="url(#pbd296486f0)" d="M 50.811848 303.896625 
L 56.634538 303.896625 
L 56.634538 303.896625 
L 50.811848 303.896625 
z
" style="fill:#5e3c99;opacity:0.4;stroke:#ffffff;stroke-linejoin:miter;stroke-width:2;"/>
   </g>
   <g id="patch_17">
    <path clip-path="url(#pbd296486f0)" d="M 56.634538 303.896625 
L 62.457228 303.896625 
L 62.457228 303.896625 
L 56.634538 303.896625 
z
" style="fill:#5e3c99;opacity:0.4;stroke:#ffffff;stroke-linejoin:miter;stroke-width:2;"/>
   </g>
   <g id="patch_18">
    <path clip-path="url(#pbd296486f0)" d="M 62.457228 303.896625 
L 68.279918 303.896625 
L 68.279918 303.896625 
L 62.457228 303.896625 
z
" style="fill:#5e3c99;opacity:0.4;stroke:#ffffff;stroke-linejoin:miter;stroke-width:2;"/>
   </g>
   <g id="patch_19">
    <path clip-path="url(#pbd296486f0)" d="M 68.279918 303.896625 
L 74.102607 303.896625 
L 74.102607 303.896625 
L 68.279918 303.896625 
z
" style="fill:#5e3c99;opacity:0.4;stroke:#ffffff;stroke-linejoin:miter;stroke-width:2;"/>
   </g>
   <g id="patch_20">
    <path clip-path="url(#pbd296486f0)" d="M 74.102607 303.896625 
L 79.925297 303.896625 
L 79.925297 303.896625 
L 74.102607 303.896625 
z
" style="fill:#5e3c99;opacity:0.4;stroke:#ffffff;stroke-linejoin:miter;stroke-width:2;"/>
   </g>
   <g id="patch_21">
    <path clip-path="url(#pbd296486f0)" d="M 79.925297 303.896625 
L 85.747987 303.896625 
L 85.747987 303.896625 
L 79.925297 303.896625 
z
" style="fill:#5e3c99;opacity:0.4;stroke:#ffffff;stroke-linejoin:miter;stroke-width:2;"/>
   </g>
   <g id="patch_22">
    <path clip-path="url(#pbd296486f0)" d="M 85.747987 303.896625 
L 91.570676 303.896625 
L 91.570676 303.896625 
L 85.747987 303.896625 
z
" style="fill:#5e3c99;opacity:0.4;stroke:#ffffff;stroke-linejoin:miter;stroke-width:2;"/>
   </g>
   <g id="patch_23">
    <path clip-path="url(#pbd296486f0)" d="M 91.570676 303.896625 
L 97.393366 303.896625 
L 97.393366 303.896625 
L 91.570676 303.896625 
z
" style="fill:#5e3c99;opacity:0.4;stroke:#ffffff;stroke-linejoin:miter;stroke-width:2;"/>
   </g>
   <g id="patch_24">
    <path clip-path="url(#pbd296486f0)" d="M 97.393366 303.896625 
L 103.216056 303.896625 
L 103.216056 303.896625 
L 97.393366 303.896625 
z
" style="fill:#5e3c99;opacity:0.4;stroke:#ffffff;stroke-linejoin:miter;stroke-width:2;"/>
   </g>
   <g id="patch_25">
    <path clip-path="url(#pbd296486f0)" d="M 103.216056 303.896625 
L 109.038745 303.896625 
L 109.038745 303.896625 
L 103.216056 303.896625 
z
" style="fill:#5e3c99;opacity:0.4;stroke:#ffffff;stroke-linejoin:miter;stroke-width:2;"/>
   </g>
   <g id="patch_26">
    <path clip-path="url(#pbd296486f0)" d="M 109.038745 303.896625 
L 114.861435 303.896625 
L 114.861435 303.896625 
L 109.038745 303.896625 
z
" style="fill:#5e3c99;opacity:0.4;stroke:#ffffff;stroke-linejoin:miter;stroke-width:2;"/>
   </g>
   <g id="patch_27">
    <path clip-path="url(#pbd296486f0)" d="M 114.861435 303.896625 
L 120.684125 303.896625 
L 120.684125 303.896625 
L 114.861435 303.896625 
z
" style="fill:#5e3c99;opacity:0.4;stroke:#ffffff;stroke-linejoin:miter;stroke-width:2;"/>
   </g>
   <g id="patch_28">
    <path clip-path="url(#pbd296486f0)" d="M 120.684125 303.896625 
L 126.506815 303.896625 
L 126.506815 303.896625 
L 120.684125 303.896625 
z
" style="fill:#5e3c99;opacity:0.4;stroke:#ffffff;stroke-linejoin:miter;stroke-width:2;"/>
   </g>
   <g id="patch_29">
    <path clip-path="url(#pbd296486f0)" d="M 126.506815 303.896625 
L 132.329504 303.896625 
L 132.329504 303.896625 
L 126.506815 303.896625 
z
" style="fill:#5e3c99;opacity:0.4;stroke:#ffffff;stroke-linejoin:miter;stroke-width:2;"/>
   </g>
   <g id="patch_30">
    <path clip-path="url(#pbd296486f0)" d="M 132.329504 303.896625 
L 138.152194 303.896625 
L 138.152194 294.286554 
L 132.329504 294.286554 
z
" style="fill:#5e3c99;opacity:0.4;stroke:#ffffff;stroke-linejoin:miter;stroke-width:2;"/>
   </g>
   <g id="patch_31">
    <path clip-path="url(#pbd296486f0)" d="M 138.152194 303.896625 
L 143.974884 303.896625 
L 143.974884 303.896625 
L 138.152194 303.896625 
z
" style="fill:#5e3c99;opacity:0.4;stroke:#ffffff;stroke-linejoin:miter;stroke-width:2;"/>
   </g>
   <g id="patch_32">
    <path clip-path="url(#pbd296486f0)" d="M 143.974884 303.896625 
L 149.797573 303.896625 
L 149.797573 284.676482 
L 143.974884 284.676482 
z
" style="fill:#5e3c99;opacity:0.4;stroke:#ffffff;stroke-linejoin:miter;stroke-width:2;"/>
   </g>
   <g id="patch_33">
    <path clip-path="url(#pbd296486f0)" d="M 149.797573 303.896625 
L 155.620263 303.896625 
L 155.620263 294.286554 
L 149.797573 294.286554 
z
" style="fill:#5e3c99;opacity:0.4;stroke:#ffffff;stroke-linejoin:miter;stroke-width:2;"/>
   </g>
   <g id="patch_34">
    <path clip-path="url(#pbd296486f0)" d="M 155.620263 303.896625 
L 161.442953 303.896625 
L 161.442953 294.286554 
L 155.620263 294.286554 
z
" style="fill:#5e3c99;opacity:0.4;stroke:#ffffff;stroke-linejoin:miter;stroke-width:2;"/>
   </g>
   <g id="patch_35">
    <path clip-path="url(#pbd296486f0)" d="M 161.442953 303.896625 
L 167.265643 303.896625 
L 167.265643 294.286554 
L 161.442953 294.286554 
z
" style="fill:#5e3c99;opacity:0.4;stroke:#ffffff;stroke-linejoin:miter;stroke-width:2;"/>
   </g>
   <g id="patch_36">
    <path clip-path="url(#pbd296486f0)" d="M 167.265643 303.896625 
L 173.088332 303.896625 
L 173.088332 303.896625 
L 167.265643 303.896625 
z
" style="fill:#5e3c99;opacity:0.4;stroke:#ffffff;stroke-linejoin:miter;stroke-width:2;"/>
   </g>
   <g id="patch_37">
    <path clip-path="url(#pbd296486f0)" d="M 173.088332 303.896625 
L 178.911022 303.896625 
L 178.911022 303.896625 
L 173.088332 303.896625 
z
" style="fill:#5e3c99;opacity:0.4;stroke:#ffffff;stroke-linejoin:miter;stroke-width:2;"/>
   </g>
   <g id="patch_38">
    <path clip-path="url(#pbd296486f0)" d="M 178.911022 303.896625 
L 184.733712 303.896625 
L 184.733712 303.896625 
L 178.911022 303.896625 
z
" style="fill:#5e3c99;opacity:0.4;stroke:#ffffff;stroke-linejoin:miter;stroke-width:2;"/>
   </g>
   <g id="patch_39">
    <path clip-path="url(#pbd296486f0)" d="M 184.733712 303.896625 
L 190.556401 303.896625 
L 190.556401 303.896625 
L 184.733712 303.896625 
z
" style="fill:#5e3c99;opacity:0.4;stroke:#ffffff;stroke-linejoin:miter;stroke-width:2;"/>
   </g>
   <g id="patch_40">
    <path clip-path="url(#pbd296486f0)" d="M 190.556401 303.896625 
L 196.379091 303.896625 
L 196.379091 303.896625 
L 190.556401 303.896625 
z
" style="fill:#5e3c99;opacity:0.4;stroke:#ffffff;stroke-linejoin:miter;stroke-width:2;"/>
   </g>
   <g id="patch_41">
    <path clip-path="url(#pbd296486f0)" d="M 196.379091 303.896625 
L 202.201781 303.896625 
L 202.201781 303.896625 
L 196.379091 303.896625 
z
" style="fill:#5e3c99;opacity:0.4;stroke:#ffffff;stroke-linejoin:miter;stroke-width:2;"/>
   </g>
   <g id="patch_42">
    <path clip-path="url(#pbd296486f0)" d="M 202.201781 303.896625 
L 208.024471 303.896625 
L 208.024471 303.896625 
L 202.201781 303.896625 
z
" style="fill:#5e3c99;opacity:0.4;stroke:#ffffff;stroke-linejoin:miter;stroke-width:2;"/>
   </g>
   <g id="patch_43">
    <path clip-path="url(#pbd296486f0)" d="M 208.024471 303.896625 
L 213.84716 303.896625 
L 213.84716 303.896625 
L 208.024471 303.896625 
z
" style="fill:#5e3c99;opacity:0.4;stroke:#ffffff;stroke-linejoin:miter;stroke-width:2;"/>
   </g>
   <g id="patch_44">
    <path clip-path="url(#pbd296486f0)" d="M 213.84716 303.896625 
L 219.66985 303.896625 
L 219.66985 303.896625 
L 213.84716 303.896625 
z
" style="fill:#5e3c99;opacity:0.4;stroke:#ffffff;stroke-linejoin:miter;stroke-width:2;"/>
   </g>
   <g id="patch_45">
    <path clip-path="url(#pbd296486f0)" d="M 219.66985 303.896625 
L 225.49254 303.896625 
L 225.49254 303.896625 
L 219.66985 303.896625 
z
" style="fill:#5e3c99;opacity:0.4;stroke:#ffffff;stroke-linejoin:miter;stroke-width:2;"/>
   </g>
   <g id="patch_46">
    <path clip-path="url(#pbd296486f0)" d="M 225.49254 303.896625 
L 231.315229 303.896625 
L 231.315229 303.896625 
L 225.49254 303.896625 
z
" style="fill:#5e3c99;opacity:0.4;stroke:#ffffff;stroke-linejoin:miter;stroke-width:2;"/>
   </g>
   <g id="patch_47">
    <path clip-path="url(#pbd296486f0)" d="M 231.315229 303.896625 
L 237.137919 303.896625 
L 237.137919 303.896625 
L 231.315229 303.896625 
z
" style="fill:#5e3c99;opacity:0.4;stroke:#ffffff;stroke-linejoin:miter;stroke-width:2;"/>
   </g>
   <g id="patch_48">
    <path clip-path="url(#pbd296486f0)" d="M 237.137919 303.896625 
L 242.960609 303.896625 
L 242.960609 294.286554 
L 237.137919 294.286554 
z
" style="fill:#5e3c99;opacity:0.4;stroke:#ffffff;stroke-linejoin:miter;stroke-width:2;"/>
   </g>
   <g id="patch_49">
    <path clip-path="url(#pbd296486f0)" d="M 242.960609 303.896625 
L 248.783298 303.896625 
L 248.783298 303.896625 
L 242.960609 303.896625 
z
" style="fill:#5e3c99;opacity:0.4;stroke:#ffffff;stroke-linejoin:miter;stroke-width:2;"/>
   </g>
   <g id="patch_50">
    <path clip-path="url(#pbd296486f0)" d="M 248.783298 303.896625 
L 254.605988 303.896625 
L 254.605988 275.066411 
L 248.783298 275.066411 
z
" style="fill:#5e3c99;opacity:0.4;stroke:#ffffff;stroke-linejoin:miter;stroke-width:2;"/>
   </g>
   <g id="patch_51">
    <path clip-path="url(#pbd296486f0)" d="M 254.605988 303.896625 
L 260.428678 303.896625 
L 260.428678 294.286554 
L 254.605988 294.286554 
z
" style="fill:#5e3c99;opacity:0.4;stroke:#ffffff;stroke-linejoin:miter;stroke-width:2;"/>
   </g>
   <g id="patch_52">
    <path clip-path="url(#pbd296486f0)" d="M 260.428678 303.896625 
L 266.251368 303.896625 
L 266.251368 303.896625 
L 260.428678 303.896625 
z
" style="fill:#5e3c99;opacity:0.4;stroke:#ffffff;stroke-linejoin:miter;stroke-width:2;"/>
   </g>
   <g id="patch_53">
    <path clip-path="url(#pbd296486f0)" d="M 266.251368 303.896625 
L 272.074057 303.896625 
L 272.074057 284.676482 
L 266.251368 284.676482 
z
" style="fill:#5e3c99;opacity:0.4;stroke:#ffffff;stroke-linejoin:miter;stroke-width:2;"/>
   </g>
   <g id="patch_54">
    <path clip-path="url(#pbd296486f0)" d="M 272.074057 303.896625 
L 277.896747 303.896625 
L 277.896747 294.286554 
L 272.074057 294.286554 
z
" style="fill:#5e3c99;opacity:0.4;stroke:#ffffff;stroke-linejoin:miter;stroke-width:2;"/>
   </g>
   <g id="patch_55">
    <path clip-path="url(#pbd296486f0)" d="M 277.896747 303.896625 
L 283.719437 303.896625 
L 283.719437 265.456339 
L 277.896747 265.456339 
z
" style="fill:#5e3c99;opacity:0.4;stroke:#ffffff;stroke-linejoin:miter;stroke-width:2;"/>
   </g>
   <g id="patch_56">
    <path clip-path="url(#pbd296486f0)" d="M 283.719437 303.896625 
L 289.542126 303.896625 
L 289.542126 255.846268 
L 283.719437 255.846268 
z
" style="fill:#5e3c99;opacity:0.4;stroke:#ffffff;stroke-linejoin:miter;stroke-width:2;"/>
   </g>
   <g id="patch_57">
    <path clip-path="url(#pbd296486f0)" d="M 289.542126 303.896625 
L 295.364816 303.896625 
L 295.364816 275.066411 
L 289.542126 275.066411 
z
" style="fill:#5e3c99;opacity:0.4;stroke:#ffffff;stroke-linejoin:miter;stroke-width:2;"/>
   </g>
   <g id="patch_58">
    <path clip-path="url(#pbd296486f0)" d="M 295.364816 303.896625 
L 301.187506 303.896625 
L 301.187506 227.016054 
L 295.364816 227.016054 
z
" style="fill:#5e3c99;opacity:0.4;stroke:#ffffff;stroke-linejoin:miter;stroke-width:2;"/>
   </g>
   <g id="patch_59">
    <path clip-path="url(#pbd296486f0)" d="M 301.187506 303.896625 
L 307.010196 303.896625 
L 307.010196 178.965696 
L 301.187506 178.965696 
z
" style="fill:#5e3c99;opacity:0.4;stroke:#ffffff;stroke-linejoin:miter;stroke-width:2;"/>
   </g>
   <g id="patch_60">
    <path clip-path="url(#pbd296486f0)" d="M 307.010196 303.896625 
L 312.832885 303.896625 
L 312.832885 217.405982 
L 307.010196 217.405982 
z
" style="fill:#5e3c99;opacity:0.4;stroke:#ffffff;stroke-linejoin:miter;stroke-width:2;"/>
   </g>
   <g id="patch_61">
    <path clip-path="url(#pbd296486f0)" d="M 312.832885 303.896625 
L 318.655575 303.896625 
L 318.655575 188.575768 
L 312.832885 188.575768 
z
" style="fill:#5e3c99;opacity:0.4;stroke:#ffffff;stroke-linejoin:miter;stroke-width:2;"/>
   </g>
   <g id="patch_62">
    <path clip-path="url(#pbd296486f0)" d="M 318.655575 303.896625 
L 324.478265 303.896625 
L 324.478265 207.795911 
L 318.655575 207.795911 
z
" style="fill:#5e3c99;opacity:0.4;stroke:#ffffff;stroke-linejoin:miter;stroke-width:2;"/>
   </g>
   <g id="patch_63">
    <path clip-path="url(#pbd296486f0)" d="M 324.478265 303.896625 
L 330.300954 303.896625 
L 330.300954 188.575768 
L 324.478265 188.575768 
z
" style="fill:#5e3c99;opacity:0.4;stroke:#ffffff;stroke-linejoin:miter;stroke-width:2;"/>
   </g>
   <g id="patch_64">
    <path clip-path="url(#pbd296486f0)" d="M 330.300954 303.896625 
L 336.123644 303.896625 
L 336.123644 227.016054 
L 330.300954 227.016054 
z
" style="fill:#5e3c99;opacity:0.4;stroke:#ffffff;stroke-linejoin:miter;stroke-width:2;"/>
   </g>
   <g id="patch_65">
    <path clip-path="url(#pbd296486f0)" d="M 336.123644 303.896625 
L 341.946334 303.896625 
L 341.946334 178.965696 
L 336.123644 178.965696 
z
" style="fill:#5e3c99;opacity:0.4;stroke:#ffffff;stroke-linejoin:miter;stroke-width:2;"/>
   </g>
   <g id="patch_66">
    <path clip-path="url(#pbd296486f0)" d="M 341.946334 303.896625 
L 347.769023 303.896625 
L 347.769023 207.795911 
L 341.946334 207.795911 
z
" style="fill:#5e3c99;opacity:0.4;stroke:#ffffff;stroke-linejoin:miter;stroke-width:2;"/>
   </g>
   <g id="patch_67">
    <path clip-path="url(#pbd296486f0)" d="M 347.769023 303.896625 
L 353.591713 303.896625 
L 353.591713 217.405982 
L 347.769023 217.405982 
z
" style="fill:#5e3c99;opacity:0.4;stroke:#ffffff;stroke-linejoin:miter;stroke-width:2;"/>
   </g>
   <g id="patch_68">
    <path clip-path="url(#pbd296486f0)" d="M 353.591713 303.896625 
L 359.414403 303.896625 
L 359.414403 265.456339 
L 353.591713 265.456339 
z
" style="fill:#5e3c99;opacity:0.4;stroke:#ffffff;stroke-linejoin:miter;stroke-width:2;"/>
   </g>
   <g id="patch_69">
    <path clip-path="url(#pbd296486f0)" d="M 359.414403 303.896625 
L 365.237093 303.896625 
L 365.237093 284.676482 
L 359.414403 284.676482 
z
" style="fill:#5e3c99;opacity:0.4;stroke:#ffffff;stroke-linejoin:miter;stroke-width:2;"/>
   </g>
   <g id="patch_70">
    <path clip-path="url(#pbd296486f0)" d="M 365.237093 303.896625 
L 371.059782 303.896625 
L 371.059782 275.066411 
L 365.237093 275.066411 
z
" style="fill:#5e3c99;opacity:0.4;stroke:#ffffff;stroke-linejoin:miter;stroke-width:2;"/>
   </g>
   <g id="patch_71">
    <path clip-path="url(#pbd296486f0)" d="M 371.059782 303.896625 
L 376.882472 303.896625 
L 376.882472 303.896625 
L 371.059782 303.896625 
z
" style="fill:#5e3c99;opacity:0.4;stroke:#ffffff;stroke-linejoin:miter;stroke-width:2;"/>
   </g>
   <g id="patch_72">
    <path clip-path="url(#pbd296486f0)" d="M 376.882472 303.896625 
L 382.705162 303.896625 
L 382.705162 303.896625 
L 376.882472 303.896625 
z
" style="fill:#5e3c99;opacity:0.4;stroke:#ffffff;stroke-linejoin:miter;stroke-width:2;"/>
   </g>
   <g id="patch_73">
    <path clip-path="url(#pbd296486f0)" d="M 382.705162 303.896625 
L 388.527851 303.896625 
L 388.527851 303.896625 
L 382.705162 303.896625 
z
" style="fill:#5e3c99;opacity:0.4;stroke:#ffffff;stroke-linejoin:miter;stroke-width:2;"/>
   </g>
   <g id="patch_74">
    <path clip-path="url(#pbd296486f0)" d="M 388.527851 303.896625 
L 394.350541 303.896625 
L 394.350541 303.896625 
L 388.527851 303.896625 
z
" style="fill:#5e3c99;opacity:0.4;stroke:#ffffff;stroke-linejoin:miter;stroke-width:2;"/>
   </g>
   <g id="patch_75">
    <path clip-path="url(#pbd296486f0)" d="M 394.350541 303.896625 
L 400.173231 303.896625 
L 400.173231 303.896625 
L 394.350541 303.896625 
z
" style="fill:#5e3c99;opacity:0.4;stroke:#ffffff;stroke-linejoin:miter;stroke-width:2;"/>
   </g>
   <g id="patch_76">
    <path clip-path="url(#pbd296486f0)" d="M 400.173231 303.896625 
L 405.995921 303.896625 
L 405.995921 303.896625 
L 400.173231 303.896625 
z
" style="fill:#5e3c99;opacity:0.4;stroke:#ffffff;stroke-linejoin:miter;stroke-width:2;"/>
   </g>
   <g id="patch_77">
    <path clip-path="url(#pbd296486f0)" d="M 405.995921 303.896625 
L 411.81861 303.896625 
L 411.81861 294.286554 
L 405.995921 294.286554 
z
" style="fill:#5e3c99;opacity:0.4;stroke:#ffffff;stroke-linejoin:miter;stroke-width:2;"/>
   </g>
   <g id="patch_78">
    <path clip-path="url(#pbd296486f0)" d="M 411.81861 303.896625 
L 417.6413 303.896625 
L 417.6413 303.896625 
L 411.81861 303.896625 
z
" style="fill:#5e3c99;opacity:0.4;stroke:#ffffff;stroke-linejoin:miter;stroke-width:2;"/>
   </g>
   <g id="patch_79">
    <path clip-path="url(#pbd296486f0)" d="M 417.6413 303.896625 
L 423.46399 303.896625 
L 423.46399 303.896625 
L 417.6413 303.896625 
z
" style="fill:#5e3c99;opacity:0.4;stroke:#ffffff;stroke-linejoin:miter;stroke-width:2;"/>
   </g>
   <g id="patch_80">
    <path clip-path="url(#pbd296486f0)" d="M 423.46399 303.896625 
L 429.286679 303.896625 
L 429.286679 303.896625 
L 423.46399 303.896625 
z
" style="fill:#5e3c99;opacity:0.4;stroke:#ffffff;stroke-linejoin:miter;stroke-width:2;"/>
   </g>
   <g id="patch_81">
    <path clip-path="url(#pbd296486f0)" d="M 429.286679 303.896625 
L 435.109369 303.896625 
L 435.109369 303.896625 
L 429.286679 303.896625 
z
" style="fill:#5e3c99;opacity:0.4;stroke:#ffffff;stroke-linejoin:miter;stroke-width:2;"/>
   </g>
   <g id="patch_82">
    <path clip-path="url(#pbd296486f0)" d="M 435.109369 303.896625 
L 440.932059 303.896625 
L 440.932059 303.896625 
L 435.109369 303.896625 
z
" style="fill:#5e3c99;opacity:0.4;stroke:#ffffff;stroke-linejoin:miter;stroke-width:2;"/>
   </g>
   <g id="patch_83">
    <path clip-path="url(#pbd296486f0)" d="M 440.932059 303.896625 
L 446.754748 303.896625 
L 446.754748 303.896625 
L 440.932059 303.896625 
z
" style="fill:#5e3c99;opacity:0.4;stroke:#ffffff;stroke-linejoin:miter;stroke-width:2;"/>
   </g>
   <g id="patch_84">
    <path clip-path="url(#pbd296486f0)" d="M 446.754748 303.896625 
L 452.577438 303.896625 
L 452.577438 303.896625 
L 446.754748 303.896625 
z
" style="fill:#5e3c99;opacity:0.4;stroke:#ffffff;stroke-linejoin:miter;stroke-width:2;"/>
   </g>
   <g id="patch_85">
    <path clip-path="url(#pbd296486f0)" d="M 452.577438 303.896625 
L 458.400128 303.896625 
L 458.400128 303.896625 
L 452.577438 303.896625 
z
" style="fill:#5e3c99;opacity:0.4;stroke:#ffffff;stroke-linejoin:miter;stroke-width:2;"/>
   </g>
   <g id="patch_86">
    <path clip-path="url(#pbd296486f0)" d="M 458.400128 303.896625 
L 464.222818 303.896625 
L 464.222818 303.896625 
L 458.400128 303.896625 
z
" style="fill:#5e3c99;opacity:0.4;stroke:#ffffff;stroke-linejoin:miter;stroke-width:2;"/>
   </g>
   <g id="patch_87">
    <path clip-path="url(#pbd296486f0)" d="M 464.222818 303.896625 
L 470.045507 303.896625 
L 470.045507 303.896625 
L 464.222818 303.896625 
z
" style="fill:#5e3c99;opacity:0.4;stroke:#ffffff;stroke-linejoin:miter;stroke-width:2;"/>
   </g>
   <g id="patch_88">
    <path clip-path="url(#pbd296486f0)" d="M 470.045507 303.896625 
L 475.868197 303.896625 
L 475.868197 303.896625 
L 470.045507 303.896625 
z
" style="fill:#5e3c99;opacity:0.4;stroke:#ffffff;stroke-linejoin:miter;stroke-width:2;"/>
   </g>
   <g id="patch_89">
    <path clip-path="url(#pbd296486f0)" d="M 475.868197 303.896625 
L 481.690887 303.896625 
L 481.690887 303.896625 
L 475.868197 303.896625 
z
" style="fill:#5e3c99;opacity:0.4;stroke:#ffffff;stroke-linejoin:miter;stroke-width:2;"/>
   </g>
   <g id="patch_90">
    <path clip-path="url(#pbd296486f0)" d="M 481.690887 303.896625 
L 487.513576 303.896625 
L 487.513576 303.896625 
L 481.690887 303.896625 
z
" style="fill:#5e3c99;opacity:0.4;stroke:#ffffff;stroke-linejoin:miter;stroke-width:2;"/>
   </g>
   <g id="patch_91">
    <path clip-path="url(#pbd296486f0)" d="M 487.513576 303.896625 
L 493.336266 303.896625 
L 493.336266 303.896625 
L 487.513576 303.896625 
z
" style="fill:#5e3c99;opacity:0.4;stroke:#ffffff;stroke-linejoin:miter;stroke-width:2;"/>
   </g>
   <g id="patch_92">
    <path clip-path="url(#pbd296486f0)" d="M 493.336266 303.896625 
L 499.158956 303.896625 
L 499.158956 303.896625 
L 493.336266 303.896625 
z
" style="fill:#5e3c99;opacity:0.4;stroke:#ffffff;stroke-linejoin:miter;stroke-width:2;"/>
   </g>
   <g id="patch_93">
    <path clip-path="url(#pbd296486f0)" d="M 499.158956 303.896625 
L 504.981646 303.896625 
L 504.981646 303.896625 
L 499.158956 303.896625 
z
" style="fill:#5e3c99;opacity:0.4;stroke:#ffffff;stroke-linejoin:miter;stroke-width:2;"/>
   </g>
   <g id="patch_94">
    <path clip-path="url(#pbd296486f0)" d="M 504.981646 303.896625 
L 510.804335 303.896625 
L 510.804335 303.896625 
L 504.981646 303.896625 
z
" style="fill:#5e3c99;opacity:0.4;stroke:#ffffff;stroke-linejoin:miter;stroke-width:2;"/>
   </g>
   <g id="patch_95">
    <path clip-path="url(#pbd296486f0)" d="M 510.804335 303.896625 
L 516.627025 303.896625 
L 516.627025 303.896625 
L 510.804335 303.896625 
z
" style="fill:#5e3c99;opacity:0.4;stroke:#ffffff;stroke-linejoin:miter;stroke-width:2;"/>
   </g>
   <g id="patch_96">
    <path clip-path="url(#pbd296486f0)" d="M 516.627025 303.896625 
L 522.449715 303.896625 
L 522.449715 303.896625 
L 516.627025 303.896625 
z
" style="fill:#5e3c99;opacity:0.4;stroke:#ffffff;stroke-linejoin:miter;stroke-width:2;"/>
   </g>
   <g id="patch_97">
    <path clip-path="url(#pbd296486f0)" d="M 522.449715 303.896625 
L 528.272404 303.896625 
L 528.272404 303.896625 
L 522.449715 303.896625 
z
" style="fill:#5e3c99;opacity:0.4;stroke:#ffffff;stroke-linejoin:miter;stroke-width:2;"/>
   </g>
   <g id="patch_98">
    <path clip-path="url(#pbd296486f0)" d="M 528.272404 303.896625 
L 534.095094 303.896625 
L 534.095094 303.896625 
L 528.272404 303.896625 
z
" style="fill:#5e3c99;opacity:0.4;stroke:#ffffff;stroke-linejoin:miter;stroke-width:2;"/>
   </g>
   <g id="patch_99">
    <path clip-path="url(#pbd296486f0)" d="M 534.095094 303.896625 
L 539.917784 303.896625 
L 539.917784 303.896625 
L 534.095094 303.896625 
z
" style="fill:#5e3c99;opacity:0.4;stroke:#ffffff;stroke-linejoin:miter;stroke-width:2;"/>
   </g>
   <g id="patch_100">
    <path clip-path="url(#pbd296486f0)" d="M 539.917784 303.896625 
L 545.740474 303.896625 
L 545.740474 303.896625 
L 539.917784 303.896625 
z
" style="fill:#5e3c99;opacity:0.4;stroke:#ffffff;stroke-linejoin:miter;stroke-width:2;"/>
   </g>
   <g id="patch_101">
    <path clip-path="url(#pbd296486f0)" d="M 545.740474 303.896625 
L 551.563163 303.896625 
L 551.563163 303.896625 
L 545.740474 303.896625 
z
" style="fill:#5e3c99;opacity:0.4;stroke:#ffffff;stroke-linejoin:miter;stroke-width:2;"/>
   </g>
   <g id="patch_102">
    <path clip-path="url(#pbd296486f0)" d="M -24.883118 303.896625 
L -19.060428 303.896625 
L -19.060428 303.896625 
L -24.883118 303.896625 
z
" style="fill:#e66101;opacity:0.4;stroke:#ffffff;stroke-linejoin:miter;stroke-width:2;"/>
   </g>
   <g id="patch_103">
    <path clip-path="url(#pbd296486f0)" d="M -19.060428 303.896625 
L -13.237738 303.896625 
L -13.237738 303.896625 
L -19.060428 303.896625 
z
" style="fill:#e66101;opacity:0.4;stroke:#ffffff;stroke-linejoin:miter;stroke-width:2;"/>
   </g>
   <g id="patch_104">
    <path clip-path="url(#pbd296486f0)" d="M -13.237738 303.896625 
L -7.415049 303.896625 
L -7.415049 303.896625 
L -13.237738 303.896625 
z
" style="fill:#e66101;opacity:0.4;stroke:#ffffff;stroke-linejoin:miter;stroke-width:2;"/>
   </g>
   <g id="patch_105">
    <path clip-path="url(#pbd296486f0)" d="M -7.415049 303.896625 
L -1.592359 303.896625 
L -1.592359 303.896625 
L -7.415049 303.896625 
z
" style="fill:#e66101;opacity:0.4;stroke:#ffffff;stroke-linejoin:miter;stroke-width:2;"/>
   </g>
   <g id="patch_106">
    <path clip-path="url(#pbd296486f0)" d="M -1.592359 303.896625 
L 4.230331 303.896625 
L 4.230331 303.896625 
L -1.592359 303.896625 
z
" style="fill:#e66101;opacity:0.4;stroke:#ffffff;stroke-linejoin:miter;stroke-width:2;"/>
   </g>
   <g id="patch_107">
    <path clip-path="url(#pbd296486f0)" d="M 4.230331 303.896625 
L 10.05302 303.896625 
L 10.05302 303.896625 
L 4.230331 303.896625 
z
" style="fill:#e66101;opacity:0.4;stroke:#ffffff;stroke-linejoin:miter;stroke-width:2;"/>
   </g>
   <g id="patch_108">
    <path clip-path="url(#pbd296486f0)" d="M 10.05302 303.896625 
L 15.87571 303.896625 
L 15.87571 303.896625 
L 10.05302 303.896625 
z
" style="fill:#e66101;opacity:0.4;stroke:#ffffff;stroke-linejoin:miter;stroke-width:2;"/>
   </g>
   <g id="patch_109">
    <path clip-path="url(#pbd296486f0)" d="M 15.87571 303.896625 
L 21.6984 303.896625 
L 21.6984 293.218768 
L 15.87571 293.218768 
z
" style="fill:#e66101;opacity:0.4;stroke:#ffffff;stroke-linejoin:miter;stroke-width:2;"/>
   </g>
   <g id="patch_110">
    <path clip-path="url(#pbd296486f0)" d="M 21.6984 303.896625 
L 27.52109 303.896625 
L 27.52109 303.896625 
L 21.6984 303.896625 
z
" style="fill:#e66101;opacity:0.4;stroke:#ffffff;stroke-linejoin:miter;stroke-width:2;"/>
   </g>
   <g id="patch_111">
    <path clip-path="url(#pbd296486f0)" d="M 27.52109 303.896625 
L 33.343779 303.896625 
L 33.343779 303.896625 
L 27.52109 303.896625 
z
" style="fill:#e66101;opacity:0.4;stroke:#ffffff;stroke-linejoin:miter;stroke-width:2;"/>
   </g>
   <g id="patch_112">
    <path clip-path="url(#pbd296486f0)" d="M 33.343779 303.896625 
L 39.166469 303.896625 
L 39.166469 303.896625 
L 33.343779 303.896625 
z
" style="fill:#e66101;opacity:0.4;stroke:#ffffff;stroke-linejoin:miter;stroke-width:2;"/>
   </g>
   <g id="patch_113">
    <path clip-path="url(#pbd296486f0)" d="M 39.166469 303.896625 
L 44.989159 303.896625 
L 44.989159 303.896625 
L 39.166469 303.896625 
z
" style="fill:#e66101;opacity:0.4;stroke:#ffffff;stroke-linejoin:miter;stroke-width:2;"/>
   </g>
   <g id="patch_114">
    <path clip-path="url(#pbd296486f0)" d="M 44.989159 303.896625 
L 50.811848 303.896625 
L 50.811848 303.896625 
L 44.989159 303.896625 
z
" style="fill:#e66101;opacity:0.4;stroke:#ffffff;stroke-linejoin:miter;stroke-width:2;"/>
   </g>
   <g id="patch_115">
    <path clip-path="url(#pbd296486f0)" d="M 50.811848 303.896625 
L 56.634538 303.896625 
L 56.634538 303.896625 
L 50.811848 303.896625 
z
" style="fill:#e66101;opacity:0.4;stroke:#ffffff;stroke-linejoin:miter;stroke-width:2;"/>
   </g>
   <g id="patch_116">
    <path clip-path="url(#pbd296486f0)" d="M 56.634538 303.896625 
L 62.457228 303.896625 
L 62.457228 303.896625 
L 56.634538 303.896625 
z
" style="fill:#e66101;opacity:0.4;stroke:#ffffff;stroke-linejoin:miter;stroke-width:2;"/>
   </g>
   <g id="patch_117">
    <path clip-path="url(#pbd296486f0)" d="M 62.457228 303.896625 
L 68.279918 303.896625 
L 68.279918 303.896625 
L 62.457228 303.896625 
z
" style="fill:#e66101;opacity:0.4;stroke:#ffffff;stroke-linejoin:miter;stroke-width:2;"/>
   </g>
   <g id="patch_118">
    <path clip-path="url(#pbd296486f0)" d="M 68.279918 303.896625 
L 74.102607 303.896625 
L 74.102607 303.896625 
L 68.279918 303.896625 
z
" style="fill:#e66101;opacity:0.4;stroke:#ffffff;stroke-linejoin:miter;stroke-width:2;"/>
   </g>
   <g id="patch_119">
    <path clip-path="url(#pbd296486f0)" d="M 74.102607 303.896625 
L 79.925297 303.896625 
L 79.925297 303.896625 
L 74.102607 303.896625 
z
" style="fill:#e66101;opacity:0.4;stroke:#ffffff;stroke-linejoin:miter;stroke-width:2;"/>
   </g>
   <g id="patch_120">
    <path clip-path="url(#pbd296486f0)" d="M 79.925297 303.896625 
L 85.747987 303.896625 
L 85.747987 303.896625 
L 79.925297 303.896625 
z
" style="fill:#e66101;opacity:0.4;stroke:#ffffff;stroke-linejoin:miter;stroke-width:2;"/>
   </g>
   <g id="patch_121">
    <path clip-path="url(#pbd296486f0)" d="M 85.747987 303.896625 
L 91.570676 303.896625 
L 91.570676 303.896625 
L 85.747987 303.896625 
z
" style="fill:#e66101;opacity:0.4;stroke:#ffffff;stroke-linejoin:miter;stroke-width:2;"/>
   </g>
   <g id="patch_122">
    <path clip-path="url(#pbd296486f0)" d="M 91.570676 303.896625 
L 97.393366 303.896625 
L 97.393366 303.896625 
L 91.570676 303.896625 
z
" style="fill:#e66101;opacity:0.4;stroke:#ffffff;stroke-linejoin:miter;stroke-width:2;"/>
   </g>
   <g id="patch_123">
    <path clip-path="url(#pbd296486f0)" d="M 97.393366 303.896625 
L 103.216056 303.896625 
L 103.216056 303.896625 
L 97.393366 303.896625 
z
" style="fill:#e66101;opacity:0.4;stroke:#ffffff;stroke-linejoin:miter;stroke-width:2;"/>
   </g>
   <g id="patch_124">
    <path clip-path="url(#pbd296486f0)" d="M 103.216056 303.896625 
L 109.038745 303.896625 
L 109.038745 303.896625 
L 103.216056 303.896625 
z
" style="fill:#e66101;opacity:0.4;stroke:#ffffff;stroke-linejoin:miter;stroke-width:2;"/>
   </g>
   <g id="patch_125">
    <path clip-path="url(#pbd296486f0)" d="M 109.038745 303.896625 
L 114.861435 303.896625 
L 114.861435 303.896625 
L 109.038745 303.896625 
z
" style="fill:#e66101;opacity:0.4;stroke:#ffffff;stroke-linejoin:miter;stroke-width:2;"/>
   </g>
   <g id="patch_126">
    <path clip-path="url(#pbd296486f0)" d="M 114.861435 303.896625 
L 120.684125 303.896625 
L 120.684125 303.896625 
L 114.861435 303.896625 
z
" style="fill:#e66101;opacity:0.4;stroke:#ffffff;stroke-linejoin:miter;stroke-width:2;"/>
   </g>
   <g id="patch_127">
    <path clip-path="url(#pbd296486f0)" d="M 120.684125 303.896625 
L 126.506815 303.896625 
L 126.506815 303.896625 
L 120.684125 303.896625 
z
" style="fill:#e66101;opacity:0.4;stroke:#ffffff;stroke-linejoin:miter;stroke-width:2;"/>
   </g>
   <g id="patch_128">
    <path clip-path="url(#pbd296486f0)" d="M 126.506815 303.896625 
L 132.329504 303.896625 
L 132.329504 303.896625 
L 126.506815 303.896625 
z
" style="fill:#e66101;opacity:0.4;stroke:#ffffff;stroke-linejoin:miter;stroke-width:2;"/>
   </g>
   <g id="patch_129">
    <path clip-path="url(#pbd296486f0)" d="M 132.329504 303.896625 
L 138.152194 303.896625 
L 138.152194 303.896625 
L 132.329504 303.896625 
z
" style="fill:#e66101;opacity:0.4;stroke:#ffffff;stroke-linejoin:miter;stroke-width:2;"/>
   </g>
   <g id="patch_130">
    <path clip-path="url(#pbd296486f0)" d="M 138.152194 303.896625 
L 143.974884 303.896625 
L 143.974884 293.218768 
L 138.152194 293.218768 
z
" style="fill:#e66101;opacity:0.4;stroke:#ffffff;stroke-linejoin:miter;stroke-width:2;"/>
   </g>
   <g id="patch_131">
    <path clip-path="url(#pbd296486f0)" d="M 143.974884 303.896625 
L 149.797573 303.896625 
L 149.797573 303.896625 
L 143.974884 303.896625 
z
" style="fill:#e66101;opacity:0.4;stroke:#ffffff;stroke-linejoin:miter;stroke-width:2;"/>
   </g>
   <g id="patch_132">
    <path clip-path="url(#pbd296486f0)" d="M 149.797573 303.896625 
L 155.620263 303.896625 
L 155.620263 271.863054 
L 149.797573 271.863054 
z
" style="fill:#e66101;opacity:0.4;stroke:#ffffff;stroke-linejoin:miter;stroke-width:2;"/>
   </g>
   <g id="patch_133">
    <path clip-path="url(#pbd296486f0)" d="M 155.620263 303.896625 
L 161.442953 303.896625 
L 161.442953 282.540911 
L 155.620263 282.540911 
z
" style="fill:#e66101;opacity:0.4;stroke:#ffffff;stroke-linejoin:miter;stroke-width:2;"/>
   </g>
   <g id="patch_134">
    <path clip-path="url(#pbd296486f0)" d="M 161.442953 303.896625 
L 167.265643 303.896625 
L 167.265643 229.151625 
L 161.442953 229.151625 
z
" style="fill:#e66101;opacity:0.4;stroke:#ffffff;stroke-linejoin:miter;stroke-width:2;"/>
   </g>
   <g id="patch_135">
    <path clip-path="url(#pbd296486f0)" d="M 167.265643 303.896625 
L 173.088332 303.896625 
L 173.088332 229.151625 
L 167.265643 229.151625 
z
" style="fill:#e66101;opacity:0.4;stroke:#ffffff;stroke-linejoin:miter;stroke-width:2;"/>
   </g>
   <g id="patch_136">
    <path clip-path="url(#pbd296486f0)" d="M 173.088332 303.896625 
L 178.911022 303.896625 
L 178.911022 122.373054 
L 173.088332 122.373054 
z
" style="fill:#e66101;opacity:0.4;stroke:#ffffff;stroke-linejoin:miter;stroke-width:2;"/>
   </g>
   <g id="patch_137">
    <path clip-path="url(#pbd296486f0)" d="M 178.911022 303.896625 
L 184.733712 303.896625 
L 184.733712 101.017339 
L 178.911022 101.017339 
z
" style="fill:#e66101;opacity:0.4;stroke:#ffffff;stroke-linejoin:miter;stroke-width:2;"/>
   </g>
   <g id="patch_138">
    <path clip-path="url(#pbd296486f0)" d="M 184.733712 303.896625 
L 190.556401 303.896625 
L 190.556401 58.305911 
L 184.733712 58.305911 
z
" style="fill:#e66101;opacity:0.4;stroke:#ffffff;stroke-linejoin:miter;stroke-width:2;"/>
   </g>
   <g id="patch_139">
    <path clip-path="url(#pbd296486f0)" d="M 190.556401 303.896625 
L 196.379091 303.896625 
L 196.379091 133.050911 
L 190.556401 133.050911 
z
" style="fill:#e66101;opacity:0.4;stroke:#ffffff;stroke-linejoin:miter;stroke-width:2;"/>
   </g>
   <g id="patch_140">
    <path clip-path="url(#pbd296486f0)" d="M 196.379091 303.896625 
L 202.201781 303.896625 
L 202.201781 218.473768 
L 196.379091 218.473768 
z
" style="fill:#e66101;opacity:0.4;stroke:#ffffff;stroke-linejoin:miter;stroke-width:2;"/>
   </g>
   <g id="patch_141">
    <path clip-path="url(#pbd296486f0)" d="M 202.201781 303.896625 
L 208.024471 303.896625 
L 208.024471 229.151625 
L 202.201781 229.151625 
z
" style="fill:#e66101;opacity:0.4;stroke:#ffffff;stroke-linejoin:miter;stroke-width:2;"/>
   </g>
   <g id="patch_142">
    <path clip-path="url(#pbd296486f0)" d="M 208.024471 303.896625 
L 213.84716 303.896625 
L 213.84716 261.185196 
L 208.024471 261.185196 
z
" style="fill:#e66101;opacity:0.4;stroke:#ffffff;stroke-linejoin:miter;stroke-width:2;"/>
   </g>
   <g id="patch_143">
    <path clip-path="url(#pbd296486f0)" d="M 213.84716 303.896625 
L 219.66985 303.896625 
L 219.66985 303.896625 
L 213.84716 303.896625 
z
" style="fill:#e66101;opacity:0.4;stroke:#ffffff;stroke-linejoin:miter;stroke-width:2;"/>
   </g>
   <g id="patch_144">
    <path clip-path="url(#pbd296486f0)" d="M 219.66985 303.896625 
L 225.49254 303.896625 
L 225.49254 303.896625 
L 219.66985 303.896625 
z
" style="fill:#e66101;opacity:0.4;stroke:#ffffff;stroke-linejoin:miter;stroke-width:2;"/>
   </g>
   <g id="patch_145">
    <path clip-path="url(#pbd296486f0)" d="M 225.49254 303.896625 
L 231.315229 303.896625 
L 231.315229 303.896625 
L 225.49254 303.896625 
z
" style="fill:#e66101;opacity:0.4;stroke:#ffffff;stroke-linejoin:miter;stroke-width:2;"/>
   </g>
   <g id="patch_146">
    <path clip-path="url(#pbd296486f0)" d="M 231.315229 303.896625 
L 237.137919 303.896625 
L 237.137919 303.896625 
L 231.315229 303.896625 
z
" style="fill:#e66101;opacity:0.4;stroke:#ffffff;stroke-linejoin:miter;stroke-width:2;"/>
   </g>
   <g id="patch_147">
    <path clip-path="url(#pbd296486f0)" d="M 237.137919 303.896625 
L 242.960609 303.896625 
L 242.960609 303.896625 
L 237.137919 303.896625 
z
" style="fill:#e66101;opacity:0.4;stroke:#ffffff;stroke-linejoin:miter;stroke-width:2;"/>
   </g>
   <g id="patch_148">
    <path clip-path="url(#pbd296486f0)" d="M 242.960609 303.896625 
L 248.783298 303.896625 
L 248.783298 303.896625 
L 242.960609 303.896625 
z
" style="fill:#e66101;opacity:0.4;stroke:#ffffff;stroke-linejoin:miter;stroke-width:2;"/>
   </g>
   <g id="patch_149">
    <path clip-path="url(#pbd296486f0)" d="M 248.783298 303.896625 
L 254.605988 303.896625 
L 254.605988 303.896625 
L 248.783298 303.896625 
z
" style="fill:#e66101;opacity:0.4;stroke:#ffffff;stroke-linejoin:miter;stroke-width:2;"/>
   </g>
   <g id="patch_150">
    <path clip-path="url(#pbd296486f0)" d="M 254.605988 303.896625 
L 260.428678 303.896625 
L 260.428678 303.896625 
L 254.605988 303.896625 
z
" style="fill:#e66101;opacity:0.4;stroke:#ffffff;stroke-linejoin:miter;stroke-width:2;"/>
   </g>
   <g id="patch_151">
    <path clip-path="url(#pbd296486f0)" d="M 260.428678 303.896625 
L 266.251368 303.896625 
L 266.251368 303.896625 
L 260.428678 303.896625 
z
" style="fill:#e66101;opacity:0.4;stroke:#ffffff;stroke-linejoin:miter;stroke-width:2;"/>
   </g>
   <g id="patch_152">
    <path clip-path="url(#pbd296486f0)" d="M 266.251368 303.896625 
L 272.074057 303.896625 
L 272.074057 293.218768 
L 266.251368 293.218768 
z
" style="fill:#e66101;opacity:0.4;stroke:#ffffff;stroke-linejoin:miter;stroke-width:2;"/>
   </g>
   <g id="patch_153">
    <path clip-path="url(#pbd296486f0)" d="M 272.074057 303.896625 
L 277.896747 303.896625 
L 277.896747 293.218768 
L 272.074057 293.218768 
z
" style="fill:#e66101;opacity:0.4;stroke:#ffffff;stroke-linejoin:miter;stroke-width:2;"/>
   </g>
   <g id="patch_154">
    <path clip-path="url(#pbd296486f0)" d="M 277.896747 303.896625 
L 283.719437 303.896625 
L 283.719437 303.896625 
L 277.896747 303.896625 
z
" style="fill:#e66101;opacity:0.4;stroke:#ffffff;stroke-linejoin:miter;stroke-width:2;"/>
   </g>
   <g id="patch_155">
    <path clip-path="url(#pbd296486f0)" d="M 283.719437 303.896625 
L 289.542126 303.896625 
L 289.542126 303.896625 
L 283.719437 303.896625 
z
" style="fill:#e66101;opacity:0.4;stroke:#ffffff;stroke-linejoin:miter;stroke-width:2;"/>
   </g>
   <g id="patch_156">
    <path clip-path="url(#pbd296486f0)" d="M 289.542126 303.896625 
L 295.364816 303.896625 
L 295.364816 303.896625 
L 289.542126 303.896625 
z
" style="fill:#e66101;opacity:0.4;stroke:#ffffff;stroke-linejoin:miter;stroke-width:2;"/>
   </g>
   <g id="patch_157">
    <path clip-path="url(#pbd296486f0)" d="M 295.364816 303.896625 
L 301.187506 303.896625 
L 301.187506 303.896625 
L 295.364816 303.896625 
z
" style="fill:#e66101;opacity:0.4;stroke:#ffffff;stroke-linejoin:miter;stroke-width:2;"/>
   </g>
   <g id="patch_158">
    <path clip-path="url(#pbd296486f0)" d="M 301.187506 303.896625 
L 307.010196 303.896625 
L 307.010196 303.896625 
L 301.187506 303.896625 
z
" style="fill:#e66101;opacity:0.4;stroke:#ffffff;stroke-linejoin:miter;stroke-width:2;"/>
   </g>
   <g id="patch_159">
    <path clip-path="url(#pbd296486f0)" d="M 307.010196 303.896625 
L 312.832885 303.896625 
L 312.832885 293.218768 
L 307.010196 293.218768 
z
" style="fill:#e66101;opacity:0.4;stroke:#ffffff;stroke-linejoin:miter;stroke-width:2;"/>
   </g>
   <g id="patch_160">
    <path clip-path="url(#pbd296486f0)" d="M 312.832885 303.896625 
L 318.655575 303.896625 
L 318.655575 293.218768 
L 312.832885 293.218768 
z
" style="fill:#e66101;opacity:0.4;stroke:#ffffff;stroke-linejoin:miter;stroke-width:2;"/>
   </g>
   <g id="patch_161">
    <path clip-path="url(#pbd296486f0)" d="M 318.655575 303.896625 
L 324.478265 303.896625 
L 324.478265 303.896625 
L 318.655575 303.896625 
z
" style="fill:#e66101;opacity:0.4;stroke:#ffffff;stroke-linejoin:miter;stroke-width:2;"/>
   </g>
   <g id="patch_162">
    <path clip-path="url(#pbd296486f0)" d="M 324.478265 303.896625 
L 330.300954 303.896625 
L 330.300954 282.540911 
L 324.478265 282.540911 
z
" style="fill:#e66101;opacity:0.4;stroke:#ffffff;stroke-linejoin:miter;stroke-width:2;"/>
   </g>
   <g id="patch_163">
    <path clip-path="url(#pbd296486f0)" d="M 330.300954 303.896625 
L 336.123644 303.896625 
L 336.123644 303.896625 
L 330.300954 303.896625 
z
" style="fill:#e66101;opacity:0.4;stroke:#ffffff;stroke-linejoin:miter;stroke-width:2;"/>
   </g>
   <g id="patch_164">
    <path clip-path="url(#pbd296486f0)" d="M 336.123644 303.896625 
L 341.946334 303.896625 
L 341.946334 282.540911 
L 336.123644 282.540911 
z
" style="fill:#e66101;opacity:0.4;stroke:#ffffff;stroke-linejoin:miter;stroke-width:2;"/>
   </g>
   <g id="patch_165">
    <path clip-path="url(#pbd296486f0)" d="M 341.946334 303.896625 
L 347.769023 303.896625 
L 347.769023 293.218768 
L 341.946334 293.218768 
z
" style="fill:#e66101;opacity:0.4;stroke:#ffffff;stroke-linejoin:miter;stroke-width:2;"/>
   </g>
   <g id="patch_166">
    <path clip-path="url(#pbd296486f0)" d="M 347.769023 303.896625 
L 353.591713 303.896625 
L 353.591713 303.896625 
L 347.769023 303.896625 
z
" style="fill:#e66101;opacity:0.4;stroke:#ffffff;stroke-linejoin:miter;stroke-width:2;"/>
   </g>
   <g id="patch_167">
    <path clip-path="url(#pbd296486f0)" d="M 353.591713 303.896625 
L 359.414403 303.896625 
L 359.414403 303.896625 
L 353.591713 303.896625 
z
" style="fill:#e66101;opacity:0.4;stroke:#ffffff;stroke-linejoin:miter;stroke-width:2;"/>
   </g>
   <g id="patch_168">
    <path clip-path="url(#pbd296486f0)" d="M 359.414403 303.896625 
L 365.237093 303.896625 
L 365.237093 303.896625 
L 359.414403 303.896625 
z
" style="fill:#e66101;opacity:0.4;stroke:#ffffff;stroke-linejoin:miter;stroke-width:2;"/>
   </g>
   <g id="patch_169">
    <path clip-path="url(#pbd296486f0)" d="M 365.237093 303.896625 
L 371.059782 303.896625 
L 371.059782 303.896625 
L 365.237093 303.896625 
z
" style="fill:#e66101;opacity:0.4;stroke:#ffffff;stroke-linejoin:miter;stroke-width:2;"/>
   </g>
   <g id="patch_170">
    <path clip-path="url(#pbd296486f0)" d="M 371.059782 303.896625 
L 376.882472 303.896625 
L 376.882472 303.896625 
L 371.059782 303.896625 
z
" style="fill:#e66101;opacity:0.4;stroke:#ffffff;stroke-linejoin:miter;stroke-width:2;"/>
   </g>
   <g id="patch_171">
    <path clip-path="url(#pbd296486f0)" d="M 376.882472 303.896625 
L 382.705162 303.896625 
L 382.705162 293.218768 
L 376.882472 293.218768 
z
" style="fill:#e66101;opacity:0.4;stroke:#ffffff;stroke-linejoin:miter;stroke-width:2;"/>
   </g>
   <g id="patch_172">
    <path clip-path="url(#pbd296486f0)" d="M 382.705162 303.896625 
L 388.527851 303.896625 
L 388.527851 303.896625 
L 382.705162 303.896625 
z
" style="fill:#e66101;opacity:0.4;stroke:#ffffff;stroke-linejoin:miter;stroke-width:2;"/>
   </g>
   <g id="patch_173">
    <path clip-path="url(#pbd296486f0)" d="M 388.527851 303.896625 
L 394.350541 303.896625 
L 394.350541 303.896625 
L 388.527851 303.896625 
z
" style="fill:#e66101;opacity:0.4;stroke:#ffffff;stroke-linejoin:miter;stroke-width:2;"/>
   </g>
   <g id="patch_174">
    <path clip-path="url(#pbd296486f0)" d="M 394.350541 303.896625 
L 400.173231 303.896625 
L 400.173231 303.896625 
L 394.350541 303.896625 
z
" style="fill:#e66101;opacity:0.4;stroke:#ffffff;stroke-linejoin:miter;stroke-width:2;"/>
   </g>
   <g id="patch_175">
    <path clip-path="url(#pbd296486f0)" d="M 400.173231 303.896625 
L 405.995921 303.896625 
L 405.995921 303.896625 
L 400.173231 303.896625 
z
" style="fill:#e66101;opacity:0.4;stroke:#ffffff;stroke-linejoin:miter;stroke-width:2;"/>
   </g>
   <g id="patch_176">
    <path clip-path="url(#pbd296486f0)" d="M 405.995921 303.896625 
L 411.81861 303.896625 
L 411.81861 303.896625 
L 405.995921 303.896625 
z
" style="fill:#e66101;opacity:0.4;stroke:#ffffff;stroke-linejoin:miter;stroke-width:2;"/>
   </g>
   <g id="patch_177">
    <path clip-path="url(#pbd296486f0)" d="M 411.81861 303.896625 
L 417.6413 303.896625 
L 417.6413 303.896625 
L 411.81861 303.896625 
z
" style="fill:#e66101;opacity:0.4;stroke:#ffffff;stroke-linejoin:miter;stroke-width:2;"/>
   </g>
   <g id="patch_178">
    <path clip-path="url(#pbd296486f0)" d="M 417.6413 303.896625 
L 423.46399 303.896625 
L 423.46399 303.896625 
L 417.6413 303.896625 
z
" style="fill:#e66101;opacity:0.4;stroke:#ffffff;stroke-linejoin:miter;stroke-width:2;"/>
   </g>
   <g id="patch_179">
    <path clip-path="url(#pbd296486f0)" d="M 423.46399 303.896625 
L 429.286679 303.896625 
L 429.286679 303.896625 
L 423.46399 303.896625 
z
" style="fill:#e66101;opacity:0.4;stroke:#ffffff;stroke-linejoin:miter;stroke-width:2;"/>
   </g>
   <g id="patch_180">
    <path clip-path="url(#pbd296486f0)" d="M 429.286679 303.896625 
L 435.109369 303.896625 
L 435.109369 303.896625 
L 429.286679 303.896625 
z
" style="fill:#e66101;opacity:0.4;stroke:#ffffff;stroke-linejoin:miter;stroke-width:2;"/>
   </g>
   <g id="patch_181">
    <path clip-path="url(#pbd296486f0)" d="M 435.109369 303.896625 
L 440.932059 303.896625 
L 440.932059 303.896625 
L 435.109369 303.896625 
z
" style="fill:#e66101;opacity:0.4;stroke:#ffffff;stroke-linejoin:miter;stroke-width:2;"/>
   </g>
   <g id="patch_182">
    <path clip-path="url(#pbd296486f0)" d="M 440.932059 303.896625 
L 446.754748 303.896625 
L 446.754748 303.896625 
L 440.932059 303.896625 
z
" style="fill:#e66101;opacity:0.4;stroke:#ffffff;stroke-linejoin:miter;stroke-width:2;"/>
   </g>
   <g id="patch_183">
    <path clip-path="url(#pbd296486f0)" d="M 446.754748 303.896625 
L 452.577438 303.896625 
L 452.577438 303.896625 
L 446.754748 303.896625 
z
" style="fill:#e66101;opacity:0.4;stroke:#ffffff;stroke-linejoin:miter;stroke-width:2;"/>
   </g>
   <g id="patch_184">
    <path clip-path="url(#pbd296486f0)" d="M 452.577438 303.896625 
L 458.400128 303.896625 
L 458.400128 303.896625 
L 452.577438 303.896625 
z
" style="fill:#e66101;opacity:0.4;stroke:#ffffff;stroke-linejoin:miter;stroke-width:2;"/>
   </g>
   <g id="patch_185">
    <path clip-path="url(#pbd296486f0)" d="M 458.400128 303.896625 
L 464.222818 303.896625 
L 464.222818 303.896625 
L 458.400128 303.896625 
z
" style="fill:#e66101;opacity:0.4;stroke:#ffffff;stroke-linejoin:miter;stroke-width:2;"/>
   </g>
   <g id="patch_186">
    <path clip-path="url(#pbd296486f0)" d="M 464.222818 303.896625 
L 470.045507 303.896625 
L 470.045507 303.896625 
L 464.222818 303.896625 
z
" style="fill:#e66101;opacity:0.4;stroke:#ffffff;stroke-linejoin:miter;stroke-width:2;"/>
   </g>
   <g id="patch_187">
    <path clip-path="url(#pbd296486f0)" d="M 470.045507 303.896625 
L 475.868197 303.896625 
L 475.868197 303.896625 
L 470.045507 303.896625 
z
" style="fill:#e66101;opacity:0.4;stroke:#ffffff;stroke-linejoin:miter;stroke-width:2;"/>
   </g>
   <g id="patch_188">
    <path clip-path="url(#pbd296486f0)" d="M 475.868197 303.896625 
L 481.690887 303.896625 
L 481.690887 303.896625 
L 475.868197 303.896625 
z
" style="fill:#e66101;opacity:0.4;stroke:#ffffff;stroke-linejoin:miter;stroke-width:2;"/>
   </g>
   <g id="patch_189">
    <path clip-path="url(#pbd296486f0)" d="M 481.690887 303.896625 
L 487.513576 303.896625 
L 487.513576 303.896625 
L 481.690887 303.896625 
z
" style="fill:#e66101;opacity:0.4;stroke:#ffffff;stroke-linejoin:miter;stroke-width:2;"/>
   </g>
   <g id="patch_190">
    <path clip-path="url(#pbd296486f0)" d="M 487.513576 303.896625 
L 493.336266 303.896625 
L 493.336266 303.896625 
L 487.513576 303.896625 
z
" style="fill:#e66101;opacity:0.4;stroke:#ffffff;stroke-linejoin:miter;stroke-width:2;"/>
   </g>
   <g id="patch_191">
    <path clip-path="url(#pbd296486f0)" d="M 493.336266 303.896625 
L 499.158956 303.896625 
L 499.158956 293.218768 
L 493.336266 293.218768 
z
" style="fill:#e66101;opacity:0.4;stroke:#ffffff;stroke-linejoin:miter;stroke-width:2;"/>
   </g>
   <g id="patch_192">
    <path clip-path="url(#pbd296486f0)" d="M 499.158956 303.896625 
L 504.981646 303.896625 
L 504.981646 303.896625 
L 499.158956 303.896625 
z
" style="fill:#e66101;opacity:0.4;stroke:#ffffff;stroke-linejoin:miter;stroke-width:2;"/>
   </g>
   <g id="patch_193">
    <path clip-path="url(#pbd296486f0)" d="M 504.981646 303.896625 
L 510.804335 303.896625 
L 510.804335 303.896625 
L 504.981646 303.896625 
z
" style="fill:#e66101;opacity:0.4;stroke:#ffffff;stroke-linejoin:miter;stroke-width:2;"/>
   </g>
   <g id="patch_194">
    <path clip-path="url(#pbd296486f0)" d="M 510.804335 303.896625 
L 516.627025 303.896625 
L 516.627025 303.896625 
L 510.804335 303.896625 
z
" style="fill:#e66101;opacity:0.4;stroke:#ffffff;stroke-linejoin:miter;stroke-width:2;"/>
   </g>
   <g id="patch_195">
    <path clip-path="url(#pbd296486f0)" d="M 516.627025 303.896625 
L 522.449715 303.896625 
L 522.449715 303.896625 
L 516.627025 303.896625 
z
" style="fill:#e66101;opacity:0.4;stroke:#ffffff;stroke-linejoin:miter;stroke-width:2;"/>
   </g>
   <g id="patch_196">
    <path clip-path="url(#pbd296486f0)" d="M 522.449715 303.896625 
L 528.272404 303.896625 
L 528.272404 303.896625 
L 522.449715 303.896625 
z
" style="fill:#e66101;opacity:0.4;stroke:#ffffff;stroke-linejoin:miter;stroke-width:2;"/>
   </g>
   <g id="patch_197">
    <path clip-path="url(#pbd296486f0)" d="M 528.272404 303.896625 
L 534.095094 303.896625 
L 534.095094 303.896625 
L 528.272404 303.896625 
z
" style="fill:#e66101;opacity:0.4;stroke:#ffffff;stroke-linejoin:miter;stroke-width:2;"/>
   </g>
   <g id="patch_198">
    <path clip-path="url(#pbd296486f0)" d="M 534.095094 303.896625 
L 539.917784 303.896625 
L 539.917784 303.896625 
L 534.095094 303.896625 
z
" style="fill:#e66101;opacity:0.4;stroke:#ffffff;stroke-linejoin:miter;stroke-width:2;"/>
   </g>
   <g id="patch_199">
    <path clip-path="url(#pbd296486f0)" d="M 539.917784 303.896625 
L 545.740474 303.896625 
L 545.740474 303.896625 
L 539.917784 303.896625 
z
" style="fill:#e66101;opacity:0.4;stroke:#ffffff;stroke-linejoin:miter;stroke-width:2;"/>
   </g>
   <g id="patch_200">
    <path clip-path="url(#pbd296486f0)" d="M 545.740474 303.896625 
L 551.563163 303.896625 
L 551.563163 303.896625 
L 545.740474 303.896625 
z
" style="fill:#e66101;opacity:0.4;stroke:#ffffff;stroke-linejoin:miter;stroke-width:2;"/>
   </g>
   <g id="patch_201">
    <path clip-path="url(#pbd296486f0)" d="M 384.393742 303.896625 
L 390.158205 276.716625 
L 395.922667 303.896625 
z
" style="fill:#808080;stroke:#808080;stroke-linejoin:miter;stroke-width:2;"/>
   </g>
   <g id="line2d_8">
    <path clip-path="url(#pbd296486f0)" d="M 263.340023 303.896625 
L 263.340023 100.046625 
" style="fill:none;stroke:#000000;stroke-dasharray:9.25,4;stroke-dashoffset:0;stroke-width:2.5;"/>
   </g>
   <g id="line2d_9">
    <defs>
     <path d="M 0 -5 
L -5 5 
L 5 5 
z
" id="mab391ad57e" style="stroke:#808080;stroke-linejoin:miter;"/>
    </defs>
    <g clip-path="url(#pbd296486f0)"/>
   </g>
   <g id="line2d_10">
    <path clip-path="url(#pbd296486f0)" d="M -1 303.895817 
L 79.942555 303.785699 
L 105.38653 303.510356 
L 120.652915 303.134627 
L 130.830505 302.732119 
L 141.008095 302.157571 
L 151.185685 301.358766 
L 161.363275 300.277487 
L 171.540865 298.853195 
L 181.718455 297.028629 
L 186.80725 295.951042 
L 191.896046 294.757234 
L 196.984841 293.4445 
L 202.073636 292.01194 
L 212.251226 288.794387 
L 222.428816 285.143307 
L 232.606406 281.140511 
L 247.872791 274.766216 
L 258.050381 270.529056 
L 268.227971 266.547044 
L 273.316766 264.721534 
L 278.405561 263.043047 
L 283.494356 261.537598 
L 288.583151 260.229194 
L 293.671946 259.139197 
L 298.760741 258.285751 
L 303.849536 257.683274 
L 308.938331 257.342054 
L 314.027126 257.267959 
L 319.115921 257.462266 
L 324.204716 257.921627 
L 329.293511 258.638164 
L 334.382306 259.599694 
L 339.471101 260.790072 
L 344.559896 262.189645 
L 349.648691 263.775787 
L 354.737486 265.523511 
L 364.915076 269.395875 
L 375.092666 273.58472 
L 395.447846 282.062682 
L 405.625437 285.996073 
L 415.803027 289.555478 
L 420.891822 291.170789 
L 425.980617 292.669087 
L 431.069412 294.047933 
L 436.158207 295.307115 
L 441.247002 296.44838 
L 451.424592 298.392192 
L 461.602182 299.921467 
L 469.767295 300.876295 
L 469.767295 300.876295 
" style="fill:none;"/>
   </g>
   <g id="line2d_11">
    <path clip-path="url(#pbd296486f0)" d="M -1 303.860306 
L 23.351431 303.693443 
L 38.325571 303.37257 
L 47.310055 303.008741 
L 56.294539 302.43815 
L 62.284195 301.900767 
L 68.273851 301.202681 
L 74.263507 300.310085 
L 80.253162 299.186948 
L 86.242818 297.796555 
L 92.232474 296.103588 
L 98.22213 294.076729 
L 104.211786 291.691693 
L 110.201442 288.934542 
L 116.191098 285.805023 
L 122.180754 282.319666 
L 128.17041 278.514281 
L 134.160066 274.445529 
L 143.14455 268.024339 
L 155.123861 259.426526 
L 161.113517 255.394027 
L 167.103173 251.718296 
L 170.098001 250.055596 
L 173.092829 248.530568 
L 176.087657 247.157726 
L 179.082485 245.950382 
L 182.077313 244.920434 
L 185.072141 244.078166 
L 188.066969 243.432079 
L 191.061797 242.988753 
L 194.056625 242.752726 
L 197.051453 242.726426 
L 200.046281 242.910124 
L 203.041109 243.301929 
L 206.035937 243.897824 
L 209.030765 244.691733 
L 212.025593 245.675622 
L 215.02042 246.839638 
L 218.015248 248.17227 
L 221.010076 249.66054 
L 226.999732 253.046024 
L 232.989388 256.871267 
L 238.979044 261.002641 
L 262.937668 278.018304 
L 268.927324 281.860173 
L 274.91698 285.387943 
L 280.906636 288.563256 
L 286.896291 291.367292 
L 292.885947 293.798365 
L 298.875603 295.868883 
L 304.865259 297.602019 
L 310.854915 299.028385 
L 316.844571 300.182953 
L 322.834227 301.102386 
L 328.823883 301.822898 
L 337.808367 302.604552 
L 346.792851 303.116102 
L 358.772162 303.516771 
L 373.746302 303.753715 
L 397.704926 303.871613 
L 469.767295 303.89659 
L 469.767295 303.89659 
" style="fill:none;"/>
   </g>
   <g id="patch_202">
    <path d="M 73.11275 303.896625 
L 73.11275 32.096625 
" style="fill:none;stroke:#262626;stroke-linecap:square;stroke-linejoin:miter;stroke-width:2.5;"/>
   </g>
   <g id="patch_203">
    <path d="M 73.11275 303.896625 
L 453.567295 303.896625 
" style="fill:none;stroke:#262626;stroke-linecap:square;stroke-linejoin:miter;stroke-width:2.5;"/>
   </g>
   <g id="text_10">
    <!-- model: memory bias -->
    <defs>
     <path d="M 6.59375 0 
L 6.59375 51.859375 
L 14.453125 51.859375 
L 14.453125 44.578125 
Q 16.890625 48.390625 20.9375 50.703125 
Q 25 53.03125 30.171875 53.03125 
Q 35.9375 53.03125 39.625 50.640625 
Q 43.3125 48.25 44.828125 43.953125 
Q 50.984375 53.03125 60.84375 53.03125 
Q 68.5625 53.03125 72.703125 48.75 
Q 76.859375 44.484375 76.859375 35.59375 
L 76.859375 0 
L 68.109375 0 
L 68.109375 32.671875 
Q 68.109375 37.9375 67.25 40.25 
Q 66.40625 42.578125 64.15625 43.984375 
Q 61.921875 45.40625 58.890625 45.40625 
Q 53.421875 45.40625 49.796875 41.765625 
Q 46.1875 38.140625 46.1875 30.125 
L 46.1875 0 
L 37.40625 0 
L 37.40625 33.6875 
Q 37.40625 39.546875 35.25 42.46875 
Q 33.109375 45.40625 28.21875 45.40625 
Q 24.515625 45.40625 21.359375 43.453125 
Q 18.21875 41.5 16.796875 37.734375 
Q 15.375 33.984375 15.375 26.90625 
L 15.375 0 
z
" id="ArialMT-109"/>
     <path d="M 6.390625 0 
L 6.390625 71.578125 
L 15.1875 71.578125 
L 15.1875 0 
z
" id="ArialMT-108"/>
     <path d="M 9.03125 41.84375 
L 9.03125 51.859375 
L 19.046875 51.859375 
L 19.046875 41.84375 
z
M 9.03125 0 
L 9.03125 10.015625 
L 19.046875 10.015625 
L 19.046875 0 
z
" id="ArialMT-58"/>
     <path d="M 14.703125 0 
L 6.546875 0 
L 6.546875 71.578125 
L 15.328125 71.578125 
L 15.328125 46.046875 
Q 20.90625 53.03125 29.546875 53.03125 
Q 34.328125 53.03125 38.59375 51.09375 
Q 42.875 49.171875 45.625 45.671875 
Q 48.390625 42.1875 49.953125 37.25 
Q 51.515625 32.328125 51.515625 26.703125 
Q 51.515625 13.375 44.921875 6.09375 
Q 38.328125 -1.171875 29.109375 -1.171875 
Q 19.921875 -1.171875 14.703125 6.5 
z
M 14.59375 26.3125 
Q 14.59375 17 17.140625 12.84375 
Q 21.296875 6.0625 28.375 6.0625 
Q 34.125 6.0625 38.328125 11.0625 
Q 42.53125 16.0625 42.53125 25.984375 
Q 42.53125 36.140625 38.5 40.96875 
Q 34.46875 45.796875 28.765625 45.796875 
Q 23 45.796875 18.796875 40.796875 
Q 14.59375 35.796875 14.59375 26.3125 
z
" id="ArialMT-98"/>
    </defs>
    <g style="fill:#262626;" transform="translate(144.509085 26.096625)scale(0.264 -0.264)">
     <use xlink:href="#ArialMT-109"/>
     <use x="83.300781" xlink:href="#ArialMT-111"/>
     <use x="138.916016" xlink:href="#ArialMT-100"/>
     <use x="194.53125" xlink:href="#ArialMT-101"/>
     <use x="250.146484" xlink:href="#ArialMT-108"/>
     <use x="272.363281" xlink:href="#ArialMT-58"/>
     <use x="300.146484" xlink:href="#ArialMT-32"/>
     <use x="327.929688" xlink:href="#ArialMT-109"/>
     <use x="411.230469" xlink:href="#ArialMT-101"/>
     <use x="466.845703" xlink:href="#ArialMT-109"/>
     <use x="550.146484" xlink:href="#ArialMT-111"/>
     <use x="605.761719" xlink:href="#ArialMT-114"/>
     <use x="639.0625" xlink:href="#ArialMT-121"/>
     <use x="689.0625" xlink:href="#ArialMT-32"/>
     <use x="716.845703" xlink:href="#ArialMT-98"/>
     <use x="772.460938" xlink:href="#ArialMT-105"/>
     <use x="794.677734" xlink:href="#ArialMT-97"/>
     <use x="850.292969" xlink:href="#ArialMT-115"/>
    </g>
   </g>
   <g id="legend_1">
    <g id="line2d_12">
     <path d="M 284.522295 52.349125 
L 316.522295 52.349125 
" style="fill:none;stroke:#000000;stroke-dasharray:9.25,4;stroke-dashoffset:0;stroke-width:2.5;"/>
    </g>
    <g id="line2d_13"/>
    <g id="text_11">
     <!-- target -->
     <g style="fill:#262626;" transform="translate(329.322295 57.949125)scale(0.16 -0.16)">
      <use xlink:href="#ArialMT-116"/>
      <use x="27.783203" xlink:href="#ArialMT-97"/>
      <use x="83.398438" xlink:href="#ArialMT-114"/>
      <use x="116.699219" xlink:href="#ArialMT-103"/>
      <use x="172.314453" xlink:href="#ArialMT-101"/>
      <use x="227.929688" xlink:href="#ArialMT-116"/>
     </g>
    </g>
    <g id="line2d_14"/>
    <g id="line2d_15">
     <g>
      <use style="fill:#808080;stroke:#808080;stroke-linejoin:miter;" x="300.522295" xlink:href="#mab391ad57e" y="75.169125"/>
     </g>
    </g>
    <g id="text_12">
     <!-- NT -->
     <defs>
      <path d="M 7.625 0 
L 7.625 71.578125 
L 17.328125 71.578125 
L 54.9375 15.375 
L 54.9375 71.578125 
L 64.015625 71.578125 
L 64.015625 0 
L 54.296875 0 
L 16.703125 56.25 
L 16.703125 0 
z
" id="ArialMT-78"/>
      <path d="M 25.921875 0 
L 25.921875 63.140625 
L 2.34375 63.140625 
L 2.34375 71.578125 
L 59.078125 71.578125 
L 59.078125 63.140625 
L 35.40625 63.140625 
L 35.40625 0 
z
" id="ArialMT-84"/>
     </defs>
     <g style="fill:#262626;" transform="translate(329.322295 80.769125)scale(0.16 -0.16)">
      <use xlink:href="#ArialMT-78"/>
      <use x="72.216797" xlink:href="#ArialMT-84"/>
     </g>
    </g>
    <g id="patch_204">
     <path d="M 284.522295 103.401625 
L 316.522295 103.401625 
L 316.522295 92.201625 
L 284.522295 92.201625 
z
" style="fill:#e66101;opacity:0.4;stroke:#e66101;stroke-linejoin:miter;stroke-width:2;"/>
    </g>
    <g id="text_13">
     <!-- radius 1: k=300 -->
     <defs>
      <path d="M 6.640625 0 
L 6.640625 71.578125 
L 15.4375 71.578125 
L 15.4375 30.765625 
L 36.234375 51.859375 
L 47.609375 51.859375 
L 27.78125 32.625 
L 49.609375 0 
L 38.765625 0 
L 21.625 26.515625 
L 15.4375 20.5625 
L 15.4375 0 
z
" id="ArialMT-107"/>
      <path d="M 52.828125 42.09375 
L 5.5625 42.09375 
L 5.5625 50.296875 
L 52.828125 50.296875 
z
M 52.828125 20.359375 
L 5.5625 20.359375 
L 5.5625 28.5625 
L 52.828125 28.5625 
z
" id="ArialMT-61"/>
     </defs>
     <g style="fill:#e66101;" transform="translate(329.322295 103.401625)scale(0.16 -0.16)">
      <use xlink:href="#ArialMT-114"/>
      <use x="33.300781" xlink:href="#ArialMT-97"/>
      <use x="88.916016" xlink:href="#ArialMT-100"/>
      <use x="144.53125" xlink:href="#ArialMT-105"/>
      <use x="166.748047" xlink:href="#ArialMT-117"/>
      <use x="222.363281" xlink:href="#ArialMT-115"/>
      <use x="272.363281" xlink:href="#ArialMT-32"/>
      <use x="300.146484" xlink:href="#ArialMT-49"/>
      <use x="355.761719" xlink:href="#ArialMT-58"/>
      <use x="383.544922" xlink:href="#ArialMT-32"/>
      <use x="411.328125" xlink:href="#ArialMT-107"/>
      <use x="461.328125" xlink:href="#ArialMT-61"/>
      <use x="519.726562" xlink:href="#ArialMT-51"/>
      <use x="575.341797" xlink:href="#ArialMT-48"/>
      <use x="630.957031" xlink:href="#ArialMT-48"/>
     </g>
    </g>
    <g id="patch_205">
     <path d="M 284.522295 126.034125 
L 316.522295 126.034125 
L 316.522295 114.834125 
L 284.522295 114.834125 
z
" style="fill:#5e3c99;opacity:0.4;stroke:#5e3c99;stroke-linejoin:miter;stroke-width:2;"/>
    </g>
    <g id="text_14">
     <!-- radius 3: k=225 -->
     <g style="fill:#5e3c99;" transform="translate(329.322295 126.034125)scale(0.16 -0.16)">
      <use xlink:href="#ArialMT-114"/>
      <use x="33.300781" xlink:href="#ArialMT-97"/>
      <use x="88.916016" xlink:href="#ArialMT-100"/>
      <use x="144.53125" xlink:href="#ArialMT-105"/>
      <use x="166.748047" xlink:href="#ArialMT-117"/>
      <use x="222.363281" xlink:href="#ArialMT-115"/>
      <use x="272.363281" xlink:href="#ArialMT-32"/>
      <use x="300.146484" xlink:href="#ArialMT-51"/>
      <use x="355.761719" xlink:href="#ArialMT-58"/>
      <use x="383.544922" xlink:href="#ArialMT-32"/>
      <use x="411.328125" xlink:href="#ArialMT-107"/>
      <use x="461.328125" xlink:href="#ArialMT-61"/>
      <use x="519.726562" xlink:href="#ArialMT-50"/>
      <use x="575.341797" xlink:href="#ArialMT-50"/>
      <use x="630.957031" xlink:href="#ArialMT-53"/>
     </g>
    </g>
   </g>
  </g>
 </g>
 <defs>
  <clipPath id="pbd296486f0">
   <rect height="271.8" width="380.454545" x="73.11275" y="32.096625"/>
  </clipPath>
 </defs>
</svg>
