<?xml version="1.0" encoding="utf-8" standalone="no"?>
<!DOCTYPE svg PUBLIC "-//W3C//DTD SVG 1.1//EN"
  "http://www.w3.org/Graphics/SVG/1.1/DTD/svg11.dtd">
<!-- Created with matplotlib (https://matplotlib.org/) -->
<svg height="323.448281pt" version="1.1" viewBox="0 0 433.371781 323.448281" width="433.371781pt" xmlns="http://www.w3.org/2000/svg" xmlns:xlink="http://www.w3.org/1999/xlink">
 <defs>
  <style type="text/css">
*{stroke-linecap:butt;stroke-linejoin:round;}
  </style>
 </defs>
 <g id="figure_1">
  <g id="patch_1">
   <path d="M 0 323.448281 
L 433.371781 323.448281 
L 433.371781 0 
L 0 0 
z
" style="fill:none;"/>
  </g>
  <g id="axes_1">
   <g id="patch_2">
    <path d="M 79.371781 249.536625 
L 414.171781 249.536625 
L 414.171781 32.096625 
L 79.371781 32.096625 
z
" style="fill:#ffffff;"/>
   </g>
   <g id="matplotlib.axis_1">
    <g id="xtick_1">
     <g id="line2d_1">
      <defs>
       <path d="M 0 0 
L 0 12 
" id="mb9862b7e54" style="stroke:#262626;stroke-width:2.5;"/>
      </defs>
      <g>
       <use style="fill:#262626;stroke:#262626;stroke-width:2.5;" x="135.171781" xlink:href="#mb9862b7e54" y="249.536625"/>
      </g>
     </g>
     <g id="text_1">
      <!-- 12 -->
      <defs>
       <path d="M 37.25 0 
L 28.46875 0 
L 28.46875 56 
Q 25.296875 52.984375 20.140625 49.953125 
Q 14.984375 46.921875 10.890625 45.40625 
L 10.890625 53.90625 
Q 18.265625 57.375 23.78125 62.296875 
Q 29.296875 67.234375 31.59375 71.875 
L 37.25 71.875 
z
" id="ArialMT-49"/>
       <path d="M 50.34375 8.453125 
L 50.34375 0 
L 3.03125 0 
Q 2.9375 3.171875 4.046875 6.109375 
Q 5.859375 10.9375 9.828125 15.625 
Q 13.8125 20.3125 21.34375 26.46875 
Q 33.015625 36.03125 37.109375 41.625 
Q 41.21875 47.21875 41.21875 52.203125 
Q 41.21875 57.421875 37.46875 61 
Q 33.734375 64.59375 27.734375 64.59375 
Q 21.390625 64.59375 17.578125 60.78125 
Q 13.765625 56.984375 13.71875 50.25 
L 4.6875 51.171875 
Q 5.609375 61.28125 11.65625 66.578125 
Q 17.71875 71.875 27.9375 71.875 
Q 38.234375 71.875 44.234375 66.15625 
Q 50.25 60.453125 50.25 52 
Q 50.25 47.703125 48.484375 43.546875 
Q 46.734375 39.40625 42.65625 34.8125 
Q 38.578125 30.21875 29.109375 22.21875 
Q 21.1875 15.578125 18.9375 13.203125 
Q 16.703125 10.84375 15.234375 8.453125 
z
" id="ArialMT-50"/>
      </defs>
      <g style="fill:#262626;" transform="translate(121.714313 282.358531)scale(0.242 -0.242)">
       <use xlink:href="#ArialMT-49"/>
       <use x="55.615234" xlink:href="#ArialMT-50"/>
      </g>
     </g>
    </g>
    <g id="xtick_2">
     <g id="line2d_2">
      <g>
       <use style="fill:#262626;stroke:#262626;stroke-width:2.5;" x="246.771781" xlink:href="#mb9862b7e54" y="249.536625"/>
      </g>
     </g>
     <g id="text_2">
      <!-- 16 -->
      <defs>
       <path d="M 49.75 54.046875 
L 41.015625 53.375 
Q 39.84375 58.546875 37.703125 60.890625 
Q 34.125 64.65625 28.90625 64.65625 
Q 24.703125 64.65625 21.53125 62.3125 
Q 17.390625 59.28125 14.984375 53.46875 
Q 12.59375 47.65625 12.5 36.921875 
Q 15.671875 41.75 20.265625 44.09375 
Q 24.859375 46.4375 29.890625 46.4375 
Q 38.671875 46.4375 44.84375 39.96875 
Q 51.03125 33.5 51.03125 23.25 
Q 51.03125 16.5 48.125 10.71875 
Q 45.21875 4.9375 40.140625 1.859375 
Q 35.0625 -1.21875 28.609375 -1.21875 
Q 17.625 -1.21875 10.6875 6.859375 
Q 3.765625 14.9375 3.765625 33.5 
Q 3.765625 54.25 11.421875 63.671875 
Q 18.109375 71.875 29.4375 71.875 
Q 37.890625 71.875 43.28125 67.140625 
Q 48.6875 62.40625 49.75 54.046875 
z
M 13.875 23.1875 
Q 13.875 18.65625 15.796875 14.5 
Q 17.71875 10.359375 21.1875 8.171875 
Q 24.65625 6 28.46875 6 
Q 34.03125 6 38.03125 10.484375 
Q 42.046875 14.984375 42.046875 22.703125 
Q 42.046875 30.125 38.078125 34.390625 
Q 34.125 38.671875 28.125 38.671875 
Q 22.171875 38.671875 18.015625 34.390625 
Q 13.875 30.125 13.875 23.1875 
z
" id="ArialMT-54"/>
      </defs>
      <g style="fill:#262626;" transform="translate(233.314312 282.358531)scale(0.242 -0.242)">
       <use xlink:href="#ArialMT-49"/>
       <use x="55.615234" xlink:href="#ArialMT-54"/>
      </g>
     </g>
    </g>
    <g id="xtick_3">
     <g id="line2d_3">
      <g>
       <use style="fill:#262626;stroke:#262626;stroke-width:2.5;" x="358.371781" xlink:href="#mb9862b7e54" y="249.536625"/>
      </g>
     </g>
     <g id="text_3">
      <!-- 20 -->
      <defs>
       <path d="M 4.15625 35.296875 
Q 4.15625 48 6.765625 55.734375 
Q 9.375 63.484375 14.515625 67.671875 
Q 19.671875 71.875 27.484375 71.875 
Q 33.25 71.875 37.59375 69.546875 
Q 41.9375 67.234375 44.765625 62.859375 
Q 47.609375 58.5 49.21875 52.21875 
Q 50.828125 45.953125 50.828125 35.296875 
Q 50.828125 22.703125 48.234375 14.96875 
Q 45.65625 7.234375 40.5 3 
Q 35.359375 -1.21875 27.484375 -1.21875 
Q 17.140625 -1.21875 11.234375 6.203125 
Q 4.15625 15.140625 4.15625 35.296875 
z
M 13.1875 35.296875 
Q 13.1875 17.671875 17.3125 11.828125 
Q 21.4375 6 27.484375 6 
Q 33.546875 6 37.671875 11.859375 
Q 41.796875 17.71875 41.796875 35.296875 
Q 41.796875 52.984375 37.671875 58.78125 
Q 33.546875 64.59375 27.390625 64.59375 
Q 21.34375 64.59375 17.71875 59.46875 
Q 13.1875 52.9375 13.1875 35.296875 
z
" id="ArialMT-48"/>
      </defs>
      <g style="fill:#262626;" transform="translate(344.914313 282.358531)scale(0.242 -0.242)">
       <use xlink:href="#ArialMT-50"/>
       <use x="55.615234" xlink:href="#ArialMT-48"/>
      </g>
     </g>
    </g>
    <g id="text_4">
     <!-- distance T - NT ($^\circ$) -->
     <defs>
      <path d="M 40.234375 0 
L 40.234375 6.546875 
Q 35.296875 -1.171875 25.734375 -1.171875 
Q 19.53125 -1.171875 14.328125 2.25 
Q 9.125 5.671875 6.265625 11.796875 
Q 3.421875 17.921875 3.421875 25.875 
Q 3.421875 33.640625 6 39.96875 
Q 8.59375 46.296875 13.765625 49.65625 
Q 18.953125 53.03125 25.34375 53.03125 
Q 30.03125 53.03125 33.6875 51.046875 
Q 37.359375 49.078125 39.65625 45.90625 
L 39.65625 71.578125 
L 48.390625 71.578125 
L 48.390625 0 
z
M 12.453125 25.875 
Q 12.453125 15.921875 16.640625 10.984375 
Q 20.84375 6.0625 26.5625 6.0625 
Q 32.328125 6.0625 36.34375 10.765625 
Q 40.375 15.484375 40.375 25.140625 
Q 40.375 35.796875 36.265625 40.765625 
Q 32.171875 45.75 26.171875 45.75 
Q 20.3125 45.75 16.375 40.96875 
Q 12.453125 36.1875 12.453125 25.875 
z
" id="ArialMT-100"/>
      <path d="M 6.640625 61.46875 
L 6.640625 71.578125 
L 15.4375 71.578125 
L 15.4375 61.46875 
z
M 6.640625 0 
L 6.640625 51.859375 
L 15.4375 51.859375 
L 15.4375 0 
z
" id="ArialMT-105"/>
      <path d="M 3.078125 15.484375 
L 11.765625 16.84375 
Q 12.5 11.625 15.84375 8.84375 
Q 19.1875 6.0625 25.203125 6.0625 
Q 31.25 6.0625 34.171875 8.515625 
Q 37.109375 10.984375 37.109375 14.3125 
Q 37.109375 17.28125 34.515625 19 
Q 32.71875 20.171875 25.53125 21.96875 
Q 15.875 24.421875 12.140625 26.203125 
Q 8.40625 27.984375 6.46875 31.125 
Q 4.546875 34.28125 4.546875 38.09375 
Q 4.546875 41.546875 6.125 44.5 
Q 7.71875 47.46875 10.453125 49.421875 
Q 12.5 50.921875 16.03125 51.96875 
Q 19.578125 53.03125 23.640625 53.03125 
Q 29.734375 53.03125 34.34375 51.265625 
Q 38.96875 49.515625 41.15625 46.5 
Q 43.359375 43.5 44.1875 38.484375 
L 35.59375 37.3125 
Q 35.015625 41.3125 32.203125 43.546875 
Q 29.390625 45.796875 24.265625 45.796875 
Q 18.21875 45.796875 15.625 43.796875 
Q 13.03125 41.796875 13.03125 39.109375 
Q 13.03125 37.40625 14.109375 36.03125 
Q 15.1875 34.625 17.484375 33.6875 
Q 18.796875 33.203125 25.25 31.453125 
Q 34.578125 28.953125 38.25 27.359375 
Q 41.9375 25.78125 44.03125 22.75 
Q 46.140625 19.734375 46.140625 15.234375 
Q 46.140625 10.84375 43.578125 6.953125 
Q 41.015625 3.078125 36.171875 0.953125 
Q 31.34375 -1.171875 25.25 -1.171875 
Q 15.140625 -1.171875 9.84375 3.03125 
Q 4.546875 7.234375 3.078125 15.484375 
z
" id="ArialMT-115"/>
      <path d="M 25.78125 7.859375 
L 27.046875 0.09375 
Q 23.34375 -0.6875 20.40625 -0.6875 
Q 15.625 -0.6875 12.984375 0.828125 
Q 10.359375 2.34375 9.28125 4.8125 
Q 8.203125 7.28125 8.203125 15.1875 
L 8.203125 45.015625 
L 1.765625 45.015625 
L 1.765625 51.859375 
L 8.203125 51.859375 
L 8.203125 64.703125 
L 16.9375 69.96875 
L 16.9375 51.859375 
L 25.78125 51.859375 
L 25.78125 45.015625 
L 16.9375 45.015625 
L 16.9375 14.703125 
Q 16.9375 10.9375 17.40625 9.859375 
Q 17.875 8.796875 18.921875 8.15625 
Q 19.96875 7.515625 21.921875 7.515625 
Q 23.390625 7.515625 25.78125 7.859375 
z
" id="ArialMT-116"/>
      <path d="M 40.4375 6.390625 
Q 35.546875 2.25 31.03125 0.53125 
Q 26.515625 -1.171875 21.34375 -1.171875 
Q 12.796875 -1.171875 8.203125 3 
Q 3.609375 7.171875 3.609375 13.671875 
Q 3.609375 17.484375 5.34375 20.625 
Q 7.078125 23.78125 9.890625 25.6875 
Q 12.703125 27.59375 16.21875 28.5625 
Q 18.796875 29.25 24.03125 29.890625 
Q 34.671875 31.15625 39.703125 32.90625 
Q 39.75 34.71875 39.75 35.203125 
Q 39.75 40.578125 37.25 42.78125 
Q 33.890625 45.75 27.25 45.75 
Q 21.046875 45.75 18.09375 43.578125 
Q 15.140625 41.40625 13.71875 35.890625 
L 5.125 37.0625 
Q 6.296875 42.578125 8.984375 45.96875 
Q 11.671875 49.359375 16.75 51.1875 
Q 21.828125 53.03125 28.515625 53.03125 
Q 35.15625 53.03125 39.296875 51.46875 
Q 43.453125 49.90625 45.40625 47.53125 
Q 47.359375 45.171875 48.140625 41.546875 
Q 48.578125 39.3125 48.578125 33.453125 
L 48.578125 21.734375 
Q 48.578125 9.46875 49.140625 6.21875 
Q 49.703125 2.984375 51.375 0 
L 42.1875 0 
Q 40.828125 2.734375 40.4375 6.390625 
z
M 39.703125 26.03125 
Q 34.90625 24.078125 25.34375 22.703125 
Q 19.921875 21.921875 17.671875 20.9375 
Q 15.4375 19.96875 14.203125 18.09375 
Q 12.984375 16.21875 12.984375 13.921875 
Q 12.984375 10.40625 15.640625 8.0625 
Q 18.3125 5.71875 23.4375 5.71875 
Q 28.515625 5.71875 32.46875 7.9375 
Q 36.421875 10.15625 38.28125 14.015625 
Q 39.703125 17 39.703125 22.796875 
z
" id="ArialMT-97"/>
      <path d="M 6.59375 0 
L 6.59375 51.859375 
L 14.5 51.859375 
L 14.5 44.484375 
Q 20.21875 53.03125 31 53.03125 
Q 35.6875 53.03125 39.625 51.34375 
Q 43.5625 49.65625 45.515625 46.921875 
Q 47.46875 44.1875 48.25 40.4375 
Q 48.734375 37.984375 48.734375 31.890625 
L 48.734375 0 
L 39.9375 0 
L 39.9375 31.546875 
Q 39.9375 36.921875 38.90625 39.578125 
Q 37.890625 42.234375 35.28125 43.8125 
Q 32.671875 45.40625 29.15625 45.40625 
Q 23.53125 45.40625 19.453125 41.84375 
Q 15.375 38.28125 15.375 28.328125 
L 15.375 0 
z
" id="ArialMT-110"/>
      <path d="M 40.4375 19 
L 49.078125 17.875 
Q 47.65625 8.9375 41.8125 3.875 
Q 35.984375 -1.171875 27.484375 -1.171875 
Q 16.84375 -1.171875 10.375 5.78125 
Q 3.90625 12.75 3.90625 25.734375 
Q 3.90625 34.125 6.6875 40.421875 
Q 9.46875 46.734375 15.15625 49.875 
Q 20.84375 53.03125 27.546875 53.03125 
Q 35.984375 53.03125 41.359375 48.75 
Q 46.734375 44.484375 48.25 36.625 
L 39.703125 35.296875 
Q 38.484375 40.53125 35.375 43.15625 
Q 32.28125 45.796875 27.875 45.796875 
Q 21.234375 45.796875 17.078125 41.03125 
Q 12.9375 36.28125 12.9375 25.984375 
Q 12.9375 15.53125 16.9375 10.796875 
Q 20.953125 6.0625 27.390625 6.0625 
Q 32.5625 6.0625 36.03125 9.234375 
Q 39.5 12.40625 40.4375 19 
z
" id="ArialMT-99"/>
      <path d="M 42.09375 16.703125 
L 51.171875 15.578125 
Q 49.03125 7.625 43.21875 3.21875 
Q 37.40625 -1.171875 28.375 -1.171875 
Q 17 -1.171875 10.328125 5.828125 
Q 3.65625 12.84375 3.65625 25.484375 
Q 3.65625 38.578125 10.390625 45.796875 
Q 17.140625 53.03125 27.875 53.03125 
Q 38.28125 53.03125 44.875 45.953125 
Q 51.46875 38.875 51.46875 26.03125 
Q 51.46875 25.25 51.421875 23.6875 
L 12.75 23.6875 
Q 13.234375 15.140625 17.578125 10.59375 
Q 21.921875 6.0625 28.421875 6.0625 
Q 33.25 6.0625 36.671875 8.59375 
Q 40.09375 11.140625 42.09375 16.703125 
z
M 13.234375 30.90625 
L 42.1875 30.90625 
Q 41.609375 37.453125 38.875 40.71875 
Q 34.671875 45.796875 27.984375 45.796875 
Q 21.921875 45.796875 17.796875 41.75 
Q 13.671875 37.703125 13.234375 30.90625 
z
" id="ArialMT-101"/>
      <path id="ArialMT-32"/>
      <path d="M 25.921875 0 
L 25.921875 63.140625 
L 2.34375 63.140625 
L 2.34375 71.578125 
L 59.078125 71.578125 
L 59.078125 63.140625 
L 35.40625 63.140625 
L 35.40625 0 
z
" id="ArialMT-84"/>
      <path d="M 3.171875 21.484375 
L 3.171875 30.328125 
L 30.171875 30.328125 
L 30.171875 21.484375 
z
" id="ArialMT-45"/>
      <path d="M 7.625 0 
L 7.625 71.578125 
L 17.328125 71.578125 
L 54.9375 15.375 
L 54.9375 71.578125 
L 64.015625 71.578125 
L 64.015625 0 
L 54.296875 0 
L 16.703125 56.25 
L 16.703125 0 
z
" id="ArialMT-78"/>
      <path d="M 23.390625 -21.046875 
Q 16.109375 -11.859375 11.078125 0.4375 
Q 6.0625 12.75 6.0625 25.921875 
Q 6.0625 37.546875 9.8125 48.1875 
Q 14.203125 60.546875 23.390625 72.796875 
L 29.6875 72.796875 
Q 23.78125 62.640625 21.875 58.296875 
Q 18.890625 51.5625 17.1875 44.234375 
Q 15.09375 35.109375 15.09375 25.875 
Q 15.09375 2.390625 29.6875 -21.046875 
z
" id="ArialMT-40"/>
      <path d="M 31.296875 40.671875 
Q 27.390625 40.671875 24.703125 37.953125 
Q 22.015625 35.25 22.015625 31.34375 
Q 22.015625 27.484375 24.703125 24.828125 
Q 27.390625 22.171875 31.296875 22.171875 
Q 35.203125 22.171875 37.890625 24.828125 
Q 40.578125 27.484375 40.578125 31.34375 
Q 40.578125 35.203125 37.859375 37.9375 
Q 35.15625 40.671875 31.296875 40.671875 
z
M 31.296875 46.96875 
Q 34.421875 46.96875 37.296875 45.765625 
Q 40.1875 44.578125 42.28125 42.328125 
Q 44.53125 40.140625 45.65625 37.34375 
Q 46.78125 34.5625 46.78125 31.34375 
Q 46.78125 24.90625 42.265625 20.4375 
Q 37.75 15.96875 31.203125 15.96875 
Q 24.609375 15.96875 20.21875 20.359375 
Q 15.828125 24.75 15.828125 31.34375 
Q 15.828125 37.890625 20.3125 42.421875 
Q 24.8125 46.96875 31.296875 46.96875 
z
" id="DejaVuSans-8728"/>
      <path d="M 12.359375 -21.046875 
L 6.0625 -21.046875 
Q 20.65625 2.390625 20.65625 25.875 
Q 20.65625 35.0625 18.5625 44.09375 
Q 16.890625 51.421875 13.921875 58.15625 
Q 12.015625 62.546875 6.0625 72.796875 
L 12.359375 72.796875 
Q 21.53125 60.546875 25.921875 48.1875 
Q 29.6875 37.546875 29.6875 25.921875 
Q 29.6875 12.75 24.625 0.4375 
Q 19.578125 -11.859375 12.359375 -21.046875 
z
" id="ArialMT-41"/>
     </defs>
     <g style="fill:#262626;" transform="translate(134.175781 310.440281)scale(0.264 -0.264)">
      <use transform="translate(0 0.203125)" xlink:href="#ArialMT-100"/>
      <use transform="translate(55.615234 0.203125)" xlink:href="#ArialMT-105"/>
      <use transform="translate(77.832031 0.203125)" xlink:href="#ArialMT-115"/>
      <use transform="translate(127.832031 0.203125)" xlink:href="#ArialMT-116"/>
      <use transform="translate(155.615234 0.203125)" xlink:href="#ArialMT-97"/>
      <use transform="translate(211.230469 0.203125)" xlink:href="#ArialMT-110"/>
      <use transform="translate(266.845703 0.203125)" xlink:href="#ArialMT-99"/>
      <use transform="translate(316.845703 0.203125)" xlink:href="#ArialMT-101"/>
      <use transform="translate(372.460938 0.203125)" xlink:href="#ArialMT-32"/>
      <use transform="translate(400.244141 0.203125)" xlink:href="#ArialMT-84"/>
      <use transform="translate(461.328125 0.203125)" xlink:href="#ArialMT-32"/>
      <use transform="translate(489.111328 0.203125)" xlink:href="#ArialMT-45"/>
      <use transform="translate(522.412109 0.203125)" xlink:href="#ArialMT-32"/>
      <use transform="translate(550.195312 0.203125)" xlink:href="#ArialMT-78"/>
      <use transform="translate(622.412109 0.203125)" xlink:href="#ArialMT-84"/>
      <use transform="translate(683.496094 0.203125)" xlink:href="#ArialMT-32"/>
      <use transform="translate(711.279297 0.203125)" xlink:href="#ArialMT-40"/>
      <use transform="translate(759.174805 38.484375)scale(0.7)" xlink:href="#DejaVuSans-8728"/>
      <use transform="translate(819.365234 0.203125)" xlink:href="#ArialMT-41"/>
     </g>
    </g>
   </g>
   <g id="matplotlib.axis_2">
    <g id="ytick_1">
     <g id="line2d_4">
      <defs>
       <path d="M 0 0 
L -12 0 
" id="m3814f1b2cf" style="stroke:#262626;stroke-width:2.5;"/>
      </defs>
      <g>
       <use style="fill:#262626;stroke:#262626;stroke-width:2.5;" x="79.371781" xlink:href="#m3814f1b2cf" y="213.296625"/>
      </g>
     </g>
     <g id="text_5">
      <!-- −6 -->
      <defs>
       <path d="M 52.828125 31.203125 
L 5.5625 31.203125 
L 5.5625 39.40625 
L 52.828125 39.40625 
z
" id="ArialMT-8722"/>
      </defs>
      <g style="fill:#262626;" transform="translate(36.28 221.957578)scale(0.242 -0.242)">
       <use xlink:href="#ArialMT-8722"/>
       <use x="58.398438" xlink:href="#ArialMT-54"/>
      </g>
     </g>
    </g>
    <g id="ytick_2">
     <g id="line2d_5">
      <g>
       <use style="fill:#262626;stroke:#262626;stroke-width:2.5;" x="79.371781" xlink:href="#m3814f1b2cf" y="158.936625"/>
      </g>
     </g>
     <g id="text_6">
      <!-- −3 -->
      <defs>
       <path d="M 4.203125 18.890625 
L 12.984375 20.0625 
Q 14.5 12.59375 18.140625 9.296875 
Q 21.78125 6 27 6 
Q 33.203125 6 37.46875 10.296875 
Q 41.75 14.59375 41.75 20.953125 
Q 41.75 27 37.796875 30.921875 
Q 33.84375 34.859375 27.734375 34.859375 
Q 25.25 34.859375 21.53125 33.890625 
L 22.515625 41.609375 
Q 23.390625 41.5 23.921875 41.5 
Q 29.546875 41.5 34.03125 44.421875 
Q 38.53125 47.359375 38.53125 53.46875 
Q 38.53125 58.296875 35.25 61.46875 
Q 31.984375 64.65625 26.8125 64.65625 
Q 21.6875 64.65625 18.265625 61.421875 
Q 14.84375 58.203125 13.875 51.765625 
L 5.078125 53.328125 
Q 6.6875 62.15625 12.390625 67.015625 
Q 18.109375 71.875 26.609375 71.875 
Q 32.46875 71.875 37.390625 69.359375 
Q 42.328125 66.84375 44.9375 62.5 
Q 47.5625 58.15625 47.5625 53.265625 
Q 47.5625 48.640625 45.0625 44.828125 
Q 42.578125 41.015625 37.703125 38.765625 
Q 44.046875 37.3125 47.5625 32.6875 
Q 51.078125 28.078125 51.078125 21.140625 
Q 51.078125 11.765625 44.234375 5.25 
Q 37.40625 -1.265625 26.953125 -1.265625 
Q 17.53125 -1.265625 11.296875 4.34375 
Q 5.078125 9.96875 4.203125 18.890625 
z
" id="ArialMT-51"/>
      </defs>
      <g style="fill:#262626;" transform="translate(36.28 167.597578)scale(0.242 -0.242)">
       <use xlink:href="#ArialMT-8722"/>
       <use x="58.398438" xlink:href="#ArialMT-51"/>
      </g>
     </g>
    </g>
    <g id="ytick_3">
     <g id="line2d_6">
      <g>
       <use style="fill:#262626;stroke:#262626;stroke-width:2.5;" x="79.371781" xlink:href="#m3814f1b2cf" y="104.576625"/>
      </g>
     </g>
     <g id="text_7">
      <!-- 0 -->
      <g style="fill:#262626;" transform="translate(50.414313 113.237578)scale(0.242 -0.242)">
       <use xlink:href="#ArialMT-48"/>
      </g>
     </g>
    </g>
    <g id="ytick_4">
     <g id="line2d_7">
      <g>
       <use style="fill:#262626;stroke:#262626;stroke-width:2.5;" x="79.371781" xlink:href="#m3814f1b2cf" y="50.216625"/>
      </g>
     </g>
     <g id="text_8">
      <!-- 3 -->
      <g style="fill:#262626;" transform="translate(50.414313 58.877578)scale(0.242 -0.242)">
       <use xlink:href="#ArialMT-51"/>
      </g>
     </g>
    </g>
    <g id="text_9">
     <!-- distance tor target ($^\circ$) -->
     <defs>
      <path d="M 3.328125 25.921875 
Q 3.328125 40.328125 11.328125 47.265625 
Q 18.015625 53.03125 27.640625 53.03125 
Q 38.328125 53.03125 45.109375 46.015625 
Q 51.90625 39.015625 51.90625 26.65625 
Q 51.90625 16.65625 48.90625 10.90625 
Q 45.90625 5.171875 40.15625 2 
Q 34.421875 -1.171875 27.640625 -1.171875 
Q 16.75 -1.171875 10.03125 5.8125 
Q 3.328125 12.796875 3.328125 25.921875 
z
M 12.359375 25.921875 
Q 12.359375 15.96875 16.703125 11.015625 
Q 21.046875 6.0625 27.640625 6.0625 
Q 34.1875 6.0625 38.53125 11.03125 
Q 42.875 16.015625 42.875 26.21875 
Q 42.875 35.84375 38.5 40.796875 
Q 34.125 45.75 27.640625 45.75 
Q 21.046875 45.75 16.703125 40.8125 
Q 12.359375 35.890625 12.359375 25.921875 
z
" id="ArialMT-111"/>
      <path d="M 6.5 0 
L 6.5 51.859375 
L 14.40625 51.859375 
L 14.40625 44 
Q 17.4375 49.515625 20 51.265625 
Q 22.5625 53.03125 25.640625 53.03125 
Q 30.078125 53.03125 34.671875 50.203125 
L 31.640625 42.046875 
Q 28.421875 43.953125 25.203125 43.953125 
Q 22.3125 43.953125 20.015625 42.21875 
Q 17.71875 40.484375 16.75 37.40625 
Q 15.28125 32.71875 15.28125 27.15625 
L 15.28125 0 
z
" id="ArialMT-114"/>
      <path d="M 4.984375 -4.296875 
L 13.53125 -5.5625 
Q 14.0625 -9.515625 16.5 -11.328125 
Q 19.78125 -13.765625 25.4375 -13.765625 
Q 31.546875 -13.765625 34.859375 -11.328125 
Q 38.1875 -8.890625 39.359375 -4.5 
Q 40.046875 -1.8125 39.984375 6.78125 
Q 34.234375 0 25.640625 0 
Q 14.9375 0 9.078125 7.71875 
Q 3.21875 15.4375 3.21875 26.21875 
Q 3.21875 33.640625 5.90625 39.90625 
Q 8.59375 46.1875 13.6875 49.609375 
Q 18.796875 53.03125 25.6875 53.03125 
Q 34.859375 53.03125 40.828125 45.609375 
L 40.828125 51.859375 
L 48.921875 51.859375 
L 48.921875 7.03125 
Q 48.921875 -5.078125 46.453125 -10.125 
Q 44 -15.1875 38.640625 -18.109375 
Q 33.296875 -21.046875 25.484375 -21.046875 
Q 16.21875 -21.046875 10.5 -16.875 
Q 4.78125 -12.703125 4.984375 -4.296875 
z
M 12.25 26.859375 
Q 12.25 16.65625 16.296875 11.96875 
Q 20.359375 7.28125 26.46875 7.28125 
Q 32.515625 7.28125 36.609375 11.9375 
Q 40.71875 16.609375 40.71875 26.5625 
Q 40.71875 36.078125 36.5 40.90625 
Q 32.28125 45.75 26.3125 45.75 
Q 20.453125 45.75 16.34375 40.984375 
Q 12.25 36.234375 12.25 26.859375 
z
" id="ArialMT-103"/>
     </defs>
     <g style="fill:#262626;" transform="translate(26.472 268.856625)rotate(-90)scale(0.264 -0.264)">
      <use transform="translate(0 0.203125)" xlink:href="#ArialMT-100"/>
      <use transform="translate(55.615234 0.203125)" xlink:href="#ArialMT-105"/>
      <use transform="translate(77.832031 0.203125)" xlink:href="#ArialMT-115"/>
      <use transform="translate(127.832031 0.203125)" xlink:href="#ArialMT-116"/>
      <use transform="translate(155.615234 0.203125)" xlink:href="#ArialMT-97"/>
      <use transform="translate(211.230469 0.203125)" xlink:href="#ArialMT-110"/>
      <use transform="translate(266.845703 0.203125)" xlink:href="#ArialMT-99"/>
      <use transform="translate(316.845703 0.203125)" xlink:href="#ArialMT-101"/>
      <use transform="translate(372.460938 0.203125)" xlink:href="#ArialMT-32"/>
      <use transform="translate(400.244141 0.203125)" xlink:href="#ArialMT-116"/>
      <use transform="translate(428.027344 0.203125)" xlink:href="#ArialMT-111"/>
      <use transform="translate(483.642578 0.203125)" xlink:href="#ArialMT-114"/>
      <use transform="translate(516.943359 0.203125)" xlink:href="#ArialMT-32"/>
      <use transform="translate(544.726562 0.203125)" xlink:href="#ArialMT-116"/>
      <use transform="translate(572.509766 0.203125)" xlink:href="#ArialMT-97"/>
      <use transform="translate(628.125 0.203125)" xlink:href="#ArialMT-114"/>
      <use transform="translate(661.425781 0.203125)" xlink:href="#ArialMT-103"/>
      <use transform="translate(717.041016 0.203125)" xlink:href="#ArialMT-101"/>
      <use transform="translate(772.65625 0.203125)" xlink:href="#ArialMT-116"/>
      <use transform="translate(800.439453 0.203125)" xlink:href="#ArialMT-32"/>
      <use transform="translate(828.222656 0.203125)" xlink:href="#ArialMT-40"/>
      <use transform="translate(876.118164 38.484375)scale(0.7)" xlink:href="#DejaVuSans-8728"/>
      <use transform="translate(936.308594 0.203125)" xlink:href="#ArialMT-41"/>
     </g>
    </g>
   </g>
   <g id="patch_3">
    <path clip-path="url(#p973e99c6be)" d="M 135.171781 104.576625 
L 135.171781 104.576625 
L 135.171781 104.576625 
L 135.171781 104.576625 
z
" style="fill:#c9661e;stroke:#404040;stroke-linejoin:miter;stroke-width:0.5;"/>
   </g>
   <g id="patch_4">
    <path clip-path="url(#p973e99c6be)" d="M 135.171781 104.576625 
L 135.171781 104.576625 
L 135.171781 104.576625 
L 135.171781 104.576625 
z
" style="fill:#61488d;stroke:#404040;stroke-linejoin:miter;stroke-width:0.5;"/>
   </g>
   <g id="patch_5">
    <path clip-path="url(#p973e99c6be)" d="M 101.691781 177.86825 
L 135.171781 177.86825 
L 135.171781 126.489906 
L 101.691781 126.489906 
z
" style="fill:none;stroke:#e66101;stroke-linejoin:miter;"/>
   </g>
   <g id="patch_6">
    <path clip-path="url(#p973e99c6be)" d="M 135.171781 162.380103 
L 168.651781 162.380103 
L 168.651781 121.171035 
L 135.171781 121.171035 
z
" style="fill:none;stroke:#5e3c99;stroke-linejoin:miter;"/>
   </g>
   <g id="patch_7">
    <path clip-path="url(#p973e99c6be)" d="M 213.291781 178.742682 
L 246.771781 178.742682 
L 246.771781 138.747525 
L 213.291781 138.747525 
z
" style="fill:none;stroke:#e66101;stroke-linejoin:miter;"/>
   </g>
   <g id="patch_8">
    <path clip-path="url(#p973e99c6be)" d="M 246.771781 145.287102 
L 280.251781 145.287102 
L 280.251781 123.952573 
L 246.771781 123.952573 
z
" style="fill:none;stroke:#5e3c99;stroke-linejoin:miter;"/>
   </g>
   <g id="patch_9">
    <path clip-path="url(#p973e99c6be)" d="M 324.891781 185.105603 
L 358.371781 185.105603 
L 358.371781 143.960227 
L 324.891781 143.960227 
z
" style="fill:none;stroke:#e66101;stroke-linejoin:miter;"/>
   </g>
   <g id="patch_10">
    <path clip-path="url(#p973e99c6be)" d="M 358.371781 144.225515 
L 391.851781 144.225515 
L 391.851781 109.29674 
L 358.371781 109.29674 
z
" style="fill:none;stroke:#5e3c99;stroke-linejoin:miter;"/>
   </g>
   <g id="PathCollection_1">
    <defs>
     <path d="M 0 3.5 
C 0.928211 3.5 1.81853 3.131218 2.474874 2.474874 
C 3.131218 1.81853 3.5 0.928211 3.5 0 
C 3.5 -0.928211 3.131218 -1.81853 2.474874 -2.474874 
C 1.81853 -3.131218 0.928211 -3.5 0 -3.5 
C -0.928211 -3.5 -1.81853 -3.131218 -2.474874 -2.474874 
C -3.131218 -1.81853 -3.5 -0.928211 -3.5 0 
C -3.5 0.928211 -3.131218 1.81853 -2.474874 2.474874 
C -1.81853 3.131218 -0.928211 3.5 0 3.5 
z
" id="C0_0_625083719c"/>
    </defs>
    <g clip-path="url(#p973e99c6be)">
     <use style="fill:#c9661e;fill-opacity:0.4;" x="118.289897" xlink:href="#C0_0_625083719c" y="200.250225"/>
    </g>
    <g clip-path="url(#p973e99c6be)">
     <use style="fill:#c9661e;fill-opacity:0.4;" x="126.991928" xlink:href="#C0_0_625083719c" y="220.526505"/>
    </g>
    <g clip-path="url(#p973e99c6be)">
     <use style="fill:#c9661e;fill-opacity:0.4;" x="105.755918" xlink:href="#C0_0_625083719c" y="154.803755"/>
    </g>
    <g clip-path="url(#p973e99c6be)">
     <use style="fill:#c9661e;fill-opacity:0.4;" x="117.72202" xlink:href="#C0_0_625083719c" y="185.980725"/>
    </g>
    <g clip-path="url(#p973e99c6be)">
     <use style="fill:#c9661e;fill-opacity:0.4;" x="118.078474" xlink:href="#C0_0_625083719c" y="53.731905"/>
    </g>
    <g clip-path="url(#p973e99c6be)">
     <use style="fill:#c9661e;fill-opacity:0.4;" x="125.812387" xlink:href="#C0_0_625083719c" y="156.507035"/>
    </g>
    <g clip-path="url(#p973e99c6be)">
     <use style="fill:#c9661e;fill-opacity:0.4;" x="120.135162" xlink:href="#C0_0_625083719c" y="146.20506"/>
    </g>
    <g clip-path="url(#p973e99c6be)">
     <use style="fill:#c9661e;fill-opacity:0.4;" x="109.760411" xlink:href="#C0_0_625083719c" y="137.248495"/>
    </g>
    <g clip-path="url(#p973e99c6be)">
     <use style="fill:#c9661e;fill-opacity:0.4;" x="126.329298" xlink:href="#C0_0_625083719c" y="223.081425"/>
    </g>
    <g clip-path="url(#p973e99c6be)">
     <use style="fill:#c9661e;fill-opacity:0.4;" x="120.472675" xlink:href="#C0_0_625083719c" y="53.079585"/>
    </g>
    <g clip-path="url(#p973e99c6be)">
     <use style="fill:#c9661e;fill-opacity:0.4;" x="108.719637" xlink:href="#C0_0_625083719c" y="201.446145"/>
    </g>
    <g clip-path="url(#p973e99c6be)">
     <use style="fill:#c9661e;fill-opacity:0.4;" x="124.469772" xlink:href="#C0_0_625083719c" y="140.472345"/>
    </g>
    <g clip-path="url(#p973e99c6be)">
     <use style="fill:#c9661e;fill-opacity:0.4;" x="114.352322" xlink:href="#C0_0_625083719c" y="115.278184"/>
    </g>
    <g clip-path="url(#p973e99c6be)">
     <use style="fill:#c9661e;fill-opacity:0.4;" x="118.870614" xlink:href="#C0_0_625083719c" y="159.83281"/>
    </g>
    <g clip-path="url(#p973e99c6be)">
     <use style="fill:#c9661e;fill-opacity:0.4;" x="126.390307" xlink:href="#C0_0_625083719c" y="168.40357"/>
    </g>
    <g clip-path="url(#p973e99c6be)">
     <use style="fill:#c9661e;fill-opacity:0.4;" x="114.542672" xlink:href="#C0_0_625083719c" y="241.735965"/>
    </g>
    <g clip-path="url(#p973e99c6be)">
     <use style="fill:#c9661e;fill-opacity:0.4;" x="125.231369" xlink:href="#C0_0_625083719c" y="173.849385"/>
    </g>
    <g clip-path="url(#p973e99c6be)">
     <use style="fill:#c9661e;fill-opacity:0.4;" x="105.575828" xlink:href="#C0_0_625083719c" y="143.599555"/>
    </g>
   </g>
   <g id="PathCollection_2">
    <defs>
     <path d="M 0 3.5 
C 0.928211 3.5 1.81853 3.131218 2.474874 2.474874 
C 3.131218 1.81853 3.5 0.928211 3.5 0 
C 3.5 -0.928211 3.131218 -1.81853 2.474874 -2.474874 
C 1.81853 -3.131218 0.928211 -3.5 0 -3.5 
C -0.928211 -3.5 -1.81853 -3.131218 -2.474874 -2.474874 
C -3.131218 -1.81853 -3.5 -0.928211 -3.5 0 
C -3.5 0.928211 -3.131218 1.81853 -2.474874 2.474874 
C -1.81853 3.131218 -0.928211 3.5 0 3.5 
z
" id="C1_0_639177788a"/>
    </defs>
    <g clip-path="url(#p973e99c6be)">
     <use style="fill:#61488d;fill-opacity:0.4;" x="161.603743" xlink:href="#C1_0_639177788a" y="178.053225"/>
    </g>
    <g clip-path="url(#p973e99c6be)">
     <use style="fill:#61488d;fill-opacity:0.4;" x="135.944762" xlink:href="#C1_0_639177788a" y="145.046351"/>
    </g>
    <g clip-path="url(#p973e99c6be)">
     <use style="fill:#61488d;fill-opacity:0.4;" x="158.147815" xlink:href="#C1_0_639177788a" y="137.879675"/>
    </g>
    <g clip-path="url(#p973e99c6be)">
     <use style="fill:#61488d;fill-opacity:0.4;" x="136.927604" xlink:href="#C1_0_639177788a" y="134.98878"/>
    </g>
    <g clip-path="url(#p973e99c6be)">
     <use style="fill:#61488d;fill-opacity:0.4;" x="151.479725" xlink:href="#C1_0_639177788a" y="75.493421"/>
    </g>
    <g clip-path="url(#p973e99c6be)">
     <use style="fill:#61488d;fill-opacity:0.4;" x="146.880335" xlink:href="#C1_0_639177788a" y="101.242545"/>
    </g>
    <g clip-path="url(#p973e99c6be)">
     <use style="fill:#61488d;fill-opacity:0.4;" x="142.778491" xlink:href="#C1_0_639177788a" y="111.143478"/>
    </g>
    <g clip-path="url(#p973e99c6be)">
     <use style="fill:#61488d;fill-opacity:0.4;" x="148.555692" xlink:href="#C1_0_639177788a" y="135.02502"/>
    </g>
    <g clip-path="url(#p973e99c6be)">
     <use style="fill:#61488d;fill-opacity:0.4;" x="144.019467" xlink:href="#C1_0_639177788a" y="193.493112"/>
    </g>
    <g clip-path="url(#p973e99c6be)">
     <use style="fill:#61488d;fill-opacity:0.4;" x="162.769599" xlink:href="#C1_0_639177788a" y="117.334615"/>
    </g>
    <g clip-path="url(#p973e99c6be)">
     <use style="fill:#61488d;fill-opacity:0.4;" x="158.90285" xlink:href="#C1_0_639177788a" y="137.148458"/>
    </g>
    <g clip-path="url(#p973e99c6be)">
     <use style="fill:#61488d;fill-opacity:0.4;" x="147.671869" xlink:href="#C1_0_639177788a" y="157.832815"/>
    </g>
    <g clip-path="url(#p973e99c6be)">
     <use style="fill:#61488d;fill-opacity:0.4;" x="154.137671" xlink:href="#C1_0_639177788a" y="82.723905"/>
    </g>
    <g clip-path="url(#p973e99c6be)">
     <use style="fill:#61488d;fill-opacity:0.4;" x="137.557841" xlink:href="#C1_0_639177788a" y="137.518785"/>
    </g>
    <g clip-path="url(#p973e99c6be)">
     <use style="fill:#61488d;fill-opacity:0.4;" x="148.624678" xlink:href="#C1_0_639177788a" y="228.708591"/>
    </g>
    <g clip-path="url(#p973e99c6be)">
     <use style="fill:#61488d;fill-opacity:0.4;" x="152.476703" xlink:href="#C1_0_639177788a" y="185.67042"/>
    </g>
    <g clip-path="url(#p973e99c6be)">
     <use style="fill:#61488d;fill-opacity:0.4;" x="150.994649" xlink:href="#C1_0_639177788a" y="201.25513"/>
    </g>
    <g clip-path="url(#p973e99c6be)">
     <use style="fill:#61488d;fill-opacity:0.4;" x="138.809699" xlink:href="#C1_0_639177788a" y="139.368535"/>
    </g>
   </g>
   <g id="PathCollection_3">
    <defs>
     <path d="M 0 3.5 
C 0.928211 3.5 1.81853 3.131218 2.474874 2.474874 
C 3.131218 1.81853 3.5 0.928211 3.5 0 
C 3.5 -0.928211 3.131218 -1.81853 2.474874 -2.474874 
C 1.81853 -3.131218 0.928211 -3.5 0 -3.5 
C -0.928211 -3.5 -1.81853 -3.131218 -2.474874 -2.474874 
C -3.131218 -1.81853 -3.5 -0.928211 -3.5 0 
C -3.5 0.928211 -3.131218 1.81853 -2.474874 2.474874 
C -1.81853 3.131218 -0.928211 3.5 0 3.5 
z
" id="C2_0_dc60aad6fe"/>
    </defs>
    <g clip-path="url(#p973e99c6be)">
     <use style="fill:#c9661e;fill-opacity:0.4;" x="217.768706" xlink:href="#C2_0_dc60aad6fe" y="146.479125"/>
    </g>
    <g clip-path="url(#p973e99c6be)">
     <use style="fill:#c9661e;fill-opacity:0.4;" x="244.380895" xlink:href="#C2_0_dc60aad6fe" y="192.919553"/>
    </g>
    <g clip-path="url(#p973e99c6be)">
     <use style="fill:#c9661e;fill-opacity:0.4;" x="232.981613" xlink:href="#C2_0_dc60aad6fe" y="228.700135"/>
    </g>
    <g clip-path="url(#p973e99c6be)">
     <use style="fill:#c9661e;fill-opacity:0.4;" x="239.391916" xlink:href="#C2_0_dc60aad6fe" y="141.677325"/>
    </g>
    <g clip-path="url(#p973e99c6be)">
     <use style="fill:#c9661e;fill-opacity:0.4;" x="231.909944" xlink:href="#C2_0_dc60aad6fe" y="75.755633"/>
    </g>
    <g clip-path="url(#p973e99c6be)">
     <use style="fill:#c9661e;fill-opacity:0.4;" x="235.465263" xlink:href="#C2_0_dc60aad6fe" y="104.724605"/>
    </g>
    <g clip-path="url(#p973e99c6be)">
     <use style="fill:#c9661e;fill-opacity:0.4;" x="217.19497" xlink:href="#C2_0_dc60aad6fe" y="199.243055"/>
    </g>
    <g clip-path="url(#p973e99c6be)">
     <use style="fill:#c9661e;fill-opacity:0.4;" x="234.041733" xlink:href="#C2_0_dc60aad6fe" y="128.43085"/>
    </g>
    <g clip-path="url(#p973e99c6be)">
     <use style="fill:#c9661e;fill-opacity:0.4;" x="221.774311" xlink:href="#C2_0_dc60aad6fe" y="189.740625"/>
    </g>
    <g clip-path="url(#p973e99c6be)">
     <use style="fill:#c9661e;fill-opacity:0.4;" x="233.14024" xlink:href="#C2_0_dc60aad6fe" y="141.677325"/>
    </g>
    <g clip-path="url(#p973e99c6be)">
     <use style="fill:#c9661e;fill-opacity:0.4;" x="242.911545" xlink:href="#C2_0_dc60aad6fe" y="142.701105"/>
    </g>
    <g clip-path="url(#p973e99c6be)">
     <use style="fill:#c9661e;fill-opacity:0.4;" x="243.551728" xlink:href="#C2_0_dc60aad6fe" y="150.572735"/>
    </g>
    <g clip-path="url(#p973e99c6be)">
     <use style="fill:#c9661e;fill-opacity:0.4;" x="238.895382" xlink:href="#C2_0_dc60aad6fe" y="131.666025"/>
    </g>
    <g clip-path="url(#p973e99c6be)">
     <use style="fill:#c9661e;fill-opacity:0.4;" x="220.728929" xlink:href="#C2_0_dc60aad6fe" y="178.468475"/>
    </g>
    <g clip-path="url(#p973e99c6be)">
     <use style="fill:#c9661e;fill-opacity:0.4;" x="218.44944" xlink:href="#C2_0_dc60aad6fe" y="204.26154"/>
    </g>
    <g clip-path="url(#p973e99c6be)">
     <use style="fill:#c9661e;fill-opacity:0.4;" x="230.175407" xlink:href="#C2_0_dc60aad6fe" y="184.473745"/>
    </g>
    <g clip-path="url(#p973e99c6be)">
     <use style="fill:#c9661e;fill-opacity:0.4;" x="234.91253" xlink:href="#C2_0_dc60aad6fe" y="156.62406"/>
    </g>
    <g clip-path="url(#p973e99c6be)">
     <use style="fill:#c9661e;fill-opacity:0.4;" x="235.939769" xlink:href="#C2_0_dc60aad6fe" y="186.03584"/>
    </g>
   </g>
   <g id="PathCollection_4">
    <defs>
     <path d="M 0 3.5 
C 0.928211 3.5 1.81853 3.131218 2.474874 2.474874 
C 3.131218 1.81853 3.5 0.928211 3.5 0 
C 3.5 -0.928211 3.131218 -1.81853 2.474874 -2.474874 
C 1.81853 -3.131218 0.928211 -3.5 0 -3.5 
C -0.928211 -3.5 -1.81853 -3.131218 -2.474874 -2.474874 
C -3.131218 -1.81853 -3.5 -0.928211 -3.5 0 
C -3.5 0.928211 -3.131218 1.81853 -2.474874 2.474874 
C -1.81853 3.131218 -0.928211 3.5 0 3.5 
z
" id="C3_0_016f34aad9"/>
    </defs>
    <g clip-path="url(#p973e99c6be)">
     <use style="fill:#61488d;fill-opacity:0.4;" x="256.882236" xlink:href="#C3_0_016f34aad9" y="164.372625"/>
    </g>
    <g clip-path="url(#p973e99c6be)">
     <use style="fill:#61488d;fill-opacity:0.4;" x="260.348437" xlink:href="#C3_0_016f34aad9" y="134.031818"/>
    </g>
    <g clip-path="url(#p973e99c6be)">
     <use style="fill:#61488d;fill-opacity:0.4;" x="275.567235" xlink:href="#C3_0_016f34aad9" y="135.143555"/>
    </g>
    <g clip-path="url(#p973e99c6be)">
     <use style="fill:#61488d;fill-opacity:0.4;" x="264.46332" xlink:href="#C3_0_016f34aad9" y="138.098625"/>
    </g>
    <g clip-path="url(#p973e99c6be)">
     <use style="fill:#61488d;fill-opacity:0.4;" x="272.398962" xlink:href="#C3_0_016f34aad9" y="123.747585"/>
    </g>
    <g clip-path="url(#p973e99c6be)">
     <use style="fill:#61488d;fill-opacity:0.4;" x="278.966899" xlink:href="#C3_0_016f34aad9" y="123.993715"/>
    </g>
    <g clip-path="url(#p973e99c6be)">
     <use style="fill:#61488d;fill-opacity:0.4;" x="249.45809" xlink:href="#C3_0_016f34aad9" y="128.058635"/>
    </g>
    <g clip-path="url(#p973e99c6be)">
     <use style="fill:#61488d;fill-opacity:0.4;" x="262.540052" xlink:href="#C3_0_016f34aad9" y="87.145185"/>
    </g>
    <g clip-path="url(#p973e99c6be)">
     <use style="fill:#61488d;fill-opacity:0.4;" x="262.521026" xlink:href="#C3_0_016f34aad9" y="174.518178"/>
    </g>
    <g clip-path="url(#p973e99c6be)">
     <use style="fill:#61488d;fill-opacity:0.4;" x="270.009995" xlink:href="#C3_0_016f34aad9" y="164.451694"/>
    </g>
    <g clip-path="url(#p973e99c6be)">
     <use style="fill:#61488d;fill-opacity:0.4;" x="274.204954" xlink:href="#C3_0_016f34aad9" y="127.933305"/>
    </g>
    <g clip-path="url(#p973e99c6be)">
     <use style="fill:#61488d;fill-opacity:0.4;" x="274.065961" xlink:href="#C3_0_016f34aad9" y="141.977952"/>
    </g>
    <g clip-path="url(#p973e99c6be)">
     <use style="fill:#61488d;fill-opacity:0.4;" x="265.760888" xlink:href="#C3_0_016f34aad9" y="118.927665"/>
    </g>
    <g clip-path="url(#p973e99c6be)">
     <use style="fill:#61488d;fill-opacity:0.4;" x="248.608964" xlink:href="#C3_0_016f34aad9" y="132.662625"/>
    </g>
    <g clip-path="url(#p973e99c6be)">
     <use style="fill:#61488d;fill-opacity:0.4;" x="260.436502" xlink:href="#C3_0_016f34aad9" y="109.666835"/>
    </g>
    <g clip-path="url(#p973e99c6be)">
     <use style="fill:#61488d;fill-opacity:0.4;" x="269.776654" xlink:href="#C3_0_016f34aad9" y="161.038545"/>
    </g>
    <g clip-path="url(#p973e99c6be)">
     <use style="fill:#61488d;fill-opacity:0.4;" x="271.125882" xlink:href="#C3_0_016f34aad9" y="168.333657"/>
    </g>
    <g clip-path="url(#p973e99c6be)">
     <use style="fill:#61488d;fill-opacity:0.4;" x="255.64448" xlink:href="#C3_0_016f34aad9" y="124.762305"/>
    </g>
   </g>
   <g id="PathCollection_5">
    <defs>
     <path d="M 0 3.5 
C 0.928211 3.5 1.81853 3.131218 2.474874 2.474874 
C 3.131218 1.81853 3.5 0.928211 3.5 0 
C 3.5 -0.928211 3.131218 -1.81853 2.474874 -2.474874 
C 1.81853 -3.131218 0.928211 -3.5 0 -3.5 
C -0.928211 -3.5 -1.81853 -3.131218 -2.474874 -2.474874 
C -3.131218 -1.81853 -3.5 -0.928211 -3.5 0 
C -3.5 0.928211 -3.131218 1.81853 -2.474874 2.474874 
C -1.81853 3.131218 -0.928211 3.5 0 3.5 
z
" id="C4_0_5d83bf3830"/>
    </defs>
    <g clip-path="url(#p973e99c6be)">
     <use style="fill:#c9661e;fill-opacity:0.4;" x="332.815183" xlink:href="#C4_0_5d83bf3830" y="183.036225"/>
    </g>
    <g clip-path="url(#p973e99c6be)">
     <use style="fill:#c9661e;fill-opacity:0.4;" x="331.73492" xlink:href="#C4_0_5d83bf3830" y="206.12337"/>
    </g>
    <g clip-path="url(#p973e99c6be)">
     <use style="fill:#c9661e;fill-opacity:0.4;" x="345.882007" xlink:href="#C4_0_5d83bf3830" y="186.714585"/>
    </g>
    <g clip-path="url(#p973e99c6be)">
     <use style="fill:#c9661e;fill-opacity:0.4;" x="342.612084" xlink:href="#C4_0_5d83bf3830" y="83.730572"/>
    </g>
    <g clip-path="url(#p973e99c6be)">
     <use style="fill:#c9661e;fill-opacity:0.4;" x="344.125963" xlink:href="#C4_0_5d83bf3830" y="135.11562"/>
    </g>
    <g clip-path="url(#p973e99c6be)">
     <use style="fill:#c9661e;fill-opacity:0.4;" x="351.791121" xlink:href="#C4_0_5d83bf3830" y="175.282375"/>
    </g>
    <g clip-path="url(#p973e99c6be)">
     <use style="fill:#c9661e;fill-opacity:0.4;" x="330.729582" xlink:href="#C4_0_5d83bf3830" y="145.26735"/>
    </g>
    <g clip-path="url(#p973e99c6be)">
     <use style="fill:#c9661e;fill-opacity:0.4;" x="335.655538" xlink:href="#C4_0_5d83bf3830" y="212.964425"/>
    </g>
    <g clip-path="url(#p973e99c6be)">
     <use style="fill:#c9661e;fill-opacity:0.4;" x="327.332196" xlink:href="#C4_0_5d83bf3830" y="156.988725"/>
    </g>
    <g clip-path="url(#p973e99c6be)">
     <use style="fill:#c9661e;fill-opacity:0.4;" x="332.901135" xlink:href="#C4_0_5d83bf3830" y="118.891425"/>
    </g>
    <g clip-path="url(#p973e99c6be)">
     <use style="fill:#c9661e;fill-opacity:0.4;" x="333.04888" xlink:href="#C4_0_5d83bf3830" y="196.461635"/>
    </g>
    <g clip-path="url(#p973e99c6be)">
     <use style="fill:#c9661e;fill-opacity:0.4;" x="348.912191" xlink:href="#C4_0_5d83bf3830" y="114.389171"/>
    </g>
    <g clip-path="url(#p973e99c6be)">
     <use style="fill:#c9661e;fill-opacity:0.4;" x="349.685912" xlink:href="#C4_0_5d83bf3830" y="176.694225"/>
    </g>
    <g clip-path="url(#p973e99c6be)">
     <use style="fill:#c9661e;fill-opacity:0.4;" x="346.15107" xlink:href="#C4_0_5d83bf3830" y="223.307925"/>
    </g>
    <g clip-path="url(#p973e99c6be)">
     <use style="fill:#c9661e;fill-opacity:0.4;" x="334.564198" xlink:href="#C4_0_5d83bf3830" y="147.539145"/>
    </g>
    <g clip-path="url(#p973e99c6be)">
     <use style="fill:#c9661e;fill-opacity:0.4;" x="350.749648" xlink:href="#C4_0_5d83bf3830" y="219.042175"/>
    </g>
    <g clip-path="url(#p973e99c6be)">
     <use style="fill:#c9661e;fill-opacity:0.4;" x="346.154033" xlink:href="#C4_0_5d83bf3830" y="173.829755"/>
    </g>
   </g>
   <g id="PathCollection_6">
    <defs>
     <path d="M 0 3.5 
C 0.928211 3.5 1.81853 3.131218 2.474874 2.474874 
C 3.131218 1.81853 3.5 0.928211 3.5 0 
C 3.5 -0.928211 3.131218 -1.81853 2.474874 -2.474874 
C 1.81853 -3.131218 0.928211 -3.5 0 -3.5 
C -0.928211 -3.5 -1.81853 -3.131218 -2.474874 -2.474874 
C -3.131218 -1.81853 -3.5 -0.928211 -3.5 0 
C -3.5 0.928211 -3.131218 1.81853 -2.474874 2.474874 
C -1.81853 3.131218 -0.928211 3.5 0 3.5 
z
" id="C5_0_0840a962bc"/>
    </defs>
    <g clip-path="url(#p973e99c6be)">
     <use style="fill:#61488d;fill-opacity:0.4;" x="378.516182" xlink:href="#C5_0_0840a962bc" y="172.843725"/>
    </g>
    <g clip-path="url(#p973e99c6be)">
     <use style="fill:#61488d;fill-opacity:0.4;" x="359.729923" xlink:href="#C5_0_0840a962bc" y="140.726025"/>
    </g>
    <g clip-path="url(#p973e99c6be)">
     <use style="fill:#61488d;fill-opacity:0.4;" x="368.626714" xlink:href="#C5_0_0840a962bc" y="117.18238"/>
    </g>
    <g clip-path="url(#p973e99c6be)">
     <use style="fill:#61488d;fill-opacity:0.4;" x="376.523386" xlink:href="#C5_0_0840a962bc" y="76.717125"/>
    </g>
    <g clip-path="url(#p973e99c6be)">
     <use style="fill:#61488d;fill-opacity:0.4;" x="383.71679" xlink:href="#C5_0_0840a962bc" y="95.92206"/>
    </g>
    <g clip-path="url(#p973e99c6be)">
     <use style="fill:#61488d;fill-opacity:0.4;" x="361.55079" xlink:href="#C5_0_0840a962bc" y="160.366458"/>
    </g>
    <g clip-path="url(#p973e99c6be)">
     <use style="fill:#61488d;fill-opacity:0.4;" x="364.243836" xlink:href="#C5_0_0840a962bc" y="91.863935"/>
    </g>
    <g clip-path="url(#p973e99c6be)">
     <use style="fill:#61488d;fill-opacity:0.4;" x="371.827151" xlink:href="#C5_0_0840a962bc" y="201.836549"/>
    </g>
    <g clip-path="url(#p973e99c6be)">
     <use style="fill:#61488d;fill-opacity:0.4;" x="390.649358" xlink:href="#C5_0_0840a962bc" y="149.576135"/>
    </g>
    <g clip-path="url(#p973e99c6be)">
     <use style="fill:#61488d;fill-opacity:0.4;" x="375.774265" xlink:href="#C5_0_0840a962bc" y="43.041105"/>
    </g>
    <g clip-path="url(#p973e99c6be)">
     <use style="fill:#61488d;fill-opacity:0.4;" x="373.009813" xlink:href="#C5_0_0840a962bc" y="167.397018"/>
    </g>
    <g clip-path="url(#p973e99c6be)">
     <use style="fill:#61488d;fill-opacity:0.4;" x="372.890889" xlink:href="#C5_0_0840a962bc" y="112.026965"/>
    </g>
    <g clip-path="url(#p973e99c6be)">
     <use style="fill:#61488d;fill-opacity:0.4;" x="382.882624" xlink:href="#C5_0_0840a962bc" y="99.632336"/>
    </g>
    <g clip-path="url(#p973e99c6be)">
     <use style="fill:#61488d;fill-opacity:0.4;" x="372.338512" xlink:href="#C5_0_0840a962bc" y="125.205421"/>
    </g>
    <g clip-path="url(#p973e99c6be)">
     <use style="fill:#61488d;fill-opacity:0.4;" x="359.801802" xlink:href="#C5_0_0840a962bc" y="123.34215"/>
    </g>
    <g clip-path="url(#p973e99c6be)">
     <use style="fill:#61488d;fill-opacity:0.4;" x="375.626547" xlink:href="#C5_0_0840a962bc" y="153.619229"/>
    </g>
    <g clip-path="url(#p973e99c6be)">
     <use style="fill:#61488d;fill-opacity:0.4;" x="391.060377" xlink:href="#C5_0_0840a962bc" y="143.625225"/>
    </g>
   </g>
   <g id="line2d_8">
    <path clip-path="url(#p973e99c6be)" d="M 101.691781 151.564309 
L 135.171781 151.564309 
" style="fill:none;stroke:#e66101;stroke-linecap:round;stroke-width:3;"/>
   </g>
   <g id="line2d_9">
    <path clip-path="url(#p973e99c6be)" d="M 135.171781 141.097343 
L 168.651781 141.097343 
" style="fill:none;stroke:#5e3c99;stroke-linecap:round;stroke-width:3;"/>
   </g>
   <g id="line2d_10">
    <path clip-path="url(#p973e99c6be)" d="M 213.291781 158.958867 
L 246.771781 158.958867 
" style="fill:none;stroke:#e66101;stroke-linecap:round;stroke-width:3;"/>
   </g>
   <g id="line2d_11">
    <path clip-path="url(#p973e99c6be)" d="M 246.771781 134.116195 
L 280.251781 134.116195 
" style="fill:none;stroke:#5e3c99;stroke-linecap:round;stroke-width:3;"/>
   </g>
   <g id="line2d_12">
    <path clip-path="url(#p973e99c6be)" d="M 324.891781 163.940079 
L 358.371781 163.940079 
" style="fill:none;stroke:#e66101;stroke-linecap:round;stroke-width:3;"/>
   </g>
   <g id="line2d_13">
    <path clip-path="url(#p973e99c6be)" d="M 358.371781 126.682046 
L 391.851781 126.682046 
" style="fill:none;stroke:#5e3c99;stroke-linecap:round;stroke-width:3;"/>
   </g>
   <g id="line2d_14">
    <path clip-path="url(#p973e99c6be)" d="M 124.011781 104.576625 
L 369.531781 104.576625 
" style="fill:none;stroke:#000000;stroke-dasharray:11.1,4.8;stroke-dashoffset:0;stroke-width:3;"/>
   </g>
   <g id="patch_11">
    <path d="M 79.371781 249.536625 
L 79.371781 32.096625 
" style="fill:none;stroke:#262626;stroke-linecap:square;stroke-linejoin:miter;stroke-width:2.5;"/>
   </g>
   <g id="patch_12">
    <path d="M 79.371781 249.536625 
L 414.171781 249.536625 
" style="fill:none;stroke:#262626;stroke-linecap:square;stroke-linejoin:miter;stroke-width:2.5;"/>
   </g>
   <g id="text_10">
    <!-- Attraction -->
    <defs>
     <path d="M -0.140625 0 
L 27.34375 71.578125 
L 37.546875 71.578125 
L 66.84375 0 
L 56.0625 0 
L 47.703125 21.6875 
L 17.78125 21.6875 
L 9.90625 0 
z
M 20.515625 29.390625 
L 44.78125 29.390625 
L 37.3125 49.21875 
Q 33.890625 58.25 32.234375 64.0625 
Q 30.859375 57.171875 28.375 50.390625 
z
" id="ArialMT-65"/>
    </defs>
    <g style="fill:#262626;" transform="translate(415.180063 97.17075)rotate(-90)scale(0.17 -0.17)">
     <use xlink:href="#ArialMT-65"/>
     <use x="66.699219" xlink:href="#ArialMT-116"/>
     <use x="94.482422" xlink:href="#ArialMT-116"/>
     <use x="122.265625" xlink:href="#ArialMT-114"/>
     <use x="155.566406" xlink:href="#ArialMT-97"/>
     <use x="211.181641" xlink:href="#ArialMT-99"/>
     <use x="261.181641" xlink:href="#ArialMT-116"/>
     <use x="288.964844" xlink:href="#ArialMT-105"/>
     <use x="311.181641" xlink:href="#ArialMT-111"/>
     <use x="366.796875" xlink:href="#ArialMT-110"/>
    </g>
   </g>
   <g id="text_11">
    <!-- Repulsion -->
    <defs>
     <path d="M 7.859375 0 
L 7.859375 71.578125 
L 39.59375 71.578125 
Q 49.171875 71.578125 54.140625 69.640625 
Q 59.125 67.71875 62.109375 62.828125 
Q 65.09375 57.953125 65.09375 52.046875 
Q 65.09375 44.4375 60.15625 39.203125 
Q 55.21875 33.984375 44.921875 32.5625 
Q 48.6875 30.765625 50.640625 29 
Q 54.78125 25.203125 58.5 19.484375 
L 70.953125 0 
L 59.03125 0 
L 49.5625 14.890625 
Q 45.40625 21.34375 42.71875 24.75 
Q 40.046875 28.171875 37.921875 29.53125 
Q 35.796875 30.90625 33.59375 31.453125 
Q 31.984375 31.78125 28.328125 31.78125 
L 17.328125 31.78125 
L 17.328125 0 
z
M 17.328125 39.984375 
L 37.703125 39.984375 
Q 44.1875 39.984375 47.84375 41.328125 
Q 51.515625 42.671875 53.421875 45.625 
Q 55.328125 48.578125 55.328125 52.046875 
Q 55.328125 57.125 51.640625 60.390625 
Q 47.953125 63.671875 39.984375 63.671875 
L 17.328125 63.671875 
z
" id="ArialMT-82"/>
     <path d="M 6.59375 -19.875 
L 6.59375 51.859375 
L 14.59375 51.859375 
L 14.59375 45.125 
Q 17.4375 49.078125 21 51.046875 
Q 24.5625 53.03125 29.640625 53.03125 
Q 36.28125 53.03125 41.359375 49.609375 
Q 46.4375 46.1875 49.015625 39.953125 
Q 51.609375 33.734375 51.609375 26.3125 
Q 51.609375 18.359375 48.75 11.984375 
Q 45.90625 5.609375 40.453125 2.21875 
Q 35.015625 -1.171875 29 -1.171875 
Q 24.609375 -1.171875 21.109375 0.6875 
Q 17.625 2.546875 15.375 5.375 
L 15.375 -19.875 
z
M 14.546875 25.640625 
Q 14.546875 15.625 18.59375 10.84375 
Q 22.65625 6.0625 28.421875 6.0625 
Q 34.28125 6.0625 38.453125 11.015625 
Q 42.625 15.96875 42.625 26.375 
Q 42.625 36.28125 38.546875 41.203125 
Q 34.46875 46.140625 28.8125 46.140625 
Q 23.1875 46.140625 18.859375 40.890625 
Q 14.546875 35.640625 14.546875 25.640625 
z
" id="ArialMT-112"/>
     <path d="M 40.578125 0 
L 40.578125 7.625 
Q 34.515625 -1.171875 24.125 -1.171875 
Q 19.53125 -1.171875 15.546875 0.578125 
Q 11.578125 2.34375 9.640625 5 
Q 7.71875 7.671875 6.9375 11.53125 
Q 6.390625 14.109375 6.390625 19.734375 
L 6.390625 51.859375 
L 15.1875 51.859375 
L 15.1875 23.09375 
Q 15.1875 16.21875 15.71875 13.8125 
Q 16.546875 10.359375 19.234375 8.375 
Q 21.921875 6.390625 25.875 6.390625 
Q 29.828125 6.390625 33.296875 8.421875 
Q 36.765625 10.453125 38.203125 13.9375 
Q 39.65625 17.4375 39.65625 24.078125 
L 39.65625 51.859375 
L 48.4375 51.859375 
L 48.4375 0 
z
" id="ArialMT-117"/>
     <path d="M 6.390625 0 
L 6.390625 71.578125 
L 15.1875 71.578125 
L 15.1875 0 
z
" id="ArialMT-108"/>
    </defs>
    <g style="fill:#262626;" transform="translate(415.180063 202.435875)rotate(-90)scale(0.17 -0.17)">
     <use xlink:href="#ArialMT-82"/>
     <use x="72.216797" xlink:href="#ArialMT-101"/>
     <use x="127.832031" xlink:href="#ArialMT-112"/>
     <use x="183.447266" xlink:href="#ArialMT-117"/>
     <use x="239.0625" xlink:href="#ArialMT-108"/>
     <use x="261.279297" xlink:href="#ArialMT-115"/>
     <use x="311.279297" xlink:href="#ArialMT-105"/>
     <use x="333.496094" xlink:href="#ArialMT-111"/>
     <use x="389.111328" xlink:href="#ArialMT-110"/>
    </g>
   </g>
   <g id="text_12">
    <!-- Perceptual bias -->
    <defs>
     <path d="M 7.71875 0 
L 7.71875 71.578125 
L 34.71875 71.578125 
Q 41.84375 71.578125 45.609375 70.90625 
Q 50.875 70.015625 54.4375 67.546875 
Q 58.015625 65.09375 60.1875 60.640625 
Q 62.359375 56.203125 62.359375 50.875 
Q 62.359375 41.75 56.546875 35.421875 
Q 50.734375 29.109375 35.546875 29.109375 
L 17.1875 29.109375 
L 17.1875 0 
z
M 17.1875 37.546875 
L 35.6875 37.546875 
Q 44.875 37.546875 48.734375 40.96875 
Q 52.59375 44.390625 52.59375 50.59375 
Q 52.59375 55.078125 50.3125 58.265625 
Q 48.046875 61.46875 44.34375 62.5 
Q 41.9375 63.140625 35.5 63.140625 
L 17.1875 63.140625 
z
" id="ArialMT-80"/>
     <path d="M 14.703125 0 
L 6.546875 0 
L 6.546875 71.578125 
L 15.328125 71.578125 
L 15.328125 46.046875 
Q 20.90625 53.03125 29.546875 53.03125 
Q 34.328125 53.03125 38.59375 51.09375 
Q 42.875 49.171875 45.625 45.671875 
Q 48.390625 42.1875 49.953125 37.25 
Q 51.515625 32.328125 51.515625 26.703125 
Q 51.515625 13.375 44.921875 6.09375 
Q 38.328125 -1.171875 29.109375 -1.171875 
Q 19.921875 -1.171875 14.703125 6.5 
z
M 14.59375 26.3125 
Q 14.59375 17 17.140625 12.84375 
Q 21.296875 6.0625 28.375 6.0625 
Q 34.125 6.0625 38.328125 11.0625 
Q 42.53125 16.0625 42.53125 25.984375 
Q 42.53125 36.140625 38.5 40.96875 
Q 34.46875 45.796875 28.765625 45.796875 
Q 23 45.796875 18.796875 40.796875 
Q 14.59375 35.796875 14.59375 26.3125 
z
" id="ArialMT-98"/>
    </defs>
    <g style="fill:#262626;" transform="translate(155.788719 26.096625)scale(0.264 -0.264)">
     <use xlink:href="#ArialMT-80"/>
     <use x="66.699219" xlink:href="#ArialMT-101"/>
     <use x="122.314453" xlink:href="#ArialMT-114"/>
     <use x="155.615234" xlink:href="#ArialMT-99"/>
     <use x="205.615234" xlink:href="#ArialMT-101"/>
     <use x="261.230469" xlink:href="#ArialMT-112"/>
     <use x="316.845703" xlink:href="#ArialMT-116"/>
     <use x="344.628906" xlink:href="#ArialMT-117"/>
     <use x="400.244141" xlink:href="#ArialMT-97"/>
     <use x="455.859375" xlink:href="#ArialMT-108"/>
     <use x="478.076172" xlink:href="#ArialMT-32"/>
     <use x="505.859375" xlink:href="#ArialMT-98"/>
     <use x="561.474609" xlink:href="#ArialMT-105"/>
     <use x="583.691406" xlink:href="#ArialMT-97"/>
     <use x="639.306641" xlink:href="#ArialMT-115"/>
    </g>
   </g>
   <g id="legend_1">
    <g id="text_13">
     <!-- radius 1 -->
     <g style="fill:#e66101;" transform="translate(342.854281 57.949125)scale(0.16 -0.16)">
      <use xlink:href="#ArialMT-114"/>
      <use x="33.300781" xlink:href="#ArialMT-97"/>
      <use x="88.916016" xlink:href="#ArialMT-100"/>
      <use x="144.53125" xlink:href="#ArialMT-105"/>
      <use x="166.748047" xlink:href="#ArialMT-117"/>
      <use x="222.363281" xlink:href="#ArialMT-115"/>
      <use x="272.363281" xlink:href="#ArialMT-32"/>
      <use x="300.146484" xlink:href="#ArialMT-49"/>
     </g>
    </g>
    <g id="text_14">
     <!-- radius 3 -->
     <g style="fill:#5e3c99;" transform="translate(342.854281 80.581625)scale(0.16 -0.16)">
      <use xlink:href="#ArialMT-114"/>
      <use x="33.300781" xlink:href="#ArialMT-97"/>
      <use x="88.916016" xlink:href="#ArialMT-100"/>
      <use x="144.53125" xlink:href="#ArialMT-105"/>
      <use x="166.748047" xlink:href="#ArialMT-117"/>
      <use x="222.363281" xlink:href="#ArialMT-115"/>
      <use x="272.363281" xlink:href="#ArialMT-32"/>
      <use x="300.146484" xlink:href="#ArialMT-51"/>
     </g>
    </g>
   </g>
  </g>
 </g>
 <defs>
  <clipPath id="p973e99c6be">
   <rect height="217.44" width="334.8" x="79.371781" y="32.096625"/>
  </clipPath>
 </defs>
</svg>
