<?xml version="1.0" encoding="utf-8" standalone="no"?>
<!DOCTYPE svg PUBLIC "-//W3C//DTD SVG 1.1//EN"
  "http://www.w3.org/Graphics/SVG/1.1/DTD/svg11.dtd">
<!-- Created with matplotlib (https://matplotlib.org/) -->
<svg height="545.805406pt" version="1.1" viewBox="0 0 1126.847062 545.805406" width="1126.847062pt" xmlns="http://www.w3.org/2000/svg" xmlns:xlink="http://www.w3.org/1999/xlink">
 <defs>
  <style type="text/css">
*{stroke-linecap:butt;stroke-linejoin:round;}
  </style>
 </defs>
 <g id="figure_1">
  <g id="patch_1">
   <path d="M -0 545.805406 
L 1126.847062 545.805406 
L 1126.847062 0 
L -0 0 
z
" style="fill:none;"/>
  </g>
  <g id="axes_1">
   <g id="patch_2">
    <path d="M 107.247063 463.89375 
L 525.747062 463.89375 
L 525.747062 137.73375 
L 107.247063 137.73375 
z
" style="fill:#ffffff;"/>
   </g>
   <g id="matplotlib.axis_1">
    <g id="xtick_1">
     <g id="line2d_1">
      <defs>
       <path d="M 0 0 
L 0 -12 
" id="m8d99f32657" style="stroke:#262626;stroke-width:2.5;"/>
      </defs>
      <g>
       <use style="fill:#262626;stroke:#262626;stroke-width:2.5;" x="130.497062" xlink:href="#m8d99f32657" y="483.89375"/>
      </g>
     </g>
     <g id="text_1">
      <!-- -180 -->
      <defs>
       <path d="M 3.171875 21.484375 
L 3.171875 30.328125 
L 30.171875 30.328125 
L 30.171875 21.484375 
z
" id="ArialMT-45"/>
       <path d="M 37.25 0 
L 28.46875 0 
L 28.46875 56 
Q 25.296875 52.984375 20.140625 49.953125 
Q 14.984375 46.921875 10.890625 45.40625 
L 10.890625 53.90625 
Q 18.265625 57.375 23.78125 62.296875 
Q 29.296875 67.234375 31.59375 71.875 
L 37.25 71.875 
z
" id="ArialMT-49"/>
       <path d="M 17.671875 38.8125 
Q 12.203125 40.828125 9.5625 44.53125 
Q 6.9375 48.25 6.9375 53.421875 
Q 6.9375 61.234375 12.546875 66.546875 
Q 18.171875 71.875 27.484375 71.875 
Q 36.859375 71.875 42.578125 66.421875 
Q 48.296875 60.984375 48.296875 53.171875 
Q 48.296875 48.1875 45.671875 44.5 
Q 43.0625 40.828125 37.75 38.8125 
Q 44.34375 36.671875 47.78125 31.875 
Q 51.21875 27.09375 51.21875 20.453125 
Q 51.21875 11.28125 44.71875 5.03125 
Q 38.234375 -1.21875 27.640625 -1.21875 
Q 17.046875 -1.21875 10.546875 5.046875 
Q 4.046875 11.328125 4.046875 20.703125 
Q 4.046875 27.6875 7.59375 32.390625 
Q 11.140625 37.109375 17.671875 38.8125 
z
M 15.921875 53.71875 
Q 15.921875 48.640625 19.1875 45.40625 
Q 22.46875 42.1875 27.6875 42.1875 
Q 32.765625 42.1875 36.015625 45.375 
Q 39.265625 48.578125 39.265625 53.21875 
Q 39.265625 58.0625 35.90625 61.359375 
Q 32.5625 64.65625 27.59375 64.65625 
Q 22.5625 64.65625 19.234375 61.421875 
Q 15.921875 58.203125 15.921875 53.71875 
z
M 13.09375 20.65625 
Q 13.09375 16.890625 14.875 13.375 
Q 16.65625 9.859375 20.171875 7.921875 
Q 23.6875 6 27.734375 6 
Q 34.03125 6 38.125 10.046875 
Q 42.234375 14.109375 42.234375 20.359375 
Q 42.234375 26.703125 38.015625 30.859375 
Q 33.796875 35.015625 27.4375 35.015625 
Q 21.234375 35.015625 17.15625 30.90625 
Q 13.09375 26.8125 13.09375 20.65625 
z
" id="ArialMT-56"/>
       <path d="M 4.15625 35.296875 
Q 4.15625 48 6.765625 55.734375 
Q 9.375 63.484375 14.515625 67.671875 
Q 19.671875 71.875 27.484375 71.875 
Q 33.25 71.875 37.59375 69.546875 
Q 41.9375 67.234375 44.765625 62.859375 
Q 47.609375 58.5 49.21875 52.21875 
Q 50.828125 45.953125 50.828125 35.296875 
Q 50.828125 22.703125 48.234375 14.96875 
Q 45.65625 7.234375 40.5 3 
Q 35.359375 -1.21875 27.484375 -1.21875 
Q 17.140625 -1.21875 11.234375 6.203125 
Q 4.15625 15.140625 4.15625 35.296875 
z
M 13.1875 35.296875 
Q 13.1875 17.671875 17.3125 11.828125 
Q 21.4375 6 27.484375 6 
Q 33.546875 6 37.671875 11.859375 
Q 41.796875 17.71875 41.796875 35.296875 
Q 41.796875 52.984375 37.671875 58.78125 
Q 33.546875 64.59375 27.390625 64.59375 
Q 21.34375 64.59375 17.71875 59.46875 
Q 13.1875 52.9375 13.1875 35.296875 
z
" id="ArialMT-48"/>
      </defs>
      <g style="fill:#262626;" transform="translate(106.281937 504.715656)scale(0.242 -0.242)">
       <use xlink:href="#ArialMT-45"/>
       <use x="33.300781" xlink:href="#ArialMT-49"/>
       <use x="88.916016" xlink:href="#ArialMT-56"/>
       <use x="144.53125" xlink:href="#ArialMT-48"/>
      </g>
     </g>
    </g>
    <g id="xtick_2">
     <g id="line2d_2">
      <g>
       <use style="fill:#262626;stroke:#262626;stroke-width:2.5;" x="223.497062" xlink:href="#m8d99f32657" y="483.89375"/>
      </g>
     </g>
     <g id="text_2">
      <!-- -90 -->
      <defs>
       <path d="M 5.46875 16.546875 
L 13.921875 17.328125 
Q 14.984375 11.375 18.015625 8.6875 
Q 21.046875 6 25.78125 6 
Q 29.828125 6 32.875 7.859375 
Q 35.9375 9.71875 37.890625 12.8125 
Q 39.84375 15.921875 41.15625 21.1875 
Q 42.484375 26.46875 42.484375 31.9375 
Q 42.484375 32.515625 42.4375 33.6875 
Q 39.796875 29.5 35.234375 26.875 
Q 30.671875 24.265625 25.34375 24.265625 
Q 16.453125 24.265625 10.296875 30.703125 
Q 4.15625 37.15625 4.15625 47.703125 
Q 4.15625 58.59375 10.578125 65.234375 
Q 17 71.875 26.65625 71.875 
Q 33.640625 71.875 39.421875 68.109375 
Q 45.21875 64.359375 48.21875 57.390625 
Q 51.21875 50.4375 51.21875 37.25 
Q 51.21875 23.53125 48.234375 15.40625 
Q 45.265625 7.28125 39.375 3.03125 
Q 33.5 -1.21875 25.59375 -1.21875 
Q 17.1875 -1.21875 11.859375 3.4375 
Q 6.546875 8.109375 5.46875 16.546875 
z
M 41.453125 48.140625 
Q 41.453125 55.71875 37.421875 60.15625 
Q 33.40625 64.59375 27.734375 64.59375 
Q 21.875 64.59375 17.53125 59.8125 
Q 13.1875 55.03125 13.1875 47.40625 
Q 13.1875 40.578125 17.3125 36.296875 
Q 21.4375 32.03125 27.484375 32.03125 
Q 33.59375 32.03125 37.515625 36.296875 
Q 41.453125 40.578125 41.453125 48.140625 
z
" id="ArialMT-57"/>
      </defs>
      <g style="fill:#262626;" transform="translate(206.010672 504.715656)scale(0.242 -0.242)">
       <use xlink:href="#ArialMT-45"/>
       <use x="33.300781" xlink:href="#ArialMT-57"/>
       <use x="88.916016" xlink:href="#ArialMT-48"/>
      </g>
     </g>
    </g>
    <g id="xtick_3">
     <g id="line2d_3">
      <g>
       <use style="fill:#262626;stroke:#262626;stroke-width:2.5;" x="316.497062" xlink:href="#m8d99f32657" y="483.89375"/>
      </g>
     </g>
     <g id="text_3">
      <!-- 0 -->
      <g style="fill:#262626;" transform="translate(309.768328 504.715656)scale(0.242 -0.242)">
       <use xlink:href="#ArialMT-48"/>
      </g>
     </g>
    </g>
    <g id="xtick_4">
     <g id="line2d_4">
      <g>
       <use style="fill:#262626;stroke:#262626;stroke-width:2.5;" x="409.497062" xlink:href="#m8d99f32657" y="483.89375"/>
      </g>
     </g>
     <g id="text_4">
      <!-- 90 -->
      <g style="fill:#262626;" transform="translate(396.039594 504.715656)scale(0.242 -0.242)">
       <use xlink:href="#ArialMT-57"/>
       <use x="55.615234" xlink:href="#ArialMT-48"/>
      </g>
     </g>
    </g>
    <g id="xtick_5">
     <g id="line2d_5">
      <g>
       <use style="fill:#262626;stroke:#262626;stroke-width:2.5;" x="502.497062" xlink:href="#m8d99f32657" y="483.89375"/>
      </g>
     </g>
     <g id="text_5">
      <!-- 180 -->
      <g style="fill:#262626;" transform="translate(482.310859 504.715656)scale(0.242 -0.242)">
       <use xlink:href="#ArialMT-49"/>
       <use x="55.615234" xlink:href="#ArialMT-56"/>
       <use x="111.230469" xlink:href="#ArialMT-48"/>
      </g>
     </g>
    </g>
    <g id="text_6">
     <!-- angle to preferred ($\circ$) -->
     <defs>
      <path d="M 40.4375 6.390625 
Q 35.546875 2.25 31.03125 0.53125 
Q 26.515625 -1.171875 21.34375 -1.171875 
Q 12.796875 -1.171875 8.203125 3 
Q 3.609375 7.171875 3.609375 13.671875 
Q 3.609375 17.484375 5.34375 20.625 
Q 7.078125 23.78125 9.890625 25.6875 
Q 12.703125 27.59375 16.21875 28.5625 
Q 18.796875 29.25 24.03125 29.890625 
Q 34.671875 31.15625 39.703125 32.90625 
Q 39.75 34.71875 39.75 35.203125 
Q 39.75 40.578125 37.25 42.78125 
Q 33.890625 45.75 27.25 45.75 
Q 21.046875 45.75 18.09375 43.578125 
Q 15.140625 41.40625 13.71875 35.890625 
L 5.125 37.0625 
Q 6.296875 42.578125 8.984375 45.96875 
Q 11.671875 49.359375 16.75 51.1875 
Q 21.828125 53.03125 28.515625 53.03125 
Q 35.15625 53.03125 39.296875 51.46875 
Q 43.453125 49.90625 45.40625 47.53125 
Q 47.359375 45.171875 48.140625 41.546875 
Q 48.578125 39.3125 48.578125 33.453125 
L 48.578125 21.734375 
Q 48.578125 9.46875 49.140625 6.21875 
Q 49.703125 2.984375 51.375 0 
L 42.1875 0 
Q 40.828125 2.734375 40.4375 6.390625 
z
M 39.703125 26.03125 
Q 34.90625 24.078125 25.34375 22.703125 
Q 19.921875 21.921875 17.671875 20.9375 
Q 15.4375 19.96875 14.203125 18.09375 
Q 12.984375 16.21875 12.984375 13.921875 
Q 12.984375 10.40625 15.640625 8.0625 
Q 18.3125 5.71875 23.4375 5.71875 
Q 28.515625 5.71875 32.46875 7.9375 
Q 36.421875 10.15625 38.28125 14.015625 
Q 39.703125 17 39.703125 22.796875 
z
" id="ArialMT-97"/>
      <path d="M 6.59375 0 
L 6.59375 51.859375 
L 14.5 51.859375 
L 14.5 44.484375 
Q 20.21875 53.03125 31 53.03125 
Q 35.6875 53.03125 39.625 51.34375 
Q 43.5625 49.65625 45.515625 46.921875 
Q 47.46875 44.1875 48.25 40.4375 
Q 48.734375 37.984375 48.734375 31.890625 
L 48.734375 0 
L 39.9375 0 
L 39.9375 31.546875 
Q 39.9375 36.921875 38.90625 39.578125 
Q 37.890625 42.234375 35.28125 43.8125 
Q 32.671875 45.40625 29.15625 45.40625 
Q 23.53125 45.40625 19.453125 41.84375 
Q 15.375 38.28125 15.375 28.328125 
L 15.375 0 
z
" id="ArialMT-110"/>
      <path d="M 4.984375 -4.296875 
L 13.53125 -5.5625 
Q 14.0625 -9.515625 16.5 -11.328125 
Q 19.78125 -13.765625 25.4375 -13.765625 
Q 31.546875 -13.765625 34.859375 -11.328125 
Q 38.1875 -8.890625 39.359375 -4.5 
Q 40.046875 -1.8125 39.984375 6.78125 
Q 34.234375 0 25.640625 0 
Q 14.9375 0 9.078125 7.71875 
Q 3.21875 15.4375 3.21875 26.21875 
Q 3.21875 33.640625 5.90625 39.90625 
Q 8.59375 46.1875 13.6875 49.609375 
Q 18.796875 53.03125 25.6875 53.03125 
Q 34.859375 53.03125 40.828125 45.609375 
L 40.828125 51.859375 
L 48.921875 51.859375 
L 48.921875 7.03125 
Q 48.921875 -5.078125 46.453125 -10.125 
Q 44 -15.1875 38.640625 -18.109375 
Q 33.296875 -21.046875 25.484375 -21.046875 
Q 16.21875 -21.046875 10.5 -16.875 
Q 4.78125 -12.703125 4.984375 -4.296875 
z
M 12.25 26.859375 
Q 12.25 16.65625 16.296875 11.96875 
Q 20.359375 7.28125 26.46875 7.28125 
Q 32.515625 7.28125 36.609375 11.9375 
Q 40.71875 16.609375 40.71875 26.5625 
Q 40.71875 36.078125 36.5 40.90625 
Q 32.28125 45.75 26.3125 45.75 
Q 20.453125 45.75 16.34375 40.984375 
Q 12.25 36.234375 12.25 26.859375 
z
" id="ArialMT-103"/>
      <path d="M 6.390625 0 
L 6.390625 71.578125 
L 15.1875 71.578125 
L 15.1875 0 
z
" id="ArialMT-108"/>
      <path d="M 42.09375 16.703125 
L 51.171875 15.578125 
Q 49.03125 7.625 43.21875 3.21875 
Q 37.40625 -1.171875 28.375 -1.171875 
Q 17 -1.171875 10.328125 5.828125 
Q 3.65625 12.84375 3.65625 25.484375 
Q 3.65625 38.578125 10.390625 45.796875 
Q 17.140625 53.03125 27.875 53.03125 
Q 38.28125 53.03125 44.875 45.953125 
Q 51.46875 38.875 51.46875 26.03125 
Q 51.46875 25.25 51.421875 23.6875 
L 12.75 23.6875 
Q 13.234375 15.140625 17.578125 10.59375 
Q 21.921875 6.0625 28.421875 6.0625 
Q 33.25 6.0625 36.671875 8.59375 
Q 40.09375 11.140625 42.09375 16.703125 
z
M 13.234375 30.90625 
L 42.1875 30.90625 
Q 41.609375 37.453125 38.875 40.71875 
Q 34.671875 45.796875 27.984375 45.796875 
Q 21.921875 45.796875 17.796875 41.75 
Q 13.671875 37.703125 13.234375 30.90625 
z
" id="ArialMT-101"/>
      <path id="ArialMT-32"/>
      <path d="M 25.78125 7.859375 
L 27.046875 0.09375 
Q 23.34375 -0.6875 20.40625 -0.6875 
Q 15.625 -0.6875 12.984375 0.828125 
Q 10.359375 2.34375 9.28125 4.8125 
Q 8.203125 7.28125 8.203125 15.1875 
L 8.203125 45.015625 
L 1.765625 45.015625 
L 1.765625 51.859375 
L 8.203125 51.859375 
L 8.203125 64.703125 
L 16.9375 69.96875 
L 16.9375 51.859375 
L 25.78125 51.859375 
L 25.78125 45.015625 
L 16.9375 45.015625 
L 16.9375 14.703125 
Q 16.9375 10.9375 17.40625 9.859375 
Q 17.875 8.796875 18.921875 8.15625 
Q 19.96875 7.515625 21.921875 7.515625 
Q 23.390625 7.515625 25.78125 7.859375 
z
" id="ArialMT-116"/>
      <path d="M 3.328125 25.921875 
Q 3.328125 40.328125 11.328125 47.265625 
Q 18.015625 53.03125 27.640625 53.03125 
Q 38.328125 53.03125 45.109375 46.015625 
Q 51.90625 39.015625 51.90625 26.65625 
Q 51.90625 16.65625 48.90625 10.90625 
Q 45.90625 5.171875 40.15625 2 
Q 34.421875 -1.171875 27.640625 -1.171875 
Q 16.75 -1.171875 10.03125 5.8125 
Q 3.328125 12.796875 3.328125 25.921875 
z
M 12.359375 25.921875 
Q 12.359375 15.96875 16.703125 11.015625 
Q 21.046875 6.0625 27.640625 6.0625 
Q 34.1875 6.0625 38.53125 11.03125 
Q 42.875 16.015625 42.875 26.21875 
Q 42.875 35.84375 38.5 40.796875 
Q 34.125 45.75 27.640625 45.75 
Q 21.046875 45.75 16.703125 40.8125 
Q 12.359375 35.890625 12.359375 25.921875 
z
" id="ArialMT-111"/>
      <path d="M 6.59375 -19.875 
L 6.59375 51.859375 
L 14.59375 51.859375 
L 14.59375 45.125 
Q 17.4375 49.078125 21 51.046875 
Q 24.5625 53.03125 29.640625 53.03125 
Q 36.28125 53.03125 41.359375 49.609375 
Q 46.4375 46.1875 49.015625 39.953125 
Q 51.609375 33.734375 51.609375 26.3125 
Q 51.609375 18.359375 48.75 11.984375 
Q 45.90625 5.609375 40.453125 2.21875 
Q 35.015625 -1.171875 29 -1.171875 
Q 24.609375 -1.171875 21.109375 0.6875 
Q 17.625 2.546875 15.375 5.375 
L 15.375 -19.875 
z
M 14.546875 25.640625 
Q 14.546875 15.625 18.59375 10.84375 
Q 22.65625 6.0625 28.421875 6.0625 
Q 34.28125 6.0625 38.453125 11.015625 
Q 42.625 15.96875 42.625 26.375 
Q 42.625 36.28125 38.546875 41.203125 
Q 34.46875 46.140625 28.8125 46.140625 
Q 23.1875 46.140625 18.859375 40.890625 
Q 14.546875 35.640625 14.546875 25.640625 
z
" id="ArialMT-112"/>
      <path d="M 6.5 0 
L 6.5 51.859375 
L 14.40625 51.859375 
L 14.40625 44 
Q 17.4375 49.515625 20 51.265625 
Q 22.5625 53.03125 25.640625 53.03125 
Q 30.078125 53.03125 34.671875 50.203125 
L 31.640625 42.046875 
Q 28.421875 43.953125 25.203125 43.953125 
Q 22.3125 43.953125 20.015625 42.21875 
Q 17.71875 40.484375 16.75 37.40625 
Q 15.28125 32.71875 15.28125 27.15625 
L 15.28125 0 
z
" id="ArialMT-114"/>
      <path d="M 8.6875 0 
L 8.6875 45.015625 
L 0.921875 45.015625 
L 0.921875 51.859375 
L 8.6875 51.859375 
L 8.6875 57.375 
Q 8.6875 62.59375 9.625 65.140625 
Q 10.890625 68.5625 14.078125 70.671875 
Q 17.28125 72.796875 23.046875 72.796875 
Q 26.765625 72.796875 31.25 71.921875 
L 29.9375 64.265625 
Q 27.203125 64.75 24.75 64.75 
Q 20.75 64.75 19.09375 63.03125 
Q 17.4375 61.328125 17.4375 56.640625 
L 17.4375 51.859375 
L 27.546875 51.859375 
L 27.546875 45.015625 
L 17.4375 45.015625 
L 17.4375 0 
z
" id="ArialMT-102"/>
      <path d="M 40.234375 0 
L 40.234375 6.546875 
Q 35.296875 -1.171875 25.734375 -1.171875 
Q 19.53125 -1.171875 14.328125 2.25 
Q 9.125 5.671875 6.265625 11.796875 
Q 3.421875 17.921875 3.421875 25.875 
Q 3.421875 33.640625 6 39.96875 
Q 8.59375 46.296875 13.765625 49.65625 
Q 18.953125 53.03125 25.34375 53.03125 
Q 30.03125 53.03125 33.6875 51.046875 
Q 37.359375 49.078125 39.65625 45.90625 
L 39.65625 71.578125 
L 48.390625 71.578125 
L 48.390625 0 
z
M 12.453125 25.875 
Q 12.453125 15.921875 16.640625 10.984375 
Q 20.84375 6.0625 26.5625 6.0625 
Q 32.328125 6.0625 36.34375 10.765625 
Q 40.375 15.484375 40.375 25.140625 
Q 40.375 35.796875 36.265625 40.765625 
Q 32.171875 45.75 26.171875 45.75 
Q 20.3125 45.75 16.375 40.96875 
Q 12.453125 36.1875 12.453125 25.875 
z
" id="ArialMT-100"/>
      <path d="M 23.390625 -21.046875 
Q 16.109375 -11.859375 11.078125 0.4375 
Q 6.0625 12.75 6.0625 25.921875 
Q 6.0625 37.546875 9.8125 48.1875 
Q 14.203125 60.546875 23.390625 72.796875 
L 29.6875 72.796875 
Q 23.78125 62.640625 21.875 58.296875 
Q 18.890625 51.5625 17.1875 44.234375 
Q 15.09375 35.109375 15.09375 25.875 
Q 15.09375 2.390625 29.6875 -21.046875 
z
" id="ArialMT-40"/>
      <path d="M 31.296875 40.671875 
Q 27.390625 40.671875 24.703125 37.953125 
Q 22.015625 35.25 22.015625 31.34375 
Q 22.015625 27.484375 24.703125 24.828125 
Q 27.390625 22.171875 31.296875 22.171875 
Q 35.203125 22.171875 37.890625 24.828125 
Q 40.578125 27.484375 40.578125 31.34375 
Q 40.578125 35.203125 37.859375 37.9375 
Q 35.15625 40.671875 31.296875 40.671875 
z
M 31.296875 46.96875 
Q 34.421875 46.96875 37.296875 45.765625 
Q 40.1875 44.578125 42.28125 42.328125 
Q 44.53125 40.140625 45.65625 37.34375 
Q 46.78125 34.5625 46.78125 31.34375 
Q 46.78125 24.90625 42.265625 20.4375 
Q 37.75 15.96875 31.203125 15.96875 
Q 24.609375 15.96875 20.21875 20.359375 
Q 15.828125 24.75 15.828125 31.34375 
Q 15.828125 37.890625 20.3125 42.421875 
Q 24.8125 46.96875 31.296875 46.96875 
z
" id="DejaVuSans-8728"/>
      <path d="M 12.359375 -21.046875 
L 6.0625 -21.046875 
Q 20.65625 2.390625 20.65625 25.875 
Q 20.65625 35.0625 18.5625 44.09375 
Q 16.890625 51.421875 13.921875 58.15625 
Q 12.015625 62.546875 6.0625 72.796875 
L 12.359375 72.796875 
Q 21.53125 60.546875 25.921875 48.1875 
Q 29.6875 37.546875 29.6875 25.921875 
Q 29.6875 12.75 24.625 0.4375 
Q 19.578125 -11.859375 12.359375 -21.046875 
z
" id="ArialMT-41"/>
     </defs>
     <g style="fill:#262626;" transform="translate(191.493062 532.797406)scale(0.264 -0.264)">
      <use transform="translate(0 0.203125)" xlink:href="#ArialMT-97"/>
      <use transform="translate(55.615234 0.203125)" xlink:href="#ArialMT-110"/>
      <use transform="translate(111.230469 0.203125)" xlink:href="#ArialMT-103"/>
      <use transform="translate(166.845703 0.203125)" xlink:href="#ArialMT-108"/>
      <use transform="translate(189.0625 0.203125)" xlink:href="#ArialMT-101"/>
      <use transform="translate(244.677734 0.203125)" xlink:href="#ArialMT-32"/>
      <use transform="translate(272.460938 0.203125)" xlink:href="#ArialMT-116"/>
      <use transform="translate(300.244141 0.203125)" xlink:href="#ArialMT-111"/>
      <use transform="translate(355.859375 0.203125)" xlink:href="#ArialMT-32"/>
      <use transform="translate(383.642578 0.203125)" xlink:href="#ArialMT-112"/>
      <use transform="translate(439.257812 0.203125)" xlink:href="#ArialMT-114"/>
      <use transform="translate(472.558594 0.203125)" xlink:href="#ArialMT-101"/>
      <use transform="translate(528.173828 0.203125)" xlink:href="#ArialMT-102"/>
      <use transform="translate(555.957031 0.203125)" xlink:href="#ArialMT-101"/>
      <use transform="translate(611.572266 0.203125)" xlink:href="#ArialMT-114"/>
      <use transform="translate(644.873047 0.203125)" xlink:href="#ArialMT-114"/>
      <use transform="translate(678.173828 0.203125)" xlink:href="#ArialMT-101"/>
      <use transform="translate(733.789062 0.203125)" xlink:href="#ArialMT-100"/>
      <use transform="translate(789.404297 0.203125)" xlink:href="#ArialMT-32"/>
      <use transform="translate(817.1875 0.203125)" xlink:href="#ArialMT-40"/>
      <use transform="translate(850.488281 0.203125)" xlink:href="#DejaVuSans-8728"/>
      <use transform="translate(913.085938 0.203125)" xlink:href="#ArialMT-41"/>
     </g>
    </g>
   </g>
   <g id="matplotlib.axis_2">
    <g id="ytick_1">
     <g id="line2d_6">
      <defs>
       <path d="M 0 0 
L 12 0 
" id="m7626df3585" style="stroke:#262626;stroke-width:2.5;"/>
      </defs>
      <g>
       <use style="fill:#262626;stroke:#262626;stroke-width:2.5;" x="87.247063" xlink:href="#m7626df3585" y="463.89375"/>
      </g>
     </g>
     <g id="text_7">
      <!-- −0.8 -->
      <defs>
       <path d="M 52.828125 31.203125 
L 5.5625 31.203125 
L 5.5625 39.40625 
L 52.828125 39.40625 
z
" id="ArialMT-8722"/>
       <path d="M 9.078125 0 
L 9.078125 10.015625 
L 19.09375 10.015625 
L 19.09375 0 
z
" id="ArialMT-46"/>
      </defs>
      <g style="fill:#262626;" transform="translate(35.97475 472.554703)scale(0.242 -0.242)">
       <use xlink:href="#ArialMT-8722"/>
       <use x="58.398438" xlink:href="#ArialMT-48"/>
       <use x="114.013672" xlink:href="#ArialMT-46"/>
       <use x="141.796875" xlink:href="#ArialMT-56"/>
      </g>
     </g>
    </g>
    <g id="ytick_2">
     <g id="line2d_7">
      <g>
       <use style="fill:#262626;stroke:#262626;stroke-width:2.5;" x="87.247063" xlink:href="#m7626df3585" y="382.35375"/>
      </g>
     </g>
     <g id="text_8">
      <!-- −0.4 -->
      <defs>
       <path d="M 32.328125 0 
L 32.328125 17.140625 
L 1.265625 17.140625 
L 1.265625 25.203125 
L 33.9375 71.578125 
L 41.109375 71.578125 
L 41.109375 25.203125 
L 50.78125 25.203125 
L 50.78125 17.140625 
L 41.109375 17.140625 
L 41.109375 0 
z
M 32.328125 25.203125 
L 32.328125 57.46875 
L 9.90625 25.203125 
z
" id="ArialMT-52"/>
      </defs>
      <g style="fill:#262626;" transform="translate(35.97475 391.014703)scale(0.242 -0.242)">
       <use xlink:href="#ArialMT-8722"/>
       <use x="58.398438" xlink:href="#ArialMT-48"/>
       <use x="114.013672" xlink:href="#ArialMT-46"/>
       <use x="141.796875" xlink:href="#ArialMT-52"/>
      </g>
     </g>
    </g>
    <g id="ytick_3">
     <g id="line2d_8">
      <g>
       <use style="fill:#262626;stroke:#262626;stroke-width:2.5;" x="87.247063" xlink:href="#m7626df3585" y="300.81375"/>
      </g>
     </g>
     <g id="text_9">
      <!-- 0.0 -->
      <g style="fill:#262626;" transform="translate(50.109063 309.474703)scale(0.242 -0.242)">
       <use xlink:href="#ArialMT-48"/>
       <use x="55.615234" xlink:href="#ArialMT-46"/>
       <use x="83.398438" xlink:href="#ArialMT-48"/>
      </g>
     </g>
    </g>
    <g id="ytick_4">
     <g id="line2d_9">
      <g>
       <use style="fill:#262626;stroke:#262626;stroke-width:2.5;" x="87.247063" xlink:href="#m7626df3585" y="219.27375"/>
      </g>
     </g>
     <g id="text_10">
      <!-- 0.4 -->
      <g style="fill:#262626;" transform="translate(50.109063 227.934703)scale(0.242 -0.242)">
       <use xlink:href="#ArialMT-48"/>
       <use x="55.615234" xlink:href="#ArialMT-46"/>
       <use x="83.398438" xlink:href="#ArialMT-52"/>
      </g>
     </g>
    </g>
    <g id="ytick_5">
     <g id="line2d_10">
      <g>
       <use style="fill:#262626;stroke:#262626;stroke-width:2.5;" x="87.247063" xlink:href="#m7626df3585" y="137.73375"/>
      </g>
     </g>
     <g id="text_11">
      <!-- 0.8 -->
      <g style="fill:#262626;" transform="translate(50.109063 146.394703)scale(0.242 -0.242)">
       <use xlink:href="#ArialMT-48"/>
       <use x="55.615234" xlink:href="#ArialMT-46"/>
       <use x="83.398438" xlink:href="#ArialMT-56"/>
      </g>
     </g>
    </g>
    <g id="text_12">
     <!-- firing rate (zscore) -->
     <defs>
      <path d="M 6.640625 61.46875 
L 6.640625 71.578125 
L 15.4375 71.578125 
L 15.4375 61.46875 
z
M 6.640625 0 
L 6.640625 51.859375 
L 15.4375 51.859375 
L 15.4375 0 
z
" id="ArialMT-105"/>
      <path d="M 1.953125 0 
L 1.953125 7.125 
L 34.96875 45.015625 
Q 29.34375 44.734375 25.046875 44.734375 
L 3.90625 44.734375 
L 3.90625 51.859375 
L 46.296875 51.859375 
L 46.296875 46.046875 
L 18.21875 13.140625 
L 12.796875 7.125 
Q 18.703125 7.5625 23.875 7.5625 
L 47.859375 7.5625 
L 47.859375 0 
z
" id="ArialMT-122"/>
      <path d="M 3.078125 15.484375 
L 11.765625 16.84375 
Q 12.5 11.625 15.84375 8.84375 
Q 19.1875 6.0625 25.203125 6.0625 
Q 31.25 6.0625 34.171875 8.515625 
Q 37.109375 10.984375 37.109375 14.3125 
Q 37.109375 17.28125 34.515625 19 
Q 32.71875 20.171875 25.53125 21.96875 
Q 15.875 24.421875 12.140625 26.203125 
Q 8.40625 27.984375 6.46875 31.125 
Q 4.546875 34.28125 4.546875 38.09375 
Q 4.546875 41.546875 6.125 44.5 
Q 7.71875 47.46875 10.453125 49.421875 
Q 12.5 50.921875 16.03125 51.96875 
Q 19.578125 53.03125 23.640625 53.03125 
Q 29.734375 53.03125 34.34375 51.265625 
Q 38.96875 49.515625 41.15625 46.5 
Q 43.359375 43.5 44.1875 38.484375 
L 35.59375 37.3125 
Q 35.015625 41.3125 32.203125 43.546875 
Q 29.390625 45.796875 24.265625 45.796875 
Q 18.21875 45.796875 15.625 43.796875 
Q 13.03125 41.796875 13.03125 39.109375 
Q 13.03125 37.40625 14.109375 36.03125 
Q 15.1875 34.625 17.484375 33.6875 
Q 18.796875 33.203125 25.25 31.453125 
Q 34.578125 28.953125 38.25 27.359375 
Q 41.9375 25.78125 44.03125 22.75 
Q 46.140625 19.734375 46.140625 15.234375 
Q 46.140625 10.84375 43.578125 6.953125 
Q 41.015625 3.078125 36.171875 0.953125 
Q 31.34375 -1.171875 25.25 -1.171875 
Q 15.140625 -1.171875 9.84375 3.03125 
Q 4.546875 7.234375 3.078125 15.484375 
z
" id="ArialMT-115"/>
      <path d="M 40.4375 19 
L 49.078125 17.875 
Q 47.65625 8.9375 41.8125 3.875 
Q 35.984375 -1.171875 27.484375 -1.171875 
Q 16.84375 -1.171875 10.375 5.78125 
Q 3.90625 12.75 3.90625 25.734375 
Q 3.90625 34.125 6.6875 40.421875 
Q 9.46875 46.734375 15.15625 49.875 
Q 20.84375 53.03125 27.546875 53.03125 
Q 35.984375 53.03125 41.359375 48.75 
Q 46.734375 44.484375 48.25 36.625 
L 39.703125 35.296875 
Q 38.484375 40.53125 35.375 43.15625 
Q 32.28125 45.796875 27.875 45.796875 
Q 21.234375 45.796875 17.078125 41.03125 
Q 12.9375 36.28125 12.9375 25.984375 
Q 12.9375 15.53125 16.9375 10.796875 
Q 20.953125 6.0625 27.390625 6.0625 
Q 32.5625 6.0625 36.03125 9.234375 
Q 39.5 12.40625 40.4375 19 
z
" id="ArialMT-99"/>
     </defs>
     <g style="fill:#262626;" transform="translate(26.418375 407.166562)rotate(-90)scale(0.264 -0.264)">
      <use xlink:href="#ArialMT-102"/>
      <use x="27.783203" xlink:href="#ArialMT-105"/>
      <use x="50" xlink:href="#ArialMT-114"/>
      <use x="83.300781" xlink:href="#ArialMT-105"/>
      <use x="105.517578" xlink:href="#ArialMT-110"/>
      <use x="161.132812" xlink:href="#ArialMT-103"/>
      <use x="216.748047" xlink:href="#ArialMT-32"/>
      <use x="244.53125" xlink:href="#ArialMT-114"/>
      <use x="277.832031" xlink:href="#ArialMT-97"/>
      <use x="333.447266" xlink:href="#ArialMT-116"/>
      <use x="361.230469" xlink:href="#ArialMT-101"/>
      <use x="416.845703" xlink:href="#ArialMT-32"/>
      <use x="444.628906" xlink:href="#ArialMT-40"/>
      <use x="477.929688" xlink:href="#ArialMT-122"/>
      <use x="527.929688" xlink:href="#ArialMT-115"/>
      <use x="577.929688" xlink:href="#ArialMT-99"/>
      <use x="627.929688" xlink:href="#ArialMT-111"/>
      <use x="683.544922" xlink:href="#ArialMT-114"/>
      <use x="716.845703" xlink:href="#ArialMT-101"/>
      <use x="772.460938" xlink:href="#ArialMT-41"/>
     </g>
    </g>
   </g>
   <g id="PathCollection_1">
    <defs>
     <path d="M 0 6.767896 
C 1.794867 6.767896 3.516463 6.054788 4.785625 4.785625 
C 6.054788 3.516463 6.767896 1.794867 6.767896 0 
C 6.767896 -1.794867 6.054788 -3.516463 4.785625 -4.785625 
C 3.516463 -6.054788 1.794867 -6.767896 0 -6.767896 
C -1.794867 -6.767896 -3.516463 -6.054788 -4.785625 -4.785625 
C -6.054788 -3.516463 -6.767896 -1.794867 -6.767896 0 
C -6.767896 1.794867 -6.054788 3.516463 -4.785625 4.785625 
C -3.516463 6.054788 -1.794867 6.767896 0 6.767896 
z
" id="C0_0_f789e40e65"/>
    </defs>
    <g clip-path="url(#p86a1ca0134)">
     <use style="fill:#e66101;stroke:#e66101;stroke-width:4.05;" x="130.497062" xlink:href="#C0_0_f789e40e65" y="432.440809"/>
    </g>
    <g clip-path="url(#p86a1ca0134)">
     <use style="fill:#e66101;stroke:#e66101;stroke-width:4.05;" x="176.997062" xlink:href="#C0_0_f789e40e65" y="420.116331"/>
    </g>
    <g clip-path="url(#p86a1ca0134)">
     <use style="fill:#e66101;stroke:#e66101;stroke-width:4.05;" x="223.497062" xlink:href="#C0_0_f789e40e65" y="339.223862"/>
    </g>
    <g clip-path="url(#p86a1ca0134)">
     <use style="fill:#e66101;stroke:#e66101;stroke-width:4.05;" x="269.997062" xlink:href="#C0_0_f789e40e65" y="216.307092"/>
    </g>
    <g clip-path="url(#p86a1ca0134)">
     <use style="fill:#e66101;stroke:#e66101;stroke-width:4.05;" x="316.497062" xlink:href="#C0_0_f789e40e65" y="188.948355"/>
    </g>
    <g clip-path="url(#p86a1ca0134)">
     <use style="fill:#e66101;stroke:#e66101;stroke-width:4.05;" x="362.997062" xlink:href="#C0_0_f789e40e65" y="217.840065"/>
    </g>
    <g clip-path="url(#p86a1ca0134)">
     <use style="fill:#e66101;stroke:#e66101;stroke-width:4.05;" x="409.497062" xlink:href="#C0_0_f789e40e65" y="356.158363"/>
    </g>
    <g clip-path="url(#p86a1ca0134)">
     <use style="fill:#e66101;stroke:#e66101;stroke-width:4.05;" x="455.997062" xlink:href="#C0_0_f789e40e65" y="377.419799"/>
    </g>
    <g clip-path="url(#p86a1ca0134)">
     <use style="fill:#e66101;stroke:#e66101;stroke-width:4.05;" x="502.497062" xlink:href="#C0_0_f789e40e65" y="432.440809"/>
    </g>
   </g>
   <g id="line2d_11">
    <path clip-path="url(#p86a1ca0134)" d="M 130.497062 432.440809 
L 176.997062 420.116331 
L 223.497062 339.223862 
L 269.997062 216.307092 
L 316.497062 188.948355 
L 362.997062 217.840065 
L 409.497062 356.158363 
L 455.997062 377.419799 
L 502.497062 432.440809 
" style="fill:none;stroke:#e66101;stroke-linecap:round;stroke-width:5.4;"/>
   </g>
   <g id="line2d_12">
    <path clip-path="url(#p86a1ca0134)" d="M 130.497062 449.480241 
L 130.497062 415.251344 
" style="fill:none;stroke:#e66101;stroke-linecap:round;stroke-width:5.4;"/>
   </g>
   <g id="line2d_13">
    <path clip-path="url(#p86a1ca0134)" d="M 176.997062 435.503511 
L 176.997062 403.841325 
" style="fill:none;stroke:#e66101;stroke-linecap:round;stroke-width:5.4;"/>
   </g>
   <g id="line2d_14">
    <path clip-path="url(#p86a1ca0134)" d="M 223.497062 357.360379 
L 223.497062 319.907949 
" style="fill:none;stroke:#e66101;stroke-linecap:round;stroke-width:5.4;"/>
   </g>
   <g id="line2d_15">
    <path clip-path="url(#p86a1ca0134)" d="M 269.997062 241.890598 
L 269.997062 188.779365 
" style="fill:none;stroke:#e66101;stroke-linecap:round;stroke-width:5.4;"/>
   </g>
   <g id="line2d_16">
    <path clip-path="url(#p86a1ca0134)" d="M 316.497062 221.185201 
L 316.497062 160.237066 
" style="fill:none;stroke:#e66101;stroke-linecap:round;stroke-width:5.4;"/>
   </g>
   <g id="line2d_17">
    <path clip-path="url(#p86a1ca0134)" d="M 362.997062 243.015156 
L 362.997062 191.898355 
" style="fill:none;stroke:#e66101;stroke-linecap:round;stroke-width:5.4;"/>
   </g>
   <g id="line2d_18">
    <path clip-path="url(#p86a1ca0134)" d="M 409.497062 377.209139 
L 409.497062 332.734471 
" style="fill:none;stroke:#e66101;stroke-linecap:round;stroke-width:5.4;"/>
   </g>
   <g id="line2d_19">
    <path clip-path="url(#p86a1ca0134)" d="M 455.997062 392.948019 
L 455.997062 362.632335 
" style="fill:none;stroke:#e66101;stroke-linecap:round;stroke-width:5.4;"/>
   </g>
   <g id="line2d_20">
    <path clip-path="url(#p86a1ca0134)" d="M 502.497062 449.647584 
L 502.497062 416.689383 
" style="fill:none;stroke:#e66101;stroke-linecap:round;stroke-width:5.4;"/>
   </g>
   <g id="PathCollection_2">
    <defs>
     <path d="M 0 6.767896 
C 1.794867 6.767896 3.516463 6.054788 4.785625 4.785625 
C 6.054788 3.516463 6.767896 1.794867 6.767896 0 
C 6.767896 -1.794867 6.054788 -3.516463 4.785625 -4.785625 
C 3.516463 -6.054788 1.794867 -6.767896 0 -6.767896 
C -1.794867 -6.767896 -3.516463 -6.054788 -4.785625 -4.785625 
C -6.054788 -3.516463 -6.767896 -1.794867 -6.767896 0 
C -6.767896 1.794867 -6.054788 3.516463 -4.785625 4.785625 
C -3.516463 6.054788 -1.794867 6.767896 0 6.767896 
z
" id="C1_0_699edd7e3c"/>
    </defs>
    <g clip-path="url(#p86a1ca0134)">
     <use style="fill:#5e3c99;stroke:#5e3c99;stroke-width:4.05;" x="130.497062" xlink:href="#C1_0_699edd7e3c" y="447.450846"/>
    </g>
    <g clip-path="url(#p86a1ca0134)">
     <use style="fill:#5e3c99;stroke:#5e3c99;stroke-width:4.05;" x="176.997062" xlink:href="#C1_0_699edd7e3c" y="368.410327"/>
    </g>
    <g clip-path="url(#p86a1ca0134)">
     <use style="fill:#5e3c99;stroke:#5e3c99;stroke-width:4.05;" x="223.497062" xlink:href="#C1_0_699edd7e3c" y="329.887412"/>
    </g>
    <g clip-path="url(#p86a1ca0134)">
     <use style="fill:#5e3c99;stroke:#5e3c99;stroke-width:4.05;" x="269.997062" xlink:href="#C1_0_699edd7e3c" y="219.332112"/>
    </g>
    <g clip-path="url(#p86a1ca0134)">
     <use style="fill:#5e3c99;stroke:#5e3c99;stroke-width:4.05;" x="316.497062" xlink:href="#C1_0_699edd7e3c" y="204.625283"/>
    </g>
    <g clip-path="url(#p86a1ca0134)">
     <use style="fill:#5e3c99;stroke:#5e3c99;stroke-width:4.05;" x="362.997062" xlink:href="#C1_0_699edd7e3c" y="236.354747"/>
    </g>
    <g clip-path="url(#p86a1ca0134)">
     <use style="fill:#5e3c99;stroke:#5e3c99;stroke-width:4.05;" x="409.497062" xlink:href="#C1_0_699edd7e3c" y="316.067605"/>
    </g>
    <g clip-path="url(#p86a1ca0134)">
     <use style="fill:#5e3c99;stroke:#5e3c99;stroke-width:4.05;" x="455.997062" xlink:href="#C1_0_699edd7e3c" y="380.627729"/>
    </g>
    <g clip-path="url(#p86a1ca0134)">
     <use style="fill:#5e3c99;stroke:#5e3c99;stroke-width:4.05;" x="502.497062" xlink:href="#C1_0_699edd7e3c" y="447.450846"/>
    </g>
   </g>
   <g id="line2d_21">
    <path clip-path="url(#p86a1ca0134)" d="M 130.497062 447.450846 
L 176.997062 368.410327 
L 223.497062 329.887412 
L 269.997062 219.332112 
L 316.497062 204.625283 
L 362.997062 236.354747 
L 409.497062 316.067605 
L 455.997062 380.627729 
L 502.497062 447.450846 
" style="fill:none;stroke:#5e3c99;stroke-linecap:round;stroke-width:5.4;"/>
   </g>
   <g id="line2d_22">
    <path clip-path="url(#p86a1ca0134)" d="M 130.497062 467.746878 
L 130.497062 426.760282 
" style="fill:none;stroke:#5e3c99;stroke-linecap:round;stroke-width:5.4;"/>
   </g>
   <g id="line2d_23">
    <path clip-path="url(#p86a1ca0134)" d="M 176.997062 390.764281 
L 176.997062 346.851852 
" style="fill:none;stroke:#5e3c99;stroke-linecap:round;stroke-width:5.4;"/>
   </g>
   <g id="line2d_24">
    <path clip-path="url(#p86a1ca0134)" d="M 223.497062 352.381486 
L 223.497062 307.915473 
" style="fill:none;stroke:#5e3c99;stroke-linecap:round;stroke-width:5.4;"/>
   </g>
   <g id="line2d_25">
    <path clip-path="url(#p86a1ca0134)" d="M 269.997062 247.586421 
L 269.997062 189.226055 
" style="fill:none;stroke:#5e3c99;stroke-linecap:round;stroke-width:5.4;"/>
   </g>
   <g id="line2d_26">
    <path clip-path="url(#p86a1ca0134)" d="M 316.497062 232.365959 
L 316.497062 175.409509 
" style="fill:none;stroke:#5e3c99;stroke-linecap:round;stroke-width:5.4;"/>
   </g>
   <g id="line2d_27">
    <path clip-path="url(#p86a1ca0134)" d="M 362.997062 267.541931 
L 362.997062 207.422568 
" style="fill:none;stroke:#5e3c99;stroke-linecap:round;stroke-width:5.4;"/>
   </g>
   <g id="line2d_28">
    <path clip-path="url(#p86a1ca0134)" d="M 409.497062 337.912093 
L 409.497062 293.796948 
" style="fill:none;stroke:#5e3c99;stroke-linecap:round;stroke-width:5.4;"/>
   </g>
   <g id="line2d_29">
    <path clip-path="url(#p86a1ca0134)" d="M 455.997062 398.344467 
L 455.997062 362.985155 
" style="fill:none;stroke:#5e3c99;stroke-linecap:round;stroke-width:5.4;"/>
   </g>
   <g id="line2d_30">
    <path clip-path="url(#p86a1ca0134)" d="M 502.497062 469.452469 
L 502.497062 427.308674 
" style="fill:none;stroke:#5e3c99;stroke-linecap:round;stroke-width:5.4;"/>
   </g>
   <g id="patch_3">
    <path d="M 87.247063 463.89375 
L 87.247063 137.73375 
" style="fill:none;stroke:#262626;stroke-linecap:square;stroke-linejoin:miter;stroke-width:2.5;"/>
   </g>
   <g id="patch_4">
    <path d="M 124.23319 483.89375 
L 508.760935 483.89375 
" style="fill:none;stroke:#262626;stroke-linecap:square;stroke-linejoin:miter;stroke-width:2.5;"/>
   </g>
   <g id="text_13">
    <!-- N= 53 -->
    <defs>
     <path d="M 7.625 0 
L 7.625 71.578125 
L 17.328125 71.578125 
L 54.9375 15.375 
L 54.9375 71.578125 
L 64.015625 71.578125 
L 64.015625 0 
L 54.296875 0 
L 16.703125 56.25 
L 16.703125 0 
z
" id="ArialMT-78"/>
     <path d="M 52.828125 42.09375 
L 5.5625 42.09375 
L 5.5625 50.296875 
L 52.828125 50.296875 
z
M 52.828125 20.359375 
L 5.5625 20.359375 
L 5.5625 28.5625 
L 52.828125 28.5625 
z
" id="ArialMT-61"/>
     <path d="M 4.15625 18.75 
L 13.375 19.53125 
Q 14.40625 12.796875 18.140625 9.390625 
Q 21.875 6 27.15625 6 
Q 33.5 6 37.890625 10.78125 
Q 42.28125 15.578125 42.28125 23.484375 
Q 42.28125 31 38.0625 35.34375 
Q 33.84375 39.703125 27 39.703125 
Q 22.75 39.703125 19.328125 37.765625 
Q 15.921875 35.84375 13.96875 32.765625 
L 5.71875 33.84375 
L 12.640625 70.609375 
L 48.25 70.609375 
L 48.25 62.203125 
L 19.671875 62.203125 
L 15.828125 42.96875 
Q 22.265625 47.46875 29.34375 47.46875 
Q 38.71875 47.46875 45.15625 40.96875 
Q 51.609375 34.46875 51.609375 24.265625 
Q 51.609375 14.546875 45.953125 7.46875 
Q 39.0625 -1.21875 27.15625 -1.21875 
Q 17.390625 -1.21875 11.203125 4.25 
Q 5.03125 9.71875 4.15625 18.75 
z
" id="ArialMT-53"/>
     <path d="M 4.203125 18.890625 
L 12.984375 20.0625 
Q 14.5 12.59375 18.140625 9.296875 
Q 21.78125 6 27 6 
Q 33.203125 6 37.46875 10.296875 
Q 41.75 14.59375 41.75 20.953125 
Q 41.75 27 37.796875 30.921875 
Q 33.84375 34.859375 27.734375 34.859375 
Q 25.25 34.859375 21.53125 33.890625 
L 22.515625 41.609375 
Q 23.390625 41.5 23.921875 41.5 
Q 29.546875 41.5 34.03125 44.421875 
Q 38.53125 47.359375 38.53125 53.46875 
Q 38.53125 58.296875 35.25 61.46875 
Q 31.984375 64.65625 26.8125 64.65625 
Q 21.6875 64.65625 18.265625 61.421875 
Q 14.84375 58.203125 13.875 51.765625 
L 5.078125 53.328125 
Q 6.6875 62.15625 12.390625 67.015625 
Q 18.109375 71.875 26.609375 71.875 
Q 32.46875 71.875 37.390625 69.359375 
Q 42.328125 66.84375 44.9375 62.5 
Q 47.5625 58.15625 47.5625 53.265625 
Q 47.5625 48.640625 45.0625 44.828125 
Q 42.578125 41.015625 37.703125 38.765625 
Q 44.046875 37.3125 47.5625 32.6875 
Q 51.078125 28.078125 51.078125 21.140625 
Q 51.078125 11.765625 44.234375 5.25 
Q 37.40625 -1.265625 26.953125 -1.265625 
Q 17.53125 -1.265625 11.296875 4.34375 
Q 5.078125 9.96875 4.203125 18.890625 
z
" id="ArialMT-51"/>
    </defs>
    <g style="fill:#e66101;" transform="translate(130.497062 178.50375)scale(0.22 -0.22)">
     <use xlink:href="#ArialMT-78"/>
     <use x="72.216797" xlink:href="#ArialMT-61"/>
     <use x="130.615234" xlink:href="#ArialMT-32"/>
     <use x="158.398438" xlink:href="#ArialMT-53"/>
     <use x="214.013672" xlink:href="#ArialMT-51"/>
    </g>
   </g>
   <g id="text_14">
    <!-- N= 43 -->
    <g style="fill:#5e3c99;" transform="translate(130.497062 211.11975)scale(0.22 -0.22)">
     <use xlink:href="#ArialMT-78"/>
     <use x="72.216797" xlink:href="#ArialMT-61"/>
     <use x="130.615234" xlink:href="#ArialMT-32"/>
     <use x="158.398438" xlink:href="#ArialMT-52"/>
     <use x="214.013672" xlink:href="#ArialMT-51"/>
    </g>
   </g>
   <g id="legend_1">
    <g id="text_15">
     <!-- radius 1 -->
     <defs>
      <path d="M 40.578125 0 
L 40.578125 7.625 
Q 34.515625 -1.171875 24.125 -1.171875 
Q 19.53125 -1.171875 15.546875 0.578125 
Q 11.578125 2.34375 9.640625 5 
Q 7.71875 7.671875 6.9375 11.53125 
Q 6.390625 14.109375 6.390625 19.734375 
L 6.390625 51.859375 
L 15.1875 51.859375 
L 15.1875 23.09375 
Q 15.1875 16.21875 15.71875 13.8125 
Q 16.546875 10.359375 19.234375 8.375 
Q 21.921875 6.390625 25.875 6.390625 
Q 29.828125 6.390625 33.296875 8.421875 
Q 36.765625 10.453125 38.203125 13.9375 
Q 39.65625 17.4375 39.65625 24.078125 
L 39.65625 51.859375 
L 48.4375 51.859375 
L 48.4375 0 
z
" id="ArialMT-117"/>
     </defs>
     <g style="fill:#e66101;" transform="translate(417.879344 176.835656)scale(0.242 -0.242)">
      <use xlink:href="#ArialMT-114"/>
      <use x="33.300781" xlink:href="#ArialMT-97"/>
      <use x="88.916016" xlink:href="#ArialMT-100"/>
      <use x="144.53125" xlink:href="#ArialMT-105"/>
      <use x="166.748047" xlink:href="#ArialMT-117"/>
      <use x="222.363281" xlink:href="#ArialMT-115"/>
      <use x="272.363281" xlink:href="#ArialMT-32"/>
      <use x="300.146484" xlink:href="#ArialMT-49"/>
     </g>
    </g>
    <g id="text_16">
     <!-- radius 3 -->
     <g style="fill:#5e3c99;" transform="translate(417.879344 211.067312)scale(0.242 -0.242)">
      <use xlink:href="#ArialMT-114"/>
      <use x="33.300781" xlink:href="#ArialMT-97"/>
      <use x="88.916016" xlink:href="#ArialMT-100"/>
      <use x="144.53125" xlink:href="#ArialMT-105"/>
      <use x="166.748047" xlink:href="#ArialMT-117"/>
      <use x="222.363281" xlink:href="#ArialMT-115"/>
      <use x="272.363281" xlink:href="#ArialMT-32"/>
      <use x="300.146484" xlink:href="#ArialMT-51"/>
     </g>
    </g>
   </g>
  </g>
  <g id="axes_2">
   <g id="patch_5">
    <path d="M 693.147063 463.89375 
L 1111.647063 463.89375 
L 1111.647063 137.73375 
L 693.147063 137.73375 
z
" style="fill:#ffffff;"/>
   </g>
   <g id="matplotlib.axis_3">
    <g id="xtick_6">
     <g id="line2d_31">
      <g>
       <use style="fill:#262626;stroke:#262626;stroke-width:2.5;" x="752.932777" xlink:href="#m8d99f32657" y="483.89375"/>
      </g>
     </g>
     <g id="text_17">
      <!-- radius 1 -->
      <g style="fill:#262626;" transform="translate(709.888917 504.715656)scale(0.242 -0.242)">
       <use xlink:href="#ArialMT-114"/>
       <use x="33.300781" xlink:href="#ArialMT-97"/>
       <use x="88.916016" xlink:href="#ArialMT-100"/>
       <use x="144.53125" xlink:href="#ArialMT-105"/>
       <use x="166.748047" xlink:href="#ArialMT-117"/>
       <use x="222.363281" xlink:href="#ArialMT-115"/>
       <use x="272.363281" xlink:href="#ArialMT-32"/>
       <use x="300.146484" xlink:href="#ArialMT-49"/>
      </g>
     </g>
    </g>
    <g id="xtick_7">
     <g id="line2d_32">
      <g>
       <use style="fill:#262626;stroke:#262626;stroke-width:2.5;" x="902.397063" xlink:href="#m8d99f32657" y="483.89375"/>
      </g>
     </g>
     <g id="text_18">
      <!-- radius 2 -->
      <defs>
       <path d="M 50.34375 8.453125 
L 50.34375 0 
L 3.03125 0 
Q 2.9375 3.171875 4.046875 6.109375 
Q 5.859375 10.9375 9.828125 15.625 
Q 13.8125 20.3125 21.34375 26.46875 
Q 33.015625 36.03125 37.109375 41.625 
Q 41.21875 47.21875 41.21875 52.203125 
Q 41.21875 57.421875 37.46875 61 
Q 33.734375 64.59375 27.734375 64.59375 
Q 21.390625 64.59375 17.578125 60.78125 
Q 13.765625 56.984375 13.71875 50.25 
L 4.6875 51.171875 
Q 5.609375 61.28125 11.65625 66.578125 
Q 17.71875 71.875 27.9375 71.875 
Q 38.234375 71.875 44.234375 66.15625 
Q 50.25 60.453125 50.25 52 
Q 50.25 47.703125 48.484375 43.546875 
Q 46.734375 39.40625 42.65625 34.8125 
Q 38.578125 30.21875 29.109375 22.21875 
Q 21.1875 15.578125 18.9375 13.203125 
Q 16.703125 10.84375 15.234375 8.453125 
z
" id="ArialMT-50"/>
      </defs>
      <g style="fill:#262626;" transform="translate(859.353203 504.715656)scale(0.242 -0.242)">
       <use xlink:href="#ArialMT-114"/>
       <use x="33.300781" xlink:href="#ArialMT-97"/>
       <use x="88.916016" xlink:href="#ArialMT-100"/>
       <use x="144.53125" xlink:href="#ArialMT-105"/>
       <use x="166.748047" xlink:href="#ArialMT-117"/>
       <use x="222.363281" xlink:href="#ArialMT-115"/>
       <use x="272.363281" xlink:href="#ArialMT-32"/>
       <use x="300.146484" xlink:href="#ArialMT-50"/>
      </g>
     </g>
    </g>
    <g id="xtick_8">
     <g id="line2d_33">
      <g>
       <use style="fill:#262626;stroke:#262626;stroke-width:2.5;" x="1051.861348" xlink:href="#m8d99f32657" y="483.89375"/>
      </g>
     </g>
     <g id="text_19">
      <!-- radius 3 -->
      <g style="fill:#262626;" transform="translate(1008.817489 504.715656)scale(0.242 -0.242)">
       <use xlink:href="#ArialMT-114"/>
       <use x="33.300781" xlink:href="#ArialMT-97"/>
       <use x="88.916016" xlink:href="#ArialMT-100"/>
       <use x="144.53125" xlink:href="#ArialMT-105"/>
       <use x="166.748047" xlink:href="#ArialMT-117"/>
       <use x="222.363281" xlink:href="#ArialMT-115"/>
       <use x="272.363281" xlink:href="#ArialMT-32"/>
       <use x="300.146484" xlink:href="#ArialMT-51"/>
      </g>
     </g>
    </g>
   </g>
   <g id="matplotlib.axis_4">
    <g id="ytick_6">
     <g id="line2d_34">
      <g>
       <use style="fill:#262626;stroke:#262626;stroke-width:2.5;" x="673.147063" xlink:href="#m7626df3585" y="463.89375"/>
      </g>
     </g>
     <g id="text_20">
      <!-- 60 -->
      <defs>
       <path d="M 49.75 54.046875 
L 41.015625 53.375 
Q 39.84375 58.546875 37.703125 60.890625 
Q 34.125 64.65625 28.90625 64.65625 
Q 24.703125 64.65625 21.53125 62.3125 
Q 17.390625 59.28125 14.984375 53.46875 
Q 12.59375 47.65625 12.5 36.921875 
Q 15.671875 41.75 20.265625 44.09375 
Q 24.859375 46.4375 29.890625 46.4375 
Q 38.671875 46.4375 44.84375 39.96875 
Q 51.03125 33.5 51.03125 23.25 
Q 51.03125 16.5 48.125 10.71875 
Q 45.21875 4.9375 40.140625 1.859375 
Q 35.0625 -1.21875 28.609375 -1.21875 
Q 17.625 -1.21875 10.6875 6.859375 
Q 3.765625 14.9375 3.765625 33.5 
Q 3.765625 54.25 11.421875 63.671875 
Q 18.109375 71.875 29.4375 71.875 
Q 37.890625 71.875 43.28125 67.140625 
Q 48.6875 62.40625 49.75 54.046875 
z
M 13.875 23.1875 
Q 13.875 18.65625 15.796875 14.5 
Q 17.71875 10.359375 21.1875 8.171875 
Q 24.65625 6 28.46875 6 
Q 34.03125 6 38.03125 10.484375 
Q 42.046875 14.984375 42.046875 22.703125 
Q 42.046875 30.125 38.078125 34.390625 
Q 34.125 38.671875 28.125 38.671875 
Q 22.171875 38.671875 18.015625 34.390625 
Q 13.875 30.125 13.875 23.1875 
z
" id="ArialMT-54"/>
      </defs>
      <g style="fill:#262626;" transform="translate(642.732125 472.554703)scale(0.242 -0.242)">
       <use xlink:href="#ArialMT-54"/>
       <use x="55.615234" xlink:href="#ArialMT-48"/>
      </g>
     </g>
    </g>
    <g id="ytick_7">
     <g id="line2d_35">
      <g>
       <use style="fill:#262626;stroke:#262626;stroke-width:2.5;" x="673.147063" xlink:href="#m7626df3585" y="300.81375"/>
      </g>
     </g>
     <g id="text_21">
      <!-- 120 -->
      <g style="fill:#262626;" transform="translate(629.274656 309.474703)scale(0.242 -0.242)">
       <use xlink:href="#ArialMT-49"/>
       <use x="55.615234" xlink:href="#ArialMT-50"/>
       <use x="111.230469" xlink:href="#ArialMT-48"/>
      </g>
     </g>
    </g>
    <g id="ytick_8">
     <g id="line2d_36">
      <g>
       <use style="fill:#262626;stroke:#262626;stroke-width:2.5;" x="673.147063" xlink:href="#m7626df3585" y="137.73375"/>
      </g>
     </g>
     <g id="text_22">
      <!-- 180 -->
      <g style="fill:#262626;" transform="translate(629.274656 146.394703)scale(0.242 -0.242)">
       <use xlink:href="#ArialMT-49"/>
       <use x="55.615234" xlink:href="#ArialMT-56"/>
       <use x="111.230469" xlink:href="#ArialMT-48"/>
      </g>
     </g>
    </g>
    <g id="text_23">
     <!-- tuning curve width ($\circ$) -->
     <defs>
      <path d="M 21 0 
L 1.265625 51.859375 
L 10.546875 51.859375 
L 21.6875 20.796875 
Q 23.484375 15.765625 25 10.359375 
Q 26.171875 14.453125 28.265625 20.21875 
L 39.796875 51.859375 
L 48.828125 51.859375 
L 29.203125 0 
z
" id="ArialMT-118"/>
      <path d="M 16.15625 0 
L 0.296875 51.859375 
L 9.375 51.859375 
L 17.625 21.921875 
L 20.703125 10.796875 
Q 20.90625 11.625 23.390625 21.484375 
L 31.640625 51.859375 
L 40.671875 51.859375 
L 48.4375 21.78125 
L 51.03125 11.859375 
L 54 21.875 
L 62.890625 51.859375 
L 71.4375 51.859375 
L 55.21875 0 
L 46.09375 0 
L 37.84375 31.0625 
L 35.84375 39.890625 
L 25.34375 0 
z
" id="ArialMT-119"/>
      <path d="M 6.59375 0 
L 6.59375 71.578125 
L 15.375 71.578125 
L 15.375 45.90625 
Q 21.53125 53.03125 30.90625 53.03125 
Q 36.671875 53.03125 40.921875 50.75 
Q 45.171875 48.484375 47 44.484375 
Q 48.828125 40.484375 48.828125 32.859375 
L 48.828125 0 
L 40.046875 0 
L 40.046875 32.859375 
Q 40.046875 39.453125 37.1875 42.453125 
Q 34.328125 45.453125 29.109375 45.453125 
Q 25.203125 45.453125 21.75 43.421875 
Q 18.3125 41.40625 16.84375 37.9375 
Q 15.375 34.46875 15.375 28.375 
L 15.375 0 
z
" id="ArialMT-104"/>
     </defs>
     <g style="fill:#262626;" transform="translate(619.466656 427.92975)rotate(-90)scale(0.264 -0.264)">
      <use transform="translate(0 0.203125)" xlink:href="#ArialMT-116"/>
      <use transform="translate(27.783203 0.203125)" xlink:href="#ArialMT-117"/>
      <use transform="translate(83.398438 0.203125)" xlink:href="#ArialMT-110"/>
      <use transform="translate(139.013672 0.203125)" xlink:href="#ArialMT-105"/>
      <use transform="translate(161.230469 0.203125)" xlink:href="#ArialMT-110"/>
      <use transform="translate(216.845703 0.203125)" xlink:href="#ArialMT-103"/>
      <use transform="translate(272.460938 0.203125)" xlink:href="#ArialMT-32"/>
      <use transform="translate(300.244141 0.203125)" xlink:href="#ArialMT-99"/>
      <use transform="translate(350.244141 0.203125)" xlink:href="#ArialMT-117"/>
      <use transform="translate(405.859375 0.203125)" xlink:href="#ArialMT-114"/>
      <use transform="translate(439.160156 0.203125)" xlink:href="#ArialMT-118"/>
      <use transform="translate(489.160156 0.203125)" xlink:href="#ArialMT-101"/>
      <use transform="translate(544.775391 0.203125)" xlink:href="#ArialMT-32"/>
      <use transform="translate(572.558594 0.203125)" xlink:href="#ArialMT-119"/>
      <use transform="translate(644.775391 0.203125)" xlink:href="#ArialMT-105"/>
      <use transform="translate(666.992188 0.203125)" xlink:href="#ArialMT-100"/>
      <use transform="translate(722.607422 0.203125)" xlink:href="#ArialMT-116"/>
      <use transform="translate(750.390625 0.203125)" xlink:href="#ArialMT-104"/>
      <use transform="translate(806.005859 0.203125)" xlink:href="#ArialMT-32"/>
      <use transform="translate(833.789062 0.203125)" xlink:href="#ArialMT-40"/>
      <use transform="translate(867.089844 0.203125)" xlink:href="#DejaVuSans-8728"/>
      <use transform="translate(929.6875 0.203125)" xlink:href="#ArialMT-41"/>
     </g>
    </g>
   </g>
   <g id="PathCollection_3">
    <defs>
     <path d="M 0 3.5 
C 0.928211 3.5 1.81853 3.131218 2.474874 2.474874 
C 3.131218 1.81853 3.5 0.928211 3.5 0 
C 3.5 -0.928211 3.131218 -1.81853 2.474874 -2.474874 
C 1.81853 -3.131218 0.928211 -3.5 0 -3.5 
C -0.928211 -3.5 -1.81853 -3.131218 -2.474874 -2.474874 
C -3.131218 -1.81853 -3.5 -0.928211 -3.5 0 
C -3.5 0.928211 -3.131218 1.81853 -2.474874 2.474874 
C -1.81853 3.131218 -0.928211 3.5 0 3.5 
z
" id="C2_0_8d4913f9d2"/>
    </defs>
    <g clip-path="url(#pc8c4f0dc4c)">
     <use style="fill:#e0acc8;fill-opacity:0.4;" x="741.291855" xlink:href="#C2_0_8d4913f9d2" y="260.918915"/>
    </g>
    <g clip-path="url(#pc8c4f0dc4c)">
     <use style="fill:#e0acc8;fill-opacity:0.4;" x="745.771354" xlink:href="#C2_0_8d4913f9d2" y="412.649994"/>
    </g>
    <g clip-path="url(#pc8c4f0dc4c)">
     <use style="fill:#e0acc8;fill-opacity:0.4;" x="746.914793" xlink:href="#C2_0_8d4913f9d2" y="444.394198"/>
    </g>
    <g clip-path="url(#pc8c4f0dc4c)">
     <use style="fill:#e0acc8;fill-opacity:0.4;" x="754.274831" xlink:href="#C2_0_8d4913f9d2" y="409.388795"/>
    </g>
    <g clip-path="url(#pc8c4f0dc4c)">
     <use style="fill:#e0acc8;fill-opacity:0.4;" x="779.92007" xlink:href="#C2_0_8d4913f9d2" y="304.78758"/>
    </g>
    <g clip-path="url(#pc8c4f0dc4c)">
     <use style="fill:#e0acc8;fill-opacity:0.4;" x="714.421681" xlink:href="#C2_0_8d4913f9d2" y="342.761114"/>
    </g>
    <g clip-path="url(#pc8c4f0dc4c)">
     <use style="fill:#e0acc8;fill-opacity:0.4;" x="748.304403" xlink:href="#C2_0_8d4913f9d2" y="507.539235"/>
    </g>
    <g clip-path="url(#pc8c4f0dc4c)">
     <use style="fill:#e0acc8;fill-opacity:0.4;" x="786.160912" xlink:href="#C2_0_8d4913f9d2" y="334.893421"/>
    </g>
    <g clip-path="url(#pc8c4f0dc4c)">
     <use style="fill:#e0acc8;fill-opacity:0.4;" x="757.081209" xlink:href="#C2_0_8d4913f9d2" y="502.510331"/>
    </g>
    <g clip-path="url(#pc8c4f0dc4c)">
     <use style="fill:#e0acc8;fill-opacity:0.4;" x="751.341689" xlink:href="#C2_0_8d4913f9d2" y="626.97375"/>
    </g>
    <g clip-path="url(#pc8c4f0dc4c)">
     <use style="fill:#e0acc8;fill-opacity:0.4;" x="761.378343" xlink:href="#C2_0_8d4913f9d2" y="262.196167"/>
    </g>
    <g clip-path="url(#pc8c4f0dc4c)">
     <use style="fill:#e0acc8;fill-opacity:0.4;" x="749.771776" xlink:href="#C2_0_8d4913f9d2" y="382.579031"/>
    </g>
    <g clip-path="url(#pc8c4f0dc4c)">
     <use style="fill:#e0acc8;fill-opacity:0.4;" x="716.276955" xlink:href="#C2_0_8d4913f9d2" y="330.744949"/>
    </g>
    <g clip-path="url(#pc8c4f0dc4c)">
     <use style="fill:#e0acc8;fill-opacity:0.4;" x="767.949736" xlink:href="#C2_0_8d4913f9d2" y="303.396137"/>
    </g>
    <g clip-path="url(#pc8c4f0dc4c)">
     <use style="fill:#e0acc8;fill-opacity:0.4;" x="790.464293" xlink:href="#C2_0_8d4913f9d2" y="321.09626"/>
    </g>
    <g clip-path="url(#pc8c4f0dc4c)">
     <use style="fill:#e0acc8;fill-opacity:0.4;" x="792.228459" xlink:href="#C2_0_8d4913f9d2" y="332.347781"/>
    </g>
    <g clip-path="url(#pc8c4f0dc4c)">
     <use style="fill:#e0acc8;fill-opacity:0.4;" x="782.871081" xlink:href="#C2_0_8d4913f9d2" y="359.345177"/>
    </g>
    <g clip-path="url(#pc8c4f0dc4c)">
     <use style="fill:#e0acc8;fill-opacity:0.4;" x="782.298961" xlink:href="#C2_0_8d4913f9d2" y="319.918251"/>
    </g>
    <g clip-path="url(#pc8c4f0dc4c)">
     <use style="fill:#e0acc8;fill-opacity:0.4;" x="744.534378" xlink:href="#C2_0_8d4913f9d2" y="320.794406"/>
    </g>
    <g clip-path="url(#pc8c4f0dc4c)">
     <use style="fill:#e0acc8;fill-opacity:0.4;" x="750.66447" xlink:href="#C2_0_8d4913f9d2" y="426.597787"/>
    </g>
    <g clip-path="url(#pc8c4f0dc4c)">
     <use style="fill:#e0acc8;fill-opacity:0.4;" x="765.079749" xlink:href="#C2_0_8d4913f9d2" y="392.424457"/>
    </g>
    <g clip-path="url(#pc8c4f0dc4c)">
     <use style="fill:#e0acc8;fill-opacity:0.4;" x="743.828656" xlink:href="#C2_0_8d4913f9d2" y="477.250904"/>
    </g>
    <g clip-path="url(#pc8c4f0dc4c)">
     <use style="fill:#e0acc8;fill-opacity:0.4;" x="761.662391" xlink:href="#C2_0_8d4913f9d2" y="450.152313"/>
    </g>
    <g clip-path="url(#pc8c4f0dc4c)">
     <use style="fill:#e0acc8;fill-opacity:0.4;" x="731.10983" xlink:href="#C2_0_8d4913f9d2" y="263.776212"/>
    </g>
    <g clip-path="url(#pc8c4f0dc4c)">
     <use style="fill:#e0acc8;fill-opacity:0.4;" x="782.386644" xlink:href="#C2_0_8d4913f9d2" y="347.041362"/>
    </g>
    <g clip-path="url(#pc8c4f0dc4c)">
     <use style="fill:#e0acc8;fill-opacity:0.4;" x="748.520404" xlink:href="#C2_0_8d4913f9d2" y="365.579485"/>
    </g>
    <g clip-path="url(#pc8c4f0dc4c)">
     <use style="fill:#e0acc8;fill-opacity:0.4;" x="778.559948" xlink:href="#C2_0_8d4913f9d2" y="326.215226"/>
    </g>
    <g clip-path="url(#pc8c4f0dc4c)">
     <use style="fill:#e0acc8;fill-opacity:0.4;" x="766.187809" xlink:href="#C2_0_8d4913f9d2" y="302.938695"/>
    </g>
    <g clip-path="url(#pc8c4f0dc4c)">
     <use style="fill:#e0acc8;fill-opacity:0.4;" x="752.511025" xlink:href="#C2_0_8d4913f9d2" y="208.235375"/>
    </g>
    <g clip-path="url(#pc8c4f0dc4c)">
     <use style="fill:#e0acc8;fill-opacity:0.4;" x="769.8148" xlink:href="#C2_0_8d4913f9d2" y="272.378191"/>
    </g>
    <g clip-path="url(#pc8c4f0dc4c)">
     <use style="fill:#e0acc8;fill-opacity:0.4;" x="753.984879" xlink:href="#C2_0_8d4913f9d2" y="524.324523"/>
    </g>
    <g clip-path="url(#pc8c4f0dc4c)">
     <use style="fill:#e0acc8;fill-opacity:0.4;" x="749.736944" xlink:href="#C2_0_8d4913f9d2" y="303.511041"/>
    </g>
    <g clip-path="url(#pc8c4f0dc4c)">
     <use style="fill:#e0acc8;fill-opacity:0.4;" x="751.261397" xlink:href="#C2_0_8d4913f9d2" y="291.883687"/>
    </g>
    <g clip-path="url(#pc8c4f0dc4c)">
     <use style="fill:#e0acc8;fill-opacity:0.4;" x="760.353053" xlink:href="#C2_0_8d4913f9d2" y="506.832704"/>
    </g>
    <g clip-path="url(#pc8c4f0dc4c)">
     <use style="fill:#e0acc8;fill-opacity:0.4;" x="753.87838" xlink:href="#C2_0_8d4913f9d2" y="300.326722"/>
    </g>
    <g clip-path="url(#pc8c4f0dc4c)">
     <use style="fill:#e0acc8;fill-opacity:0.4;" x="744.390152" xlink:href="#C2_0_8d4913f9d2" y="273.172514"/>
    </g>
    <g clip-path="url(#pc8c4f0dc4c)">
     <use style="fill:#e0acc8;fill-opacity:0.4;" x="744.447242" xlink:href="#C2_0_8d4913f9d2" y="376.226802"/>
    </g>
    <g clip-path="url(#pc8c4f0dc4c)">
     <use style="fill:#e0acc8;fill-opacity:0.4;" x="786.964734" xlink:href="#C2_0_8d4913f9d2" y="330.398247"/>
    </g>
    <g clip-path="url(#pc8c4f0dc4c)">
     <use style="fill:#e0acc8;fill-opacity:0.4;" x="747.067332" xlink:href="#C2_0_8d4913f9d2" y="413.795678"/>
    </g>
    <g clip-path="url(#pc8c4f0dc4c)">
     <use style="fill:#e0acc8;fill-opacity:0.4;" x="785.254628" xlink:href="#C2_0_8d4913f9d2" y="336.149937"/>
    </g>
    <g clip-path="url(#pc8c4f0dc4c)">
     <use style="fill:#e0acc8;fill-opacity:0.4;" x="764.110639" xlink:href="#C2_0_8d4913f9d2" y="342.355919"/>
    </g>
    <g clip-path="url(#pc8c4f0dc4c)">
     <use style="fill:#e0acc8;fill-opacity:0.4;" x="764.695962" xlink:href="#C2_0_8d4913f9d2" y="221.407034"/>
    </g>
    <g clip-path="url(#pc8c4f0dc4c)">
     <use style="fill:#e0acc8;fill-opacity:0.4;" x="736.766535" xlink:href="#C2_0_8d4913f9d2" y="344.824576"/>
    </g>
    <g clip-path="url(#pc8c4f0dc4c)">
     <use style="fill:#e0acc8;fill-opacity:0.4;" x="761.496239" xlink:href="#C2_0_8d4913f9d2" y="215.109231"/>
    </g>
    <g clip-path="url(#pc8c4f0dc4c)">
     <use style="fill:#e0acc8;fill-opacity:0.4;" x="774.582263" xlink:href="#C2_0_8d4913f9d2" y="295.259079"/>
    </g>
    <g clip-path="url(#pc8c4f0dc4c)">
     <use style="fill:#e0acc8;fill-opacity:0.4;" x="760.020236" xlink:href="#C2_0_8d4913f9d2" y="289.325109"/>
    </g>
    <g clip-path="url(#pc8c4f0dc4c)">
     <use style="fill:#e0acc8;fill-opacity:0.4;" x="715.592253" xlink:href="#C2_0_8d4913f9d2" y="329.554275"/>
    </g>
    <g clip-path="url(#pc8c4f0dc4c)">
     <use style="fill:#e0acc8;fill-opacity:0.4;" x="729.395663" xlink:href="#C2_0_8d4913f9d2" y="309.85552"/>
    </g>
    <g clip-path="url(#pc8c4f0dc4c)">
     <use style="fill:#e0acc8;fill-opacity:0.4;" x="768.214531" xlink:href="#C2_0_8d4913f9d2" y="282.767441"/>
    </g>
    <g clip-path="url(#pc8c4f0dc4c)">
     <use style="fill:#e0acc8;fill-opacity:0.4;" x="756.275423" xlink:href="#C2_0_8d4913f9d2" y="207.397069"/>
    </g>
    <g clip-path="url(#pc8c4f0dc4c)">
     <use style="fill:#e0acc8;fill-opacity:0.4;" x="725.988409" xlink:href="#C2_0_8d4913f9d2" y="379.13103"/>
    </g>
    <g clip-path="url(#pc8c4f0dc4c)">
     <use style="fill:#e0acc8;fill-opacity:0.4;" x="773.893161" xlink:href="#C2_0_8d4913f9d2" y="271.130678"/>
    </g>
    <g clip-path="url(#pc8c4f0dc4c)">
     <use style="fill:#e0acc8;fill-opacity:0.4;" x="740.143141" xlink:href="#C2_0_8d4913f9d2" y="339.296704"/>
    </g>
   </g>
   <g id="PathCollection_4">
    <defs>
     <path d="M 0 3.5 
C 0.928211 3.5 1.81853 3.131218 2.474874 2.474874 
C 3.131218 1.81853 3.5 0.928211 3.5 0 
C 3.5 -0.928211 3.131218 -1.81853 2.474874 -2.474874 
C 1.81853 -3.131218 0.928211 -3.5 0 -3.5 
C -0.928211 -3.5 -1.81853 -3.131218 -2.474874 -2.474874 
C -3.131218 -1.81853 -3.5 -0.928211 -3.5 0 
C -3.5 0.928211 -3.131218 1.81853 -2.474874 2.474874 
C -1.81853 3.131218 -0.928211 3.5 0 3.5 
z
" id="C3_0_22fb8fc0bf"/>
    </defs>
    <g clip-path="url(#pc8c4f0dc4c)">
     <use style="fill:#e0acc8;fill-opacity:0.4;" x="910.123634" xlink:href="#C3_0_22fb8fc0bf" y="416.264046"/>
    </g>
    <g clip-path="url(#pc8c4f0dc4c)">
     <use style="fill:#e0acc8;fill-opacity:0.4;" x="886.569559" xlink:href="#C3_0_22fb8fc0bf" y="238.832427"/>
    </g>
    <g clip-path="url(#pc8c4f0dc4c)">
     <use style="fill:#e0acc8;fill-opacity:0.4;" x="866.735219" xlink:href="#C3_0_22fb8fc0bf" y="349.60186"/>
    </g>
    <g clip-path="url(#pc8c4f0dc4c)">
     <use style="fill:#e0acc8;fill-opacity:0.4;" x="912.409516" xlink:href="#C3_0_22fb8fc0bf" y="411.044734"/>
    </g>
    <g clip-path="url(#pc8c4f0dc4c)">
     <use style="fill:#e0acc8;fill-opacity:0.4;" x="864.489345" xlink:href="#C3_0_22fb8fc0bf" y="355.047047"/>
    </g>
    <g clip-path="url(#pc8c4f0dc4c)">
     <use style="fill:#e0acc8;fill-opacity:0.4;" x="892.265016" xlink:href="#C3_0_22fb8fc0bf" y="314.629303"/>
    </g>
    <g clip-path="url(#pc8c4f0dc4c)">
     <use style="fill:#e0acc8;fill-opacity:0.4;" x="928.566298" xlink:href="#C3_0_22fb8fc0bf" y="258.794924"/>
    </g>
    <g clip-path="url(#pc8c4f0dc4c)">
     <use style="fill:#e0acc8;fill-opacity:0.4;" x="902.643526" xlink:href="#C3_0_22fb8fc0bf" y="370.52984"/>
    </g>
    <g clip-path="url(#pc8c4f0dc4c)">
     <use style="fill:#e0acc8;fill-opacity:0.4;" x="937.728708" xlink:href="#C3_0_22fb8fc0bf" y="370.042466"/>
    </g>
    <g clip-path="url(#pc8c4f0dc4c)">
     <use style="fill:#e0acc8;fill-opacity:0.4;" x="908.465349" xlink:href="#C3_0_22fb8fc0bf" y="301.776574"/>
    </g>
    <g clip-path="url(#pc8c4f0dc4c)">
     <use style="fill:#e0acc8;fill-opacity:0.4;" x="913.817838" xlink:href="#C3_0_22fb8fc0bf" y="239.50378"/>
    </g>
    <g clip-path="url(#pc8c4f0dc4c)">
     <use style="fill:#e0acc8;fill-opacity:0.4;" x="921.607408" xlink:href="#C3_0_22fb8fc0bf" y="307.930968"/>
    </g>
    <g clip-path="url(#pc8c4f0dc4c)">
     <use style="fill:#e0acc8;fill-opacity:0.4;" x="933.839797" xlink:href="#C3_0_22fb8fc0bf" y="382.117965"/>
    </g>
    <g clip-path="url(#pc8c4f0dc4c)">
     <use style="fill:#e0acc8;fill-opacity:0.4;" x="870.160122" xlink:href="#C3_0_22fb8fc0bf" y="303.130571"/>
    </g>
    <g clip-path="url(#pc8c4f0dc4c)">
     <use style="fill:#e0acc8;fill-opacity:0.4;" x="902.7823" xlink:href="#C3_0_22fb8fc0bf" y="626.97375"/>
    </g>
    <g clip-path="url(#pc8c4f0dc4c)">
     <use style="fill:#e0acc8;fill-opacity:0.4;" x="902.452261" xlink:href="#C3_0_22fb8fc0bf" y="424.701797"/>
    </g>
    <g clip-path="url(#pc8c4f0dc4c)">
     <use style="fill:#e0acc8;fill-opacity:0.4;" x="927.732043" xlink:href="#C3_0_22fb8fc0bf" y="300.060676"/>
    </g>
    <g clip-path="url(#pc8c4f0dc4c)">
     <use style="fill:#e0acc8;fill-opacity:0.4;" x="877.632848" xlink:href="#C3_0_22fb8fc0bf" y="282.566002"/>
    </g>
    <g clip-path="url(#pc8c4f0dc4c)">
     <use style="fill:#e0acc8;fill-opacity:0.4;" x="894.468509" xlink:href="#C3_0_22fb8fc0bf" y="198.820336"/>
    </g>
    <g clip-path="url(#pc8c4f0dc4c)">
     <use style="fill:#e0acc8;fill-opacity:0.4;" x="928.570763" xlink:href="#C3_0_22fb8fc0bf" y="272.840999"/>
    </g>
    <g clip-path="url(#pc8c4f0dc4c)">
     <use style="fill:#e0acc8;fill-opacity:0.4;" x="911.945783" xlink:href="#C3_0_22fb8fc0bf" y="231.417315"/>
    </g>
    <g clip-path="url(#pc8c4f0dc4c)">
     <use style="fill:#e0acc8;fill-opacity:0.4;" x="924.619407" xlink:href="#C3_0_22fb8fc0bf" y="403.878595"/>
    </g>
    <g clip-path="url(#pc8c4f0dc4c)">
     <use style="fill:#e0acc8;fill-opacity:0.4;" x="914.769953" xlink:href="#C3_0_22fb8fc0bf" y="384.548738"/>
    </g>
    <g clip-path="url(#pc8c4f0dc4c)">
     <use style="fill:#e0acc8;fill-opacity:0.4;" x="926.535681" xlink:href="#C3_0_22fb8fc0bf" y="374.349984"/>
    </g>
    <g clip-path="url(#pc8c4f0dc4c)">
     <use style="fill:#e0acc8;fill-opacity:0.4;" x="895.575304" xlink:href="#C3_0_22fb8fc0bf" y="365.496401"/>
    </g>
    <g clip-path="url(#pc8c4f0dc4c)">
     <use style="fill:#e0acc8;fill-opacity:0.4;" x="884.572485" xlink:href="#C3_0_22fb8fc0bf" y="373.544589"/>
    </g>
    <g clip-path="url(#pc8c4f0dc4c)">
     <use style="fill:#e0acc8;fill-opacity:0.4;" x="934.977721" xlink:href="#C3_0_22fb8fc0bf" y="274.606949"/>
    </g>
    <g clip-path="url(#pc8c4f0dc4c)">
     <use style="fill:#e0acc8;fill-opacity:0.4;" x="894.70797" xlink:href="#C3_0_22fb8fc0bf" y="405.218523"/>
    </g>
    <g clip-path="url(#pc8c4f0dc4c)">
     <use style="fill:#e0acc8;fill-opacity:0.4;" x="903.32843" xlink:href="#C3_0_22fb8fc0bf" y="165.214272"/>
    </g>
    <g clip-path="url(#pc8c4f0dc4c)">
     <use style="fill:#e0acc8;fill-opacity:0.4;" x="881.532261" xlink:href="#C3_0_22fb8fc0bf" y="418.169706"/>
    </g>
    <g clip-path="url(#pc8c4f0dc4c)">
     <use style="fill:#e0acc8;fill-opacity:0.4;" x="887.78102" xlink:href="#C3_0_22fb8fc0bf" y="359.492945"/>
    </g>
    <g clip-path="url(#pc8c4f0dc4c)">
     <use style="fill:#e0acc8;fill-opacity:0.4;" x="864.177164" xlink:href="#C3_0_22fb8fc0bf" y="349.080738"/>
    </g>
    <g clip-path="url(#pc8c4f0dc4c)">
     <use style="fill:#e0acc8;fill-opacity:0.4;" x="886.163447" xlink:href="#C3_0_22fb8fc0bf" y="220.539189"/>
    </g>
    <g clip-path="url(#pc8c4f0dc4c)">
     <use style="fill:#e0acc8;fill-opacity:0.4;" x="904.751761" xlink:href="#C3_0_22fb8fc0bf" y="294.400907"/>
    </g>
    <g clip-path="url(#pc8c4f0dc4c)">
     <use style="fill:#e0acc8;fill-opacity:0.4;" x="899.318341" xlink:href="#C3_0_22fb8fc0bf" y="210.086935"/>
    </g>
    <g clip-path="url(#pc8c4f0dc4c)">
     <use style="fill:#e0acc8;fill-opacity:0.4;" x="882.739154" xlink:href="#C3_0_22fb8fc0bf" y="404.830191"/>
    </g>
    <g clip-path="url(#pc8c4f0dc4c)">
     <use style="fill:#e0acc8;fill-opacity:0.4;" x="918.883405" xlink:href="#C3_0_22fb8fc0bf" y="306.030358"/>
    </g>
    <g clip-path="url(#pc8c4f0dc4c)">
     <use style="fill:#e0acc8;fill-opacity:0.4;" x="913.152973" xlink:href="#C3_0_22fb8fc0bf" y="320.842621"/>
    </g>
    <g clip-path="url(#pc8c4f0dc4c)">
     <use style="fill:#e0acc8;fill-opacity:0.4;" x="902.144422" xlink:href="#C3_0_22fb8fc0bf" y="528.48744"/>
    </g>
    <g clip-path="url(#pc8c4f0dc4c)">
     <use style="fill:#e0acc8;fill-opacity:0.4;" x="935.801172" xlink:href="#C3_0_22fb8fc0bf" y="274.941168"/>
    </g>
    <g clip-path="url(#pc8c4f0dc4c)">
     <use style="fill:#e0acc8;fill-opacity:0.4;" x="869.483189" xlink:href="#C3_0_22fb8fc0bf" y="364.157057"/>
    </g>
    <g clip-path="url(#pc8c4f0dc4c)">
     <use style="fill:#e0acc8;fill-opacity:0.4;" x="899.737467" xlink:href="#C3_0_22fb8fc0bf" y="311.670142"/>
    </g>
    <g clip-path="url(#pc8c4f0dc4c)">
     <use style="fill:#e0acc8;fill-opacity:0.4;" x="872.370244" xlink:href="#C3_0_22fb8fc0bf" y="323.315836"/>
    </g>
    <g clip-path="url(#pc8c4f0dc4c)">
     <use style="fill:#e0acc8;fill-opacity:0.4;" x="882.201008" xlink:href="#C3_0_22fb8fc0bf" y="341.785572"/>
    </g>
    <g clip-path="url(#pc8c4f0dc4c)">
     <use style="fill:#e0acc8;fill-opacity:0.4;" x="888.160724" xlink:href="#C3_0_22fb8fc0bf" y="249.941369"/>
    </g>
    <g clip-path="url(#pc8c4f0dc4c)">
     <use style="fill:#e0acc8;fill-opacity:0.4;" x="879.947233" xlink:href="#C3_0_22fb8fc0bf" y="292.873773"/>
    </g>
    <g clip-path="url(#pc8c4f0dc4c)">
     <use style="fill:#e0acc8;fill-opacity:0.4;" x="900.004215" xlink:href="#C3_0_22fb8fc0bf" y="270.881216"/>
    </g>
    <g clip-path="url(#pc8c4f0dc4c)">
     <use style="fill:#e0acc8;fill-opacity:0.4;" x="928.971696" xlink:href="#C3_0_22fb8fc0bf" y="369.861462"/>
    </g>
    <g clip-path="url(#pc8c4f0dc4c)">
     <use style="fill:#e0acc8;fill-opacity:0.4;" x="905.307111" xlink:href="#C3_0_22fb8fc0bf" y="337.360857"/>
    </g>
    <g clip-path="url(#pc8c4f0dc4c)">
     <use style="fill:#e0acc8;fill-opacity:0.4;" x="875.914328" xlink:href="#C3_0_22fb8fc0bf" y="331.005445"/>
    </g>
    <g clip-path="url(#pc8c4f0dc4c)">
     <use style="fill:#e0acc8;fill-opacity:0.4;" x="887.34522" xlink:href="#C3_0_22fb8fc0bf" y="296.816244"/>
    </g>
    <g clip-path="url(#pc8c4f0dc4c)">
     <use style="fill:#e0acc8;fill-opacity:0.4;" x="900.092529" xlink:href="#C3_0_22fb8fc0bf" y="566.806698"/>
    </g>
    <g clip-path="url(#pc8c4f0dc4c)">
     <use style="fill:#e0acc8;fill-opacity:0.4;" x="918.612307" xlink:href="#C3_0_22fb8fc0bf" y="247.51523"/>
    </g>
    <g clip-path="url(#pc8c4f0dc4c)">
     <use style="fill:#e0acc8;fill-opacity:0.4;" x="916.946392" xlink:href="#C3_0_22fb8fc0bf" y="308.122743"/>
    </g>
    <g clip-path="url(#pc8c4f0dc4c)">
     <use style="fill:#e0acc8;fill-opacity:0.4;" x="896.747697" xlink:href="#C3_0_22fb8fc0bf" y="401.27684"/>
    </g>
    <g clip-path="url(#pc8c4f0dc4c)">
     <use style="fill:#e0acc8;fill-opacity:0.4;" x="902.048753" xlink:href="#C3_0_22fb8fc0bf" y="326.227891"/>
    </g>
    <g clip-path="url(#pc8c4f0dc4c)">
     <use style="fill:#e0acc8;fill-opacity:0.4;" x="897.642293" xlink:href="#C3_0_22fb8fc0bf" y="354.9847"/>
    </g>
   </g>
   <g id="PathCollection_5">
    <defs>
     <path d="M 0 3.5 
C 0.928211 3.5 1.81853 3.131218 2.474874 2.474874 
C 3.131218 1.81853 3.5 0.928211 3.5 0 
C 3.5 -0.928211 3.131218 -1.81853 2.474874 -2.474874 
C 1.81853 -3.131218 0.928211 -3.5 0 -3.5 
C -0.928211 -3.5 -1.81853 -3.131218 -2.474874 -2.474874 
C -3.131218 -1.81853 -3.5 -0.928211 -3.5 0 
C -3.5 0.928211 -3.131218 1.81853 -2.474874 2.474874 
C -1.81853 3.131218 -0.928211 3.5 0 3.5 
z
" id="C4_0_64714af8ff"/>
    </defs>
    <g clip-path="url(#pc8c4f0dc4c)">
     <use style="fill:#e0acc8;fill-opacity:0.4;" x="1058.635549" xlink:href="#C4_0_64714af8ff" y="250.082534"/>
    </g>
    <g clip-path="url(#pc8c4f0dc4c)">
     <use style="fill:#e0acc8;fill-opacity:0.4;" x="1040.863426" xlink:href="#C4_0_64714af8ff" y="233.188959"/>
    </g>
    <g clip-path="url(#pc8c4f0dc4c)">
     <use style="fill:#e0acc8;fill-opacity:0.4;" x="1033.180105" xlink:href="#C4_0_64714af8ff" y="349.690539"/>
    </g>
    <g clip-path="url(#pc8c4f0dc4c)">
     <use style="fill:#e0acc8;fill-opacity:0.4;" x="1041.245381" xlink:href="#C4_0_64714af8ff" y="273.420699"/>
    </g>
    <g clip-path="url(#pc8c4f0dc4c)">
     <use style="fill:#e0acc8;fill-opacity:0.4;" x="1068.730968" xlink:href="#C4_0_64714af8ff" y="358.826887"/>
    </g>
    <g clip-path="url(#pc8c4f0dc4c)">
     <use style="fill:#e0acc8;fill-opacity:0.4;" x="1058.447271" xlink:href="#C4_0_64714af8ff" y="378.569676"/>
    </g>
    <g clip-path="url(#pc8c4f0dc4c)">
     <use style="fill:#e0acc8;fill-opacity:0.4;" x="1051.483273" xlink:href="#C4_0_64714af8ff" y="160.888728"/>
    </g>
    <g clip-path="url(#pc8c4f0dc4c)">
     <use style="fill:#e0acc8;fill-opacity:0.4;" x="1078.67607" xlink:href="#C4_0_64714af8ff" y="290.627816"/>
    </g>
    <g clip-path="url(#pc8c4f0dc4c)">
     <use style="fill:#e0acc8;fill-opacity:0.4;" x="1050.505709" xlink:href="#C4_0_64714af8ff" y="281.939527"/>
    </g>
    <g clip-path="url(#pc8c4f0dc4c)">
     <use style="fill:#e0acc8;fill-opacity:0.4;" x="1063.475836" xlink:href="#C4_0_64714af8ff" y="230.083455"/>
    </g>
    <g clip-path="url(#pc8c4f0dc4c)">
     <use style="fill:#e0acc8;fill-opacity:0.4;" x="1034.058625" xlink:href="#C4_0_64714af8ff" y="328.254599"/>
    </g>
    <g clip-path="url(#pc8c4f0dc4c)">
     <use style="fill:#e0acc8;fill-opacity:0.4;" x="1085.02441" xlink:href="#C4_0_64714af8ff" y="310.73303"/>
    </g>
    <g clip-path="url(#pc8c4f0dc4c)">
     <use style="fill:#e0acc8;fill-opacity:0.4;" x="1068.471212" xlink:href="#C4_0_64714af8ff" y="376.277328"/>
    </g>
    <g clip-path="url(#pc8c4f0dc4c)">
     <use style="fill:#e0acc8;fill-opacity:0.4;" x="1061.516943" xlink:href="#C4_0_64714af8ff" y="383.074443"/>
    </g>
    <g clip-path="url(#pc8c4f0dc4c)">
     <use style="fill:#e0acc8;fill-opacity:0.4;" x="1061.474228" xlink:href="#C4_0_64714af8ff" y="258.734938"/>
    </g>
    <g clip-path="url(#pc8c4f0dc4c)">
     <use style="fill:#e0acc8;fill-opacity:0.4;" x="1059.397812" xlink:href="#C4_0_64714af8ff" y="345.312133"/>
    </g>
    <g clip-path="url(#pc8c4f0dc4c)">
     <use style="fill:#e0acc8;fill-opacity:0.4;" x="1060.447923" xlink:href="#C4_0_64714af8ff" y="289.782236"/>
    </g>
    <g clip-path="url(#pc8c4f0dc4c)">
     <use style="fill:#e0acc8;fill-opacity:0.4;" x="1044.661967" xlink:href="#C4_0_64714af8ff" y="351.128519"/>
    </g>
    <g clip-path="url(#pc8c4f0dc4c)">
     <use style="fill:#e0acc8;fill-opacity:0.4;" x="1053.942971" xlink:href="#C4_0_64714af8ff" y="182.983778"/>
    </g>
    <g clip-path="url(#pc8c4f0dc4c)">
     <use style="fill:#e0acc8;fill-opacity:0.4;" x="1044.424271" xlink:href="#C4_0_64714af8ff" y="322.251091"/>
    </g>
    <g clip-path="url(#pc8c4f0dc4c)">
     <use style="fill:#e0acc8;fill-opacity:0.4;" x="1047.413138" xlink:href="#C4_0_64714af8ff" y="143.900082"/>
    </g>
    <g clip-path="url(#pc8c4f0dc4c)">
     <use style="fill:#e0acc8;fill-opacity:0.4;" x="1036.642053" xlink:href="#C4_0_64714af8ff" y="385.507184"/>
    </g>
    <g clip-path="url(#pc8c4f0dc4c)">
     <use style="fill:#e0acc8;fill-opacity:0.4;" x="1048.53626" xlink:href="#C4_0_64714af8ff" y="420.403647"/>
    </g>
    <g clip-path="url(#pc8c4f0dc4c)">
     <use style="fill:#e0acc8;fill-opacity:0.4;" x="1059.298819" xlink:href="#C4_0_64714af8ff" y="394.522549"/>
    </g>
    <g clip-path="url(#pc8c4f0dc4c)">
     <use style="fill:#e0acc8;fill-opacity:0.4;" x="1057.761911" xlink:href="#C4_0_64714af8ff" y="428.023726"/>
    </g>
    <g clip-path="url(#pc8c4f0dc4c)">
     <use style="fill:#e0acc8;fill-opacity:0.4;" x="1050.626623" xlink:href="#C4_0_64714af8ff" y="498.962851"/>
    </g>
    <g clip-path="url(#pc8c4f0dc4c)">
     <use style="fill:#e0acc8;fill-opacity:0.4;" x="1078.108098" xlink:href="#C4_0_64714af8ff" y="318.599263"/>
    </g>
    <g clip-path="url(#pc8c4f0dc4c)">
     <use style="fill:#e0acc8;fill-opacity:0.4;" x="1068.190332" xlink:href="#C4_0_64714af8ff" y="312.218028"/>
    </g>
    <g clip-path="url(#pc8c4f0dc4c)">
     <use style="fill:#e0acc8;fill-opacity:0.4;" x="1022.126652" xlink:href="#C4_0_64714af8ff" y="328.1146"/>
    </g>
    <g clip-path="url(#pc8c4f0dc4c)">
     <use style="fill:#e0acc8;fill-opacity:0.4;" x="1042.965408" xlink:href="#C4_0_64714af8ff" y="309.81004"/>
    </g>
    <g clip-path="url(#pc8c4f0dc4c)">
     <use style="fill:#e0acc8;fill-opacity:0.4;" x="1033.821574" xlink:href="#C4_0_64714af8ff" y="324.060196"/>
    </g>
    <g clip-path="url(#pc8c4f0dc4c)">
     <use style="fill:#e0acc8;fill-opacity:0.4;" x="1043.747371" xlink:href="#C4_0_64714af8ff" y="291.76334"/>
    </g>
    <g clip-path="url(#pc8c4f0dc4c)">
     <use style="fill:#e0acc8;fill-opacity:0.4;" x="1027.621056" xlink:href="#C4_0_64714af8ff" y="318.305032"/>
    </g>
    <g clip-path="url(#pc8c4f0dc4c)">
     <use style="fill:#e0acc8;fill-opacity:0.4;" x="1054.600369" xlink:href="#C4_0_64714af8ff" y="321.293782"/>
    </g>
    <g clip-path="url(#pc8c4f0dc4c)">
     <use style="fill:#e0acc8;fill-opacity:0.4;" x="1030.210756" xlink:href="#C4_0_64714af8ff" y="291.558065"/>
    </g>
    <g clip-path="url(#pc8c4f0dc4c)">
     <use style="fill:#e0acc8;fill-opacity:0.4;" x="1066.770815" xlink:href="#C4_0_64714af8ff" y="371.707033"/>
    </g>
    <g clip-path="url(#pc8c4f0dc4c)">
     <use style="fill:#e0acc8;fill-opacity:0.4;" x="1046.651711" xlink:href="#C4_0_64714af8ff" y="175.83306"/>
    </g>
    <g clip-path="url(#pc8c4f0dc4c)">
     <use style="fill:#e0acc8;fill-opacity:0.4;" x="1046.695346" xlink:href="#C4_0_64714af8ff" y="295.299874"/>
    </g>
    <g clip-path="url(#pc8c4f0dc4c)">
     <use style="fill:#e0acc8;fill-opacity:0.4;" x="1042.835985" xlink:href="#C4_0_64714af8ff" y="194.187068"/>
    </g>
    <g clip-path="url(#pc8c4f0dc4c)">
     <use style="fill:#e0acc8;fill-opacity:0.4;" x="1082.29792" xlink:href="#C4_0_64714af8ff" y="311.626702"/>
    </g>
    <g clip-path="url(#pc8c4f0dc4c)">
     <use style="fill:#e0acc8;fill-opacity:0.4;" x="1045.232179" xlink:href="#C4_0_64714af8ff" y="209.288085"/>
    </g>
    <g clip-path="url(#pc8c4f0dc4c)">
     <use style="fill:#e0acc8;fill-opacity:0.4;" x="1020.246304" xlink:href="#C4_0_64714af8ff" y="308.503174"/>
    </g>
    <g clip-path="url(#pc8c4f0dc4c)">
     <use style="fill:#e0acc8;fill-opacity:0.4;" x="1054.490097" xlink:href="#C4_0_64714af8ff" y="237.408731"/>
    </g>
   </g>
   <g id="LineCollection_1">
    <path clip-path="url(#pc8c4f0dc4c)" d="M 752.932777 370.80835 
L 752.932777 323.6514 
" style="fill:none;stroke:#e9a3c9;stroke-width:5;"/>
    <path clip-path="url(#pc8c4f0dc4c)" d="M 902.397063 358.615608 
L 902.397063 316.098933 
" style="fill:none;stroke:#e9a3c9;stroke-width:5;"/>
    <path clip-path="url(#pc8c4f0dc4c)" d="M 1051.861348 328.02176 
L 1051.861348 283.085975 
" style="fill:none;stroke:#e9a3c9;stroke-width:5;"/>
   </g>
   <g id="line2d_37">
    <path clip-path="url(#pc8c4f0dc4c)" d="M 752.932777 347.091717 
L 902.397063 334.824398 
L 1051.861348 305.738303 
" style="fill:none;stroke:#e9a3c9;stroke-linecap:round;stroke-width:3;"/>
    <defs>
     <path d="M 0 7.5 
C 1.989023 7.5 3.896849 6.709753 5.303301 5.303301 
C 6.709753 3.896849 7.5 1.989023 7.5 0 
C 7.5 -1.989023 6.709753 -3.896849 5.303301 -5.303301 
C 3.896849 -6.709753 1.989023 -7.5 0 -7.5 
C -1.989023 -7.5 -3.896849 -6.709753 -5.303301 -5.303301 
C -6.709753 -3.896849 -7.5 -1.989023 -7.5 0 
C -7.5 1.989023 -6.709753 3.896849 -5.303301 5.303301 
C -3.896849 6.709753 -1.989023 7.5 0 7.5 
z
" id="m1cb9c56c99" style="stroke:#e9a3c9;"/>
    </defs>
    <g clip-path="url(#pc8c4f0dc4c)">
     <use style="fill:#e9a3c9;stroke:#e9a3c9;" x="752.932777" xlink:href="#m1cb9c56c99" y="347.091717"/>
     <use style="fill:#e9a3c9;stroke:#e9a3c9;" x="902.397063" xlink:href="#m1cb9c56c99" y="334.824398"/>
     <use style="fill:#e9a3c9;stroke:#e9a3c9;" x="1051.861348" xlink:href="#m1cb9c56c99" y="305.738303"/>
    </g>
   </g>
   <g id="line2d_38">
    <path clip-path="url(#pc8c4f0dc4c)" d="M 752.932777 347.091717 
L 902.397063 334.824398 
L 1051.861348 305.738303 
" style="fill:none;stroke:#e9a3c9;stroke-linecap:round;stroke-width:5;"/>
   </g>
   <g id="patch_6">
    <path d="M 673.147063 463.89375 
L 673.147063 137.73375 
" style="fill:none;stroke:#262626;stroke-linecap:square;stroke-linejoin:miter;stroke-width:2.5;"/>
   </g>
   <g id="patch_7">
    <path d="M 713.275848 483.89375 
L 1086.922893 483.89375 
" style="fill:none;stroke:#262626;stroke-linecap:square;stroke-linejoin:miter;stroke-width:2.5;"/>
   </g>
   <g id="legend_2"/>
  </g>
  <g id="text_24">
   <!-- Figure 5: electrophysiology  -->
   <defs>
    <path d="M 7.375 0 
L 7.375 71.578125 
L 56.453125 71.578125 
L 56.453125 59.46875 
L 21.828125 59.46875 
L 21.828125 42.53125 
L 51.703125 42.53125 
L 51.703125 30.421875 
L 21.828125 30.421875 
L 21.828125 0 
z
" id="Arial-BoldMT-70"/>
    <path d="M 7.171875 58.890625 
L 7.171875 71.578125 
L 20.90625 71.578125 
L 20.90625 58.890625 
z
M 7.171875 0 
L 7.171875 51.859375 
L 20.90625 51.859375 
L 20.90625 0 
z
" id="Arial-BoldMT-105"/>
    <path d="M 5.90625 -3.421875 
L 21.578125 -5.328125 
Q 21.96875 -8.0625 23.390625 -9.078125 
Q 25.34375 -10.546875 29.546875 -10.546875 
Q 34.90625 -10.546875 37.59375 -8.9375 
Q 39.40625 -7.859375 40.328125 -5.46875 
Q 40.96875 -3.765625 40.96875 0.828125 
L 40.96875 8.40625 
Q 34.8125 0 25.4375 0 
Q 14.984375 0 8.890625 8.84375 
Q 4.109375 15.828125 4.109375 26.21875 
Q 4.109375 39.265625 10.375 46.140625 
Q 16.65625 53.03125 25.984375 53.03125 
Q 35.59375 53.03125 41.84375 44.578125 
L 41.84375 51.859375 
L 54.6875 51.859375 
L 54.6875 5.328125 
Q 54.6875 -3.859375 53.171875 -8.390625 
Q 51.65625 -12.9375 48.921875 -15.515625 
Q 46.1875 -18.109375 41.625 -19.578125 
Q 37.0625 -21.046875 30.078125 -21.046875 
Q 16.890625 -21.046875 11.375 -16.53125 
Q 5.859375 -12.015625 5.859375 -5.078125 
Q 5.859375 -4.390625 5.90625 -3.421875 
z
M 18.171875 27 
Q 18.171875 18.75 21.359375 14.90625 
Q 24.5625 11.078125 29.25 11.078125 
Q 34.28125 11.078125 37.75 15.015625 
Q 41.21875 18.953125 41.21875 26.65625 
Q 41.21875 34.71875 37.890625 38.625 
Q 34.578125 42.53125 29.5 42.53125 
Q 24.5625 42.53125 21.359375 38.6875 
Q 18.171875 34.859375 18.171875 27 
z
" id="Arial-BoldMT-103"/>
    <path d="M 41.3125 0 
L 41.3125 7.765625 
Q 38.484375 3.609375 33.859375 1.21875 
Q 29.25 -1.171875 24.125 -1.171875 
Q 18.890625 -1.171875 14.734375 1.125 
Q 10.59375 3.421875 8.734375 7.5625 
Q 6.890625 11.71875 6.890625 19.046875 
L 6.890625 51.859375 
L 20.609375 51.859375 
L 20.609375 28.03125 
Q 20.609375 17.09375 21.359375 14.625 
Q 22.125 12.15625 24.125 10.71875 
Q 26.125 9.28125 29.203125 9.28125 
Q 32.71875 9.28125 35.5 11.203125 
Q 38.28125 13.140625 39.296875 15.984375 
Q 40.328125 18.84375 40.328125 29.984375 
L 40.328125 51.859375 
L 54.046875 51.859375 
L 54.046875 0 
z
" id="Arial-BoldMT-117"/>
    <path d="M 20.3125 0 
L 6.59375 0 
L 6.59375 51.859375 
L 19.34375 51.859375 
L 19.34375 44.484375 
Q 22.609375 49.703125 25.21875 51.359375 
Q 27.828125 53.03125 31.15625 53.03125 
Q 35.84375 53.03125 40.1875 50.4375 
L 35.9375 38.484375 
Q 32.46875 40.71875 29.5 40.71875 
Q 26.609375 40.71875 24.609375 39.125 
Q 22.609375 37.546875 21.453125 33.390625 
Q 20.3125 29.25 20.3125 16.015625 
z
" id="Arial-BoldMT-114"/>
    <path d="M 37.203125 16.5 
L 50.875 14.203125 
Q 48.25 6.6875 42.546875 2.75 
Q 36.859375 -1.171875 28.328125 -1.171875 
Q 14.796875 -1.171875 8.296875 7.671875 
Q 3.171875 14.75 3.171875 25.53125 
Q 3.171875 38.421875 9.90625 45.71875 
Q 16.65625 53.03125 26.953125 53.03125 
Q 38.53125 53.03125 45.21875 45.390625 
Q 51.90625 37.75 51.609375 21.96875 
L 17.234375 21.96875 
Q 17.390625 15.875 20.5625 12.46875 
Q 23.734375 9.078125 28.46875 9.078125 
Q 31.6875 9.078125 33.875 10.828125 
Q 36.078125 12.59375 37.203125 16.5 
z
M 37.984375 30.375 
Q 37.84375 36.328125 34.90625 39.421875 
Q 31.984375 42.53125 27.78125 42.53125 
Q 23.296875 42.53125 20.359375 39.265625 
Q 17.4375 35.984375 17.484375 30.375 
z
" id="Arial-BoldMT-101"/>
    <path id="Arial-BoldMT-32"/>
    <path d="M 4.4375 18.40625 
L 18.109375 19.828125 
Q 18.703125 15.1875 21.578125 12.46875 
Q 24.46875 9.765625 28.21875 9.765625 
Q 32.515625 9.765625 35.5 13.25 
Q 38.484375 16.75 38.484375 23.78125 
Q 38.484375 30.375 35.515625 33.671875 
Q 32.5625 36.96875 27.828125 36.96875 
Q 21.921875 36.96875 17.234375 31.734375 
L 6.109375 33.34375 
L 13.140625 70.609375 
L 49.421875 70.609375 
L 49.421875 57.765625 
L 23.53125 57.765625 
L 21.390625 45.609375 
Q 25.984375 47.90625 30.765625 47.90625 
Q 39.890625 47.90625 46.234375 41.265625 
Q 52.59375 34.625 52.59375 24.03125 
Q 52.59375 15.1875 47.46875 8.25 
Q 40.484375 -1.21875 28.078125 -1.21875 
Q 18.171875 -1.21875 11.921875 4.09375 
Q 5.671875 9.421875 4.4375 18.40625 
z
" id="Arial-BoldMT-53"/>
    <path d="M 9.8125 38.140625 
L 9.8125 51.859375 
L 23.53125 51.859375 
L 23.53125 38.140625 
z
M 9.8125 0 
L 9.8125 13.71875 
L 23.53125 13.71875 
L 23.53125 0 
z
" id="Arial-BoldMT-58"/>
    <path d="M 7.171875 0 
L 7.171875 71.578125 
L 20.90625 71.578125 
L 20.90625 0 
z
" id="Arial-BoldMT-108"/>
    <path d="M 52.390625 36.53125 
L 38.875 34.078125 
Q 38.1875 38.140625 35.765625 40.1875 
Q 33.34375 42.234375 29.5 42.234375 
Q 24.359375 42.234375 21.3125 38.6875 
Q 18.265625 35.15625 18.265625 26.859375 
Q 18.265625 17.625 21.359375 13.8125 
Q 24.46875 10.015625 29.6875 10.015625 
Q 33.59375 10.015625 36.078125 12.234375 
Q 38.578125 14.453125 39.59375 19.875 
L 53.078125 17.578125 
Q 50.984375 8.296875 45.015625 3.5625 
Q 39.0625 -1.171875 29.046875 -1.171875 
Q 17.671875 -1.171875 10.90625 6 
Q 4.15625 13.1875 4.15625 25.875 
Q 4.15625 38.71875 10.9375 45.875 
Q 17.71875 53.03125 29.296875 53.03125 
Q 38.765625 53.03125 44.359375 48.953125 
Q 49.953125 44.875 52.390625 36.53125 
z
" id="Arial-BoldMT-99"/>
    <path d="M 30.953125 51.859375 
L 30.953125 40.921875 
L 21.578125 40.921875 
L 21.578125 20.015625 
Q 21.578125 13.671875 21.84375 12.625 
Q 22.125 11.578125 23.078125 10.890625 
Q 24.03125 10.203125 25.390625 10.203125 
Q 27.296875 10.203125 30.90625 11.53125 
L 32.078125 0.875 
Q 27.296875 -1.171875 21.234375 -1.171875 
Q 17.53125 -1.171875 14.546875 0.0625 
Q 11.578125 1.3125 10.1875 3.296875 
Q 8.796875 5.28125 8.25 8.640625 
Q 7.8125 11.03125 7.8125 18.3125 
L 7.8125 40.921875 
L 1.515625 40.921875 
L 1.515625 51.859375 
L 7.8125 51.859375 
L 7.8125 62.15625 
L 21.578125 70.171875 
L 21.578125 51.859375 
z
" id="Arial-BoldMT-116"/>
    <path d="M 4 26.65625 
Q 4 33.5 7.375 39.890625 
Q 10.75 46.296875 16.921875 49.65625 
Q 23.09375 53.03125 30.71875 53.03125 
Q 42.484375 53.03125 50 45.390625 
Q 57.515625 37.75 57.515625 26.078125 
Q 57.515625 14.3125 49.921875 6.5625 
Q 42.328125 -1.171875 30.8125 -1.171875 
Q 23.6875 -1.171875 17.21875 2.046875 
Q 10.75 5.28125 7.375 11.5 
Q 4 17.71875 4 26.65625 
z
M 18.0625 25.921875 
Q 18.0625 18.21875 21.71875 14.109375 
Q 25.390625 10.015625 30.765625 10.015625 
Q 36.140625 10.015625 39.765625 14.109375 
Q 43.40625 18.21875 43.40625 26.03125 
Q 43.40625 33.640625 39.765625 37.734375 
Q 36.140625 41.84375 30.765625 41.84375 
Q 25.390625 41.84375 21.71875 37.734375 
Q 18.0625 33.640625 18.0625 25.921875 
z
" id="Arial-BoldMT-111"/>
    <path d="M 6.78125 51.859375 
L 19.578125 51.859375 
L 19.578125 44.234375 
Q 22.078125 48.140625 26.3125 50.578125 
Q 30.5625 53.03125 35.75 53.03125 
Q 44.78125 53.03125 51.078125 45.953125 
Q 57.375 38.875 57.375 26.21875 
Q 57.375 13.234375 51.015625 6.03125 
Q 44.671875 -1.171875 35.640625 -1.171875 
Q 31.34375 -1.171875 27.84375 0.53125 
Q 24.359375 2.25 20.515625 6.390625 
L 20.515625 -19.734375 
L 6.78125 -19.734375 
z
M 20.359375 26.8125 
Q 20.359375 18.0625 23.828125 13.890625 
Q 27.296875 9.71875 32.28125 9.71875 
Q 37.0625 9.71875 40.234375 13.546875 
Q 43.40625 17.390625 43.40625 26.125 
Q 43.40625 34.28125 40.125 38.234375 
Q 36.859375 42.1875 32.03125 42.1875 
Q 27 42.1875 23.671875 38.296875 
Q 20.359375 34.421875 20.359375 26.8125 
z
" id="Arial-BoldMT-112"/>
    <path d="M 20.84375 71.578125 
L 20.84375 45.265625 
Q 27.484375 53.03125 36.71875 53.03125 
Q 41.453125 53.03125 45.265625 51.265625 
Q 49.078125 49.515625 51 46.78125 
Q 52.9375 44.046875 53.640625 40.71875 
Q 54.34375 37.40625 54.34375 30.421875 
L 54.34375 0 
L 40.625 0 
L 40.625 27.390625 
Q 40.625 35.546875 39.84375 37.734375 
Q 39.0625 39.9375 37.078125 41.234375 
Q 35.109375 42.53125 32.125 42.53125 
Q 28.71875 42.53125 26.03125 40.859375 
Q 23.34375 39.203125 22.09375 35.859375 
Q 20.84375 32.515625 20.84375 25.984375 
L 20.84375 0 
L 7.125 0 
L 7.125 71.578125 
z
" id="Arial-BoldMT-104"/>
    <path d="M 0.6875 51.859375 
L 15.28125 51.859375 
L 27.6875 15.046875 
L 39.796875 51.859375 
L 54 51.859375 
L 35.6875 1.953125 
L 32.421875 -7.078125 
Q 30.609375 -11.625 28.96875 -14.015625 
Q 27.34375 -16.40625 25.21875 -17.890625 
Q 23.09375 -19.390625 19.984375 -20.21875 
Q 16.890625 -21.046875 12.984375 -21.046875 
Q 9.03125 -21.046875 5.21875 -20.21875 
L 4 -9.46875 
Q 7.234375 -10.109375 9.8125 -10.109375 
Q 14.59375 -10.109375 16.890625 -7.296875 
Q 19.1875 -4.5 20.40625 -0.140625 
z
" id="Arial-BoldMT-121"/>
    <path d="M 2.34375 14.796875 
L 16.109375 16.890625 
Q 17 12.890625 19.671875 10.8125 
Q 22.359375 8.734375 27.203125 8.734375 
Q 32.515625 8.734375 35.203125 10.6875 
Q 37.015625 12.0625 37.015625 14.359375 
Q 37.015625 15.921875 36.03125 16.9375 
Q 35.015625 17.921875 31.453125 18.75 
Q 14.84375 22.40625 10.40625 25.4375 
Q 4.25 29.640625 4.25 37.109375 
Q 4.25 43.84375 9.5625 48.4375 
Q 14.890625 53.03125 26.078125 53.03125 
Q 36.71875 53.03125 41.890625 49.5625 
Q 47.078125 46.09375 49.03125 39.3125 
L 36.078125 36.921875 
Q 35.25 39.9375 32.921875 41.546875 
Q 30.609375 43.171875 26.3125 43.171875 
Q 20.90625 43.171875 18.5625 41.65625 
Q 17 40.578125 17 38.875 
Q 17 37.40625 18.359375 36.375 
Q 20.21875 35.015625 31.171875 32.515625 
Q 42.140625 30.03125 46.484375 26.421875 
Q 50.78125 22.75 50.78125 16.21875 
Q 50.78125 9.078125 44.828125 3.953125 
Q 38.875 -1.171875 27.203125 -1.171875 
Q 16.609375 -1.171875 10.421875 3.125 
Q 4.25 7.421875 2.34375 14.796875 
z
" id="Arial-BoldMT-115"/>
   </defs>
   <g style="fill:#262626;" transform="translate(10.047063 28.673437)scale(0.3 -0.3)">
    <use xlink:href="#Arial-BoldMT-70"/>
    <use x="61.083984" xlink:href="#Arial-BoldMT-105"/>
    <use x="88.867188" xlink:href="#Arial-BoldMT-103"/>
    <use x="149.951172" xlink:href="#Arial-BoldMT-117"/>
    <use x="211.035156" xlink:href="#Arial-BoldMT-114"/>
    <use x="249.951172" xlink:href="#Arial-BoldMT-101"/>
    <use x="305.566406" xlink:href="#Arial-BoldMT-32"/>
    <use x="333.349609" xlink:href="#Arial-BoldMT-53"/>
    <use x="388.964844" xlink:href="#Arial-BoldMT-58"/>
    <use x="422.265625" xlink:href="#Arial-BoldMT-32"/>
    <use x="450.048828" xlink:href="#Arial-BoldMT-101"/>
    <use x="505.664062" xlink:href="#Arial-BoldMT-108"/>
    <use x="533.447266" xlink:href="#Arial-BoldMT-101"/>
    <use x="589.0625" xlink:href="#Arial-BoldMT-99"/>
    <use x="644.677734" xlink:href="#Arial-BoldMT-116"/>
    <use x="677.978516" xlink:href="#Arial-BoldMT-114"/>
    <use x="716.894531" xlink:href="#Arial-BoldMT-111"/>
    <use x="777.978516" xlink:href="#Arial-BoldMT-112"/>
    <use x="839.0625" xlink:href="#Arial-BoldMT-104"/>
    <use x="900.146484" xlink:href="#Arial-BoldMT-121"/>
    <use x="955.761719" xlink:href="#Arial-BoldMT-115"/>
    <use x="1011.376953" xlink:href="#Arial-BoldMT-105"/>
    <use x="1039.160156" xlink:href="#Arial-BoldMT-111"/>
    <use x="1100.244141" xlink:href="#Arial-BoldMT-108"/>
    <use x="1128.027344" xlink:href="#Arial-BoldMT-111"/>
    <use x="1189.111328" xlink:href="#Arial-BoldMT-103"/>
    <use x="1250.195312" xlink:href="#Arial-BoldMT-121"/>
    <use x="1305.810547" xlink:href="#Arial-BoldMT-32"/>
   </g>
  </g>
  <g id="text_25">
   <!-- A -->
   <defs>
    <path d="M 71.828125 0 
L 56.109375 0 
L 49.859375 16.265625 
L 21.234375 16.265625 
L 15.328125 0 
L 0 0 
L 27.875 71.578125 
L 43.171875 71.578125 
z
M 45.21875 28.328125 
L 35.359375 54.890625 
L 25.6875 28.328125 
z
" id="Arial-BoldMT-65"/>
   </defs>
   <g style="fill:#262626;" transform="translate(61.887063 93.670312)scale(0.3 -0.3)">
    <use xlink:href="#Arial-BoldMT-65"/>
   </g>
  </g>
  <g id="text_26">
   <!-- B -->
   <defs>
    <path d="M 7.328125 71.578125 
L 35.9375 71.578125 
Q 44.4375 71.578125 48.609375 70.875 
Q 52.78125 70.171875 56.078125 67.921875 
Q 59.375 65.671875 61.5625 61.9375 
Q 63.765625 58.203125 63.765625 53.5625 
Q 63.765625 48.53125 61.046875 44.328125 
Q 58.34375 40.140625 53.71875 38.03125 
Q 60.25 36.140625 63.765625 31.546875 
Q 67.28125 26.953125 67.28125 20.75 
Q 67.28125 15.875 65.015625 11.25 
Q 62.75 6.640625 58.8125 3.875 
Q 54.890625 1.125 49.125 0.484375 
Q 45.515625 0.09375 31.6875 0 
L 7.328125 0 
z
M 21.78125 59.671875 
L 21.78125 43.109375 
L 31.25 43.109375 
Q 39.703125 43.109375 41.75 43.359375 
Q 45.453125 43.796875 47.578125 45.921875 
Q 49.703125 48.046875 49.703125 51.515625 
Q 49.703125 54.828125 47.875 56.90625 
Q 46.046875 58.984375 42.4375 59.421875 
Q 40.28125 59.671875 30.078125 59.671875 
z
M 21.78125 31.203125 
L 21.78125 12.0625 
L 35.15625 12.0625 
Q 42.96875 12.0625 45.0625 12.5 
Q 48.296875 13.09375 50.3125 15.359375 
Q 52.34375 17.625 52.34375 21.4375 
Q 52.34375 24.65625 50.78125 26.90625 
Q 49.21875 29.15625 46.265625 30.171875 
Q 43.3125 31.203125 33.453125 31.203125 
z
" id="Arial-BoldMT-66"/>
   </defs>
   <g style="fill:#262626;" transform="translate(658.047063 93.670312)scale(0.3 -0.3)">
    <use xlink:href="#Arial-BoldMT-66"/>
   </g>
  </g>
 </g>
 <defs>
  <clipPath id="p86a1ca0134">
   <rect height="326.16" width="418.5" x="107.247063" y="137.73375"/>
  </clipPath>
  <clipPath id="pc8c4f0dc4c">
   <rect height="326.16" width="418.5" x="693.147063" y="137.73375"/>
  </clipPath>
 </defs>
</svg>
