<?xml version="1.0" encoding="utf-8" standalone="no"?>
<!DOCTYPE svg PUBLIC "-//W3C//DTD SVG 1.1//EN"
  "http://www.w3.org/Graphics/SVG/1.1/DTD/svg11.dtd">
<!-- Created with matplotlib (https://matplotlib.org/) -->
<svg height="420.308281pt" version="1.1" viewBox="0 0 1073.46275 420.308281" width="1073.46275pt" xmlns="http://www.w3.org/2000/svg" xmlns:xlink="http://www.w3.org/1999/xlink">
 <defs>
  <style type="text/css">
*{stroke-linecap:butt;stroke-linejoin:round;}
  </style>
 </defs>
 <g id="figure_1">
  <g id="patch_1">
   <path d="M 0 420.308281 
L 1073.46275 420.308281 
L 1073.46275 0 
L 0 0 
z
" style="fill:none;"/>
  </g>
  <g id="axes_1">
   <g id="patch_2">
    <path d="M 73.11275 358.396625 
L 552.28775 358.396625 
L 552.28775 32.096625 
L 73.11275 32.096625 
z
" style="fill:#ffffff;"/>
   </g>
   <g id="matplotlib.axis_1">
    <g id="xtick_1">
     <g id="line2d_1">
      <defs>
       <path d="M 0 0 
L 0 -12 
" id="mf917b74d37" style="stroke:#262626;stroke-width:2.5;"/>
      </defs>
      <g>
       <use style="fill:#262626;stroke:#262626;stroke-width:2.5;" x="179.596083" xlink:href="#mf917b74d37" y="358.396625"/>
      </g>
     </g>
     <g id="text_1">
      <!-- −10 -->
      <defs>
       <path d="M 52.828125 31.203125 
L 5.5625 31.203125 
L 5.5625 39.40625 
L 52.828125 39.40625 
z
" id="ArialMT-8722"/>
       <path d="M 37.25 0 
L 28.46875 0 
L 28.46875 56 
Q 25.296875 52.984375 20.140625 49.953125 
Q 14.984375 46.921875 10.890625 45.40625 
L 10.890625 53.90625 
Q 18.265625 57.375 23.78125 62.296875 
Q 29.296875 67.234375 31.59375 71.875 
L 37.25 71.875 
z
" id="ArialMT-49"/>
       <path d="M 4.15625 35.296875 
Q 4.15625 48 6.765625 55.734375 
Q 9.375 63.484375 14.515625 67.671875 
Q 19.671875 71.875 27.484375 71.875 
Q 33.25 71.875 37.59375 69.546875 
Q 41.9375 67.234375 44.765625 62.859375 
Q 47.609375 58.5 49.21875 52.21875 
Q 50.828125 45.953125 50.828125 35.296875 
Q 50.828125 22.703125 48.234375 14.96875 
Q 45.65625 7.234375 40.5 3 
Q 35.359375 -1.21875 27.484375 -1.21875 
Q 17.140625 -1.21875 11.234375 6.203125 
Q 4.15625 15.140625 4.15625 35.296875 
z
M 13.1875 35.296875 
Q 13.1875 17.671875 17.3125 11.828125 
Q 21.4375 6 27.484375 6 
Q 33.546875 6 37.671875 11.859375 
Q 41.796875 17.71875 41.796875 35.296875 
Q 41.796875 52.984375 37.671875 58.78125 
Q 33.546875 64.59375 27.390625 64.59375 
Q 21.34375 64.59375 17.71875 59.46875 
Q 13.1875 52.9375 13.1875 35.296875 
z
" id="ArialMT-48"/>
      </defs>
      <g style="fill:#262626;" transform="translate(159.071458 379.218531)scale(0.242 -0.242)">
       <use xlink:href="#ArialMT-8722"/>
       <use x="58.398438" xlink:href="#ArialMT-49"/>
       <use x="114.013672" xlink:href="#ArialMT-48"/>
      </g>
     </g>
    </g>
    <g id="xtick_2">
     <g id="line2d_2">
      <g>
       <use style="fill:#262626;stroke:#262626;stroke-width:2.5;" x="312.70025" xlink:href="#mf917b74d37" y="358.396625"/>
      </g>
     </g>
     <g id="text_2">
      <!-- 0 -->
      <g style="fill:#262626;" transform="translate(305.971516 379.218531)scale(0.242 -0.242)">
       <use xlink:href="#ArialMT-48"/>
      </g>
     </g>
    </g>
    <g id="xtick_3">
     <g id="line2d_3">
      <g>
       <use style="fill:#262626;stroke:#262626;stroke-width:2.5;" x="445.804417" xlink:href="#mf917b74d37" y="358.396625"/>
      </g>
     </g>
     <g id="text_3">
      <!-- 10 -->
      <g style="fill:#262626;" transform="translate(432.346948 379.218531)scale(0.242 -0.242)">
       <use xlink:href="#ArialMT-49"/>
       <use x="55.615234" xlink:href="#ArialMT-48"/>
      </g>
     </g>
    </g>
    <g id="text_4">
     <!-- distance to target ($^\circ$) -->
     <defs>
      <path d="M 40.234375 0 
L 40.234375 6.546875 
Q 35.296875 -1.171875 25.734375 -1.171875 
Q 19.53125 -1.171875 14.328125 2.25 
Q 9.125 5.671875 6.265625 11.796875 
Q 3.421875 17.921875 3.421875 25.875 
Q 3.421875 33.640625 6 39.96875 
Q 8.59375 46.296875 13.765625 49.65625 
Q 18.953125 53.03125 25.34375 53.03125 
Q 30.03125 53.03125 33.6875 51.046875 
Q 37.359375 49.078125 39.65625 45.90625 
L 39.65625 71.578125 
L 48.390625 71.578125 
L 48.390625 0 
z
M 12.453125 25.875 
Q 12.453125 15.921875 16.640625 10.984375 
Q 20.84375 6.0625 26.5625 6.0625 
Q 32.328125 6.0625 36.34375 10.765625 
Q 40.375 15.484375 40.375 25.140625 
Q 40.375 35.796875 36.265625 40.765625 
Q 32.171875 45.75 26.171875 45.75 
Q 20.3125 45.75 16.375 40.96875 
Q 12.453125 36.1875 12.453125 25.875 
z
" id="ArialMT-100"/>
      <path d="M 6.640625 61.46875 
L 6.640625 71.578125 
L 15.4375 71.578125 
L 15.4375 61.46875 
z
M 6.640625 0 
L 6.640625 51.859375 
L 15.4375 51.859375 
L 15.4375 0 
z
" id="ArialMT-105"/>
      <path d="M 3.078125 15.484375 
L 11.765625 16.84375 
Q 12.5 11.625 15.84375 8.84375 
Q 19.1875 6.0625 25.203125 6.0625 
Q 31.25 6.0625 34.171875 8.515625 
Q 37.109375 10.984375 37.109375 14.3125 
Q 37.109375 17.28125 34.515625 19 
Q 32.71875 20.171875 25.53125 21.96875 
Q 15.875 24.421875 12.140625 26.203125 
Q 8.40625 27.984375 6.46875 31.125 
Q 4.546875 34.28125 4.546875 38.09375 
Q 4.546875 41.546875 6.125 44.5 
Q 7.71875 47.46875 10.453125 49.421875 
Q 12.5 50.921875 16.03125 51.96875 
Q 19.578125 53.03125 23.640625 53.03125 
Q 29.734375 53.03125 34.34375 51.265625 
Q 38.96875 49.515625 41.15625 46.5 
Q 43.359375 43.5 44.1875 38.484375 
L 35.59375 37.3125 
Q 35.015625 41.3125 32.203125 43.546875 
Q 29.390625 45.796875 24.265625 45.796875 
Q 18.21875 45.796875 15.625 43.796875 
Q 13.03125 41.796875 13.03125 39.109375 
Q 13.03125 37.40625 14.109375 36.03125 
Q 15.1875 34.625 17.484375 33.6875 
Q 18.796875 33.203125 25.25 31.453125 
Q 34.578125 28.953125 38.25 27.359375 
Q 41.9375 25.78125 44.03125 22.75 
Q 46.140625 19.734375 46.140625 15.234375 
Q 46.140625 10.84375 43.578125 6.953125 
Q 41.015625 3.078125 36.171875 0.953125 
Q 31.34375 -1.171875 25.25 -1.171875 
Q 15.140625 -1.171875 9.84375 3.03125 
Q 4.546875 7.234375 3.078125 15.484375 
z
" id="ArialMT-115"/>
      <path d="M 25.78125 7.859375 
L 27.046875 0.09375 
Q 23.34375 -0.6875 20.40625 -0.6875 
Q 15.625 -0.6875 12.984375 0.828125 
Q 10.359375 2.34375 9.28125 4.8125 
Q 8.203125 7.28125 8.203125 15.1875 
L 8.203125 45.015625 
L 1.765625 45.015625 
L 1.765625 51.859375 
L 8.203125 51.859375 
L 8.203125 64.703125 
L 16.9375 69.96875 
L 16.9375 51.859375 
L 25.78125 51.859375 
L 25.78125 45.015625 
L 16.9375 45.015625 
L 16.9375 14.703125 
Q 16.9375 10.9375 17.40625 9.859375 
Q 17.875 8.796875 18.921875 8.15625 
Q 19.96875 7.515625 21.921875 7.515625 
Q 23.390625 7.515625 25.78125 7.859375 
z
" id="ArialMT-116"/>
      <path d="M 40.4375 6.390625 
Q 35.546875 2.25 31.03125 0.53125 
Q 26.515625 -1.171875 21.34375 -1.171875 
Q 12.796875 -1.171875 8.203125 3 
Q 3.609375 7.171875 3.609375 13.671875 
Q 3.609375 17.484375 5.34375 20.625 
Q 7.078125 23.78125 9.890625 25.6875 
Q 12.703125 27.59375 16.21875 28.5625 
Q 18.796875 29.25 24.03125 29.890625 
Q 34.671875 31.15625 39.703125 32.90625 
Q 39.75 34.71875 39.75 35.203125 
Q 39.75 40.578125 37.25 42.78125 
Q 33.890625 45.75 27.25 45.75 
Q 21.046875 45.75 18.09375 43.578125 
Q 15.140625 41.40625 13.71875 35.890625 
L 5.125 37.0625 
Q 6.296875 42.578125 8.984375 45.96875 
Q 11.671875 49.359375 16.75 51.1875 
Q 21.828125 53.03125 28.515625 53.03125 
Q 35.15625 53.03125 39.296875 51.46875 
Q 43.453125 49.90625 45.40625 47.53125 
Q 47.359375 45.171875 48.140625 41.546875 
Q 48.578125 39.3125 48.578125 33.453125 
L 48.578125 21.734375 
Q 48.578125 9.46875 49.140625 6.21875 
Q 49.703125 2.984375 51.375 0 
L 42.1875 0 
Q 40.828125 2.734375 40.4375 6.390625 
z
M 39.703125 26.03125 
Q 34.90625 24.078125 25.34375 22.703125 
Q 19.921875 21.921875 17.671875 20.9375 
Q 15.4375 19.96875 14.203125 18.09375 
Q 12.984375 16.21875 12.984375 13.921875 
Q 12.984375 10.40625 15.640625 8.0625 
Q 18.3125 5.71875 23.4375 5.71875 
Q 28.515625 5.71875 32.46875 7.9375 
Q 36.421875 10.15625 38.28125 14.015625 
Q 39.703125 17 39.703125 22.796875 
z
" id="ArialMT-97"/>
      <path d="M 6.59375 0 
L 6.59375 51.859375 
L 14.5 51.859375 
L 14.5 44.484375 
Q 20.21875 53.03125 31 53.03125 
Q 35.6875 53.03125 39.625 51.34375 
Q 43.5625 49.65625 45.515625 46.921875 
Q 47.46875 44.1875 48.25 40.4375 
Q 48.734375 37.984375 48.734375 31.890625 
L 48.734375 0 
L 39.9375 0 
L 39.9375 31.546875 
Q 39.9375 36.921875 38.90625 39.578125 
Q 37.890625 42.234375 35.28125 43.8125 
Q 32.671875 45.40625 29.15625 45.40625 
Q 23.53125 45.40625 19.453125 41.84375 
Q 15.375 38.28125 15.375 28.328125 
L 15.375 0 
z
" id="ArialMT-110"/>
      <path d="M 40.4375 19 
L 49.078125 17.875 
Q 47.65625 8.9375 41.8125 3.875 
Q 35.984375 -1.171875 27.484375 -1.171875 
Q 16.84375 -1.171875 10.375 5.78125 
Q 3.90625 12.75 3.90625 25.734375 
Q 3.90625 34.125 6.6875 40.421875 
Q 9.46875 46.734375 15.15625 49.875 
Q 20.84375 53.03125 27.546875 53.03125 
Q 35.984375 53.03125 41.359375 48.75 
Q 46.734375 44.484375 48.25 36.625 
L 39.703125 35.296875 
Q 38.484375 40.53125 35.375 43.15625 
Q 32.28125 45.796875 27.875 45.796875 
Q 21.234375 45.796875 17.078125 41.03125 
Q 12.9375 36.28125 12.9375 25.984375 
Q 12.9375 15.53125 16.9375 10.796875 
Q 20.953125 6.0625 27.390625 6.0625 
Q 32.5625 6.0625 36.03125 9.234375 
Q 39.5 12.40625 40.4375 19 
z
" id="ArialMT-99"/>
      <path d="M 42.09375 16.703125 
L 51.171875 15.578125 
Q 49.03125 7.625 43.21875 3.21875 
Q 37.40625 -1.171875 28.375 -1.171875 
Q 17 -1.171875 10.328125 5.828125 
Q 3.65625 12.84375 3.65625 25.484375 
Q 3.65625 38.578125 10.390625 45.796875 
Q 17.140625 53.03125 27.875 53.03125 
Q 38.28125 53.03125 44.875 45.953125 
Q 51.46875 38.875 51.46875 26.03125 
Q 51.46875 25.25 51.421875 23.6875 
L 12.75 23.6875 
Q 13.234375 15.140625 17.578125 10.59375 
Q 21.921875 6.0625 28.421875 6.0625 
Q 33.25 6.0625 36.671875 8.59375 
Q 40.09375 11.140625 42.09375 16.703125 
z
M 13.234375 30.90625 
L 42.1875 30.90625 
Q 41.609375 37.453125 38.875 40.71875 
Q 34.671875 45.796875 27.984375 45.796875 
Q 21.921875 45.796875 17.796875 41.75 
Q 13.671875 37.703125 13.234375 30.90625 
z
" id="ArialMT-101"/>
      <path id="ArialMT-32"/>
      <path d="M 3.328125 25.921875 
Q 3.328125 40.328125 11.328125 47.265625 
Q 18.015625 53.03125 27.640625 53.03125 
Q 38.328125 53.03125 45.109375 46.015625 
Q 51.90625 39.015625 51.90625 26.65625 
Q 51.90625 16.65625 48.90625 10.90625 
Q 45.90625 5.171875 40.15625 2 
Q 34.421875 -1.171875 27.640625 -1.171875 
Q 16.75 -1.171875 10.03125 5.8125 
Q 3.328125 12.796875 3.328125 25.921875 
z
M 12.359375 25.921875 
Q 12.359375 15.96875 16.703125 11.015625 
Q 21.046875 6.0625 27.640625 6.0625 
Q 34.1875 6.0625 38.53125 11.03125 
Q 42.875 16.015625 42.875 26.21875 
Q 42.875 35.84375 38.5 40.796875 
Q 34.125 45.75 27.640625 45.75 
Q 21.046875 45.75 16.703125 40.8125 
Q 12.359375 35.890625 12.359375 25.921875 
z
" id="ArialMT-111"/>
      <path d="M 6.5 0 
L 6.5 51.859375 
L 14.40625 51.859375 
L 14.40625 44 
Q 17.4375 49.515625 20 51.265625 
Q 22.5625 53.03125 25.640625 53.03125 
Q 30.078125 53.03125 34.671875 50.203125 
L 31.640625 42.046875 
Q 28.421875 43.953125 25.203125 43.953125 
Q 22.3125 43.953125 20.015625 42.21875 
Q 17.71875 40.484375 16.75 37.40625 
Q 15.28125 32.71875 15.28125 27.15625 
L 15.28125 0 
z
" id="ArialMT-114"/>
      <path d="M 4.984375 -4.296875 
L 13.53125 -5.5625 
Q 14.0625 -9.515625 16.5 -11.328125 
Q 19.78125 -13.765625 25.4375 -13.765625 
Q 31.546875 -13.765625 34.859375 -11.328125 
Q 38.1875 -8.890625 39.359375 -4.5 
Q 40.046875 -1.8125 39.984375 6.78125 
Q 34.234375 0 25.640625 0 
Q 14.9375 0 9.078125 7.71875 
Q 3.21875 15.4375 3.21875 26.21875 
Q 3.21875 33.640625 5.90625 39.90625 
Q 8.59375 46.1875 13.6875 49.609375 
Q 18.796875 53.03125 25.6875 53.03125 
Q 34.859375 53.03125 40.828125 45.609375 
L 40.828125 51.859375 
L 48.921875 51.859375 
L 48.921875 7.03125 
Q 48.921875 -5.078125 46.453125 -10.125 
Q 44 -15.1875 38.640625 -18.109375 
Q 33.296875 -21.046875 25.484375 -21.046875 
Q 16.21875 -21.046875 10.5 -16.875 
Q 4.78125 -12.703125 4.984375 -4.296875 
z
M 12.25 26.859375 
Q 12.25 16.65625 16.296875 11.96875 
Q 20.359375 7.28125 26.46875 7.28125 
Q 32.515625 7.28125 36.609375 11.9375 
Q 40.71875 16.609375 40.71875 26.5625 
Q 40.71875 36.078125 36.5 40.90625 
Q 32.28125 45.75 26.3125 45.75 
Q 20.453125 45.75 16.34375 40.984375 
Q 12.25 36.234375 12.25 26.859375 
z
" id="ArialMT-103"/>
      <path d="M 23.390625 -21.046875 
Q 16.109375 -11.859375 11.078125 0.4375 
Q 6.0625 12.75 6.0625 25.921875 
Q 6.0625 37.546875 9.8125 48.1875 
Q 14.203125 60.546875 23.390625 72.796875 
L 29.6875 72.796875 
Q 23.78125 62.640625 21.875 58.296875 
Q 18.890625 51.5625 17.1875 44.234375 
Q 15.09375 35.109375 15.09375 25.875 
Q 15.09375 2.390625 29.6875 -21.046875 
z
" id="ArialMT-40"/>
      <path d="M 31.296875 40.671875 
Q 27.390625 40.671875 24.703125 37.953125 
Q 22.015625 35.25 22.015625 31.34375 
Q 22.015625 27.484375 24.703125 24.828125 
Q 27.390625 22.171875 31.296875 22.171875 
Q 35.203125 22.171875 37.890625 24.828125 
Q 40.578125 27.484375 40.578125 31.34375 
Q 40.578125 35.203125 37.859375 37.9375 
Q 35.15625 40.671875 31.296875 40.671875 
z
M 31.296875 46.96875 
Q 34.421875 46.96875 37.296875 45.765625 
Q 40.1875 44.578125 42.28125 42.328125 
Q 44.53125 40.140625 45.65625 37.34375 
Q 46.78125 34.5625 46.78125 31.34375 
Q 46.78125 24.90625 42.265625 20.4375 
Q 37.75 15.96875 31.203125 15.96875 
Q 24.609375 15.96875 20.21875 20.359375 
Q 15.828125 24.75 15.828125 31.34375 
Q 15.828125 37.890625 20.3125 42.421875 
Q 24.8125 46.96875 31.296875 46.96875 
z
" id="DejaVuSans-8728"/>
      <path d="M 12.359375 -21.046875 
L 6.0625 -21.046875 
Q 20.65625 2.390625 20.65625 25.875 
Q 20.65625 35.0625 18.5625 44.09375 
Q 16.890625 51.421875 13.921875 58.15625 
Q 12.015625 62.546875 6.0625 72.796875 
L 12.359375 72.796875 
Q 21.53125 60.546875 25.921875 48.1875 
Q 29.6875 37.546875 29.6875 25.921875 
Q 29.6875 12.75 24.625 0.4375 
Q 19.578125 -11.859375 12.359375 -21.046875 
z
" id="ArialMT-41"/>
     </defs>
     <g style="fill:#262626;" transform="translate(189.01625 407.300281)scale(0.264 -0.264)">
      <use transform="translate(0 0.203125)" xlink:href="#ArialMT-100"/>
      <use transform="translate(55.615234 0.203125)" xlink:href="#ArialMT-105"/>
      <use transform="translate(77.832031 0.203125)" xlink:href="#ArialMT-115"/>
      <use transform="translate(127.832031 0.203125)" xlink:href="#ArialMT-116"/>
      <use transform="translate(155.615234 0.203125)" xlink:href="#ArialMT-97"/>
      <use transform="translate(211.230469 0.203125)" xlink:href="#ArialMT-110"/>
      <use transform="translate(266.845703 0.203125)" xlink:href="#ArialMT-99"/>
      <use transform="translate(316.845703 0.203125)" xlink:href="#ArialMT-101"/>
      <use transform="translate(372.460938 0.203125)" xlink:href="#ArialMT-32"/>
      <use transform="translate(400.244141 0.203125)" xlink:href="#ArialMT-116"/>
      <use transform="translate(428.027344 0.203125)" xlink:href="#ArialMT-111"/>
      <use transform="translate(483.642578 0.203125)" xlink:href="#ArialMT-32"/>
      <use transform="translate(511.425781 0.203125)" xlink:href="#ArialMT-116"/>
      <use transform="translate(539.208984 0.203125)" xlink:href="#ArialMT-97"/>
      <use transform="translate(594.824219 0.203125)" xlink:href="#ArialMT-114"/>
      <use transform="translate(628.125 0.203125)" xlink:href="#ArialMT-103"/>
      <use transform="translate(683.740234 0.203125)" xlink:href="#ArialMT-101"/>
      <use transform="translate(739.355469 0.203125)" xlink:href="#ArialMT-116"/>
      <use transform="translate(767.138672 0.203125)" xlink:href="#ArialMT-32"/>
      <use transform="translate(794.921875 0.203125)" xlink:href="#ArialMT-40"/>
      <use transform="translate(842.817383 38.484375)scale(0.7)" xlink:href="#DejaVuSans-8728"/>
      <use transform="translate(903.007812 0.203125)" xlink:href="#ArialMT-41"/>
     </g>
    </g>
   </g>
   <g id="matplotlib.axis_2">
    <g id="ytick_1">
     <g id="line2d_4">
      <defs>
       <path d="M 0 0 
L 12 0 
" id="m898f0d321e" style="stroke:#262626;stroke-width:2.5;"/>
      </defs>
      <g>
       <use style="fill:#262626;stroke:#262626;stroke-width:2.5;" x="73.11275" xlink:href="#m898f0d321e" y="213.374403"/>
      </g>
     </g>
     <g id="text_5">
      <!-- 0.1 -->
      <defs>
       <path d="M 9.078125 0 
L 9.078125 10.015625 
L 19.09375 10.015625 
L 19.09375 0 
z
" id="ArialMT-46"/>
      </defs>
      <g style="fill:#262626;" transform="translate(35.97475 222.035356)scale(0.242 -0.242)">
       <use xlink:href="#ArialMT-48"/>
       <use x="55.615234" xlink:href="#ArialMT-46"/>
       <use x="83.398438" xlink:href="#ArialMT-49"/>
      </g>
     </g>
    </g>
    <g id="ytick_2">
     <g id="line2d_5">
      <g>
       <use style="fill:#262626;stroke:#262626;stroke-width:2.5;" x="73.11275" xlink:href="#m898f0d321e" y="32.096625"/>
      </g>
     </g>
     <g id="text_6">
      <!-- 0.2 -->
      <defs>
       <path d="M 50.34375 8.453125 
L 50.34375 0 
L 3.03125 0 
Q 2.9375 3.171875 4.046875 6.109375 
Q 5.859375 10.9375 9.828125 15.625 
Q 13.8125 20.3125 21.34375 26.46875 
Q 33.015625 36.03125 37.109375 41.625 
Q 41.21875 47.21875 41.21875 52.203125 
Q 41.21875 57.421875 37.46875 61 
Q 33.734375 64.59375 27.734375 64.59375 
Q 21.390625 64.59375 17.578125 60.78125 
Q 13.765625 56.984375 13.71875 50.25 
L 4.6875 51.171875 
Q 5.609375 61.28125 11.65625 66.578125 
Q 17.71875 71.875 27.9375 71.875 
Q 38.234375 71.875 44.234375 66.15625 
Q 50.25 60.453125 50.25 52 
Q 50.25 47.703125 48.484375 43.546875 
Q 46.734375 39.40625 42.65625 34.8125 
Q 38.578125 30.21875 29.109375 22.21875 
Q 21.1875 15.578125 18.9375 13.203125 
Q 16.703125 10.84375 15.234375 8.453125 
z
" id="ArialMT-50"/>
      </defs>
      <g style="fill:#262626;" transform="translate(35.97475 40.757578)scale(0.242 -0.242)">
       <use xlink:href="#ArialMT-48"/>
       <use x="55.615234" xlink:href="#ArialMT-46"/>
       <use x="83.398438" xlink:href="#ArialMT-50"/>
      </g>
     </g>
    </g>
    <g id="text_7">
     <!-- frequency -->
     <defs>
      <path d="M 8.6875 0 
L 8.6875 45.015625 
L 0.921875 45.015625 
L 0.921875 51.859375 
L 8.6875 51.859375 
L 8.6875 57.375 
Q 8.6875 62.59375 9.625 65.140625 
Q 10.890625 68.5625 14.078125 70.671875 
Q 17.28125 72.796875 23.046875 72.796875 
Q 26.765625 72.796875 31.25 71.921875 
L 29.9375 64.265625 
Q 27.203125 64.75 24.75 64.75 
Q 20.75 64.75 19.09375 63.03125 
Q 17.4375 61.328125 17.4375 56.640625 
L 17.4375 51.859375 
L 27.546875 51.859375 
L 27.546875 45.015625 
L 17.4375 45.015625 
L 17.4375 0 
z
" id="ArialMT-102"/>
      <path d="M 39.65625 -19.875 
L 39.65625 5.515625 
Q 37.59375 2.640625 33.90625 0.734375 
Q 30.21875 -1.171875 26.078125 -1.171875 
Q 16.84375 -1.171875 10.171875 6.203125 
Q 3.515625 13.578125 3.515625 26.421875 
Q 3.515625 34.234375 6.21875 40.421875 
Q 8.9375 46.625 14.078125 49.828125 
Q 19.234375 53.03125 25.390625 53.03125 
Q 35.015625 53.03125 40.53125 44.921875 
L 40.53125 51.859375 
L 48.4375 51.859375 
L 48.4375 -19.875 
z
M 12.546875 26.078125 
Q 12.546875 16.0625 16.75 11.0625 
Q 20.953125 6.0625 26.8125 6.0625 
Q 32.421875 6.0625 36.46875 10.8125 
Q 40.53125 15.578125 40.53125 25.296875 
Q 40.53125 35.640625 36.25 40.859375 
Q 31.984375 46.09375 26.21875 46.09375 
Q 20.515625 46.09375 16.53125 41.234375 
Q 12.546875 36.375 12.546875 26.078125 
z
" id="ArialMT-113"/>
      <path d="M 40.578125 0 
L 40.578125 7.625 
Q 34.515625 -1.171875 24.125 -1.171875 
Q 19.53125 -1.171875 15.546875 0.578125 
Q 11.578125 2.34375 9.640625 5 
Q 7.71875 7.671875 6.9375 11.53125 
Q 6.390625 14.109375 6.390625 19.734375 
L 6.390625 51.859375 
L 15.1875 51.859375 
L 15.1875 23.09375 
Q 15.1875 16.21875 15.71875 13.8125 
Q 16.546875 10.359375 19.234375 8.375 
Q 21.921875 6.390625 25.875 6.390625 
Q 29.828125 6.390625 33.296875 8.421875 
Q 36.765625 10.453125 38.203125 13.9375 
Q 39.65625 17.4375 39.65625 24.078125 
L 39.65625 51.859375 
L 48.4375 51.859375 
L 48.4375 0 
z
" id="ArialMT-117"/>
      <path d="M 6.203125 -19.96875 
L 5.21875 -11.71875 
Q 8.109375 -12.5 10.25 -12.5 
Q 13.1875 -12.5 14.9375 -11.515625 
Q 16.703125 -10.546875 17.828125 -8.796875 
Q 18.65625 -7.46875 20.515625 -2.25 
Q 20.75 -1.515625 21.296875 -0.09375 
L 1.609375 51.859375 
L 11.078125 51.859375 
L 21.875 21.828125 
Q 23.96875 16.109375 25.640625 9.8125 
Q 27.15625 15.875 29.25 21.625 
L 40.328125 51.859375 
L 49.125 51.859375 
L 29.390625 -0.875 
Q 26.21875 -9.421875 24.46875 -12.640625 
Q 22.125 -17 19.09375 -19.015625 
Q 16.0625 -21.046875 11.859375 -21.046875 
Q 9.328125 -21.046875 6.203125 -19.96875 
z
" id="ArialMT-121"/>
     </defs>
     <g style="fill:#262626;" transform="translate(26.418375 253.211125)rotate(-90)scale(0.264 -0.264)">
      <use xlink:href="#ArialMT-102"/>
      <use x="27.783203" xlink:href="#ArialMT-114"/>
      <use x="61.083984" xlink:href="#ArialMT-101"/>
      <use x="116.699219" xlink:href="#ArialMT-113"/>
      <use x="172.314453" xlink:href="#ArialMT-117"/>
      <use x="227.929688" xlink:href="#ArialMT-101"/>
      <use x="283.544922" xlink:href="#ArialMT-110"/>
      <use x="339.160156" xlink:href="#ArialMT-99"/>
      <use x="389.160156" xlink:href="#ArialMT-121"/>
     </g>
    </g>
   </g>
   <g id="patch_3">
    <path clip-path="url(#p8399e306f9)" d="M 179.596083 394.652181 
L 190.688097 394.652181 
L 190.688097 372.567578 
L 179.596083 372.567578 
z
" style="fill:#e66101;opacity:0.4;stroke:#ffffff;stroke-linejoin:miter;stroke-width:2;"/>
   </g>
   <g id="patch_4">
    <path clip-path="url(#p8399e306f9)" d="M 190.688097 394.652181 
L 201.780111 394.652181 
L 201.780111 339.440675 
L 190.688097 339.440675 
z
" style="fill:#e66101;opacity:0.4;stroke:#ffffff;stroke-linejoin:miter;stroke-width:2;"/>
   </g>
   <g id="patch_5">
    <path clip-path="url(#p8399e306f9)" d="M 201.780111 394.652181 
L 212.872125 394.652181 
L 212.872125 306.313771 
L 201.780111 306.313771 
z
" style="fill:#e66101;opacity:0.4;stroke:#ffffff;stroke-linejoin:miter;stroke-width:2;"/>
   </g>
   <g id="patch_6">
    <path clip-path="url(#p8399e306f9)" d="M 212.872125 394.652181 
L 223.964139 394.652181 
L 223.964139 328.398373 
L 212.872125 328.398373 
z
" style="fill:#e66101;opacity:0.4;stroke:#ffffff;stroke-linejoin:miter;stroke-width:2;"/>
   </g>
   <g id="patch_7">
    <path clip-path="url(#p8399e306f9)" d="M 223.964139 394.652181 
L 235.056153 394.652181 
L 235.056153 217.975362 
L 223.964139 217.975362 
z
" style="fill:#e66101;opacity:0.4;stroke:#ffffff;stroke-linejoin:miter;stroke-width:2;"/>
   </g>
   <g id="patch_8">
    <path clip-path="url(#p8399e306f9)" d="M 235.056153 394.652181 
L 246.148167 394.652181 
L 246.148167 184.848458 
L 235.056153 184.848458 
z
" style="fill:#e66101;opacity:0.4;stroke:#ffffff;stroke-linejoin:miter;stroke-width:2;"/>
   </g>
   <g id="patch_9">
    <path clip-path="url(#p8399e306f9)" d="M 246.148167 394.652181 
L 257.240181 394.652181 
L 257.240181 251.102265 
L 246.148167 251.102265 
z
" style="fill:#e66101;opacity:0.4;stroke:#ffffff;stroke-linejoin:miter;stroke-width:2;"/>
   </g>
   <g id="patch_10">
    <path clip-path="url(#p8399e306f9)" d="M 257.240181 394.652181 
L 268.332194 394.652181 
L 268.332194 151.721554 
L 257.240181 151.721554 
z
" style="fill:#e66101;opacity:0.4;stroke:#ffffff;stroke-linejoin:miter;stroke-width:2;"/>
   </g>
   <g id="patch_11">
    <path clip-path="url(#p8399e306f9)" d="M 268.332194 394.652181 
L 279.424208 394.652181 
L 279.424208 240.059964 
L 268.332194 240.059964 
z
" style="fill:#e66101;opacity:0.4;stroke:#ffffff;stroke-linejoin:miter;stroke-width:2;"/>
   </g>
   <g id="patch_12">
    <path clip-path="url(#p8399e306f9)" d="M 279.424208 394.652181 
L 290.516222 394.652181 
L 290.516222 184.848458 
L 279.424208 184.848458 
z
" style="fill:#e66101;opacity:0.4;stroke:#ffffff;stroke-linejoin:miter;stroke-width:2;"/>
   </g>
   <g id="patch_13">
    <path clip-path="url(#p8399e306f9)" d="M 290.516222 394.652181 
L 301.608236 394.652181 
L 301.608236 129.636952 
L 290.516222 129.636952 
z
" style="fill:#e66101;opacity:0.4;stroke:#ffffff;stroke-linejoin:miter;stroke-width:2;"/>
   </g>
   <g id="patch_14">
    <path clip-path="url(#p8399e306f9)" d="M 301.608236 394.652181 
L 312.70025 394.652181 
L 312.70025 295.27147 
L 301.608236 295.27147 
z
" style="fill:#e66101;opacity:0.4;stroke:#ffffff;stroke-linejoin:miter;stroke-width:2;"/>
   </g>
   <g id="patch_15">
    <path clip-path="url(#p8399e306f9)" d="M 312.70025 394.652181 
L 323.792264 394.652181 
L 323.792264 306.313771 
L 312.70025 306.313771 
z
" style="fill:#e66101;opacity:0.4;stroke:#ffffff;stroke-linejoin:miter;stroke-width:2;"/>
   </g>
   <g id="patch_16">
    <path clip-path="url(#p8399e306f9)" d="M 323.792264 394.652181 
L 334.884278 394.652181 
L 334.884278 317.356072 
L 323.792264 317.356072 
z
" style="fill:#e66101;opacity:0.4;stroke:#ffffff;stroke-linejoin:miter;stroke-width:2;"/>
   </g>
   <g id="patch_17">
    <path clip-path="url(#p8399e306f9)" d="M 334.884278 394.652181 
L 345.976292 394.652181 
L 345.976292 328.398373 
L 334.884278 328.398373 
z
" style="fill:#e66101;opacity:0.4;stroke:#ffffff;stroke-linejoin:miter;stroke-width:2;"/>
   </g>
   <g id="patch_18">
    <path clip-path="url(#p8399e306f9)" d="M 345.976292 394.652181 
L 357.068306 394.652181 
L 357.068306 306.313771 
L 345.976292 306.313771 
z
" style="fill:#e66101;opacity:0.4;stroke:#ffffff;stroke-linejoin:miter;stroke-width:2;"/>
   </g>
   <g id="patch_19">
    <path clip-path="url(#p8399e306f9)" d="M 357.068306 394.652181 
L 368.160319 394.652181 
L 368.160319 339.440675 
L 357.068306 339.440675 
z
" style="fill:#e66101;opacity:0.4;stroke:#ffffff;stroke-linejoin:miter;stroke-width:2;"/>
   </g>
   <g id="patch_20">
    <path clip-path="url(#p8399e306f9)" d="M 368.160319 394.652181 
L 379.252333 394.652181 
L 379.252333 361.525277 
L 368.160319 361.525277 
z
" style="fill:#e66101;opacity:0.4;stroke:#ffffff;stroke-linejoin:miter;stroke-width:2;"/>
   </g>
   <g id="patch_21">
    <path clip-path="url(#p8399e306f9)" d="M 379.252333 394.652181 
L 390.344347 394.652181 
L 390.344347 383.609879 
L 379.252333 383.609879 
z
" style="fill:#e66101;opacity:0.4;stroke:#ffffff;stroke-linejoin:miter;stroke-width:2;"/>
   </g>
   <g id="patch_22">
    <path clip-path="url(#p8399e306f9)" d="M 390.344347 394.652181 
L 401.436361 394.652181 
L 401.436361 383.609879 
L 390.344347 383.609879 
z
" style="fill:#e66101;opacity:0.4;stroke:#ffffff;stroke-linejoin:miter;stroke-width:2;"/>
   </g>
   <g id="patch_23">
    <path clip-path="url(#p8399e306f9)" d="M 401.436361 394.652181 
L 412.528375 394.652181 
L 412.528375 394.652181 
L 401.436361 394.652181 
z
" style="fill:#e66101;opacity:0.4;stroke:#ffffff;stroke-linejoin:miter;stroke-width:2;"/>
   </g>
   <g id="patch_24">
    <path clip-path="url(#p8399e306f9)" d="M 412.528375 394.652181 
L 423.620389 394.652181 
L 423.620389 383.609879 
L 412.528375 383.609879 
z
" style="fill:#e66101;opacity:0.4;stroke:#ffffff;stroke-linejoin:miter;stroke-width:2;"/>
   </g>
   <g id="patch_25">
    <path clip-path="url(#p8399e306f9)" d="M 423.620389 394.652181 
L 434.712403 394.652181 
L 434.712403 394.652181 
L 423.620389 394.652181 
z
" style="fill:#e66101;opacity:0.4;stroke:#ffffff;stroke-linejoin:miter;stroke-width:2;"/>
   </g>
   <g id="patch_26">
    <path clip-path="url(#p8399e306f9)" d="M 434.712403 394.652181 
L 445.804417 394.652181 
L 445.804417 394.652181 
L 434.712403 394.652181 
z
" style="fill:#e66101;opacity:0.4;stroke:#ffffff;stroke-linejoin:miter;stroke-width:2;"/>
   </g>
   <g id="patch_27">
    <path clip-path="url(#p8399e306f9)" d="M 179.596083 394.652181 
L 190.688097 394.652181 
L 190.688097 383.263001 
L 179.596083 383.263001 
z
" style="fill:#5e3c99;opacity:0.4;stroke:#ffffff;stroke-linejoin:miter;stroke-width:2;"/>
   </g>
   <g id="patch_28">
    <path clip-path="url(#p8399e306f9)" d="M 190.688097 394.652181 
L 201.780111 394.652181 
L 201.780111 371.873821 
L 190.688097 371.873821 
z
" style="fill:#5e3c99;opacity:0.4;stroke:#ffffff;stroke-linejoin:miter;stroke-width:2;"/>
   </g>
   <g id="patch_29">
    <path clip-path="url(#p8399e306f9)" d="M 201.780111 394.652181 
L 212.872125 394.652181 
L 212.872125 349.095462 
L 201.780111 349.095462 
z
" style="fill:#5e3c99;opacity:0.4;stroke:#ffffff;stroke-linejoin:miter;stroke-width:2;"/>
   </g>
   <g id="patch_30">
    <path clip-path="url(#p8399e306f9)" d="M 212.872125 394.652181 
L 223.964139 394.652181 
L 223.964139 303.538743 
L 212.872125 303.538743 
z
" style="fill:#5e3c99;opacity:0.4;stroke:#ffffff;stroke-linejoin:miter;stroke-width:2;"/>
   </g>
   <g id="patch_31">
    <path clip-path="url(#p8399e306f9)" d="M 223.964139 394.652181 
L 235.056153 394.652181 
L 235.056153 303.538743 
L 223.964139 303.538743 
z
" style="fill:#5e3c99;opacity:0.4;stroke:#ffffff;stroke-linejoin:miter;stroke-width:2;"/>
   </g>
   <g id="patch_32">
    <path clip-path="url(#p8399e306f9)" d="M 235.056153 394.652181 
L 246.148167 394.652181 
L 246.148167 303.538743 
L 235.056153 303.538743 
z
" style="fill:#5e3c99;opacity:0.4;stroke:#ffffff;stroke-linejoin:miter;stroke-width:2;"/>
   </g>
   <g id="patch_33">
    <path clip-path="url(#p8399e306f9)" d="M 246.148167 394.652181 
L 257.240181 394.652181 
L 257.240181 269.371203 
L 246.148167 269.371203 
z
" style="fill:#5e3c99;opacity:0.4;stroke:#ffffff;stroke-linejoin:miter;stroke-width:2;"/>
   </g>
   <g id="patch_34">
    <path clip-path="url(#p8399e306f9)" d="M 257.240181 394.652181 
L 268.332194 394.652181 
L 268.332194 155.479406 
L 257.240181 155.479406 
z
" style="fill:#5e3c99;opacity:0.4;stroke:#ffffff;stroke-linejoin:miter;stroke-width:2;"/>
   </g>
   <g id="patch_35">
    <path clip-path="url(#p8399e306f9)" d="M 268.332194 394.652181 
L 279.424208 394.652181 
L 279.424208 189.646945 
L 268.332194 189.646945 
z
" style="fill:#5e3c99;opacity:0.4;stroke:#ffffff;stroke-linejoin:miter;stroke-width:2;"/>
   </g>
   <g id="patch_36">
    <path clip-path="url(#p8399e306f9)" d="M 279.424208 394.652181 
L 290.516222 394.652181 
L 290.516222 121.311866 
L 279.424208 121.311866 
z
" style="fill:#5e3c99;opacity:0.4;stroke:#ffffff;stroke-linejoin:miter;stroke-width:2;"/>
   </g>
   <g id="patch_37">
    <path clip-path="url(#p8399e306f9)" d="M 290.516222 394.652181 
L 301.608236 394.652181 
L 301.608236 223.814484 
L 290.516222 223.814484 
z
" style="fill:#5e3c99;opacity:0.4;stroke:#ffffff;stroke-linejoin:miter;stroke-width:2;"/>
   </g>
   <g id="patch_38">
    <path clip-path="url(#p8399e306f9)" d="M 301.608236 394.652181 
L 312.70025 394.652181 
L 312.70025 178.257765 
L 301.608236 178.257765 
z
" style="fill:#5e3c99;opacity:0.4;stroke:#ffffff;stroke-linejoin:miter;stroke-width:2;"/>
   </g>
   <g id="patch_39">
    <path clip-path="url(#p8399e306f9)" d="M 312.70025 394.652181 
L 323.792264 394.652181 
L 323.792264 235.203664 
L 312.70025 235.203664 
z
" style="fill:#5e3c99;opacity:0.4;stroke:#ffffff;stroke-linejoin:miter;stroke-width:2;"/>
   </g>
   <g id="patch_40">
    <path clip-path="url(#p8399e306f9)" d="M 323.792264 394.652181 
L 334.884278 394.652181 
L 334.884278 212.425304 
L 323.792264 212.425304 
z
" style="fill:#5e3c99;opacity:0.4;stroke:#ffffff;stroke-linejoin:miter;stroke-width:2;"/>
   </g>
   <g id="patch_41">
    <path clip-path="url(#p8399e306f9)" d="M 334.884278 394.652181 
L 345.976292 394.652181 
L 345.976292 246.592844 
L 334.884278 246.592844 
z
" style="fill:#5e3c99;opacity:0.4;stroke:#ffffff;stroke-linejoin:miter;stroke-width:2;"/>
   </g>
   <g id="patch_42">
    <path clip-path="url(#p8399e306f9)" d="M 345.976292 394.652181 
L 357.068306 394.652181 
L 357.068306 349.095462 
L 345.976292 349.095462 
z
" style="fill:#5e3c99;opacity:0.4;stroke:#ffffff;stroke-linejoin:miter;stroke-width:2;"/>
   </g>
   <g id="patch_43">
    <path clip-path="url(#p8399e306f9)" d="M 357.068306 394.652181 
L 368.160319 394.652181 
L 368.160319 349.095462 
L 357.068306 349.095462 
z
" style="fill:#5e3c99;opacity:0.4;stroke:#ffffff;stroke-linejoin:miter;stroke-width:2;"/>
   </g>
   <g id="patch_44">
    <path clip-path="url(#p8399e306f9)" d="M 368.160319 394.652181 
L 379.252333 394.652181 
L 379.252333 383.263001 
L 368.160319 383.263001 
z
" style="fill:#5e3c99;opacity:0.4;stroke:#ffffff;stroke-linejoin:miter;stroke-width:2;"/>
   </g>
   <g id="patch_45">
    <path clip-path="url(#p8399e306f9)" d="M 379.252333 394.652181 
L 390.344347 394.652181 
L 390.344347 394.652181 
L 379.252333 394.652181 
z
" style="fill:#5e3c99;opacity:0.4;stroke:#ffffff;stroke-linejoin:miter;stroke-width:2;"/>
   </g>
   <g id="patch_46">
    <path clip-path="url(#p8399e306f9)" d="M 390.344347 394.652181 
L 401.436361 394.652181 
L 401.436361 394.652181 
L 390.344347 394.652181 
z
" style="fill:#5e3c99;opacity:0.4;stroke:#ffffff;stroke-linejoin:miter;stroke-width:2;"/>
   </g>
   <g id="patch_47">
    <path clip-path="url(#p8399e306f9)" d="M 401.436361 394.652181 
L 412.528375 394.652181 
L 412.528375 394.652181 
L 401.436361 394.652181 
z
" style="fill:#5e3c99;opacity:0.4;stroke:#ffffff;stroke-linejoin:miter;stroke-width:2;"/>
   </g>
   <g id="patch_48">
    <path clip-path="url(#p8399e306f9)" d="M 412.528375 394.652181 
L 423.620389 394.652181 
L 423.620389 394.652181 
L 412.528375 394.652181 
z
" style="fill:#5e3c99;opacity:0.4;stroke:#ffffff;stroke-linejoin:miter;stroke-width:2;"/>
   </g>
   <g id="patch_49">
    <path clip-path="url(#p8399e306f9)" d="M 423.620389 394.652181 
L 434.712403 394.652181 
L 434.712403 394.652181 
L 423.620389 394.652181 
z
" style="fill:#5e3c99;opacity:0.4;stroke:#ffffff;stroke-linejoin:miter;stroke-width:2;"/>
   </g>
   <g id="patch_50">
    <path clip-path="url(#p8399e306f9)" d="M 434.712403 394.652181 
L 445.804417 394.652181 
L 445.804417 394.652181 
L 434.712403 394.652181 
z
" style="fill:#5e3c99;opacity:0.4;stroke:#ffffff;stroke-linejoin:miter;stroke-width:2;"/>
   </g>
   <g id="patch_51">
    <path clip-path="url(#p8399e306f9)" d="M 459.114833 394.652181 
L 472.42525 322.141069 
L 485.735667 394.652181 
z
" style="fill:#808080;stroke:#808080;stroke-linejoin:miter;stroke-width:2;"/>
   </g>
   <g id="line2d_6">
    <path clip-path="url(#p8399e306f9)" d="M 105.012825 394.19585 
L 113.45183 393.841063 
L 121.890835 393.251271 
L 128.220089 392.581007 
L 134.549342 391.639145 
L 138.768845 390.818373 
L 142.988347 389.80893 
L 147.20785 388.577489 
L 151.427352 387.087473 
L 155.646855 385.299401 
L 159.866357 383.17144 
L 164.085859 380.660184 
L 168.305362 377.721667 
L 172.524864 374.312636 
L 176.744367 370.392062 
L 180.963869 365.922866 
L 185.183372 360.873846 
L 189.402874 355.221722 
L 193.622377 348.953247 
L 197.841879 342.067295 
L 202.061382 334.576813 
L 206.280884 326.510543 
L 210.500387 317.914383 
L 214.719889 308.852291 
L 221.049143 294.570634 
L 231.597899 269.855613 
L 237.927152 255.222987 
L 242.146655 245.868525 
L 246.366157 237.022729 
L 250.58566 228.846221 
L 254.805162 221.49379 
L 256.914914 218.172186 
L 259.024665 215.109552 
L 261.134416 212.321466 
L 263.244167 209.822272 
L 265.353918 207.62496 
L 267.46367 205.741049 
L 269.573421 204.180489 
L 271.683172 202.951575 
L 273.792923 202.06087 
L 275.902675 201.513148 
L 278.012426 201.311354 
L 280.122177 201.456572 
L 282.231928 201.948022 
L 284.34168 202.783062 
L 286.451431 203.957212 
L 288.561182 205.464198 
L 290.670933 207.296004 
L 292.780684 209.442944 
L 294.890436 211.893747 
L 297.000187 214.635657 
L 299.109938 217.654542 
L 301.219689 220.935016 
L 303.329441 224.46057 
L 307.548943 232.176091 
L 311.768446 240.65194 
L 315.987948 249.730295 
L 322.317202 264.124079 
L 339.195212 303.399751 
L 343.414714 312.696111 
L 347.634216 321.572197 
L 351.853719 329.953356 
L 356.073221 337.783262 
L 360.292724 345.023334 
L 364.512226 351.651628 
L 368.731729 357.661313 
L 372.951231 363.058835 
L 377.170734 367.861893 
L 381.390236 372.097341 
L 385.609739 375.799081 
L 389.829241 379.00607 
L 394.048744 381.760466 
L 398.268246 384.105991 
L 402.487748 386.086515 
L 406.707251 387.744897 
L 410.926753 389.122067 
L 415.146256 390.256344 
L 419.365758 391.182979 
L 423.585261 391.933875 
L 429.914514 392.792011 
L 436.243768 393.39965 
L 444.682773 393.93132 
L 455.231529 394.305137 
L 469.999788 394.536523 
L 495.316803 394.637852 
L 524.85332 394.651277 
L 524.85332 394.651277 
" style="fill:none;stroke:#e66101;stroke-linecap:round;stroke-width:2;"/>
   </g>
   <g id="line2d_7">
    <path clip-path="url(#p8399e306f9)" d="M 147.887937 394.151998 
L 154.628395 393.749321 
L 160.020762 393.23454 
L 165.41313 392.46798 
L 169.457405 391.668905 
L 173.50168 390.620644 
L 177.545955 389.261739 
L 180.242139 388.148514 
L 182.938322 386.842429 
L 185.634506 385.318319 
L 188.33069 383.54943 
L 191.026873 381.507655 
L 193.723057 379.163859 
L 196.41924 376.488289 
L 199.115424 373.451072 
L 201.811607 370.022808 
L 204.507791 366.175246 
L 207.203974 361.882046 
L 209.900158 357.119607 
L 212.596341 351.867966 
L 215.292525 346.11172 
L 217.988708 339.840978 
L 220.684892 333.052299 
L 223.381075 325.749591 
L 226.077259 317.944948 
L 230.121534 305.345374 
L 234.16581 291.777311 
L 238.210085 277.402805 
L 243.602452 257.357594 
L 254.387186 216.791278 
L 258.431461 202.447381 
L 261.127645 193.44131 
L 263.823828 185.00754 
L 266.520012 177.25135 
L 269.216195 170.272388 
L 271.912379 164.162546 
L 274.608562 159.00396 
L 275.956654 156.803928 
L 277.304746 154.867164 
L 278.652838 153.200409 
L 280.00093 151.809494 
L 281.349021 150.699306 
L 282.697113 149.87376 
L 284.045205 149.335774 
L 285.393297 149.087254 
L 286.741388 149.129081 
L 288.08948 149.461106 
L 289.437572 150.082152 
L 290.785664 150.990022 
L 292.133755 152.181507 
L 293.481847 153.65241 
L 294.829939 155.39757 
L 296.178031 157.410888 
L 297.526122 159.685369 
L 298.874214 162.213156 
L 301.570398 167.993207 
L 304.266581 174.672837 
L 306.962765 182.163403 
L 309.658948 190.367781 
L 312.355132 199.182448 
L 316.399407 213.312404 
L 321.791774 233.271191 
L 333.9246 278.812317 
L 337.968875 293.117846 
L 342.013151 306.599149 
L 346.057426 319.099097 
L 348.75361 326.832536 
L 351.449793 334.061765 
L 354.145977 340.775918 
L 356.84216 346.972196 
L 359.538344 352.655027 
L 362.234527 357.835153 
L 364.930711 362.528692 
L 367.626894 366.75619 
L 370.323078 370.541693 
L 373.019261 373.911868 
L 375.715445 376.895176 
L 378.411628 379.521124 
L 381.107812 381.819603 
L 383.803995 383.820306 
L 386.500179 385.552241 
L 389.196362 387.04334 
L 391.892546 388.320142 
L 394.58873 389.407564 
L 398.633005 390.733714 
L 402.67728 391.755537 
L 406.721555 392.533574 
L 412.113922 393.278986 
L 416.158198 393.672467 
L 416.158198 393.672467 
" style="fill:none;stroke:#5e3c99;stroke-linecap:round;stroke-width:2;"/>
   </g>
   <g id="line2d_8">
    <path clip-path="url(#p8399e306f9)" d="M 312.70025 394.652181 
L 312.70025 86.479958 
" style="fill:none;stroke:#000000;stroke-dasharray:9.25,4;stroke-dashoffset:0;stroke-width:2.5;"/>
   </g>
   <g id="line2d_9">
    <defs>
     <path d="M 0 -5 
L -5 5 
L 5 5 
z
" id="mae609fccb8" style="stroke:#808080;stroke-linejoin:miter;"/>
    </defs>
    <g clip-path="url(#p8399e306f9)"/>
   </g>
   <g id="patch_52">
    <path d="M 73.11275 358.396625 
L 73.11275 32.096625 
" style="fill:none;stroke:#262626;stroke-linecap:square;stroke-linejoin:miter;stroke-width:2.5;"/>
   </g>
   <g id="patch_53">
    <path d="M 73.11275 358.396625 
L 552.28775 358.396625 
" style="fill:none;stroke:#262626;stroke-linecap:square;stroke-linejoin:miter;stroke-width:2.5;"/>
   </g>
   <g id="text_8">
    <!-- attraction -->
    <g style="fill:#262626;" transform="translate(381.914417 285.885514)scale(0.22 -0.22)">
     <use xlink:href="#ArialMT-97"/>
     <use x="55.615234" xlink:href="#ArialMT-116"/>
     <use x="83.398438" xlink:href="#ArialMT-116"/>
     <use x="111.181641" xlink:href="#ArialMT-114"/>
     <use x="144.482422" xlink:href="#ArialMT-97"/>
     <use x="200.097656" xlink:href="#ArialMT-99"/>
     <use x="250.097656" xlink:href="#ArialMT-116"/>
     <use x="277.880859" xlink:href="#ArialMT-105"/>
     <use x="300.097656" xlink:href="#ArialMT-111"/>
     <use x="355.712891" xlink:href="#ArialMT-110"/>
    </g>
   </g>
   <g id="text_9">
    <!-- repulsion -->
    <defs>
     <path d="M 6.59375 -19.875 
L 6.59375 51.859375 
L 14.59375 51.859375 
L 14.59375 45.125 
Q 17.4375 49.078125 21 51.046875 
Q 24.5625 53.03125 29.640625 53.03125 
Q 36.28125 53.03125 41.359375 49.609375 
Q 46.4375 46.1875 49.015625 39.953125 
Q 51.609375 33.734375 51.609375 26.3125 
Q 51.609375 18.359375 48.75 11.984375 
Q 45.90625 5.609375 40.453125 2.21875 
Q 35.015625 -1.171875 29 -1.171875 
Q 24.609375 -1.171875 21.109375 0.6875 
Q 17.625 2.546875 15.375 5.375 
L 15.375 -19.875 
z
M 14.546875 25.640625 
Q 14.546875 15.625 18.59375 10.84375 
Q 22.65625 6.0625 28.421875 6.0625 
Q 34.28125 6.0625 38.453125 11.015625 
Q 42.625 15.96875 42.625 26.375 
Q 42.625 36.28125 38.546875 41.203125 
Q 34.46875 46.140625 28.8125 46.140625 
Q 23.1875 46.140625 18.859375 40.890625 
Q 14.546875 35.640625 14.546875 25.640625 
z
" id="ArialMT-112"/>
     <path d="M 6.390625 0 
L 6.390625 71.578125 
L 15.1875 71.578125 
L 15.1875 0 
z
" id="ArialMT-108"/>
    </defs>
    <g style="fill:#262626;" transform="translate(99.733583 285.885514)scale(0.22 -0.22)">
     <use xlink:href="#ArialMT-114"/>
     <use x="33.300781" xlink:href="#ArialMT-101"/>
     <use x="88.916016" xlink:href="#ArialMT-112"/>
     <use x="144.53125" xlink:href="#ArialMT-117"/>
     <use x="200.146484" xlink:href="#ArialMT-108"/>
     <use x="222.363281" xlink:href="#ArialMT-115"/>
     <use x="272.363281" xlink:href="#ArialMT-105"/>
     <use x="294.580078" xlink:href="#ArialMT-111"/>
     <use x="350.195312" xlink:href="#ArialMT-110"/>
    </g>
   </g>
   <g id="patch_54">
    <path d="M 188.246148 306.013292 
Q 152.319195 306.013292 116.392243 306.013292 
L 116.392243 310.013292 
Q 110.392689 307.013292 104.393135 304.013292 
Q 110.392689 301.013292 116.392243 298.013292 
L 116.392243 302.013292 
Q 152.319195 302.013292 188.246148 302.013292 
L 188.246148 306.013292 
z
" style="stroke:#ffffff;stroke-linecap:round;stroke-width:2;"/>
   </g>
   <g id="patch_55">
    <path d="M 383.912685 302.013292 
Q 419.839638 302.013292 455.76659 302.013292 
L 455.76659 298.013292 
Q 461.766145 301.013292 467.765699 304.013292 
Q 461.766145 307.013292 455.76659 310.013292 
L 455.76659 306.013292 
Q 419.839638 306.013292 383.912685 306.013292 
L 383.912685 302.013292 
z
" style="stroke:#ffffff;stroke-linecap:round;stroke-width:2;"/>
   </g>
   <g id="text_10">
    <!-- perceptual bias -->
    <defs>
     <path d="M 14.703125 0 
L 6.546875 0 
L 6.546875 71.578125 
L 15.328125 71.578125 
L 15.328125 46.046875 
Q 20.90625 53.03125 29.546875 53.03125 
Q 34.328125 53.03125 38.59375 51.09375 
Q 42.875 49.171875 45.625 45.671875 
Q 48.390625 42.1875 49.953125 37.25 
Q 51.515625 32.328125 51.515625 26.703125 
Q 51.515625 13.375 44.921875 6.09375 
Q 38.328125 -1.171875 29.109375 -1.171875 
Q 19.921875 -1.171875 14.703125 6.5 
z
M 14.59375 26.3125 
Q 14.59375 17 17.140625 12.84375 
Q 21.296875 6.0625 28.375 6.0625 
Q 34.125 6.0625 38.328125 11.0625 
Q 42.53125 16.0625 42.53125 25.984375 
Q 42.53125 36.140625 38.5 40.96875 
Q 34.46875 45.796875 28.765625 45.796875 
Q 23 45.796875 18.796875 40.796875 
Q 14.59375 35.796875 14.59375 26.3125 
z
" id="ArialMT-98"/>
    </defs>
    <g style="fill:#262626;" transform="translate(223.181563 26.096625)scale(0.264 -0.264)">
     <use xlink:href="#ArialMT-112"/>
     <use x="55.615234" xlink:href="#ArialMT-101"/>
     <use x="111.230469" xlink:href="#ArialMT-114"/>
     <use x="144.53125" xlink:href="#ArialMT-99"/>
     <use x="194.53125" xlink:href="#ArialMT-101"/>
     <use x="250.146484" xlink:href="#ArialMT-112"/>
     <use x="305.761719" xlink:href="#ArialMT-116"/>
     <use x="333.544922" xlink:href="#ArialMT-117"/>
     <use x="389.160156" xlink:href="#ArialMT-97"/>
     <use x="444.775391" xlink:href="#ArialMT-108"/>
     <use x="466.992188" xlink:href="#ArialMT-32"/>
     <use x="494.775391" xlink:href="#ArialMT-98"/>
     <use x="550.390625" xlink:href="#ArialMT-105"/>
     <use x="572.607422" xlink:href="#ArialMT-97"/>
     <use x="628.222656" xlink:href="#ArialMT-115"/>
    </g>
   </g>
  </g>
  <g id="axes_2">
   <g id="patch_56">
    <path d="M 579.08775 358.396625 
L 1058.26275 358.396625 
L 1058.26275 32.096625 
L 579.08775 32.096625 
z
" style="fill:#ffffff;"/>
   </g>
   <g id="matplotlib.axis_3">
    <g id="xtick_4">
     <g id="line2d_10">
      <g>
       <use style="fill:#262626;stroke:#262626;stroke-width:2.5;" x="685.571083" xlink:href="#mf917b74d37" y="358.396625"/>
      </g>
     </g>
     <g id="text_11">
      <!-- −10 -->
      <g style="fill:#262626;" transform="translate(665.046458 379.218531)scale(0.242 -0.242)">
       <use xlink:href="#ArialMT-8722"/>
       <use x="58.398438" xlink:href="#ArialMT-49"/>
       <use x="114.013672" xlink:href="#ArialMT-48"/>
      </g>
     </g>
    </g>
    <g id="xtick_5">
     <g id="line2d_11">
      <g>
       <use style="fill:#262626;stroke:#262626;stroke-width:2.5;" x="818.67525" xlink:href="#mf917b74d37" y="358.396625"/>
      </g>
     </g>
     <g id="text_12">
      <!-- 0 -->
      <g style="fill:#262626;" transform="translate(811.946516 379.218531)scale(0.242 -0.242)">
       <use xlink:href="#ArialMT-48"/>
      </g>
     </g>
    </g>
    <g id="xtick_6">
     <g id="line2d_12">
      <g>
       <use style="fill:#262626;stroke:#262626;stroke-width:2.5;" x="951.779417" xlink:href="#mf917b74d37" y="358.396625"/>
      </g>
     </g>
     <g id="text_13">
      <!-- 10 -->
      <g style="fill:#262626;" transform="translate(938.321948 379.218531)scale(0.242 -0.242)">
       <use xlink:href="#ArialMT-49"/>
       <use x="55.615234" xlink:href="#ArialMT-48"/>
      </g>
     </g>
    </g>
    <g id="text_14">
     <!-- distance to target ($^\circ$) -->
     <g style="fill:#262626;" transform="translate(694.99125 407.300281)scale(0.264 -0.264)">
      <use transform="translate(0 0.203125)" xlink:href="#ArialMT-100"/>
      <use transform="translate(55.615234 0.203125)" xlink:href="#ArialMT-105"/>
      <use transform="translate(77.832031 0.203125)" xlink:href="#ArialMT-115"/>
      <use transform="translate(127.832031 0.203125)" xlink:href="#ArialMT-116"/>
      <use transform="translate(155.615234 0.203125)" xlink:href="#ArialMT-97"/>
      <use transform="translate(211.230469 0.203125)" xlink:href="#ArialMT-110"/>
      <use transform="translate(266.845703 0.203125)" xlink:href="#ArialMT-99"/>
      <use transform="translate(316.845703 0.203125)" xlink:href="#ArialMT-101"/>
      <use transform="translate(372.460938 0.203125)" xlink:href="#ArialMT-32"/>
      <use transform="translate(400.244141 0.203125)" xlink:href="#ArialMT-116"/>
      <use transform="translate(428.027344 0.203125)" xlink:href="#ArialMT-111"/>
      <use transform="translate(483.642578 0.203125)" xlink:href="#ArialMT-32"/>
      <use transform="translate(511.425781 0.203125)" xlink:href="#ArialMT-116"/>
      <use transform="translate(539.208984 0.203125)" xlink:href="#ArialMT-97"/>
      <use transform="translate(594.824219 0.203125)" xlink:href="#ArialMT-114"/>
      <use transform="translate(628.125 0.203125)" xlink:href="#ArialMT-103"/>
      <use transform="translate(683.740234 0.203125)" xlink:href="#ArialMT-101"/>
      <use transform="translate(739.355469 0.203125)" xlink:href="#ArialMT-116"/>
      <use transform="translate(767.138672 0.203125)" xlink:href="#ArialMT-32"/>
      <use transform="translate(794.921875 0.203125)" xlink:href="#ArialMT-40"/>
      <use transform="translate(842.817383 38.484375)scale(0.7)" xlink:href="#DejaVuSans-8728"/>
      <use transform="translate(903.007812 0.203125)" xlink:href="#ArialMT-41"/>
     </g>
    </g>
   </g>
   <g id="matplotlib.axis_4">
    <g id="ytick_3">
     <g id="line2d_13">
      <g>
       <use style="fill:#262626;stroke:#262626;stroke-width:2.5;" x="579.08775" xlink:href="#m898f0d321e" y="213.374403"/>
      </g>
     </g>
    </g>
    <g id="ytick_4">
     <g id="line2d_14">
      <g>
       <use style="fill:#262626;stroke:#262626;stroke-width:2.5;" x="579.08775" xlink:href="#m898f0d321e" y="32.096625"/>
      </g>
     </g>
    </g>
   </g>
   <g id="patch_57">
    <path clip-path="url(#p0088bf3ba8)" d="M 685.571083 394.652181 
L 696.663097 394.652181 
L 696.663097 383.553541 
L 685.571083 383.553541 
z
" style="fill:#e66101;opacity:0.4;stroke:#ffffff;stroke-linejoin:miter;stroke-width:2;"/>
   </g>
   <g id="patch_58">
    <path clip-path="url(#p0088bf3ba8)" d="M 696.663097 394.652181 
L 707.755111 394.652181 
L 707.755111 372.454902 
L 696.663097 372.454902 
z
" style="fill:#e66101;opacity:0.4;stroke:#ffffff;stroke-linejoin:miter;stroke-width:2;"/>
   </g>
   <g id="patch_59">
    <path clip-path="url(#p0088bf3ba8)" d="M 707.755111 394.652181 
L 718.847125 394.652181 
L 718.847125 361.356262 
L 707.755111 361.356262 
z
" style="fill:#e66101;opacity:0.4;stroke:#ffffff;stroke-linejoin:miter;stroke-width:2;"/>
   </g>
   <g id="patch_60">
    <path clip-path="url(#p0088bf3ba8)" d="M 718.847125 394.652181 
L 729.939139 394.652181 
L 729.939139 350.257623 
L 718.847125 350.257623 
z
" style="fill:#e66101;opacity:0.4;stroke:#ffffff;stroke-linejoin:miter;stroke-width:2;"/>
   </g>
   <g id="patch_61">
    <path clip-path="url(#p0088bf3ba8)" d="M 729.939139 394.652181 
L 741.031153 394.652181 
L 741.031153 272.567147 
L 729.939139 272.567147 
z
" style="fill:#e66101;opacity:0.4;stroke:#ffffff;stroke-linejoin:miter;stroke-width:2;"/>
   </g>
   <g id="patch_62">
    <path clip-path="url(#p0088bf3ba8)" d="M 741.031153 394.652181 
L 752.123167 394.652181 
L 752.123167 350.257623 
L 741.031153 350.257623 
z
" style="fill:#e66101;opacity:0.4;stroke:#ffffff;stroke-linejoin:miter;stroke-width:2;"/>
   </g>
   <g id="patch_63">
    <path clip-path="url(#p0088bf3ba8)" d="M 752.123167 394.652181 
L 763.215181 394.652181 
L 763.215181 239.271228 
L 752.123167 239.271228 
z
" style="fill:#e66101;opacity:0.4;stroke:#ffffff;stroke-linejoin:miter;stroke-width:2;"/>
   </g>
   <g id="patch_64">
    <path clip-path="url(#p0088bf3ba8)" d="M 763.215181 394.652181 
L 774.307194 394.652181 
L 774.307194 272.567147 
L 763.215181 272.567147 
z
" style="fill:#e66101;opacity:0.4;stroke:#ffffff;stroke-linejoin:miter;stroke-width:2;"/>
   </g>
   <g id="patch_65">
    <path clip-path="url(#p0088bf3ba8)" d="M 774.307194 394.652181 
L 785.399208 394.652181 
L 785.399208 217.073949 
L 774.307194 217.073949 
z
" style="fill:#e66101;opacity:0.4;stroke:#ffffff;stroke-linejoin:miter;stroke-width:2;"/>
   </g>
   <g id="patch_66">
    <path clip-path="url(#p0088bf3ba8)" d="M 785.399208 394.652181 
L 796.491222 394.652181 
L 796.491222 261.468507 
L 785.399208 261.468507 
z
" style="fill:#e66101;opacity:0.4;stroke:#ffffff;stroke-linejoin:miter;stroke-width:2;"/>
   </g>
   <g id="patch_67">
    <path clip-path="url(#p0088bf3ba8)" d="M 796.491222 394.652181 
L 807.583236 394.652181 
L 807.583236 183.778031 
L 796.491222 183.778031 
z
" style="fill:#e66101;opacity:0.4;stroke:#ffffff;stroke-linejoin:miter;stroke-width:2;"/>
   </g>
   <g id="patch_68">
    <path clip-path="url(#p0088bf3ba8)" d="M 807.583236 394.652181 
L 818.67525 394.652181 
L 818.67525 183.778031 
L 807.583236 183.778031 
z
" style="fill:#e66101;opacity:0.4;stroke:#ffffff;stroke-linejoin:miter;stroke-width:2;"/>
   </g>
   <g id="patch_69">
    <path clip-path="url(#p0088bf3ba8)" d="M 818.67525 394.652181 
L 829.767264 394.652181 
L 829.767264 194.87667 
L 818.67525 194.87667 
z
" style="fill:#e66101;opacity:0.4;stroke:#ffffff;stroke-linejoin:miter;stroke-width:2;"/>
   </g>
   <g id="patch_70">
    <path clip-path="url(#p0088bf3ba8)" d="M 829.767264 394.652181 
L 840.859278 394.652181 
L 840.859278 261.468507 
L 829.767264 261.468507 
z
" style="fill:#e66101;opacity:0.4;stroke:#ffffff;stroke-linejoin:miter;stroke-width:2;"/>
   </g>
   <g id="patch_71">
    <path clip-path="url(#p0088bf3ba8)" d="M 840.859278 394.652181 
L 851.951292 394.652181 
L 851.951292 172.679391 
L 840.859278 172.679391 
z
" style="fill:#e66101;opacity:0.4;stroke:#ffffff;stroke-linejoin:miter;stroke-width:2;"/>
   </g>
   <g id="patch_72">
    <path clip-path="url(#p0088bf3ba8)" d="M 851.951292 394.652181 
L 863.043306 394.652181 
L 863.043306 316.961704 
L 851.951292 316.961704 
z
" style="fill:#e66101;opacity:0.4;stroke:#ffffff;stroke-linejoin:miter;stroke-width:2;"/>
   </g>
   <g id="patch_73">
    <path clip-path="url(#p0088bf3ba8)" d="M 863.043306 394.652181 
L 874.135319 394.652181 
L 874.135319 328.060344 
L 863.043306 328.060344 
z
" style="fill:#e66101;opacity:0.4;stroke:#ffffff;stroke-linejoin:miter;stroke-width:2;"/>
   </g>
   <g id="patch_74">
    <path clip-path="url(#p0088bf3ba8)" d="M 874.135319 394.652181 
L 885.227333 394.652181 
L 885.227333 350.257623 
L 874.135319 350.257623 
z
" style="fill:#e66101;opacity:0.4;stroke:#ffffff;stroke-linejoin:miter;stroke-width:2;"/>
   </g>
   <g id="patch_75">
    <path clip-path="url(#p0088bf3ba8)" d="M 885.227333 394.652181 
L 896.319347 394.652181 
L 896.319347 316.961704 
L 885.227333 316.961704 
z
" style="fill:#e66101;opacity:0.4;stroke:#ffffff;stroke-linejoin:miter;stroke-width:2;"/>
   </g>
   <g id="patch_76">
    <path clip-path="url(#p0088bf3ba8)" d="M 896.319347 394.652181 
L 907.411361 394.652181 
L 907.411361 394.652181 
L 896.319347 394.652181 
z
" style="fill:#e66101;opacity:0.4;stroke:#ffffff;stroke-linejoin:miter;stroke-width:2;"/>
   </g>
   <g id="patch_77">
    <path clip-path="url(#p0088bf3ba8)" d="M 907.411361 394.652181 
L 918.503375 394.652181 
L 918.503375 372.454902 
L 907.411361 372.454902 
z
" style="fill:#e66101;opacity:0.4;stroke:#ffffff;stroke-linejoin:miter;stroke-width:2;"/>
   </g>
   <g id="patch_78">
    <path clip-path="url(#p0088bf3ba8)" d="M 918.503375 394.652181 
L 929.595389 394.652181 
L 929.595389 383.553541 
L 918.503375 383.553541 
z
" style="fill:#e66101;opacity:0.4;stroke:#ffffff;stroke-linejoin:miter;stroke-width:2;"/>
   </g>
   <g id="patch_79">
    <path clip-path="url(#p0088bf3ba8)" d="M 929.595389 394.652181 
L 940.687403 394.652181 
L 940.687403 383.553541 
L 929.595389 383.553541 
z
" style="fill:#e66101;opacity:0.4;stroke:#ffffff;stroke-linejoin:miter;stroke-width:2;"/>
   </g>
   <g id="patch_80">
    <path clip-path="url(#p0088bf3ba8)" d="M 940.687403 394.652181 
L 951.779417 394.652181 
L 951.779417 372.454902 
L 940.687403 372.454902 
z
" style="fill:#e66101;opacity:0.4;stroke:#ffffff;stroke-linejoin:miter;stroke-width:2;"/>
   </g>
   <g id="patch_81">
    <path clip-path="url(#p0088bf3ba8)" d="M 685.571083 394.652181 
L 696.663097 394.652181 
L 696.663097 394.652181 
L 685.571083 394.652181 
z
" style="fill:#5e3c99;opacity:0.4;stroke:#ffffff;stroke-linejoin:miter;stroke-width:2;"/>
   </g>
   <g id="patch_82">
    <path clip-path="url(#p0088bf3ba8)" d="M 696.663097 394.652181 
L 707.755111 394.652181 
L 707.755111 394.652181 
L 696.663097 394.652181 
z
" style="fill:#5e3c99;opacity:0.4;stroke:#ffffff;stroke-linejoin:miter;stroke-width:2;"/>
   </g>
   <g id="patch_83">
    <path clip-path="url(#p0088bf3ba8)" d="M 707.755111 394.652181 
L 718.847125 394.652181 
L 718.847125 394.652181 
L 707.755111 394.652181 
z
" style="fill:#5e3c99;opacity:0.4;stroke:#ffffff;stroke-linejoin:miter;stroke-width:2;"/>
   </g>
   <g id="patch_84">
    <path clip-path="url(#p0088bf3ba8)" d="M 718.847125 394.652181 
L 729.939139 394.652181 
L 729.939139 394.652181 
L 718.847125 394.652181 
z
" style="fill:#5e3c99;opacity:0.4;stroke:#ffffff;stroke-linejoin:miter;stroke-width:2;"/>
   </g>
   <g id="patch_85">
    <path clip-path="url(#p0088bf3ba8)" d="M 729.939139 394.652181 
L 741.031153 394.652181 
L 741.031153 394.652181 
L 729.939139 394.652181 
z
" style="fill:#5e3c99;opacity:0.4;stroke:#ffffff;stroke-linejoin:miter;stroke-width:2;"/>
   </g>
   <g id="patch_86">
    <path clip-path="url(#p0088bf3ba8)" d="M 741.031153 394.652181 
L 752.123167 394.652181 
L 752.123167 394.652181 
L 741.031153 394.652181 
z
" style="fill:#5e3c99;opacity:0.4;stroke:#ffffff;stroke-linejoin:miter;stroke-width:2;"/>
   </g>
   <g id="patch_87">
    <path clip-path="url(#p0088bf3ba8)" d="M 752.123167 394.652181 
L 763.215181 394.652181 
L 763.215181 370.48181 
L 752.123167 370.48181 
z
" style="fill:#5e3c99;opacity:0.4;stroke:#ffffff;stroke-linejoin:miter;stroke-width:2;"/>
   </g>
   <g id="patch_88">
    <path clip-path="url(#p0088bf3ba8)" d="M 763.215181 394.652181 
L 774.307194 394.652181 
L 774.307194 297.970699 
L 763.215181 297.970699 
z
" style="fill:#5e3c99;opacity:0.4;stroke:#ffffff;stroke-linejoin:miter;stroke-width:2;"/>
   </g>
   <g id="patch_89">
    <path clip-path="url(#p0088bf3ba8)" d="M 774.307194 394.652181 
L 785.399208 394.652181 
L 785.399208 273.800329 
L 774.307194 273.800329 
z
" style="fill:#5e3c99;opacity:0.4;stroke:#ffffff;stroke-linejoin:miter;stroke-width:2;"/>
   </g>
   <g id="patch_90">
    <path clip-path="url(#p0088bf3ba8)" d="M 785.399208 394.652181 
L 796.491222 394.652181 
L 796.491222 225.459588 
L 785.399208 225.459588 
z
" style="fill:#5e3c99;opacity:0.4;stroke:#ffffff;stroke-linejoin:miter;stroke-width:2;"/>
   </g>
   <g id="patch_91">
    <path clip-path="url(#p0088bf3ba8)" d="M 796.491222 394.652181 
L 807.583236 394.652181 
L 807.583236 165.033662 
L 796.491222 165.033662 
z
" style="fill:#5e3c99;opacity:0.4;stroke:#ffffff;stroke-linejoin:miter;stroke-width:2;"/>
   </g>
   <g id="patch_92">
    <path clip-path="url(#p0088bf3ba8)" d="M 807.583236 394.652181 
L 818.67525 394.652181 
L 818.67525 177.118847 
L 807.583236 177.118847 
z
" style="fill:#5e3c99;opacity:0.4;stroke:#ffffff;stroke-linejoin:miter;stroke-width:2;"/>
   </g>
   <g id="patch_93">
    <path clip-path="url(#p0088bf3ba8)" d="M 818.67525 394.652181 
L 829.767264 394.652181 
L 829.767264 165.033662 
L 818.67525 165.033662 
z
" style="fill:#5e3c99;opacity:0.4;stroke:#ffffff;stroke-linejoin:miter;stroke-width:2;"/>
   </g>
   <g id="patch_94">
    <path clip-path="url(#p0088bf3ba8)" d="M 829.767264 394.652181 
L 840.859278 394.652181 
L 840.859278 189.204032 
L 829.767264 189.204032 
z
" style="fill:#5e3c99;opacity:0.4;stroke:#ffffff;stroke-linejoin:miter;stroke-width:2;"/>
   </g>
   <g id="patch_95">
    <path clip-path="url(#p0088bf3ba8)" d="M 840.859278 394.652181 
L 851.951292 394.652181 
L 851.951292 140.863292 
L 840.859278 140.863292 
z
" style="fill:#5e3c99;opacity:0.4;stroke:#ffffff;stroke-linejoin:miter;stroke-width:2;"/>
   </g>
   <g id="patch_96">
    <path clip-path="url(#p0088bf3ba8)" d="M 851.951292 394.652181 
L 863.043306 394.652181 
L 863.043306 189.204032 
L 851.951292 189.204032 
z
" style="fill:#5e3c99;opacity:0.4;stroke:#ffffff;stroke-linejoin:miter;stroke-width:2;"/>
   </g>
   <g id="patch_97">
    <path clip-path="url(#p0088bf3ba8)" d="M 863.043306 394.652181 
L 874.135319 394.652181 
L 874.135319 297.970699 
L 863.043306 297.970699 
z
" style="fill:#5e3c99;opacity:0.4;stroke:#ffffff;stroke-linejoin:miter;stroke-width:2;"/>
   </g>
   <g id="patch_98">
    <path clip-path="url(#p0088bf3ba8)" d="M 874.135319 394.652181 
L 885.227333 394.652181 
L 885.227333 322.141069 
L 874.135319 322.141069 
z
" style="fill:#5e3c99;opacity:0.4;stroke:#ffffff;stroke-linejoin:miter;stroke-width:2;"/>
   </g>
   <g id="patch_99">
    <path clip-path="url(#p0088bf3ba8)" d="M 885.227333 394.652181 
L 896.319347 394.652181 
L 896.319347 310.055884 
L 885.227333 310.055884 
z
" style="fill:#5e3c99;opacity:0.4;stroke:#ffffff;stroke-linejoin:miter;stroke-width:2;"/>
   </g>
   <g id="patch_100">
    <path clip-path="url(#p0088bf3ba8)" d="M 896.319347 394.652181 
L 907.411361 394.652181 
L 907.411361 297.970699 
L 896.319347 297.970699 
z
" style="fill:#5e3c99;opacity:0.4;stroke:#ffffff;stroke-linejoin:miter;stroke-width:2;"/>
   </g>
   <g id="patch_101">
    <path clip-path="url(#p0088bf3ba8)" d="M 907.411361 394.652181 
L 918.503375 394.652181 
L 918.503375 346.31144 
L 907.411361 346.31144 
z
" style="fill:#5e3c99;opacity:0.4;stroke:#ffffff;stroke-linejoin:miter;stroke-width:2;"/>
   </g>
   <g id="patch_102">
    <path clip-path="url(#p0088bf3ba8)" d="M 918.503375 394.652181 
L 929.595389 394.652181 
L 929.595389 370.48181 
L 918.503375 370.48181 
z
" style="fill:#5e3c99;opacity:0.4;stroke:#ffffff;stroke-linejoin:miter;stroke-width:2;"/>
   </g>
   <g id="patch_103">
    <path clip-path="url(#p0088bf3ba8)" d="M 929.595389 394.652181 
L 940.687403 394.652181 
L 940.687403 394.652181 
L 929.595389 394.652181 
z
" style="fill:#5e3c99;opacity:0.4;stroke:#ffffff;stroke-linejoin:miter;stroke-width:2;"/>
   </g>
   <g id="patch_104">
    <path clip-path="url(#p0088bf3ba8)" d="M 940.687403 394.652181 
L 951.779417 394.652181 
L 951.779417 394.652181 
L 940.687403 394.652181 
z
" style="fill:#5e3c99;opacity:0.4;stroke:#ffffff;stroke-linejoin:miter;stroke-width:2;"/>
   </g>
   <g id="patch_105">
    <path clip-path="url(#p0088bf3ba8)" d="M 965.089833 394.652181 
L 978.40025 322.141069 
L 991.710667 394.652181 
z
" style="fill:#808080;stroke:#808080;stroke-linejoin:miter;stroke-width:2;"/>
   </g>
   <g id="line2d_15">
    <path clip-path="url(#p0088bf3ba8)" d="M 593.896105 394.599711 
L 613.690922 394.428269 
L 626.887467 394.107758 
L 635.685163 393.701682 
L 642.283436 393.234853 
L 648.881708 392.571821 
L 655.47998 391.646413 
L 659.878829 390.844205 
L 664.277677 389.861602 
L 668.676525 388.667556 
L 673.075373 387.228128 
L 677.474221 385.506831 
L 681.87307 383.465152 
L 686.271918 381.06328 
L 690.670766 378.261045 
L 695.069614 375.019079 
L 699.468463 371.300188 
L 703.867311 367.07092 
L 708.266159 362.303287 
L 712.665007 356.976605 
L 717.063855 351.079377 
L 721.462704 344.611147 
L 725.861552 337.584242 
L 730.2604 330.025291 
L 734.659248 321.97644 
L 739.058097 313.496144 
L 745.656369 300.135431 
L 756.653489 277.000599 
L 763.251762 263.276006 
L 767.65061 254.481738 
L 772.049458 246.143641 
L 776.448306 238.408825 
L 780.847155 231.419604 
L 783.046579 228.246688 
L 785.246003 225.309174 
L 787.445427 222.621598 
L 789.644851 220.197413 
L 791.844275 218.048881 
L 794.043699 216.186969 
L 796.243123 214.621255 
L 798.442547 213.359844 
L 800.641972 212.409302 
L 802.841396 211.774598 
L 805.04082 211.459058 
L 807.240244 211.464338 
L 809.439668 211.790412 
L 811.639092 212.435567 
L 813.838516 213.396421 
L 816.03794 214.667955 
L 818.237364 216.243549 
L 820.436789 218.115048 
L 822.636213 220.272829 
L 824.835637 222.705879 
L 827.035061 225.401897 
L 829.234485 228.34739 
L 831.433909 231.52779 
L 835.832757 238.530382 
L 840.231606 246.27629 
L 844.630454 254.623085 
L 849.029302 263.423617 
L 855.627574 277.153114 
L 868.824119 304.807212 
L 875.422391 317.925385 
L 879.821239 326.191187 
L 884.220088 333.993287 
L 888.618936 341.281724 
L 893.017784 348.022493 
L 897.416632 354.196526 
L 901.815481 359.798302 
L 906.214329 364.834205 
L 910.613177 369.320714 
L 915.012025 373.282518 
L 919.410873 376.750651 
L 923.809722 379.760704 
L 928.20857 382.351177 
L 932.607418 384.562011 
L 937.006266 386.433321 
L 941.405115 388.004353 
L 945.803963 389.312649 
L 950.202811 390.393435 
L 954.601659 391.279188 
L 961.199931 392.305755 
L 967.798204 393.045434 
L 974.396476 393.56916 
L 983.194173 394.027632 
L 994.191293 394.350463 
L 1009.587262 394.550958 
L 1031.581503 394.633859 
L 1031.581503 394.633859 
" style="fill:none;stroke:#e66101;stroke-linecap:round;stroke-width:2;"/>
   </g>
   <g id="line2d_16">
    <path clip-path="url(#p0088bf3ba8)" d="M 712.538921 392.759898 
L 716.374601 392.073566 
L 720.21028 391.173645 
L 724.04596 390.006854 
L 726.603079 389.05043 
L 729.160199 387.927371 
L 731.717319 386.615345 
L 734.274438 385.090397 
L 736.831558 383.327094 
L 739.388677 381.298747 
L 741.945797 378.977702 
L 744.502917 376.335699 
L 747.060036 373.344323 
L 749.617156 369.975526 
L 752.174275 366.202227 
L 754.731395 361.99899 
L 757.288515 357.342765 
L 759.845634 352.213678 
L 762.402754 346.595868 
L 764.959874 340.478343 
L 767.516993 333.855826 
L 770.074113 326.729588 
L 772.631232 319.108221 
L 776.466912 306.786468 
L 780.302591 293.48285 
L 784.138271 279.336581 
L 789.25251 259.49337 
L 803.316668 204.005078 
L 807.152347 190.135903 
L 809.709467 181.533935 
L 812.266587 173.565713 
L 814.823706 166.327707 
L 817.380826 159.909777 
L 819.937945 154.393324 
L 821.216505 151.99585 
L 822.495065 149.849572 
L 823.773625 147.961553 
L 825.052185 146.33804 
L 826.330744 144.984429 
L 827.609304 143.905241 
L 828.887864 143.104089 
L 830.166424 142.583664 
L 831.444984 142.345715 
L 832.723543 142.391045 
L 834.002103 142.719499 
L 835.280663 143.329973 
L 836.559223 144.220415 
L 837.837783 145.387836 
L 839.116342 146.828331 
L 840.394902 148.537097 
L 841.673462 150.50846 
L 842.952022 152.73591 
L 845.509142 157.929045 
L 848.066261 164.0491 
L 850.623381 171.017948 
L 853.1805 178.748405 
L 855.73762 187.146032 
L 859.573299 200.774185 
L 863.408979 215.329252 
L 869.801778 240.697863 
L 877.473137 271.113903 
L 882.587376 290.34396 
L 886.423055 303.8525 
L 890.258735 316.406594 
L 892.815854 324.192958 
L 895.372974 331.488909 
L 897.930094 338.283203 
L 900.487213 344.572162 
L 903.044333 350.358927 
L 905.601453 355.652643 
L 908.158572 360.467612 
L 910.715692 364.822436 
L 913.272811 368.739178 
L 915.829931 372.242549 
L 918.387051 375.359149 
L 920.94417 378.116769 
L 923.50129 380.543762 
L 926.05841 382.668495 
L 928.615529 384.518872 
L 931.172649 386.121947 
L 933.729768 387.503608 
L 936.286888 388.688333 
L 940.122567 390.14579 
L 943.958247 391.28132 
L 947.793926 392.156077 
L 951.629606 392.822421 
L 956.743845 393.461651 
L 963.136644 393.973841 
L 966.972323 394.174632 
L 966.972323 394.174632 
" style="fill:none;stroke:#5e3c99;stroke-linecap:round;stroke-width:2;"/>
   </g>
   <g id="line2d_17">
    <path clip-path="url(#p0088bf3ba8)" d="M 818.67525 394.652181 
L 818.67525 86.479958 
" style="fill:none;stroke:#000000;stroke-dasharray:9.25,4;stroke-dashoffset:0;stroke-width:2.5;"/>
   </g>
   <g id="line2d_18">
    <g clip-path="url(#p0088bf3ba8)"/>
   </g>
   <g id="patch_106">
    <path d="M 579.08775 358.396625 
L 579.08775 32.096625 
" style="fill:none;stroke:#262626;stroke-linecap:square;stroke-linejoin:miter;stroke-width:2.5;"/>
   </g>
   <g id="patch_107">
    <path d="M 579.08775 358.396625 
L 1058.26275 358.396625 
" style="fill:none;stroke:#262626;stroke-linecap:square;stroke-linejoin:miter;stroke-width:2.5;"/>
   </g>
   <g id="text_15">
    <!-- memory bias -->
    <defs>
     <path d="M 6.59375 0 
L 6.59375 51.859375 
L 14.453125 51.859375 
L 14.453125 44.578125 
Q 16.890625 48.390625 20.9375 50.703125 
Q 25 53.03125 30.171875 53.03125 
Q 35.9375 53.03125 39.625 50.640625 
Q 43.3125 48.25 44.828125 43.953125 
Q 50.984375 53.03125 60.84375 53.03125 
Q 68.5625 53.03125 72.703125 48.75 
Q 76.859375 44.484375 76.859375 35.59375 
L 76.859375 0 
L 68.109375 0 
L 68.109375 32.671875 
Q 68.109375 37.9375 67.25 40.25 
Q 66.40625 42.578125 64.15625 43.984375 
Q 61.921875 45.40625 58.890625 45.40625 
Q 53.421875 45.40625 49.796875 41.765625 
Q 46.1875 38.140625 46.1875 30.125 
L 46.1875 0 
L 37.40625 0 
L 37.40625 33.6875 
Q 37.40625 39.546875 35.25 42.46875 
Q 33.109375 45.40625 28.21875 45.40625 
Q 24.515625 45.40625 21.359375 43.453125 
Q 18.21875 41.5 16.796875 37.734375 
Q 15.375 33.984375 15.375 26.90625 
L 15.375 0 
z
" id="ArialMT-109"/>
    </defs>
    <g style="fill:#262626;" transform="translate(743.127938 26.096625)scale(0.264 -0.264)">
     <use xlink:href="#ArialMT-109"/>
     <use x="83.300781" xlink:href="#ArialMT-101"/>
     <use x="138.916016" xlink:href="#ArialMT-109"/>
     <use x="222.216797" xlink:href="#ArialMT-111"/>
     <use x="277.832031" xlink:href="#ArialMT-114"/>
     <use x="311.132812" xlink:href="#ArialMT-121"/>
     <use x="361.132812" xlink:href="#ArialMT-32"/>
     <use x="388.916016" xlink:href="#ArialMT-98"/>
     <use x="444.53125" xlink:href="#ArialMT-105"/>
     <use x="466.748047" xlink:href="#ArialMT-97"/>
     <use x="522.363281" xlink:href="#ArialMT-115"/>
    </g>
   </g>
   <g id="legend_1">
    <g id="line2d_19">
     <path d="M 942.14525 52.349125 
L 974.14525 52.349125 
" style="fill:none;stroke:#000000;stroke-dasharray:9.25,4;stroke-dashoffset:0;stroke-width:2.5;"/>
    </g>
    <g id="line2d_20"/>
    <g id="text_16">
     <!-- target -->
     <g style="fill:#262626;" transform="translate(986.94525 57.949125)scale(0.16 -0.16)">
      <use xlink:href="#ArialMT-116"/>
      <use x="27.783203" xlink:href="#ArialMT-97"/>
      <use x="83.398438" xlink:href="#ArialMT-114"/>
      <use x="116.699219" xlink:href="#ArialMT-103"/>
      <use x="172.314453" xlink:href="#ArialMT-101"/>
      <use x="227.929688" xlink:href="#ArialMT-116"/>
     </g>
    </g>
    <g id="line2d_21"/>
    <g id="line2d_22">
     <g>
      <use style="fill:#808080;stroke:#808080;stroke-linejoin:miter;" x="958.14525" xlink:href="#mae609fccb8" y="75.169125"/>
     </g>
    </g>
    <g id="text_17">
     <!-- NT -->
     <defs>
      <path d="M 7.625 0 
L 7.625 71.578125 
L 17.328125 71.578125 
L 54.9375 15.375 
L 54.9375 71.578125 
L 64.015625 71.578125 
L 64.015625 0 
L 54.296875 0 
L 16.703125 56.25 
L 16.703125 0 
z
" id="ArialMT-78"/>
      <path d="M 25.921875 0 
L 25.921875 63.140625 
L 2.34375 63.140625 
L 2.34375 71.578125 
L 59.078125 71.578125 
L 59.078125 63.140625 
L 35.40625 63.140625 
L 35.40625 0 
z
" id="ArialMT-84"/>
     </defs>
     <g style="fill:#262626;" transform="translate(986.94525 80.769125)scale(0.16 -0.16)">
      <use xlink:href="#ArialMT-78"/>
      <use x="72.216797" xlink:href="#ArialMT-84"/>
     </g>
    </g>
    <g id="patch_108">
     <path d="M 942.14525 103.401625 
L 974.14525 103.401625 
L 974.14525 92.201625 
L 942.14525 92.201625 
z
" style="fill:#e66101;opacity:0.4;stroke:#ffffff;stroke-linejoin:miter;stroke-width:2;"/>
    </g>
    <g id="text_18">
     <!-- radius 1 -->
     <g style="fill:#262626;" transform="translate(986.94525 103.401625)scale(0.16 -0.16)">
      <use xlink:href="#ArialMT-114"/>
      <use x="33.300781" xlink:href="#ArialMT-97"/>
      <use x="88.916016" xlink:href="#ArialMT-100"/>
      <use x="144.53125" xlink:href="#ArialMT-105"/>
      <use x="166.748047" xlink:href="#ArialMT-117"/>
      <use x="222.363281" xlink:href="#ArialMT-115"/>
      <use x="272.363281" xlink:href="#ArialMT-32"/>
      <use x="300.146484" xlink:href="#ArialMT-49"/>
     </g>
    </g>
    <g id="patch_109">
     <path d="M 942.14525 126.034125 
L 974.14525 126.034125 
L 974.14525 114.834125 
L 942.14525 114.834125 
z
" style="fill:#5e3c99;opacity:0.4;stroke:#ffffff;stroke-linejoin:miter;stroke-width:2;"/>
    </g>
    <g id="text_19">
     <!-- radius 3 -->
     <defs>
      <path d="M 4.203125 18.890625 
L 12.984375 20.0625 
Q 14.5 12.59375 18.140625 9.296875 
Q 21.78125 6 27 6 
Q 33.203125 6 37.46875 10.296875 
Q 41.75 14.59375 41.75 20.953125 
Q 41.75 27 37.796875 30.921875 
Q 33.84375 34.859375 27.734375 34.859375 
Q 25.25 34.859375 21.53125 33.890625 
L 22.515625 41.609375 
Q 23.390625 41.5 23.921875 41.5 
Q 29.546875 41.5 34.03125 44.421875 
Q 38.53125 47.359375 38.53125 53.46875 
Q 38.53125 58.296875 35.25 61.46875 
Q 31.984375 64.65625 26.8125 64.65625 
Q 21.6875 64.65625 18.265625 61.421875 
Q 14.84375 58.203125 13.875 51.765625 
L 5.078125 53.328125 
Q 6.6875 62.15625 12.390625 67.015625 
Q 18.109375 71.875 26.609375 71.875 
Q 32.46875 71.875 37.390625 69.359375 
Q 42.328125 66.84375 44.9375 62.5 
Q 47.5625 58.15625 47.5625 53.265625 
Q 47.5625 48.640625 45.0625 44.828125 
Q 42.578125 41.015625 37.703125 38.765625 
Q 44.046875 37.3125 47.5625 32.6875 
Q 51.078125 28.078125 51.078125 21.140625 
Q 51.078125 11.765625 44.234375 5.25 
Q 37.40625 -1.265625 26.953125 -1.265625 
Q 17.53125 -1.265625 11.296875 4.34375 
Q 5.078125 9.96875 4.203125 18.890625 
z
" id="ArialMT-51"/>
     </defs>
     <g style="fill:#262626;" transform="translate(986.94525 126.034125)scale(0.16 -0.16)">
      <use xlink:href="#ArialMT-114"/>
      <use x="33.300781" xlink:href="#ArialMT-97"/>
      <use x="88.916016" xlink:href="#ArialMT-100"/>
      <use x="144.53125" xlink:href="#ArialMT-105"/>
      <use x="166.748047" xlink:href="#ArialMT-117"/>
      <use x="222.363281" xlink:href="#ArialMT-115"/>
      <use x="272.363281" xlink:href="#ArialMT-32"/>
      <use x="300.146484" xlink:href="#ArialMT-51"/>
     </g>
    </g>
   </g>
  </g>
 </g>
 <defs>
  <clipPath id="p8399e306f9">
   <rect height="326.3" width="479.175" x="73.11275" y="32.096625"/>
  </clipPath>
  <clipPath id="p0088bf3ba8">
   <rect height="326.3" width="479.175" x="579.08775" y="32.096625"/>
  </clipPath>
 </defs>
</svg>
