<?xml version="1.0" encoding="utf-8" standalone="no"?>
<!DOCTYPE svg PUBLIC "-//W3C//DTD SVG 1.1//EN"
  "http://www.w3.org/Graphics/SVG/1.1/DTD/svg11.dtd">
<!-- Created with matplotlib (https://matplotlib.org/) -->
<svg height="420.168281pt" version="1.1" viewBox="0 0 406.133855 420.168281" width="406.133855pt" xmlns="http://www.w3.org/2000/svg" xmlns:xlink="http://www.w3.org/1999/xlink">
 <defs>
  <style type="text/css">
*{stroke-linecap:butt;stroke-linejoin:round;}
  </style>
 </defs>
 <g id="figure_1">
  <g id="patch_1">
   <path d="M 0 420.168281 
L 406.133855 420.168281 
L 406.133855 0 
L 0 0 
z
" style="fill:none;"/>
  </g>
  <g id="axes_1">
   <g id="patch_2">
    <path d="M 86.570219 358.256625 
L 390.933855 358.256625 
L 390.933855 32.096625 
L 86.570219 32.096625 
z
" style="fill:#ffffff;"/>
   </g>
   <g id="matplotlib.axis_1">
    <g id="xtick_1">
     <g id="line2d_1">
      <defs>
       <path d="M 0 0 
L 0 -12 
" id="m0feef6991f" style="stroke:#262626;stroke-width:2.5;"/>
      </defs>
      <g>
       <use style="fill:#262626;stroke:#262626;stroke-width:2.5;" x="147.442946" xlink:href="#m0feef6991f" y="358.256625"/>
      </g>
     </g>
     <g id="text_1">
      <!-- −15 -->
      <defs>
       <path d="M 52.828125 31.203125 
L 5.5625 31.203125 
L 5.5625 39.40625 
L 52.828125 39.40625 
z
" id="ArialMT-8722"/>
       <path d="M 37.25 0 
L 28.46875 0 
L 28.46875 56 
Q 25.296875 52.984375 20.140625 49.953125 
Q 14.984375 46.921875 10.890625 45.40625 
L 10.890625 53.90625 
Q 18.265625 57.375 23.78125 62.296875 
Q 29.296875 67.234375 31.59375 71.875 
L 37.25 71.875 
z
" id="ArialMT-49"/>
       <path d="M 4.15625 18.75 
L 13.375 19.53125 
Q 14.40625 12.796875 18.140625 9.390625 
Q 21.875 6 27.15625 6 
Q 33.5 6 37.890625 10.78125 
Q 42.28125 15.578125 42.28125 23.484375 
Q 42.28125 31 38.0625 35.34375 
Q 33.84375 39.703125 27 39.703125 
Q 22.75 39.703125 19.328125 37.765625 
Q 15.921875 35.84375 13.96875 32.765625 
L 5.71875 33.84375 
L 12.640625 70.609375 
L 48.25 70.609375 
L 48.25 62.203125 
L 19.671875 62.203125 
L 15.828125 42.96875 
Q 22.265625 47.46875 29.34375 47.46875 
Q 38.71875 47.46875 45.15625 40.96875 
Q 51.609375 34.46875 51.609375 24.265625 
Q 51.609375 14.546875 45.953125 7.46875 
Q 39.0625 -1.21875 27.15625 -1.21875 
Q 17.390625 -1.21875 11.203125 4.25 
Q 5.03125 9.71875 4.15625 18.75 
z
" id="ArialMT-53"/>
      </defs>
      <g style="fill:#262626;" transform="translate(126.918321 379.078531)scale(0.242 -0.242)">
       <use xlink:href="#ArialMT-8722"/>
       <use x="58.398438" xlink:href="#ArialMT-49"/>
       <use x="114.013672" xlink:href="#ArialMT-53"/>
      </g>
     </g>
    </g>
    <g id="xtick_2">
     <g id="line2d_2">
      <g>
       <use style="fill:#262626;stroke:#262626;stroke-width:2.5;" x="238.752037" xlink:href="#m0feef6991f" y="358.256625"/>
      </g>
     </g>
     <g id="text_2">
      <!-- 0 -->
      <defs>
       <path d="M 4.15625 35.296875 
Q 4.15625 48 6.765625 55.734375 
Q 9.375 63.484375 14.515625 67.671875 
Q 19.671875 71.875 27.484375 71.875 
Q 33.25 71.875 37.59375 69.546875 
Q 41.9375 67.234375 44.765625 62.859375 
Q 47.609375 58.5 49.21875 52.21875 
Q 50.828125 45.953125 50.828125 35.296875 
Q 50.828125 22.703125 48.234375 14.96875 
Q 45.65625 7.234375 40.5 3 
Q 35.359375 -1.21875 27.484375 -1.21875 
Q 17.140625 -1.21875 11.234375 6.203125 
Q 4.15625 15.140625 4.15625 35.296875 
z
M 13.1875 35.296875 
Q 13.1875 17.671875 17.3125 11.828125 
Q 21.4375 6 27.484375 6 
Q 33.546875 6 37.671875 11.859375 
Q 41.796875 17.71875 41.796875 35.296875 
Q 41.796875 52.984375 37.671875 58.78125 
Q 33.546875 64.59375 27.390625 64.59375 
Q 21.34375 64.59375 17.71875 59.46875 
Q 13.1875 52.9375 13.1875 35.296875 
z
" id="ArialMT-48"/>
      </defs>
      <g style="fill:#262626;" transform="translate(232.023303 379.078531)scale(0.242 -0.242)">
       <use xlink:href="#ArialMT-48"/>
      </g>
     </g>
    </g>
    <g id="xtick_3">
     <g id="line2d_3">
      <g>
       <use style="fill:#262626;stroke:#262626;stroke-width:2.5;" x="330.061128" xlink:href="#m0feef6991f" y="358.256625"/>
      </g>
     </g>
     <g id="text_3">
      <!-- 15 -->
      <g style="fill:#262626;" transform="translate(316.603659 379.078531)scale(0.242 -0.242)">
       <use xlink:href="#ArialMT-49"/>
       <use x="55.615234" xlink:href="#ArialMT-53"/>
      </g>
     </g>
    </g>
    <g id="text_4">
     <!-- angle error ($^\circ$) -->
     <defs>
      <path d="M 40.4375 6.390625 
Q 35.546875 2.25 31.03125 0.53125 
Q 26.515625 -1.171875 21.34375 -1.171875 
Q 12.796875 -1.171875 8.203125 3 
Q 3.609375 7.171875 3.609375 13.671875 
Q 3.609375 17.484375 5.34375 20.625 
Q 7.078125 23.78125 9.890625 25.6875 
Q 12.703125 27.59375 16.21875 28.5625 
Q 18.796875 29.25 24.03125 29.890625 
Q 34.671875 31.15625 39.703125 32.90625 
Q 39.75 34.71875 39.75 35.203125 
Q 39.75 40.578125 37.25 42.78125 
Q 33.890625 45.75 27.25 45.75 
Q 21.046875 45.75 18.09375 43.578125 
Q 15.140625 41.40625 13.71875 35.890625 
L 5.125 37.0625 
Q 6.296875 42.578125 8.984375 45.96875 
Q 11.671875 49.359375 16.75 51.1875 
Q 21.828125 53.03125 28.515625 53.03125 
Q 35.15625 53.03125 39.296875 51.46875 
Q 43.453125 49.90625 45.40625 47.53125 
Q 47.359375 45.171875 48.140625 41.546875 
Q 48.578125 39.3125 48.578125 33.453125 
L 48.578125 21.734375 
Q 48.578125 9.46875 49.140625 6.21875 
Q 49.703125 2.984375 51.375 0 
L 42.1875 0 
Q 40.828125 2.734375 40.4375 6.390625 
z
M 39.703125 26.03125 
Q 34.90625 24.078125 25.34375 22.703125 
Q 19.921875 21.921875 17.671875 20.9375 
Q 15.4375 19.96875 14.203125 18.09375 
Q 12.984375 16.21875 12.984375 13.921875 
Q 12.984375 10.40625 15.640625 8.0625 
Q 18.3125 5.71875 23.4375 5.71875 
Q 28.515625 5.71875 32.46875 7.9375 
Q 36.421875 10.15625 38.28125 14.015625 
Q 39.703125 17 39.703125 22.796875 
z
" id="ArialMT-97"/>
      <path d="M 6.59375 0 
L 6.59375 51.859375 
L 14.5 51.859375 
L 14.5 44.484375 
Q 20.21875 53.03125 31 53.03125 
Q 35.6875 53.03125 39.625 51.34375 
Q 43.5625 49.65625 45.515625 46.921875 
Q 47.46875 44.1875 48.25 40.4375 
Q 48.734375 37.984375 48.734375 31.890625 
L 48.734375 0 
L 39.9375 0 
L 39.9375 31.546875 
Q 39.9375 36.921875 38.90625 39.578125 
Q 37.890625 42.234375 35.28125 43.8125 
Q 32.671875 45.40625 29.15625 45.40625 
Q 23.53125 45.40625 19.453125 41.84375 
Q 15.375 38.28125 15.375 28.328125 
L 15.375 0 
z
" id="ArialMT-110"/>
      <path d="M 4.984375 -4.296875 
L 13.53125 -5.5625 
Q 14.0625 -9.515625 16.5 -11.328125 
Q 19.78125 -13.765625 25.4375 -13.765625 
Q 31.546875 -13.765625 34.859375 -11.328125 
Q 38.1875 -8.890625 39.359375 -4.5 
Q 40.046875 -1.8125 39.984375 6.78125 
Q 34.234375 0 25.640625 0 
Q 14.9375 0 9.078125 7.71875 
Q 3.21875 15.4375 3.21875 26.21875 
Q 3.21875 33.640625 5.90625 39.90625 
Q 8.59375 46.1875 13.6875 49.609375 
Q 18.796875 53.03125 25.6875 53.03125 
Q 34.859375 53.03125 40.828125 45.609375 
L 40.828125 51.859375 
L 48.921875 51.859375 
L 48.921875 7.03125 
Q 48.921875 -5.078125 46.453125 -10.125 
Q 44 -15.1875 38.640625 -18.109375 
Q 33.296875 -21.046875 25.484375 -21.046875 
Q 16.21875 -21.046875 10.5 -16.875 
Q 4.78125 -12.703125 4.984375 -4.296875 
z
M 12.25 26.859375 
Q 12.25 16.65625 16.296875 11.96875 
Q 20.359375 7.28125 26.46875 7.28125 
Q 32.515625 7.28125 36.609375 11.9375 
Q 40.71875 16.609375 40.71875 26.5625 
Q 40.71875 36.078125 36.5 40.90625 
Q 32.28125 45.75 26.3125 45.75 
Q 20.453125 45.75 16.34375 40.984375 
Q 12.25 36.234375 12.25 26.859375 
z
" id="ArialMT-103"/>
      <path d="M 6.390625 0 
L 6.390625 71.578125 
L 15.1875 71.578125 
L 15.1875 0 
z
" id="ArialMT-108"/>
      <path d="M 42.09375 16.703125 
L 51.171875 15.578125 
Q 49.03125 7.625 43.21875 3.21875 
Q 37.40625 -1.171875 28.375 -1.171875 
Q 17 -1.171875 10.328125 5.828125 
Q 3.65625 12.84375 3.65625 25.484375 
Q 3.65625 38.578125 10.390625 45.796875 
Q 17.140625 53.03125 27.875 53.03125 
Q 38.28125 53.03125 44.875 45.953125 
Q 51.46875 38.875 51.46875 26.03125 
Q 51.46875 25.25 51.421875 23.6875 
L 12.75 23.6875 
Q 13.234375 15.140625 17.578125 10.59375 
Q 21.921875 6.0625 28.421875 6.0625 
Q 33.25 6.0625 36.671875 8.59375 
Q 40.09375 11.140625 42.09375 16.703125 
z
M 13.234375 30.90625 
L 42.1875 30.90625 
Q 41.609375 37.453125 38.875 40.71875 
Q 34.671875 45.796875 27.984375 45.796875 
Q 21.921875 45.796875 17.796875 41.75 
Q 13.671875 37.703125 13.234375 30.90625 
z
" id="ArialMT-101"/>
      <path id="ArialMT-32"/>
      <path d="M 6.5 0 
L 6.5 51.859375 
L 14.40625 51.859375 
L 14.40625 44 
Q 17.4375 49.515625 20 51.265625 
Q 22.5625 53.03125 25.640625 53.03125 
Q 30.078125 53.03125 34.671875 50.203125 
L 31.640625 42.046875 
Q 28.421875 43.953125 25.203125 43.953125 
Q 22.3125 43.953125 20.015625 42.21875 
Q 17.71875 40.484375 16.75 37.40625 
Q 15.28125 32.71875 15.28125 27.15625 
L 15.28125 0 
z
" id="ArialMT-114"/>
      <path d="M 3.328125 25.921875 
Q 3.328125 40.328125 11.328125 47.265625 
Q 18.015625 53.03125 27.640625 53.03125 
Q 38.328125 53.03125 45.109375 46.015625 
Q 51.90625 39.015625 51.90625 26.65625 
Q 51.90625 16.65625 48.90625 10.90625 
Q 45.90625 5.171875 40.15625 2 
Q 34.421875 -1.171875 27.640625 -1.171875 
Q 16.75 -1.171875 10.03125 5.8125 
Q 3.328125 12.796875 3.328125 25.921875 
z
M 12.359375 25.921875 
Q 12.359375 15.96875 16.703125 11.015625 
Q 21.046875 6.0625 27.640625 6.0625 
Q 34.1875 6.0625 38.53125 11.03125 
Q 42.875 16.015625 42.875 26.21875 
Q 42.875 35.84375 38.5 40.796875 
Q 34.125 45.75 27.640625 45.75 
Q 21.046875 45.75 16.703125 40.8125 
Q 12.359375 35.890625 12.359375 25.921875 
z
" id="ArialMT-111"/>
      <path d="M 23.390625 -21.046875 
Q 16.109375 -11.859375 11.078125 0.4375 
Q 6.0625 12.75 6.0625 25.921875 
Q 6.0625 37.546875 9.8125 48.1875 
Q 14.203125 60.546875 23.390625 72.796875 
L 29.6875 72.796875 
Q 23.78125 62.640625 21.875 58.296875 
Q 18.890625 51.5625 17.1875 44.234375 
Q 15.09375 35.109375 15.09375 25.875 
Q 15.09375 2.390625 29.6875 -21.046875 
z
" id="ArialMT-40"/>
      <path d="M 31.296875 40.671875 
Q 27.390625 40.671875 24.703125 37.953125 
Q 22.015625 35.25 22.015625 31.34375 
Q 22.015625 27.484375 24.703125 24.828125 
Q 27.390625 22.171875 31.296875 22.171875 
Q 35.203125 22.171875 37.890625 24.828125 
Q 40.578125 27.484375 40.578125 31.34375 
Q 40.578125 35.203125 37.859375 37.9375 
Q 35.15625 40.671875 31.296875 40.671875 
z
M 31.296875 46.96875 
Q 34.421875 46.96875 37.296875 45.765625 
Q 40.1875 44.578125 42.28125 42.328125 
Q 44.53125 40.140625 45.65625 37.34375 
Q 46.78125 34.5625 46.78125 31.34375 
Q 46.78125 24.90625 42.265625 20.4375 
Q 37.75 15.96875 31.203125 15.96875 
Q 24.609375 15.96875 20.21875 20.359375 
Q 15.828125 24.75 15.828125 31.34375 
Q 15.828125 37.890625 20.3125 42.421875 
Q 24.8125 46.96875 31.296875 46.96875 
z
" id="DejaVuSans-8728"/>
      <path d="M 12.359375 -21.046875 
L 6.0625 -21.046875 
Q 20.65625 2.390625 20.65625 25.875 
Q 20.65625 35.0625 18.5625 44.09375 
Q 16.890625 51.421875 13.921875 58.15625 
Q 12.015625 62.546875 6.0625 72.796875 
L 12.359375 72.796875 
Q 21.53125 60.546875 25.921875 48.1875 
Q 29.6875 37.546875 29.6875 25.921875 
Q 29.6875 12.75 24.625 0.4375 
Q 19.578125 -11.859375 12.359375 -21.046875 
z
" id="ArialMT-41"/>
     </defs>
     <g style="fill:#262626;" transform="translate(152.556037 407.160281)scale(0.264 -0.264)">
      <use transform="translate(0 0.203125)" xlink:href="#ArialMT-97"/>
      <use transform="translate(55.615234 0.203125)" xlink:href="#ArialMT-110"/>
      <use transform="translate(111.230469 0.203125)" xlink:href="#ArialMT-103"/>
      <use transform="translate(166.845703 0.203125)" xlink:href="#ArialMT-108"/>
      <use transform="translate(189.0625 0.203125)" xlink:href="#ArialMT-101"/>
      <use transform="translate(244.677734 0.203125)" xlink:href="#ArialMT-32"/>
      <use transform="translate(272.460938 0.203125)" xlink:href="#ArialMT-101"/>
      <use transform="translate(328.076172 0.203125)" xlink:href="#ArialMT-114"/>
      <use transform="translate(361.376953 0.203125)" xlink:href="#ArialMT-114"/>
      <use transform="translate(394.677734 0.203125)" xlink:href="#ArialMT-111"/>
      <use transform="translate(450.292969 0.203125)" xlink:href="#ArialMT-114"/>
      <use transform="translate(483.59375 0.203125)" xlink:href="#ArialMT-32"/>
      <use transform="translate(511.376953 0.203125)" xlink:href="#ArialMT-40"/>
      <use transform="translate(559.272461 38.484375)scale(0.7)" xlink:href="#DejaVuSans-8728"/>
      <use transform="translate(619.462891 0.203125)" xlink:href="#ArialMT-41"/>
     </g>
    </g>
   </g>
   <g id="matplotlib.axis_2">
    <g id="ytick_1">
     <g id="line2d_4">
      <defs>
       <path d="M 0 0 
L 12 0 
" id="md4b18885f7" style="stroke:#262626;stroke-width:2.5;"/>
      </defs>
      <g>
       <use style="fill:#262626;stroke:#262626;stroke-width:2.5;" x="86.570219" xlink:href="#md4b18885f7" y="358.256625"/>
      </g>
     </g>
     <g id="text_5">
      <!-- 0 -->
      <g style="fill:#262626;" transform="translate(69.61275 366.917578)scale(0.242 -0.242)">
       <use xlink:href="#ArialMT-48"/>
      </g>
     </g>
    </g>
    <g id="ytick_2">
     <g id="line2d_5">
      <g>
       <use style="fill:#262626;stroke:#262626;stroke-width:2.5;" x="86.570219" xlink:href="#md4b18885f7" y="195.176625"/>
      </g>
     </g>
     <g id="text_6">
      <!-- 0.06 -->
      <defs>
       <path d="M 9.078125 0 
L 9.078125 10.015625 
L 19.09375 10.015625 
L 19.09375 0 
z
" id="ArialMT-46"/>
       <path d="M 49.75 54.046875 
L 41.015625 53.375 
Q 39.84375 58.546875 37.703125 60.890625 
Q 34.125 64.65625 28.90625 64.65625 
Q 24.703125 64.65625 21.53125 62.3125 
Q 17.390625 59.28125 14.984375 53.46875 
Q 12.59375 47.65625 12.5 36.921875 
Q 15.671875 41.75 20.265625 44.09375 
Q 24.859375 46.4375 29.890625 46.4375 
Q 38.671875 46.4375 44.84375 39.96875 
Q 51.03125 33.5 51.03125 23.25 
Q 51.03125 16.5 48.125 10.71875 
Q 45.21875 4.9375 40.140625 1.859375 
Q 35.0625 -1.21875 28.609375 -1.21875 
Q 17.625 -1.21875 10.6875 6.859375 
Q 3.765625 14.9375 3.765625 33.5 
Q 3.765625 54.25 11.421875 63.671875 
Q 18.109375 71.875 29.4375 71.875 
Q 37.890625 71.875 43.28125 67.140625 
Q 48.6875 62.40625 49.75 54.046875 
z
M 13.875 23.1875 
Q 13.875 18.65625 15.796875 14.5 
Q 17.71875 10.359375 21.1875 8.171875 
Q 24.65625 6 28.46875 6 
Q 34.03125 6 38.03125 10.484375 
Q 42.046875 14.984375 42.046875 22.703125 
Q 42.046875 30.125 38.078125 34.390625 
Q 34.125 38.671875 28.125 38.671875 
Q 22.171875 38.671875 18.015625 34.390625 
Q 13.875 30.125 13.875 23.1875 
z
" id="ArialMT-54"/>
      </defs>
      <g style="fill:#262626;" transform="translate(35.97475 203.837578)scale(0.242 -0.242)">
       <use xlink:href="#ArialMT-48"/>
       <use x="55.615234" xlink:href="#ArialMT-46"/>
       <use x="83.398438" xlink:href="#ArialMT-48"/>
       <use x="139.013672" xlink:href="#ArialMT-54"/>
      </g>
     </g>
    </g>
    <g id="ytick_3">
     <g id="line2d_6">
      <g>
       <use style="fill:#262626;stroke:#262626;stroke-width:2.5;" x="86.570219" xlink:href="#md4b18885f7" y="32.096625"/>
      </g>
     </g>
     <g id="text_7">
      <!-- 0.12 -->
      <defs>
       <path d="M 50.34375 8.453125 
L 50.34375 0 
L 3.03125 0 
Q 2.9375 3.171875 4.046875 6.109375 
Q 5.859375 10.9375 9.828125 15.625 
Q 13.8125 20.3125 21.34375 26.46875 
Q 33.015625 36.03125 37.109375 41.625 
Q 41.21875 47.21875 41.21875 52.203125 
Q 41.21875 57.421875 37.46875 61 
Q 33.734375 64.59375 27.734375 64.59375 
Q 21.390625 64.59375 17.578125 60.78125 
Q 13.765625 56.984375 13.71875 50.25 
L 4.6875 51.171875 
Q 5.609375 61.28125 11.65625 66.578125 
Q 17.71875 71.875 27.9375 71.875 
Q 38.234375 71.875 44.234375 66.15625 
Q 50.25 60.453125 50.25 52 
Q 50.25 47.703125 48.484375 43.546875 
Q 46.734375 39.40625 42.65625 34.8125 
Q 38.578125 30.21875 29.109375 22.21875 
Q 21.1875 15.578125 18.9375 13.203125 
Q 16.703125 10.84375 15.234375 8.453125 
z
" id="ArialMT-50"/>
      </defs>
      <g style="fill:#262626;" transform="translate(35.97475 40.757578)scale(0.242 -0.242)">
       <use xlink:href="#ArialMT-48"/>
       <use x="55.615234" xlink:href="#ArialMT-46"/>
       <use x="83.398438" xlink:href="#ArialMT-49"/>
       <use x="139.013672" xlink:href="#ArialMT-50"/>
      </g>
     </g>
    </g>
    <g id="text_8">
     <!-- frequency -->
     <defs>
      <path d="M 8.6875 0 
L 8.6875 45.015625 
L 0.921875 45.015625 
L 0.921875 51.859375 
L 8.6875 51.859375 
L 8.6875 57.375 
Q 8.6875 62.59375 9.625 65.140625 
Q 10.890625 68.5625 14.078125 70.671875 
Q 17.28125 72.796875 23.046875 72.796875 
Q 26.765625 72.796875 31.25 71.921875 
L 29.9375 64.265625 
Q 27.203125 64.75 24.75 64.75 
Q 20.75 64.75 19.09375 63.03125 
Q 17.4375 61.328125 17.4375 56.640625 
L 17.4375 51.859375 
L 27.546875 51.859375 
L 27.546875 45.015625 
L 17.4375 45.015625 
L 17.4375 0 
z
" id="ArialMT-102"/>
      <path d="M 39.65625 -19.875 
L 39.65625 5.515625 
Q 37.59375 2.640625 33.90625 0.734375 
Q 30.21875 -1.171875 26.078125 -1.171875 
Q 16.84375 -1.171875 10.171875 6.203125 
Q 3.515625 13.578125 3.515625 26.421875 
Q 3.515625 34.234375 6.21875 40.421875 
Q 8.9375 46.625 14.078125 49.828125 
Q 19.234375 53.03125 25.390625 53.03125 
Q 35.015625 53.03125 40.53125 44.921875 
L 40.53125 51.859375 
L 48.4375 51.859375 
L 48.4375 -19.875 
z
M 12.546875 26.078125 
Q 12.546875 16.0625 16.75 11.0625 
Q 20.953125 6.0625 26.8125 6.0625 
Q 32.421875 6.0625 36.46875 10.8125 
Q 40.53125 15.578125 40.53125 25.296875 
Q 40.53125 35.640625 36.25 40.859375 
Q 31.984375 46.09375 26.21875 46.09375 
Q 20.515625 46.09375 16.53125 41.234375 
Q 12.546875 36.375 12.546875 26.078125 
z
" id="ArialMT-113"/>
      <path d="M 40.578125 0 
L 40.578125 7.625 
Q 34.515625 -1.171875 24.125 -1.171875 
Q 19.53125 -1.171875 15.546875 0.578125 
Q 11.578125 2.34375 9.640625 5 
Q 7.71875 7.671875 6.9375 11.53125 
Q 6.390625 14.109375 6.390625 19.734375 
L 6.390625 51.859375 
L 15.1875 51.859375 
L 15.1875 23.09375 
Q 15.1875 16.21875 15.71875 13.8125 
Q 16.546875 10.359375 19.234375 8.375 
Q 21.921875 6.390625 25.875 6.390625 
Q 29.828125 6.390625 33.296875 8.421875 
Q 36.765625 10.453125 38.203125 13.9375 
Q 39.65625 17.4375 39.65625 24.078125 
L 39.65625 51.859375 
L 48.4375 51.859375 
L 48.4375 0 
z
" id="ArialMT-117"/>
      <path d="M 40.4375 19 
L 49.078125 17.875 
Q 47.65625 8.9375 41.8125 3.875 
Q 35.984375 -1.171875 27.484375 -1.171875 
Q 16.84375 -1.171875 10.375 5.78125 
Q 3.90625 12.75 3.90625 25.734375 
Q 3.90625 34.125 6.6875 40.421875 
Q 9.46875 46.734375 15.15625 49.875 
Q 20.84375 53.03125 27.546875 53.03125 
Q 35.984375 53.03125 41.359375 48.75 
Q 46.734375 44.484375 48.25 36.625 
L 39.703125 35.296875 
Q 38.484375 40.53125 35.375 43.15625 
Q 32.28125 45.796875 27.875 45.796875 
Q 21.234375 45.796875 17.078125 41.03125 
Q 12.9375 36.28125 12.9375 25.984375 
Q 12.9375 15.53125 16.9375 10.796875 
Q 20.953125 6.0625 27.390625 6.0625 
Q 32.5625 6.0625 36.03125 9.234375 
Q 39.5 12.40625 40.4375 19 
z
" id="ArialMT-99"/>
      <path d="M 6.203125 -19.96875 
L 5.21875 -11.71875 
Q 8.109375 -12.5 10.25 -12.5 
Q 13.1875 -12.5 14.9375 -11.515625 
Q 16.703125 -10.546875 17.828125 -8.796875 
Q 18.65625 -7.46875 20.515625 -2.25 
Q 20.75 -1.515625 21.296875 -0.09375 
L 1.609375 51.859375 
L 11.078125 51.859375 
L 21.875 21.828125 
Q 23.96875 16.109375 25.640625 9.8125 
Q 27.15625 15.875 29.25 21.625 
L 40.328125 51.859375 
L 49.125 51.859375 
L 29.390625 -0.875 
Q 26.21875 -9.421875 24.46875 -12.640625 
Q 22.125 -17 19.09375 -19.015625 
Q 16.0625 -21.046875 11.859375 -21.046875 
Q 9.328125 -21.046875 6.203125 -19.96875 
z
" id="ArialMT-121"/>
     </defs>
     <g style="fill:#262626;" transform="translate(26.418375 253.141125)rotate(-90)scale(0.264 -0.264)">
      <use xlink:href="#ArialMT-102"/>
      <use x="27.783203" xlink:href="#ArialMT-114"/>
      <use x="61.083984" xlink:href="#ArialMT-101"/>
      <use x="116.699219" xlink:href="#ArialMT-113"/>
      <use x="172.314453" xlink:href="#ArialMT-117"/>
      <use x="227.929688" xlink:href="#ArialMT-101"/>
      <use x="283.544922" xlink:href="#ArialMT-110"/>
      <use x="339.160156" xlink:href="#ArialMT-99"/>
      <use x="389.160156" xlink:href="#ArialMT-121"/>
     </g>
    </g>
   </g>
   <g id="patch_3">
    <path clip-path="url(#p723b702ed2)" d="M 56.133855 358.256625 
L 62.324302 358.256625 
L 62.324302 358.256625 
L 56.133855 358.256625 
z
" style="fill:#e66101;opacity:0.3;stroke:#ffffff;stroke-linejoin:miter;stroke-width:2;"/>
   </g>
   <g id="patch_4">
    <path clip-path="url(#p723b702ed2)" d="M 62.324302 358.256625 
L 68.514749 358.256625 
L 68.514749 358.256625 
L 62.324302 358.256625 
z
" style="fill:#e66101;opacity:0.3;stroke:#ffffff;stroke-linejoin:miter;stroke-width:2;"/>
   </g>
   <g id="patch_5">
    <path clip-path="url(#p723b702ed2)" d="M 68.514749 358.256625 
L 74.705196 358.256625 
L 74.705196 358.256625 
L 68.514749 358.256625 
z
" style="fill:#e66101;opacity:0.3;stroke:#ffffff;stroke-linejoin:miter;stroke-width:2;"/>
   </g>
   <g id="patch_6">
    <path clip-path="url(#p723b702ed2)" d="M 74.705196 358.256625 
L 80.895642 358.256625 
L 80.895642 358.256625 
L 74.705196 358.256625 
z
" style="fill:#e66101;opacity:0.3;stroke:#ffffff;stroke-linejoin:miter;stroke-width:2;"/>
   </g>
   <g id="patch_7">
    <path clip-path="url(#p723b702ed2)" d="M 80.895642 358.256625 
L 87.086089 358.256625 
L 87.086089 358.256625 
L 80.895642 358.256625 
z
" style="fill:#e66101;opacity:0.3;stroke:#ffffff;stroke-linejoin:miter;stroke-width:2;"/>
   </g>
   <g id="patch_8">
    <path clip-path="url(#p723b702ed2)" d="M 87.086089 358.256625 
L 93.276536 358.256625 
L 93.276536 358.256625 
L 87.086089 358.256625 
z
" style="fill:#e66101;opacity:0.3;stroke:#ffffff;stroke-linejoin:miter;stroke-width:2;"/>
   </g>
   <g id="patch_9">
    <path clip-path="url(#p723b702ed2)" d="M 93.276536 358.256625 
L 99.466983 358.256625 
L 99.466983 358.256625 
L 93.276536 358.256625 
z
" style="fill:#e66101;opacity:0.3;stroke:#ffffff;stroke-linejoin:miter;stroke-width:2;"/>
   </g>
   <g id="patch_10">
    <path clip-path="url(#p723b702ed2)" d="M 99.466983 358.256625 
L 105.65743 358.256625 
L 105.65743 358.256625 
L 99.466983 358.256625 
z
" style="fill:#e66101;opacity:0.3;stroke:#ffffff;stroke-linejoin:miter;stroke-width:2;"/>
   </g>
   <g id="patch_11">
    <path clip-path="url(#p723b702ed2)" d="M 105.65743 358.256625 
L 111.847877 358.256625 
L 111.847877 358.256625 
L 105.65743 358.256625 
z
" style="fill:#e66101;opacity:0.3;stroke:#ffffff;stroke-linejoin:miter;stroke-width:2;"/>
   </g>
   <g id="patch_12">
    <path clip-path="url(#p723b702ed2)" d="M 111.847877 358.256625 
L 118.038324 358.256625 
L 118.038324 358.256625 
L 111.847877 358.256625 
z
" style="fill:#e66101;opacity:0.3;stroke:#ffffff;stroke-linejoin:miter;stroke-width:2;"/>
   </g>
   <g id="patch_13">
    <path clip-path="url(#p723b702ed2)" d="M 118.038324 358.256625 
L 124.22877 358.256625 
L 124.22877 358.256625 
L 118.038324 358.256625 
z
" style="fill:#e66101;opacity:0.3;stroke:#ffffff;stroke-linejoin:miter;stroke-width:2;"/>
   </g>
   <g id="patch_14">
    <path clip-path="url(#p723b702ed2)" d="M 124.22877 358.256625 
L 130.419217 358.256625 
L 130.419217 358.256625 
L 124.22877 358.256625 
z
" style="fill:#e66101;opacity:0.3;stroke:#ffffff;stroke-linejoin:miter;stroke-width:2;"/>
   </g>
   <g id="patch_15">
    <path clip-path="url(#p723b702ed2)" d="M 130.419217 358.256625 
L 136.609664 358.256625 
L 136.609664 358.256625 
L 130.419217 358.256625 
z
" style="fill:#e66101;opacity:0.3;stroke:#ffffff;stroke-linejoin:miter;stroke-width:2;"/>
   </g>
   <g id="patch_16">
    <path clip-path="url(#p723b702ed2)" d="M 136.609664 358.256625 
L 142.800111 358.256625 
L 142.800111 356.715276 
L 136.609664 356.715276 
z
" style="fill:#e66101;opacity:0.3;stroke:#ffffff;stroke-linejoin:miter;stroke-width:2;"/>
   </g>
   <g id="patch_17">
    <path clip-path="url(#p723b702ed2)" d="M 142.800111 358.256625 
L 148.990558 358.256625 
L 148.990558 356.715276 
L 142.800111 356.715276 
z
" style="fill:#e66101;opacity:0.3;stroke:#ffffff;stroke-linejoin:miter;stroke-width:2;"/>
   </g>
   <g id="patch_18">
    <path clip-path="url(#p723b702ed2)" d="M 148.990558 358.256625 
L 155.181005 358.256625 
L 155.181005 358.256625 
L 148.990558 358.256625 
z
" style="fill:#e66101;opacity:0.3;stroke:#ffffff;stroke-linejoin:miter;stroke-width:2;"/>
   </g>
   <g id="patch_19">
    <path clip-path="url(#p723b702ed2)" d="M 155.181005 358.256625 
L 161.371451 358.256625 
L 161.371451 353.632577 
L 155.181005 353.632577 
z
" style="fill:#e66101;opacity:0.3;stroke:#ffffff;stroke-linejoin:miter;stroke-width:2;"/>
   </g>
   <g id="patch_20">
    <path clip-path="url(#p723b702ed2)" d="M 161.371451 358.256625 
L 167.561898 358.256625 
L 167.561898 353.632577 
L 161.371451 353.632577 
z
" style="fill:#e66101;opacity:0.3;stroke:#ffffff;stroke-linejoin:miter;stroke-width:2;"/>
   </g>
   <g id="patch_21">
    <path clip-path="url(#p723b702ed2)" d="M 167.561898 358.256625 
L 173.752345 358.256625 
L 173.752345 349.008528 
L 167.561898 349.008528 
z
" style="fill:#e66101;opacity:0.3;stroke:#ffffff;stroke-linejoin:miter;stroke-width:2;"/>
   </g>
   <g id="patch_22">
    <path clip-path="url(#p723b702ed2)" d="M 173.752345 358.256625 
L 179.942792 358.256625 
L 179.942792 347.467179 
L 173.752345 347.467179 
z
" style="fill:#e66101;opacity:0.3;stroke:#ffffff;stroke-linejoin:miter;stroke-width:2;"/>
   </g>
   <g id="patch_23">
    <path clip-path="url(#p723b702ed2)" d="M 179.942792 358.256625 
L 186.133239 358.256625 
L 186.133239 310.474791 
L 179.942792 310.474791 
z
" style="fill:#e66101;opacity:0.3;stroke:#ffffff;stroke-linejoin:miter;stroke-width:2;"/>
   </g>
   <g id="patch_24">
    <path clip-path="url(#p723b702ed2)" d="M 186.133239 358.256625 
L 192.323686 358.256625 
L 192.323686 299.685345 
L 186.133239 299.685345 
z
" style="fill:#e66101;opacity:0.3;stroke:#ffffff;stroke-linejoin:miter;stroke-width:2;"/>
   </g>
   <g id="patch_25">
    <path clip-path="url(#p723b702ed2)" d="M 192.323686 358.256625 
L 198.514132 358.256625 
L 198.514132 268.858355 
L 192.323686 268.858355 
z
" style="fill:#e66101;opacity:0.3;stroke:#ffffff;stroke-linejoin:miter;stroke-width:2;"/>
   </g>
   <g id="patch_26">
    <path clip-path="url(#p723b702ed2)" d="M 198.514132 358.256625 
L 204.704579 358.256625 
L 204.704579 239.572715 
L 198.514132 239.572715 
z
" style="fill:#e66101;opacity:0.3;stroke:#ffffff;stroke-linejoin:miter;stroke-width:2;"/>
   </g>
   <g id="patch_27">
    <path clip-path="url(#p723b702ed2)" d="M 204.704579 358.256625 
L 210.895026 358.256625 
L 210.895026 224.15922 
L 204.704579 224.15922 
z
" style="fill:#e66101;opacity:0.3;stroke:#ffffff;stroke-linejoin:miter;stroke-width:2;"/>
   </g>
   <g id="patch_28">
    <path clip-path="url(#p723b702ed2)" d="M 210.895026 358.256625 
L 217.085473 358.256625 
L 217.085473 208.745725 
L 210.895026 208.745725 
z
" style="fill:#e66101;opacity:0.3;stroke:#ffffff;stroke-linejoin:miter;stroke-width:2;"/>
   </g>
   <g id="patch_29">
    <path clip-path="url(#p723b702ed2)" d="M 217.085473 358.256625 
L 223.27592 358.256625 
L 223.27592 176.377386 
L 217.085473 176.377386 
z
" style="fill:#e66101;opacity:0.3;stroke:#ffffff;stroke-linejoin:miter;stroke-width:2;"/>
   </g>
   <g id="patch_30">
    <path clip-path="url(#p723b702ed2)" d="M 223.27592 358.256625 
L 229.466367 358.256625 
L 229.466367 94.685864 
L 223.27592 94.685864 
z
" style="fill:#e66101;opacity:0.3;stroke:#ffffff;stroke-linejoin:miter;stroke-width:2;"/>
   </g>
   <g id="patch_31">
    <path clip-path="url(#p723b702ed2)" d="M 229.466367 358.256625 
L 235.656814 358.256625 
L 235.656814 119.347455 
L 229.466367 119.347455 
z
" style="fill:#e66101;opacity:0.3;stroke:#ffffff;stroke-linejoin:miter;stroke-width:2;"/>
   </g>
   <g id="patch_32">
    <path clip-path="url(#p723b702ed2)" d="M 235.656814 358.256625 
L 241.84726 358.256625 
L 241.84726 99.309912 
L 235.656814 99.309912 
z
" style="fill:#e66101;opacity:0.3;stroke:#ffffff;stroke-linejoin:miter;stroke-width:2;"/>
   </g>
   <g id="patch_33">
    <path clip-path="url(#p723b702ed2)" d="M 241.84726 358.256625 
L 248.037707 358.256625 
L 248.037707 153.257144 
L 241.84726 153.257144 
z
" style="fill:#e66101;opacity:0.3;stroke:#ffffff;stroke-linejoin:miter;stroke-width:2;"/>
   </g>
   <g id="patch_34">
    <path clip-path="url(#p723b702ed2)" d="M 248.037707 358.256625 
L 254.228154 358.256625 
L 254.228154 148.633096 
L 248.037707 148.633096 
z
" style="fill:#e66101;opacity:0.3;stroke:#ffffff;stroke-linejoin:miter;stroke-width:2;"/>
   </g>
   <g id="patch_35">
    <path clip-path="url(#p723b702ed2)" d="M 254.228154 358.256625 
L 260.418601 358.256625 
L 260.418601 167.129289 
L 254.228154 167.129289 
z
" style="fill:#e66101;opacity:0.3;stroke:#ffffff;stroke-linejoin:miter;stroke-width:2;"/>
   </g>
   <g id="patch_36">
    <path clip-path="url(#p723b702ed2)" d="M 260.418601 358.256625 
L 266.609048 358.256625 
L 266.609048 205.663026 
L 260.418601 205.663026 
z
" style="fill:#e66101;opacity:0.3;stroke:#ffffff;stroke-linejoin:miter;stroke-width:2;"/>
   </g>
   <g id="patch_37">
    <path clip-path="url(#p723b702ed2)" d="M 266.609048 358.256625 
L 272.799495 358.256625 
L 272.799495 262.692957 
L 266.609048 262.692957 
z
" style="fill:#e66101;opacity:0.3;stroke:#ffffff;stroke-linejoin:miter;stroke-width:2;"/>
   </g>
   <g id="patch_38">
    <path clip-path="url(#p723b702ed2)" d="M 272.799495 358.256625 
L 278.989941 358.256625 
L 278.989941 281.189151 
L 272.799495 281.189151 
z
" style="fill:#e66101;opacity:0.3;stroke:#ffffff;stroke-linejoin:miter;stroke-width:2;"/>
   </g>
   <g id="patch_39">
    <path clip-path="url(#p723b702ed2)" d="M 278.989941 358.256625 
L 285.180388 358.256625 
L 285.180388 288.895898 
L 278.989941 288.895898 
z
" style="fill:#e66101;opacity:0.3;stroke:#ffffff;stroke-linejoin:miter;stroke-width:2;"/>
   </g>
   <g id="patch_40">
    <path clip-path="url(#p723b702ed2)" d="M 285.180388 358.256625 
L 291.370835 358.256625 
L 291.370835 321.264237 
L 285.180388 321.264237 
z
" style="fill:#e66101;opacity:0.3;stroke:#ffffff;stroke-linejoin:miter;stroke-width:2;"/>
   </g>
   <g id="patch_41">
    <path clip-path="url(#p723b702ed2)" d="M 291.370835 358.256625 
L 297.561282 358.256625 
L 297.561282 333.595033 
L 291.370835 333.595033 
z
" style="fill:#e66101;opacity:0.3;stroke:#ffffff;stroke-linejoin:miter;stroke-width:2;"/>
   </g>
   <g id="patch_42">
    <path clip-path="url(#p723b702ed2)" d="M 297.561282 358.256625 
L 303.751729 358.256625 
L 303.751729 342.84313 
L 297.561282 342.84313 
z
" style="fill:#e66101;opacity:0.3;stroke:#ffffff;stroke-linejoin:miter;stroke-width:2;"/>
   </g>
   <g id="patch_43">
    <path clip-path="url(#p723b702ed2)" d="M 303.751729 358.256625 
L 309.942176 358.256625 
L 309.942176 350.549878 
L 303.751729 350.549878 
z
" style="fill:#e66101;opacity:0.3;stroke:#ffffff;stroke-linejoin:miter;stroke-width:2;"/>
   </g>
   <g id="patch_44">
    <path clip-path="url(#p723b702ed2)" d="M 309.942176 358.256625 
L 316.132622 358.256625 
L 316.132622 349.008528 
L 309.942176 349.008528 
z
" style="fill:#e66101;opacity:0.3;stroke:#ffffff;stroke-linejoin:miter;stroke-width:2;"/>
   </g>
   <g id="patch_45">
    <path clip-path="url(#p723b702ed2)" d="M 316.132622 358.256625 
L 322.323069 358.256625 
L 322.323069 356.715276 
L 316.132622 356.715276 
z
" style="fill:#e66101;opacity:0.3;stroke:#ffffff;stroke-linejoin:miter;stroke-width:2;"/>
   </g>
   <g id="patch_46">
    <path clip-path="url(#p723b702ed2)" d="M 322.323069 358.256625 
L 328.513516 358.256625 
L 328.513516 356.715276 
L 322.323069 356.715276 
z
" style="fill:#e66101;opacity:0.3;stroke:#ffffff;stroke-linejoin:miter;stroke-width:2;"/>
   </g>
   <g id="patch_47">
    <path clip-path="url(#p723b702ed2)" d="M 328.513516 358.256625 
L 334.703963 358.256625 
L 334.703963 358.256625 
L 328.513516 358.256625 
z
" style="fill:#e66101;opacity:0.3;stroke:#ffffff;stroke-linejoin:miter;stroke-width:2;"/>
   </g>
   <g id="patch_48">
    <path clip-path="url(#p723b702ed2)" d="M 334.703963 358.256625 
L 340.89441 358.256625 
L 340.89441 356.715276 
L 334.703963 356.715276 
z
" style="fill:#e66101;opacity:0.3;stroke:#ffffff;stroke-linejoin:miter;stroke-width:2;"/>
   </g>
   <g id="patch_49">
    <path clip-path="url(#p723b702ed2)" d="M 340.89441 358.256625 
L 347.084857 358.256625 
L 347.084857 358.256625 
L 340.89441 358.256625 
z
" style="fill:#e66101;opacity:0.3;stroke:#ffffff;stroke-linejoin:miter;stroke-width:2;"/>
   </g>
   <g id="patch_50">
    <path clip-path="url(#p723b702ed2)" d="M 347.084857 358.256625 
L 353.275303 358.256625 
L 353.275303 358.256625 
L 347.084857 358.256625 
z
" style="fill:#e66101;opacity:0.3;stroke:#ffffff;stroke-linejoin:miter;stroke-width:2;"/>
   </g>
   <g id="patch_51">
    <path clip-path="url(#p723b702ed2)" d="M 353.275303 358.256625 
L 359.46575 358.256625 
L 359.46575 358.256625 
L 353.275303 358.256625 
z
" style="fill:#e66101;opacity:0.3;stroke:#ffffff;stroke-linejoin:miter;stroke-width:2;"/>
   </g>
   <g id="patch_52">
    <path clip-path="url(#p723b702ed2)" d="M 359.46575 358.256625 
L 365.656197 358.256625 
L 365.656197 358.256625 
L 359.46575 358.256625 
z
" style="fill:#e66101;opacity:0.3;stroke:#ffffff;stroke-linejoin:miter;stroke-width:2;"/>
   </g>
   <g id="patch_53">
    <path clip-path="url(#p723b702ed2)" d="M 365.656197 358.256625 
L 371.846644 358.256625 
L 371.846644 358.256625 
L 365.656197 358.256625 
z
" style="fill:#e66101;opacity:0.3;stroke:#ffffff;stroke-linejoin:miter;stroke-width:2;"/>
   </g>
   <g id="patch_54">
    <path clip-path="url(#p723b702ed2)" d="M 371.846644 358.256625 
L 378.037091 358.256625 
L 378.037091 358.256625 
L 371.846644 358.256625 
z
" style="fill:#e66101;opacity:0.3;stroke:#ffffff;stroke-linejoin:miter;stroke-width:2;"/>
   </g>
   <g id="patch_55">
    <path clip-path="url(#p723b702ed2)" d="M 378.037091 358.256625 
L 384.227538 358.256625 
L 384.227538 358.256625 
L 378.037091 358.256625 
z
" style="fill:#e66101;opacity:0.3;stroke:#ffffff;stroke-linejoin:miter;stroke-width:2;"/>
   </g>
   <g id="patch_56">
    <path clip-path="url(#p723b702ed2)" d="M 384.227538 358.256625 
L 390.417985 358.256625 
L 390.417985 358.256625 
L 384.227538 358.256625 
z
" style="fill:#e66101;opacity:0.3;stroke:#ffffff;stroke-linejoin:miter;stroke-width:2;"/>
   </g>
   <g id="patch_57">
    <path clip-path="url(#p723b702ed2)" d="M 390.417985 358.256625 
L 396.608431 358.256625 
L 396.608431 358.256625 
L 390.417985 358.256625 
z
" style="fill:#e66101;opacity:0.3;stroke:#ffffff;stroke-linejoin:miter;stroke-width:2;"/>
   </g>
   <g id="patch_58">
    <path clip-path="url(#p723b702ed2)" d="M 396.608431 358.256625 
L 402.798878 358.256625 
L 402.798878 358.256625 
L 396.608431 358.256625 
z
" style="fill:#e66101;opacity:0.3;stroke:#ffffff;stroke-linejoin:miter;stroke-width:2;"/>
   </g>
   <g id="patch_59">
    <path clip-path="url(#p723b702ed2)" d="M 402.798878 358.256625 
L 408.989325 358.256625 
L 408.989325 358.256625 
L 402.798878 358.256625 
z
" style="fill:#e66101;opacity:0.3;stroke:#ffffff;stroke-linejoin:miter;stroke-width:2;"/>
   </g>
   <g id="patch_60">
    <path clip-path="url(#p723b702ed2)" d="M 408.989325 358.256625 
L 415.179772 358.256625 
L 415.179772 358.256625 
L 408.989325 358.256625 
z
" style="fill:#e66101;opacity:0.3;stroke:#ffffff;stroke-linejoin:miter;stroke-width:2;"/>
   </g>
   <g id="patch_61">
    <path clip-path="url(#p723b702ed2)" d="M 415.179772 358.256625 
L 421.370219 358.256625 
L 421.370219 358.256625 
L 415.179772 358.256625 
z
" style="fill:#e66101;opacity:0.3;stroke:#ffffff;stroke-linejoin:miter;stroke-width:2;"/>
   </g>
   <g id="patch_62">
    <path clip-path="url(#p723b702ed2)" d="M 56.133855 358.256625 
L 62.324302 358.256625 
L 62.324302 358.256625 
L 56.133855 358.256625 
z
" style="fill:#5e3c99;opacity:0.3;stroke:#ffffff;stroke-linejoin:miter;stroke-width:2;"/>
   </g>
   <g id="patch_63">
    <path clip-path="url(#p723b702ed2)" d="M 62.324302 358.256625 
L 68.514749 358.256625 
L 68.514749 358.256625 
L 62.324302 358.256625 
z
" style="fill:#5e3c99;opacity:0.3;stroke:#ffffff;stroke-linejoin:miter;stroke-width:2;"/>
   </g>
   <g id="patch_64">
    <path clip-path="url(#p723b702ed2)" d="M 68.514749 358.256625 
L 74.705196 358.256625 
L 74.705196 358.256625 
L 68.514749 358.256625 
z
" style="fill:#5e3c99;opacity:0.3;stroke:#ffffff;stroke-linejoin:miter;stroke-width:2;"/>
   </g>
   <g id="patch_65">
    <path clip-path="url(#p723b702ed2)" d="M 74.705196 358.256625 
L 80.895642 358.256625 
L 80.895642 358.256625 
L 74.705196 358.256625 
z
" style="fill:#5e3c99;opacity:0.3;stroke:#ffffff;stroke-linejoin:miter;stroke-width:2;"/>
   </g>
   <g id="patch_66">
    <path clip-path="url(#p723b702ed2)" d="M 80.895642 358.256625 
L 87.086089 358.256625 
L 87.086089 358.256625 
L 80.895642 358.256625 
z
" style="fill:#5e3c99;opacity:0.3;stroke:#ffffff;stroke-linejoin:miter;stroke-width:2;"/>
   </g>
   <g id="patch_67">
    <path clip-path="url(#p723b702ed2)" d="M 87.086089 358.256625 
L 93.276536 358.256625 
L 93.276536 358.256625 
L 87.086089 358.256625 
z
" style="fill:#5e3c99;opacity:0.3;stroke:#ffffff;stroke-linejoin:miter;stroke-width:2;"/>
   </g>
   <g id="patch_68">
    <path clip-path="url(#p723b702ed2)" d="M 93.276536 358.256625 
L 99.466983 358.256625 
L 99.466983 358.256625 
L 93.276536 358.256625 
z
" style="fill:#5e3c99;opacity:0.3;stroke:#ffffff;stroke-linejoin:miter;stroke-width:2;"/>
   </g>
   <g id="patch_69">
    <path clip-path="url(#p723b702ed2)" d="M 99.466983 358.256625 
L 105.65743 358.256625 
L 105.65743 358.256625 
L 99.466983 358.256625 
z
" style="fill:#5e3c99;opacity:0.3;stroke:#ffffff;stroke-linejoin:miter;stroke-width:2;"/>
   </g>
   <g id="patch_70">
    <path clip-path="url(#p723b702ed2)" d="M 105.65743 358.256625 
L 111.847877 358.256625 
L 111.847877 358.256625 
L 105.65743 358.256625 
z
" style="fill:#5e3c99;opacity:0.3;stroke:#ffffff;stroke-linejoin:miter;stroke-width:2;"/>
   </g>
   <g id="patch_71">
    <path clip-path="url(#p723b702ed2)" d="M 111.847877 358.256625 
L 118.038324 358.256625 
L 118.038324 358.256625 
L 111.847877 358.256625 
z
" style="fill:#5e3c99;opacity:0.3;stroke:#ffffff;stroke-linejoin:miter;stroke-width:2;"/>
   </g>
   <g id="patch_72">
    <path clip-path="url(#p723b702ed2)" d="M 118.038324 358.256625 
L 124.22877 358.256625 
L 124.22877 358.256625 
L 118.038324 358.256625 
z
" style="fill:#5e3c99;opacity:0.3;stroke:#ffffff;stroke-linejoin:miter;stroke-width:2;"/>
   </g>
   <g id="patch_73">
    <path clip-path="url(#p723b702ed2)" d="M 124.22877 358.256625 
L 130.419217 358.256625 
L 130.419217 358.256625 
L 124.22877 358.256625 
z
" style="fill:#5e3c99;opacity:0.3;stroke:#ffffff;stroke-linejoin:miter;stroke-width:2;"/>
   </g>
   <g id="patch_74">
    <path clip-path="url(#p723b702ed2)" d="M 130.419217 358.256625 
L 136.609664 358.256625 
L 136.609664 356.522232 
L 130.419217 356.522232 
z
" style="fill:#5e3c99;opacity:0.3;stroke:#ffffff;stroke-linejoin:miter;stroke-width:2;"/>
   </g>
   <g id="patch_75">
    <path clip-path="url(#p723b702ed2)" d="M 136.609664 358.256625 
L 142.800111 358.256625 
L 142.800111 356.522232 
L 136.609664 356.522232 
z
" style="fill:#5e3c99;opacity:0.3;stroke:#ffffff;stroke-linejoin:miter;stroke-width:2;"/>
   </g>
   <g id="patch_76">
    <path clip-path="url(#p723b702ed2)" d="M 142.800111 358.256625 
L 148.990558 358.256625 
L 148.990558 358.256625 
L 142.800111 358.256625 
z
" style="fill:#5e3c99;opacity:0.3;stroke:#ffffff;stroke-linejoin:miter;stroke-width:2;"/>
   </g>
   <g id="patch_77">
    <path clip-path="url(#p723b702ed2)" d="M 148.990558 358.256625 
L 155.181005 358.256625 
L 155.181005 353.053445 
L 148.990558 353.053445 
z
" style="fill:#5e3c99;opacity:0.3;stroke:#ffffff;stroke-linejoin:miter;stroke-width:2;"/>
   </g>
   <g id="patch_78">
    <path clip-path="url(#p723b702ed2)" d="M 155.181005 358.256625 
L 161.371451 358.256625 
L 161.371451 354.787838 
L 155.181005 354.787838 
z
" style="fill:#5e3c99;opacity:0.3;stroke:#ffffff;stroke-linejoin:miter;stroke-width:2;"/>
   </g>
   <g id="patch_79">
    <path clip-path="url(#p723b702ed2)" d="M 161.371451 358.256625 
L 167.561898 358.256625 
L 167.561898 356.522232 
L 161.371451 356.522232 
z
" style="fill:#5e3c99;opacity:0.3;stroke:#ffffff;stroke-linejoin:miter;stroke-width:2;"/>
   </g>
   <g id="patch_80">
    <path clip-path="url(#p723b702ed2)" d="M 167.561898 358.256625 
L 173.752345 358.256625 
L 173.752345 353.053445 
L 167.561898 353.053445 
z
" style="fill:#5e3c99;opacity:0.3;stroke:#ffffff;stroke-linejoin:miter;stroke-width:2;"/>
   </g>
   <g id="patch_81">
    <path clip-path="url(#p723b702ed2)" d="M 173.752345 358.256625 
L 179.942792 358.256625 
L 179.942792 353.053445 
L 173.752345 353.053445 
z
" style="fill:#5e3c99;opacity:0.3;stroke:#ffffff;stroke-linejoin:miter;stroke-width:2;"/>
   </g>
   <g id="patch_82">
    <path clip-path="url(#p723b702ed2)" d="M 179.942792 358.256625 
L 186.133239 358.256625 
L 186.133239 346.115872 
L 179.942792 346.115872 
z
" style="fill:#5e3c99;opacity:0.3;stroke:#ffffff;stroke-linejoin:miter;stroke-width:2;"/>
   </g>
   <g id="patch_83">
    <path clip-path="url(#p723b702ed2)" d="M 186.133239 358.256625 
L 192.323686 358.256625 
L 192.323686 323.56876 
L 186.133239 323.56876 
z
" style="fill:#5e3c99;opacity:0.3;stroke:#ffffff;stroke-linejoin:miter;stroke-width:2;"/>
   </g>
   <g id="patch_84">
    <path clip-path="url(#p723b702ed2)" d="M 192.323686 358.256625 
L 198.514132 358.256625 
L 198.514132 295.818468 
L 192.323686 295.818468 
z
" style="fill:#5e3c99;opacity:0.3;stroke:#ffffff;stroke-linejoin:miter;stroke-width:2;"/>
   </g>
   <g id="patch_85">
    <path clip-path="url(#p723b702ed2)" d="M 198.514132 358.256625 
L 204.704579 358.256625 
L 204.704579 285.412108 
L 198.514132 285.412108 
z
" style="fill:#5e3c99;opacity:0.3;stroke:#ffffff;stroke-linejoin:miter;stroke-width:2;"/>
   </g>
   <g id="patch_86">
    <path clip-path="url(#p723b702ed2)" d="M 204.704579 358.256625 
L 210.895026 358.256625 
L 210.895026 238.583491 
L 204.704579 238.583491 
z
" style="fill:#5e3c99;opacity:0.3;stroke:#ffffff;stroke-linejoin:miter;stroke-width:2;"/>
   </g>
   <g id="patch_87">
    <path clip-path="url(#p723b702ed2)" d="M 210.895026 358.256625 
L 217.085473 358.256625 
L 217.085473 202.161232 
L 210.895026 202.161232 
z
" style="fill:#5e3c99;opacity:0.3;stroke:#ffffff;stroke-linejoin:miter;stroke-width:2;"/>
   </g>
   <g id="patch_88">
    <path clip-path="url(#p723b702ed2)" d="M 217.085473 358.256625 
L 223.27592 358.256625 
L 223.27592 153.598221 
L 217.085473 153.598221 
z
" style="fill:#5e3c99;opacity:0.3;stroke:#ffffff;stroke-linejoin:miter;stroke-width:2;"/>
   </g>
   <g id="patch_89">
    <path clip-path="url(#p723b702ed2)" d="M 223.27592 358.256625 
L 229.466367 358.256625 
L 229.466367 79.019312 
L 223.27592 79.019312 
z
" style="fill:#5e3c99;opacity:0.3;stroke:#ffffff;stroke-linejoin:miter;stroke-width:2;"/>
   </g>
   <g id="patch_90">
    <path clip-path="url(#p723b702ed2)" d="M 229.466367 358.256625 
L 235.656814 358.256625 
L 235.656814 58.206593 
L 229.466367 58.206593 
z
" style="fill:#5e3c99;opacity:0.3;stroke:#ffffff;stroke-linejoin:miter;stroke-width:2;"/>
   </g>
   <g id="patch_91">
    <path clip-path="url(#p723b702ed2)" d="M 235.656814 358.256625 
L 241.84726 358.256625 
L 241.84726 91.160064 
L 235.656814 91.160064 
z
" style="fill:#5e3c99;opacity:0.3;stroke:#ffffff;stroke-linejoin:miter;stroke-width:2;"/>
   </g>
   <g id="patch_92">
    <path clip-path="url(#p723b702ed2)" d="M 241.84726 358.256625 
L 248.037707 358.256625 
L 248.037707 124.113536 
L 241.84726 124.113536 
z
" style="fill:#5e3c99;opacity:0.3;stroke:#ffffff;stroke-linejoin:miter;stroke-width:2;"/>
   </g>
   <g id="patch_93">
    <path clip-path="url(#p723b702ed2)" d="M 248.037707 358.256625 
L 254.228154 358.256625 
L 254.228154 96.363244 
L 248.037707 96.363244 
z
" style="fill:#5e3c99;opacity:0.3;stroke:#ffffff;stroke-linejoin:miter;stroke-width:2;"/>
   </g>
   <g id="patch_94">
    <path clip-path="url(#p723b702ed2)" d="M 254.228154 358.256625 
L 260.418601 358.256625 
L 260.418601 120.64475 
L 254.228154 120.64475 
z
" style="fill:#5e3c99;opacity:0.3;stroke:#ffffff;stroke-linejoin:miter;stroke-width:2;"/>
   </g>
   <g id="patch_95">
    <path clip-path="url(#p723b702ed2)" d="M 260.418601 358.256625 
L 266.609048 358.256625 
L 266.609048 219.505165 
L 260.418601 219.505165 
z
" style="fill:#5e3c99;opacity:0.3;stroke:#ffffff;stroke-linejoin:miter;stroke-width:2;"/>
   </g>
   <g id="patch_96">
    <path clip-path="url(#p723b702ed2)" d="M 266.609048 358.256625 
L 272.799495 358.256625 
L 272.799495 250.724243 
L 266.609048 250.724243 
z
" style="fill:#5e3c99;opacity:0.3;stroke:#ffffff;stroke-linejoin:miter;stroke-width:2;"/>
   </g>
   <g id="patch_97">
    <path clip-path="url(#p723b702ed2)" d="M 272.799495 358.256625 
L 278.989941 358.256625 
L 278.989941 292.349681 
L 272.799495 292.349681 
z
" style="fill:#5e3c99;opacity:0.3;stroke:#ffffff;stroke-linejoin:miter;stroke-width:2;"/>
   </g>
   <g id="patch_98">
    <path clip-path="url(#p723b702ed2)" d="M 278.989941 358.256625 
L 285.180388 358.256625 
L 285.180388 318.36558 
L 278.989941 318.36558 
z
" style="fill:#5e3c99;opacity:0.3;stroke:#ffffff;stroke-linejoin:miter;stroke-width:2;"/>
   </g>
   <g id="patch_99">
    <path clip-path="url(#p723b702ed2)" d="M 285.180388 358.256625 
L 291.370835 358.256625 
L 291.370835 335.709513 
L 285.180388 335.709513 
z
" style="fill:#5e3c99;opacity:0.3;stroke:#ffffff;stroke-linejoin:miter;stroke-width:2;"/>
   </g>
   <g id="patch_100">
    <path clip-path="url(#p723b702ed2)" d="M 291.370835 358.256625 
L 297.561282 358.256625 
L 297.561282 346.115872 
L 291.370835 346.115872 
z
" style="fill:#5e3c99;opacity:0.3;stroke:#ffffff;stroke-linejoin:miter;stroke-width:2;"/>
   </g>
   <g id="patch_101">
    <path clip-path="url(#p723b702ed2)" d="M 297.561282 358.256625 
L 303.751729 358.256625 
L 303.751729 353.053445 
L 297.561282 353.053445 
z
" style="fill:#5e3c99;opacity:0.3;stroke:#ffffff;stroke-linejoin:miter;stroke-width:2;"/>
   </g>
   <g id="patch_102">
    <path clip-path="url(#p723b702ed2)" d="M 303.751729 358.256625 
L 309.942176 358.256625 
L 309.942176 349.584659 
L 303.751729 349.584659 
z
" style="fill:#5e3c99;opacity:0.3;stroke:#ffffff;stroke-linejoin:miter;stroke-width:2;"/>
   </g>
   <g id="patch_103">
    <path clip-path="url(#p723b702ed2)" d="M 309.942176 358.256625 
L 316.132622 358.256625 
L 316.132622 354.787838 
L 309.942176 354.787838 
z
" style="fill:#5e3c99;opacity:0.3;stroke:#ffffff;stroke-linejoin:miter;stroke-width:2;"/>
   </g>
   <g id="patch_104">
    <path clip-path="url(#p723b702ed2)" d="M 316.132622 358.256625 
L 322.323069 358.256625 
L 322.323069 356.522232 
L 316.132622 356.522232 
z
" style="fill:#5e3c99;opacity:0.3;stroke:#ffffff;stroke-linejoin:miter;stroke-width:2;"/>
   </g>
   <g id="patch_105">
    <path clip-path="url(#p723b702ed2)" d="M 322.323069 358.256625 
L 328.513516 358.256625 
L 328.513516 358.256625 
L 322.323069 358.256625 
z
" style="fill:#5e3c99;opacity:0.3;stroke:#ffffff;stroke-linejoin:miter;stroke-width:2;"/>
   </g>
   <g id="patch_106">
    <path clip-path="url(#p723b702ed2)" d="M 328.513516 358.256625 
L 334.703963 358.256625 
L 334.703963 358.256625 
L 328.513516 358.256625 
z
" style="fill:#5e3c99;opacity:0.3;stroke:#ffffff;stroke-linejoin:miter;stroke-width:2;"/>
   </g>
   <g id="patch_107">
    <path clip-path="url(#p723b702ed2)" d="M 334.703963 358.256625 
L 340.89441 358.256625 
L 340.89441 358.256625 
L 334.703963 358.256625 
z
" style="fill:#5e3c99;opacity:0.3;stroke:#ffffff;stroke-linejoin:miter;stroke-width:2;"/>
   </g>
   <g id="patch_108">
    <path clip-path="url(#p723b702ed2)" d="M 340.89441 358.256625 
L 347.084857 358.256625 
L 347.084857 358.256625 
L 340.89441 358.256625 
z
" style="fill:#5e3c99;opacity:0.3;stroke:#ffffff;stroke-linejoin:miter;stroke-width:2;"/>
   </g>
   <g id="patch_109">
    <path clip-path="url(#p723b702ed2)" d="M 347.084857 358.256625 
L 353.275303 358.256625 
L 353.275303 358.256625 
L 347.084857 358.256625 
z
" style="fill:#5e3c99;opacity:0.3;stroke:#ffffff;stroke-linejoin:miter;stroke-width:2;"/>
   </g>
   <g id="patch_110">
    <path clip-path="url(#p723b702ed2)" d="M 353.275303 358.256625 
L 359.46575 358.256625 
L 359.46575 358.256625 
L 353.275303 358.256625 
z
" style="fill:#5e3c99;opacity:0.3;stroke:#ffffff;stroke-linejoin:miter;stroke-width:2;"/>
   </g>
   <g id="patch_111">
    <path clip-path="url(#p723b702ed2)" d="M 359.46575 358.256625 
L 365.656197 358.256625 
L 365.656197 358.256625 
L 359.46575 358.256625 
z
" style="fill:#5e3c99;opacity:0.3;stroke:#ffffff;stroke-linejoin:miter;stroke-width:2;"/>
   </g>
   <g id="patch_112">
    <path clip-path="url(#p723b702ed2)" d="M 365.656197 358.256625 
L 371.846644 358.256625 
L 371.846644 358.256625 
L 365.656197 358.256625 
z
" style="fill:#5e3c99;opacity:0.3;stroke:#ffffff;stroke-linejoin:miter;stroke-width:2;"/>
   </g>
   <g id="patch_113">
    <path clip-path="url(#p723b702ed2)" d="M 371.846644 358.256625 
L 378.037091 358.256625 
L 378.037091 358.256625 
L 371.846644 358.256625 
z
" style="fill:#5e3c99;opacity:0.3;stroke:#ffffff;stroke-linejoin:miter;stroke-width:2;"/>
   </g>
   <g id="patch_114">
    <path clip-path="url(#p723b702ed2)" d="M 378.037091 358.256625 
L 384.227538 358.256625 
L 384.227538 358.256625 
L 378.037091 358.256625 
z
" style="fill:#5e3c99;opacity:0.3;stroke:#ffffff;stroke-linejoin:miter;stroke-width:2;"/>
   </g>
   <g id="patch_115">
    <path clip-path="url(#p723b702ed2)" d="M 384.227538 358.256625 
L 390.417985 358.256625 
L 390.417985 358.256625 
L 384.227538 358.256625 
z
" style="fill:#5e3c99;opacity:0.3;stroke:#ffffff;stroke-linejoin:miter;stroke-width:2;"/>
   </g>
   <g id="patch_116">
    <path clip-path="url(#p723b702ed2)" d="M 390.417985 358.256625 
L 396.608431 358.256625 
L 396.608431 358.256625 
L 390.417985 358.256625 
z
" style="fill:#5e3c99;opacity:0.3;stroke:#ffffff;stroke-linejoin:miter;stroke-width:2;"/>
   </g>
   <g id="patch_117">
    <path clip-path="url(#p723b702ed2)" d="M 396.608431 358.256625 
L 402.798878 358.256625 
L 402.798878 358.256625 
L 396.608431 358.256625 
z
" style="fill:#5e3c99;opacity:0.3;stroke:#ffffff;stroke-linejoin:miter;stroke-width:2;"/>
   </g>
   <g id="patch_118">
    <path clip-path="url(#p723b702ed2)" d="M 402.798878 358.256625 
L 408.989325 358.256625 
L 408.989325 358.256625 
L 402.798878 358.256625 
z
" style="fill:#5e3c99;opacity:0.3;stroke:#ffffff;stroke-linejoin:miter;stroke-width:2;"/>
   </g>
   <g id="patch_119">
    <path clip-path="url(#p723b702ed2)" d="M 408.989325 358.256625 
L 415.179772 358.256625 
L 415.179772 358.256625 
L 408.989325 358.256625 
z
" style="fill:#5e3c99;opacity:0.3;stroke:#ffffff;stroke-linejoin:miter;stroke-width:2;"/>
   </g>
   <g id="patch_120">
    <path clip-path="url(#p723b702ed2)" d="M 415.179772 358.256625 
L 421.370219 358.256625 
L 421.370219 358.256625 
L 415.179772 358.256625 
z
" style="fill:#5e3c99;opacity:0.3;stroke:#ffffff;stroke-linejoin:miter;stroke-width:2;"/>
   </g>
   <g id="line2d_7">
    <path clip-path="url(#p723b702ed2)" d="M 122.368359 358.218534 
L 134.145082 358.044909 
L 141.211116 357.714898 
L 145.921805 357.28034 
L 149.454822 356.767583 
L 152.987839 356.023376 
L 155.343183 355.357712 
L 157.698528 354.521641 
L 160.053873 353.480256 
L 162.409217 352.193974 
L 164.764562 350.61857 
L 167.119907 348.705412 
L 169.475251 346.401945 
L 171.830596 343.652462 
L 174.18594 340.39919 
L 176.541285 336.583725 
L 178.89663 332.148809 
L 181.251974 327.040457 
L 183.607319 321.210381 
L 185.962663 314.618675 
L 188.318008 307.236674 
L 190.673353 299.049867 
L 193.028697 290.060754 
L 195.384042 280.291492 
L 197.739387 269.786158 
L 201.272403 252.802926 
L 204.80542 234.654681 
L 217.759816 166.638878 
L 220.11516 155.716374 
L 222.470505 145.764663 
L 224.82585 136.983221 
L 227.181194 129.553827 
L 228.358867 126.396567 
L 229.536539 123.634324 
L 230.714211 121.282174 
L 231.891883 119.35305 
L 233.069556 117.857623 
L 234.247228 116.804208 
L 235.4249 116.198679 
L 236.602573 116.044424 
L 237.780245 116.342306 
L 238.957917 117.090657 
L 240.13559 118.285295 
L 241.313262 119.919564 
L 242.490934 121.98439 
L 243.668606 124.468372 
L 244.846279 127.357881 
L 246.023951 130.63719 
L 248.379296 138.292657 
L 250.73464 147.272733 
L 253.089985 157.392396 
L 255.44533 168.449961 
L 258.978346 186.330692 
L 264.866708 217.812894 
L 269.577397 242.743561 
L 273.110414 260.429119 
L 276.643431 276.787914 
L 278.998776 286.814364 
L 281.35412 296.073136 
L 283.709465 304.534828 
L 286.06481 312.190517 
L 288.420154 319.049223 
L 290.775499 325.135113 
L 293.130843 330.484584 
L 295.486188 335.143377 
L 297.841533 339.163821 
L 300.196877 342.602312 
L 302.552222 345.517082 
L 304.907566 347.966297 
L 307.262911 350.006507 
L 309.618256 351.691445 
L 311.9736 353.071148 
L 314.328945 354.191384 
L 316.68429 355.093332 
L 319.039634 355.813486 
L 322.572651 356.621399 
L 326.105668 357.180389 
L 330.816357 357.656385 
L 336.704719 357.979231 
L 344.948425 358.169587 
L 356.725148 358.242446 
L 356.725148 358.242446 
" style="fill:none;stroke:#e66101;stroke-linecap:round;stroke-width:5;"/>
   </g>
   <g id="line2d_8">
    <path clip-path="url(#p723b702ed2)" d="M 120.189726 358.255408 
L 143.709785 358.151991 
L 151.19344 357.90609 
L 155.469815 357.588017 
L 158.677096 357.19456 
L 161.884376 356.600414 
L 165.091657 355.721115 
L 167.229844 354.923033 
L 169.368031 353.909548 
L 171.506219 352.634248 
L 173.644406 351.044215 
L 175.782593 349.080092 
L 177.92078 346.676462 
L 180.058967 343.762616 
L 182.197154 340.263766 
L 184.335342 336.102754 
L 186.473529 331.20229 
L 188.611716 325.487722 
L 190.749903 318.890312 
L 192.88809 311.350951 
L 195.026277 302.824207 
L 197.164465 293.282557 
L 199.302652 282.720606 
L 201.440839 271.159077 
L 203.579026 258.648317 
L 206.786307 238.292639 
L 209.993588 216.419063 
L 220.684523 141.299759 
L 222.822711 127.792557 
L 224.960898 115.444233 
L 227.099085 104.524025 
L 229.237272 95.27858 
L 230.306366 91.352505 
L 231.375459 87.922723 
L 232.444553 85.009754 
L 233.513647 82.631164 
L 234.58274 80.801394 
L 235.651834 79.531608 
L 236.720927 78.829582 
L 237.790021 78.699627 
L 238.859114 79.14254 
L 239.928208 80.155603 
L 240.997302 81.732601 
L 242.066395 83.863895 
L 243.135489 86.536514 
L 244.204582 89.73429 
L 245.273676 93.438017 
L 246.34277 97.62565 
L 248.480957 107.351552 
L 250.619144 118.687607 
L 252.757331 131.380047 
L 255.964612 152.360083 
L 260.240986 182.466746 
L 266.655548 227.851523 
L 269.862828 249.006357 
L 273.070109 268.403024 
L 275.208296 280.185329 
L 277.346484 290.976764 
L 279.484671 300.750172 
L 281.622858 309.505361 
L 283.761045 317.265204 
L 285.899232 324.071445 
L 288.037419 329.980456 
L 290.175607 335.059132 
L 292.313794 339.381087 
L 294.451981 343.023274 
L 296.590168 346.063098 
L 298.728355 348.576053 
L 300.866542 350.633896 
L 303.00473 352.303325 
L 305.142917 353.645118 
L 307.281104 354.713669 
L 309.419291 355.556857 
L 311.557478 356.21618 
L 314.764759 356.936413 
L 317.97204 357.41804 
L 322.248414 357.811703 
L 327.593882 358.064241 
L 332.93935 358.177596 
L 332.93935 358.177596 
" style="fill:none;stroke:#5e3c99;stroke-linecap:round;stroke-width:5;"/>
   </g>
   <g id="patch_121">
    <path d="M 86.570219 358.256625 
L 86.570219 32.096625 
" style="fill:none;stroke:#262626;stroke-linecap:square;stroke-linejoin:miter;stroke-width:2.5;"/>
   </g>
   <g id="patch_122">
    <path d="M 86.570219 358.256625 
L 390.933855 358.256625 
" style="fill:none;stroke:#262626;stroke-linecap:square;stroke-linejoin:miter;stroke-width:2.5;"/>
   </g>
   <g id="text_9">
    <!-- memory angle error -->
    <defs>
     <path d="M 6.59375 0 
L 6.59375 51.859375 
L 14.453125 51.859375 
L 14.453125 44.578125 
Q 16.890625 48.390625 20.9375 50.703125 
Q 25 53.03125 30.171875 53.03125 
Q 35.9375 53.03125 39.625 50.640625 
Q 43.3125 48.25 44.828125 43.953125 
Q 50.984375 53.03125 60.84375 53.03125 
Q 68.5625 53.03125 72.703125 48.75 
Q 76.859375 44.484375 76.859375 35.59375 
L 76.859375 0 
L 68.109375 0 
L 68.109375 32.671875 
Q 68.109375 37.9375 67.25 40.25 
Q 66.40625 42.578125 64.15625 43.984375 
Q 61.921875 45.40625 58.890625 45.40625 
Q 53.421875 45.40625 49.796875 41.765625 
Q 46.1875 38.140625 46.1875 30.125 
L 46.1875 0 
L 37.40625 0 
L 37.40625 33.6875 
Q 37.40625 39.546875 35.25 42.46875 
Q 33.109375 45.40625 28.21875 45.40625 
Q 24.515625 45.40625 21.359375 43.453125 
Q 18.21875 41.5 16.796875 37.734375 
Q 15.375 33.984375 15.375 26.90625 
L 15.375 0 
z
" id="ArialMT-109"/>
    </defs>
    <g style="fill:#262626;" transform="translate(123.590287 26.096625)scale(0.264 -0.264)">
     <use xlink:href="#ArialMT-109"/>
     <use x="83.300781" xlink:href="#ArialMT-101"/>
     <use x="138.916016" xlink:href="#ArialMT-109"/>
     <use x="222.216797" xlink:href="#ArialMT-111"/>
     <use x="277.832031" xlink:href="#ArialMT-114"/>
     <use x="311.132812" xlink:href="#ArialMT-121"/>
     <use x="361.132812" xlink:href="#ArialMT-32"/>
     <use x="388.916016" xlink:href="#ArialMT-97"/>
     <use x="444.53125" xlink:href="#ArialMT-110"/>
     <use x="500.146484" xlink:href="#ArialMT-103"/>
     <use x="555.761719" xlink:href="#ArialMT-108"/>
     <use x="577.978516" xlink:href="#ArialMT-101"/>
     <use x="633.59375" xlink:href="#ArialMT-32"/>
     <use x="661.376953" xlink:href="#ArialMT-101"/>
     <use x="716.992188" xlink:href="#ArialMT-114"/>
     <use x="750.292969" xlink:href="#ArialMT-114"/>
     <use x="783.59375" xlink:href="#ArialMT-111"/>
     <use x="839.208984" xlink:href="#ArialMT-114"/>
    </g>
   </g>
   <g id="legend_1">
    <g id="text_10">
     <!-- radius 1: k=300 -->
     <defs>
      <path d="M 40.234375 0 
L 40.234375 6.546875 
Q 35.296875 -1.171875 25.734375 -1.171875 
Q 19.53125 -1.171875 14.328125 2.25 
Q 9.125 5.671875 6.265625 11.796875 
Q 3.421875 17.921875 3.421875 25.875 
Q 3.421875 33.640625 6 39.96875 
Q 8.59375 46.296875 13.765625 49.65625 
Q 18.953125 53.03125 25.34375 53.03125 
Q 30.03125 53.03125 33.6875 51.046875 
Q 37.359375 49.078125 39.65625 45.90625 
L 39.65625 71.578125 
L 48.390625 71.578125 
L 48.390625 0 
z
M 12.453125 25.875 
Q 12.453125 15.921875 16.640625 10.984375 
Q 20.84375 6.0625 26.5625 6.0625 
Q 32.328125 6.0625 36.34375 10.765625 
Q 40.375 15.484375 40.375 25.140625 
Q 40.375 35.796875 36.265625 40.765625 
Q 32.171875 45.75 26.171875 45.75 
Q 20.3125 45.75 16.375 40.96875 
Q 12.453125 36.1875 12.453125 25.875 
z
" id="ArialMT-100"/>
      <path d="M 6.640625 61.46875 
L 6.640625 71.578125 
L 15.4375 71.578125 
L 15.4375 61.46875 
z
M 6.640625 0 
L 6.640625 51.859375 
L 15.4375 51.859375 
L 15.4375 0 
z
" id="ArialMT-105"/>
      <path d="M 3.078125 15.484375 
L 11.765625 16.84375 
Q 12.5 11.625 15.84375 8.84375 
Q 19.1875 6.0625 25.203125 6.0625 
Q 31.25 6.0625 34.171875 8.515625 
Q 37.109375 10.984375 37.109375 14.3125 
Q 37.109375 17.28125 34.515625 19 
Q 32.71875 20.171875 25.53125 21.96875 
Q 15.875 24.421875 12.140625 26.203125 
Q 8.40625 27.984375 6.46875 31.125 
Q 4.546875 34.28125 4.546875 38.09375 
Q 4.546875 41.546875 6.125 44.5 
Q 7.71875 47.46875 10.453125 49.421875 
Q 12.5 50.921875 16.03125 51.96875 
Q 19.578125 53.03125 23.640625 53.03125 
Q 29.734375 53.03125 34.34375 51.265625 
Q 38.96875 49.515625 41.15625 46.5 
Q 43.359375 43.5 44.1875 38.484375 
L 35.59375 37.3125 
Q 35.015625 41.3125 32.203125 43.546875 
Q 29.390625 45.796875 24.265625 45.796875 
Q 18.21875 45.796875 15.625 43.796875 
Q 13.03125 41.796875 13.03125 39.109375 
Q 13.03125 37.40625 14.109375 36.03125 
Q 15.1875 34.625 17.484375 33.6875 
Q 18.796875 33.203125 25.25 31.453125 
Q 34.578125 28.953125 38.25 27.359375 
Q 41.9375 25.78125 44.03125 22.75 
Q 46.140625 19.734375 46.140625 15.234375 
Q 46.140625 10.84375 43.578125 6.953125 
Q 41.015625 3.078125 36.171875 0.953125 
Q 31.34375 -1.171875 25.25 -1.171875 
Q 15.140625 -1.171875 9.84375 3.03125 
Q 4.546875 7.234375 3.078125 15.484375 
z
" id="ArialMT-115"/>
      <path d="M 9.03125 41.84375 
L 9.03125 51.859375 
L 19.046875 51.859375 
L 19.046875 41.84375 
z
M 9.03125 0 
L 9.03125 10.015625 
L 19.046875 10.015625 
L 19.046875 0 
z
" id="ArialMT-58"/>
      <path d="M 6.640625 0 
L 6.640625 71.578125 
L 15.4375 71.578125 
L 15.4375 30.765625 
L 36.234375 51.859375 
L 47.609375 51.859375 
L 27.78125 32.625 
L 49.609375 0 
L 38.765625 0 
L 21.625 26.515625 
L 15.4375 20.5625 
L 15.4375 0 
z
" id="ArialMT-107"/>
      <path d="M 52.828125 42.09375 
L 5.5625 42.09375 
L 5.5625 50.296875 
L 52.828125 50.296875 
z
M 52.828125 20.359375 
L 5.5625 20.359375 
L 5.5625 28.5625 
L 52.828125 28.5625 
z
" id="ArialMT-61"/>
      <path d="M 4.203125 18.890625 
L 12.984375 20.0625 
Q 14.5 12.59375 18.140625 9.296875 
Q 21.78125 6 27 6 
Q 33.203125 6 37.46875 10.296875 
Q 41.75 14.59375 41.75 20.953125 
Q 41.75 27 37.796875 30.921875 
Q 33.84375 34.859375 27.734375 34.859375 
Q 25.25 34.859375 21.53125 33.890625 
L 22.515625 41.609375 
Q 23.390625 41.5 23.921875 41.5 
Q 29.546875 41.5 34.03125 44.421875 
Q 38.53125 47.359375 38.53125 53.46875 
Q 38.53125 58.296875 35.25 61.46875 
Q 31.984375 64.65625 26.8125 64.65625 
Q 21.6875 64.65625 18.265625 61.421875 
Q 14.84375 58.203125 13.875 51.765625 
L 5.078125 53.328125 
Q 6.6875 62.15625 12.390625 67.015625 
Q 18.109375 71.875 26.609375 71.875 
Q 32.46875 71.875 37.390625 69.359375 
Q 42.328125 66.84375 44.9375 62.5 
Q 47.5625 58.15625 47.5625 53.265625 
Q 47.5625 48.640625 45.0625 44.828125 
Q 42.578125 41.015625 37.703125 38.765625 
Q 44.046875 37.3125 47.5625 32.6875 
Q 51.078125 28.078125 51.078125 21.140625 
Q 51.078125 11.765625 44.234375 5.25 
Q 37.40625 -1.265625 26.953125 -1.265625 
Q 17.53125 -1.265625 11.296875 4.34375 
Q 5.078125 9.96875 4.203125 18.890625 
z
" id="ArialMT-51"/>
     </defs>
     <g style="fill:#e66101;" transform="translate(251.15823 61.180687)scale(0.18 -0.18)">
      <use xlink:href="#ArialMT-114"/>
      <use x="33.300781" xlink:href="#ArialMT-97"/>
      <use x="88.916016" xlink:href="#ArialMT-100"/>
      <use x="144.53125" xlink:href="#ArialMT-105"/>
      <use x="166.748047" xlink:href="#ArialMT-117"/>
      <use x="222.363281" xlink:href="#ArialMT-115"/>
      <use x="272.363281" xlink:href="#ArialMT-32"/>
      <use x="300.146484" xlink:href="#ArialMT-49"/>
      <use x="355.761719" xlink:href="#ArialMT-58"/>
      <use x="383.544922" xlink:href="#ArialMT-32"/>
      <use x="411.328125" xlink:href="#ArialMT-107"/>
      <use x="461.328125" xlink:href="#ArialMT-61"/>
      <use x="519.726562" xlink:href="#ArialMT-51"/>
      <use x="575.341797" xlink:href="#ArialMT-48"/>
      <use x="630.957031" xlink:href="#ArialMT-48"/>
     </g>
    </g>
    <g id="text_11">
     <!-- radius 3: k=225 -->
     <g style="fill:#5e3c99;" transform="translate(251.15823 86.64225)scale(0.18 -0.18)">
      <use xlink:href="#ArialMT-114"/>
      <use x="33.300781" xlink:href="#ArialMT-97"/>
      <use x="88.916016" xlink:href="#ArialMT-100"/>
      <use x="144.53125" xlink:href="#ArialMT-105"/>
      <use x="166.748047" xlink:href="#ArialMT-117"/>
      <use x="222.363281" xlink:href="#ArialMT-115"/>
      <use x="272.363281" xlink:href="#ArialMT-32"/>
      <use x="300.146484" xlink:href="#ArialMT-51"/>
      <use x="355.761719" xlink:href="#ArialMT-58"/>
      <use x="383.544922" xlink:href="#ArialMT-32"/>
      <use x="411.328125" xlink:href="#ArialMT-107"/>
      <use x="461.328125" xlink:href="#ArialMT-61"/>
      <use x="519.726562" xlink:href="#ArialMT-50"/>
      <use x="575.341797" xlink:href="#ArialMT-50"/>
      <use x="630.957031" xlink:href="#ArialMT-53"/>
     </g>
    </g>
   </g>
  </g>
 </g>
 <defs>
  <clipPath id="p723b702ed2">
   <rect height="326.16" width="304.363636" x="86.570219" y="32.096625"/>
  </clipPath>
 </defs>
</svg>
