<?xml version="1.0" encoding="utf-8" standalone="no"?>
<!DOCTYPE svg PUBLIC "-//W3C//DTD SVG 1.1//EN"
  "http://www.w3.org/Graphics/SVG/1.1/DTD/svg11.dtd">
<!-- Created with matplotlib (https://matplotlib.org/) -->
<svg height="282.368281pt" version="1.1" viewBox="0 0 403.237469 282.368281" width="403.237469pt" xmlns="http://www.w3.org/2000/svg" xmlns:xlink="http://www.w3.org/1999/xlink">
 <defs>
  <style type="text/css">
*{stroke-linecap:butt;stroke-linejoin:round;}
  </style>
 </defs>
 <g id="figure_1">
  <g id="patch_1">
   <path d="M 0 282.368281 
L 403.237469 282.368281 
L 403.237469 0 
L 0 0 
z
" style="fill:none;"/>
  </g>
  <g id="axes_1">
   <g id="patch_2">
    <path d="M 53.237469 249.536625 
L 388.037469 249.536625 
L 388.037469 32.096625 
L 53.237469 32.096625 
z
" style="fill:#ffffff;"/>
   </g>
   <g id="matplotlib.axis_1">
    <g id="xtick_1">
     <g id="line2d_1">
      <defs>
       <path d="M 0 0 
L 0 -12 
" id="m85bcb57eb5" style="stroke:#262626;stroke-width:2.5;"/>
      </defs>
      <g>
       <use style="fill:#262626;stroke:#262626;stroke-width:2.5;" x="109.037469" xlink:href="#m85bcb57eb5" y="249.536625"/>
      </g>
     </g>
     <g id="text_1">
      <!-- radius 1 -->
      <defs>
       <path d="M 6.5 0 
L 6.5 51.859375 
L 14.40625 51.859375 
L 14.40625 44 
Q 17.4375 49.515625 20 51.265625 
Q 22.5625 53.03125 25.640625 53.03125 
Q 30.078125 53.03125 34.671875 50.203125 
L 31.640625 42.046875 
Q 28.421875 43.953125 25.203125 43.953125 
Q 22.3125 43.953125 20.015625 42.21875 
Q 17.71875 40.484375 16.75 37.40625 
Q 15.28125 32.71875 15.28125 27.15625 
L 15.28125 0 
z
" id="ArialMT-114"/>
       <path d="M 40.4375 6.390625 
Q 35.546875 2.25 31.03125 0.53125 
Q 26.515625 -1.171875 21.34375 -1.171875 
Q 12.796875 -1.171875 8.203125 3 
Q 3.609375 7.171875 3.609375 13.671875 
Q 3.609375 17.484375 5.34375 20.625 
Q 7.078125 23.78125 9.890625 25.6875 
Q 12.703125 27.59375 16.21875 28.5625 
Q 18.796875 29.25 24.03125 29.890625 
Q 34.671875 31.15625 39.703125 32.90625 
Q 39.75 34.71875 39.75 35.203125 
Q 39.75 40.578125 37.25 42.78125 
Q 33.890625 45.75 27.25 45.75 
Q 21.046875 45.75 18.09375 43.578125 
Q 15.140625 41.40625 13.71875 35.890625 
L 5.125 37.0625 
Q 6.296875 42.578125 8.984375 45.96875 
Q 11.671875 49.359375 16.75 51.1875 
Q 21.828125 53.03125 28.515625 53.03125 
Q 35.15625 53.03125 39.296875 51.46875 
Q 43.453125 49.90625 45.40625 47.53125 
Q 47.359375 45.171875 48.140625 41.546875 
Q 48.578125 39.3125 48.578125 33.453125 
L 48.578125 21.734375 
Q 48.578125 9.46875 49.140625 6.21875 
Q 49.703125 2.984375 51.375 0 
L 42.1875 0 
Q 40.828125 2.734375 40.4375 6.390625 
z
M 39.703125 26.03125 
Q 34.90625 24.078125 25.34375 22.703125 
Q 19.921875 21.921875 17.671875 20.9375 
Q 15.4375 19.96875 14.203125 18.09375 
Q 12.984375 16.21875 12.984375 13.921875 
Q 12.984375 10.40625 15.640625 8.0625 
Q 18.3125 5.71875 23.4375 5.71875 
Q 28.515625 5.71875 32.46875 7.9375 
Q 36.421875 10.15625 38.28125 14.015625 
Q 39.703125 17 39.703125 22.796875 
z
" id="ArialMT-97"/>
       <path d="M 40.234375 0 
L 40.234375 6.546875 
Q 35.296875 -1.171875 25.734375 -1.171875 
Q 19.53125 -1.171875 14.328125 2.25 
Q 9.125 5.671875 6.265625 11.796875 
Q 3.421875 17.921875 3.421875 25.875 
Q 3.421875 33.640625 6 39.96875 
Q 8.59375 46.296875 13.765625 49.65625 
Q 18.953125 53.03125 25.34375 53.03125 
Q 30.03125 53.03125 33.6875 51.046875 
Q 37.359375 49.078125 39.65625 45.90625 
L 39.65625 71.578125 
L 48.390625 71.578125 
L 48.390625 0 
z
M 12.453125 25.875 
Q 12.453125 15.921875 16.640625 10.984375 
Q 20.84375 6.0625 26.5625 6.0625 
Q 32.328125 6.0625 36.34375 10.765625 
Q 40.375 15.484375 40.375 25.140625 
Q 40.375 35.796875 36.265625 40.765625 
Q 32.171875 45.75 26.171875 45.75 
Q 20.3125 45.75 16.375 40.96875 
Q 12.453125 36.1875 12.453125 25.875 
z
" id="ArialMT-100"/>
       <path d="M 6.640625 61.46875 
L 6.640625 71.578125 
L 15.4375 71.578125 
L 15.4375 61.46875 
z
M 6.640625 0 
L 6.640625 51.859375 
L 15.4375 51.859375 
L 15.4375 0 
z
" id="ArialMT-105"/>
       <path d="M 40.578125 0 
L 40.578125 7.625 
Q 34.515625 -1.171875 24.125 -1.171875 
Q 19.53125 -1.171875 15.546875 0.578125 
Q 11.578125 2.34375 9.640625 5 
Q 7.71875 7.671875 6.9375 11.53125 
Q 6.390625 14.109375 6.390625 19.734375 
L 6.390625 51.859375 
L 15.1875 51.859375 
L 15.1875 23.09375 
Q 15.1875 16.21875 15.71875 13.8125 
Q 16.546875 10.359375 19.234375 8.375 
Q 21.921875 6.390625 25.875 6.390625 
Q 29.828125 6.390625 33.296875 8.421875 
Q 36.765625 10.453125 38.203125 13.9375 
Q 39.65625 17.4375 39.65625 24.078125 
L 39.65625 51.859375 
L 48.4375 51.859375 
L 48.4375 0 
z
" id="ArialMT-117"/>
       <path d="M 3.078125 15.484375 
L 11.765625 16.84375 
Q 12.5 11.625 15.84375 8.84375 
Q 19.1875 6.0625 25.203125 6.0625 
Q 31.25 6.0625 34.171875 8.515625 
Q 37.109375 10.984375 37.109375 14.3125 
Q 37.109375 17.28125 34.515625 19 
Q 32.71875 20.171875 25.53125 21.96875 
Q 15.875 24.421875 12.140625 26.203125 
Q 8.40625 27.984375 6.46875 31.125 
Q 4.546875 34.28125 4.546875 38.09375 
Q 4.546875 41.546875 6.125 44.5 
Q 7.71875 47.46875 10.453125 49.421875 
Q 12.5 50.921875 16.03125 51.96875 
Q 19.578125 53.03125 23.640625 53.03125 
Q 29.734375 53.03125 34.34375 51.265625 
Q 38.96875 49.515625 41.15625 46.5 
Q 43.359375 43.5 44.1875 38.484375 
L 35.59375 37.3125 
Q 35.015625 41.3125 32.203125 43.546875 
Q 29.390625 45.796875 24.265625 45.796875 
Q 18.21875 45.796875 15.625 43.796875 
Q 13.03125 41.796875 13.03125 39.109375 
Q 13.03125 37.40625 14.109375 36.03125 
Q 15.1875 34.625 17.484375 33.6875 
Q 18.796875 33.203125 25.25 31.453125 
Q 34.578125 28.953125 38.25 27.359375 
Q 41.9375 25.78125 44.03125 22.75 
Q 46.140625 19.734375 46.140625 15.234375 
Q 46.140625 10.84375 43.578125 6.953125 
Q 41.015625 3.078125 36.171875 0.953125 
Q 31.34375 -1.171875 25.25 -1.171875 
Q 15.140625 -1.171875 9.84375 3.03125 
Q 4.546875 7.234375 3.078125 15.484375 
z
" id="ArialMT-115"/>
       <path id="ArialMT-32"/>
       <path d="M 37.25 0 
L 28.46875 0 
L 28.46875 56 
Q 25.296875 52.984375 20.140625 49.953125 
Q 14.984375 46.921875 10.890625 45.40625 
L 10.890625 53.90625 
Q 18.265625 57.375 23.78125 62.296875 
Q 29.296875 67.234375 31.59375 71.875 
L 37.25 71.875 
z
" id="ArialMT-49"/>
      </defs>
      <g style="fill:#262626;" transform="translate(65.993609 270.358531)scale(0.242 -0.242)">
       <use xlink:href="#ArialMT-114"/>
       <use x="33.300781" xlink:href="#ArialMT-97"/>
       <use x="88.916016" xlink:href="#ArialMT-100"/>
       <use x="144.53125" xlink:href="#ArialMT-105"/>
       <use x="166.748047" xlink:href="#ArialMT-117"/>
       <use x="222.363281" xlink:href="#ArialMT-115"/>
       <use x="272.363281" xlink:href="#ArialMT-32"/>
       <use x="300.146484" xlink:href="#ArialMT-49"/>
      </g>
     </g>
    </g>
    <g id="xtick_2">
     <g id="line2d_2">
      <g>
       <use style="fill:#262626;stroke:#262626;stroke-width:2.5;" x="220.637469" xlink:href="#m85bcb57eb5" y="249.536625"/>
      </g>
     </g>
     <g id="text_2">
      <!-- radius 2 -->
      <defs>
       <path d="M 50.34375 8.453125 
L 50.34375 0 
L 3.03125 0 
Q 2.9375 3.171875 4.046875 6.109375 
Q 5.859375 10.9375 9.828125 15.625 
Q 13.8125 20.3125 21.34375 26.46875 
Q 33.015625 36.03125 37.109375 41.625 
Q 41.21875 47.21875 41.21875 52.203125 
Q 41.21875 57.421875 37.46875 61 
Q 33.734375 64.59375 27.734375 64.59375 
Q 21.390625 64.59375 17.578125 60.78125 
Q 13.765625 56.984375 13.71875 50.25 
L 4.6875 51.171875 
Q 5.609375 61.28125 11.65625 66.578125 
Q 17.71875 71.875 27.9375 71.875 
Q 38.234375 71.875 44.234375 66.15625 
Q 50.25 60.453125 50.25 52 
Q 50.25 47.703125 48.484375 43.546875 
Q 46.734375 39.40625 42.65625 34.8125 
Q 38.578125 30.21875 29.109375 22.21875 
Q 21.1875 15.578125 18.9375 13.203125 
Q 16.703125 10.84375 15.234375 8.453125 
z
" id="ArialMT-50"/>
      </defs>
      <g style="fill:#262626;" transform="translate(177.593609 270.358531)scale(0.242 -0.242)">
       <use xlink:href="#ArialMT-114"/>
       <use x="33.300781" xlink:href="#ArialMT-97"/>
       <use x="88.916016" xlink:href="#ArialMT-100"/>
       <use x="144.53125" xlink:href="#ArialMT-105"/>
       <use x="166.748047" xlink:href="#ArialMT-117"/>
       <use x="222.363281" xlink:href="#ArialMT-115"/>
       <use x="272.363281" xlink:href="#ArialMT-32"/>
       <use x="300.146484" xlink:href="#ArialMT-50"/>
      </g>
     </g>
    </g>
    <g id="xtick_3">
     <g id="line2d_3">
      <g>
       <use style="fill:#262626;stroke:#262626;stroke-width:2.5;" x="332.237469" xlink:href="#m85bcb57eb5" y="249.536625"/>
      </g>
     </g>
     <g id="text_3">
      <!-- radius 3 -->
      <defs>
       <path d="M 4.203125 18.890625 
L 12.984375 20.0625 
Q 14.5 12.59375 18.140625 9.296875 
Q 21.78125 6 27 6 
Q 33.203125 6 37.46875 10.296875 
Q 41.75 14.59375 41.75 20.953125 
Q 41.75 27 37.796875 30.921875 
Q 33.84375 34.859375 27.734375 34.859375 
Q 25.25 34.859375 21.53125 33.890625 
L 22.515625 41.609375 
Q 23.390625 41.5 23.921875 41.5 
Q 29.546875 41.5 34.03125 44.421875 
Q 38.53125 47.359375 38.53125 53.46875 
Q 38.53125 58.296875 35.25 61.46875 
Q 31.984375 64.65625 26.8125 64.65625 
Q 21.6875 64.65625 18.265625 61.421875 
Q 14.84375 58.203125 13.875 51.765625 
L 5.078125 53.328125 
Q 6.6875 62.15625 12.390625 67.015625 
Q 18.109375 71.875 26.609375 71.875 
Q 32.46875 71.875 37.390625 69.359375 
Q 42.328125 66.84375 44.9375 62.5 
Q 47.5625 58.15625 47.5625 53.265625 
Q 47.5625 48.640625 45.0625 44.828125 
Q 42.578125 41.015625 37.703125 38.765625 
Q 44.046875 37.3125 47.5625 32.6875 
Q 51.078125 28.078125 51.078125 21.140625 
Q 51.078125 11.765625 44.234375 5.25 
Q 37.40625 -1.265625 26.953125 -1.265625 
Q 17.53125 -1.265625 11.296875 4.34375 
Q 5.078125 9.96875 4.203125 18.890625 
z
" id="ArialMT-51"/>
      </defs>
      <g style="fill:#262626;" transform="translate(289.193609 270.358531)scale(0.242 -0.242)">
       <use xlink:href="#ArialMT-114"/>
       <use x="33.300781" xlink:href="#ArialMT-97"/>
       <use x="88.916016" xlink:href="#ArialMT-100"/>
       <use x="144.53125" xlink:href="#ArialMT-105"/>
       <use x="166.748047" xlink:href="#ArialMT-117"/>
       <use x="222.363281" xlink:href="#ArialMT-115"/>
       <use x="272.363281" xlink:href="#ArialMT-32"/>
       <use x="300.146484" xlink:href="#ArialMT-51"/>
      </g>
     </g>
    </g>
   </g>
   <g id="matplotlib.axis_2">
    <g id="ytick_1">
     <g id="line2d_4">
      <defs>
       <path d="M 0 0 
L 12 0 
" id="m18d590151c" style="stroke:#262626;stroke-width:2.5;"/>
      </defs>
      <g>
       <use style="fill:#262626;stroke:#262626;stroke-width:2.5;" x="53.237469" xlink:href="#m18d590151c" y="218.473768"/>
      </g>
     </g>
     <g id="text_4">
      <!-- 2 -->
      <g style="fill:#262626;" transform="translate(36.28 227.134721)scale(0.242 -0.242)">
       <use xlink:href="#ArialMT-50"/>
      </g>
     </g>
    </g>
    <g id="ytick_2">
     <g id="line2d_5">
      <g>
       <use style="fill:#262626;stroke:#262626;stroke-width:2.5;" x="53.237469" xlink:href="#m18d590151c" y="156.348054"/>
      </g>
     </g>
     <g id="text_5">
      <!-- 4 -->
      <defs>
       <path d="M 32.328125 0 
L 32.328125 17.140625 
L 1.265625 17.140625 
L 1.265625 25.203125 
L 33.9375 71.578125 
L 41.109375 71.578125 
L 41.109375 25.203125 
L 50.78125 25.203125 
L 50.78125 17.140625 
L 41.109375 17.140625 
L 41.109375 0 
z
M 32.328125 25.203125 
L 32.328125 57.46875 
L 9.90625 25.203125 
z
" id="ArialMT-52"/>
      </defs>
      <g style="fill:#262626;" transform="translate(36.28 165.009007)scale(0.242 -0.242)">
       <use xlink:href="#ArialMT-52"/>
      </g>
     </g>
    </g>
    <g id="ytick_3">
     <g id="line2d_6">
      <g>
       <use style="fill:#262626;stroke:#262626;stroke-width:2.5;" x="53.237469" xlink:href="#m18d590151c" y="94.222339"/>
      </g>
     </g>
     <g id="text_6">
      <!-- 6 -->
      <defs>
       <path d="M 49.75 54.046875 
L 41.015625 53.375 
Q 39.84375 58.546875 37.703125 60.890625 
Q 34.125 64.65625 28.90625 64.65625 
Q 24.703125 64.65625 21.53125 62.3125 
Q 17.390625 59.28125 14.984375 53.46875 
Q 12.59375 47.65625 12.5 36.921875 
Q 15.671875 41.75 20.265625 44.09375 
Q 24.859375 46.4375 29.890625 46.4375 
Q 38.671875 46.4375 44.84375 39.96875 
Q 51.03125 33.5 51.03125 23.25 
Q 51.03125 16.5 48.125 10.71875 
Q 45.21875 4.9375 40.140625 1.859375 
Q 35.0625 -1.21875 28.609375 -1.21875 
Q 17.625 -1.21875 10.6875 6.859375 
Q 3.765625 14.9375 3.765625 33.5 
Q 3.765625 54.25 11.421875 63.671875 
Q 18.109375 71.875 29.4375 71.875 
Q 37.890625 71.875 43.28125 67.140625 
Q 48.6875 62.40625 49.75 54.046875 
z
M 13.875 23.1875 
Q 13.875 18.65625 15.796875 14.5 
Q 17.71875 10.359375 21.1875 8.171875 
Q 24.65625 6 28.46875 6 
Q 34.03125 6 38.03125 10.484375 
Q 42.046875 14.984375 42.046875 22.703125 
Q 42.046875 30.125 38.078125 34.390625 
Q 34.125 38.671875 28.125 38.671875 
Q 22.171875 38.671875 18.015625 34.390625 
Q 13.875 30.125 13.875 23.1875 
z
" id="ArialMT-54"/>
      </defs>
      <g style="fill:#262626;" transform="translate(36.28 102.883292)scale(0.242 -0.242)">
       <use xlink:href="#ArialMT-54"/>
      </g>
     </g>
    </g>
    <g id="ytick_4">
     <g id="line2d_7">
      <g>
       <use style="fill:#262626;stroke:#262626;stroke-width:2.5;" x="53.237469" xlink:href="#m18d590151c" y="32.096625"/>
      </g>
     </g>
     <g id="text_7">
      <!-- 8 -->
      <defs>
       <path d="M 17.671875 38.8125 
Q 12.203125 40.828125 9.5625 44.53125 
Q 6.9375 48.25 6.9375 53.421875 
Q 6.9375 61.234375 12.546875 66.546875 
Q 18.171875 71.875 27.484375 71.875 
Q 36.859375 71.875 42.578125 66.421875 
Q 48.296875 60.984375 48.296875 53.171875 
Q 48.296875 48.1875 45.671875 44.5 
Q 43.0625 40.828125 37.75 38.8125 
Q 44.34375 36.671875 47.78125 31.875 
Q 51.21875 27.09375 51.21875 20.453125 
Q 51.21875 11.28125 44.71875 5.03125 
Q 38.234375 -1.21875 27.640625 -1.21875 
Q 17.046875 -1.21875 10.546875 5.046875 
Q 4.046875 11.328125 4.046875 20.703125 
Q 4.046875 27.6875 7.59375 32.390625 
Q 11.140625 37.109375 17.671875 38.8125 
z
M 15.921875 53.71875 
Q 15.921875 48.640625 19.1875 45.40625 
Q 22.46875 42.1875 27.6875 42.1875 
Q 32.765625 42.1875 36.015625 45.375 
Q 39.265625 48.578125 39.265625 53.21875 
Q 39.265625 58.0625 35.90625 61.359375 
Q 32.5625 64.65625 27.59375 64.65625 
Q 22.5625 64.65625 19.234375 61.421875 
Q 15.921875 58.203125 15.921875 53.71875 
z
M 13.09375 20.65625 
Q 13.09375 16.890625 14.875 13.375 
Q 16.65625 9.859375 20.171875 7.921875 
Q 23.6875 6 27.734375 6 
Q 34.03125 6 38.125 10.046875 
Q 42.234375 14.109375 42.234375 20.359375 
Q 42.234375 26.703125 38.015625 30.859375 
Q 33.796875 35.015625 27.4375 35.015625 
Q 21.234375 35.015625 17.15625 30.90625 
Q 13.09375 26.8125 13.09375 20.65625 
z
" id="ArialMT-56"/>
      </defs>
      <g style="fill:#262626;" transform="translate(36.28 40.757578)scale(0.242 -0.242)">
       <use xlink:href="#ArialMT-56"/>
      </g>
     </g>
    </g>
    <g id="text_8">
     <!-- abs error ($^\circ$) -->
     <defs>
      <path d="M 14.703125 0 
L 6.546875 0 
L 6.546875 71.578125 
L 15.328125 71.578125 
L 15.328125 46.046875 
Q 20.90625 53.03125 29.546875 53.03125 
Q 34.328125 53.03125 38.59375 51.09375 
Q 42.875 49.171875 45.625 45.671875 
Q 48.390625 42.1875 49.953125 37.25 
Q 51.515625 32.328125 51.515625 26.703125 
Q 51.515625 13.375 44.921875 6.09375 
Q 38.328125 -1.171875 29.109375 -1.171875 
Q 19.921875 -1.171875 14.703125 6.5 
z
M 14.59375 26.3125 
Q 14.59375 17 17.140625 12.84375 
Q 21.296875 6.0625 28.375 6.0625 
Q 34.125 6.0625 38.328125 11.0625 
Q 42.53125 16.0625 42.53125 25.984375 
Q 42.53125 36.140625 38.5 40.96875 
Q 34.46875 45.796875 28.765625 45.796875 
Q 23 45.796875 18.796875 40.796875 
Q 14.59375 35.796875 14.59375 26.3125 
z
" id="ArialMT-98"/>
      <path d="M 42.09375 16.703125 
L 51.171875 15.578125 
Q 49.03125 7.625 43.21875 3.21875 
Q 37.40625 -1.171875 28.375 -1.171875 
Q 17 -1.171875 10.328125 5.828125 
Q 3.65625 12.84375 3.65625 25.484375 
Q 3.65625 38.578125 10.390625 45.796875 
Q 17.140625 53.03125 27.875 53.03125 
Q 38.28125 53.03125 44.875 45.953125 
Q 51.46875 38.875 51.46875 26.03125 
Q 51.46875 25.25 51.421875 23.6875 
L 12.75 23.6875 
Q 13.234375 15.140625 17.578125 10.59375 
Q 21.921875 6.0625 28.421875 6.0625 
Q 33.25 6.0625 36.671875 8.59375 
Q 40.09375 11.140625 42.09375 16.703125 
z
M 13.234375 30.90625 
L 42.1875 30.90625 
Q 41.609375 37.453125 38.875 40.71875 
Q 34.671875 45.796875 27.984375 45.796875 
Q 21.921875 45.796875 17.796875 41.75 
Q 13.671875 37.703125 13.234375 30.90625 
z
" id="ArialMT-101"/>
      <path d="M 3.328125 25.921875 
Q 3.328125 40.328125 11.328125 47.265625 
Q 18.015625 53.03125 27.640625 53.03125 
Q 38.328125 53.03125 45.109375 46.015625 
Q 51.90625 39.015625 51.90625 26.65625 
Q 51.90625 16.65625 48.90625 10.90625 
Q 45.90625 5.171875 40.15625 2 
Q 34.421875 -1.171875 27.640625 -1.171875 
Q 16.75 -1.171875 10.03125 5.8125 
Q 3.328125 12.796875 3.328125 25.921875 
z
M 12.359375 25.921875 
Q 12.359375 15.96875 16.703125 11.015625 
Q 21.046875 6.0625 27.640625 6.0625 
Q 34.1875 6.0625 38.53125 11.03125 
Q 42.875 16.015625 42.875 26.21875 
Q 42.875 35.84375 38.5 40.796875 
Q 34.125 45.75 27.640625 45.75 
Q 21.046875 45.75 16.703125 40.8125 
Q 12.359375 35.890625 12.359375 25.921875 
z
" id="ArialMT-111"/>
      <path d="M 23.390625 -21.046875 
Q 16.109375 -11.859375 11.078125 0.4375 
Q 6.0625 12.75 6.0625 25.921875 
Q 6.0625 37.546875 9.8125 48.1875 
Q 14.203125 60.546875 23.390625 72.796875 
L 29.6875 72.796875 
Q 23.78125 62.640625 21.875 58.296875 
Q 18.890625 51.5625 17.1875 44.234375 
Q 15.09375 35.109375 15.09375 25.875 
Q 15.09375 2.390625 29.6875 -21.046875 
z
" id="ArialMT-40"/>
      <path d="M 31.296875 40.671875 
Q 27.390625 40.671875 24.703125 37.953125 
Q 22.015625 35.25 22.015625 31.34375 
Q 22.015625 27.484375 24.703125 24.828125 
Q 27.390625 22.171875 31.296875 22.171875 
Q 35.203125 22.171875 37.890625 24.828125 
Q 40.578125 27.484375 40.578125 31.34375 
Q 40.578125 35.203125 37.859375 37.9375 
Q 35.15625 40.671875 31.296875 40.671875 
z
M 31.296875 46.96875 
Q 34.421875 46.96875 37.296875 45.765625 
Q 40.1875 44.578125 42.28125 42.328125 
Q 44.53125 40.140625 45.65625 37.34375 
Q 46.78125 34.5625 46.78125 31.34375 
Q 46.78125 24.90625 42.265625 20.4375 
Q 37.75 15.96875 31.203125 15.96875 
Q 24.609375 15.96875 20.21875 20.359375 
Q 15.828125 24.75 15.828125 31.34375 
Q 15.828125 37.890625 20.3125 42.421875 
Q 24.8125 46.96875 31.296875 46.96875 
z
" id="DejaVuSans-8728"/>
      <path d="M 12.359375 -21.046875 
L 6.0625 -21.046875 
Q 20.65625 2.390625 20.65625 25.875 
Q 20.65625 35.0625 18.5625 44.09375 
Q 16.890625 51.421875 13.921875 58.15625 
Q 12.015625 62.546875 6.0625 72.796875 
L 12.359375 72.796875 
Q 21.53125 60.546875 25.921875 48.1875 
Q 29.6875 37.546875 29.6875 25.921875 
Q 29.6875 12.75 24.625 0.4375 
Q 19.578125 -11.859375 12.359375 -21.046875 
z
" id="ArialMT-41"/>
     </defs>
     <g style="fill:#262626;" transform="translate(26.472 216.056625)rotate(-90)scale(0.264 -0.264)">
      <use transform="translate(0 0.203125)" xlink:href="#ArialMT-97"/>
      <use transform="translate(55.615234 0.203125)" xlink:href="#ArialMT-98"/>
      <use transform="translate(111.230469 0.203125)" xlink:href="#ArialMT-115"/>
      <use transform="translate(161.230469 0.203125)" xlink:href="#ArialMT-32"/>
      <use transform="translate(189.013672 0.203125)" xlink:href="#ArialMT-101"/>
      <use transform="translate(244.628906 0.203125)" xlink:href="#ArialMT-114"/>
      <use transform="translate(277.929688 0.203125)" xlink:href="#ArialMT-114"/>
      <use transform="translate(311.230469 0.203125)" xlink:href="#ArialMT-111"/>
      <use transform="translate(366.845703 0.203125)" xlink:href="#ArialMT-114"/>
      <use transform="translate(400.146484 0.203125)" xlink:href="#ArialMT-32"/>
      <use transform="translate(427.929688 0.203125)" xlink:href="#ArialMT-40"/>
      <use transform="translate(475.825195 38.484375)scale(0.7)" xlink:href="#DejaVuSans-8728"/>
      <use transform="translate(536.015625 0.203125)" xlink:href="#ArialMT-41"/>
     </g>
    </g>
   </g>
   <g id="patch_3">
    <path clip-path="url(#p676275b3ac)" d="M 109.037469 280.599482 
L 109.037469 280.599482 
L 109.037469 280.599482 
L 109.037469 280.599482 
z
" style="fill:#808080;stroke:#4d4d4d;stroke-linejoin:miter;stroke-width:0.5;"/>
   </g>
   <g id="patch_4">
    <path clip-path="url(#p676275b3ac)" d="M 109.037469 280.599482 
L 109.037469 280.599482 
L 109.037469 280.599482 
L 109.037469 280.599482 
z
" style="fill:#93c16e;stroke:#4d4d4d;stroke-linejoin:miter;stroke-width:0.5;"/>
   </g>
   <g id="PathCollection_1">
    <defs>
     <path d="M 0 3.5 
C 0.928211 3.5 1.81853 3.131218 2.474874 2.474874 
C 3.131218 1.81853 3.5 0.928211 3.5 0 
C 3.5 -0.928211 3.131218 -1.81853 2.474874 -2.474874 
C 1.81853 -3.131218 0.928211 -3.5 0 -3.5 
C -0.928211 -3.5 -1.81853 -3.131218 -2.474874 -2.474874 
C -3.131218 -1.81853 -3.5 -0.928211 -3.5 0 
C -3.5 0.928211 -3.131218 1.81853 -2.474874 2.474874 
C -1.81853 3.131218 -0.928211 3.5 0 3.5 
z
" id="C0_0_68d70bddef"/>
    </defs>
    <g clip-path="url(#p676275b3ac)">
     <use style="fill:#808080;fill-opacity:0.2;" x="83.304429" xlink:href="#C0_0_68d70bddef" y="162.275882"/>
    </g>
    <g clip-path="url(#p676275b3ac)">
     <use style="fill:#808080;fill-opacity:0.2;" x="84.821332" xlink:href="#C0_0_68d70bddef" y="209.633796"/>
    </g>
    <g clip-path="url(#p676275b3ac)">
     <use style="fill:#808080;fill-opacity:0.2;" x="81.133481" xlink:href="#C0_0_68d70bddef" y="186.608454"/>
    </g>
    <g clip-path="url(#p676275b3ac)">
     <use style="fill:#808080;fill-opacity:0.2;" x="90.510591" xlink:href="#C0_0_68d70bddef" y="90.313596"/>
    </g>
    <g clip-path="url(#p676275b3ac)">
     <use style="fill:#808080;fill-opacity:0.2;" x="86.049257" xlink:href="#C0_0_68d70bddef" y="156.226503"/>
    </g>
    <g clip-path="url(#p676275b3ac)">
     <use style="fill:#808080;fill-opacity:0.2;" x="90.822285" xlink:href="#C0_0_68d70bddef" y="218.887939"/>
    </g>
    <g clip-path="url(#p676275b3ac)">
     <use style="fill:#808080;fill-opacity:0.2;" x="89.76085" xlink:href="#C0_0_68d70bddef" y="204.469596"/>
    </g>
    <g clip-path="url(#p676275b3ac)">
     <use style="fill:#808080;fill-opacity:0.2;" x="87.719385" xlink:href="#C0_0_68d70bddef" y="183.553939"/>
    </g>
    <g clip-path="url(#p676275b3ac)">
     <use style="fill:#808080;fill-opacity:0.2;" x="91.031223" xlink:href="#C0_0_68d70bddef" y="102.369683"/>
    </g>
    <g clip-path="url(#p676275b3ac)">
     <use style="fill:#808080;fill-opacity:0.2;" x="88.417513" xlink:href="#C0_0_68d70bddef" y="128.797025"/>
    </g>
    <g clip-path="url(#p676275b3ac)">
     <use style="fill:#808080;fill-opacity:0.2;" x="100.45882" xlink:href="#C0_0_68d70bddef" y="163.337196"/>
    </g>
    <g clip-path="url(#p676275b3ac)">
     <use style="fill:#808080;fill-opacity:0.2;" x="100.031399" xlink:href="#C0_0_68d70bddef" y="170.805595"/>
    </g>
    <g clip-path="url(#p676275b3ac)">
     <use style="fill:#808080;fill-opacity:0.2;" x="99.916797" xlink:href="#C0_0_68d70bddef" y="194.275802"/>
    </g>
    <g clip-path="url(#p676275b3ac)">
     <use style="fill:#808080;fill-opacity:0.2;" x="104.484271" xlink:href="#C0_0_68d70bddef" y="193.563082"/>
    </g>
    <g clip-path="url(#p676275b3ac)">
     <use style="fill:#808080;fill-opacity:0.2;" x="90.806695" xlink:href="#C0_0_68d70bddef" y="165.737912"/>
    </g>
    <g clip-path="url(#p676275b3ac)">
     <use style="fill:#808080;fill-opacity:0.2;" x="93.666444" xlink:href="#C0_0_68d70bddef" y="183.743768"/>
    </g>
    <g clip-path="url(#p676275b3ac)">
     <use style="fill:#808080;fill-opacity:0.2;" x="87.373231" xlink:href="#C0_0_68d70bddef" y="182.682454"/>
    </g>
    <g clip-path="url(#p676275b3ac)">
     <use style="fill:#808080;fill-opacity:0.2;" x="95.528552" xlink:href="#C0_0_68d70bddef" y="174.407654"/>
    </g>
   </g>
   <g id="PathCollection_2">
    <defs>
     <path d="M 0 3.5 
C 0.928211 3.5 1.81853 3.131218 2.474874 2.474874 
C 3.131218 1.81853 3.5 0.928211 3.5 0 
C 3.5 -0.928211 3.131218 -1.81853 2.474874 -2.474874 
C 1.81853 -3.131218 0.928211 -3.5 0 -3.5 
C -0.928211 -3.5 -1.81853 -3.131218 -2.474874 -2.474874 
C -3.131218 -1.81853 -3.5 -0.928211 -3.5 0 
C -3.5 0.928211 -3.131218 1.81853 -2.474874 2.474874 
C -1.81853 3.131218 -0.928211 3.5 0 3.5 
z
" id="C1_0_f2d631e3a0"/>
    </defs>
    <g clip-path="url(#p676275b3ac)">
     <use style="fill:#93c16e;fill-opacity:0.2;" x="137.361859" xlink:href="#C1_0_f2d631e3a0" y="126.812454"/>
    </g>
    <g clip-path="url(#p676275b3ac)">
     <use style="fill:#93c16e;fill-opacity:0.2;" x="127.137606" xlink:href="#C1_0_f2d631e3a0" y="177.626111"/>
    </g>
    <g clip-path="url(#p676275b3ac)">
     <use style="fill:#93c16e;fill-opacity:0.2;" x="124.920007" xlink:href="#C1_0_f2d631e3a0" y="79.844674"/>
    </g>
    <g clip-path="url(#p676275b3ac)">
     <use style="fill:#93c16e;fill-opacity:0.2;" x="112.140835" xlink:href="#C1_0_f2d631e3a0" y="145.899638"/>
    </g>
    <g clip-path="url(#p676275b3ac)">
     <use style="fill:#93c16e;fill-opacity:0.2;" x="122.935126" xlink:href="#C1_0_f2d631e3a0" y="129.295129"/>
    </g>
    <g clip-path="url(#p676275b3ac)">
     <use style="fill:#93c16e;fill-opacity:0.2;" x="120.813156" xlink:href="#C1_0_f2d631e3a0" y="175.917654"/>
    </g>
    <g clip-path="url(#p676275b3ac)">
     <use style="fill:#93c16e;fill-opacity:0.2;" x="120.154536" xlink:href="#C1_0_f2d631e3a0" y="167.375368"/>
    </g>
    <g clip-path="url(#p676275b3ac)">
     <use style="fill:#93c16e;fill-opacity:0.2;" x="118.873606" xlink:href="#C1_0_f2d631e3a0" y="122.006339"/>
    </g>
    <g clip-path="url(#p676275b3ac)">
     <use style="fill:#93c16e;fill-opacity:0.2;" x="124.01652" xlink:href="#C1_0_f2d631e3a0" y="99.459882"/>
    </g>
    <g clip-path="url(#p676275b3ac)">
     <use style="fill:#93c16e;fill-opacity:0.2;" x="116.286995" xlink:href="#C1_0_f2d631e3a0" y="116.855082"/>
    </g>
    <g clip-path="url(#p676275b3ac)">
     <use style="fill:#93c16e;fill-opacity:0.2;" x="131.65324" xlink:href="#C1_0_f2d631e3a0" y="139.302311"/>
    </g>
    <g clip-path="url(#p676275b3ac)">
     <use style="fill:#93c16e;fill-opacity:0.2;" x="135.230111" xlink:href="#C1_0_f2d631e3a0" y="136.433311"/>
    </g>
    <g clip-path="url(#p676275b3ac)">
     <use style="fill:#93c16e;fill-opacity:0.2;" x="115.700306" xlink:href="#C1_0_f2d631e3a0" y="153.225838"/>
    </g>
    <g clip-path="url(#p676275b3ac)">
     <use style="fill:#93c16e;fill-opacity:0.2;" x="122.751901" xlink:href="#C1_0_f2d631e3a0" y="143.146339"/>
    </g>
    <g clip-path="url(#p676275b3ac)">
     <use style="fill:#93c16e;fill-opacity:0.2;" x="117.895211" xlink:href="#C1_0_f2d631e3a0" y="129.918739"/>
    </g>
    <g clip-path="url(#p676275b3ac)">
     <use style="fill:#93c16e;fill-opacity:0.2;" x="111.807369" xlink:href="#C1_0_f2d631e3a0" y="137.531493"/>
    </g>
    <g clip-path="url(#p676275b3ac)">
     <use style="fill:#93c16e;fill-opacity:0.2;" x="137.827807" xlink:href="#C1_0_f2d631e3a0" y="141.550054"/>
    </g>
    <g clip-path="url(#p676275b3ac)">
     <use style="fill:#93c16e;fill-opacity:0.2;" x="115.814183" xlink:href="#C1_0_f2d631e3a0" y="134.500511"/>
    </g>
   </g>
   <g id="PathCollection_3">
    <defs>
     <path d="M 0 3.5 
C 0.928211 3.5 1.81853 3.131218 2.474874 2.474874 
C 3.131218 1.81853 3.5 0.928211 3.5 0 
C 3.5 -0.928211 3.131218 -1.81853 2.474874 -2.474874 
C 1.81853 -3.131218 0.928211 -3.5 0 -3.5 
C -0.928211 -3.5 -1.81853 -3.131218 -2.474874 -2.474874 
C -3.131218 -1.81853 -3.5 -0.928211 -3.5 0 
C -3.5 0.928211 -3.131218 1.81853 -2.474874 2.474874 
C -1.81853 3.131218 -0.928211 3.5 0 3.5 
z
" id="C2_0_55469ba8d3"/>
    </defs>
    <g clip-path="url(#p676275b3ac)">
     <use style="fill:#808080;fill-opacity:0.2;" x="194.8089" xlink:href="#C2_0_55469ba8d3" y="209.517311"/>
    </g>
    <g clip-path="url(#p676275b3ac)">
     <use style="fill:#808080;fill-opacity:0.2;" x="197.328237" xlink:href="#C2_0_55469ba8d3" y="185.398578"/>
    </g>
    <g clip-path="url(#p676275b3ac)">
     <use style="fill:#808080;fill-opacity:0.2;" x="195.339815" xlink:href="#C2_0_55469ba8d3" y="189.930454"/>
    </g>
    <g clip-path="url(#p676275b3ac)">
     <use style="fill:#808080;fill-opacity:0.2;" x="208.381843" xlink:href="#C2_0_55469ba8d3" y="187.799196"/>
    </g>
    <g clip-path="url(#p676275b3ac)">
     <use style="fill:#808080;fill-opacity:0.2;" x="200.542934" xlink:href="#C2_0_55469ba8d3" y="201.245829"/>
    </g>
    <g clip-path="url(#p676275b3ac)">
     <use style="fill:#808080;fill-opacity:0.2;" x="197.674768" xlink:href="#C2_0_55469ba8d3" y="218.145882"/>
    </g>
    <g clip-path="url(#p676275b3ac)">
     <use style="fill:#808080;fill-opacity:0.2;" x="203.613551" xlink:href="#C2_0_55469ba8d3" y="187.592111"/>
    </g>
    <g clip-path="url(#p676275b3ac)">
     <use style="fill:#808080;fill-opacity:0.2;" x="197.392925" xlink:href="#C2_0_55469ba8d3" y="190.172054"/>
    </g>
    <g clip-path="url(#p676275b3ac)">
     <use style="fill:#808080;fill-opacity:0.2;" x="201.669972" xlink:href="#C2_0_55469ba8d3" y="138.404686"/>
    </g>
    <g clip-path="url(#p676275b3ac)">
     <use style="fill:#808080;fill-opacity:0.2;" x="206.974453" xlink:href="#C2_0_55469ba8d3" y="133.441415"/>
    </g>
    <g clip-path="url(#p676275b3ac)">
     <use style="fill:#808080;fill-opacity:0.2;" x="206.307352" xlink:href="#C2_0_55469ba8d3" y="149.643654"/>
    </g>
    <g clip-path="url(#p676275b3ac)">
     <use style="fill:#808080;fill-opacity:0.2;" x="198.988084" xlink:href="#C2_0_55469ba8d3" y="186.056225"/>
    </g>
    <g clip-path="url(#p676275b3ac)">
     <use style="fill:#808080;fill-opacity:0.2;" x="197.656915" xlink:href="#C2_0_55469ba8d3" y="205.924374"/>
    </g>
    <g clip-path="url(#p676275b3ac)">
     <use style="fill:#808080;fill-opacity:0.2;" x="204.02992" xlink:href="#C2_0_55469ba8d3" y="198.101711"/>
    </g>
    <g clip-path="url(#p676275b3ac)">
     <use style="fill:#808080;fill-opacity:0.2;" x="203.286489" xlink:href="#C2_0_55469ba8d3" y="189.076225"/>
    </g>
    <g clip-path="url(#p676275b3ac)">
     <use style="fill:#808080;fill-opacity:0.2;" x="192.465701" xlink:href="#C2_0_55469ba8d3" y="201.809459"/>
    </g>
    <g clip-path="url(#p676275b3ac)">
     <use style="fill:#808080;fill-opacity:0.2;" x="208.134423" xlink:href="#C2_0_55469ba8d3" y="169.351311"/>
    </g>
    <g clip-path="url(#p676275b3ac)">
     <use style="fill:#808080;fill-opacity:0.2;" x="212.061244" xlink:href="#C2_0_55469ba8d3" y="191.000396"/>
    </g>
   </g>
   <g id="PathCollection_4">
    <defs>
     <path d="M 0 3.5 
C 0.928211 3.5 1.81853 3.131218 2.474874 2.474874 
C 3.131218 1.81853 3.5 0.928211 3.5 0 
C 3.5 -0.928211 3.131218 -1.81853 2.474874 -2.474874 
C 1.81853 -3.131218 0.928211 -3.5 0 -3.5 
C -0.928211 -3.5 -1.81853 -3.131218 -2.474874 -2.474874 
C -3.131218 -1.81853 -3.5 -0.928211 -3.5 0 
C -3.5 0.928211 -3.131218 1.81853 -2.474874 2.474874 
C -1.81853 3.131218 -0.928211 3.5 0 3.5 
z
" id="C3_0_13e602f5ff"/>
    </defs>
    <g clip-path="url(#p676275b3ac)">
     <use style="fill:#93c16e;fill-opacity:0.2;" x="245.386382" xlink:href="#C3_0_13e602f5ff" y="167.841311"/>
    </g>
    <g clip-path="url(#p676275b3ac)">
     <use style="fill:#93c16e;fill-opacity:0.2;" x="225.124906" xlink:href="#C3_0_13e602f5ff" y="146.873882"/>
    </g>
    <g clip-path="url(#p676275b3ac)">
     <use style="fill:#93c16e;fill-opacity:0.2;" x="233.380434" xlink:href="#C3_0_13e602f5ff" y="130.634911"/>
    </g>
    <g clip-path="url(#p676275b3ac)">
     <use style="fill:#93c16e;fill-opacity:0.2;" x="246.256791" xlink:href="#C3_0_13e602f5ff" y="138.305711"/>
    </g>
    <g clip-path="url(#p676275b3ac)">
     <use style="fill:#93c16e;fill-opacity:0.2;" x="228.979787" xlink:href="#C3_0_13e602f5ff" y="157.295471"/>
    </g>
    <g clip-path="url(#p676275b3ac)">
     <use style="fill:#93c16e;fill-opacity:0.2;" x="236.569826" xlink:href="#C3_0_13e602f5ff" y="206.480054"/>
    </g>
    <g clip-path="url(#p676275b3ac)">
     <use style="fill:#93c16e;fill-opacity:0.2;" x="243.251114" xlink:href="#C3_0_13e602f5ff" y="180.690038"/>
    </g>
    <g clip-path="url(#p676275b3ac)">
     <use style="fill:#93c16e;fill-opacity:0.2;" x="239.892553" xlink:href="#C3_0_13e602f5ff" y="159.842625"/>
    </g>
    <g clip-path="url(#p676275b3ac)">
     <use style="fill:#93c16e;fill-opacity:0.2;" x="233.491574" xlink:href="#C3_0_13e602f5ff" y="101.180419"/>
    </g>
    <g clip-path="url(#p676275b3ac)">
     <use style="fill:#93c16e;fill-opacity:0.2;" x="240.887521" xlink:href="#C3_0_13e602f5ff" y="97.319489"/>
    </g>
    <g clip-path="url(#p676275b3ac)">
     <use style="fill:#93c16e;fill-opacity:0.2;" x="231.633242" xlink:href="#C3_0_13e602f5ff" y="126.281796"/>
    </g>
    <g clip-path="url(#p676275b3ac)">
     <use style="fill:#93c16e;fill-opacity:0.2;" x="238.726301" xlink:href="#C3_0_13e602f5ff" y="135.095882"/>
    </g>
    <g clip-path="url(#p676275b3ac)">
     <use style="fill:#93c16e;fill-opacity:0.2;" x="233.528254" xlink:href="#C3_0_13e602f5ff" y="161.579693"/>
    </g>
    <g clip-path="url(#p676275b3ac)">
     <use style="fill:#93c16e;fill-opacity:0.2;" x="248.932892" xlink:href="#C3_0_13e602f5ff" y="158.211825"/>
    </g>
    <g clip-path="url(#p676275b3ac)">
     <use style="fill:#93c16e;fill-opacity:0.2;" x="243.736479" xlink:href="#C3_0_13e602f5ff" y="147.349238"/>
    </g>
    <g clip-path="url(#p676275b3ac)">
     <use style="fill:#93c16e;fill-opacity:0.2;" x="249.883497" xlink:href="#C3_0_13e602f5ff" y="154.708625"/>
    </g>
    <g clip-path="url(#p676275b3ac)">
     <use style="fill:#93c16e;fill-opacity:0.2;" x="241.313982" xlink:href="#C3_0_13e602f5ff" y="164.717275"/>
    </g>
    <g clip-path="url(#p676275b3ac)">
     <use style="fill:#93c16e;fill-opacity:0.2;" x="235.236585" xlink:href="#C3_0_13e602f5ff" y="157.417996"/>
    </g>
   </g>
   <g id="PathCollection_5">
    <defs>
     <path d="M 0 3.5 
C 0.928211 3.5 1.81853 3.131218 2.474874 2.474874 
C 3.131218 1.81853 3.5 0.928211 3.5 0 
C 3.5 -0.928211 3.131218 -1.81853 2.474874 -2.474874 
C 1.81853 -3.131218 0.928211 -3.5 0 -3.5 
C -0.928211 -3.5 -1.81853 -3.131218 -2.474874 -2.474874 
C -3.131218 -1.81853 -3.5 -0.928211 -3.5 0 
C -3.5 0.928211 -3.131218 1.81853 -2.474874 2.474874 
C -1.81853 3.131218 -0.928211 3.5 0 3.5 
z
" id="C4_0_2099744de6"/>
    </defs>
    <g clip-path="url(#p676275b3ac)">
     <use style="fill:#808080;fill-opacity:0.2;" x="300.637401" xlink:href="#C4_0_2099744de6" y="190.491311"/>
    </g>
    <g clip-path="url(#p676275b3ac)">
     <use style="fill:#808080;fill-opacity:0.2;" x="305.641567" xlink:href="#C4_0_2099744de6" y="199.271274"/>
    </g>
    <g clip-path="url(#p676275b3ac)">
     <use style="fill:#808080;fill-opacity:0.2;" x="319.601016" xlink:href="#C4_0_2099744de6" y="175.555254"/>
    </g>
    <g clip-path="url(#p676275b3ac)">
     <use style="fill:#808080;fill-opacity:0.2;" x="318.882011" xlink:href="#C4_0_2099744de6" y="195.409596"/>
    </g>
    <g clip-path="url(#p676275b3ac)">
     <use style="fill:#808080;fill-opacity:0.2;" x="311.443335" xlink:href="#C4_0_2099744de6" y="185.128466"/>
    </g>
    <g clip-path="url(#p676275b3ac)">
     <use style="fill:#808080;fill-opacity:0.2;" x="312.72017" xlink:href="#C4_0_2099744de6" y="222.440938"/>
    </g>
    <g clip-path="url(#p676275b3ac)">
     <use style="fill:#808080;fill-opacity:0.2;" x="317.892353" xlink:href="#C4_0_2099744de6" y="212.192168"/>
    </g>
    <g clip-path="url(#p676275b3ac)">
     <use style="fill:#808080;fill-opacity:0.2;" x="321.528481" xlink:href="#C4_0_2099744de6" y="187.221082"/>
    </g>
    <g clip-path="url(#p676275b3ac)">
     <use style="fill:#808080;fill-opacity:0.2;" x="311.756906" xlink:href="#C4_0_2099744de6" y="128.49198"/>
    </g>
    <g clip-path="url(#p676275b3ac)">
     <use style="fill:#808080;fill-opacity:0.2;" x="314.845653" xlink:href="#C4_0_2099744de6" y="130.54761"/>
    </g>
    <g clip-path="url(#p676275b3ac)">
     <use style="fill:#808080;fill-opacity:0.2;" x="317.555966" xlink:href="#C4_0_2099744de6" y="140.661311"/>
    </g>
    <g clip-path="url(#p676275b3ac)">
     <use style="fill:#808080;fill-opacity:0.2;" x="312.631146" xlink:href="#C4_0_2099744de6" y="160.929825"/>
    </g>
    <g clip-path="url(#p676275b3ac)">
     <use style="fill:#808080;fill-opacity:0.2;" x="307.06819" xlink:href="#C4_0_2099744de6" y="204.431763"/>
    </g>
    <g clip-path="url(#p676275b3ac)">
     <use style="fill:#808080;fill-opacity:0.2;" x="302.758685" xlink:href="#C4_0_2099744de6" y="183.088736"/>
    </g>
    <g clip-path="url(#p676275b3ac)">
     <use style="fill:#808080;fill-opacity:0.2;" x="310.267592" xlink:href="#C4_0_2099744de6" y="162.487536"/>
    </g>
    <g clip-path="url(#p676275b3ac)">
     <use style="fill:#808080;fill-opacity:0.2;" x="299.627077" xlink:href="#C4_0_2099744de6" y="189.671596"/>
    </g>
    <g clip-path="url(#p676275b3ac)">
     <use style="fill:#808080;fill-opacity:0.2;" x="313.581032" xlink:href="#C4_0_2099744de6" y="182.906796"/>
    </g>
    <g clip-path="url(#p676275b3ac)">
     <use style="fill:#808080;fill-opacity:0.2;" x="303.33682" xlink:href="#C4_0_2099744de6" y="188.515368"/>
    </g>
   </g>
   <g id="PathCollection_6">
    <defs>
     <path d="M 0 3.5 
C 0.928211 3.5 1.81853 3.131218 2.474874 2.474874 
C 3.131218 1.81853 3.5 0.928211 3.5 0 
C 3.5 -0.928211 3.131218 -1.81853 2.474874 -2.474874 
C 1.81853 -3.131218 0.928211 -3.5 0 -3.5 
C -0.928211 -3.5 -1.81853 -3.131218 -2.474874 -2.474874 
C -3.131218 -1.81853 -3.5 -0.928211 -3.5 0 
C -3.5 0.928211 -3.131218 1.81853 -2.474874 2.474874 
C -1.81853 3.131218 -0.928211 3.5 0 3.5 
z
" id="C5_0_13c73910da"/>
    </defs>
    <g clip-path="url(#p676275b3ac)">
     <use style="fill:#93c16e;fill-opacity:0.2;" x="346.737306" xlink:href="#C5_0_13c73910da" y="109.273706"/>
    </g>
    <g clip-path="url(#p676275b3ac)">
     <use style="fill:#93c16e;fill-opacity:0.2;" x="336.551287" xlink:href="#C5_0_13c73910da" y="149.114845"/>
    </g>
    <g clip-path="url(#p676275b3ac)">
     <use style="fill:#93c16e;fill-opacity:0.2;" x="340.970343" xlink:href="#C5_0_13c73910da" y="142.298767"/>
    </g>
    <g clip-path="url(#p676275b3ac)">
     <use style="fill:#93c16e;fill-opacity:0.2;" x="344.116066" xlink:href="#C5_0_13c73910da" y="150.497882"/>
    </g>
    <g clip-path="url(#p676275b3ac)">
     <use style="fill:#93c16e;fill-opacity:0.2;" x="354.42579" xlink:href="#C5_0_13c73910da" y="161.939368"/>
    </g>
    <g clip-path="url(#p676275b3ac)">
     <use style="fill:#93c16e;fill-opacity:0.2;" x="341.910192" xlink:href="#C5_0_13c73910da" y="199.030361"/>
    </g>
    <g clip-path="url(#p676275b3ac)">
     <use style="fill:#93c16e;fill-opacity:0.2;" x="357.239717" xlink:href="#C5_0_13c73910da" y="169.818038"/>
    </g>
    <g clip-path="url(#p676275b3ac)">
     <use style="fill:#93c16e;fill-opacity:0.2;" x="350.440271" xlink:href="#C5_0_13c73910da" y="207.15972"/>
    </g>
    <g clip-path="url(#p676275b3ac)">
     <use style="fill:#93c16e;fill-opacity:0.2;" x="349.470275" xlink:href="#C5_0_13c73910da" y="115.403325"/>
    </g>
    <g clip-path="url(#p676275b3ac)">
     <use style="fill:#93c16e;fill-opacity:0.2;" x="350.167917" xlink:href="#C5_0_13c73910da" y="111.807925"/>
    </g>
    <g clip-path="url(#p676275b3ac)">
     <use style="fill:#93c16e;fill-opacity:0.2;" x="348.798437" xlink:href="#C5_0_13c73910da" y="161.973882"/>
    </g>
    <g clip-path="url(#p676275b3ac)">
     <use style="fill:#93c16e;fill-opacity:0.2;" x="365.11761" xlink:href="#C5_0_13c73910da" y="164.899475"/>
    </g>
    <g clip-path="url(#p676275b3ac)">
     <use style="fill:#93c16e;fill-opacity:0.2;" x="347.868135" xlink:href="#C5_0_13c73910da" y="204.851791"/>
    </g>
    <g clip-path="url(#p676275b3ac)">
     <use style="fill:#93c16e;fill-opacity:0.2;" x="364.431978" xlink:href="#C5_0_13c73910da" y="151.595436"/>
    </g>
    <g clip-path="url(#p676275b3ac)">
     <use style="fill:#93c16e;fill-opacity:0.2;" x="339.386638" xlink:href="#C5_0_13c73910da" y="185.970724"/>
    </g>
    <g clip-path="url(#p676275b3ac)">
     <use style="fill:#93c16e;fill-opacity:0.2;" x="355.001324" xlink:href="#C5_0_13c73910da" y="162.008396"/>
    </g>
    <g clip-path="url(#p676275b3ac)">
     <use style="fill:#93c16e;fill-opacity:0.2;" x="358.101189" xlink:href="#C5_0_13c73910da" y="152.620511"/>
    </g>
    <g clip-path="url(#p676275b3ac)">
     <use style="fill:#93c16e;fill-opacity:0.2;" x="335.707481" xlink:href="#C5_0_13c73910da" y="172.468605"/>
    </g>
   </g>
   <g id="LineCollection_1">
    <path clip-path="url(#p676275b3ac)" d="M 97.877469 188.400248 
L 97.877469 158.491214 
" style="fill:none;stroke:#808080;stroke-width:4;"/>
    <path clip-path="url(#p676275b3ac)" d="M 209.477469 195.291693 
L 209.477469 174.492697 
" style="fill:none;stroke:#808080;stroke-width:4;"/>
    <path clip-path="url(#p676275b3ac)" d="M 321.077469 192.287001 
L 321.077469 167.975762 
" style="fill:none;stroke:#808080;stroke-width:4;"/>
   </g>
   <g id="LineCollection_2">
    <path clip-path="url(#p676275b3ac)" d="M 120.197469 147.495696 
L 120.197469 123.307433 
" style="fill:none;stroke:#91cf60;stroke-width:4;"/>
    <path clip-path="url(#p676275b3ac)" d="M 231.797469 163.049577 
L 231.797469 137.252044 
" style="fill:none;stroke:#91cf60;stroke-width:4;"/>
    <path clip-path="url(#p676275b3ac)" d="M 343.397469 174.563567 
L 343.397469 148.339968 
" style="fill:none;stroke:#91cf60;stroke-width:4;"/>
   </g>
   <g id="line2d_8">
    <path clip-path="url(#p676275b3ac)" d="M 97.877469 174.379932 
L 209.477469 184.804715 
L 321.077469 179.541654 
" style="fill:none;stroke:#808080;stroke-linecap:round;stroke-width:3;"/>
    <defs>
     <path d="M 0 6 
C 1.591219 6 3.117479 5.367802 4.242641 4.242641 
C 5.367802 3.117479 6 1.591219 6 0 
C 6 -1.591219 5.367802 -3.117479 4.242641 -4.242641 
C 3.117479 -5.367802 1.591219 -6 0 -6 
C -1.591219 -6 -3.117479 -5.367802 -4.242641 -4.242641 
C -5.367802 -3.117479 -6 -1.591219 -6 0 
C -6 1.591219 -5.367802 3.117479 -4.242641 4.242641 
C -3.117479 5.367802 -1.591219 6 0 6 
z
" id="mb80a15ab7c" style="stroke:#808080;"/>
    </defs>
    <g clip-path="url(#p676275b3ac)">
     <use style="fill:#808080;stroke:#808080;" x="97.877469" xlink:href="#mb80a15ab7c" y="174.379932"/>
     <use style="fill:#808080;stroke:#808080;" x="209.477469" xlink:href="#mb80a15ab7c" y="184.804715"/>
     <use style="fill:#808080;stroke:#808080;" x="321.077469" xlink:href="#mb80a15ab7c" y="179.541654"/>
    </g>
   </g>
   <g id="line2d_9">
    <path clip-path="url(#p676275b3ac)" d="M 120.197469 135.78756 
L 231.797469 149.660169 
L 343.397469 161.872805 
" style="fill:none;stroke:#91cf60;stroke-linecap:round;stroke-width:3;"/>
    <defs>
     <path d="M 0 6 
C 1.591219 6 3.117479 5.367802 4.242641 4.242641 
C 5.367802 3.117479 6 1.591219 6 0 
C 6 -1.591219 5.367802 -3.117479 4.242641 -4.242641 
C 3.117479 -5.367802 1.591219 -6 0 -6 
C -1.591219 -6 -3.117479 -5.367802 -4.242641 -4.242641 
C -5.367802 -3.117479 -6 -1.591219 -6 0 
C -6 1.591219 -5.367802 3.117479 -4.242641 4.242641 
C -3.117479 5.367802 -1.591219 6 0 6 
z
" id="mc15169706b" style="stroke:#91cf60;"/>
    </defs>
    <g clip-path="url(#p676275b3ac)">
     <use style="fill:#91cf60;stroke:#91cf60;" x="120.197469" xlink:href="#mc15169706b" y="135.78756"/>
     <use style="fill:#91cf60;stroke:#91cf60;" x="231.797469" xlink:href="#mc15169706b" y="149.660169"/>
     <use style="fill:#91cf60;stroke:#91cf60;" x="343.397469" xlink:href="#mc15169706b" y="161.872805"/>
    </g>
   </g>
   <g id="line2d_10">
    <path clip-path="url(#p676275b3ac)" d="M 97.877469 174.379932 
L 209.477469 184.804715 
L 321.077469 179.541654 
" style="fill:none;stroke:#808080;stroke-linecap:round;stroke-width:4;"/>
   </g>
   <g id="line2d_11">
    <path clip-path="url(#p676275b3ac)" d="M 120.197469 135.78756 
L 231.797469 149.660169 
L 343.397469 161.872805 
" style="fill:none;stroke:#91cf60;stroke-linecap:round;stroke-width:4;"/>
   </g>
   <g id="patch_5">
    <path d="M 53.237469 249.536625 
L 53.237469 32.096625 
" style="fill:none;stroke:#262626;stroke-linecap:square;stroke-linejoin:miter;stroke-width:2.5;"/>
   </g>
   <g id="patch_6">
    <path d="M 53.237469 249.536625 
L 388.037469 249.536625 
" style="fill:none;stroke:#262626;stroke-linecap:square;stroke-linejoin:miter;stroke-width:2.5;"/>
   </g>
   <g id="text_9">
    <!-- error in eccentricity -->
    <defs>
     <path d="M 6.59375 0 
L 6.59375 51.859375 
L 14.5 51.859375 
L 14.5 44.484375 
Q 20.21875 53.03125 31 53.03125 
Q 35.6875 53.03125 39.625 51.34375 
Q 43.5625 49.65625 45.515625 46.921875 
Q 47.46875 44.1875 48.25 40.4375 
Q 48.734375 37.984375 48.734375 31.890625 
L 48.734375 0 
L 39.9375 0 
L 39.9375 31.546875 
Q 39.9375 36.921875 38.90625 39.578125 
Q 37.890625 42.234375 35.28125 43.8125 
Q 32.671875 45.40625 29.15625 45.40625 
Q 23.53125 45.40625 19.453125 41.84375 
Q 15.375 38.28125 15.375 28.328125 
L 15.375 0 
z
" id="ArialMT-110"/>
     <path d="M 40.4375 19 
L 49.078125 17.875 
Q 47.65625 8.9375 41.8125 3.875 
Q 35.984375 -1.171875 27.484375 -1.171875 
Q 16.84375 -1.171875 10.375 5.78125 
Q 3.90625 12.75 3.90625 25.734375 
Q 3.90625 34.125 6.6875 40.421875 
Q 9.46875 46.734375 15.15625 49.875 
Q 20.84375 53.03125 27.546875 53.03125 
Q 35.984375 53.03125 41.359375 48.75 
Q 46.734375 44.484375 48.25 36.625 
L 39.703125 35.296875 
Q 38.484375 40.53125 35.375 43.15625 
Q 32.28125 45.796875 27.875 45.796875 
Q 21.234375 45.796875 17.078125 41.03125 
Q 12.9375 36.28125 12.9375 25.984375 
Q 12.9375 15.53125 16.9375 10.796875 
Q 20.953125 6.0625 27.390625 6.0625 
Q 32.5625 6.0625 36.03125 9.234375 
Q 39.5 12.40625 40.4375 19 
z
" id="ArialMT-99"/>
     <path d="M 25.78125 7.859375 
L 27.046875 0.09375 
Q 23.34375 -0.6875 20.40625 -0.6875 
Q 15.625 -0.6875 12.984375 0.828125 
Q 10.359375 2.34375 9.28125 4.8125 
Q 8.203125 7.28125 8.203125 15.1875 
L 8.203125 45.015625 
L 1.765625 45.015625 
L 1.765625 51.859375 
L 8.203125 51.859375 
L 8.203125 64.703125 
L 16.9375 69.96875 
L 16.9375 51.859375 
L 25.78125 51.859375 
L 25.78125 45.015625 
L 16.9375 45.015625 
L 16.9375 14.703125 
Q 16.9375 10.9375 17.40625 9.859375 
Q 17.875 8.796875 18.921875 8.15625 
Q 19.96875 7.515625 21.921875 7.515625 
Q 23.390625 7.515625 25.78125 7.859375 
z
" id="ArialMT-116"/>
     <path d="M 6.203125 -19.96875 
L 5.21875 -11.71875 
Q 8.109375 -12.5 10.25 -12.5 
Q 13.1875 -12.5 14.9375 -11.515625 
Q 16.703125 -10.546875 17.828125 -8.796875 
Q 18.65625 -7.46875 20.515625 -2.25 
Q 20.75 -1.515625 21.296875 -0.09375 
L 1.609375 51.859375 
L 11.078125 51.859375 
L 21.875 21.828125 
Q 23.96875 16.109375 25.640625 9.8125 
Q 27.15625 15.875 29.25 21.625 
L 40.328125 51.859375 
L 49.125 51.859375 
L 29.390625 -0.875 
Q 26.21875 -9.421875 24.46875 -12.640625 
Q 22.125 -17 19.09375 -19.015625 
Q 16.0625 -21.046875 11.859375 -21.046875 
Q 9.328125 -21.046875 6.203125 -19.96875 
z
" id="ArialMT-121"/>
    </defs>
    <g style="fill:#262626;" transform="translate(109.146969 26.096625)scale(0.264 -0.264)">
     <use xlink:href="#ArialMT-101"/>
     <use x="55.615234" xlink:href="#ArialMT-114"/>
     <use x="88.916016" xlink:href="#ArialMT-114"/>
     <use x="122.216797" xlink:href="#ArialMT-111"/>
     <use x="177.832031" xlink:href="#ArialMT-114"/>
     <use x="211.132812" xlink:href="#ArialMT-32"/>
     <use x="238.916016" xlink:href="#ArialMT-105"/>
     <use x="261.132812" xlink:href="#ArialMT-110"/>
     <use x="316.748047" xlink:href="#ArialMT-32"/>
     <use x="344.53125" xlink:href="#ArialMT-101"/>
     <use x="400.146484" xlink:href="#ArialMT-99"/>
     <use x="450.146484" xlink:href="#ArialMT-99"/>
     <use x="500.146484" xlink:href="#ArialMT-101"/>
     <use x="555.761719" xlink:href="#ArialMT-110"/>
     <use x="611.376953" xlink:href="#ArialMT-116"/>
     <use x="639.160156" xlink:href="#ArialMT-114"/>
     <use x="672.460938" xlink:href="#ArialMT-105"/>
     <use x="694.677734" xlink:href="#ArialMT-99"/>
     <use x="744.677734" xlink:href="#ArialMT-105"/>
     <use x="766.894531" xlink:href="#ArialMT-116"/>
     <use x="794.677734" xlink:href="#ArialMT-121"/>
    </g>
   </g>
   <g id="legend_1">
    <g id="text_10">
     <!-- delay 0 -->
     <defs>
      <path d="M 6.390625 0 
L 6.390625 71.578125 
L 15.1875 71.578125 
L 15.1875 0 
z
" id="ArialMT-108"/>
      <path d="M 4.15625 35.296875 
Q 4.15625 48 6.765625 55.734375 
Q 9.375 63.484375 14.515625 67.671875 
Q 19.671875 71.875 27.484375 71.875 
Q 33.25 71.875 37.59375 69.546875 
Q 41.9375 67.234375 44.765625 62.859375 
Q 47.609375 58.5 49.21875 52.21875 
Q 50.828125 45.953125 50.828125 35.296875 
Q 50.828125 22.703125 48.234375 14.96875 
Q 45.65625 7.234375 40.5 3 
Q 35.359375 -1.21875 27.484375 -1.21875 
Q 17.140625 -1.21875 11.234375 6.203125 
Q 4.15625 15.140625 4.15625 35.296875 
z
M 13.1875 35.296875 
Q 13.1875 17.671875 17.3125 11.828125 
Q 21.4375 6 27.484375 6 
Q 33.546875 6 37.671875 11.859375 
Q 41.796875 17.71875 41.796875 35.296875 
Q 41.796875 52.984375 37.671875 58.78125 
Q 33.546875 64.59375 27.390625 64.59375 
Q 21.34375 64.59375 17.71875 59.46875 
Q 13.1875 52.9375 13.1875 35.296875 
z
" id="ArialMT-48"/>
     </defs>
     <g style="fill:#808080;" transform="translate(322.047469 57.996625)scale(0.16 -0.16)">
      <use xlink:href="#ArialMT-100"/>
      <use x="55.615234" xlink:href="#ArialMT-101"/>
      <use x="111.230469" xlink:href="#ArialMT-108"/>
      <use x="133.447266" xlink:href="#ArialMT-97"/>
      <use x="189.0625" xlink:href="#ArialMT-121"/>
      <use x="239.0625" xlink:href="#ArialMT-32"/>
      <use x="266.845703" xlink:href="#ArialMT-48"/>
     </g>
    </g>
    <g id="text_11">
     <!-- delay 3 -->
     <g style="fill:#91cf60;" transform="translate(322.047469 80.864125)scale(0.16 -0.16)">
      <use xlink:href="#ArialMT-100"/>
      <use x="55.615234" xlink:href="#ArialMT-101"/>
      <use x="111.230469" xlink:href="#ArialMT-108"/>
      <use x="133.447266" xlink:href="#ArialMT-97"/>
      <use x="189.0625" xlink:href="#ArialMT-121"/>
      <use x="239.0625" xlink:href="#ArialMT-32"/>
      <use x="266.845703" xlink:href="#ArialMT-51"/>
     </g>
    </g>
   </g>
  </g>
 </g>
 <defs>
  <clipPath id="p676275b3ac">
   <rect height="217.44" width="334.8" x="53.237469" y="32.096625"/>
  </clipPath>
 </defs>
</svg>
