<?xml version="1.0" encoding="utf-8" standalone="no"?>
<!DOCTYPE svg PUBLIC "-//W3C//DTD SVG 1.1//EN"
  "http://www.w3.org/Graphics/SVG/1.1/DTD/svg11.dtd">
<!-- Created with matplotlib (https://matplotlib.org/) -->
<svg height="277.314375pt" version="1.1" viewBox="0 0 381.965625 277.314375" width="381.965625pt" xmlns="http://www.w3.org/2000/svg" xmlns:xlink="http://www.w3.org/1999/xlink">
 <defs>
  <style type="text/css">
*{stroke-linecap:butt;stroke-linejoin:round;}
  </style>
 </defs>
 <g id="figure_1">
  <g id="patch_1">
   <path d="M 0 277.314375 
L 381.965625 277.314375 
L 381.965625 0 
L 0 0 
z
" style="fill:none;"/>
  </g>
  <g id="axes_1">
   <g id="patch_2">
    <path d="M 36.465625 239.758125 
L 371.265625 239.758125 
L 371.265625 22.318125 
L 36.465625 22.318125 
z
" style="fill:#ffffff;"/>
   </g>
   <g id="patch_3">
    <path clip-path="url(#p04133bfb69)" d="M 103.043822 239.758125 
L 110.926926 239.758125 
L 110.926926 231.79329 
L 103.043822 231.79329 
z
" style="fill:#1f77b4;opacity:0.4;"/>
   </g>
   <g id="patch_4">
    <path clip-path="url(#p04133bfb69)" d="M 110.926926 239.758125 
L 118.81003 239.758125 
L 118.81003 239.758125 
L 110.926926 239.758125 
z
" style="fill:#1f77b4;opacity:0.4;"/>
   </g>
   <g id="patch_5">
    <path clip-path="url(#p04133bfb69)" d="M 118.81003 239.758125 
L 126.693135 239.758125 
L 126.693135 238.165158 
L 118.81003 238.165158 
z
" style="fill:#1f77b4;opacity:0.4;"/>
   </g>
   <g id="patch_6">
    <path clip-path="url(#p04133bfb69)" d="M 126.693135 239.758125 
L 134.576239 239.758125 
L 134.576239 236.572191 
L 126.693135 236.572191 
z
" style="fill:#1f77b4;opacity:0.4;"/>
   </g>
   <g id="patch_7">
    <path clip-path="url(#p04133bfb69)" d="M 134.576239 239.758125 
L 142.459343 239.758125 
L 142.459343 239.758125 
L 134.576239 239.758125 
z
" style="fill:#1f77b4;opacity:0.4;"/>
   </g>
   <g id="patch_8">
    <path clip-path="url(#p04133bfb69)" d="M 142.459343 239.758125 
L 150.342447 239.758125 
L 150.342447 234.979224 
L 142.459343 234.979224 
z
" style="fill:#1f77b4;opacity:0.4;"/>
   </g>
   <g id="patch_9">
    <path clip-path="url(#p04133bfb69)" d="M 150.342447 239.758125 
L 158.225551 239.758125 
L 158.225551 217.456587 
L 150.342447 217.456587 
z
" style="fill:#1f77b4;opacity:0.4;"/>
   </g>
   <g id="patch_10">
    <path clip-path="url(#p04133bfb69)" d="M 158.225551 239.758125 
L 166.108656 239.758125 
L 166.108656 206.305817 
L 158.225551 206.305817 
z
" style="fill:#1f77b4;opacity:0.4;"/>
   </g>
   <g id="patch_11">
    <path clip-path="url(#p04133bfb69)" d="M 166.108656 239.758125 
L 173.99176 239.758125 
L 173.99176 203.119883 
L 166.108656 203.119883 
z
" style="fill:#1f77b4;opacity:0.4;"/>
   </g>
   <g id="patch_12">
    <path clip-path="url(#p04133bfb69)" d="M 173.99176 239.758125 
L 181.874864 239.758125 
L 181.874864 176.039444 
L 173.99176 176.039444 
z
" style="fill:#1f77b4;opacity:0.4;"/>
   </g>
   <g id="patch_13">
    <path clip-path="url(#p04133bfb69)" d="M 181.874864 239.758125 
L 189.757968 239.758125 
L 189.757968 148.959004 
L 181.874864 148.959004 
z
" style="fill:#1f77b4;opacity:0.4;"/>
   </g>
   <g id="patch_14">
    <path clip-path="url(#p04133bfb69)" d="M 189.757968 239.758125 
L 197.641072 239.758125 
L 197.641072 107.541861 
L 189.757968 107.541861 
z
" style="fill:#1f77b4;opacity:0.4;"/>
   </g>
   <g id="patch_15">
    <path clip-path="url(#p04133bfb69)" d="M 197.641072 239.758125 
L 205.524177 239.758125 
L 205.524177 80.461422 
L 197.641072 80.461422 
z
" style="fill:#1f77b4;opacity:0.4;"/>
   </g>
   <g id="patch_16">
    <path clip-path="url(#p04133bfb69)" d="M 205.524177 239.758125 
L 213.407281 239.758125 
L 213.407281 80.461422 
L 205.524177 80.461422 
z
" style="fill:#1f77b4;opacity:0.4;"/>
   </g>
   <g id="patch_17">
    <path clip-path="url(#p04133bfb69)" d="M 213.407281 239.758125 
L 221.290385 239.758125 
L 221.290385 66.124718 
L 213.407281 66.124718 
z
" style="fill:#1f77b4;opacity:0.4;"/>
   </g>
   <g id="patch_18">
    <path clip-path="url(#p04133bfb69)" d="M 221.290385 239.758125 
L 229.173489 239.758125 
L 229.173489 32.672411 
L 221.290385 32.672411 
z
" style="fill:#1f77b4;opacity:0.4;"/>
   </g>
   <g id="patch_19">
    <path clip-path="url(#p04133bfb69)" d="M 229.173489 239.758125 
L 237.056594 239.758125 
L 237.056594 69.310652 
L 229.173489 69.310652 
z
" style="fill:#1f77b4;opacity:0.4;"/>
   </g>
   <g id="patch_20">
    <path clip-path="url(#p04133bfb69)" d="M 237.056594 239.758125 
L 244.939698 239.758125 
L 244.939698 91.612191 
L 237.056594 91.612191 
z
" style="fill:#1f77b4;opacity:0.4;"/>
   </g>
   <g id="patch_21">
    <path clip-path="url(#p04133bfb69)" d="M 244.939698 239.758125 
L 252.822802 239.758125 
L 252.822802 120.285598 
L 244.939698 120.285598 
z
" style="fill:#1f77b4;opacity:0.4;"/>
   </g>
   <g id="patch_22">
    <path clip-path="url(#p04133bfb69)" d="M 252.822802 239.758125 
L 260.705906 239.758125 
L 260.705906 142.587136 
L 252.822802 142.587136 
z
" style="fill:#1f77b4;opacity:0.4;"/>
   </g>
   <g id="patch_23">
    <path clip-path="url(#p04133bfb69)" d="M 260.705906 239.758125 
L 268.58901 239.758125 
L 268.58901 169.667576 
L 260.705906 169.667576 
z
" style="fill:#1f77b4;opacity:0.4;"/>
   </g>
   <g id="patch_24">
    <path clip-path="url(#p04133bfb69)" d="M 268.58901 239.758125 
L 276.472115 239.758125 
L 276.472115 187.190213 
L 268.58901 187.190213 
z
" style="fill:#1f77b4;opacity:0.4;"/>
   </g>
   <g id="patch_25">
    <path clip-path="url(#p04133bfb69)" d="M 276.472115 239.758125 
L 284.355219 239.758125 
L 284.355219 209.491751 
L 276.472115 209.491751 
z
" style="fill:#1f77b4;opacity:0.4;"/>
   </g>
   <g id="patch_26">
    <path clip-path="url(#p04133bfb69)" d="M 284.355219 239.758125 
L 292.238323 239.758125 
L 292.238323 217.456587 
L 284.355219 217.456587 
z
" style="fill:#1f77b4;opacity:0.4;"/>
   </g>
   <g id="patch_27">
    <path clip-path="url(#p04133bfb69)" d="M 292.238323 239.758125 
L 300.121427 239.758125 
L 300.121427 223.828455 
L 292.238323 223.828455 
z
" style="fill:#1f77b4;opacity:0.4;"/>
   </g>
   <g id="patch_28">
    <path clip-path="url(#p04133bfb69)" d="M 300.121427 239.758125 
L 308.004531 239.758125 
L 308.004531 234.979224 
L 300.121427 234.979224 
z
" style="fill:#1f77b4;opacity:0.4;"/>
   </g>
   <g id="patch_29">
    <path clip-path="url(#p04133bfb69)" d="M 308.004531 239.758125 
L 315.887636 239.758125 
L 315.887636 238.165158 
L 308.004531 238.165158 
z
" style="fill:#1f77b4;opacity:0.4;"/>
   </g>
   <g id="patch_30">
    <path clip-path="url(#p04133bfb69)" d="M 315.887636 239.758125 
L 323.77074 239.758125 
L 323.77074 234.979224 
L 315.887636 234.979224 
z
" style="fill:#1f77b4;opacity:0.4;"/>
   </g>
   <g id="patch_31">
    <path clip-path="url(#p04133bfb69)" d="M 323.77074 239.758125 
L 331.653844 239.758125 
L 331.653844 236.572191 
L 323.77074 236.572191 
z
" style="fill:#1f77b4;opacity:0.4;"/>
   </g>
   <g id="patch_32">
    <path clip-path="url(#p04133bfb69)" d="M 75.671932 239.758125 
L 83.508846 239.758125 
L 83.508846 234.955223 
L 75.671932 234.955223 
z
" style="fill:#ff7f0e;opacity:0.4;"/>
   </g>
   <g id="patch_33">
    <path clip-path="url(#p04133bfb69)" d="M 83.508846 239.758125 
L 91.345761 239.758125 
L 91.345761 238.157158 
L 83.508846 238.157158 
z
" style="fill:#ff7f0e;opacity:0.4;"/>
   </g>
   <g id="patch_34">
    <path clip-path="url(#p04133bfb69)" d="M 91.345761 239.758125 
L 99.182675 239.758125 
L 99.182675 236.55619 
L 91.345761 236.55619 
z
" style="fill:#ff7f0e;opacity:0.4;"/>
   </g>
   <g id="patch_35">
    <path clip-path="url(#p04133bfb69)" d="M 99.182675 239.758125 
L 107.019589 239.758125 
L 107.019589 234.955223 
L 99.182675 234.955223 
z
" style="fill:#ff7f0e;opacity:0.4;"/>
   </g>
   <g id="patch_36">
    <path clip-path="url(#p04133bfb69)" d="M 107.019589 239.758125 
L 114.856503 239.758125 
L 114.856503 231.753288 
L 107.019589 231.753288 
z
" style="fill:#ff7f0e;opacity:0.4;"/>
   </g>
   <g id="patch_37">
    <path clip-path="url(#p04133bfb69)" d="M 114.856503 239.758125 
L 122.693417 239.758125 
L 122.693417 231.753288 
L 114.856503 231.753288 
z
" style="fill:#ff7f0e;opacity:0.4;"/>
   </g>
   <g id="patch_38">
    <path clip-path="url(#p04133bfb69)" d="M 122.693417 239.758125 
L 130.530331 239.758125 
L 130.530331 220.546517 
L 122.693417 220.546517 
z
" style="fill:#ff7f0e;opacity:0.4;"/>
   </g>
   <g id="patch_39">
    <path clip-path="url(#p04133bfb69)" d="M 130.530331 239.758125 
L 138.367245 239.758125 
L 138.367245 212.541681 
L 130.530331 212.541681 
z
" style="fill:#ff7f0e;opacity:0.4;"/>
   </g>
   <g id="patch_40">
    <path clip-path="url(#p04133bfb69)" d="M 138.367245 239.758125 
L 146.20416 239.758125 
L 146.20416 207.738779 
L 138.367245 207.738779 
z
" style="fill:#ff7f0e;opacity:0.4;"/>
   </g>
   <g id="patch_41">
    <path clip-path="url(#p04133bfb69)" d="M 146.20416 239.758125 
L 154.041074 239.758125 
L 154.041074 169.315563 
L 146.20416 169.315563 
z
" style="fill:#ff7f0e;opacity:0.4;"/>
   </g>
   <g id="patch_42">
    <path clip-path="url(#p04133bfb69)" d="M 154.041074 239.758125 
L 161.877988 239.758125 
L 161.877988 169.315563 
L 154.041074 169.315563 
z
" style="fill:#ff7f0e;opacity:0.4;"/>
   </g>
   <g id="patch_43">
    <path clip-path="url(#p04133bfb69)" d="M 161.877988 239.758125 
L 169.714902 239.758125 
L 169.714902 124.488478 
L 161.877988 124.488478 
z
" style="fill:#ff7f0e;opacity:0.4;"/>
   </g>
   <g id="patch_44">
    <path clip-path="url(#p04133bfb69)" d="M 169.714902 239.758125 
L 177.551816 239.758125 
L 177.551816 100.473969 
L 169.714902 100.473969 
z
" style="fill:#ff7f0e;opacity:0.4;"/>
   </g>
   <g id="patch_45">
    <path clip-path="url(#p04133bfb69)" d="M 177.551816 239.758125 
L 185.38873 239.758125 
L 185.38873 58.848819 
L 177.551816 58.848819 
z
" style="fill:#ff7f0e;opacity:0.4;"/>
   </g>
   <g id="patch_46">
    <path clip-path="url(#p04133bfb69)" d="M 185.38873 239.758125 
L 193.225645 239.758125 
L 193.225645 81.262361 
L 185.38873 81.262361 
z
" style="fill:#ff7f0e;opacity:0.4;"/>
   </g>
   <g id="patch_47">
    <path clip-path="url(#p04133bfb69)" d="M 193.225645 239.758125 
L 201.062559 239.758125 
L 201.062559 41.238178 
L 193.225645 41.238178 
z
" style="fill:#ff7f0e;opacity:0.4;"/>
   </g>
   <g id="patch_48">
    <path clip-path="url(#p04133bfb69)" d="M 201.062559 239.758125 
L 208.899473 239.758125 
L 208.899473 57.247851 
L 201.062559 57.247851 
z
" style="fill:#ff7f0e;opacity:0.4;"/>
   </g>
   <g id="patch_49">
    <path clip-path="url(#p04133bfb69)" d="M 208.899473 239.758125 
L 216.736387 239.758125 
L 216.736387 110.079773 
L 208.899473 110.079773 
z
" style="fill:#ff7f0e;opacity:0.4;"/>
   </g>
   <g id="patch_50">
    <path clip-path="url(#p04133bfb69)" d="M 216.736387 239.758125 
L 224.573301 239.758125 
L 224.573301 76.459459 
L 216.736387 76.459459 
z
" style="fill:#ff7f0e;opacity:0.4;"/>
   </g>
   <g id="patch_51">
    <path clip-path="url(#p04133bfb69)" d="M 224.573301 239.758125 
L 232.410215 239.758125 
L 232.410215 122.887511 
L 224.573301 122.887511 
z
" style="fill:#ff7f0e;opacity:0.4;"/>
   </g>
   <g id="patch_52">
    <path clip-path="url(#p04133bfb69)" d="M 232.410215 239.758125 
L 240.247129 239.758125 
L 240.247129 156.507825 
L 232.410215 156.507825 
z
" style="fill:#ff7f0e;opacity:0.4;"/>
   </g>
   <g id="patch_53">
    <path clip-path="url(#p04133bfb69)" d="M 240.247129 239.758125 
L 248.084044 239.758125 
L 248.084044 190.128138 
L 240.247129 190.128138 
z
" style="fill:#ff7f0e;opacity:0.4;"/>
   </g>
   <g id="patch_54">
    <path clip-path="url(#p04133bfb69)" d="M 248.084044 239.758125 
L 255.920958 239.758125 
L 255.920958 202.935877 
L 248.084044 202.935877 
z
" style="fill:#ff7f0e;opacity:0.4;"/>
   </g>
   <g id="patch_55">
    <path clip-path="url(#p04133bfb69)" d="M 255.920958 239.758125 
L 263.757872 239.758125 
L 263.757872 230.152321 
L 255.920958 230.152321 
z
" style="fill:#ff7f0e;opacity:0.4;"/>
   </g>
   <g id="patch_56">
    <path clip-path="url(#p04133bfb69)" d="M 263.757872 239.758125 
L 271.594786 239.758125 
L 271.594786 222.147485 
L 263.757872 222.147485 
z
" style="fill:#ff7f0e;opacity:0.4;"/>
   </g>
   <g id="patch_57">
    <path clip-path="url(#p04133bfb69)" d="M 271.594786 239.758125 
L 279.4317 239.758125 
L 279.4317 230.152321 
L 271.594786 230.152321 
z
" style="fill:#ff7f0e;opacity:0.4;"/>
   </g>
   <g id="patch_58">
    <path clip-path="url(#p04133bfb69)" d="M 279.4317 239.758125 
L 287.268614 239.758125 
L 287.268614 238.157158 
L 279.4317 238.157158 
z
" style="fill:#ff7f0e;opacity:0.4;"/>
   </g>
   <g id="patch_59">
    <path clip-path="url(#p04133bfb69)" d="M 287.268614 239.758125 
L 295.105528 239.758125 
L 295.105528 238.157158 
L 287.268614 238.157158 
z
" style="fill:#ff7f0e;opacity:0.4;"/>
   </g>
   <g id="patch_60">
    <path clip-path="url(#p04133bfb69)" d="M 295.105528 239.758125 
L 302.942443 239.758125 
L 302.942443 239.758125 
L 295.105528 239.758125 
z
" style="fill:#ff7f0e;opacity:0.4;"/>
   </g>
   <g id="patch_61">
    <path clip-path="url(#p04133bfb69)" d="M 302.942443 239.758125 
L 310.779357 239.758125 
L 310.779357 239.758125 
L 302.942443 239.758125 
z
" style="fill:#ff7f0e;opacity:0.4;"/>
   </g>
   <g id="patch_62">
    <path clip-path="url(#p04133bfb69)" d="M 310.779357 239.758125 
L 318.616271 239.758125 
L 318.616271 239.758125 
L 310.779357 239.758125 
z
" style="fill:#ff7f0e;opacity:0.4;"/>
   </g>
   <g id="patch_63">
    <path clip-path="url(#p04133bfb69)" d="M 318.616271 239.758125 
L 326.453185 239.758125 
L 326.453185 236.55619 
L 318.616271 236.55619 
z
" style="fill:#ff7f0e;opacity:0.4;"/>
   </g>
   <g id="matplotlib.axis_1">
    <g id="xtick_1">
     <g id="line2d_1">
      <defs>
       <path d="M 0 0 
L 0 3.5 
" id="m2c94941462" style="stroke:#000000;stroke-width:0.8;"/>
      </defs>
      <g>
       <use style="stroke:#000000;stroke-width:0.8;" x="47.697861" xlink:href="#m2c94941462" y="239.758125"/>
      </g>
     </g>
     <g id="text_1">
      <!-- −30 -->
      <defs>
       <path d="M 10.59375 35.5 
L 73.1875 35.5 
L 73.1875 27.203125 
L 10.59375 27.203125 
z
" id="DejaVuSans-8722"/>
       <path d="M 40.578125 39.3125 
Q 47.65625 37.796875 51.625 33 
Q 55.609375 28.21875 55.609375 21.1875 
Q 55.609375 10.40625 48.1875 4.484375 
Q 40.765625 -1.421875 27.09375 -1.421875 
Q 22.515625 -1.421875 17.65625 -0.515625 
Q 12.796875 0.390625 7.625 2.203125 
L 7.625 11.71875 
Q 11.71875 9.328125 16.59375 8.109375 
Q 21.484375 6.890625 26.8125 6.890625 
Q 36.078125 6.890625 40.9375 10.546875 
Q 45.796875 14.203125 45.796875 21.1875 
Q 45.796875 27.640625 41.28125 31.265625 
Q 36.765625 34.90625 28.71875 34.90625 
L 20.21875 34.90625 
L 20.21875 43.015625 
L 29.109375 43.015625 
Q 36.375 43.015625 40.234375 45.921875 
Q 44.09375 48.828125 44.09375 54.296875 
Q 44.09375 59.90625 40.109375 62.90625 
Q 36.140625 65.921875 28.71875 65.921875 
Q 24.65625 65.921875 20.015625 65.03125 
Q 15.375 64.15625 9.8125 62.3125 
L 9.8125 71.09375 
Q 15.4375 72.65625 20.34375 73.4375 
Q 25.25 74.21875 29.59375 74.21875 
Q 40.828125 74.21875 47.359375 69.109375 
Q 53.90625 64.015625 53.90625 55.328125 
Q 53.90625 49.265625 50.4375 45.09375 
Q 46.96875 40.921875 40.578125 39.3125 
z
" id="DejaVuSans-51"/>
       <path d="M 31.78125 66.40625 
Q 24.171875 66.40625 20.328125 58.90625 
Q 16.5 51.421875 16.5 36.375 
Q 16.5 21.390625 20.328125 13.890625 
Q 24.171875 6.390625 31.78125 6.390625 
Q 39.453125 6.390625 43.28125 13.890625 
Q 47.125 21.390625 47.125 36.375 
Q 47.125 51.421875 43.28125 58.90625 
Q 39.453125 66.40625 31.78125 66.40625 
z
M 31.78125 74.21875 
Q 44.046875 74.21875 50.515625 64.515625 
Q 56.984375 54.828125 56.984375 36.375 
Q 56.984375 17.96875 50.515625 8.265625 
Q 44.046875 -1.421875 31.78125 -1.421875 
Q 19.53125 -1.421875 13.0625 8.265625 
Q 6.59375 17.96875 6.59375 36.375 
Q 6.59375 54.828125 13.0625 64.515625 
Q 19.53125 74.21875 31.78125 74.21875 
z
" id="DejaVuSans-48"/>
      </defs>
      <g transform="translate(37.145517 254.356562)scale(0.1 -0.1)">
       <use xlink:href="#DejaVuSans-8722"/>
       <use x="83.789062" xlink:href="#DejaVuSans-51"/>
       <use x="147.412109" xlink:href="#DejaVuSans-48"/>
      </g>
     </g>
    </g>
    <g id="xtick_2">
     <g id="line2d_2">
      <g>
       <use style="stroke:#000000;stroke-width:0.8;" x="102.44164" xlink:href="#m2c94941462" y="239.758125"/>
      </g>
     </g>
     <g id="text_2">
      <!-- −20 -->
      <defs>
       <path d="M 19.1875 8.296875 
L 53.609375 8.296875 
L 53.609375 0 
L 7.328125 0 
L 7.328125 8.296875 
Q 12.9375 14.109375 22.625 23.890625 
Q 32.328125 33.6875 34.8125 36.53125 
Q 39.546875 41.84375 41.421875 45.53125 
Q 43.3125 49.21875 43.3125 52.78125 
Q 43.3125 58.59375 39.234375 62.25 
Q 35.15625 65.921875 28.609375 65.921875 
Q 23.96875 65.921875 18.8125 64.3125 
Q 13.671875 62.703125 7.8125 59.421875 
L 7.8125 69.390625 
Q 13.765625 71.78125 18.9375 73 
Q 24.125 74.21875 28.421875 74.21875 
Q 39.75 74.21875 46.484375 68.546875 
Q 53.21875 62.890625 53.21875 53.421875 
Q 53.21875 48.921875 51.53125 44.890625 
Q 49.859375 40.875 45.40625 35.40625 
Q 44.1875 33.984375 37.640625 27.21875 
Q 31.109375 20.453125 19.1875 8.296875 
z
" id="DejaVuSans-50"/>
      </defs>
      <g transform="translate(91.889297 254.356562)scale(0.1 -0.1)">
       <use xlink:href="#DejaVuSans-8722"/>
       <use x="83.789062" xlink:href="#DejaVuSans-50"/>
       <use x="147.412109" xlink:href="#DejaVuSans-48"/>
      </g>
     </g>
    </g>
    <g id="xtick_3">
     <g id="line2d_3">
      <g>
       <use style="stroke:#000000;stroke-width:0.8;" x="157.18542" xlink:href="#m2c94941462" y="239.758125"/>
      </g>
     </g>
     <g id="text_3">
      <!-- −10 -->
      <defs>
       <path d="M 12.40625 8.296875 
L 28.515625 8.296875 
L 28.515625 63.921875 
L 10.984375 60.40625 
L 10.984375 69.390625 
L 28.421875 72.90625 
L 38.28125 72.90625 
L 38.28125 8.296875 
L 54.390625 8.296875 
L 54.390625 0 
L 12.40625 0 
z
" id="DejaVuSans-49"/>
      </defs>
      <g transform="translate(146.633076 254.356562)scale(0.1 -0.1)">
       <use xlink:href="#DejaVuSans-8722"/>
       <use x="83.789062" xlink:href="#DejaVuSans-49"/>
       <use x="147.412109" xlink:href="#DejaVuSans-48"/>
      </g>
     </g>
    </g>
    <g id="xtick_4">
     <g id="line2d_4">
      <g>
       <use style="stroke:#000000;stroke-width:0.8;" x="211.929199" xlink:href="#m2c94941462" y="239.758125"/>
      </g>
     </g>
     <g id="text_4">
      <!-- 0 -->
      <g transform="translate(208.747949 254.356562)scale(0.1 -0.1)">
       <use xlink:href="#DejaVuSans-48"/>
      </g>
     </g>
    </g>
    <g id="xtick_5">
     <g id="line2d_5">
      <g>
       <use style="stroke:#000000;stroke-width:0.8;" x="266.672978" xlink:href="#m2c94941462" y="239.758125"/>
      </g>
     </g>
     <g id="text_5">
      <!-- 10 -->
      <g transform="translate(260.310478 254.356562)scale(0.1 -0.1)">
       <use xlink:href="#DejaVuSans-49"/>
       <use x="63.623047" xlink:href="#DejaVuSans-48"/>
      </g>
     </g>
    </g>
    <g id="xtick_6">
     <g id="line2d_6">
      <g>
       <use style="stroke:#000000;stroke-width:0.8;" x="321.416757" xlink:href="#m2c94941462" y="239.758125"/>
      </g>
     </g>
     <g id="text_6">
      <!-- 20 -->
      <g transform="translate(315.054257 254.356562)scale(0.1 -0.1)">
       <use xlink:href="#DejaVuSans-50"/>
       <use x="63.623047" xlink:href="#DejaVuSans-48"/>
      </g>
     </g>
    </g>
    <g id="text_7">
     <!-- Angle error (Target-Response) -->
     <defs>
      <path d="M 34.1875 63.1875 
L 20.796875 26.90625 
L 47.609375 26.90625 
z
M 28.609375 72.90625 
L 39.796875 72.90625 
L 67.578125 0 
L 57.328125 0 
L 50.6875 18.703125 
L 17.828125 18.703125 
L 11.1875 0 
L 0.78125 0 
z
" id="DejaVuSans-65"/>
      <path d="M 54.890625 33.015625 
L 54.890625 0 
L 45.90625 0 
L 45.90625 32.71875 
Q 45.90625 40.484375 42.875 44.328125 
Q 39.84375 48.1875 33.796875 48.1875 
Q 26.515625 48.1875 22.3125 43.546875 
Q 18.109375 38.921875 18.109375 30.90625 
L 18.109375 0 
L 9.078125 0 
L 9.078125 54.6875 
L 18.109375 54.6875 
L 18.109375 46.1875 
Q 21.34375 51.125 25.703125 53.5625 
Q 30.078125 56 35.796875 56 
Q 45.21875 56 50.046875 50.171875 
Q 54.890625 44.34375 54.890625 33.015625 
z
" id="DejaVuSans-110"/>
      <path d="M 45.40625 27.984375 
Q 45.40625 37.75 41.375 43.109375 
Q 37.359375 48.484375 30.078125 48.484375 
Q 22.859375 48.484375 18.828125 43.109375 
Q 14.796875 37.75 14.796875 27.984375 
Q 14.796875 18.265625 18.828125 12.890625 
Q 22.859375 7.515625 30.078125 7.515625 
Q 37.359375 7.515625 41.375 12.890625 
Q 45.40625 18.265625 45.40625 27.984375 
z
M 54.390625 6.78125 
Q 54.390625 -7.171875 48.1875 -13.984375 
Q 42 -20.796875 29.203125 -20.796875 
Q 24.46875 -20.796875 20.265625 -20.09375 
Q 16.0625 -19.390625 12.109375 -17.921875 
L 12.109375 -9.1875 
Q 16.0625 -11.328125 19.921875 -12.34375 
Q 23.78125 -13.375 27.78125 -13.375 
Q 36.625 -13.375 41.015625 -8.765625 
Q 45.40625 -4.15625 45.40625 5.171875 
L 45.40625 9.625 
Q 42.625 4.78125 38.28125 2.390625 
Q 33.9375 0 27.875 0 
Q 17.828125 0 11.671875 7.65625 
Q 5.515625 15.328125 5.515625 27.984375 
Q 5.515625 40.671875 11.671875 48.328125 
Q 17.828125 56 27.875 56 
Q 33.9375 56 38.28125 53.609375 
Q 42.625 51.21875 45.40625 46.390625 
L 45.40625 54.6875 
L 54.390625 54.6875 
z
" id="DejaVuSans-103"/>
      <path d="M 9.421875 75.984375 
L 18.40625 75.984375 
L 18.40625 0 
L 9.421875 0 
z
" id="DejaVuSans-108"/>
      <path d="M 56.203125 29.59375 
L 56.203125 25.203125 
L 14.890625 25.203125 
Q 15.484375 15.921875 20.484375 11.0625 
Q 25.484375 6.203125 34.421875 6.203125 
Q 39.59375 6.203125 44.453125 7.46875 
Q 49.3125 8.734375 54.109375 11.28125 
L 54.109375 2.78125 
Q 49.265625 0.734375 44.1875 -0.34375 
Q 39.109375 -1.421875 33.890625 -1.421875 
Q 20.796875 -1.421875 13.15625 6.1875 
Q 5.515625 13.8125 5.515625 26.8125 
Q 5.515625 40.234375 12.765625 48.109375 
Q 20.015625 56 32.328125 56 
Q 43.359375 56 49.78125 48.890625 
Q 56.203125 41.796875 56.203125 29.59375 
z
M 47.21875 32.234375 
Q 47.125 39.59375 43.09375 43.984375 
Q 39.0625 48.390625 32.421875 48.390625 
Q 24.90625 48.390625 20.390625 44.140625 
Q 15.875 39.890625 15.1875 32.171875 
z
" id="DejaVuSans-101"/>
      <path id="DejaVuSans-32"/>
      <path d="M 41.109375 46.296875 
Q 39.59375 47.171875 37.8125 47.578125 
Q 36.03125 48 33.890625 48 
Q 26.265625 48 22.1875 43.046875 
Q 18.109375 38.09375 18.109375 28.8125 
L 18.109375 0 
L 9.078125 0 
L 9.078125 54.6875 
L 18.109375 54.6875 
L 18.109375 46.1875 
Q 20.953125 51.171875 25.484375 53.578125 
Q 30.03125 56 36.53125 56 
Q 37.453125 56 38.578125 55.875 
Q 39.703125 55.765625 41.0625 55.515625 
z
" id="DejaVuSans-114"/>
      <path d="M 30.609375 48.390625 
Q 23.390625 48.390625 19.1875 42.75 
Q 14.984375 37.109375 14.984375 27.296875 
Q 14.984375 17.484375 19.15625 11.84375 
Q 23.34375 6.203125 30.609375 6.203125 
Q 37.796875 6.203125 41.984375 11.859375 
Q 46.1875 17.53125 46.1875 27.296875 
Q 46.1875 37.015625 41.984375 42.703125 
Q 37.796875 48.390625 30.609375 48.390625 
z
M 30.609375 56 
Q 42.328125 56 49.015625 48.375 
Q 55.71875 40.765625 55.71875 27.296875 
Q 55.71875 13.875 49.015625 6.21875 
Q 42.328125 -1.421875 30.609375 -1.421875 
Q 18.84375 -1.421875 12.171875 6.21875 
Q 5.515625 13.875 5.515625 27.296875 
Q 5.515625 40.765625 12.171875 48.375 
Q 18.84375 56 30.609375 56 
z
" id="DejaVuSans-111"/>
      <path d="M 31 75.875 
Q 24.46875 64.65625 21.28125 53.65625 
Q 18.109375 42.671875 18.109375 31.390625 
Q 18.109375 20.125 21.3125 9.0625 
Q 24.515625 -2 31 -13.1875 
L 23.1875 -13.1875 
Q 15.875 -1.703125 12.234375 9.375 
Q 8.59375 20.453125 8.59375 31.390625 
Q 8.59375 42.28125 12.203125 53.3125 
Q 15.828125 64.359375 23.1875 75.875 
z
" id="DejaVuSans-40"/>
      <path d="M -0.296875 72.90625 
L 61.375 72.90625 
L 61.375 64.59375 
L 35.5 64.59375 
L 35.5 0 
L 25.59375 0 
L 25.59375 64.59375 
L -0.296875 64.59375 
z
" id="DejaVuSans-84"/>
      <path d="M 34.28125 27.484375 
Q 23.390625 27.484375 19.1875 25 
Q 14.984375 22.515625 14.984375 16.5 
Q 14.984375 11.71875 18.140625 8.90625 
Q 21.296875 6.109375 26.703125 6.109375 
Q 34.1875 6.109375 38.703125 11.40625 
Q 43.21875 16.703125 43.21875 25.484375 
L 43.21875 27.484375 
z
M 52.203125 31.203125 
L 52.203125 0 
L 43.21875 0 
L 43.21875 8.296875 
Q 40.140625 3.328125 35.546875 0.953125 
Q 30.953125 -1.421875 24.3125 -1.421875 
Q 15.921875 -1.421875 10.953125 3.296875 
Q 6 8.015625 6 15.921875 
Q 6 25.140625 12.171875 29.828125 
Q 18.359375 34.515625 30.609375 34.515625 
L 43.21875 34.515625 
L 43.21875 35.40625 
Q 43.21875 41.609375 39.140625 45 
Q 35.0625 48.390625 27.6875 48.390625 
Q 23 48.390625 18.546875 47.265625 
Q 14.109375 46.140625 10.015625 43.890625 
L 10.015625 52.203125 
Q 14.9375 54.109375 19.578125 55.046875 
Q 24.21875 56 28.609375 56 
Q 40.484375 56 46.34375 49.84375 
Q 52.203125 43.703125 52.203125 31.203125 
z
" id="DejaVuSans-97"/>
      <path d="M 18.3125 70.21875 
L 18.3125 54.6875 
L 36.8125 54.6875 
L 36.8125 47.703125 
L 18.3125 47.703125 
L 18.3125 18.015625 
Q 18.3125 11.328125 20.140625 9.421875 
Q 21.96875 7.515625 27.59375 7.515625 
L 36.8125 7.515625 
L 36.8125 0 
L 27.59375 0 
Q 17.1875 0 13.234375 3.875 
Q 9.28125 7.765625 9.28125 18.015625 
L 9.28125 47.703125 
L 2.6875 47.703125 
L 2.6875 54.6875 
L 9.28125 54.6875 
L 9.28125 70.21875 
z
" id="DejaVuSans-116"/>
      <path d="M 4.890625 31.390625 
L 31.203125 31.390625 
L 31.203125 23.390625 
L 4.890625 23.390625 
z
" id="DejaVuSans-45"/>
      <path d="M 44.390625 34.1875 
Q 47.5625 33.109375 50.5625 29.59375 
Q 53.5625 26.078125 56.59375 19.921875 
L 66.609375 0 
L 56 0 
L 46.6875 18.703125 
Q 43.0625 26.03125 39.671875 28.421875 
Q 36.28125 30.8125 30.421875 30.8125 
L 19.671875 30.8125 
L 19.671875 0 
L 9.8125 0 
L 9.8125 72.90625 
L 32.078125 72.90625 
Q 44.578125 72.90625 50.734375 67.671875 
Q 56.890625 62.453125 56.890625 51.90625 
Q 56.890625 45.015625 53.6875 40.46875 
Q 50.484375 35.9375 44.390625 34.1875 
z
M 19.671875 64.796875 
L 19.671875 38.921875 
L 32.078125 38.921875 
Q 39.203125 38.921875 42.84375 42.21875 
Q 46.484375 45.515625 46.484375 51.90625 
Q 46.484375 58.296875 42.84375 61.546875 
Q 39.203125 64.796875 32.078125 64.796875 
z
" id="DejaVuSans-82"/>
      <path d="M 44.28125 53.078125 
L 44.28125 44.578125 
Q 40.484375 46.53125 36.375 47.5 
Q 32.28125 48.484375 27.875 48.484375 
Q 21.1875 48.484375 17.84375 46.4375 
Q 14.5 44.390625 14.5 40.28125 
Q 14.5 37.15625 16.890625 35.375 
Q 19.28125 33.59375 26.515625 31.984375 
L 29.59375 31.296875 
Q 39.15625 29.25 43.1875 25.515625 
Q 47.21875 21.78125 47.21875 15.09375 
Q 47.21875 7.46875 41.1875 3.015625 
Q 35.15625 -1.421875 24.609375 -1.421875 
Q 20.21875 -1.421875 15.453125 -0.5625 
Q 10.6875 0.296875 5.421875 2 
L 5.421875 11.28125 
Q 10.40625 8.6875 15.234375 7.390625 
Q 20.0625 6.109375 24.8125 6.109375 
Q 31.15625 6.109375 34.5625 8.28125 
Q 37.984375 10.453125 37.984375 14.40625 
Q 37.984375 18.0625 35.515625 20.015625 
Q 33.0625 21.96875 24.703125 23.78125 
L 21.578125 24.515625 
Q 13.234375 26.265625 9.515625 29.90625 
Q 5.8125 33.546875 5.8125 39.890625 
Q 5.8125 47.609375 11.28125 51.796875 
Q 16.75 56 26.8125 56 
Q 31.78125 56 36.171875 55.265625 
Q 40.578125 54.546875 44.28125 53.078125 
z
" id="DejaVuSans-115"/>
      <path d="M 18.109375 8.203125 
L 18.109375 -20.796875 
L 9.078125 -20.796875 
L 9.078125 54.6875 
L 18.109375 54.6875 
L 18.109375 46.390625 
Q 20.953125 51.265625 25.265625 53.625 
Q 29.59375 56 35.59375 56 
Q 45.5625 56 51.78125 48.09375 
Q 58.015625 40.1875 58.015625 27.296875 
Q 58.015625 14.40625 51.78125 6.484375 
Q 45.5625 -1.421875 35.59375 -1.421875 
Q 29.59375 -1.421875 25.265625 0.953125 
Q 20.953125 3.328125 18.109375 8.203125 
z
M 48.6875 27.296875 
Q 48.6875 37.203125 44.609375 42.84375 
Q 40.53125 48.484375 33.40625 48.484375 
Q 26.265625 48.484375 22.1875 42.84375 
Q 18.109375 37.203125 18.109375 27.296875 
Q 18.109375 17.390625 22.1875 11.75 
Q 26.265625 6.109375 33.40625 6.109375 
Q 40.53125 6.109375 44.609375 11.75 
Q 48.6875 17.390625 48.6875 27.296875 
z
" id="DejaVuSans-112"/>
      <path d="M 8.015625 75.875 
L 15.828125 75.875 
Q 23.140625 64.359375 26.78125 53.3125 
Q 30.421875 42.28125 30.421875 31.390625 
Q 30.421875 20.453125 26.78125 9.375 
Q 23.140625 -1.703125 15.828125 -13.1875 
L 8.015625 -13.1875 
Q 14.5 -2 17.703125 9.0625 
Q 20.90625 20.125 20.90625 31.390625 
Q 20.90625 42.671875 17.703125 53.65625 
Q 14.5 64.65625 8.015625 75.875 
z
" id="DejaVuSans-41"/>
     </defs>
     <g transform="translate(127.846094 268.034687)scale(0.1 -0.1)">
      <use xlink:href="#DejaVuSans-65"/>
      <use x="68.408203" xlink:href="#DejaVuSans-110"/>
      <use x="131.787109" xlink:href="#DejaVuSans-103"/>
      <use x="195.263672" xlink:href="#DejaVuSans-108"/>
      <use x="223.046875" xlink:href="#DejaVuSans-101"/>
      <use x="284.570312" xlink:href="#DejaVuSans-32"/>
      <use x="316.357422" xlink:href="#DejaVuSans-101"/>
      <use x="377.880859" xlink:href="#DejaVuSans-114"/>
      <use x="418.978516" xlink:href="#DejaVuSans-114"/>
      <use x="460.060547" xlink:href="#DejaVuSans-111"/>
      <use x="521.242188" xlink:href="#DejaVuSans-114"/>
      <use x="562.355469" xlink:href="#DejaVuSans-32"/>
      <use x="594.142578" xlink:href="#DejaVuSans-40"/>
      <use x="633.15625" xlink:href="#DejaVuSans-84"/>
      <use x="693.990234" xlink:href="#DejaVuSans-97"/>
      <use x="755.269531" xlink:href="#DejaVuSans-114"/>
      <use x="796.367188" xlink:href="#DejaVuSans-103"/>
      <use x="859.84375" xlink:href="#DejaVuSans-101"/>
      <use x="921.367188" xlink:href="#DejaVuSans-116"/>
      <use x="960.576172" xlink:href="#DejaVuSans-45"/>
      <use x="996.660156" xlink:href="#DejaVuSans-82"/>
      <use x="1066.080078" xlink:href="#DejaVuSans-101"/>
      <use x="1127.603516" xlink:href="#DejaVuSans-115"/>
      <use x="1179.703125" xlink:href="#DejaVuSans-112"/>
      <use x="1243.179688" xlink:href="#DejaVuSans-111"/>
      <use x="1304.361328" xlink:href="#DejaVuSans-110"/>
      <use x="1367.740234" xlink:href="#DejaVuSans-115"/>
      <use x="1419.839844" xlink:href="#DejaVuSans-101"/>
      <use x="1481.363281" xlink:href="#DejaVuSans-41"/>
     </g>
    </g>
   </g>
   <g id="matplotlib.axis_2">
    <g id="ytick_1">
     <g id="line2d_7">
      <defs>
       <path d="M 0 0 
L -3.5 0 
" id="m032cf88b71" style="stroke:#000000;stroke-width:0.8;"/>
      </defs>
      <g>
       <use style="stroke:#000000;stroke-width:0.8;" x="36.465625" xlink:href="#m032cf88b71" y="239.758125"/>
      </g>
     </g>
     <g id="text_8">
      <!-- 0.00 -->
      <defs>
       <path d="M 10.6875 12.40625 
L 21 12.40625 
L 21 0 
L 10.6875 0 
z
" id="DejaVuSans-46"/>
      </defs>
      <g transform="translate(7.2 243.557344)scale(0.1 -0.1)">
       <use xlink:href="#DejaVuSans-48"/>
       <use x="63.623047" xlink:href="#DejaVuSans-46"/>
       <use x="95.410156" xlink:href="#DejaVuSans-48"/>
       <use x="159.033203" xlink:href="#DejaVuSans-48"/>
      </g>
     </g>
    </g>
    <g id="ytick_2">
     <g id="line2d_8">
      <g>
       <use style="stroke:#000000;stroke-width:0.8;" x="36.465625" xlink:href="#m032cf88b71" y="213.309775"/>
      </g>
     </g>
     <g id="text_9">
      <!-- 0.01 -->
      <g transform="translate(7.2 217.108994)scale(0.1 -0.1)">
       <use xlink:href="#DejaVuSans-48"/>
       <use x="63.623047" xlink:href="#DejaVuSans-46"/>
       <use x="95.410156" xlink:href="#DejaVuSans-48"/>
       <use x="159.033203" xlink:href="#DejaVuSans-49"/>
      </g>
     </g>
    </g>
    <g id="ytick_3">
     <g id="line2d_9">
      <g>
       <use style="stroke:#000000;stroke-width:0.8;" x="36.465625" xlink:href="#m032cf88b71" y="186.861425"/>
      </g>
     </g>
     <g id="text_10">
      <!-- 0.02 -->
      <g transform="translate(7.2 190.660643)scale(0.1 -0.1)">
       <use xlink:href="#DejaVuSans-48"/>
       <use x="63.623047" xlink:href="#DejaVuSans-46"/>
       <use x="95.410156" xlink:href="#DejaVuSans-48"/>
       <use x="159.033203" xlink:href="#DejaVuSans-50"/>
      </g>
     </g>
    </g>
    <g id="ytick_4">
     <g id="line2d_10">
      <g>
       <use style="stroke:#000000;stroke-width:0.8;" x="36.465625" xlink:href="#m032cf88b71" y="160.413074"/>
      </g>
     </g>
     <g id="text_11">
      <!-- 0.03 -->
      <g transform="translate(7.2 164.212293)scale(0.1 -0.1)">
       <use xlink:href="#DejaVuSans-48"/>
       <use x="63.623047" xlink:href="#DejaVuSans-46"/>
       <use x="95.410156" xlink:href="#DejaVuSans-48"/>
       <use x="159.033203" xlink:href="#DejaVuSans-51"/>
      </g>
     </g>
    </g>
    <g id="ytick_5">
     <g id="line2d_11">
      <g>
       <use style="stroke:#000000;stroke-width:0.8;" x="36.465625" xlink:href="#m032cf88b71" y="133.964724"/>
      </g>
     </g>
     <g id="text_12">
      <!-- 0.04 -->
      <defs>
       <path d="M 37.796875 64.3125 
L 12.890625 25.390625 
L 37.796875 25.390625 
z
M 35.203125 72.90625 
L 47.609375 72.90625 
L 47.609375 25.390625 
L 58.015625 25.390625 
L 58.015625 17.1875 
L 47.609375 17.1875 
L 47.609375 0 
L 37.796875 0 
L 37.796875 17.1875 
L 4.890625 17.1875 
L 4.890625 26.703125 
z
" id="DejaVuSans-52"/>
      </defs>
      <g transform="translate(7.2 137.763943)scale(0.1 -0.1)">
       <use xlink:href="#DejaVuSans-48"/>
       <use x="63.623047" xlink:href="#DejaVuSans-46"/>
       <use x="95.410156" xlink:href="#DejaVuSans-48"/>
       <use x="159.033203" xlink:href="#DejaVuSans-52"/>
      </g>
     </g>
    </g>
    <g id="ytick_6">
     <g id="line2d_12">
      <g>
       <use style="stroke:#000000;stroke-width:0.8;" x="36.465625" xlink:href="#m032cf88b71" y="107.516374"/>
      </g>
     </g>
     <g id="text_13">
      <!-- 0.05 -->
      <defs>
       <path d="M 10.796875 72.90625 
L 49.515625 72.90625 
L 49.515625 64.59375 
L 19.828125 64.59375 
L 19.828125 46.734375 
Q 21.96875 47.46875 24.109375 47.828125 
Q 26.265625 48.1875 28.421875 48.1875 
Q 40.625 48.1875 47.75 41.5 
Q 54.890625 34.8125 54.890625 23.390625 
Q 54.890625 11.625 47.5625 5.09375 
Q 40.234375 -1.421875 26.90625 -1.421875 
Q 22.3125 -1.421875 17.546875 -0.640625 
Q 12.796875 0.140625 7.71875 1.703125 
L 7.71875 11.625 
Q 12.109375 9.234375 16.796875 8.0625 
Q 21.484375 6.890625 26.703125 6.890625 
Q 35.15625 6.890625 40.078125 11.328125 
Q 45.015625 15.765625 45.015625 23.390625 
Q 45.015625 31 40.078125 35.4375 
Q 35.15625 39.890625 26.703125 39.890625 
Q 22.75 39.890625 18.8125 39.015625 
Q 14.890625 38.140625 10.796875 36.28125 
z
" id="DejaVuSans-53"/>
      </defs>
      <g transform="translate(7.2 111.315593)scale(0.1 -0.1)">
       <use xlink:href="#DejaVuSans-48"/>
       <use x="63.623047" xlink:href="#DejaVuSans-46"/>
       <use x="95.410156" xlink:href="#DejaVuSans-48"/>
       <use x="159.033203" xlink:href="#DejaVuSans-53"/>
      </g>
     </g>
    </g>
    <g id="ytick_7">
     <g id="line2d_13">
      <g>
       <use style="stroke:#000000;stroke-width:0.8;" x="36.465625" xlink:href="#m032cf88b71" y="81.068024"/>
      </g>
     </g>
     <g id="text_14">
      <!-- 0.06 -->
      <defs>
       <path d="M 33.015625 40.375 
Q 26.375 40.375 22.484375 35.828125 
Q 18.609375 31.296875 18.609375 23.390625 
Q 18.609375 15.53125 22.484375 10.953125 
Q 26.375 6.390625 33.015625 6.390625 
Q 39.65625 6.390625 43.53125 10.953125 
Q 47.40625 15.53125 47.40625 23.390625 
Q 47.40625 31.296875 43.53125 35.828125 
Q 39.65625 40.375 33.015625 40.375 
z
M 52.59375 71.296875 
L 52.59375 62.3125 
Q 48.875 64.0625 45.09375 64.984375 
Q 41.3125 65.921875 37.59375 65.921875 
Q 27.828125 65.921875 22.671875 59.328125 
Q 17.53125 52.734375 16.796875 39.40625 
Q 19.671875 43.65625 24.015625 45.921875 
Q 28.375 48.1875 33.59375 48.1875 
Q 44.578125 48.1875 50.953125 41.515625 
Q 57.328125 34.859375 57.328125 23.390625 
Q 57.328125 12.15625 50.6875 5.359375 
Q 44.046875 -1.421875 33.015625 -1.421875 
Q 20.359375 -1.421875 13.671875 8.265625 
Q 6.984375 17.96875 6.984375 36.375 
Q 6.984375 53.65625 15.1875 63.9375 
Q 23.390625 74.21875 37.203125 74.21875 
Q 40.921875 74.21875 44.703125 73.484375 
Q 48.484375 72.75 52.59375 71.296875 
z
" id="DejaVuSans-54"/>
      </defs>
      <g transform="translate(7.2 84.867242)scale(0.1 -0.1)">
       <use xlink:href="#DejaVuSans-48"/>
       <use x="63.623047" xlink:href="#DejaVuSans-46"/>
       <use x="95.410156" xlink:href="#DejaVuSans-48"/>
       <use x="159.033203" xlink:href="#DejaVuSans-54"/>
      </g>
     </g>
    </g>
    <g id="ytick_8">
     <g id="line2d_14">
      <g>
       <use style="stroke:#000000;stroke-width:0.8;" x="36.465625" xlink:href="#m032cf88b71" y="54.619673"/>
      </g>
     </g>
     <g id="text_15">
      <!-- 0.07 -->
      <defs>
       <path d="M 8.203125 72.90625 
L 55.078125 72.90625 
L 55.078125 68.703125 
L 28.609375 0 
L 18.3125 0 
L 43.21875 64.59375 
L 8.203125 64.59375 
z
" id="DejaVuSans-55"/>
      </defs>
      <g transform="translate(7.2 58.418892)scale(0.1 -0.1)">
       <use xlink:href="#DejaVuSans-48"/>
       <use x="63.623047" xlink:href="#DejaVuSans-46"/>
       <use x="95.410156" xlink:href="#DejaVuSans-48"/>
       <use x="159.033203" xlink:href="#DejaVuSans-55"/>
      </g>
     </g>
    </g>
    <g id="ytick_9">
     <g id="line2d_15">
      <g>
       <use style="stroke:#000000;stroke-width:0.8;" x="36.465625" xlink:href="#m032cf88b71" y="28.171323"/>
      </g>
     </g>
     <g id="text_16">
      <!-- 0.08 -->
      <defs>
       <path d="M 31.78125 34.625 
Q 24.75 34.625 20.71875 30.859375 
Q 16.703125 27.09375 16.703125 20.515625 
Q 16.703125 13.921875 20.71875 10.15625 
Q 24.75 6.390625 31.78125 6.390625 
Q 38.8125 6.390625 42.859375 10.171875 
Q 46.921875 13.96875 46.921875 20.515625 
Q 46.921875 27.09375 42.890625 30.859375 
Q 38.875 34.625 31.78125 34.625 
z
M 21.921875 38.8125 
Q 15.578125 40.375 12.03125 44.71875 
Q 8.5 49.078125 8.5 55.328125 
Q 8.5 64.0625 14.71875 69.140625 
Q 20.953125 74.21875 31.78125 74.21875 
Q 42.671875 74.21875 48.875 69.140625 
Q 55.078125 64.0625 55.078125 55.328125 
Q 55.078125 49.078125 51.53125 44.71875 
Q 48 40.375 41.703125 38.8125 
Q 48.828125 37.15625 52.796875 32.3125 
Q 56.78125 27.484375 56.78125 20.515625 
Q 56.78125 9.90625 50.3125 4.234375 
Q 43.84375 -1.421875 31.78125 -1.421875 
Q 19.734375 -1.421875 13.25 4.234375 
Q 6.78125 9.90625 6.78125 20.515625 
Q 6.78125 27.484375 10.78125 32.3125 
Q 14.796875 37.15625 21.921875 38.8125 
z
M 18.3125 54.390625 
Q 18.3125 48.734375 21.84375 45.5625 
Q 25.390625 42.390625 31.78125 42.390625 
Q 38.140625 42.390625 41.71875 45.5625 
Q 45.3125 48.734375 45.3125 54.390625 
Q 45.3125 60.0625 41.71875 63.234375 
Q 38.140625 66.40625 31.78125 66.40625 
Q 25.390625 66.40625 21.84375 63.234375 
Q 18.3125 60.0625 18.3125 54.390625 
z
" id="DejaVuSans-56"/>
      </defs>
      <g transform="translate(7.2 31.970542)scale(0.1 -0.1)">
       <use xlink:href="#DejaVuSans-48"/>
       <use x="63.623047" xlink:href="#DejaVuSans-46"/>
       <use x="95.410156" xlink:href="#DejaVuSans-48"/>
       <use x="159.033203" xlink:href="#DejaVuSans-56"/>
      </g>
     </g>
    </g>
   </g>
   <g id="line2d_16">
    <path clip-path="url(#p04133bfb69)" d="M 78.650223 239.735487 
L 85.202913 239.588077 
L 89.571373 239.244042 
L 93.939833 238.570593 
L 102.676754 236.871261 
L 104.860984 236.67204 
L 107.045214 236.640585 
L 109.229444 236.767119 
L 113.597904 237.321703 
L 117.966364 237.907354 
L 122.334824 238.212001 
L 126.703285 238.158048 
L 131.071745 237.760679 
L 133.255975 237.40112 
L 135.440205 236.878898 
L 137.624435 236.129537 
L 139.808665 235.083163 
L 141.992895 233.681488 
L 144.177125 231.893677 
L 146.361355 229.725066 
L 148.545585 227.215781 
L 150.729816 224.430818 
L 155.098276 218.336156 
L 161.650966 208.716775 
L 166.019426 201.864699 
L 168.203656 197.991668 
L 170.387886 193.61153 
L 172.572116 188.598369 
L 174.756346 182.892921 
L 176.940577 176.512424 
L 179.124807 169.533008 
L 181.309037 162.056285 
L 185.677497 145.995492 
L 194.414417 112.631405 
L 196.598647 105.057279 
L 198.782877 98.158364 
L 200.967107 92.012346 
L 203.151337 86.604193 
L 205.335568 81.842988 
L 207.519798 77.594833 
L 209.704028 73.719557 
L 214.072488 66.694963 
L 216.256718 63.523744 
L 218.440948 60.732398 
L 220.625178 58.572089 
L 222.809408 57.367522 
L 224.993638 57.441321 
L 227.177868 59.017365 
L 229.362098 62.139323 
L 231.546329 66.641299 
L 233.730559 72.187728 
L 238.099019 84.815969 
L 249.020169 117.368727 
L 253.388629 131.679122 
L 259.94132 153.515244 
L 262.12555 160.246586 
L 264.30978 166.546176 
L 266.49401 172.426754 
L 270.86247 183.202032 
L 275.23093 193.089034 
L 279.59939 202.13995 
L 281.78362 206.243195 
L 283.96785 210.003933 
L 286.152081 213.405778 
L 288.336311 216.465248 
L 290.520541 219.226348 
L 292.704771 221.74532 
L 294.889001 224.071066 
L 297.073231 226.228741 
L 299.257461 228.213104 
L 301.441691 229.994382 
L 303.625921 231.534205 
L 305.810151 232.804976 
L 307.994381 233.804886 
L 310.178611 234.562952 
L 312.362842 235.132845 
L 316.731302 235.959644 
L 329.836682 238.042353 
L 336.389372 238.883984 
L 342.942063 239.450462 
L 349.494753 239.692579 
L 356.047443 239.742242 
L 356.047443 239.742242 
" style="fill:none;stroke:#1f77b4;stroke-linecap:square;stroke-width:1.5;"/>
   </g>
   <g id="line2d_17">
    <path clip-path="url(#p04133bfb69)" d="M 51.683807 239.740667 
L 58.741071 239.61958 
L 63.445913 239.339283 
L 68.150756 238.825546 
L 77.560441 237.599327 
L 84.617705 236.979579 
L 94.02739 236.171557 
L 98.732233 235.488135 
L 103.437075 234.406694 
L 108.141918 232.936462 
L 112.84676 231.130103 
L 115.199182 230.065446 
L 117.551603 228.847603 
L 119.904024 227.439433 
L 122.256445 225.81031 
L 124.608867 223.935672 
L 126.961288 221.789598 
L 129.313709 219.334989 
L 131.666131 216.5172 
L 134.018552 213.266452 
L 136.370973 209.513232 
L 138.723395 205.216976 
L 141.075816 200.39861 
L 143.428237 195.15563 
L 148.13308 183.976481 
L 152.837922 172.244005 
L 155.190344 165.878212 
L 157.542765 158.920212 
L 159.895186 151.290476 
L 164.600029 134.519459 
L 169.304871 117.43307 
L 174.009714 101.504119 
L 176.362135 94.120483 
L 178.714556 87.171369 
L 181.066978 80.713981 
L 183.419399 74.804629 
L 185.77182 69.483524 
L 188.124242 64.791468 
L 190.476663 60.814683 
L 192.829084 57.724386 
L 195.181505 55.773933 
L 197.533927 55.239908 
L 199.886348 56.325683 
L 202.238769 59.066588 
L 204.591191 63.277796 
L 206.943612 68.57255 
L 216.353297 91.926859 
L 218.705718 97.538143 
L 221.05814 103.450223 
L 223.410561 109.962388 
L 225.762982 117.236866 
L 228.115404 125.250078 
L 232.820246 142.662805 
L 237.525089 160.098534 
L 239.87751 168.308911 
L 242.229931 176.074026 
L 244.582353 183.399218 
L 246.934774 190.309899 
L 249.287195 196.805776 
L 251.639616 202.832121 
L 253.992038 208.283322 
L 256.344459 213.039831 
L 258.69688 217.021789 
L 261.049302 220.232079 
L 263.401723 222.766402 
L 265.754144 224.786187 
L 268.106565 226.470031 
L 272.811408 229.379141 
L 279.868672 233.364307 
L 284.573514 235.66734 
L 286.925936 236.632329 
L 289.278357 237.447715 
L 291.630778 238.109012 
L 293.9832 238.623117 
L 296.335621 239.004624 
L 301.040463 239.439946 
L 305.745306 239.535993 
L 310.450149 239.368649 
L 322.212255 238.610582 
L 326.917098 238.684156 
L 333.974362 239.200747 
L 341.031625 239.612454 
L 348.088889 239.737395 
L 350.441311 239.744448 
L 350.441311 239.744448 
" style="fill:none;stroke:#ff7f0e;stroke-linecap:square;stroke-width:1.5;"/>
   </g>
   <g id="patch_64">
    <path d="M 36.465625 239.758125 
L 36.465625 22.318125 
" style="fill:none;stroke:#000000;stroke-linecap:square;stroke-linejoin:miter;stroke-width:0.8;"/>
   </g>
   <g id="patch_65">
    <path d="M 36.465625 239.758125 
L 371.265625 239.758125 
" style="fill:none;stroke:#000000;stroke-linecap:square;stroke-linejoin:miter;stroke-width:0.8;"/>
   </g>
   <g id="text_17">
    <!-- Distribution cw ccw -->
    <defs>
     <path d="M 19.671875 64.796875 
L 19.671875 8.109375 
L 31.59375 8.109375 
Q 46.6875 8.109375 53.6875 14.9375 
Q 60.6875 21.78125 60.6875 36.53125 
Q 60.6875 51.171875 53.6875 57.984375 
Q 46.6875 64.796875 31.59375 64.796875 
z
M 9.8125 72.90625 
L 30.078125 72.90625 
Q 51.265625 72.90625 61.171875 64.09375 
Q 71.09375 55.28125 71.09375 36.53125 
Q 71.09375 17.671875 61.125 8.828125 
Q 51.171875 0 30.078125 0 
L 9.8125 0 
z
" id="DejaVuSans-68"/>
     <path d="M 9.421875 54.6875 
L 18.40625 54.6875 
L 18.40625 0 
L 9.421875 0 
z
M 9.421875 75.984375 
L 18.40625 75.984375 
L 18.40625 64.59375 
L 9.421875 64.59375 
z
" id="DejaVuSans-105"/>
     <path d="M 48.6875 27.296875 
Q 48.6875 37.203125 44.609375 42.84375 
Q 40.53125 48.484375 33.40625 48.484375 
Q 26.265625 48.484375 22.1875 42.84375 
Q 18.109375 37.203125 18.109375 27.296875 
Q 18.109375 17.390625 22.1875 11.75 
Q 26.265625 6.109375 33.40625 6.109375 
Q 40.53125 6.109375 44.609375 11.75 
Q 48.6875 17.390625 48.6875 27.296875 
z
M 18.109375 46.390625 
Q 20.953125 51.265625 25.265625 53.625 
Q 29.59375 56 35.59375 56 
Q 45.5625 56 51.78125 48.09375 
Q 58.015625 40.1875 58.015625 27.296875 
Q 58.015625 14.40625 51.78125 6.484375 
Q 45.5625 -1.421875 35.59375 -1.421875 
Q 29.59375 -1.421875 25.265625 0.953125 
Q 20.953125 3.328125 18.109375 8.203125 
L 18.109375 0 
L 9.078125 0 
L 9.078125 75.984375 
L 18.109375 75.984375 
z
" id="DejaVuSans-98"/>
     <path d="M 8.5 21.578125 
L 8.5 54.6875 
L 17.484375 54.6875 
L 17.484375 21.921875 
Q 17.484375 14.15625 20.5 10.265625 
Q 23.53125 6.390625 29.59375 6.390625 
Q 36.859375 6.390625 41.078125 11.03125 
Q 45.3125 15.671875 45.3125 23.6875 
L 45.3125 54.6875 
L 54.296875 54.6875 
L 54.296875 0 
L 45.3125 0 
L 45.3125 8.40625 
Q 42.046875 3.421875 37.71875 1 
Q 33.40625 -1.421875 27.6875 -1.421875 
Q 18.265625 -1.421875 13.375 4.4375 
Q 8.5 10.296875 8.5 21.578125 
z
M 31.109375 56 
z
" id="DejaVuSans-117"/>
     <path d="M 48.78125 52.59375 
L 48.78125 44.1875 
Q 44.96875 46.296875 41.140625 47.34375 
Q 37.3125 48.390625 33.40625 48.390625 
Q 24.65625 48.390625 19.8125 42.84375 
Q 14.984375 37.3125 14.984375 27.296875 
Q 14.984375 17.28125 19.8125 11.734375 
Q 24.65625 6.203125 33.40625 6.203125 
Q 37.3125 6.203125 41.140625 7.25 
Q 44.96875 8.296875 48.78125 10.40625 
L 48.78125 2.09375 
Q 45.015625 0.34375 40.984375 -0.53125 
Q 36.96875 -1.421875 32.421875 -1.421875 
Q 20.0625 -1.421875 12.78125 6.34375 
Q 5.515625 14.109375 5.515625 27.296875 
Q 5.515625 40.671875 12.859375 48.328125 
Q 20.21875 56 33.015625 56 
Q 37.15625 56 41.109375 55.140625 
Q 45.0625 54.296875 48.78125 52.59375 
z
" id="DejaVuSans-99"/>
     <path d="M 4.203125 54.6875 
L 13.1875 54.6875 
L 24.421875 12.015625 
L 35.59375 54.6875 
L 46.1875 54.6875 
L 57.421875 12.015625 
L 68.609375 54.6875 
L 77.59375 54.6875 
L 63.28125 0 
L 52.6875 0 
L 40.921875 44.828125 
L 29.109375 0 
L 18.5 0 
z
" id="DejaVuSans-119"/>
    </defs>
    <g transform="translate(145.338438 16.318125)scale(0.12 -0.12)">
     <use xlink:href="#DejaVuSans-68"/>
     <use x="77.001953" xlink:href="#DejaVuSans-105"/>
     <use x="104.785156" xlink:href="#DejaVuSans-115"/>
     <use x="156.884766" xlink:href="#DejaVuSans-116"/>
     <use x="196.09375" xlink:href="#DejaVuSans-114"/>
     <use x="237.207031" xlink:href="#DejaVuSans-105"/>
     <use x="264.990234" xlink:href="#DejaVuSans-98"/>
     <use x="328.466797" xlink:href="#DejaVuSans-117"/>
     <use x="391.845703" xlink:href="#DejaVuSans-116"/>
     <use x="431.054688" xlink:href="#DejaVuSans-105"/>
     <use x="458.837891" xlink:href="#DejaVuSans-111"/>
     <use x="520.019531" xlink:href="#DejaVuSans-110"/>
     <use x="583.398438" xlink:href="#DejaVuSans-32"/>
     <use x="615.185547" xlink:href="#DejaVuSans-99"/>
     <use x="670.166016" xlink:href="#DejaVuSans-119"/>
     <use x="751.953125" xlink:href="#DejaVuSans-32"/>
     <use x="783.740234" xlink:href="#DejaVuSans-99"/>
     <use x="838.720703" xlink:href="#DejaVuSans-99"/>
     <use x="893.701172" xlink:href="#DejaVuSans-119"/>
    </g>
   </g>
   <g id="legend_1">
    <g id="patch_66">
     <path d="M 315.090625 38.916562 
L 335.090625 38.916562 
L 335.090625 31.916562 
L 315.090625 31.916562 
z
" style="fill:#1f77b4;opacity:0.4;"/>
    </g>
    <g id="text_18">
     <!-- cw -->
     <g transform="translate(343.090625 38.916562)scale(0.1 -0.1)">
      <use xlink:href="#DejaVuSans-99"/>
      <use x="54.980469" xlink:href="#DejaVuSans-119"/>
     </g>
    </g>
    <g id="patch_67">
     <path d="M 315.090625 53.594687 
L 335.090625 53.594687 
L 335.090625 46.594687 
L 315.090625 46.594687 
z
" style="fill:#ff7f0e;opacity:0.4;"/>
    </g>
    <g id="text_19">
     <!-- ccw -->
     <g transform="translate(343.090625 53.594687)scale(0.1 -0.1)">
      <use xlink:href="#DejaVuSans-99"/>
      <use x="54.980469" xlink:href="#DejaVuSans-99"/>
      <use x="109.960938" xlink:href="#DejaVuSans-119"/>
     </g>
    </g>
   </g>
  </g>
 </g>
 <defs>
  <clipPath id="p04133bfb69">
   <rect height="217.44" width="334.8" x="36.465625" y="22.318125"/>
  </clipPath>
 </defs>
</svg>
