<?xml version="1.0" encoding="utf-8" standalone="no"?>
<!DOCTYPE svg PUBLIC "-//W3C//DTD SVG 1.1//EN"
  "http://www.w3.org/Graphics/SVG/1.1/DTD/svg11.dtd">
<!-- Created with matplotlib (https://matplotlib.org/) -->
<svg height="263.63625pt" version="1.1" viewBox="0 0 381.965625 263.63625" width="381.965625pt" xmlns="http://www.w3.org/2000/svg" xmlns:xlink="http://www.w3.org/1999/xlink">
 <defs>
  <style type="text/css">
*{stroke-linecap:butt;stroke-linejoin:round;}
  </style>
 </defs>
 <g id="figure_1">
  <g id="patch_1">
   <path d="M 0 263.63625 
L 381.965625 263.63625 
L 381.965625 0 
L 0 0 
z
" style="fill:none;"/>
  </g>
  <g id="axes_1">
   <g id="patch_2">
    <path d="M 36.465625 239.758125 
L 371.265625 239.758125 
L 371.265625 22.318125 
L 36.465625 22.318125 
z
" style="fill:#ffffff;"/>
   </g>
   <g id="patch_3">
    <path clip-path="url(#p5ae2536e3e)" d="M 71.053694 239.758125 
L 78.081251 239.758125 
L 78.081251 237.599686 
L 71.053694 237.599686 
z
" style="fill:#00ffff;opacity:0.4;"/>
   </g>
   <g id="patch_4">
    <path clip-path="url(#p5ae2536e3e)" d="M 78.081251 239.758125 
L 85.108807 239.758125 
L 85.108807 239.758125 
L 78.081251 239.758125 
z
" style="fill:#00ffff;opacity:0.4;"/>
   </g>
   <g id="patch_5">
    <path clip-path="url(#p5ae2536e3e)" d="M 85.108807 239.758125 
L 92.136364 239.758125 
L 92.136364 228.965932 
L 85.108807 228.965932 
z
" style="fill:#00ffff;opacity:0.4;"/>
   </g>
   <g id="patch_6">
    <path clip-path="url(#p5ae2536e3e)" d="M 92.136364 239.758125 
L 99.16392 239.758125 
L 99.16392 224.649054 
L 92.136364 224.649054 
z
" style="fill:#00ffff;opacity:0.4;"/>
   </g>
   <g id="patch_7">
    <path clip-path="url(#p5ae2536e3e)" d="M 99.16392 239.758125 
L 106.191477 239.758125 
L 106.191477 209.539984 
L 99.16392 209.539984 
z
" style="fill:#00ffff;opacity:0.4;"/>
   </g>
   <g id="patch_8">
    <path clip-path="url(#p5ae2536e3e)" d="M 106.191477 239.758125 
L 113.219034 239.758125 
L 113.219034 205.223106 
L 106.191477 205.223106 
z
" style="fill:#00ffff;opacity:0.4;"/>
   </g>
   <g id="patch_9">
    <path clip-path="url(#p5ae2536e3e)" d="M 113.219034 239.758125 
L 120.24659 239.758125 
L 120.24659 190.114036 
L 113.219034 190.114036 
z
" style="fill:#00ffff;opacity:0.4;"/>
   </g>
   <g id="patch_10">
    <path clip-path="url(#p5ae2536e3e)" d="M 120.24659 239.758125 
L 127.274147 239.758125 
L 127.274147 131.836191 
L 120.24659 131.836191 
z
" style="fill:#00ffff;opacity:0.4;"/>
   </g>
   <g id="patch_11">
    <path clip-path="url(#p5ae2536e3e)" d="M 127.274147 239.758125 
L 134.301703 239.758125 
L 134.301703 90.825857 
L 127.274147 90.825857 
z
" style="fill:#00ffff;opacity:0.4;"/>
   </g>
   <g id="patch_12">
    <path clip-path="url(#p5ae2536e3e)" d="M 134.301703 239.758125 
L 141.32926 239.758125 
L 141.32926 116.727121 
L 134.301703 116.727121 
z
" style="fill:#00ffff;opacity:0.4;"/>
   </g>
   <g id="patch_13">
    <path clip-path="url(#p5ae2536e3e)" d="M 141.32926 239.758125 
L 148.356816 239.758125 
L 148.356816 69.24147 
L 141.32926 69.24147 
z
" style="fill:#00ffff;opacity:0.4;"/>
   </g>
   <g id="patch_14">
    <path clip-path="url(#p5ae2536e3e)" d="M 148.356816 239.758125 
L 155.384373 239.758125 
L 155.384373 108.093366 
L 148.356816 108.093366 
z
" style="fill:#00ffff;opacity:0.4;"/>
   </g>
   <g id="patch_15">
    <path clip-path="url(#p5ae2536e3e)" d="M 155.384373 239.758125 
L 162.41193 239.758125 
L 162.41193 129.677753 
L 155.384373 129.677753 
z
" style="fill:#00ffff;opacity:0.4;"/>
   </g>
   <g id="patch_16">
    <path clip-path="url(#p5ae2536e3e)" d="M 162.41193 239.758125 
L 169.439486 239.758125 
L 169.439486 123.202437 
L 162.41193 123.202437 
z
" style="fill:#00ffff;opacity:0.4;"/>
   </g>
   <g id="patch_17">
    <path clip-path="url(#p5ae2536e3e)" d="M 169.439486 239.758125 
L 176.467043 239.758125 
L 176.467043 172.846526 
L 169.439486 172.846526 
z
" style="fill:#00ffff;opacity:0.4;"/>
   </g>
   <g id="patch_18">
    <path clip-path="url(#p5ae2536e3e)" d="M 176.467043 239.758125 
L 183.494599 239.758125 
L 183.494599 187.955597 
L 176.467043 187.955597 
z
" style="fill:#00ffff;opacity:0.4;"/>
   </g>
   <g id="patch_19">
    <path clip-path="url(#p5ae2536e3e)" d="M 183.494599 239.758125 
L 190.522156 239.758125 
L 190.522156 226.807493 
L 183.494599 226.807493 
z
" style="fill:#00ffff;opacity:0.4;"/>
   </g>
   <g id="patch_20">
    <path clip-path="url(#p5ae2536e3e)" d="M 190.522156 239.758125 
L 197.549712 239.758125 
L 197.549712 231.12437 
L 190.522156 231.12437 
z
" style="fill:#00ffff;opacity:0.4;"/>
   </g>
   <g id="patch_21">
    <path clip-path="url(#p5ae2536e3e)" d="M 197.549712 239.758125 
L 204.577269 239.758125 
L 204.577269 233.282809 
L 197.549712 233.282809 
z
" style="fill:#00ffff;opacity:0.4;"/>
   </g>
   <g id="patch_22">
    <path clip-path="url(#p5ae2536e3e)" d="M 162.114739 239.758125 
L 168.379508 239.758125 
L 168.379508 234.638918 
L 162.114739 234.638918 
z
" style="fill:#607fdf;opacity:0.4;"/>
   </g>
   <g id="patch_23">
    <path clip-path="url(#p5ae2536e3e)" d="M 168.379508 239.758125 
L 174.644276 239.758125 
L 174.644276 234.638918 
L 168.379508 234.638918 
z
" style="fill:#607fdf;opacity:0.4;"/>
   </g>
   <g id="patch_24">
    <path clip-path="url(#p5ae2536e3e)" d="M 174.644276 239.758125 
L 180.909045 239.758125 
L 180.909045 224.400503 
L 174.644276 224.400503 
z
" style="fill:#607fdf;opacity:0.4;"/>
   </g>
   <g id="patch_25">
    <path clip-path="url(#p5ae2536e3e)" d="M 180.909045 239.758125 
L 187.173813 239.758125 
L 187.173813 209.042882 
L 180.909045 209.042882 
z
" style="fill:#607fdf;opacity:0.4;"/>
   </g>
   <g id="patch_26">
    <path clip-path="url(#p5ae2536e3e)" d="M 187.173813 239.758125 
L 193.438582 239.758125 
L 193.438582 168.089224 
L 187.173813 168.089224 
z
" style="fill:#607fdf;opacity:0.4;"/>
   </g>
   <g id="patch_27">
    <path clip-path="url(#p5ae2536e3e)" d="M 193.438582 239.758125 
L 199.70335 239.758125 
L 199.70335 173.208431 
L 193.438582 173.208431 
z
" style="fill:#607fdf;opacity:0.4;"/>
   </g>
   <g id="patch_28">
    <path clip-path="url(#p5ae2536e3e)" d="M 199.70335 239.758125 
L 205.968119 239.758125 
L 205.968119 129.695169 
L 199.70335 129.695169 
z
" style="fill:#607fdf;opacity:0.4;"/>
   </g>
   <g id="patch_29">
    <path clip-path="url(#p5ae2536e3e)" d="M 205.968119 239.758125 
L 212.232887 239.758125 
L 212.232887 34.989835 
L 205.968119 34.989835 
z
" style="fill:#607fdf;opacity:0.4;"/>
   </g>
   <g id="patch_30">
    <path clip-path="url(#p5ae2536e3e)" d="M 212.232887 239.758125 
L 218.497656 239.758125 
L 218.497656 101.539529 
L 212.232887 101.539529 
z
" style="fill:#607fdf;opacity:0.4;"/>
   </g>
   <g id="patch_31">
    <path clip-path="url(#p5ae2536e3e)" d="M 218.497656 239.758125 
L 224.762424 239.758125 
L 224.762424 58.026268 
L 218.497656 58.026268 
z
" style="fill:#607fdf;opacity:0.4;"/>
   </g>
   <g id="patch_32">
    <path clip-path="url(#p5ae2536e3e)" d="M 224.762424 239.758125 
L 231.027193 239.758125 
L 231.027193 96.420322 
L 224.762424 96.420322 
z
" style="fill:#607fdf;opacity:0.4;"/>
   </g>
   <g id="patch_33">
    <path clip-path="url(#p5ae2536e3e)" d="M 231.027193 239.758125 
L 237.291961 239.758125 
L 237.291961 88.741511 
L 231.027193 88.741511 
z
" style="fill:#607fdf;opacity:0.4;"/>
   </g>
   <g id="patch_34">
    <path clip-path="url(#p5ae2536e3e)" d="M 237.291961 239.758125 
L 243.55673 239.758125 
L 243.55673 168.089224 
L 237.291961 168.089224 
z
" style="fill:#607fdf;opacity:0.4;"/>
   </g>
   <g id="patch_35">
    <path clip-path="url(#p5ae2536e3e)" d="M 243.55673 239.758125 
L 249.821498 239.758125 
L 249.821498 160.410413 
L 243.55673 160.410413 
z
" style="fill:#607fdf;opacity:0.4;"/>
   </g>
   <g id="patch_36">
    <path clip-path="url(#p5ae2536e3e)" d="M 249.821498 239.758125 
L 256.086267 239.758125 
L 256.086267 201.364071 
L 249.821498 201.364071 
z
" style="fill:#607fdf;opacity:0.4;"/>
   </g>
   <g id="patch_37">
    <path clip-path="url(#p5ae2536e3e)" d="M 256.086267 239.758125 
L 262.351035 239.758125 
L 262.351035 224.400503 
L 256.086267 224.400503 
z
" style="fill:#607fdf;opacity:0.4;"/>
   </g>
   <g id="patch_38">
    <path clip-path="url(#p5ae2536e3e)" d="M 262.351035 239.758125 
L 268.615804 239.758125 
L 268.615804 226.960107 
L 262.351035 226.960107 
z
" style="fill:#607fdf;opacity:0.4;"/>
   </g>
   <g id="patch_39">
    <path clip-path="url(#p5ae2536e3e)" d="M 268.615804 239.758125 
L 274.880572 239.758125 
L 274.880572 239.758125 
L 268.615804 239.758125 
z
" style="fill:#607fdf;opacity:0.4;"/>
   </g>
   <g id="patch_40">
    <path clip-path="url(#p5ae2536e3e)" d="M 274.880572 239.758125 
L 281.145341 239.758125 
L 281.145341 237.198521 
L 274.880572 237.198521 
z
" style="fill:#607fdf;opacity:0.4;"/>
   </g>
   <g id="patch_41">
    <path clip-path="url(#p5ae2536e3e)" d="M 248.846715 239.758125 
L 254.940038 239.758125 
L 254.940038 227.394799 
L 248.846715 227.394799 
z
" style="fill:#bf00bf;opacity:0.4;"/>
   </g>
   <g id="patch_42">
    <path clip-path="url(#p5ae2536e3e)" d="M 254.940038 239.758125 
L 261.03336 239.758125 
L 261.03336 221.213136 
L 254.940038 221.213136 
z
" style="fill:#bf00bf;opacity:0.4;"/>
   </g>
   <g id="patch_43">
    <path clip-path="url(#p5ae2536e3e)" d="M 261.03336 239.758125 
L 267.126683 239.758125 
L 267.126683 221.213136 
L 261.03336 221.213136 
z
" style="fill:#bf00bf;opacity:0.4;"/>
   </g>
   <g id="patch_44">
    <path clip-path="url(#p5ae2536e3e)" d="M 267.126683 239.758125 
L 273.220006 239.758125 
L 273.220006 165.578168 
L 267.126683 165.578168 
z
" style="fill:#bf00bf;opacity:0.4;"/>
   </g>
   <g id="patch_45">
    <path clip-path="url(#p5ae2536e3e)" d="M 273.220006 239.758125 
L 279.313329 239.758125 
L 279.313329 143.942347 
L 273.220006 143.942347 
z
" style="fill:#bf00bf;opacity:0.4;"/>
   </g>
   <g id="patch_46">
    <path clip-path="url(#p5ae2536e3e)" d="M 279.313329 239.758125 
L 285.406652 239.758125 
L 285.406652 97.579873 
L 279.313329 97.579873 
z
" style="fill:#bf00bf;opacity:0.4;"/>
   </g>
   <g id="patch_47">
    <path clip-path="url(#p5ae2536e3e)" d="M 285.406652 239.758125 
L 291.499974 239.758125 
L 291.499974 63.580726 
L 285.406652 63.580726 
z
" style="fill:#bf00bf;opacity:0.4;"/>
   </g>
   <g id="patch_48">
    <path clip-path="url(#p5ae2536e3e)" d="M 291.499974 239.758125 
L 297.593297 239.758125 
L 297.593297 32.672411 
L 291.499974 32.672411 
z
" style="fill:#bf00bf;opacity:0.4;"/>
   </g>
   <g id="patch_49">
    <path clip-path="url(#p5ae2536e3e)" d="M 297.593297 239.758125 
L 303.68662 239.758125 
L 303.68662 91.39821 
L 297.593297 91.39821 
z
" style="fill:#bf00bf;opacity:0.4;"/>
   </g>
   <g id="patch_50">
    <path clip-path="url(#p5ae2536e3e)" d="M 303.68662 239.758125 
L 309.779943 239.758125 
L 309.779943 106.852368 
L 303.68662 106.852368 
z
" style="fill:#bf00bf;opacity:0.4;"/>
   </g>
   <g id="patch_51">
    <path clip-path="url(#p5ae2536e3e)" d="M 309.779943 239.758125 
L 315.873266 239.758125 
L 315.873266 69.762389 
L 309.779943 69.762389 
z
" style="fill:#bf00bf;opacity:0.4;"/>
   </g>
   <g id="patch_52">
    <path clip-path="url(#p5ae2536e3e)" d="M 315.873266 239.758125 
L 321.966588 239.758125 
L 321.966588 134.669852 
L 315.873266 134.669852 
z
" style="fill:#bf00bf;opacity:0.4;"/>
   </g>
   <g id="patch_53">
    <path clip-path="url(#p5ae2536e3e)" d="M 321.966588 239.758125 
L 328.059911 239.758125 
L 328.059911 190.30482 
L 321.966588 190.30482 
z
" style="fill:#bf00bf;opacity:0.4;"/>
   </g>
   <g id="patch_54">
    <path clip-path="url(#p5ae2536e3e)" d="M 328.059911 239.758125 
L 334.153234 239.758125 
L 334.153234 215.031473 
L 328.059911 215.031473 
z
" style="fill:#bf00bf;opacity:0.4;"/>
   </g>
   <g id="patch_55">
    <path clip-path="url(#p5ae2536e3e)" d="M 334.153234 239.758125 
L 340.246557 239.758125 
L 340.246557 233.576462 
L 334.153234 233.576462 
z
" style="fill:#bf00bf;opacity:0.4;"/>
   </g>
   <g id="matplotlib.axis_1">
    <g id="xtick_1">
     <g id="line2d_1">
      <defs>
       <path d="M 0 0 
L 0 3.5 
" id="m125fbc19db" style="stroke:#000000;stroke-width:0.8;"/>
      </defs>
      <g>
       <use style="stroke:#000000;stroke-width:0.8;" x="147.809987" xlink:href="#m125fbc19db" y="239.758125"/>
      </g>
     </g>
     <g id="text_1">
      <!-- µ 7.72 -->
      <defs>
       <path d="M 8.5 -20.796875 
L 8.5 54.6875 
L 17.484375 54.6875 
L 17.484375 20.703125 
Q 17.484375 13.625 20.84375 10 
Q 24.21875 6.390625 30.8125 6.390625 
Q 38.03125 6.390625 41.671875 10.484375 
Q 45.3125 14.59375 45.3125 22.796875 
L 45.3125 54.6875 
L 54.296875 54.6875 
L 54.296875 12.59375 
Q 54.296875 9.671875 55.140625 8.28125 
Q 56 6.890625 57.8125 6.890625 
Q 58.25 6.890625 59.03125 7.15625 
Q 59.8125 7.421875 61.1875 8.015625 
L 61.1875 0.78125 
Q 59.1875 -0.34375 57.390625 -0.875 
Q 55.609375 -1.421875 53.90625 -1.421875 
Q 50.53125 -1.421875 48.53125 0.484375 
Q 46.53125 2.390625 45.796875 6.296875 
Q 43.359375 2.4375 39.8125 0.5 
Q 36.28125 -1.421875 31.5 -1.421875 
Q 26.515625 -1.421875 23.015625 0.484375 
Q 19.53125 2.390625 17.484375 6.203125 
L 17.484375 -20.796875 
z
" id="DejaVuSans-181"/>
       <path id="DejaVuSans-32"/>
       <path d="M 8.203125 72.90625 
L 55.078125 72.90625 
L 55.078125 68.703125 
L 28.609375 0 
L 18.3125 0 
L 43.21875 64.59375 
L 8.203125 64.59375 
z
" id="DejaVuSans-55"/>
       <path d="M 10.6875 12.40625 
L 21 12.40625 
L 21 0 
L 10.6875 0 
z
" id="DejaVuSans-46"/>
       <path d="M 19.1875 8.296875 
L 53.609375 8.296875 
L 53.609375 0 
L 7.328125 0 
L 7.328125 8.296875 
Q 12.9375 14.109375 22.625 23.890625 
Q 32.328125 33.6875 34.8125 36.53125 
Q 39.546875 41.84375 41.421875 45.53125 
Q 43.3125 49.21875 43.3125 52.78125 
Q 43.3125 58.59375 39.234375 62.25 
Q 35.15625 65.921875 28.609375 65.921875 
Q 23.96875 65.921875 18.8125 64.3125 
Q 13.671875 62.703125 7.8125 59.421875 
L 7.8125 69.390625 
Q 13.765625 71.78125 18.9375 73 
Q 24.125 74.21875 28.421875 74.21875 
Q 39.75 74.21875 46.484375 68.546875 
Q 53.21875 62.890625 53.21875 53.421875 
Q 53.21875 48.921875 51.53125 44.890625 
Q 49.859375 40.875 45.40625 35.40625 
Q 44.1875 33.984375 37.640625 27.21875 
Q 31.109375 20.453125 19.1875 8.296875 
z
" id="DejaVuSans-50"/>
      </defs>
      <g transform="translate(131.906862 254.356563)scale(0.1 -0.1)">
       <use xlink:href="#DejaVuSans-181"/>
       <use x="63.623047" xlink:href="#DejaVuSans-32"/>
       <use x="95.410156" xlink:href="#DejaVuSans-55"/>
       <use x="159.033203" xlink:href="#DejaVuSans-46"/>
       <use x="190.820312" xlink:href="#DejaVuSans-55"/>
       <use x="254.443359" xlink:href="#DejaVuSans-50"/>
      </g>
     </g>
    </g>
    <g id="xtick_2">
     <g id="line2d_2">
      <g>
       <use style="stroke:#000000;stroke-width:0.8;" x="223.09816" xlink:href="#m125fbc19db" y="239.758125"/>
      </g>
     </g>
     <g id="text_2">
      <!-- µ 10.7 -->
      <defs>
       <path d="M 12.40625 8.296875 
L 28.515625 8.296875 
L 28.515625 63.921875 
L 10.984375 60.40625 
L 10.984375 69.390625 
L 28.421875 72.90625 
L 38.28125 72.90625 
L 38.28125 8.296875 
L 54.390625 8.296875 
L 54.390625 0 
L 12.40625 0 
z
" id="DejaVuSans-49"/>
       <path d="M 31.78125 66.40625 
Q 24.171875 66.40625 20.328125 58.90625 
Q 16.5 51.421875 16.5 36.375 
Q 16.5 21.390625 20.328125 13.890625 
Q 24.171875 6.390625 31.78125 6.390625 
Q 39.453125 6.390625 43.28125 13.890625 
Q 47.125 21.390625 47.125 36.375 
Q 47.125 51.421875 43.28125 58.90625 
Q 39.453125 66.40625 31.78125 66.40625 
z
M 31.78125 74.21875 
Q 44.046875 74.21875 50.515625 64.515625 
Q 56.984375 54.828125 56.984375 36.375 
Q 56.984375 17.96875 50.515625 8.265625 
Q 44.046875 -1.421875 31.78125 -1.421875 
Q 19.53125 -1.421875 13.0625 8.265625 
Q 6.59375 17.96875 6.59375 36.375 
Q 6.59375 54.828125 13.0625 64.515625 
Q 19.53125 74.21875 31.78125 74.21875 
z
" id="DejaVuSans-48"/>
      </defs>
      <g transform="translate(207.195035 254.356563)scale(0.1 -0.1)">
       <use xlink:href="#DejaVuSans-181"/>
       <use x="63.623047" xlink:href="#DejaVuSans-32"/>
       <use x="95.410156" xlink:href="#DejaVuSans-49"/>
       <use x="159.033203" xlink:href="#DejaVuSans-48"/>
       <use x="222.65625" xlink:href="#DejaVuSans-46"/>
       <use x="254.443359" xlink:href="#DejaVuSans-55"/>
      </g>
     </g>
    </g>
    <g id="xtick_3">
     <g id="line2d_3">
      <g>
       <use style="stroke:#000000;stroke-width:0.8;" x="298.386333" xlink:href="#m125fbc19db" y="239.758125"/>
      </g>
     </g>
     <g id="text_3">
      <!-- µ 13.38 -->
      <defs>
       <path d="M 40.578125 39.3125 
Q 47.65625 37.796875 51.625 33 
Q 55.609375 28.21875 55.609375 21.1875 
Q 55.609375 10.40625 48.1875 4.484375 
Q 40.765625 -1.421875 27.09375 -1.421875 
Q 22.515625 -1.421875 17.65625 -0.515625 
Q 12.796875 0.390625 7.625 2.203125 
L 7.625 11.71875 
Q 11.71875 9.328125 16.59375 8.109375 
Q 21.484375 6.890625 26.8125 6.890625 
Q 36.078125 6.890625 40.9375 10.546875 
Q 45.796875 14.203125 45.796875 21.1875 
Q 45.796875 27.640625 41.28125 31.265625 
Q 36.765625 34.90625 28.71875 34.90625 
L 20.21875 34.90625 
L 20.21875 43.015625 
L 29.109375 43.015625 
Q 36.375 43.015625 40.234375 45.921875 
Q 44.09375 48.828125 44.09375 54.296875 
Q 44.09375 59.90625 40.109375 62.90625 
Q 36.140625 65.921875 28.71875 65.921875 
Q 24.65625 65.921875 20.015625 65.03125 
Q 15.375 64.15625 9.8125 62.3125 
L 9.8125 71.09375 
Q 15.4375 72.65625 20.34375 73.4375 
Q 25.25 74.21875 29.59375 74.21875 
Q 40.828125 74.21875 47.359375 69.109375 
Q 53.90625 64.015625 53.90625 55.328125 
Q 53.90625 49.265625 50.4375 45.09375 
Q 46.96875 40.921875 40.578125 39.3125 
z
" id="DejaVuSans-51"/>
       <path d="M 31.78125 34.625 
Q 24.75 34.625 20.71875 30.859375 
Q 16.703125 27.09375 16.703125 20.515625 
Q 16.703125 13.921875 20.71875 10.15625 
Q 24.75 6.390625 31.78125 6.390625 
Q 38.8125 6.390625 42.859375 10.171875 
Q 46.921875 13.96875 46.921875 20.515625 
Q 46.921875 27.09375 42.890625 30.859375 
Q 38.875 34.625 31.78125 34.625 
z
M 21.921875 38.8125 
Q 15.578125 40.375 12.03125 44.71875 
Q 8.5 49.078125 8.5 55.328125 
Q 8.5 64.0625 14.71875 69.140625 
Q 20.953125 74.21875 31.78125 74.21875 
Q 42.671875 74.21875 48.875 69.140625 
Q 55.078125 64.0625 55.078125 55.328125 
Q 55.078125 49.078125 51.53125 44.71875 
Q 48 40.375 41.703125 38.8125 
Q 48.828125 37.15625 52.796875 32.3125 
Q 56.78125 27.484375 56.78125 20.515625 
Q 56.78125 9.90625 50.3125 4.234375 
Q 43.84375 -1.421875 31.78125 -1.421875 
Q 19.734375 -1.421875 13.25 4.234375 
Q 6.78125 9.90625 6.78125 20.515625 
Q 6.78125 27.484375 10.78125 32.3125 
Q 14.796875 37.15625 21.921875 38.8125 
z
M 18.3125 54.390625 
Q 18.3125 48.734375 21.84375 45.5625 
Q 25.390625 42.390625 31.78125 42.390625 
Q 38.140625 42.390625 41.71875 45.5625 
Q 45.3125 48.734375 45.3125 54.390625 
Q 45.3125 60.0625 41.71875 63.234375 
Q 38.140625 66.40625 31.78125 66.40625 
Q 25.390625 66.40625 21.84375 63.234375 
Q 18.3125 60.0625 18.3125 54.390625 
z
" id="DejaVuSans-56"/>
      </defs>
      <g transform="translate(279.301958 254.356563)scale(0.1 -0.1)">
       <use xlink:href="#DejaVuSans-181"/>
       <use x="63.623047" xlink:href="#DejaVuSans-32"/>
       <use x="95.410156" xlink:href="#DejaVuSans-49"/>
       <use x="159.033203" xlink:href="#DejaVuSans-51"/>
       <use x="222.65625" xlink:href="#DejaVuSans-46"/>
       <use x="254.443359" xlink:href="#DejaVuSans-51"/>
       <use x="318.066406" xlink:href="#DejaVuSans-56"/>
      </g>
     </g>
    </g>
   </g>
   <g id="matplotlib.axis_2">
    <g id="ytick_1">
     <g id="line2d_4">
      <defs>
       <path d="M 0 0 
L -3.5 0 
" id="m31e44ccb85" style="stroke:#000000;stroke-width:0.8;"/>
      </defs>
      <g>
       <use style="stroke:#000000;stroke-width:0.8;" x="36.465625" xlink:href="#m31e44ccb85" y="239.758125"/>
      </g>
     </g>
     <g id="text_4">
      <!-- 0.00 -->
      <g transform="translate(7.2 243.557344)scale(0.1 -0.1)">
       <use xlink:href="#DejaVuSans-48"/>
       <use x="63.623047" xlink:href="#DejaVuSans-46"/>
       <use x="95.410156" xlink:href="#DejaVuSans-48"/>
       <use x="159.033203" xlink:href="#DejaVuSans-48"/>
      </g>
     </g>
    </g>
    <g id="ytick_2">
     <g id="line2d_5">
      <g>
       <use style="stroke:#000000;stroke-width:0.8;" x="36.465625" xlink:href="#m31e44ccb85" y="195.031072"/>
      </g>
     </g>
     <g id="text_5">
      <!-- 0.02 -->
      <g transform="translate(7.2 198.830291)scale(0.1 -0.1)">
       <use xlink:href="#DejaVuSans-48"/>
       <use x="63.623047" xlink:href="#DejaVuSans-46"/>
       <use x="95.410156" xlink:href="#DejaVuSans-48"/>
       <use x="159.033203" xlink:href="#DejaVuSans-50"/>
      </g>
     </g>
    </g>
    <g id="ytick_3">
     <g id="line2d_6">
      <g>
       <use style="stroke:#000000;stroke-width:0.8;" x="36.465625" xlink:href="#m31e44ccb85" y="150.30402"/>
      </g>
     </g>
     <g id="text_6">
      <!-- 0.04 -->
      <defs>
       <path d="M 37.796875 64.3125 
L 12.890625 25.390625 
L 37.796875 25.390625 
z
M 35.203125 72.90625 
L 47.609375 72.90625 
L 47.609375 25.390625 
L 58.015625 25.390625 
L 58.015625 17.1875 
L 47.609375 17.1875 
L 47.609375 0 
L 37.796875 0 
L 37.796875 17.1875 
L 4.890625 17.1875 
L 4.890625 26.703125 
z
" id="DejaVuSans-52"/>
      </defs>
      <g transform="translate(7.2 154.103239)scale(0.1 -0.1)">
       <use xlink:href="#DejaVuSans-48"/>
       <use x="63.623047" xlink:href="#DejaVuSans-46"/>
       <use x="95.410156" xlink:href="#DejaVuSans-48"/>
       <use x="159.033203" xlink:href="#DejaVuSans-52"/>
      </g>
     </g>
    </g>
    <g id="ytick_4">
     <g id="line2d_7">
      <g>
       <use style="stroke:#000000;stroke-width:0.8;" x="36.465625" xlink:href="#m31e44ccb85" y="105.576967"/>
      </g>
     </g>
     <g id="text_7">
      <!-- 0.06 -->
      <defs>
       <path d="M 33.015625 40.375 
Q 26.375 40.375 22.484375 35.828125 
Q 18.609375 31.296875 18.609375 23.390625 
Q 18.609375 15.53125 22.484375 10.953125 
Q 26.375 6.390625 33.015625 6.390625 
Q 39.65625 6.390625 43.53125 10.953125 
Q 47.40625 15.53125 47.40625 23.390625 
Q 47.40625 31.296875 43.53125 35.828125 
Q 39.65625 40.375 33.015625 40.375 
z
M 52.59375 71.296875 
L 52.59375 62.3125 
Q 48.875 64.0625 45.09375 64.984375 
Q 41.3125 65.921875 37.59375 65.921875 
Q 27.828125 65.921875 22.671875 59.328125 
Q 17.53125 52.734375 16.796875 39.40625 
Q 19.671875 43.65625 24.015625 45.921875 
Q 28.375 48.1875 33.59375 48.1875 
Q 44.578125 48.1875 50.953125 41.515625 
Q 57.328125 34.859375 57.328125 23.390625 
Q 57.328125 12.15625 50.6875 5.359375 
Q 44.046875 -1.421875 33.015625 -1.421875 
Q 20.359375 -1.421875 13.671875 8.265625 
Q 6.984375 17.96875 6.984375 36.375 
Q 6.984375 53.65625 15.1875 63.9375 
Q 23.390625 74.21875 37.203125 74.21875 
Q 40.921875 74.21875 44.703125 73.484375 
Q 48.484375 72.75 52.59375 71.296875 
z
" id="DejaVuSans-54"/>
      </defs>
      <g transform="translate(7.2 109.376186)scale(0.1 -0.1)">
       <use xlink:href="#DejaVuSans-48"/>
       <use x="63.623047" xlink:href="#DejaVuSans-46"/>
       <use x="95.410156" xlink:href="#DejaVuSans-48"/>
       <use x="159.033203" xlink:href="#DejaVuSans-54"/>
      </g>
     </g>
    </g>
    <g id="ytick_5">
     <g id="line2d_8">
      <g>
       <use style="stroke:#000000;stroke-width:0.8;" x="36.465625" xlink:href="#m31e44ccb85" y="60.849915"/>
      </g>
     </g>
     <g id="text_8">
      <!-- 0.08 -->
      <g transform="translate(7.2 64.649134)scale(0.1 -0.1)">
       <use xlink:href="#DejaVuSans-48"/>
       <use x="63.623047" xlink:href="#DejaVuSans-46"/>
       <use x="95.410156" xlink:href="#DejaVuSans-48"/>
       <use x="159.033203" xlink:href="#DejaVuSans-56"/>
      </g>
     </g>
    </g>
   </g>
   <g id="line2d_9">
    <path clip-path="url(#p5ae2536e3e)" d="M 51.683807 239.73997 
L 58.465828 239.614406 
L 63.891446 239.246561 
L 70.673467 238.714878 
L 74.74268 238.427977 
L 77.455489 237.95069 
L 78.811893 237.534781 
L 80.168298 236.969371 
L 81.524702 236.243559 
L 82.881106 235.357688 
L 85.593915 233.147968 
L 88.306724 230.441613 
L 91.019532 227.291108 
L 93.732341 223.722924 
L 100.514363 214.387104 
L 103.227171 211.197848 
L 105.93998 208.031155 
L 107.296384 206.173641 
L 108.652789 203.931818 
L 110.009193 201.150257 
L 111.365597 197.694172 
L 112.722002 193.469464 
L 114.078406 188.439049 
L 115.43481 182.63237 
L 118.147619 169.135164 
L 123.573236 139.993403 
L 124.92964 133.442309 
L 126.286045 127.478746 
L 127.642449 122.162152 
L 128.998853 117.495321 
L 130.355258 113.429595 
L 131.711662 109.877709 
L 133.068066 106.733912 
L 135.780875 101.302572 
L 137.137279 98.924323 
L 138.493684 96.796266 
L 139.850088 94.997198 
L 141.206492 93.633683 
L 142.562897 92.815556 
L 143.919301 92.632069 
L 145.275705 93.134008 
L 146.63211 94.324395 
L 147.988514 96.15766 
L 149.344918 98.545452 
L 150.701323 101.367073 
L 153.414131 107.752327 
L 157.483344 117.406601 
L 162.908962 129.793136 
L 164.265366 133.368683 
L 165.62177 137.3205 
L 166.978175 141.675716 
L 169.690983 151.477491 
L 173.760196 167.855176 
L 180.542218 195.727188 
L 183.255026 205.877523 
L 184.611431 210.443594 
L 185.967835 214.576882 
L 187.324239 218.235087 
L 188.680644 221.40538 
L 190.037048 224.103961 
L 191.393452 226.370682 
L 192.749857 228.260692 
L 194.106261 229.835489 
L 195.462665 231.155381 
L 196.81907 232.274453 
L 199.531878 234.082733 
L 202.244687 235.518349 
L 204.957496 236.717718 
L 207.670304 237.723164 
L 210.383113 238.520143 
L 213.095922 239.088366 
L 215.80873 239.441081 
L 219.877943 239.679061 
L 223.947156 239.738619 
L 223.947156 239.738619 
" style="fill:none;stroke:#00ffff;stroke-linecap:square;stroke-width:1.5;"/>
   </g>
   <g id="line2d_10">
    <path clip-path="url(#p5ae2536e3e)" d="M 145.091608 239.733238 
L 149.912927 239.587437 
L 152.323586 239.352337 
L 154.734246 238.938669 
L 158.350234 237.996651 
L 166.787542 235.419412 
L 167.992871 234.889235 
L 169.198201 234.215523 
L 170.403531 233.351357 
L 171.60886 232.251554 
L 172.81419 230.876016 
L 174.01952 229.193093 
L 175.224849 227.182661 
L 176.430179 224.838294 
L 177.635509 222.167853 
L 180.046168 215.941701 
L 182.456827 208.765579 
L 186.072816 196.8884 
L 190.894135 180.139509 
L 193.304794 171.115111 
L 194.510123 166.146633 
L 195.715453 160.70257 
L 196.920783 154.663727 
L 198.126112 147.950079 
L 200.536772 132.534176 
L 205.35809 99.313239 
L 206.56342 92.52622 
L 207.768749 87.037566 
L 208.974079 83.011082 
L 210.179409 80.434303 
L 211.384738 79.115922 
L 212.590068 78.721572 
L 213.795398 78.841854 
L 215.000727 79.076928 
L 216.206057 79.116711 
L 217.411386 78.796735 
L 218.616716 78.116898 
L 221.027375 76.347842 
L 222.232705 75.765725 
L 223.438035 75.717204 
L 224.643364 76.380496 
L 225.848694 77.858589 
L 227.054024 80.190907 
L 228.259353 83.376779 
L 229.464683 87.397148 
L 230.670012 92.223881 
L 231.875342 97.813227 
L 234.286001 110.920079 
L 239.10732 139.5659 
L 241.517979 151.765953 
L 243.928638 161.90056 
L 251.160616 189.627731 
L 254.776605 203.710898 
L 257.187264 211.831321 
L 258.392594 215.315556 
L 259.597924 218.398716 
L 260.803253 221.106183 
L 262.008583 223.48575 
L 264.419242 227.497184 
L 266.829901 230.835687 
L 269.240561 233.64654 
L 270.44589 234.827879 
L 271.65122 235.833715 
L 272.85655 236.6512 
L 274.061879 237.279867 
L 275.267209 237.733594 
L 277.677868 238.23225 
L 281.293857 238.509843 
L 284.909846 238.83706 
L 290.936494 239.500005 
L 294.552483 239.685962 
L 298.168472 239.73573 
L 298.168472 239.73573 
" style="fill:none;stroke:#607fdf;stroke-linecap:square;stroke-width:1.5;"/>
   </g>
   <g id="line2d_11">
    <path clip-path="url(#p5ae2536e3e)" d="M 233.045828 239.724814 
L 236.919895 239.605594 
L 238.856928 239.403433 
L 240.793962 239.010811 
L 242.730995 238.329468 
L 244.668028 237.266213 
L 246.605062 235.77062 
L 248.542095 233.873973 
L 251.447645 230.574913 
L 257.258745 223.65708 
L 258.227261 222.186855 
L 259.195778 220.437018 
L 260.164295 218.320572 
L 261.132811 215.764405 
L 262.101328 212.721282 
L 263.069845 209.178921 
L 265.006878 200.739729 
L 267.912428 185.971033 
L 275.660561 144.650718 
L 277.597594 132.675099 
L 280.503144 112.769712 
L 283.408694 92.444853 
L 285.345728 80.252087 
L 287.282761 70.113139 
L 288.251278 65.976858 
L 289.219794 62.51811 
L 290.188311 59.770949 
L 291.156828 57.770497 
L 292.125344 56.553722 
L 293.093861 56.154179 
L 294.062377 56.591353 
L 295.030894 57.857028 
L 295.999411 59.902319 
L 296.967927 62.629173 
L 298.904961 69.492207 
L 300.841994 76.855689 
L 301.810511 80.197369 
L 302.779027 83.093415 
L 303.747544 85.456423 
L 304.716061 87.275913 
L 305.684577 88.620241 
L 307.621611 90.492066 
L 308.590127 91.432096 
L 309.558644 92.670085 
L 310.527161 94.402218 
L 311.495677 96.777816 
L 312.464194 99.886432 
L 313.432711 103.754963 
L 314.401227 108.354295 
L 316.33826 119.434473 
L 318.275294 132.346081 
L 322.14936 160.682891 
L 325.05491 181.554866 
L 326.991944 193.967572 
L 328.928977 204.485355 
L 330.86601 212.890749 
L 331.834527 216.342787 
L 332.803044 219.354155 
L 333.77156 221.981207 
L 335.708593 226.307058 
L 337.645627 229.708422 
L 339.58266 232.441821 
L 341.519693 234.644075 
L 343.456727 236.377915 
L 345.39376 237.6772 
L 347.330793 238.581618 
L 349.267827 239.154536 
L 351.20486 239.479555 
L 354.11041 239.684801 
L 356.047443 239.722949 
L 356.047443 239.722949 
" style="fill:none;stroke:#bf00bf;stroke-linecap:square;stroke-width:1.5;"/>
   </g>
   <g id="patch_56">
    <path d="M 36.465625 239.758125 
L 36.465625 22.318125 
" style="fill:none;stroke:#000000;stroke-linecap:square;stroke-linejoin:miter;stroke-width:0.8;"/>
   </g>
   <g id="patch_57">
    <path d="M 36.465625 239.758125 
L 371.265625 239.758125 
" style="fill:none;stroke:#000000;stroke-linecap:square;stroke-linejoin:miter;stroke-width:0.8;"/>
   </g>
   <g id="text_9">
    <!-- Distribution Angle error with eccentricity, delay 3 -->
    <defs>
     <path d="M 19.671875 64.796875 
L 19.671875 8.109375 
L 31.59375 8.109375 
Q 46.6875 8.109375 53.6875 14.9375 
Q 60.6875 21.78125 60.6875 36.53125 
Q 60.6875 51.171875 53.6875 57.984375 
Q 46.6875 64.796875 31.59375 64.796875 
z
M 9.8125 72.90625 
L 30.078125 72.90625 
Q 51.265625 72.90625 61.171875 64.09375 
Q 71.09375 55.28125 71.09375 36.53125 
Q 71.09375 17.671875 61.125 8.828125 
Q 51.171875 0 30.078125 0 
L 9.8125 0 
z
" id="DejaVuSans-68"/>
     <path d="M 9.421875 54.6875 
L 18.40625 54.6875 
L 18.40625 0 
L 9.421875 0 
z
M 9.421875 75.984375 
L 18.40625 75.984375 
L 18.40625 64.59375 
L 9.421875 64.59375 
z
" id="DejaVuSans-105"/>
     <path d="M 44.28125 53.078125 
L 44.28125 44.578125 
Q 40.484375 46.53125 36.375 47.5 
Q 32.28125 48.484375 27.875 48.484375 
Q 21.1875 48.484375 17.84375 46.4375 
Q 14.5 44.390625 14.5 40.28125 
Q 14.5 37.15625 16.890625 35.375 
Q 19.28125 33.59375 26.515625 31.984375 
L 29.59375 31.296875 
Q 39.15625 29.25 43.1875 25.515625 
Q 47.21875 21.78125 47.21875 15.09375 
Q 47.21875 7.46875 41.1875 3.015625 
Q 35.15625 -1.421875 24.609375 -1.421875 
Q 20.21875 -1.421875 15.453125 -0.5625 
Q 10.6875 0.296875 5.421875 2 
L 5.421875 11.28125 
Q 10.40625 8.6875 15.234375 7.390625 
Q 20.0625 6.109375 24.8125 6.109375 
Q 31.15625 6.109375 34.5625 8.28125 
Q 37.984375 10.453125 37.984375 14.40625 
Q 37.984375 18.0625 35.515625 20.015625 
Q 33.0625 21.96875 24.703125 23.78125 
L 21.578125 24.515625 
Q 13.234375 26.265625 9.515625 29.90625 
Q 5.8125 33.546875 5.8125 39.890625 
Q 5.8125 47.609375 11.28125 51.796875 
Q 16.75 56 26.8125 56 
Q 31.78125 56 36.171875 55.265625 
Q 40.578125 54.546875 44.28125 53.078125 
z
" id="DejaVuSans-115"/>
     <path d="M 18.3125 70.21875 
L 18.3125 54.6875 
L 36.8125 54.6875 
L 36.8125 47.703125 
L 18.3125 47.703125 
L 18.3125 18.015625 
Q 18.3125 11.328125 20.140625 9.421875 
Q 21.96875 7.515625 27.59375 7.515625 
L 36.8125 7.515625 
L 36.8125 0 
L 27.59375 0 
Q 17.1875 0 13.234375 3.875 
Q 9.28125 7.765625 9.28125 18.015625 
L 9.28125 47.703125 
L 2.6875 47.703125 
L 2.6875 54.6875 
L 9.28125 54.6875 
L 9.28125 70.21875 
z
" id="DejaVuSans-116"/>
     <path d="M 41.109375 46.296875 
Q 39.59375 47.171875 37.8125 47.578125 
Q 36.03125 48 33.890625 48 
Q 26.265625 48 22.1875 43.046875 
Q 18.109375 38.09375 18.109375 28.8125 
L 18.109375 0 
L 9.078125 0 
L 9.078125 54.6875 
L 18.109375 54.6875 
L 18.109375 46.1875 
Q 20.953125 51.171875 25.484375 53.578125 
Q 30.03125 56 36.53125 56 
Q 37.453125 56 38.578125 55.875 
Q 39.703125 55.765625 41.0625 55.515625 
z
" id="DejaVuSans-114"/>
     <path d="M 48.6875 27.296875 
Q 48.6875 37.203125 44.609375 42.84375 
Q 40.53125 48.484375 33.40625 48.484375 
Q 26.265625 48.484375 22.1875 42.84375 
Q 18.109375 37.203125 18.109375 27.296875 
Q 18.109375 17.390625 22.1875 11.75 
Q 26.265625 6.109375 33.40625 6.109375 
Q 40.53125 6.109375 44.609375 11.75 
Q 48.6875 17.390625 48.6875 27.296875 
z
M 18.109375 46.390625 
Q 20.953125 51.265625 25.265625 53.625 
Q 29.59375 56 35.59375 56 
Q 45.5625 56 51.78125 48.09375 
Q 58.015625 40.1875 58.015625 27.296875 
Q 58.015625 14.40625 51.78125 6.484375 
Q 45.5625 -1.421875 35.59375 -1.421875 
Q 29.59375 -1.421875 25.265625 0.953125 
Q 20.953125 3.328125 18.109375 8.203125 
L 18.109375 0 
L 9.078125 0 
L 9.078125 75.984375 
L 18.109375 75.984375 
z
" id="DejaVuSans-98"/>
     <path d="M 8.5 21.578125 
L 8.5 54.6875 
L 17.484375 54.6875 
L 17.484375 21.921875 
Q 17.484375 14.15625 20.5 10.265625 
Q 23.53125 6.390625 29.59375 6.390625 
Q 36.859375 6.390625 41.078125 11.03125 
Q 45.3125 15.671875 45.3125 23.6875 
L 45.3125 54.6875 
L 54.296875 54.6875 
L 54.296875 0 
L 45.3125 0 
L 45.3125 8.40625 
Q 42.046875 3.421875 37.71875 1 
Q 33.40625 -1.421875 27.6875 -1.421875 
Q 18.265625 -1.421875 13.375 4.4375 
Q 8.5 10.296875 8.5 21.578125 
z
M 31.109375 56 
z
" id="DejaVuSans-117"/>
     <path d="M 30.609375 48.390625 
Q 23.390625 48.390625 19.1875 42.75 
Q 14.984375 37.109375 14.984375 27.296875 
Q 14.984375 17.484375 19.15625 11.84375 
Q 23.34375 6.203125 30.609375 6.203125 
Q 37.796875 6.203125 41.984375 11.859375 
Q 46.1875 17.53125 46.1875 27.296875 
Q 46.1875 37.015625 41.984375 42.703125 
Q 37.796875 48.390625 30.609375 48.390625 
z
M 30.609375 56 
Q 42.328125 56 49.015625 48.375 
Q 55.71875 40.765625 55.71875 27.296875 
Q 55.71875 13.875 49.015625 6.21875 
Q 42.328125 -1.421875 30.609375 -1.421875 
Q 18.84375 -1.421875 12.171875 6.21875 
Q 5.515625 13.875 5.515625 27.296875 
Q 5.515625 40.765625 12.171875 48.375 
Q 18.84375 56 30.609375 56 
z
" id="DejaVuSans-111"/>
     <path d="M 54.890625 33.015625 
L 54.890625 0 
L 45.90625 0 
L 45.90625 32.71875 
Q 45.90625 40.484375 42.875 44.328125 
Q 39.84375 48.1875 33.796875 48.1875 
Q 26.515625 48.1875 22.3125 43.546875 
Q 18.109375 38.921875 18.109375 30.90625 
L 18.109375 0 
L 9.078125 0 
L 9.078125 54.6875 
L 18.109375 54.6875 
L 18.109375 46.1875 
Q 21.34375 51.125 25.703125 53.5625 
Q 30.078125 56 35.796875 56 
Q 45.21875 56 50.046875 50.171875 
Q 54.890625 44.34375 54.890625 33.015625 
z
" id="DejaVuSans-110"/>
     <path d="M 34.1875 63.1875 
L 20.796875 26.90625 
L 47.609375 26.90625 
z
M 28.609375 72.90625 
L 39.796875 72.90625 
L 67.578125 0 
L 57.328125 0 
L 50.6875 18.703125 
L 17.828125 18.703125 
L 11.1875 0 
L 0.78125 0 
z
" id="DejaVuSans-65"/>
     <path d="M 45.40625 27.984375 
Q 45.40625 37.75 41.375 43.109375 
Q 37.359375 48.484375 30.078125 48.484375 
Q 22.859375 48.484375 18.828125 43.109375 
Q 14.796875 37.75 14.796875 27.984375 
Q 14.796875 18.265625 18.828125 12.890625 
Q 22.859375 7.515625 30.078125 7.515625 
Q 37.359375 7.515625 41.375 12.890625 
Q 45.40625 18.265625 45.40625 27.984375 
z
M 54.390625 6.78125 
Q 54.390625 -7.171875 48.1875 -13.984375 
Q 42 -20.796875 29.203125 -20.796875 
Q 24.46875 -20.796875 20.265625 -20.09375 
Q 16.0625 -19.390625 12.109375 -17.921875 
L 12.109375 -9.1875 
Q 16.0625 -11.328125 19.921875 -12.34375 
Q 23.78125 -13.375 27.78125 -13.375 
Q 36.625 -13.375 41.015625 -8.765625 
Q 45.40625 -4.15625 45.40625 5.171875 
L 45.40625 9.625 
Q 42.625 4.78125 38.28125 2.390625 
Q 33.9375 0 27.875 0 
Q 17.828125 0 11.671875 7.65625 
Q 5.515625 15.328125 5.515625 27.984375 
Q 5.515625 40.671875 11.671875 48.328125 
Q 17.828125 56 27.875 56 
Q 33.9375 56 38.28125 53.609375 
Q 42.625 51.21875 45.40625 46.390625 
L 45.40625 54.6875 
L 54.390625 54.6875 
z
" id="DejaVuSans-103"/>
     <path d="M 9.421875 75.984375 
L 18.40625 75.984375 
L 18.40625 0 
L 9.421875 0 
z
" id="DejaVuSans-108"/>
     <path d="M 56.203125 29.59375 
L 56.203125 25.203125 
L 14.890625 25.203125 
Q 15.484375 15.921875 20.484375 11.0625 
Q 25.484375 6.203125 34.421875 6.203125 
Q 39.59375 6.203125 44.453125 7.46875 
Q 49.3125 8.734375 54.109375 11.28125 
L 54.109375 2.78125 
Q 49.265625 0.734375 44.1875 -0.34375 
Q 39.109375 -1.421875 33.890625 -1.421875 
Q 20.796875 -1.421875 13.15625 6.1875 
Q 5.515625 13.8125 5.515625 26.8125 
Q 5.515625 40.234375 12.765625 48.109375 
Q 20.015625 56 32.328125 56 
Q 43.359375 56 49.78125 48.890625 
Q 56.203125 41.796875 56.203125 29.59375 
z
M 47.21875 32.234375 
Q 47.125 39.59375 43.09375 43.984375 
Q 39.0625 48.390625 32.421875 48.390625 
Q 24.90625 48.390625 20.390625 44.140625 
Q 15.875 39.890625 15.1875 32.171875 
z
" id="DejaVuSans-101"/>
     <path d="M 4.203125 54.6875 
L 13.1875 54.6875 
L 24.421875 12.015625 
L 35.59375 54.6875 
L 46.1875 54.6875 
L 57.421875 12.015625 
L 68.609375 54.6875 
L 77.59375 54.6875 
L 63.28125 0 
L 52.6875 0 
L 40.921875 44.828125 
L 29.109375 0 
L 18.5 0 
z
" id="DejaVuSans-119"/>
     <path d="M 54.890625 33.015625 
L 54.890625 0 
L 45.90625 0 
L 45.90625 32.71875 
Q 45.90625 40.484375 42.875 44.328125 
Q 39.84375 48.1875 33.796875 48.1875 
Q 26.515625 48.1875 22.3125 43.546875 
Q 18.109375 38.921875 18.109375 30.90625 
L 18.109375 0 
L 9.078125 0 
L 9.078125 75.984375 
L 18.109375 75.984375 
L 18.109375 46.1875 
Q 21.34375 51.125 25.703125 53.5625 
Q 30.078125 56 35.796875 56 
Q 45.21875 56 50.046875 50.171875 
Q 54.890625 44.34375 54.890625 33.015625 
z
" id="DejaVuSans-104"/>
     <path d="M 48.78125 52.59375 
L 48.78125 44.1875 
Q 44.96875 46.296875 41.140625 47.34375 
Q 37.3125 48.390625 33.40625 48.390625 
Q 24.65625 48.390625 19.8125 42.84375 
Q 14.984375 37.3125 14.984375 27.296875 
Q 14.984375 17.28125 19.8125 11.734375 
Q 24.65625 6.203125 33.40625 6.203125 
Q 37.3125 6.203125 41.140625 7.25 
Q 44.96875 8.296875 48.78125 10.40625 
L 48.78125 2.09375 
Q 45.015625 0.34375 40.984375 -0.53125 
Q 36.96875 -1.421875 32.421875 -1.421875 
Q 20.0625 -1.421875 12.78125 6.34375 
Q 5.515625 14.109375 5.515625 27.296875 
Q 5.515625 40.671875 12.859375 48.328125 
Q 20.21875 56 33.015625 56 
Q 37.15625 56 41.109375 55.140625 
Q 45.0625 54.296875 48.78125 52.59375 
z
" id="DejaVuSans-99"/>
     <path d="M 32.171875 -5.078125 
Q 28.375 -14.84375 24.75 -17.8125 
Q 21.140625 -20.796875 15.09375 -20.796875 
L 7.90625 -20.796875 
L 7.90625 -13.28125 
L 13.1875 -13.28125 
Q 16.890625 -13.28125 18.9375 -11.515625 
Q 21 -9.765625 23.484375 -3.21875 
L 25.09375 0.875 
L 2.984375 54.6875 
L 12.5 54.6875 
L 29.59375 11.921875 
L 46.6875 54.6875 
L 56.203125 54.6875 
z
" id="DejaVuSans-121"/>
     <path d="M 11.71875 12.40625 
L 22.015625 12.40625 
L 22.015625 4 
L 14.015625 -11.625 
L 7.71875 -11.625 
L 11.71875 4 
z
" id="DejaVuSans-44"/>
     <path d="M 45.40625 46.390625 
L 45.40625 75.984375 
L 54.390625 75.984375 
L 54.390625 0 
L 45.40625 0 
L 45.40625 8.203125 
Q 42.578125 3.328125 38.25 0.953125 
Q 33.9375 -1.421875 27.875 -1.421875 
Q 17.96875 -1.421875 11.734375 6.484375 
Q 5.515625 14.40625 5.515625 27.296875 
Q 5.515625 40.1875 11.734375 48.09375 
Q 17.96875 56 27.875 56 
Q 33.9375 56 38.25 53.625 
Q 42.578125 51.265625 45.40625 46.390625 
z
M 14.796875 27.296875 
Q 14.796875 17.390625 18.875 11.75 
Q 22.953125 6.109375 30.078125 6.109375 
Q 37.203125 6.109375 41.296875 11.75 
Q 45.40625 17.390625 45.40625 27.296875 
Q 45.40625 37.203125 41.296875 42.84375 
Q 37.203125 48.484375 30.078125 48.484375 
Q 22.953125 48.484375 18.875 42.84375 
Q 14.796875 37.203125 14.796875 27.296875 
z
" id="DejaVuSans-100"/>
     <path d="M 34.28125 27.484375 
Q 23.390625 27.484375 19.1875 25 
Q 14.984375 22.515625 14.984375 16.5 
Q 14.984375 11.71875 18.140625 8.90625 
Q 21.296875 6.109375 26.703125 6.109375 
Q 34.1875 6.109375 38.703125 11.40625 
Q 43.21875 16.703125 43.21875 25.484375 
L 43.21875 27.484375 
z
M 52.203125 31.203125 
L 52.203125 0 
L 43.21875 0 
L 43.21875 8.296875 
Q 40.140625 3.328125 35.546875 0.953125 
Q 30.953125 -1.421875 24.3125 -1.421875 
Q 15.921875 -1.421875 10.953125 3.296875 
Q 6 8.015625 6 15.921875 
Q 6 25.140625 12.171875 29.828125 
Q 18.359375 34.515625 30.609375 34.515625 
L 43.21875 34.515625 
L 43.21875 35.40625 
Q 43.21875 41.609375 39.140625 45 
Q 35.0625 48.390625 27.6875 48.390625 
Q 23 48.390625 18.546875 47.265625 
Q 14.109375 46.140625 10.015625 43.890625 
L 10.015625 52.203125 
Q 14.9375 54.109375 19.578125 55.046875 
Q 24.21875 56 28.609375 56 
Q 40.484375 56 46.34375 49.84375 
Q 52.203125 43.703125 52.203125 31.203125 
z
" id="DejaVuSans-97"/>
    </defs>
    <g transform="translate(55.599063 16.318125)scale(0.12 -0.12)">
     <use xlink:href="#DejaVuSans-68"/>
     <use x="77.001953" xlink:href="#DejaVuSans-105"/>
     <use x="104.785156" xlink:href="#DejaVuSans-115"/>
     <use x="156.884766" xlink:href="#DejaVuSans-116"/>
     <use x="196.09375" xlink:href="#DejaVuSans-114"/>
     <use x="237.207031" xlink:href="#DejaVuSans-105"/>
     <use x="264.990234" xlink:href="#DejaVuSans-98"/>
     <use x="328.466797" xlink:href="#DejaVuSans-117"/>
     <use x="391.845703" xlink:href="#DejaVuSans-116"/>
     <use x="431.054688" xlink:href="#DejaVuSans-105"/>
     <use x="458.837891" xlink:href="#DejaVuSans-111"/>
     <use x="520.019531" xlink:href="#DejaVuSans-110"/>
     <use x="583.398438" xlink:href="#DejaVuSans-32"/>
     <use x="615.185547" xlink:href="#DejaVuSans-65"/>
     <use x="683.59375" xlink:href="#DejaVuSans-110"/>
     <use x="746.972656" xlink:href="#DejaVuSans-103"/>
     <use x="810.449219" xlink:href="#DejaVuSans-108"/>
     <use x="838.232422" xlink:href="#DejaVuSans-101"/>
     <use x="899.755859" xlink:href="#DejaVuSans-32"/>
     <use x="931.542969" xlink:href="#DejaVuSans-101"/>
     <use x="993.066406" xlink:href="#DejaVuSans-114"/>
     <use x="1034.164062" xlink:href="#DejaVuSans-114"/>
     <use x="1075.246094" xlink:href="#DejaVuSans-111"/>
     <use x="1136.427734" xlink:href="#DejaVuSans-114"/>
     <use x="1177.541016" xlink:href="#DejaVuSans-32"/>
     <use x="1209.328125" xlink:href="#DejaVuSans-119"/>
     <use x="1291.115234" xlink:href="#DejaVuSans-105"/>
     <use x="1318.898438" xlink:href="#DejaVuSans-116"/>
     <use x="1358.107422" xlink:href="#DejaVuSans-104"/>
     <use x="1421.486328" xlink:href="#DejaVuSans-32"/>
     <use x="1453.273438" xlink:href="#DejaVuSans-101"/>
     <use x="1514.796875" xlink:href="#DejaVuSans-99"/>
     <use x="1569.777344" xlink:href="#DejaVuSans-99"/>
     <use x="1624.757812" xlink:href="#DejaVuSans-101"/>
     <use x="1686.28125" xlink:href="#DejaVuSans-110"/>
     <use x="1749.660156" xlink:href="#DejaVuSans-116"/>
     <use x="1788.869141" xlink:href="#DejaVuSans-114"/>
     <use x="1829.982422" xlink:href="#DejaVuSans-105"/>
     <use x="1857.765625" xlink:href="#DejaVuSans-99"/>
     <use x="1912.746094" xlink:href="#DejaVuSans-105"/>
     <use x="1940.529297" xlink:href="#DejaVuSans-116"/>
     <use x="1979.738281" xlink:href="#DejaVuSans-121"/>
     <use x="2038.917969" xlink:href="#DejaVuSans-44"/>
     <use x="2070.705078" xlink:href="#DejaVuSans-32"/>
     <use x="2102.492188" xlink:href="#DejaVuSans-100"/>
     <use x="2165.96875" xlink:href="#DejaVuSans-101"/>
     <use x="2227.492188" xlink:href="#DejaVuSans-108"/>
     <use x="2255.275391" xlink:href="#DejaVuSans-97"/>
     <use x="2316.554688" xlink:href="#DejaVuSans-121"/>
     <use x="2375.734375" xlink:href="#DejaVuSans-32"/>
     <use x="2407.521484" xlink:href="#DejaVuSans-51"/>
    </g>
   </g>
   <g id="legend_1">
    <g id="patch_58">
     <path d="M 45.465625 38.916563 
L 65.465625 38.916563 
L 65.465625 31.916563 
L 45.465625 31.916563 
z
" style="fill:#00ffff;opacity:0.4;"/>
    </g>
    <g id="text_10">
     <!-- 7.72 -->
     <g transform="translate(73.465625 38.916563)scale(0.1 -0.1)">
      <use xlink:href="#DejaVuSans-55"/>
      <use x="63.623047" xlink:href="#DejaVuSans-46"/>
      <use x="95.410156" xlink:href="#DejaVuSans-55"/>
      <use x="159.033203" xlink:href="#DejaVuSans-50"/>
     </g>
    </g>
    <g id="patch_59">
     <path d="M 45.465625 53.594688 
L 65.465625 53.594688 
L 65.465625 46.594688 
L 45.465625 46.594688 
z
" style="fill:#607fdf;opacity:0.4;"/>
    </g>
    <g id="text_11">
     <!-- 10.7 -->
     <g transform="translate(73.465625 53.594688)scale(0.1 -0.1)">
      <use xlink:href="#DejaVuSans-49"/>
      <use x="63.623047" xlink:href="#DejaVuSans-48"/>
      <use x="127.246094" xlink:href="#DejaVuSans-46"/>
      <use x="159.033203" xlink:href="#DejaVuSans-55"/>
     </g>
    </g>
    <g id="patch_60">
     <path d="M 45.465625 68.272813 
L 65.465625 68.272813 
L 65.465625 61.272813 
L 45.465625 61.272813 
z
" style="fill:#bf00bf;opacity:0.4;"/>
    </g>
    <g id="text_12">
     <!-- 13.68 -->
     <g transform="translate(73.465625 68.272813)scale(0.1 -0.1)">
      <use xlink:href="#DejaVuSans-49"/>
      <use x="63.623047" xlink:href="#DejaVuSans-51"/>
      <use x="127.246094" xlink:href="#DejaVuSans-46"/>
      <use x="159.033203" xlink:href="#DejaVuSans-54"/>
      <use x="222.65625" xlink:href="#DejaVuSans-56"/>
     </g>
    </g>
   </g>
  </g>
 </g>
 <defs>
  <clipPath id="p5ae2536e3e">
   <rect height="217.44" width="334.8" x="36.465625" y="22.318125"/>
  </clipPath>
 </defs>
</svg>
